<?xml version="1.0" encoding="UTF-8"?>
<svg id="Layer_1" data-name="Layer 1" xmlns="http://www.w3.org/2000/svg" viewBox="0 0 209.87 148.75">
  <defs>
    <style>
      .cls-1 {
        fill: none;
        stroke: #000;
        stroke-miterlimit: 10;
        stroke-width: 3px;
      }
    </style>
  </defs>
  <rect class="cls-1" x="9.53" y="6.2" width="190.81" height="136.34" rx="20" ry="20"/>
  <g>
    <polygon points="79.41 24.72 79.41 96.73 82.73 96.73 82.73 28.04 156.5 28.04 156.5 101.94 87.8 101.94 87.8 105.25 159.82 105.25 159.82 24.72 79.41 24.72"/>
    <path d="M80.94,98.5c-2.81,0-5.09,2.28-5.09,5.09s2.28,5.09,5.09,5.09,5.09-2.28,5.09-5.09c0-2.81-2.28-5.09-5.09-5.09ZM80.94,105.37c-.98,0-1.77-.8-1.77-1.77,0-.98.8-1.77,1.77-1.77s1.77.8,1.77,1.77-.8,1.77-1.77,1.77Z"/>
    <rect x="69.08" y="124.14" width="18.8" height="3.32"/>
    <path d="M103.36,106.89v10.4h-49.99v-59.94h24.11v-3.32h-24.11v-10.4h24.11v-3.32h-27.43v94.45h56.63v-27.87h-3.32ZM103.36,131.44h-49.99v-10.84h49.99v10.84Z"/>
    <rect x="69.08" y="47.17" width="8.41" height="3.32"/>
    <polygon points="60.23 102.02 60.23 95.17 73.94 95.17 73.94 84.99 67.09 84.99 67.09 69.29 56.91 69.29 56.91 72.61 63.77 72.61 63.77 88.31 70.62 88.31 70.62 91.85 56.91 91.85 56.91 105.34 74.16 105.34 74.16 102.02 60.23 102.02"/>
    <path d="M86.15,31.58v34.21h66.81V31.58h-66.81ZM89.46,34.9h7.04v3.64h-7.04v-3.64ZM89.46,41.86h10.36v1.77h-10.36v-1.77ZM134.11,62.47h-44.64v-8.66h20.75v-3.32h-20.75v-3.54h13.68v-8.41h-3.32v-3.64h39.37v1.87h-27.43v3.32h3.54v1.79h-3.42v17.05h22.22v3.55ZM142.77,45.2v10.41h-27.57v-10.41h27.57ZM118.62,41.88v-1.79h8.63v1.79h-8.63ZM130.57,41.88v-1.79h8.63v1.79h-8.63ZM149.64,62.47h-12.21v-3.55h8.67v-17.05h-3.58v-1.79h3.54v-3.32h-3.54v-1.87h7.13v27.57h0Z"/>
    <rect x="89.65" y="71.06" width="20.57" height="3.32"/>
    <rect x="89.65" y="78.14" width="6.86" height="3.32"/>
    <rect x="89.65" y="91.85" width="3.32" height="3.32"/>
    <rect x="96.5" y="91.85" width="3.32" height="3.32"/>
    <rect x="103.36" y="91.85" width="3.32" height="3.32"/>
    <rect x="110.22" y="91.85" width="3.54" height="3.32"/>
    <rect x="89.65" y="84.99" width="24.11" height="3.32"/>
    <path d="M120.47,84.78v10.18h29.06v-10.18h-29.06ZM146.21,91.64h-22.42v-3.55h22.42v3.55h0Z"/>
    <path d="M120.47,71.05v10.18h29.06v-10.18h-29.06ZM146.21,77.91h-22.42v-3.55h22.42v3.55h0Z"/>
  </g>
</svg>