<?xml version="1.0" encoding="UTF-8"?>
<svg id="Layer_1" data-name="Layer 1" xmlns="http://www.w3.org/2000/svg" viewBox="0 0 209.87 148.75">
  <defs>
    <style>
      .cls-1 {
        fill: none;
        stroke: #000;
        stroke-miterlimit: 10;
        stroke-width: 3px;
      }
    </style>
  </defs>
  <rect class="cls-1" x="9.53" y="6.2" width="190.81" height="136.34" rx="20" ry="20"/>
  <g>
    <path d="M104.94,45.42c4.63,0,8.27-3.9,8.27-8.27,0-4.63-3.64-8.27-8.27-8.27s-8.27,3.64-8.27,8.27,3.64,8.27,8.27,8.27ZM104.94,33.22c2.2,0,3.64,1.71,3.64,3.64s-1.71,3.64-3.64,3.64-3.64-1.47-3.64-3.64c0-1.94,1.45-3.64,3.64-3.64Z"/>
    <path d="M71.32,91.69c-4.63,0-8.27,3.64-8.27,8.27s3.64,8.27,8.27,8.27,8.27-3.64,8.27-8.27-3.64-8.27-8.27-8.27ZM71.32,103.37c-1.94,0-3.64-1.71-3.64-3.64s1.47-3.64,3.64-3.64c1.94,0,3.64,1.71,3.64,3.64s-1.45,3.64-3.64,3.64Z"/>
    <path d="M138.55,83.17c-7.71,0-14.48,3.6-18.78,9.23l-12.64-11.52v-13.38c11.91-1.12,21.42-11.35,21.42-23.52,0-13.15-10.46-23.62-23.62-23.62s-23.62,10.7-23.62,23.59,9.53,22.42,21.42,23.52v13.24l-12.68,11.59c-4.3-5.58-11.07-9.16-18.73-9.16-13.15.02-23.62,10.49-23.62,23.64s10.72,23.62,23.62,23.62,23.62-10.46,23.62-23.62c0-3.76-.86-7.31-2.38-10.44l12.29-11.31,12.45,11.35c-1.52,3.13-2.36,6.66-2.36,10.39,0,13.15,10.72,23.62,23.62,23.62s23.62-10.46,23.62-23.62-10.46-23.62-23.62-23.62h0ZM60.69,122.5c1.17-3.69,4.51-6.24,8.46-6.24h4.39c3.92,0,7.26,2.55,8.46,6.24-3.04,2.06-6.7,3.27-10.63,3.27s-7.64-1.21-10.68-3.27ZM85.59,119.3c-2.31-4.39-6.89-7.43-12.05-7.43h-4.39c-5.37,0-9.97,2.87-12.17,7.29-2.87-3.34-4.63-7.66-4.63-12.4,0-10.46,8.53-18.99,18.99-18.99s18.99,8.53,18.99,18.99c-.02,4.81-1.8,9.2-4.74,12.54h0ZM104.94,62.94c-3.95,0-7.59-1.21-10.63-3.27,1.17-3.69,4.51-6.24,8.46-6.24h4.39c3.92,0,7.26,2.55,8.46,6.24-3.08,2.08-6.73,3.27-10.68,3.27ZM85.95,43.95c0-10.46,8.53-18.99,18.99-18.99s18.99,8.53,18.99,18.99c0,4.79-1.8,9.18-4.74,12.52-2.31-4.39-6.89-7.43-12.05-7.43h-4.39c-5.37,0-9.97,2.87-12.17,7.29-2.87-3.29-4.63-7.64-4.63-12.38ZM127.9,122.5c1.17-3.69,4.51-6.24,8.46-6.24h4.39c3.92,0,7.26,2.55,8.46,6.24-3.04,2.06-6.7,3.27-10.63,3.27s-7.64-1.21-10.68-3.27ZM152.8,119.3c-2.31-4.39-6.89-7.43-12.05-7.43h-4.39c-5.37,0-9.97,2.87-12.17,7.29-2.87-3.34-4.63-7.66-4.63-12.4,0-10.46,8.53-18.99,18.99-18.99s18.99,8.53,18.99,18.99c0,4.81-1.8,9.2-4.74,12.54h0Z"/>
    <path d="M138.55,91.69c-4.63,0-8.27,3.64-8.27,8.27s3.64,8.27,8.27,8.27,8.27-3.64,8.27-8.27-3.64-8.27-8.27-8.27ZM138.55,103.37c-1.94,0-3.64-1.71-3.64-3.64s1.47-3.64,3.64-3.64,3.64,1.71,3.64,3.64-1.45,3.64-3.64,3.64Z"/>
  </g>
</svg>