<?xml version="1.0" encoding="UTF-8"?>
<svg id="Layer_1" data-name="Layer 1" xmlns="http://www.w3.org/2000/svg" viewBox="0 0 209.87 148.75">
  <defs>
    <style>
      .cls-1 {
        fill: none;
        stroke: #000;
        stroke-miterlimit: 10;
        stroke-width: 3px;
      }
    </style>
  </defs>
  <rect class="cls-1" x="9.53" y="6.2" width="190.81" height="136.34" rx="20" ry="20"/>
  <path d="M127.34,94.57h-7.7v-7.49c1.85-2.18,3.28-4.58,4.48-6.99.47-.08,1-.24,1.47-.46,2.15-1.03,4.12-3.52,5.24-6.68,1.29-3.64,1.15-7.47-.28-9.59.19-3.93.08-14.9-6.82-22.59-1.14-1.28-2.41-2.38-3.8-3.32-1.2-7.29-7.2-12.72-14.64-12.72s-13.99,5.31-15.31,12.44c-2.62,1.5-4.83,3.45-6.57,5.83-3.81,5.21-5,12.57-3.49,20.36-1.96,1.95-2.39,5.4-.91,9.59.74,2.11,1.89,3.98,3.22,5.27,1.1,1.06,2.31,1.71,3.52,1.89,1.26,2.52,2.75,5.04,4.6,7.3v7.17h-7.83c-11.06,0-19.49,19.03-19.49,28.51,0,1.06.61,2.07,1.57,2.52,14.87,6.98,28.89,9.17,40.56,9.17,6.14,0,11.63-.59,16.25-1.4,14.54-2.56,23.64-7.6,24.02-7.82.86-.48,1.39-1.48,1.39-2.47,0-9.48-8.43-28.51-19.49-28.51ZM86.02,67.86c1.2-1.4,4.6-5.59,6.69-10.22,4.35,4.53,13.69,9.89,33.53,9.92.08.76.02,2-.53,3.56-.73,2.08-1.8,3.18-2.28,3.5-.56-.19-1.18-.18-1.75.01-.72.25-1.3.78-1.6,1.47-2.94,6.62-8.71,14.35-15.14,14.35-3.38,0-6.51-2.14-9.2-5.14,1.29.24,2.47.33,3.45.33.12,0,.24.02.35.02.69.89,1.77,1.49,2.98,1.49h4.83c2.09,0,3.76-1.74,3.76-3.83v-1.19c0-2.09-1.68-3.88-3.76-3.88h-4.83c-1.38,0-2.58.79-3.24,1.89-1.11.02-2.69-.08-4.39-.71-4.17-1.56-7.19-5.55-8.87-11.58ZM105.29,30.18c3.26,0,5.79,1.63,7.57,4.16-2.25-.57-5.08-.86-7.68-.86h0c-2.96.02-5.78.36-8.36.98,1.77-2.6,5.17-4.29,8.47-4.29ZM87.77,46.22c3.43-4.69,9.26-7.2,17.42-7.26h0c5.93,0,11.17,1.83,14.41,5.44,4.87,5.42,5.53,13.64,5.51,17.7-14.47-.18-22.08-3.37-25.95-6.06-3.91-2.72-4.71-5.35-4.8-5.67-.22-1.4-1.48-2.34-2.89-2.23-1.43.11-2.52,1.35-2.52,2.78,0,2.52-1.89,6.14-3.98,9.26-.75-5.54.18-10.37,2.8-13.95ZM93.1,100.13c1.51,0,2.45-1.13,2.45-2.64v-4.78c2.96,1.98,5.94,3.21,9.26,3.21s6.67-1.31,9.64-3.39v4.96c0,1.51,1.18,2.64,2.69,2.64h2.93l-15.13,11.83-15.13-11.83h3.29ZM120.47,127.99c-12.28,2.16-31.12,2.72-51.86-6.53.84-7.64,6.82-19.39,12.59-21.04l22.06,17.25c.49.39,1.09.58,1.68.58s1.19-.19,1.68-.58l22.06-17.25c5.79,1.66,11.79,13.49,12.6,21.12-3.01,1.45-10.45,4.63-20.81,6.45Z"/>
</svg>