<?xml version="1.0" encoding="UTF-8"?>
<svg id="Layer_1" data-name="Layer 1" xmlns="http://www.w3.org/2000/svg" viewBox="0 0 366.28 305.38">
  <defs>
    <style>
      .cls-1 {
        letter-spacing: -.01em;
      }

      .cls-2 {
        letter-spacing: 0em;
      }

      .cls-3 {
        letter-spacing: 0em;
      }

      .cls-4 {
        letter-spacing: 0em;
      }

      .cls-5 {
        letter-spacing: 0em;
      }

      .cls-6 {
        fill: #fff;
      }

      .cls-7 {
        letter-spacing: 0em;
      }

      .cls-8 {
        letter-spacing: -.02em;
      }

      .cls-9 {
        letter-spacing: -.05em;
      }

      .cls-10 {
        letter-spacing: 0em;
      }

      .cls-11 {
        letter-spacing: -.03em;
      }

      .cls-12 {
        letter-spacing: 0em;
      }

      .cls-13 {
        letter-spacing: -.01em;
      }

      .cls-14 {
        letter-spacing: -.03em;
      }

      .cls-15 {
        font-family: UrbanistRoman-Bold, Urbanist;
        font-size: 23.99px;
        font-variation-settings: 'wght' 700;
        font-weight: 700;
      }

      .cls-16 {
        letter-spacing: -.03em;
      }

      .cls-17 {
        letter-spacing: -.02em;
      }

      .cls-18 {
        letter-spacing: -.01em;
      }

      .cls-19 {
        letter-spacing: 0em;
      }

      .cls-20 {
        letter-spacing: -.01em;
      }

      .cls-21 {
        letter-spacing: -.02em;
      }

      .cls-22 {
        letter-spacing: 0em;
      }

      .cls-23 {
        letter-spacing: -.03em;
      }

      .cls-24 {
        letter-spacing: -.01em;
      }

      .cls-25 {
        letter-spacing: 0em;
      }

      .cls-26 {
        letter-spacing: -.01em;
      }

      .cls-27 {
        letter-spacing: 0em;
      }

      .cls-28 {
        letter-spacing: 0em;
      }

      .cls-29 {
        font-family: Urbanist-Regular, Urbanist;
        font-size: 18px;
        font-variation-settings: 'wght' 400;
      }

      .cls-30 {
        letter-spacing: 0em;
      }

      .cls-31 {
        fill: #130044;
      }
    </style>
  </defs>
  <rect class="cls-31" x="0" y="0" width="366.28" height="305.38" rx="29.13" ry="29.13"/>
  <path class="cls-6" d="M44.42,48.25c2.36-1.59,3.91-4.29,3.91-7.35,0-4.89-3.97-8.86-8.86-8.86s-8.86,3.97-8.86,8.86c0,3.06,1.55,5.76,3.91,7.35-4.09,1.88-6.93,6.01-6.93,10.8v16.36c3.57,1.8,7.61,2.82,11.88,2.82s8.31-1.02,11.88-2.82v-16.36c0-4.79-2.84-8.92-6.93-10.8ZM33.25,40.9c0-3.44,2.79-6.22,6.22-6.22s6.22,2.79,6.22,6.22-2.79,6.22-6.22,6.22-6.22-2.79-6.22-6.22ZM35.09,59.16l3.57,11.42h-3.57v-11.42ZM32.39,53.11v10.15h-2.16v-4.21c0-2.26.81-4.33,2.16-5.94ZM32.39,65.95v4.63h-2.1v-4.63h2.1ZM48.71,73.73c-2.84,1.2-5.96,1.86-9.24,1.86s-6.4-.66-9.24-1.86v-.46h10.68c2.75,0,4.99-2.24,4.99-4.99v-.03c0-2.75-2.24-4.99-4.99-4.99h-1.72l-3.9-12.45c1.25-.64,2.67-1,4.18-1,5.1,0,9.24,4.14,9.24,9.24v14.68ZM40.03,65.95h.88c1.27,0,2.3,1.03,2.3,2.3v.03c0,1.08-.74,1.98-1.75,2.23l-1.43-4.56Z"/>
  <text class="cls-6" transform="translate(27.59 119.7)"><tspan class="cls-15"><tspan class="cls-9" x="0" y="0">A</tspan><tspan class="cls-21" x="16.29" y="0">c</tspan><tspan class="cls-13" x="28.06" y="0">i</tspan><tspan class="cls-2" x="33.59" y="0">d</tspan><tspan class="cls-1" x="48.29" y="0">e</tspan><tspan x="61.43" y="0">n</tspan><tspan class="cls-20" x="74.81" y="0">t</tspan><tspan class="cls-2" x="83.14" y="0">e</tspan><tspan x="96.38" y="0">s </tspan><tspan class="cls-19" x="112.56" y="0">p</tspan><tspan class="cls-2" x="127.16" y="0">e</tspan><tspan x="140.4" y="0">s</tspan><tspan class="cls-2" x="150.83" y="0">s</tspan><tspan class="cls-19" x="161.07" y="0">o</tspan><tspan x="174.26" y="0">a</tspan><tspan class="cls-2" x="188.63" y="0">i</tspan><tspan x="194.25" y="0">s </tspan></tspan><tspan class="cls-15"><tspan class="cls-7" x="0" y="28.78">i</tspan><tspan class="cls-19" x="5.71" y="28.78">n</tspan><tspan x="18.85" y="28.78">d</tspan><tspan class="cls-17" x="33.73" y="28.78">iv</tspan><tspan class="cls-13" x="52.73" y="28.78">i</tspan><tspan x="58.26" y="28.78">d</tspan><tspan class="cls-2" x="73.14" y="28.78">u</tspan><tspan x="85.86" y="28.78">a</tspan><tspan class="cls-2" x="100.23" y="28.78">i</tspan><tspan x="105.85" y="28.78">s</tspan></tspan><tspan class="cls-29"><tspan class="cls-23" x="0" y="50.38">C</tspan><tspan class="cls-28" x="12.13" y="50.38">o</tspan><tspan class="cls-5" x="22.06" y="50.38">b</tspan><tspan class="cls-11" x="32.8" y="50.38">r</tspan><tspan x="38.63" y="50.38">e </tspan><tspan class="cls-25" x="53" y="50.38">de</tspan><tspan x="73.75" y="50.38">s</tspan><tspan class="cls-26" x="81.49" y="50.38">p</tspan><tspan class="cls-25" x="92.12" y="50.38">es</tspan><tspan x="109.78" y="50.38">as </tspan><tspan class="cls-5" x="132.29" y="50.38">e</tspan><tspan x="142.25" y="50.38">m </tspan><tspan class="cls-27" x="162.57" y="50.38">c</tspan><tspan x="171.62" y="50.38">a</tspan><tspan class="cls-25" x="182.08" y="50.38">s</tspan><tspan x="189.75" y="50.38">o </tspan><tspan class="cls-25" x="204.15" y="50.38">d</tspan><tspan x="214.91" y="50.38">e </tspan></tspan><tspan class="cls-29"><tspan class="cls-22" x="0" y="71.98">m</tspan><tspan class="cls-5" x="15.81" y="71.98">o</tspan><tspan x="25.8" y="71.98">r</tspan><tspan class="cls-18" x="32.24" y="71.98">t</tspan><tspan x="38.21" y="71.98">e </tspan><tspan class="cls-22" x="52.58" y="71.98">a</tspan><tspan class="cls-28" x="62.86" y="71.98">c</tspan><tspan class="cls-5" x="71.87" y="71.98">i</tspan><tspan class="cls-25" x="75.2" y="71.98">d</tspan><tspan class="cls-5" x="85.97" y="71.98">e</tspan><tspan x="95.93" y="71.98">n</tspan><tspan class="cls-24" x="105.58" y="71.98">t</tspan><tspan class="cls-12" x="111.55" y="71.98">a</tspan><tspan x="122.12" y="71.98">l </tspan><tspan class="cls-26" x="129.86" y="71.98">o</tspan><tspan x="139.76" y="71.98">u </tspan><tspan class="cls-10" x="153.37" y="71.98">i</tspan><tspan class="cls-22" x="156.76" y="71.98">n</tspan><tspan class="cls-14" x="166.23" y="71.98">v</tspan><tspan class="cls-12" x="175" y="71.98">a</tspan><tspan x="185.58" y="71.98">l</tspan><tspan class="cls-5" x="189" y="71.98">i</tspan><tspan class="cls-4" x="192.33" y="71.98">d</tspan><tspan class="cls-8" x="203.09" y="71.98">e</tspan><tspan x="212.81" y="71.98">z </tspan></tspan><tspan class="cls-29"><tspan class="cls-22" x="0" y="93.58">p</tspan><tspan class="cls-5" x="10.64" y="93.58">er</tspan><tspan class="cls-26" x="26.95" y="93.58">m</tspan><tspan x="42.76" y="93.58">a</tspan><tspan class="cls-22" x="53.22" y="93.58">n</tspan><tspan class="cls-5" x="62.69" y="93.58">e</tspan><tspan x="72.65" y="93.58">n</tspan><tspan class="cls-24" x="82.3" y="93.58">t</tspan><tspan x="88.26" y="93.58">e </tspan><tspan class="cls-25" x="102.64" y="93.58">d</tspan><tspan class="cls-26" x="113.4" y="93.58">e</tspan><tspan class="cls-27" x="123.27" y="93.58">c</tspan><tspan class="cls-5" x="132.33" y="93.58">or</tspan><tspan class="cls-16" x="148.66" y="93.58">r</tspan><tspan class="cls-5" x="154.49" y="93.58">e</tspan><tspan x="164.46" y="93.58">n</tspan><tspan class="cls-24" x="174.1" y="93.58">t</tspan><tspan x="180.07" y="93.58">e </tspan><tspan class="cls-25" x="194.44" y="93.58">d</tspan><tspan x="205.21" y="93.58">e </tspan></tspan><tspan class="cls-29"><tspan class="cls-22" x="0" y="115.18">a</tspan><tspan class="cls-3" x="10.28" y="115.18">c</tspan><tspan class="cls-5" x="19.3" y="115.18">i</tspan><tspan class="cls-25" x="22.63" y="115.18">d</tspan><tspan class="cls-30" x="33.39" y="115.18">e</tspan><tspan x="43.35" y="115.18">n</tspan><tspan class="cls-18" x="53" y="115.18">t</tspan><tspan x="58.97" y="115.18">e e </tspan><tspan class="cls-25" x="87.71" y="115.18">de</tspan><tspan x="108.47" y="115.18">s</tspan><tspan class="cls-26" x="116.2" y="115.18">p</tspan><tspan class="cls-25" x="126.84" y="115.18">es</tspan><tspan x="144.49" y="115.18">as </tspan><tspan class="cls-26" x="167" y="115.18">mé</tspan><tspan x="192.69" y="115.18">d</tspan><tspan class="cls-5" x="203.51" y="115.18">i</tspan><tspan class="cls-27" x="206.84" y="115.18">c</tspan><tspan x="215.9" y="115.18">a</tspan><tspan class="cls-10" x="226.36" y="115.18">s</tspan><tspan x="234.06" y="115.18">, </tspan></tspan><tspan class="cls-29"><tspan class="cls-22" x="0" y="136.78">h</tspan><tspan class="cls-25" x="9.47" y="136.78">o</tspan><tspan x="19.49" y="136.78">s</tspan><tspan class="cls-26" x="27.22" y="136.78">p</tspan><tspan x="37.85" y="136.78">i</tspan><tspan class="cls-24" x="41.27" y="136.78">t</tspan><tspan class="cls-12" x="47.24" y="136.78">a</tspan><tspan class="cls-25" x="57.82" y="136.78">l</tspan><tspan x="61.17" y="136.78">a</tspan><tspan class="cls-16" x="71.63" y="136.78">r</tspan><tspan class="cls-25" x="77.46" y="136.78">e</tspan><tspan x="87.45" y="136.78">s e </tspan><tspan class="cls-26" x="113.88" y="136.78">o</tspan><tspan class="cls-4" x="123.78" y="136.78">d</tspan><tspan class="cls-5" x="134.54" y="136.78">o</tspan><tspan x="144.53" y="136.78">n</tspan><tspan class="cls-18" x="154.18" y="136.78">t</tspan><tspan class="cls-28" x="160.15" y="136.78">o</tspan><tspan class="cls-25" x="170.07" y="136.78">l</tspan><tspan class="cls-22" x="173.43" y="136.78">ó</tspan><tspan class="cls-5" x="183.33" y="136.78">gi</tspan><tspan class="cls-27" x="197.15" y="136.78">c</tspan><tspan x="206.2" y="136.78">a</tspan><tspan class="cls-10" x="216.66" y="136.78">s</tspan><tspan x="224.36" y="136.78">.</tspan></tspan></text>
</svg>