<?xml version="1.0" encoding="UTF-8"?>
<svg id="Layer_1" data-name="Layer 1" xmlns="http://www.w3.org/2000/svg" viewBox="0 0 366.28 305.38">
  <defs>
    <style>
      .cls-1 {
        letter-spacing: 0em;
      }

      .cls-2 {
        letter-spacing: -.01em;
      }

      .cls-3 {
        letter-spacing: -.05em;
      }

      .cls-4 {
        letter-spacing: -.01em;
      }

      .cls-5 {
        font-family: UrbanistRoman-Bold, Urbanist;
        font-size: 23.99px;
        font-variation-settings: 'wght' 700;
        font-weight: 700;
      }

      .cls-5, .cls-6 {
        fill: #130044;
      }

      .cls-7 {
        letter-spacing: -.01em;
      }

      .cls-8 {
        letter-spacing: 0em;
      }

      .cls-9 {
        letter-spacing: -.01em;
      }

      .cls-10 {
        letter-spacing: -.02em;
      }

      .cls-11 {
        letter-spacing: -.05em;
      }

      .cls-12 {
        letter-spacing: -.02em;
      }
    </style>
  </defs>
  <path class="cls-6" d="M337.15,8.99c11.1,0,20.14,9.03,20.14,20.14v247.12c0,11.1-9.03,20.14-20.14,20.14H29.13c-11.1,0-20.14-9.03-20.14-20.14V29.13c0-11.1,9.03-20.14,20.14-20.14h308.02M337.15,0H29.13C13.11,0,0,13.11,0,29.13v247.12C0,292.27,13.11,305.38,29.13,305.38h308.02c16.02,0,29.13-13.11,29.13-29.13V29.13C366.28,13.11,353.18,0,337.15,0h0Z"/>
  <text class="cls-5" transform="translate(27.59 245.21)"><tspan class="cls-11" x="0" y="0">A</tspan><tspan class="cls-12" x="16.29" y="0">c</tspan><tspan class="cls-2" x="28.06" y="0">i</tspan><tspan class="cls-1" x="33.59" y="0">d</tspan><tspan class="cls-4" x="48.29" y="0">e</tspan><tspan x="61.43" y="0">n</tspan><tspan class="cls-9" x="74.81" y="0">t</tspan><tspan class="cls-1" x="83.14" y="0">e</tspan><tspan x="96.38" y="0">s </tspan><tspan class="cls-1" x="112.56" y="0">d</tspan><tspan x="127.25" y="0">e </tspan><tspan class="cls-4" x="146.43" y="0">o</tspan><tspan class="cls-10" x="159.58" y="0">r</tspan><tspan class="cls-2" x="168.45" y="0">ige</tspan><tspan x="201.55" y="0">m </tspan><tspan class="cls-3" x="0" y="28.78">e</tspan><tspan x="12.15" y="28.78">x</tspan><tspan class="cls-7" x="26.46" y="28.78">t</tspan><tspan class="cls-2" x="34.78" y="28.78">er</tspan><tspan class="cls-8" x="56.88" y="28.78">n</tspan><tspan x="70.03" y="28.78">a</tspan></text>
  <polygon class="cls-6" points="338.69 262.6 330.04 262.6 330.04 253.95 324.38 253.95 324.38 262.6 315.73 262.6 315.73 268.27 324.38 268.27 324.38 276.92 330.04 276.92 330.04 268.27 338.69 268.27 338.69 262.6"/>
  <path class="cls-6" d="M73.79,72.35v-28.19c0-.65-.53-1.17-1.17-1.17h-11.81l-2.8-5.61c-.2-.39-.59-.65-1.05-.65h-12.53c-.46,0-.85.26-1.05.64h0s-2.81,5.62-2.81,5.62h-.35l-10.62-10.62c-.21-.21-.5-.33-.82-.33-.65,0-1.17.53-1.17,1.17,0,.32.13.61.33.82l43.85,43.85c.21.21.51.34.83.34.65,0,1.18-.53,1.18-1.18,0-.32-.13-.62-.34-.83l-2.69-2.69h1.86c.65,0,1.17-.53,1.17-1.17h0ZM55.75,58.53l-5.33-5.33c.09,0,.18-.03.27-.03,2.81,0,5.09,2.28,5.09,5.09h0c0,.09-.02.18-.03.27ZM71.44,71.18h-3.04l-10.67-10.67c.25-.7.39-1.52.39-2.36,0-4.05-3.28-7.33-7.33-7.33-.85,0-1.66.14-2.42.41l.05-.02-6.3-6.3c.08-.07.15-.14.2-.22h0s2.81-5.62,2.81-5.62h11.07l2.8,5.61c.2.39.59.65,1.05.65h11.36v25.84ZM60.09,71.18h-30.15v-25.84h1.96c.65,0,1.17-.53,1.17-1.17s-.53-1.17-1.17-1.17h-3.13c-.65,0-1.17.53-1.17,1.17h0v28.19c0,.65.53,1.17,1.17,1.17h31.32c.65,0,1.17-.53,1.17-1.17s-.53-1.17-1.17-1.17h0ZM44.92,55.55c-.08-.02-.18-.03-.28-.03-.55,0-1.01.37-1.14.87h0c-.15.56-.23,1.2-.23,1.86,0,4.11,3.33,7.44,7.44,7.45h.02c.66,0,1.29-.09,1.9-.25h-.05c.51-.12.88-.58.88-1.12,0-.65-.52-1.17-1.17-1.17-.11,0-.21.01-.31.04h0c-.38.1-.81.16-1.26.16-2.81,0-5.09-2.28-5.09-5.09,0-.45.06-.89.17-1.3v.04c.02-.09.03-.19.03-.29,0-.55-.37-1-.87-1.14h0s0,0,0,0Z"/>
</svg>