<?xml version="1.0" encoding="UTF-8"?>
<svg id="Layer_1" data-name="Layer 1" xmlns="http://www.w3.org/2000/svg" viewBox="0 0 366.28 305.38">
  <defs>
    <style>
      .cls-1 {
        letter-spacing: 0em;
      }

      .cls-2 {
        letter-spacing: 0em;
      }

      .cls-3 {
        letter-spacing: 0em;
      }

      .cls-4 {
        letter-spacing: -.01em;
      }

      .cls-5 {
        letter-spacing: 0em;
      }

      .cls-6 {
        fill: #fff;
      }

      .cls-7 {
        letter-spacing: -.03em;
      }

      .cls-8 {
        letter-spacing: 0em;
      }

      .cls-9 {
        letter-spacing: -.03em;
      }

      .cls-10 {
        letter-spacing: -.03em;
      }

      .cls-11 {
        letter-spacing: -.04em;
      }

      .cls-12 {
        letter-spacing: -.01em;
      }

      .cls-13 {
        letter-spacing: 0em;
      }

      .cls-14 {
        letter-spacing: 0em;
      }

      .cls-15 {
        letter-spacing: 0em;
      }

      .cls-16 {
        font-family: UrbanistRoman-Bold, Urbanist;
        font-size: 23.99px;
        font-variation-settings: 'wght' 700;
        font-weight: 700;
      }

      .cls-17 {
        letter-spacing: -.01em;
      }

      .cls-18 {
        letter-spacing: 0em;
      }

      .cls-19 {
        letter-spacing: -.01em;
      }

      .cls-20 {
        letter-spacing: 0em;
      }

      .cls-21 {
        font-family: Urbanist-Regular, Urbanist;
        font-size: 18px;
        font-variation-settings: 'wght' 400;
      }

      .cls-22 {
        letter-spacing: -.07em;
      }

      .cls-23 {
        fill: #130044;
      }
    </style>
  </defs>
  <rect class="cls-23" x="0" y="0" width="366.28" height="305.38" rx="29.13" ry="29.13"/>
  <path class="cls-6" d="M42.24,44.69h2.13v7.39h-2.13v-7.39ZM36.73,52.08h2.13v-7.39h-2.13v7.39ZM66.4,44.69h-2.13v7.39h2.13v-7.39ZM71.91,44.69h-2.13v7.39h2.13v-7.39ZM55.39,44.69h-2.13v5.72h2.13v-5.72ZM47.75,52.08h2.13v-7.39h-2.13v7.39ZM60.89,44.69h-2.13v7.39h2.13v-7.39ZM60.89,65.77h-2.13v7.39h2.13v-7.39ZM66.4,65.77h-2.13v7.39h2.13v-7.39ZM81.05,55.15v7.37h-1.22v2.53l-2.58,13.18H31.39l-2.58-13.18v-2.53h-1.22v-7.37h1.22v-2.63l5.11-13.09h9.47v-1.6l2.26-5.8h17.33l2.26,5.8v1.6h9.47l5.11,13.09v2.63h1.22ZM45.53,39.43h17.59v-1.2l-1.59-4.06h-14.41l-1.59,4.06v1.2ZM30.94,55.15h19.76c.93-.92,2.21-1.48,3.62-1.48s2.69.57,3.62,1.48h19.76v-2.22l-4.44-11.36h-37.88l-4.44,11.36v2.22ZM54.32,55.8c-1.67,0-3.04,1.36-3.04,3.04s1.36,3.04,3.04,3.04,3.04-1.36,3.04-3.04-1.36-3.04-3.04-3.04ZM29.73,60.39h19.66c-.15-.49-.24-1.01-.24-1.55s.08-1.06.24-1.55h-19.66v3.11ZM77.7,62.52h-19.76c-.93.92-2.21,1.48-3.62,1.48s-2.69-.57-3.62-1.48h-19.76v2.32l2.2,11.26h42.35l2.2-11.26v-2.32h0ZM78.91,57.28h-19.66c.15.49.24,1.01.24,1.55s-.08,1.06-.24,1.55h19.66v-3.11ZM36.73,73.16h2.13v-7.39h-2.13v7.39ZM71.91,65.77h-2.13v7.39h2.13v-7.39ZM42.24,73.16h2.13v-7.39h-2.13v7.39ZM47.75,73.16h2.13v-7.39h-2.13v7.39ZM53.25,73.16h2.13v-5.72h-2.13v5.72Z"/>
  <text class="cls-6" transform="translate(27.59 119.7)"><tspan class="cls-16"><tspan class="cls-22" x="0" y="0">T</tspan><tspan class="cls-11" x="13.54" y="0">r</tspan><tspan x="21.88" y="0">ans</tspan><tspan class="cls-14" x="60.05" y="0">p</tspan><tspan class="cls-4" x="74.66" y="0">o</tspan><tspan x="87.81" y="0">r</tspan><tspan class="cls-12" x="97.05" y="0">t</tspan><tspan x="105.37" y="0">e </tspan><tspan class="cls-1" x="124.55" y="0">d</tspan><tspan x="139.24" y="0">e </tspan><tspan class="cls-14" x="158.42" y="0">p</tspan><tspan class="cls-12" x="173.03" y="0">e</tspan><tspan x="186.18" y="0">t</tspan></tspan><tspan class="cls-21"><tspan x="0" y="43.2">Em </tspan><tspan class="cls-20" x="29.96" y="43.2">c</tspan><tspan x="39.01" y="43.2">a</tspan><tspan class="cls-18" x="49.47" y="43.2">s</tspan><tspan x="57.14" y="43.2">o </tspan><tspan class="cls-18" x="71.54" y="43.2">d</tspan><tspan x="82.3" y="43.2">e </tspan><tspan class="cls-3" x="96.68" y="43.2">l</tspan><tspan class="cls-19" x="100.03" y="43.2">o</tspan><tspan class="cls-20" x="109.93" y="43.2">c</tspan><tspan class="cls-8" x="118.99" y="43.2">a</tspan><tspan x="129.56" y="43.2">li</tspan><tspan class="cls-5" x="136.4" y="43.2">z</tspan><tspan class="cls-15" x="145.44" y="43.2">a</tspan><tspan class="cls-20" x="155.72" y="43.2">ç</tspan><tspan class="cls-19" x="164.77" y="43.2">ão</tspan><tspan x="184.95" y="43.2">, </tspan><tspan class="cls-20" x="192.89" y="43.2">c</tspan><tspan class="cls-2" x="201.94" y="43.2">o</tspan><tspan class="cls-5" x="211.87" y="43.2">b</tspan><tspan class="cls-10" x="222.6" y="43.2">r</tspan><tspan x="228.44" y="43.2">e o </tspan></tspan><tspan class="cls-21"><tspan class="cls-15" x="0" y="64.8">pa</tspan><tspan class="cls-5" x="20.92" y="64.8">g</tspan><tspan x="31.4" y="64.8">a</tspan><tspan class="cls-15" x="41.86" y="64.8">m</tspan><tspan class="cls-5" x="57.67" y="64.8">e</tspan><tspan x="67.63" y="64.8">n</tspan><tspan class="cls-17" x="77.28" y="64.8">t</tspan><tspan class="cls-19" x="83.25" y="64.8">o</tspan><tspan x="93.15" y="64.8">, a</tspan><tspan class="cls-17" x="111.55" y="64.8">t</tspan><tspan x="117.51" y="64.8">é o </tspan><tspan class="cls-9" x="146.29" y="64.8">v</tspan><tspan class="cls-8" x="155.06" y="64.8">a</tspan><tspan class="cls-3" x="165.63" y="64.8">l</tspan><tspan class="cls-5" x="168.99" y="64.8">o</tspan><tspan x="178.98" y="64.8">r </tspan><tspan class="cls-18" x="189.74" y="64.8">e</tspan><tspan x="199.73" y="64.8">s</tspan><tspan class="cls-18" x="207.46" y="64.8">ti</tspan><tspan class="cls-15" x="216.96" y="64.8">p</tspan><tspan class="cls-8" x="227.6" y="64.8">u</tspan><tspan class="cls-18" x="237" y="64.8">l</tspan><tspan class="cls-15" x="240.36" y="64.8">a</tspan><tspan class="cls-18" x="250.64" y="64.8">d</tspan><tspan x="261.4" y="64.8">o </tspan></tspan><tspan class="cls-21"><tspan class="cls-5" x="0" y="86.4">e</tspan><tspan x="9.96" y="86.4">m a</tspan><tspan class="cls-15" x="40.73" y="86.4">p</tspan><tspan class="cls-2" x="51.37" y="86.4">ó</tspan><tspan x="61.3" y="86.4">l</tspan><tspan class="cls-5" x="64.72" y="86.4">i</tspan><tspan class="cls-20" x="68.05" y="86.4">c</tspan><tspan class="cls-15" x="77.1" y="86.4">e</tspan><tspan x="86.98" y="86.4">, </tspan><tspan class="cls-18" x="94.91" y="86.4">do</tspan><tspan x="115.69" y="86.4">s </tspan><tspan class="cls-5" x="127.74" y="86.4">c</tspan><tspan x="136.83" y="86.4">us</tspan><tspan class="cls-17" x="153.84" y="86.4">t</tspan><tspan class="cls-18" x="159.81" y="86.4">o</tspan><tspan x="169.83" y="86.4">s </tspan><tspan class="cls-18" x="181.88" y="86.4">d</tspan><tspan x="192.64" y="86.4">e </tspan></tspan><tspan class="cls-21"><tspan x="0" y="108">t</tspan><tspan class="cls-7" x="6.21" y="108">r</tspan><tspan x="12.04" y="108">ans</tspan><tspan class="cls-15" x="39.88" y="108">p</tspan><tspan class="cls-5" x="50.52" y="108">o</tspan><tspan x="60.51" y="108">r</tspan><tspan class="cls-17" x="66.94" y="108">t</tspan><tspan x="72.91" y="108">e </tspan><tspan class="cls-18" x="87.28" y="108">d</tspan><tspan x="98.05" y="108">o </tspan><tspan class="cls-18" x="112.45" y="108">s</tspan><tspan class="cls-15" x="120.11" y="108">e</tspan><tspan x="129.99" y="108">u </tspan><tspan class="cls-19" x="143.59" y="108">p</tspan><tspan class="cls-17" x="154.23" y="108">e</tspan><tspan class="cls-15" x="164.04" y="108">t</tspan><tspan class="cls-13" x="170.07" y="108">.</tspan></tspan></text>
</svg>