<?xml version="1.0" encoding="UTF-8"?>
<svg id="Layer_1" data-name="Layer 1" xmlns="http://www.w3.org/2000/svg" viewBox="0 0 366.28 305.38">
  <defs>
    <style>
      .cls-1 {
        letter-spacing: 0em;
      }

      .cls-2 {
        letter-spacing: 0em;
      }

      .cls-3 {
        letter-spacing: 0em;
      }

      .cls-4 {
        letter-spacing: -.04em;
      }

      .cls-5 {
        letter-spacing: 0em;
      }

      .cls-6 {
        letter-spacing: .01em;
      }

      .cls-7 {
        letter-spacing: -.02em;
      }

      .cls-8 {
        letter-spacing: 0em;
      }

      .cls-9, .cls-10 {
        fill: #fff;
      }

      .cls-11 {
        letter-spacing: 0em;
      }

      .cls-12 {
        font-family: UrbanistRoman-Bold, Urbanist;
        font-variation-settings: 'wght' 700;
        font-weight: 700;
      }

      .cls-13 {
        letter-spacing: 0em;
      }

      .cls-14 {
        letter-spacing: -.01em;
      }

      .cls-15 {
        letter-spacing: -.03em;
      }

      .cls-16 {
        letter-spacing: 0em;
      }

      .cls-17 {
        letter-spacing: 0em;
      }

      .cls-18 {
        letter-spacing: 0em;
      }

      .cls-19 {
        letter-spacing: -.03em;
      }

      .cls-20 {
        letter-spacing: 0em;
      }

      .cls-10 {
        font-size: 16px;
      }

      .cls-21 {
        letter-spacing: -.03em;
      }

      .cls-22 {
        letter-spacing: -.01em;
      }

      .cls-23 {
        letter-spacing: -.01em;
      }

      .cls-24 {
        letter-spacing: -.03em;
      }

      .cls-25 {
        letter-spacing: 0em;
      }

      .cls-26 {
        letter-spacing: 0em;
      }

      .cls-27 {
        letter-spacing: 0em;
      }

      .cls-28 {
        letter-spacing: 0em;
      }

      .cls-29 {
        letter-spacing: -.01em;
      }

      .cls-30 {
        letter-spacing: 0em;
      }

      .cls-31 {
        font-family: Urbanist-Regular, Urbanist;
        font-variation-settings: 'wght' 400;
      }

      .cls-32 {
        letter-spacing: 0em;
      }

      .cls-33 {
        letter-spacing: 0em;
      }

      .cls-34 {
        fill: #130044;
      }
    </style>
  </defs>
  <rect class="cls-34" x="0" y="0" width="366.28" height="305.38" rx="29.13" ry="29.13"/>
  <g id="garden">
    <path class="cls-9" d="M79.89,68.88c-1.06-.19-2.12-.06-3.12.25-.31-.56-.62-1.06-1.06-1.56v-6.49l2.74-2.18h.25c1,0,3.49-.25,4.99-2.74,1.75-2.93,1.37-7.8,1.37-7.98s-.12-.37-.31-.5-.37-.12-.56-.06c-.19.06-4.68,2-6.42,4.93-1.37,2.31-.69,4.49-.25,5.49l-1.81,1.43v-12.79c.94,1,2.06,1.93,2.25,2.12.12.12.25.12.37.12.06,0,.19,0,.25-.06.19-.06.37-.31.37-.5,0-.31.19-2.43,0-3.99.44.06.94.06,1.43.06,1.19,0,2.31-.12,2.56-.12s.44-.19.5-.37c.06-.19.06-.44-.12-.62-.19-.25-1.62-1.87-2.81-2.81,1.19-1,2.62-2.62,2.81-2.87.12-.19.19-.44.12-.62-.06-.19-.31-.37-.5-.37-.31,0-2.49-.19-3.99,0,.12-1.5,0-3.68-.06-3.99,0-.25-.19-.44-.37-.5-.19-.06-.44-.06-.62.12-.25.19-1.87,1.62-2.87,2.81-1-1.19-2.62-2.56-2.87-2.74-.19-.12-.44-.19-.62-.12s-.37.31-.37.5c0,.31-.19,2.43,0,3.99-1.56-.12-3.68,0-3.99.06-.25,0-.44.19-.5.37s-.06.44.12.62c.19.25,1.62,1.87,2.81,2.81-1.19,1-2.62,2.62-2.81,2.87-.12.19-.19.44-.12.62s.31.37.5.37,1.25.12,2.37.12c.56,0,1.12,0,1.62-.06-.12,1.5,0,3.68.06,3.99,0,.25.19.44.37.5.06.06.19.06.25.06.12,0,.31-.06.37-.12.19-.12,1.25-1.06,2.18-2.06v15.34l-1.81-1.43c.5-1,1.19-3.18-.25-5.49-1.56-2.56-5.24-4.43-6.17-4.86v-.25c0-.19-.12-.37-.31-.5s-.37-.12-.56-.06c-.19.06-4.62,2-6.36,4.93h0c-1.37,2.31-.69,4.49-.19,5.49l-1.75,1.31v-14.66c.94,1,2.06,1.93,2.25,2.06.12.12.25.12.37.12.06,0,.19,0,.25-.06.19-.06.37-.31.37-.5,0-.31.19-2.43,0-3.99.44.06.94.06,1.43.06,1.19,0,2.31-.12,2.49-.12.25,0,.44-.19.5-.37.06-.19.06-.44-.12-.62-.19-.25-1.62-1.87-2.81-2.81,1.19-1,2.56-2.62,2.74-2.87.12-.19.19-.44.12-.62s-.31-.37-.5-.37c-.31,0-2.43-.19-3.99,0,.12-1.5,0-3.68-.06-3.99,0-.25-.19-.44-.37-.5s-.44-.06-.62.12c-.25.19-1.87,1.62-2.81,2.81-1-1.19-2.62-2.56-2.87-2.74-.19-.12-.44-.19-.62-.12s-.37.31-.37.5c0,.31-.19,2.43,0,3.99-1.5-.12-3.68,0-3.99.06-.25,0-.44.19-.5.37-.06.19-.06.44.12.62.19.25,1.62,1.87,2.81,2.81-1.19,1-2.56,2.62-2.74,2.87-.12.19-.19.44-.12.62.06.19.31.37.5.37s1.25.12,2.37.12c.56,0,1.12,0,1.62-.06-.12,1.5,0,3.68.06,3.99,0,.25.19.44.37.5.06.06.19.06.25.06.12,0,.31-.06.37-.12.19-.12,1.25-1.06,2.18-2.06v18.34l-1.81-1.43c.44-1,1.12-3.18-.19-5.49h0c-1.56-2.62-5.36-4.49-6.17-4.86.19-1.75.06-3.18.06-3.31,0-.19-.12-.37-.31-.5s-.37-.12-.56-.06c-.19.06-4.68,2-6.42,4.93-1.37,2.31-.69,4.49-.25,5.49l-1.75,1.43v-14.66c.94,1,2.06,1.93,2.25,2.12.12.12.25.12.37.12.06,0,.19,0,.25-.06.19-.06.37-.31.37-.5,0-.31.19-2.43,0-3.99.44.06.94.06,1.43.06,1.19,0,2.31-.12,2.56-.12s.44-.19.5-.37.06-.44-.12-.62c-.19-.25-1.62-1.87-2.81-2.81,1.19-1,2.62-2.62,2.81-2.87.12-.19.19-.44.12-.62s-.31-.37-.5-.37c-.31,0-2.49-.19-3.99,0,.12-1.5,0-3.68-.06-3.99,0-.25-.19-.44-.37-.5-.19-.06-.44-.06-.62.12-.25.19-1.87,1.62-2.87,2.81-1-1.19-2.62-2.56-2.87-2.74-.19-.12-.44-.19-.62-.12s-.37.31-.37.5c0,.31-.19,2.43,0,3.99-1.56-.12-3.68,0-3.99.06-.25,0-.44.19-.5.37s-.06.44.12.62c.19.25,1.62,1.87,2.81,2.81-1.19,1-2.62,2.62-2.81,2.87-.12.19-.19.44-.12.62s.31.37.5.37,1.25.12,2.37.12c.56,0,1.12,0,1.62-.06-.12,1.5,0,3.68.06,3.99,0,.25.19.44.37.5.06.06.19.06.25.06.12,0,.31-.06.37-.12.19-.12,1.25-1.06,2.18-2.06v18.34l-1.81-1.43c.5-1,1.19-3.18-.25-5.49-1.75-2.93-6.24-4.86-6.42-4.93-.19-.06-.37-.06-.56.06-.19.12-.31.31-.31.5s-.37,5.05,1.37,7.98c1.5,2.49,3.99,2.74,4.99,2.74h.25l2.74,2.18v2.68c-.44.44-.75,1-1.06,1.56-1-.37-2.06-.44-3.12-.25-2.93.44-5.11,3.06-5.11,6.17v.62c0,.37.25.62.62.62h56.13c.37,0,.62-.25.62-.62v-2.43c0-3.12-2.18-5.8-5.18-6.3ZM78.83,53.22c1.12-1.87,3.68-3.37,4.99-4.05,0,1.5-.06,4.43-1.19,6.3-1.19,1.93-3.12,2.18-3.87,2.18-.37-.62-1.12-2.49.06-4.43ZM30.12,61.14c-1.12-1.87-1.25-4.86-1.19-6.3,1.31.69,3.87,2.18,4.99,4.05,1.19,1.93.44,3.8.06,4.43-.75-.06-2.68-.25-3.87-2.18ZM73.97,41.68h0q-.06,0,0,0l-.06-.06c-.12-.12-.25-.31-.31-.5s-.12-.37-.12-.56v-.06h0v-.06c0-.37.19-.75.44-1.06v-.06h0c.12-.12.31-.25.5-.31s.37-.12.56-.12h.19c.37,0,.81.19,1.06.44h0c.12.12.25.31.31.5s.12.37.12.56v.06h0v.06c0,.37-.19.75-.44,1.06v.06h0c-.12.12-.31.25-.5.31s-.37.12-.56.12h-.12c-.37.06-.75-.06-1.06-.37ZM77.83,46.98c-.81-.75-1.87-1.75-2.18-2.37,0,0,0-.06-.06-.06-.06-.12-.06-.25-.12-.37v-.12c0-.06,0-.19-.06-.25v-.44h0l.75-.19c.25-.12.44-.25.62-.37h0c.06.06.19.12.25.25l.06.06c.06.06.19.19.25.31h0c.06.12.12.25.19.37v.06c.37.56.37,2,.31,3.12ZM81.64,43.18c-1,.06-2.25.06-2.93-.06,0,0,0-.06-.06-.06-.06-.06-.06-.12-.12-.25,0-.06-.06-.06-.06-.12-.06-.06-.12-.19-.19-.25,0,0,0-.06-.06-.06-.06-.12-.19-.19-.25-.25l-.06-.06c-.06-.06-.12-.12-.19-.19l-.06-.06c.06-.12.12-.31.19-.44h.5c.19,0,.37,0,.56-.06h.12c.19-.06.31-.06.5-.12.56.44,1.43,1.25,2.12,2ZM81.64,37.81c-.75.81-1.75,1.81-2.37,2.12,0,0-.06,0-.06.06h0c-.12.06-.25.06-.37.12h-.12c-.06,0-.19,0-.25.06h-.44c-.06-.25-.12-.5-.19-.69-.12-.25-.25-.44-.37-.62h0c.06-.12.12-.19.25-.25l.06-.06c.06-.06.19-.19.31-.25h0c.12-.06.25-.12.37-.19h.06c.56-.37,2-.37,3.12-.31ZM77.77,34.01c.06,1,.06,2.18-.06,2.93,0,0-.06,0-.06.06-.06.06-.19.06-.25.12-.06,0-.06.06-.12.06-.06.06-.19.12-.25.19l-.06.06c-.12.06-.19.19-.25.25l-.06.06c-.06.06-.12.12-.19.19l-.06.06c-.12-.06-.31-.12-.5-.19v-.5c0-.19,0-.37-.06-.56v-.06c-.06-.12-.06-.31-.12-.44.44-.69,1.31-1.56,2.06-2.25ZM72.35,34.01c.81.75,1.87,1.75,2.18,2.37,0,0,0,.06.06.06.06.12.06.25.12.37v.12c0,.06,0,.19.06.25v.44h0l-.75.19c-.25.12-.44.25-.62.37h0c-.06-.06-.19-.12-.25-.19l-.06-.06c-.06-.06-.19-.19-.25-.31h0c-.06-.12-.12-.25-.19-.37v-.06c-.37-.62-.37-2.06-.31-3.18ZM68.54,37.88c1-.06,2.25-.06,2.93.06,0,0,0,.06.06.06.06.06.06.12.12.25,0,.06.06.06.06.12.06.06.12.19.19.25,0,0,0,.06.06.06.06.12.19.19.25.25l.06.06c.06.06.12.12.19.19l.06.06c-.06.12-.12.31-.19.44h-.5c-.19,0-.37,0-.56.06h-.06c-.19.06-.31.06-.5.12-.62-.44-1.5-1.31-2.18-2ZM68.54,43.24c.75-.81,1.75-1.81,2.37-2.12,0,0,.06,0,.06-.06h0c.12-.06.25-.06.37-.12h.87c.06.25.12.5.19.69.12.25.25.44.37.62h0c-.06.06-.12.19-.19.25l-.06.06c-.06.06-.12.12-.19.19l-.06.06c-.12.06-.25.12-.37.19h-.06c-.75.25-2.12.25-3.31.25ZM72.41,47.05c-.06-1-.06-2.18.06-2.93,0,0,.06,0,.06-.06.06-.06.19-.06.25-.12.06,0,.06-.06.12-.06.12-.06.19-.12.25-.19h.06c.12-.06.19-.19.25-.25l.06-.06c.06-.06.12-.12.19-.19l.06-.06c.12.06.31.12.5.19v.5c0,.19,0,.37.06.56v.12c.06.12.06.31.12.44-.44.56-1.31,1.43-2.06,2.12ZM66.36,51.79c1.31.69,3.87,2.18,4.99,4.05,1.19,1.93.44,3.8.06,4.43-.75,0-2.68-.19-3.87-2.18-1.12-1.87-1.19-4.86-1.19-6.3ZM60.12,55.09h0c1.12-1.87,3.62-3.37,4.93-4.05,0,1.5-.06,4.43-1.19,6.3-1.19,2-3.12,2.18-3.87,2.18-.31-.62-1.06-2.49.12-4.43ZM59.75,60.77h.25c.94,0,3.43-.25,4.93-2.74.31-.5.5-1,.69-1.62.19.81.5,1.62.94,2.31,1.5,2.49,3.99,2.74,4.99,2.74h.25l2.74,2.18v2.87c-1.25-.87-2.74-1.37-4.37-1.37-3.62,0-6.67,2.56-7.36,5.93-.75-.31-1.56-.44-2.37-.44-1.37.12-2.56.75-3.43,1.75v-9.42l2.74-2.18ZM55.26,41.68h0l-.06-.06c-.12-.12-.25-.31-.31-.5s-.12-.37-.12-.56v-.06h0v-.06c0-.37.19-.75.44-1.06v-.06h0c.12-.12.31-.25.5-.31s.37-.12.56-.12h.12c.37,0,.75.19,1.06.44h0c.12.12.25.31.31.5s.12.37.12.56v.06h0v.06c0,.37-.19.75-.44,1.06v.06h0c-.12.12-.31.25-.5.31s-.37.12-.56.12h-.12c-.31.06-.69-.06-1-.37ZM59.12,46.98c-.81-.75-1.81-1.75-2.12-2.37,0,0,0-.06-.06-.06-.06-.12-.06-.25-.12-.37v-.12c0-.06,0-.19-.06-.25v-.44h0c.25-.06.5-.12.69-.19.25-.12.44-.25.62-.37h0c.06.06.19.12.25.25,0,0,0,.06.06.06.06.06.19.19.25.31h0c.06.12.12.25.19.37v.06c.31.56.31,2,.31,3.12ZM62.87,43.18c-1,.06-2.18.06-2.93-.06,0,0,0-.06-.06-.06-.06-.06-.06-.12-.12-.25,0-.06-.06-.06-.06-.12-.06-.06-.12-.19-.19-.25l-.06-.06c-.06-.12-.19-.19-.25-.25l-.06-.06c-.06-.06-.12-.12-.19-.19l-.06-.06c.06-.12.12-.31.19-.44h.5c.19,0,.37,0,.56-.06h.12c.12-.06.31-.06.44-.12.62.44,1.5,1.25,2.18,2ZM62.87,37.81c-.75.81-1.75,1.81-2.37,2.12,0,0-.06,0-.06.06h0c-.12.06-.25.06-.37.12h-.12c-.06,0-.19,0-.25.06h-.44c-.06-.25-.12-.5-.19-.69-.12-.25-.25-.44-.37-.62h0c.06-.06.12-.19.25-.25l.06-.06c.06-.06.19-.19.31-.25h0l.37-.19h.06c.56-.37,2-.37,3.12-.31ZM59.06,34.01c.06,1,.06,2.18-.06,2.93,0,0-.06,0-.06.06-.06.06-.12.06-.25.12-.06,0-.06.06-.12.06-.06.06-.19.12-.25.19l-.06.06c-.12.06-.19.19-.25.25l-.06.06c-.06.06-.12.12-.19.19l-.06.06c-.12-.06-.31-.12-.44-.19v-.5c0-.19,0-.37-.06-.56v-.12c-.06-.12-.06-.31-.12-.44.37-.62,1.25-1.5,2-2.18ZM53.63,34.07c.81.75,1.81,1.75,2.12,2.37,0,0,0,.06.06.06.06.12.06.25.12.37v.12c0,.06,0,.19.06.25v.44h0c-.25.06-.5.12-.69.19-.25.12-.44.25-.62.37h0c-.06-.06-.19-.12-.25-.25l-.06-.06c-.06-.06-.19-.19-.25-.31h0c-.06-.12-.12-.25-.19-.37v-.06c-.31-.62-.31-2-.31-3.12ZM49.89,37.88c1-.06,2.18-.06,2.93.06,0,0,0,.06.06.06.06.06.06.12.12.25,0,.06.06.06.06.12.06.06.12.19.19.25l.06.06c.06.12.19.19.25.25l.06.06c.06.06.12.12.19.19l.06.06c-.06.12-.12.31-.19.44h-.5c-.19,0-.37,0-.56.06h-.06c-.12.06-.31.06-.44.12-.69-.44-1.56-1.31-2.25-2ZM49.89,43.24c.75-.81,1.75-1.81,2.37-2.12,0,0,.06,0,.06-.06.12-.06.25-.06.37-.12h.12c.06,0,.19,0,.25-.06h.44c.06.25.12.5.19.69.12.25.25.44.37.62h0c-.06.06-.12.19-.19.25l-.06.06c-.06.06-.12.12-.19.19l-.06.06c-.12.06-.19.12-.31.19h-.06c-.75.31-2.18.31-3.31.31ZM53.7,46.98c-.06-1-.06-2.18.06-2.93,0,0,.06,0,.06-.06.06-.06.12-.06.25-.12.06,0,.06-.06.12-.06.06-.06.19-.12.25-.19,0,0,.06,0,.06-.06.12-.06.19-.19.25-.25l.06-.06c.06-.06.12-.12.19-.19l.06-.06c.12.06.31.12.44.19v.5c0,.19,0,.37.06.56v.06c.06.12.06.31.12.44-.37.75-1.25,1.62-2,2.25ZM47.71,54.78c1.31.69,3.8,2.18,4.93,4.05,1.19,1.93.44,3.8.06,4.43-.75,0-2.68-.25-3.8-2.18-1.06-1.81-1.19-4.8-1.19-6.3ZM41.41,55.09c1.12-1.87,3.68-3.37,4.99-4.05,0,1.5-.06,4.43-1.19,6.3-1.19,1.93-3.12,2.18-3.87,2.18-.37-.62-1.12-2.49.06-4.43ZM41.04,60.77h.25c1,0,3.49-.25,4.99-2.74.12-.19.25-.44.31-.62.19,1.5.5,3.12,1.25,4.37,1.5,2.49,3.99,2.74,4.93,2.74h.25l2.74,2.18v7.55c-.87-1-2.06-1.62-3.43-1.75-.81-.06-1.62.06-2.37.44-.62-3.43-3.68-5.93-7.3-5.93-1.62,0-3.12.5-4.37,1.37v-5.43l2.74-2.18ZM36.55,41.68h0q-.06,0,0,0l-.06-.06c-.12-.12-.25-.31-.31-.5s-.12-.37-.12-.56v-.06h0v-.06c0-.37.19-.75.44-1.06v-.06h0c.12-.12.31-.25.5-.31s.37-.12.56-.12h.19c.37,0,.81.19,1.06.44h0c.12.12.25.31.31.5s.12.37.12.56v.06h0v.06c0,.37-.19.75-.44,1.06v.06h0c-.12.12-.31.25-.5.31s-.37.12-.56.12h-.12c-.37.06-.75-.06-1.06-.37ZM40.41,46.98c-.81-.75-1.87-1.75-2.18-2.37,0,0,0-.06-.06-.06-.06-.12-.06-.25-.12-.37v-.12c0-.06,0-.19-.06-.25v-.44h0c.25-.06.5-.12.75-.19.25-.12.44-.25.62-.37h0c.06.06.19.12.25.25l.06.06c.06.06.19.19.25.31h0c.06.12.12.25.19.37v.06c.37.56.37,2,.31,3.12ZM44.22,43.18c-1,.06-2.25.06-2.93-.06,0,0,0-.06-.06-.06-.06-.06-.06-.12-.12-.25,0-.06-.06-.06-.06-.12-.06-.06-.12-.19-.19-.25,0,0,0-.06-.06-.06-.06-.12-.19-.19-.25-.25l-.06-.06-.19-.19-.06-.06c.06-.12.12-.31.19-.44h.5c.19,0,.37,0,.56-.06h.12c.19-.06.31-.06.5-.12.56.44,1.43,1.25,2.12,2ZM44.22,37.81c-.75.81-1.75,1.81-2.37,2.12,0,0-.06,0-.06.06h0c-.12.06-.25.06-.37.12h-.12c-.06,0-.19,0-.25.06h-.44c-.06-.25-.12-.5-.19-.69-.12-.25-.25-.44-.37-.62h0c.06-.12.12-.19.25-.25l.06-.06c.06-.06.19-.19.31-.25h0c.12-.06.25-.12.37-.19h.06c.56-.37,1.93-.37,3.12-.31ZM40.35,34.01c.06,1,.06,2.18-.06,2.93,0,0-.06,0-.06.06-.06.06-.19.06-.25.12-.06,0-.06.06-.12.06-.06.06-.19.12-.25.19l-.06.06c-.12.06-.19.19-.25.25l-.06.06-.19.19-.06.06c-.12-.06-.31-.12-.5-.19v-.5c0-.19,0-.37-.06-.56v-.06c-.06-.12-.06-.31-.12-.44.44-.69,1.31-1.56,2.06-2.25ZM34.92,34.01c.81.75,1.87,1.75,2.18,2.37,0,0,0,.06.06.06.06.12.06.25.12.37v.12c0,.06,0,.19.06.25v.44h0c-.25.06-.5.12-.75.19-.25.12-.44.25-.62.37h0c-.06-.06-.19-.12-.25-.19l-.06-.06c-.06-.06-.19-.19-.25-.31h0c-.06-.12-.12-.25-.19-.37v-.06c-.37-.62-.37-2.06-.31-3.18ZM31.12,37.88c1-.06,2.25-.06,2.93.06,0,0,0,.06.06.06.06.06.06.12.12.25,0,.06.06.06.06.12.06.06.12.19.19.25,0,0,0,.06.06.06.06.12.19.19.25.25l.06.06c.06.06.12.12.19.19l.06.06c-.06.12-.12.31-.19.44h-.5c-.19,0-.37,0-.56.06h-.06c-.19.06-.31.06-.5.12-.62-.44-1.5-1.31-2.18-2ZM31.12,43.24c.75-.81,1.75-1.81,2.37-2.12,0,0,.06,0,.06-.06h0c.12-.06.25-.06.37-.12h.87c.06.25.12.5.19.69.12.25.25.44.37.62h0c-.06.06-.12.19-.19.25l-.06.06c-.06.06-.12.12-.19.19l-.06.06c-.12.06-.25.12-.37.19h-.06c-.75.25-2.12.25-3.31.25ZM34.99,47.05c-.06-1-.06-2.18.06-2.93,0,0,.06,0,.06-.06.06-.06.19-.06.25-.12.06,0,.06-.06.12-.06.12-.06.19-.12.25-.19h.06c.12-.06.19-.19.25-.25l.06-.06.19-.19.06-.06c.12.06.31.12.5.19v.5c0,.19,0,.37.06.56v.12c.06.12.06.31.12.44-.44.56-1.31,1.43-2.06,2.12ZM28.94,76.98c0-2.43,1.75-4.62,4.12-4.99,1-.19,2.06-.06,2.99.37.12.06.31.06.5,0s.31-.19.37-.31c.94-2.31,3.24-3.8,5.8-3.8,3.31,0,5.99,2.49,6.24,5.74,0,.25.12.44.37.5.19.12.44.06.62-.06.69-.5,1.56-.75,2.43-.69,1.75.12,3.18,1.5,3.43,3.24h-26.88ZM83.82,76.98h-26.82v-1.25c0-2.06,1.56-3.74,3.49-3.87.87-.06,1.68.19,2.43.69.19.12.44.12.62.06s.31-.31.37-.5c.19-3.24,2.87-5.74,6.17-5.74,2.56,0,4.8,1.5,5.8,3.8.06.19.19.31.37.31.19.06.31.06.5,0,.94-.44,2-.56,2.99-.37,2.37.37,4.12,2.56,4.12,5.05v1.81h-.06Z"/>
  </g>
  <text class="cls-10" transform="translate(27.59 113.71)"><tspan class="cls-12"><tspan class="cls-7" x="0" y="0">D</tspan><tspan x="10.5" y="0">a</tspan><tspan class="cls-20" x="20.09" y="0">n</tspan><tspan class="cls-27" x="28.86" y="0">o</tspan><tspan x="37.7" y="0">s </tspan><tspan class="cls-29" x="48.49" y="0">a</tspan><tspan x="57.91" y="0">o </tspan><tspan class="cls-14" x="70.71" y="0">j</tspan><tspan x="74.42" y="0">a</tspan><tspan class="cls-4" x="84.01" y="0">r</tspan><tspan x="89.57" y="0">d</tspan><tspan class="cls-17" x="99.49" y="0">i</tspan><tspan x="103.3" y="0">m</tspan></tspan><tspan class="cls-31"><tspan class="cls-21" x="0" y="19.2">C</tspan><tspan class="cls-2" x="10.78" y="19.2">o</tspan><tspan class="cls-20" x="19.61" y="19.2">b</tspan><tspan class="cls-1" x="29.07" y="19.2">e</tspan><tspan x="37.93" y="19.2">rtu</tspan><tspan class="cls-24" x="57.42" y="19.2">r</tspan><tspan x="62.61" y="19.2">a </tspan><tspan class="cls-20" x="75.74" y="19.2">a</tspan><tspan x="84.88" y="19.2">d</tspan><tspan class="cls-30" x="94.5" y="19.2">i</tspan><tspan class="cls-2" x="97.46" y="19.2">c</tspan><tspan class="cls-30" x="105.48" y="19.2">io</tspan><tspan class="cls-29" x="117.32" y="19.2">n</tspan><tspan class="cls-13" x="125.73" y="19.2">a</tspan><tspan x="135.13" y="19.2">l, am</tspan><tspan class="cls-20" x="168.74" y="19.2">p</tspan><tspan x="178.2" y="19.2">a</tspan><tspan class="cls-24" x="187.49" y="19.2">r</tspan><tspan x="192.68" y="19.2">a as </tspan></tspan><tspan class="cls-31"><tspan x="0" y="38.4">ár</tspan><tspan class="cls-15" x="15.02" y="38.4">v</tspan><tspan class="cls-1" x="22.82" y="38.4">o</tspan><tspan class="cls-19" x="31.7" y="38.4">r</tspan><tspan class="cls-11" x="36.88" y="38.4">e</tspan><tspan class="cls-25" x="45.76" y="38.4">s</tspan><tspan x="52.61" y="38.4">, </tspan><tspan class="cls-5" x="59.66" y="38.4">f</tspan><tspan class="cls-11" x="65.08" y="38.4">l</tspan><tspan class="cls-30" x="68.06" y="38.4">o</tspan><tspan class="cls-19" x="76.94" y="38.4">r</tspan><tspan class="cls-11" x="82.13" y="38.4">e</tspan><tspan class="cls-16" x="91.01" y="38.4">s</tspan><tspan x="97.85" y="38.4">, </tspan><tspan class="cls-29" x="104.91" y="38.4">h</tspan><tspan class="cls-30" x="113.33" y="38.4">o</tspan><tspan x="122.21" y="38.4">r</tspan><tspan class="cls-23" x="127.93" y="38.4">t</tspan><tspan x="133.23" y="38.4">a</tspan><tspan class="cls-16" x="142.53" y="38.4">s</tspan><tspan x="149.37" y="38.4">, </tspan><tspan class="cls-8" x="156.43" y="38.4">es</tspan><tspan class="cls-1" x="172.13" y="38.4">c</tspan><tspan class="cls-13" x="180.2" y="38.4">u</tspan><tspan x="188.56" y="38.4">ltu</tspan><tspan class="cls-24" x="205.37" y="38.4">r</tspan><tspan x="210.56" y="38.4">a</tspan><tspan class="cls-25" x="219.85" y="38.4">s</tspan><tspan x="226.7" y="38.4">, </tspan></tspan><tspan class="cls-31"><tspan class="cls-28" x="0" y="57.6">c</tspan><tspan x="8.05" y="57.6">a</tspan><tspan class="cls-8" x="17.34" y="57.6">s</tspan><tspan class="cls-3" x="24.16" y="57.6">c</tspan><tspan x="32.21" y="57.6">a</tspan><tspan class="cls-22" x="41.5" y="57.6">t</tspan><tspan x="46.81" y="57.6">a</tspan><tspan class="cls-25" x="56.1" y="57.6">s</tspan><tspan x="62.95" y="57.6">, </tspan><tspan class="cls-28" x="70.01" y="57.6">c</tspan><tspan class="cls-20" x="78.06" y="57.6">h</tspan><tspan x="86.47" y="57.6">a</tspan><tspan class="cls-14" x="95.77" y="57.6">f</tspan><tspan x="100.92" y="57.6">a</tspan><tspan class="cls-28" x="110.22" y="57.6">r</tspan><tspan x="115.83" y="57.6">i</tspan><tspan class="cls-30" x="118.87" y="57.6">z</tspan><tspan class="cls-11" x="126.9" y="57.6">e</tspan><tspan class="cls-25" x="135.78" y="57.6">s</tspan><tspan x="142.63" y="57.6">, </tspan><tspan class="cls-29" x="149.69" y="57.6">m</tspan><tspan class="cls-18" x="163.74" y="57.6">o</tspan><tspan class="cls-29" x="172.57" y="57.6">b</tspan><tspan class="cls-32" x="182.03" y="57.6">i</tspan><tspan x="185.13" y="57.6">l</tspan><tspan class="cls-30" x="188.17" y="57.6">i</tspan><tspan x="191.13" y="57.6">á</tspan><tspan class="cls-28" x="200.42" y="57.6">r</tspan><tspan class="cls-30" x="206.04" y="57.6">i</tspan><tspan class="cls-11" x="209" y="57.6">o</tspan><tspan x="217.9" y="57.6">s </tspan><tspan class="cls-3" x="228.62" y="57.6">q</tspan><tspan class="cls-8" x="238.13" y="57.6">u</tspan><tspan x="246.33" y="57.6">e </tspan></tspan><tspan class="cls-31"><tspan class="cls-8" x="0" y="76.8">e</tspan><tspan x="8.88" y="76.8">s</tspan><tspan class="cls-23" x="15.75" y="76.8">t</tspan><tspan class="cls-29" x="21.06" y="76.8">e</tspan><tspan class="cls-30" x="29.83" y="76.8">j</tspan><tspan x="33.28" y="76.8">am </tspan><tspan class="cls-29" x="60.63" y="76.8">a</tspan><tspan x="69.77" y="76.8">o ar l</tspan><tspan class="cls-28" x="104.46" y="76.8">iv</tspan><tspan class="cls-24" x="115.52" y="76.8">r</tspan><tspan class="cls-20" x="120.7" y="76.8">e</tspan><tspan x="129.48" y="76.8">, </tspan><tspan class="cls-30" x="136.53" y="76.8">s</tspan><tspan class="cls-11" x="143.33" y="76.8">i</tspan><tspan x="146.31" y="76.8">s</tspan><tspan class="cls-23" x="153.18" y="76.8">t</tspan><tspan class="cls-30" x="158.49" y="76.8">e</tspan><tspan class="cls-29" x="167.34" y="76.8">m</tspan><tspan x="181.4" y="76.8">as </tspan><tspan class="cls-8" x="201.41" y="76.8">d</tspan><tspan x="210.97" y="76.8">e </tspan></tspan><tspan class="cls-31"><tspan class="cls-16" x="0" y="96">i</tspan><tspan class="cls-30" x="3.02" y="96">r</tspan><tspan class="cls-28" x="8.66" y="96">r</tspan><tspan class="cls-30" x="14.27" y="96">ig</tspan><tspan class="cls-20" x="26.55" y="96">a</tspan><tspan class="cls-28" x="35.69" y="96">ç</tspan><tspan class="cls-29" x="43.74" y="96">ã</tspan><tspan x="52.87" y="96">o e </tspan><tspan class="cls-26" x="78.45" y="96">i</tspan><tspan x="81.54" y="96">lum</tspan><tspan class="cls-16" x="107.06" y="96">i</tspan><tspan class="cls-29" x="110.07" y="96">na</tspan><tspan class="cls-3" x="127.62" y="96">ç</tspan><tspan class="cls-29" x="135.67" y="96">ã</tspan><tspan x="144.81" y="96">o </tspan><tspan class="cls-11" x="157.61" y="96">de</tspan><tspan x="176.05" y="96">s</tspan><tspan class="cls-23" x="182.93" y="96">t</tspan><tspan class="cls-8" x="188.23" y="96">e</tspan><tspan x="197.11" y="96">s </tspan><tspan class="cls-11" x="207.82" y="96">e</tspan><tspan x="216.7" y="96">s</tspan><tspan class="cls-20" x="223.57" y="96">pa</tspan><tspan class="cls-28" x="242.17" y="96">ç</tspan><tspan class="cls-8" x="250.21" y="96">o</tspan><tspan class="cls-16" x="259.12" y="96">s</tspan><tspan x="265.97" y="96">, </tspan></tspan><tspan class="cls-31"><tspan class="cls-1" x="0" y="115.2">e</tspan><tspan x="8.86" y="115.2">m </tspan><tspan class="cls-3" x="26.91" y="115.2">c</tspan><tspan x="34.96" y="115.2">a</tspan><tspan class="cls-8" x="44.26" y="115.2">s</tspan><tspan x="51.07" y="115.2">o </tspan><tspan class="cls-11" x="63.87" y="115.2">d</tspan><tspan x="73.44" y="115.2">e </tspan><tspan class="cls-16" x="86.21" y="115.2">i</tspan><tspan class="cls-29" x="89.23" y="115.2">n</tspan><tspan class="cls-3" x="97.65" y="115.2">c</tspan><tspan class="cls-1" x="105.69" y="115.2">ê</tspan><tspan class="cls-20" x="114.55" y="115.2">n</tspan><tspan x="122.97" y="115.2">d</tspan><tspan class="cls-30" x="132.59" y="115.2">i</tspan><tspan class="cls-29" x="135.55" y="115.2">o</tspan><tspan x="144.35" y="115.2">, </tspan><tspan class="cls-15" x="151.41" y="115.2">v</tspan><tspan class="cls-1" x="159.21" y="115.2">e</tspan><tspan class="cls-20" x="168.06" y="115.2">n</tspan><tspan class="cls-11" x="176.48" y="115.2">d</tspan><tspan class="cls-20" x="186.05" y="115.2">a</tspan><tspan class="cls-15" x="195.18" y="115.2">v</tspan><tspan class="cls-13" x="202.98" y="115.2">a</tspan><tspan x="212.38" y="115.2">l, </tspan><tspan class="cls-28" x="222.48" y="115.2">c</tspan><tspan x="230.53" y="115.2">hu</tspan><tspan class="cls-15" x="247.36" y="115.2">v</tspan><tspan x="255.16" y="115.2">a </tspan></tspan><tspan class="cls-31"><tspan class="cls-8" x="0" y="134.4">d</tspan><tspan x="9.57" y="134.4">e g</tspan><tspan class="cls-19" x="31.74" y="134.4">r</tspan><tspan x="36.93" y="134.4">ani</tspan><tspan class="cls-30" x="57.84" y="134.4">z</tspan><tspan class="cls-29" x="65.87" y="134.4">o</tspan><tspan x="74.67" y="134.4">, </tspan><tspan class="cls-19" x="81.73" y="134.4">r</tspan><tspan class="cls-29" x="86.91" y="134.4">o</tspan><tspan class="cls-33" x="95.71" y="134.4">u</tspan><tspan class="cls-20" x="104.07" y="134.4">b</tspan><tspan x="113.54" y="134.4">o </tspan><tspan class="cls-20" x="126.34" y="134.4">o</tspan><tspan x="135.14" y="134.4">u </tspan><tspan class="cls-6" x="147.23" y="134.4">f</tspan><tspan x="152.78" y="134.4">ur</tspan><tspan class="cls-23" x="166.76" y="134.4">t</tspan><tspan class="cls-29" x="172.06" y="134.4">o</tspan><tspan x="180.86" y="134.4">, </tspan></tspan><tspan class="cls-31"><tspan class="cls-8" x="0" y="153.6">de</tspan><tspan x="18.45" y="153.6">s</tspan><tspan class="cls-20" x="25.32" y="153.6">m</tspan><tspan class="cls-1" x="39.38" y="153.6">o</tspan><tspan class="cls-24" x="48.26" y="153.6">r</tspan><tspan class="cls-30" x="53.44" y="153.6">o</tspan><tspan class="cls-20" x="62.32" y="153.6">n</tspan><tspan x="70.74" y="153.6">a</tspan><tspan class="cls-29" x="80.03" y="153.6">m</tspan><tspan class="cls-1" x="94.09" y="153.6">e</tspan><tspan x="102.94" y="153.6">n</tspan><tspan class="cls-23" x="111.52" y="153.6">t</tspan><tspan x="116.82" y="153.6">o </tspan><tspan class="cls-20" x="129.62" y="153.6">o</tspan><tspan x="138.42" y="153.6">u </tspan><tspan class="cls-28" x="150.52" y="153.6">q</tspan><tspan class="cls-8" x="160.03" y="153.6">u</tspan><tspan class="cls-29" x="168.23" y="153.6">e</tspan><tspan class="cls-8" x="177.01" y="153.6">d</tspan><tspan x="186.58" y="153.6">a </tspan><tspan class="cls-8" x="199.71" y="153.6">d</tspan><tspan x="209.28" y="153.6">e </tspan><tspan class="cls-24" x="222.05" y="153.6">r</tspan><tspan x="227.24" y="153.6">a</tspan><tspan class="cls-1" x="236.53" y="153.6">i</tspan><tspan class="cls-8" x="239.49" y="153.6">o</tspan><tspan class="cls-16" x="248.4" y="153.6">s</tspan><tspan x="255.25" y="153.6">.</tspan></tspan></text>
</svg>