<?xml version="1.0" encoding="UTF-8"?>
<svg id="Layer_1" data-name="Layer 1" xmlns="http://www.w3.org/2000/svg" viewBox="0 0 366.28 305.38">
  <defs>
    <style>
      .cls-1 {
        letter-spacing: -.01em;
      }

      .cls-2 {
        letter-spacing: 0em;
      }

      .cls-3 {
        letter-spacing: 0em;
      }

      .cls-4 {
        letter-spacing: 0em;
      }

      .cls-5 {
        letter-spacing: 0em;
      }

      .cls-6 {
        letter-spacing: -.01em;
      }

      .cls-7 {
        letter-spacing: -.04em;
      }

      .cls-8 {
        letter-spacing: -.02em;
      }

      .cls-9 {
        letter-spacing: 0em;
      }

      .cls-10 {
        letter-spacing: -.05em;
      }

      .cls-11 {
        letter-spacing: -.04em;
      }

      .cls-12 {
        letter-spacing: 0em;
      }

      .cls-13 {
        letter-spacing: -.02em;
      }

      .cls-14 {
        font-family: UrbanistRoman-Bold, Urbanist;
        font-size: 23.99px;
        font-variation-settings: 'wght' 700;
        font-weight: 700;
      }

      .cls-14, .cls-15 {
        fill: #130044;
      }

      .cls-16 {
        letter-spacing: -.01em;
      }
    </style>
  </defs>
  <path class="cls-15" d="M337.15,8.99c11.1,0,20.14,9.03,20.14,20.14v247.12c0,11.1-9.03,20.14-20.14,20.14H29.13c-11.1,0-20.14-9.03-20.14-20.14V29.13c0-11.1,9.03-20.14,20.14-20.14h308.02M337.15,0H29.13C13.11,0,0,13.11,0,29.13v247.12C0,292.27,13.11,305.38,29.13,305.38h308.02c16.02,0,29.13-13.11,29.13-29.13V29.13c0-16.02-13.11-29.13-29.13-29.13h0Z"/>
  <text class="cls-14" transform="translate(27.59 244.18)"><tspan class="cls-5" x="0" y="0">F</tspan><tspan class="cls-3" x="11.66" y="0">l</tspan><tspan class="cls-10" x="17.28" y="0">e</tspan><tspan class="cls-8" x="29.43" y="0">x</tspan><tspan class="cls-2" x="43.19" y="0">i</tspan><tspan class="cls-8" x="49.02" y="0">b</tspan><tspan class="cls-2" x="63.34" y="0">i</tspan><tspan x="69.16" y="0">l</tspan><tspan class="cls-6" x="74.97" y="0">i</tspan><tspan class="cls-3" x="80.5" y="0">d</tspan><tspan class="cls-9" x="95.19" y="0">a</tspan><tspan class="cls-3" x="109.32" y="0">d</tspan><tspan x="124.01" y="0">e </tspan><tspan class="cls-1" x="143.19" y="0">e</tspan><tspan x="156.33" y="0">nt</tspan><tspan class="cls-7" x="178.3" y="0">r</tspan><tspan x="186.64" y="0">e </tspan><tspan class="cls-11" x="0" y="28.78">r</tspan><tspan class="cls-3" x="8.34" y="28.78">es</tspan><tspan class="cls-6" x="31.82" y="28.78">g</tspan><tspan x="46.25" y="28.78">a</tspan><tspan class="cls-16" x="60.61" y="28.78">t</tspan><tspan x="68.94" y="28.78">e </tspan><tspan class="cls-13" x="88.11" y="28.78">o</tspan><tspan x="101" y="28.78">u </tspan><tspan class="cls-11" x="119.66" y="28.78">r</tspan><tspan class="cls-1" x="127.99" y="28.78">e</tspan><tspan class="cls-4" x="141.14" y="28.78">n</tspan><tspan class="cls-12" x="154.28" y="28.78">d</tspan><tspan x="168.97" y="28.78">a</tspan></text>
  <polygon class="cls-15" points="338.69 262.6 330.04 262.6 330.04 253.95 324.38 253.95 324.38 262.6 315.73 262.6 315.73 268.27 324.38 268.27 324.38 276.92 330.04 276.92 330.04 268.27 338.69 268.27 338.69 262.6"/>
  <g>
    <path class="cls-15" d="M50.16,64.69h1.5c.83,0,1.5.67,1.5,1.5h1.5c0-1.66-1.35-3.01-3.01-3.01v-1.5h-1.5v1.5c-1.66,0-3.01,1.35-3.01,3.01s1.35,3.01,3.01,3.01h1.5c.83,0,1.5.67,1.5,1.5s-.67,1.5-1.5,1.5h-1.5c-.83,0-1.5-.67-1.5-1.5h-1.5c0,1.66,1.35,3.01,3.01,3.01v1.5h1.5v-1.5c1.66,0,3.01-1.35,3.01-3.01s-1.35-3.01-3.01-3.01h-1.5c-.83,0-1.5-.67-1.5-1.5s.67-1.5,1.5-1.5Z"/>
    <path class="cls-15" d="M60.69,44.38l4.25,3.19-8.39,12.91c-1.16-.82-2.51-1.4-3.96-1.65l4.14-16.58,5.49,1.1-11.31-11.31-11.31,11.31,5.49-1.1,4.14,16.58c-1.46.25-2.8.83-3.96,1.65l-8.39-12.91,4.25-3.19h-13.54v14.29l3.18-4.24,12.18,8.36c-1.14,1.6-1.82,3.55-1.82,5.66,0,5.39,4.39,9.78,9.78,9.78s9.78-4.39,9.78-9.78c0-2.11-.68-4.06-1.82-5.66l12.18-8.36,3.18,4.24v-14.29h-13.54ZM46.2,40.5l-2.03.41,6.74-6.74,6.74,6.74-2.03-.41-4.55,18.19c-.05,0-.11,0-.16,0s-.11,0-.16,0l-4.55-18.19ZM30.43,52.38l-1.34,1.78v-8.27h7.52l-1.77,1.32,9.25,14.23c-.06.06-.13.12-.19.19l-13.48-9.25ZM59.18,68.45c0,4.56-3.71,8.27-8.27,8.27s-8.27-3.71-8.27-8.27,3.71-8.27,8.27-8.27,8.27,3.71,8.27,8.27ZM72.72,54.16l-1.34-1.78-13.48,9.25c-.06-.06-.12-.13-.19-.19l9.25-14.23-1.77-1.32h7.52v8.27Z"/>
    <rect class="cls-15" x="56.17" y="67.7" width="1.5" height="1.5"/>
    <rect class="cls-15" x="44.14" y="67.7" width="1.5" height="1.5"/>
  </g>
</svg>