<?xml version="1.0" encoding="UTF-8"?>
<svg id="Layer_1" data-name="Layer 1" xmlns="http://www.w3.org/2000/svg" viewBox="0 0 366.28 305.38">
  <defs>
    <style>
      .cls-1 {
        letter-spacing: -.04em;
      }

      .cls-2 {
        letter-spacing: 0em;
      }

      .cls-3 {
        letter-spacing: 0em;
      }

      .cls-4 {
        letter-spacing: 0em;
      }

      .cls-5 {
        letter-spacing: .01em;
      }

      .cls-6 {
        letter-spacing: -.02em;
      }

      .cls-7 {
        letter-spacing: 0em;
      }

      .cls-8 {
        letter-spacing: 0em;
      }

      .cls-9, .cls-10 {
        fill: #fff;
      }

      .cls-11 {
        letter-spacing: -.02em;
      }

      .cls-12 {
        letter-spacing: 0em;
      }

      .cls-13 {
        letter-spacing: -.01em;
      }

      .cls-14 {
        letter-spacing: 0em;
      }

      .cls-15 {
        letter-spacing: -.02em;
      }

      .cls-16 {
        font-family: UrbanistRoman-Bold, Urbanist;
        font-variation-settings: 'wght' 700;
        font-weight: 700;
      }

      .cls-17 {
        letter-spacing: 0em;
      }

      .cls-18 {
        letter-spacing: 0em;
      }

      .cls-19 {
        letter-spacing: -.02em;
      }

      .cls-20 {
        letter-spacing: -.01em;
      }

      .cls-21 {
        letter-spacing: 0em;
      }

      .cls-22 {
        letter-spacing: -.03em;
      }

      .cls-23 {
        letter-spacing: 0em;
      }

      .cls-24 {
        letter-spacing: -.03em;
      }

      .cls-25 {
        letter-spacing: 0em;
      }

      .cls-26 {
        letter-spacing: -.04em;
      }

      .cls-10 {
        font-size: 16px;
      }

      .cls-27 {
        letter-spacing: 0em;
      }

      .cls-28 {
        letter-spacing: -.03em;
      }

      .cls-29 {
        letter-spacing: -.01em;
      }

      .cls-30 {
        letter-spacing: -.03em;
      }

      .cls-31 {
        letter-spacing: -.02em;
      }

      .cls-32 {
        letter-spacing: 0em;
      }

      .cls-33 {
        letter-spacing: 0em;
      }

      .cls-34 {
        letter-spacing: 0em;
      }

      .cls-35 {
        letter-spacing: -.01em;
      }

      .cls-36 {
        fill: none;
        stroke: #5b1112;
        stroke-linecap: round;
        stroke-linejoin: round;
        stroke-width: 3px;
      }

      .cls-37 {
        letter-spacing: -.04em;
      }

      .cls-38 {
        letter-spacing: 0em;
      }

      .cls-39 {
        letter-spacing: -.01em;
      }

      .cls-40 {
        letter-spacing: 0em;
      }

      .cls-41 {
        font-family: Urbanist-Regular, Urbanist;
        font-variation-settings: 'wght' 400;
      }

      .cls-42 {
        letter-spacing: 0em;
      }

      .cls-43 {
        fill: #130044;
      }
    </style>
  </defs>
  <rect class="cls-43" x="0" y="0" width="366.28" height="305.38" rx="29.13" ry="29.13"/>
  <g>
    <path class="cls-9" d="M52.56,71.47c-2.16,0-3.92,1.76-3.92,3.92s1.76,3.92,3.92,3.92,3.92-1.76,3.92-3.92-1.76-3.92-3.92-3.92ZM52.56,76.94c-.86,0-1.55-.7-1.55-1.55s.7-1.55,1.55-1.55,1.55.7,1.55,1.55-.7,1.55-1.55,1.55Z"/>
    <path class="cls-9" d="M80.19,71.47c-2.16,0-3.92,1.76-3.92,3.92s1.76,3.92,3.92,3.92,3.92-1.76,3.92-3.92c0-2.16-1.76-3.92-3.92-3.92ZM80.19,76.94c-.86,0-1.55-.7-1.55-1.55s.7-1.55,1.55-1.55,1.55.7,1.55,1.55-.7,1.55-1.55,1.55Z"/>
    <path class="cls-9" d="M85.02,51.57h-11v-2.3c0-2.09-1.7-3.79-3.79-3.79h-31.69c-2.09,0-3.79,1.7-3.79,3.79v26.14c0,.65.53,1.18,1.18,1.18h6.59s4.23,0,4.23,0c.65,0,1.18-.53,1.18-1.18,0-2.55,2.08-4.63,4.63-4.63s4.63,2.08,4.63,4.63c0,.65.53,1.18,1.18,1.18h16c.65,0,1.18-.53,1.18-1.18,0-2.55,2.08-4.63,4.63-4.63s4.63,2.08,4.63,4.63c0,.65.53,1.18,1.18,1.18h3.29s2.25,0,2.25,0c.65,0,1.18-.53,1.18-1.18v-16.14c0-4.24-3.45-7.69-7.69-7.69ZM71.66,74.23h-12.2c-.56-3.3-3.44-5.81-6.9-5.81s-6.33,2.52-6.9,5.81h-3.14s-2.22,0-2.22,0h-3.19v-20.33h26.06c.65,0,1.18-.53,1.18-1.18s-.53-1.18-1.18-1.18h-26.06v-2.26c0-.78.64-1.42,1.42-1.42h31.69c.78,0,1.42.64,1.42,1.42v24.95h0ZM90.34,74.23h-1.06s-2.2,0-2.2,0c-.56-3.3-3.44-5.82-6.9-5.82-2.66,0-4.98,1.5-6.16,3.69v-18.16h11c2.94,0,5.33,2.39,5.33,5.33v14.96h0Z"/>
    <path class="cls-9" d="M82.74,55.83h-5.29c-.65,0-1.18.53-1.18,1.18v8.24c0,.65.53,1.18,1.18,1.18h10.58c.65,0,1.18-.53,1.18-1.18v-2.96c0-3.57-2.9-6.47-6.47-6.47ZM86.85,64.07h-8.21v-5.88h4.11c2.26,0,4.1,1.84,4.1,4.1v1.78Z"/>
  </g>
  <path class="cls-9" d="M125.23,84.99H32.75c-.83,0-1.5-.67-1.5-1.5s.67-1.5,1.5-1.5h92.48c.83,0,1.5.67,1.5,1.5s-.67,1.5-1.5,1.5Z"/>
  <path class="cls-9" d="M125.23,35.17H32.75c-.83,0-1.5-.67-1.5-1.5s.67-1.5,1.5-1.5h92.48c.83,0,1.5.67,1.5,1.5s-.67,1.5-1.5,1.5Z"/>
  <path class="cls-9" d="M105.79,62.42h-12.39c-.83,0-1.5-.67-1.5-1.5s.67-1.5,1.5-1.5h10.89v-1.7h-13.14c-.83,0-1.5-.67-1.5-1.5s.67-1.5,1.5-1.5h14.64c.83,0,1.5.67,1.5,1.5v4.7c0,.83-.67,1.5-1.5,1.5Z"/>
  <path class="cls-9" d="M125.23,62.44h-9.42c-.83,0-1.5-.67-1.5-1.5v-4.72c0-.83.67-1.5,1.5-1.5h9.42c.83,0,1.5.67,1.5,1.5s-.67,1.5-1.5,1.5h-7.92v1.72h7.92c.83,0,1.5.67,1.5,1.5s-.67,1.5-1.5,1.5Z"/>
  <path class="cls-9" d="M34.76,57.72h-2c-.83,0-1.5-.67-1.5-1.5s.67-1.5,1.5-1.5h2c.83,0,1.5.67,1.5,1.5s-.67,1.5-1.5,1.5Z"/>
  <path class="cls-9" d="M34.76,62.42h-2c-.83,0-1.5-.67-1.5-1.5s.67-1.5,1.5-1.5h2c.83,0,1.5.67,1.5,1.5s-.67,1.5-1.5,1.5Z"/>
  <path class="cls-9" d="M85.04,50.38c-.25,0-.5-.06-.74-.19-.72-.41-.98-1.32-.57-2.04l3.5-6.19c.41-.72,1.32-.98,2.04-.57.72.41.98,1.32.57,2.04l-3.5,6.19c-.28.49-.78.76-1.31.76Z"/>
  <path class="cls-9" d="M90.34,52.67c-.45,0-.89-.2-1.19-.58-.51-.66-.39-1.6.27-2.1l7.35-5.69c.65-.51,1.6-.39,2.1.27.51.66.39,1.6-.27,2.1l-7.35,5.69c-.27.21-.6.31-.92.31Z"/>
  <path class="cls-9" d="M78.99,49.83c-.83,0-1.5-.67-1.5-1.5v-10.21c0-.83.67-1.5,1.5-1.5s1.5.67,1.5,1.5v10.21c0,.83-.67,1.5-1.5,1.5Z"/>
  <path class="cls-9" d="M105.79,75.74c-.13,0-.25-.02-.38-.05l-10.52-2.76c-.8-.21-1.28-1.03-1.07-1.83.21-.8,1.03-1.28,1.83-1.07l10.52,2.76c.8.21,1.28,1.03,1.07,1.83-.18.67-.78,1.12-1.45,1.12Z"/>
  <line class="cls-36" x1="94.02" y1="76.94" x2="97.7" y2="79.3"/>
  <text class="cls-10" transform="translate(27.59 113.71)"><tspan class="cls-16"><tspan class="cls-26" x="0" y="0">C</tspan><tspan x="10.68" y="0">a</tspan><tspan class="cls-25" x="20.26" y="0">p</tspan><tspan class="cls-35" x="30.01" y="0">ot</tspan><tspan class="cls-25" x="44.34" y="0">a</tspan><tspan class="cls-20" x="53.77" y="0">ge</tspan><tspan x="72.16" y="0">m, </tspan><tspan class="cls-19" x="94.26" y="0">c</tspan><tspan class="cls-31" x="102.18" y="0">o</tspan><tspan x="110.83" y="0">l</tspan><tspan class="cls-33" x="114.7" y="0">is</tspan><tspan class="cls-39" x="125.29" y="0">ão</tspan><tspan x="143.51" y="0">, </tspan><tspan class="cls-35" x="151.4" y="0">t</tspan><tspan class="cls-13" x="156.95" y="0">o</tspan><tspan class="cls-38" x="165.73" y="0">m</tspan><tspan class="cls-39" x="179.98" y="0">b</tspan><tspan x="189.74" y="0">a</tspan><tspan class="cls-39" x="199.33" y="0">m</tspan><tspan class="cls-13" x="213.38" y="0">e</tspan><tspan x="222.15" y="0">n</tspan><tspan class="cls-35" x="231.08" y="0">t</tspan><tspan x="236.63" y="0">o </tspan><tspan class="cls-11" x="249.43" y="0">o</tspan><tspan class="cls-14" x="258.02" y="0">u </tspan></tspan><tspan class="cls-16"><tspan class="cls-18" x="0" y="19.2">des</tspan><tspan class="cls-6" x="25.46" y="19.2">c</tspan><tspan x="33.38" y="19.2">a</tspan><tspan class="cls-13" x="42.96" y="19.2">r</tspan><tspan class="cls-6" x="48.94" y="19.2">r</tspan><tspan class="cls-7" x="54.85" y="19.2">i</tspan><tspan class="cls-33" x="58.74" y="19.2">l</tspan><tspan x="62.49" y="19.2">a</tspan><tspan class="cls-25" x="72.07" y="19.2">m</tspan><tspan class="cls-20" x="86.13" y="19.2">e</tspan><tspan x="94.9" y="19.2">n</tspan><tspan class="cls-35" x="103.83" y="19.2">t</tspan><tspan x="109.38" y="19.2">o </tspan><tspan class="cls-33" x="122.18" y="19.2">d</tspan><tspan x="131.98" y="19.2">e </tspan><tspan class="cls-37" x="144.77" y="19.2">v</tspan><tspan class="cls-15" x="153.5" y="19.2">e</tspan><tspan class="cls-20" x="162.09" y="19.2">ic</tspan><tspan class="cls-27" x="173.75" y="19.2">u</tspan><tspan class="cls-33" x="182.4" y="19.2">l</tspan><tspan x="186.15" y="19.2">o </tspan><tspan class="cls-35" x="198.95" y="19.2">t</tspan><tspan class="cls-13" x="204.5" y="19.2">er</tspan><tspan class="cls-1" x="219.25" y="19.2">r</tspan><tspan class="cls-33" x="224.81" y="19.2">e</tspan><tspan x="233.64" y="19.2">st</tspan><tspan class="cls-1" x="246.32" y="19.2">r</tspan><tspan x="251.88" y="19.2">e</tspan></tspan><tspan class="cls-41"><tspan class="cls-28" x="0" y="57.6">C</tspan><tspan class="cls-3" x="10.78" y="57.6">o</tspan><tspan class="cls-40" x="19.61" y="57.6">b</tspan><tspan class="cls-30" x="29.15" y="57.6">r</tspan><tspan x="34.34" y="57.6">e </tspan><tspan class="cls-8" x="47.11" y="57.6">o</tspan><tspan x="56.02" y="57.6">s </tspan><tspan class="cls-2" x="66.73" y="57.6">p</tspan><tspan class="cls-30" x="76.26" y="57.6">r</tspan><tspan class="cls-25" x="81.45" y="57.6">e</tspan><tspan class="cls-4" x="90.22" y="57.6">j</tspan><tspan x="93.65" y="57.6">uí</tspan><tspan class="cls-40" x="104.94" y="57.6">z</tspan><tspan class="cls-8" x="112.97" y="57.6">o</tspan><tspan class="cls-21" x="121.88" y="57.6">s </tspan><tspan class="cls-4" x="132.59" y="57.6">q</tspan><tspan class="cls-8" x="142.1" y="57.6">u</tspan><tspan x="150.3" y="57.6">e </tspan><tspan class="cls-22" x="163.08" y="57.6">v</tspan><tspan class="cls-2" x="170.88" y="57.6">e</tspan><tspan class="cls-42" x="179.73" y="57.6">n</tspan><tspan class="cls-25" x="188.41" y="57.6">h</tspan><tspan x="196.83" y="57.6">a a </tspan><tspan class="cls-12" x="223.1" y="57.6">s</tspan><tspan x="229.92" y="57.6">o</tspan><tspan class="cls-5" x="238.88" y="57.6">f</tspan><tspan class="cls-24" x="244.43" y="57.6">r</tspan><tspan class="cls-40" x="249.61" y="57.6">e</tspan><tspan x="258.47" y="57.6">r </tspan></tspan><tspan class="cls-41"><tspan class="cls-2" x="0" y="76.8">e</tspan><tspan x="8.86" y="76.8">m </tspan><tspan class="cls-4" x="26.91" y="76.8">c</tspan><tspan class="cls-40" x="34.96" y="76.8">o</tspan><tspan class="cls-21" x="43.84" y="76.8">n</tspan><tspan class="cls-8" x="52.42" y="76.8">s</tspan><tspan class="cls-39" x="59.23" y="76.8">e</tspan><tspan class="cls-4" x="68.01" y="76.8">q</tspan><tspan class="cls-8" x="77.52" y="76.8">u</tspan><tspan class="cls-2" x="85.72" y="76.8">ê</tspan><tspan class="cls-39" x="94.58" y="76.8">n</tspan><tspan class="cls-23" x="102.99" y="76.8">c</tspan><tspan class="cls-2" x="111.01" y="76.8">i</tspan><tspan x="113.97" y="76.8">a </tspan><tspan class="cls-8" x="127.1" y="76.8">d</tspan><tspan x="136.67" y="76.8">e </tspan><tspan class="cls-39" x="149.45" y="76.8">p</tspan><tspan class="cls-40" x="158.9" y="76.8">e</tspan><tspan class="cls-24" x="167.76" y="76.8">r</tspan><tspan class="cls-12" x="172.94" y="76.8">d</tspan><tspan x="182.51" y="76.8">as e </tspan><tspan class="cls-12" x="215.29" y="76.8">d</tspan><tspan x="224.86" y="76.8">a</tspan><tspan class="cls-25" x="234.16" y="76.8">n</tspan><tspan class="cls-12" x="242.57" y="76.8">o</tspan><tspan x="251.48" y="76.8">s </tspan></tspan><tspan class="cls-41"><tspan class="cls-39" x="0" y="96">m</tspan><tspan x="14.06" y="96">a</tspan><tspan class="cls-29" x="23.35" y="96">t</tspan><tspan class="cls-40" x="28.66" y="96">e</tspan><tspan class="cls-34" x="37.51" y="96">r</tspan><tspan class="cls-40" x="43.13" y="96">i</tspan><tspan x="46.09" y="96">a</tspan><tspan class="cls-12" x="55.38" y="96">i</tspan><tspan x="58.37" y="96">s </tspan><tspan class="cls-4" x="69.08" y="96">c</tspan><tspan x="77.13" y="96">au</tspan><tspan class="cls-8" x="94.68" y="96">s</tspan><tspan class="cls-39" x="101.5" y="96">a</tspan><tspan class="cls-8" x="110.63" y="96">do</tspan><tspan x="129.1" y="96">s </tspan><tspan class="cls-25" x="139.81" y="96">a</tspan><tspan x="148.95" y="96">o </tspan><tspan class="cls-3" x="161.75" y="96">o</tspan><tspan class="cls-25" x="170.57" y="96">b</tspan><tspan class="cls-2" x="180.04" y="96">j</tspan><tspan class="cls-29" x="183.49" y="96">et</tspan><tspan x="197.51" y="96">o </tspan></tspan><tspan class="cls-41"><tspan class="cls-8" x="0" y="115.2">s</tspan><tspan class="cls-39" x="6.82" y="115.2">e</tspan><tspan class="cls-34" x="15.59" y="115.2">g</tspan><tspan x="24.89" y="115.2">u</tspan><tspan class="cls-24" x="33.14" y="115.2">r</tspan><tspan class="cls-39" x="38.33" y="115.2">a</tspan><tspan class="cls-8" x="47.46" y="115.2">d</tspan><tspan x="57.03" y="115.2">o </tspan><tspan class="cls-39" x="69.83" y="115.2">p</tspan><tspan class="cls-40" x="79.29" y="115.2">o</tspan><tspan x="88.17" y="115.2">r </tspan><tspan class="cls-4" x="97.73" y="115.2">c</tspan><tspan x="105.78" y="115.2">a</tspan><tspan class="cls-39" x="115.07" y="115.2">p</tspan><tspan class="cls-29" x="124.53" y="115.2">ot</tspan><tspan class="cls-25" x="138.58" y="115.2">a</tspan><tspan class="cls-2" x="147.71" y="115.2">ge</tspan><tspan x="165.89" y="115.2">m, </tspan><tspan class="cls-4" x="187.16" y="115.2">c</tspan><tspan class="cls-3" x="195.21" y="115.2">o</tspan><tspan class="cls-14" x="204.03" y="115.2">l</tspan><tspan class="cls-12" x="207.07" y="115.2">is</tspan><tspan class="cls-25" x="216.87" y="115.2">ão</tspan><tspan x="234.81" y="115.2">, </tspan></tspan><tspan class="cls-41"><tspan class="cls-29" x="0" y="134.4">t</tspan><tspan class="cls-2" x="5.3" y="134.4">o</tspan><tspan class="cls-17" x="14.18" y="134.4">m</tspan><tspan class="cls-25" x="28.5" y="134.4">b</tspan><tspan x="37.97" y="134.4">a</tspan><tspan class="cls-39" x="47.26" y="134.4">m</tspan><tspan class="cls-2" x="61.32" y="134.4">e</tspan><tspan x="70.17" y="134.4">n</tspan><tspan class="cls-29" x="78.75" y="134.4">t</tspan><tspan x="84.05" y="134.4">o </tspan><tspan class="cls-25" x="96.85" y="134.4">o</tspan><tspan x="105.65" y="134.4">u </tspan><tspan class="cls-12" x="117.75" y="134.4">des</tspan><tspan class="cls-34" x="143.01" y="134.4">c</tspan><tspan x="151.06" y="134.4">a</tspan><tspan class="cls-40" x="160.36" y="134.4">r</tspan><tspan class="cls-34" x="166" y="134.4">r</tspan><tspan class="cls-32" x="171.61" y="134.4">i</tspan><tspan class="cls-12" x="174.71" y="134.4">l</tspan><tspan x="177.69" y="134.4">a</tspan><tspan class="cls-25" x="186.99" y="134.4">m</tspan><tspan class="cls-2" x="201.05" y="134.4">e</tspan><tspan x="209.9" y="134.4">n</tspan><tspan class="cls-29" x="218.48" y="134.4">t</tspan><tspan x="223.78" y="134.4">o </tspan><tspan class="cls-8" x="236.58" y="134.4">d</tspan><tspan x="246.15" y="134.4">e </tspan></tspan><tspan class="cls-41"><tspan class="cls-22" x="0" y="153.6">v</tspan><tspan class="cls-39" x="7.8" y="153.6">e</tspan><tspan class="cls-40" x="16.58" y="153.6">ic</tspan><tspan class="cls-17" x="27.61" y="153.6">u</tspan><tspan class="cls-8" x="35.97" y="153.6">l</tspan><tspan x="38.95" y="153.6">o </tspan><tspan class="cls-29" x="51.75" y="153.6">t</tspan><tspan class="cls-2" x="57.05" y="153.6">er</tspan><tspan class="cls-24" x="71.55" y="153.6">r</tspan><tspan class="cls-12" x="76.73" y="153.6">e</tspan><tspan x="85.61" y="153.6">st</tspan><tspan class="cls-24" x="98" y="153.6">r</tspan><tspan x="103.19" y="153.6">e</tspan></tspan></text>
</svg>