<?xml version="1.0" encoding="UTF-8"?>
<svg id="Layer_1" data-name="Layer 1" xmlns="http://www.w3.org/2000/svg" viewBox="0 0 366.28 305.38">
  <defs>
    <style>
      .cls-1 {
        letter-spacing: 0em;
      }

      .cls-2 {
        letter-spacing: -.01em;
      }

      .cls-3 {
        letter-spacing: 0em;
      }

      .cls-4 {
        letter-spacing: -.01em;
      }

      .cls-5 {
        letter-spacing: 0em;
      }

      .cls-6 {
        letter-spacing: 0em;
      }

      .cls-7 {
        fill: #fff;
      }

      .cls-8 {
        letter-spacing: 0em;
      }

      .cls-9 {
        letter-spacing: -.03em;
      }

      .cls-10 {
        letter-spacing: -.04em;
      }

      .cls-11 {
        letter-spacing: 0em;
      }

      .cls-12 {
        letter-spacing: 0em;
      }

      .cls-13 {
        font-family: UrbanistRoman-Bold, Urbanist;
        font-size: 23.99px;
        font-variation-settings: 'wght' 700;
        font-weight: 700;
      }

      .cls-14 {
        letter-spacing: -.02em;
      }

      .cls-15 {
        letter-spacing: 0em;
      }

      .cls-16 {
        letter-spacing: .01em;
      }

      .cls-17 {
        letter-spacing: -.01em;
      }

      .cls-18 {
        letter-spacing: 0em;
      }

      .cls-19 {
        letter-spacing: 0em;
      }

      .cls-20 {
        font-family: Urbanist-Regular, Urbanist;
        font-size: 18px;
        font-variation-settings: 'wght' 400;
      }

      .cls-21 {
        letter-spacing: 0em;
      }

      .cls-22 {
        fill: #130044;
      }
    </style>
  </defs>
  <rect class="cls-22" x="0" y="0" width="366.28" height="305.38" rx="29.13" ry="29.13"/>
  <g>
    <path class="cls-7" d="M55.5,41c2.22-1.6,2.72-4.69,1.12-6.91-1.6-2.22-4.69-2.72-6.91-1.12-2.22,1.6-2.72,4.69-1.12,6.91.31.43.69.81,1.12,1.12-2.25,1.1-3.69,3.39-3.69,5.9v19.79c0,.91.74,1.65,1.65,1.65v8.24c0,.91.74,1.65,1.65,1.65s1.65-.74,1.65-1.65v-8.24h3.3v8.24c0,.91.74,1.65,1.65,1.65s1.65-.74,1.65-1.65v-8.24c.91,0,1.65-.74,1.65-1.65v-19.79c-.01-2.51-1.45-4.8-3.71-5.9ZM52.61,35.36c.91,0,1.65.74,1.65,1.65s-.74,1.65-1.65,1.65-1.65-.74-1.65-1.65.74-1.65,1.65-1.65ZM55.91,65.04h-6.6v-4.95h6.6v4.95ZM55.91,56.79h-6.6v-9.89c0-1.82,1.48-3.3,3.3-3.3s3.3,1.48,3.3,3.3v9.89Z"/>
    <path class="cls-7" d="M37.07,41c2.22-1.6,2.72-4.69,1.12-6.91-1.6-2.22-4.69-2.72-6.91-1.12-2.22,1.6-2.72,4.69-1.12,6.91.31.43.69.81,1.12,1.12-2.25,1.1-3.69,3.39-3.69,5.9v29.68c0,.91.74,1.65,1.65,1.65h9.89c.91,0,1.65-.74,1.65-1.65v-29.68c-.01-2.51-1.45-4.8-3.71-5.9ZM34.19,35.36c.91,0,1.65.74,1.65,1.65s-.74,1.65-1.65,1.65-1.65-.74-1.65-1.65.74-1.65,1.65-1.65ZM37.49,74.93h-1.65v-8.24c0-.91-.74-1.65-1.65-1.65s-1.65.74-1.65,1.65v8.24h-1.65v-13.19h6.6v13.19ZM37.49,58.44h-6.6v-11.54c0-1.82,1.48-3.3,3.3-3.3s3.3,1.48,3.3,3.3v11.54Z"/>
    <path class="cls-7" d="M92.35,41c2.22-1.6,2.72-4.69,1.12-6.91-1.6-2.22-4.69-2.72-6.91-1.12-2.22,1.6-2.72,4.69-1.12,6.91.31.43.69.81,1.12,1.12-2.25,1.1-3.69,3.39-3.69,5.9v19.79c0,.91.74,1.65,1.65,1.65v8.24c0,.91.74,1.65,1.65,1.65s1.65-.74,1.65-1.65v-8.24h3.3v8.24c0,.91.74,1.65,1.65,1.65s1.65-.74,1.65-1.65v-8.24c.91,0,1.65-.74,1.65-1.65v-19.79c-.01-2.51-1.45-4.8-3.71-5.9ZM89.46,35.36c.91,0,1.65.74,1.65,1.65s-.74,1.65-1.65,1.65-1.65-.74-1.65-1.65.74-1.65,1.65-1.65ZM92.76,65.04h-6.6v-4.95h6.6v4.95ZM92.76,56.79h-6.6v-9.89c0-1.82,1.48-3.3,3.3-3.3s3.3,1.48,3.3,3.3v9.89Z"/>
    <path class="cls-7" d="M73.92,41c2.22-1.6,2.72-4.69,1.12-6.91-1.6-2.22-4.69-2.72-6.91-1.12-2.22,1.6-2.72,4.69-1.12,6.91.31.43.69.81,1.12,1.12-2.25,1.1-3.69,3.39-3.69,5.9v29.68c0,.91.74,1.65,1.65,1.65h9.89c.91,0,1.65-.74,1.65-1.65v-29.68c-.01-2.51-1.45-4.8-3.71-5.9ZM71.04,35.36c.91,0,1.65.74,1.65,1.65s-.74,1.65-1.65,1.65-1.65-.74-1.65-1.65.74-1.65,1.65-1.65ZM74.34,74.93h-1.65v-8.24c0-.91-.74-1.65-1.65-1.65s-1.65.74-1.65,1.65v8.24h-1.65v-13.19h6.6v13.19ZM74.34,58.44h-6.6v-11.54c0-1.82,1.48-3.3,3.3-3.3s3.3,1.48,3.3,3.3v11.54Z"/>
  </g>
  <text class="cls-7" transform="translate(27.59 119.7)"><tspan class="cls-13"><tspan x="0" y="0">Em</tspan><tspan class="cls-4" x="34.48" y="0">p</tspan><tspan class="cls-10" x="49.05" y="0">r</tspan><tspan class="cls-1" x="57.39" y="0">es</tspan><tspan x="80.87" y="0">a</tspan><tspan class="cls-14" x="95.24" y="0">r</tspan><tspan class="cls-4" x="104.1" y="0">i</tspan><tspan class="cls-6" x="109.63" y="0">a</tspan><tspan x="124.06" y="0">l</tspan></tspan><tspan class="cls-20"><tspan x="0" y="43.2">O</tspan><tspan class="cls-2" x="13.86" y="43.2">f</tspan><tspan class="cls-21" x="19.66" y="43.2">e</tspan><tspan class="cls-9" x="29.62" y="43.2">r</tspan><tspan class="cls-17" x="35.45" y="43.2">e</tspan><tspan class="cls-19" x="45.32" y="43.2">c</tspan><tspan class="cls-5" x="54.34" y="43.2">i</tspan><tspan class="cls-15" x="57.67" y="43.2">d</tspan><tspan x="68.44" y="43.2">o </tspan><tspan class="cls-12" x="82.84" y="43.2">p</tspan><tspan class="cls-5" x="93.47" y="43.2">o</tspan><tspan x="103.46" y="43.2">r </tspan><tspan class="cls-5" x="114.22" y="43.2">e</tspan><tspan x="124.18" y="43.2">m</tspan><tspan class="cls-5" x="140.17" y="43.2">p</tspan><tspan class="cls-9" x="150.9" y="43.2">r</tspan><tspan class="cls-12" x="156.73" y="43.2">e</tspan><tspan class="cls-5" x="166.61" y="43.2">g</tspan><tspan class="cls-12" x="177.09" y="43.2">a</tspan><tspan class="cls-15" x="187.37" y="43.2">d</tspan><tspan class="cls-5" x="198.13" y="43.2">o</tspan><tspan class="cls-9" x="208.12" y="43.2">r</tspan><tspan class="cls-15" x="213.96" y="43.2">e</tspan><tspan x="223.95" y="43.2">s </tspan></tspan><tspan class="cls-20"><tspan class="cls-18" x="0" y="64.8">c</tspan><tspan class="cls-5" x="9.05" y="64.8">o</tspan><tspan class="cls-12" x="19.04" y="64.8">m</tspan><tspan x="34.86" y="64.8">o </tspan><tspan class="cls-17" x="49.26" y="64.8">b</tspan><tspan class="cls-5" x="59.9" y="64.8">e</tspan><tspan class="cls-12" x="69.87" y="64.8">n</tspan><tspan x="79.33" y="64.8">e</tspan><tspan class="cls-15" x="89.39" y="64.8">f</tspan><tspan class="cls-5" x="95.33" y="64.8">í</tspan><tspan class="cls-19" x="98.66" y="64.8">c</tspan><tspan class="cls-5" x="107.68" y="64.8">i</tspan><tspan x="111.01" y="64.8">o </tspan><tspan class="cls-17" x="125.41" y="64.8">a</tspan><tspan class="cls-3" x="135.68" y="64.8">o</tspan><tspan class="cls-11" x="145.7" y="64.8">s </tspan><tspan class="cls-16" x="157.75" y="64.8">f</tspan><tspan x="164" y="64.8">u</tspan><tspan class="cls-17" x="173.29" y="64.8">n</tspan><tspan class="cls-19" x="182.75" y="64.8">c</tspan><tspan class="cls-5" x="191.77" y="64.8">io</tspan><tspan class="cls-12" x="205.09" y="64.8">n</tspan><tspan x="214.56" y="64.8">á</tspan><tspan class="cls-18" x="225.02" y="64.8">r</tspan><tspan class="cls-5" x="231.34" y="64.8">i</tspan><tspan class="cls-15" x="234.67" y="64.8">o</tspan><tspan class="cls-8" x="244.68" y="64.8">s</tspan><tspan x="252.39" y="64.8">.</tspan></tspan></text>
</svg>