<?xml version="1.0" encoding="UTF-8"?>
<svg id="Layer_1" data-name="Layer 1" xmlns="http://www.w3.org/2000/svg" viewBox="0 0 366.28 305.38">
  <defs>
    <style>
      .cls-1 {
        letter-spacing: 0em;
      }

      .cls-2 {
        letter-spacing: 0em;
      }

      .cls-3 {
        letter-spacing: -.04em;
      }

      .cls-4 {
        letter-spacing: 0em;
      }

      .cls-5 {
        fill: #fff;
      }

      .cls-6 {
        letter-spacing: 0em;
      }

      .cls-7 {
        letter-spacing: -.03em;
      }

      .cls-8 {
        letter-spacing: 0em;
      }

      .cls-9 {
        letter-spacing: 0em;
      }

      .cls-10 {
        letter-spacing: -.01em;
      }

      .cls-11 {
        letter-spacing: -.03em;
      }

      .cls-12 {
        font-family: UrbanistRoman-Bold, Urbanist;
        font-size: 23.99px;
        font-variation-settings: 'wght' 700;
        font-weight: 700;
      }

      .cls-13 {
        letter-spacing: -.01em;
      }

      .cls-14 {
        letter-spacing: -.04em;
      }

      .cls-15 {
        letter-spacing: 0em;
      }

      .cls-16 {
        letter-spacing: -.03em;
      }

      .cls-17 {
        letter-spacing: -.01em;
      }

      .cls-18 {
        letter-spacing: 0em;
      }

      .cls-19 {
        letter-spacing: -.01em;
      }

      .cls-20 {
        letter-spacing: 0em;
      }

      .cls-21 {
        fill: #f6f7f6;
      }

      .cls-22 {
        font-family: Urbanist-Regular, Urbanist;
        font-size: 18px;
        font-variation-settings: 'wght' 400;
      }

      .cls-23 {
        fill: #130044;
      }

      .cls-24 {
        letter-spacing: -.01em;
      }

      .cls-25 {
        fill: #8a0047;
      }
    </style>
  </defs>
  <rect class="cls-25" x="0" y="0" width="366.28" height="305.38" rx="29.13" ry="29.13"/>
  <g>
    <path class="cls-21" d="M44.75,64.67c-2.49,0-4.51,2.02-4.51,4.51s2.02,4.51,4.51,4.51,4.51-2.02,4.51-4.51-2.02-4.51-4.51-4.51ZM44.75,70.99c-1,0-1.81-.81-1.81-1.81s.81-1.81,1.81-1.81,1.81.81,1.81,1.81-.81,1.81-1.81,1.81Z"/>
    <path class="cls-21" d="M91.9,64.67c-2.49,0-4.51,2.02-4.51,4.51s2.02,4.51,4.51,4.51,4.51-2.02,4.51-4.51-2.02-4.51-4.51-4.51ZM91.9,70.99c-1,0-1.81-.81-1.81-1.81s.81-1.81,1.81-1.81,1.81.81,1.81,1.81-.81,1.81-1.81,1.81Z"/>
    <path class="cls-21" d="M51.3,55.14h2.84c.75,0,1.35-.6,1.35-1.35s-.6-1.35-1.35-1.35h-2.84c-.75,0-1.35.6-1.35,1.35s.6,1.35,1.35,1.35Z"/>
    <path class="cls-21" d="M54.59,65.04c-.27,1.17,1.09,2.08,2.08,1.41.52-.35.73-1.04.49-1.63,0,.02.01.03,0,0-.02-.04,0-.02,0,0-.24-.56-.84-.91-1.44-.81-.55.09-.99.5-1.12,1.04Z"/>
    <path class="cls-21" d="M51.67,32.04c-6.29,0-11.85,4.24-13.52,10.3l-.17.62c-.83,3.01-3.21,5.41-6.22,6.26-2.45.69-4.16,2.95-4.16,5.5v14.95c0,.75.6,1.35,1.35,1.35h6.95c.86,4.11,4.5,7.2,8.86,7.2s8.01-3.09,8.86-7.2h9.98v-38.99h-11.93ZM35.74,68.33h-5.44v-1.64h5.76c-.15.53-.26,1.08-.31,1.64ZM44.75,75.53c-3.5,0-6.35-2.85-6.35-6.35s2.85-6.35,6.35-6.35,6.35,2.85,6.35,6.35-2.85,6.35-6.35,6.35ZM60.9,47.59h-9.83v-8.47c.2-.02.4-.03.61-.03h9.22v8.5ZM60.9,36.39h-9.22c-4.34,0-8.17,2.92-9.32,7.1l-.17.62c-.44,1.61-1.13,4.38-1.16,4.5-.1.4,0,.83.25,1.16.26.33.65.52,1.06.52h18.56v13.69h-.44c-.75,0-1.35.6-1.35,1.35s.6,1.35,1.35,1.35h.44v1.64h-7.13c-.43-4.59-4.31-8.2-9.01-8.2-3.06,0-5.77,1.53-7.41,3.86h-7.05v-9.26c0-1.34.9-2.54,2.2-2.9,3.91-1.1,7.02-4.22,8.1-8.15l.17-.62c1.35-4.9,5.84-8.32,10.92-8.32h9.22v1.65ZM48.36,39.94v7.66h-4.3c.23-.9.51-1.98.72-2.76l.17-.62c.52-1.87,1.78-3.39,3.41-4.28Z"/>
    <path class="cls-21" d="M101.31,49.05l-12.05-1.38-6.43-10.46c-1.96-3.19-5.51-5.18-9.26-5.18h-2.77v38.99h12.25c.86,4.11,4.5,7.2,8.86,7.2s8.01-3.09,8.86-7.2h7.29c.69,0,1.26-.52,1.34-1.2l1.06-9.27c.65-5.69-3.45-10.85-9.15-11.51ZM73.49,39.09h.07c1.32,0,2.56.7,3.25,1.82l4.11,6.68h-7.43v-8.5ZM82.89,68.33h-9.4v-1.64h9.71c-.15.53-.26,1.08-.31,1.64ZM91.9,75.53c-3.5,0-6.35-2.85-6.35-6.35s2.85-6.35,6.35-6.35,6.35,2.85,6.35,6.35-2.85,6.35-6.35,6.35ZM106.85,68.33h-5.94c-.05-.56-.16-1.11-.31-1.64h6.43l-.19,1.64ZM107.77,60.25l-.43,3.73h-8.04c-1.64-2.33-4.35-3.86-7.41-3.86s-5.77,1.53-7.41,3.86h-11v-8.84h.14c.75,0,1.35-.6,1.35-1.35s-.6-1.35-1.35-1.35h-.14v-2.14h9.85c.49,0,.94-.26,1.18-.69.24-.43.23-.95-.03-1.37l-5.37-8.74c-1.18-1.92-3.31-3.11-5.56-3.11h-.07v-1.65h.07c2.82,0,5.49,1.49,6.96,3.89l6.78,11.02c.22.35.59.59,1,.63l12.71,1.45c2.88.33,5.21,2.22,6.25,4.73h-4.22c-.75,0-1.35.6-1.35,1.35s.6,1.35,1.35,1.35h4.79c0,.36,0,.72-.05,1.08Z"/>
  </g>
  <rect class="cls-23" x="0" width="366.28" height="305.38" rx="29.13" ry="29.13"/>
  <text class="cls-5" transform="translate(27.59 119.7)"><tspan class="cls-12"><tspan class="cls-3" x="0" y="0">P</tspan><tspan class="cls-10" x="12.22" y="0">e</tspan><tspan class="cls-14" x="25.37" y="0">r</tspan><tspan class="cls-1" x="33.7" y="0">d</tspan><tspan x="48.39" y="0">a </tspan><tspan class="cls-24" x="68.52" y="0">tot</tspan><tspan class="cls-8" x="98.33" y="0">a</tspan><tspan x="112.76" y="0">l</tspan></tspan><tspan class="cls-22"><tspan class="cls-16" x="0" y="43.2">C</tspan><tspan class="cls-4" x="12.13" y="43.2">o</tspan><tspan x="22.12" y="43.2">n</tspan><tspan class="cls-17" x="31.77" y="43.2">t</tspan><tspan x="37.74" y="43.2">e </tspan><tspan class="cls-20" x="52.11" y="43.2">c</tspan><tspan class="cls-4" x="61.16" y="43.2">o</tspan><tspan x="71.15" y="43.2">m </tspan><tspan class="cls-6" x="91.47" y="43.2">i</tspan><tspan class="cls-19" x="94.86" y="43.2">n</tspan><tspan class="cls-2" x="104.33" y="43.2">d</tspan><tspan class="cls-4" x="115.09" y="43.2">e</tspan><tspan x="125.06" y="43.2">ni</tspan><tspan class="cls-4" x="138.12" y="43.2">z</tspan><tspan class="cls-19" x="147.16" y="43.2">a</tspan><tspan class="cls-20" x="157.44" y="43.2">ç</tspan><tspan class="cls-15" x="166.49" y="43.2">ã</tspan><tspan x="176.77" y="43.2">o </tspan><tspan class="cls-6" x="191.17" y="43.2">i</tspan><tspan x="194.56" y="43.2">n</tspan><tspan class="cls-13" x="204.21" y="43.2">t</tspan><tspan class="cls-15" x="210.18" y="43.2">e</tspan><tspan x="220.05" y="43.2">g</tspan><tspan class="cls-7" x="230.62" y="43.2">r</tspan><tspan class="cls-9" x="236.46" y="43.2">a</tspan><tspan x="247.03" y="43.2">l </tspan></tspan><tspan class="cls-22"><tspan class="cls-4" x="0" y="64.8">e</tspan><tspan x="9.96" y="64.8">m </tspan><tspan class="cls-20" x="30.28" y="64.8">c</tspan><tspan x="39.33" y="64.8">a</tspan><tspan class="cls-18" x="49.79" y="64.8">s</tspan><tspan x="57.46" y="64.8">o </tspan><tspan class="cls-18" x="71.86" y="64.8">d</tspan><tspan x="82.62" y="64.8">e </tspan><tspan class="cls-15" x="96.99" y="64.8">p</tspan><tspan class="cls-4" x="107.63" y="64.8">e</tspan><tspan class="cls-7" x="117.59" y="64.8">r</tspan><tspan class="cls-18" x="123.42" y="64.8">d</tspan><tspan x="134.19" y="64.8">a </tspan><tspan class="cls-13" x="148.97" y="64.8">tot</tspan><tspan class="cls-9" x="170.74" y="64.8">a</tspan><tspan x="181.31" y="64.8">l </tspan><tspan class="cls-18" x="189.05" y="64.8">d</tspan><tspan x="199.82" y="64.8">o </tspan><tspan class="cls-11" x="214.22" y="64.8">v</tspan><tspan class="cls-15" x="222.99" y="64.8">e</tspan><tspan class="cls-4" x="232.86" y="64.8">íc</tspan><tspan class="cls-9" x="245.28" y="64.8">u</tspan><tspan class="cls-18" x="254.68" y="64.8">l</tspan><tspan class="cls-15" x="258.04" y="64.8">o</tspan><tspan x="267.94" y="64.8">.</tspan></tspan></text>
  <g>
    <path class="cls-5" d="M44.75,64.67c-2.49,0-4.51,2.02-4.51,4.51s2.02,4.51,4.51,4.51,4.51-2.02,4.51-4.51-2.02-4.51-4.51-4.51ZM44.75,70.99c-1,0-1.81-.81-1.81-1.81s.81-1.81,1.81-1.81,1.81.81,1.81,1.81-.81,1.81-1.81,1.81Z"/>
    <path class="cls-5" d="M91.9,64.67c-2.49,0-4.51,2.02-4.51,4.51s2.02,4.51,4.51,4.51,4.51-2.02,4.51-4.51-2.02-4.51-4.51-4.51ZM91.9,70.99c-1,0-1.81-.81-1.81-1.81s.81-1.81,1.81-1.81,1.81.81,1.81,1.81-.81,1.81-1.81,1.81Z"/>
    <path class="cls-5" d="M51.3,55.14h2.84c.75,0,1.35-.6,1.35-1.35s-.6-1.35-1.35-1.35h-2.84c-.75,0-1.35.6-1.35,1.35s.6,1.35,1.35,1.35Z"/>
    <path class="cls-5" d="M54.59,65.04c-.27,1.17,1.09,2.08,2.08,1.41.52-.35.73-1.04.49-1.63,0,.02.01.03,0,0-.02-.04,0-.02,0,0-.24-.56-.84-.91-1.44-.81-.55.09-.99.5-1.12,1.04Z"/>
    <path class="cls-5" d="M51.67,32.04c-6.29,0-11.85,4.24-13.52,10.3l-.17.62c-.83,3.01-3.21,5.41-6.22,6.26-2.45.69-4.16,2.95-4.16,5.5v14.95c0,.75.6,1.35,1.35,1.35h6.95c.86,4.11,4.5,7.2,8.86,7.2s8.01-3.09,8.86-7.2h9.98v-38.99h-11.93ZM35.74,68.33h-5.44v-1.64h5.76c-.15.53-.26,1.08-.31,1.64ZM44.75,75.53c-3.5,0-6.35-2.85-6.35-6.35s2.85-6.35,6.35-6.35,6.35,2.85,6.35,6.35-2.85,6.35-6.35,6.35ZM60.9,47.59h-9.83v-8.47c.2-.02.4-.03.61-.03h9.22v8.5ZM60.9,36.39h-9.22c-4.34,0-8.17,2.92-9.32,7.1l-.17.62c-.44,1.61-1.13,4.38-1.16,4.5-.1.4,0,.83.25,1.16.26.33.65.52,1.06.52h18.56v13.69h-.44c-.75,0-1.35.6-1.35,1.35s.6,1.35,1.35,1.35h.44v1.64h-7.13c-.43-4.59-4.31-8.2-9.01-8.2-3.06,0-5.77,1.53-7.41,3.86h-7.05v-9.26c0-1.34.9-2.54,2.2-2.9,3.91-1.1,7.02-4.22,8.1-8.15l.17-.62c1.35-4.9,5.84-8.32,10.92-8.32h9.22v1.65ZM48.36,39.94v7.66h-4.3c.23-.9.51-1.98.72-2.76l.17-.62c.52-1.87,1.78-3.39,3.41-4.28Z"/>
    <path class="cls-5" d="M101.31,49.05l-12.05-1.38-6.43-10.46c-1.96-3.19-5.51-5.18-9.26-5.18h-2.77v38.99h12.25c.86,4.11,4.5,7.2,8.86,7.2s8.01-3.09,8.86-7.2h7.29c.69,0,1.26-.52,1.34-1.2l1.06-9.27c.65-5.69-3.45-10.85-9.15-11.51ZM73.49,39.09h.07c1.32,0,2.56.7,3.25,1.82l4.11,6.68h-7.43v-8.5ZM82.89,68.33h-9.4v-1.64h9.71c-.15.53-.26,1.08-.31,1.64ZM91.9,75.53c-3.5,0-6.35-2.85-6.35-6.35s2.85-6.35,6.35-6.35,6.35,2.85,6.35,6.35-2.85,6.35-6.35,6.35ZM106.85,68.33h-5.94c-.05-.56-.16-1.11-.31-1.64h6.43l-.19,1.64ZM107.77,60.25l-.43,3.73h-8.04c-1.64-2.33-4.35-3.86-7.41-3.86s-5.77,1.53-7.41,3.86h-11v-8.84h.14c.75,0,1.35-.6,1.35-1.35s-.6-1.35-1.35-1.35h-.14v-2.14h9.85c.49,0,.94-.26,1.18-.69.24-.43.23-.95-.03-1.37l-5.37-8.74c-1.18-1.92-3.31-3.11-5.56-3.11h-.07v-1.65h.07c2.82,0,5.49,1.49,6.96,3.89l6.78,11.02c.22.35.59.59,1,.63l12.71,1.45c2.88.33,5.21,2.22,6.25,4.73h-4.22c-.75,0-1.35.6-1.35,1.35s.6,1.35,1.35,1.35h4.79c0,.36,0,.72-.05,1.08Z"/>
  </g>
</svg>