<?xml version="1.0" encoding="UTF-8"?>
<svg id="Layer_1" data-name="Layer 1" xmlns="http://www.w3.org/2000/svg" viewBox="0 0 366.28 305.38">
  <defs>
    <style>
      .cls-1 {
        letter-spacing: 0em;
      }

      .cls-2 {
        letter-spacing: -.01em;
      }

      .cls-3 {
        letter-spacing: 0em;
      }

      .cls-4 {
        letter-spacing: -.02em;
      }

      .cls-5 {
        letter-spacing: 0em;
      }

      .cls-6 {
        fill: #fff;
      }

      .cls-7 {
        letter-spacing: -.01em;
      }

      .cls-8 {
        letter-spacing: 0em;
      }

      .cls-9 {
        letter-spacing: -.03em;
      }

      .cls-10 {
        letter-spacing: -.03em;
      }

      .cls-11 {
        letter-spacing: -.02em;
      }

      .cls-12 {
        letter-spacing: -.03em;
      }

      .cls-13 {
        letter-spacing: 0em;
      }

      .cls-14 {
        letter-spacing: -.01em;
      }

      .cls-15 {
        letter-spacing: 0em;
      }

      .cls-16 {
        letter-spacing: -.01em;
      }

      .cls-17 {
        letter-spacing: 0em;
      }

      .cls-18 {
        font-family: UrbanistRoman-Bold, Urbanist;
        font-size: 23.99px;
        font-variation-settings: 'wght' 700;
        font-weight: 700;
      }

      .cls-19 {
        letter-spacing: -.01em;
      }

      .cls-20 {
        letter-spacing: -.02em;
      }

      .cls-21 {
        letter-spacing: 0em;
      }

      .cls-22 {
        letter-spacing: -.01em;
      }

      .cls-23 {
        letter-spacing: 0em;
      }

      .cls-24 {
        letter-spacing: 0em;
      }

      .cls-25 {
        font-family: Urbanist-Regular, Urbanist;
        font-size: 18px;
        font-variation-settings: 'wght' 400;
      }

      .cls-26 {
        letter-spacing: 0em;
      }

      .cls-27 {
        letter-spacing: -.02em;
      }

      .cls-28 {
        fill: #130044;
      }
    </style>
  </defs>
  <rect class="cls-28" x="0" y="0" width="366.28" height="305.38" rx="29.13" ry="29.13"/>
  <path id="tractor" class="cls-6" d="M27.59,67.03c0-2.96,1.16-5.66,3.04-7.67v-7.55s0-.05,0-.08l1.44-11.55h-.9c-.3,0-.55-.24-.55-.55v-3.04c0-.3.24-.55.55-.55h17.71s0-4.02,0-4.02h1.1v4.02s5.54,0,5.54,0c.3,0,.55.24.55.55v3.04c0,.3-.24.55-.55.55h-2.34s2.77,11.08,2.77,11.08h11.2s0-5.54,0-5.54c0-.3.24-.55.55-.55h3.04v1.1h-2.5s0,4.99,0,4.99h2.5c.3,0,.55.24.55.55v8.29c1.06.54,2.03,1.26,2.89,2.13l-.78.77c-1.92-1.96-4.48-3.03-7.22-3.03-5.39,0-9.8,4.24-10.09,9.55h1.95c.28-4.24,3.82-7.61,8.14-7.61,4.5,0,8.16,3.66,8.16,8.16,0,4.5-3.66,8.16-8.16,8.16s-7.85-3.37-8.14-7.61h-8.64c-1.5,4.42-5.69,7.61-10.61,7.61-6.18,0-11.2-5.02-11.2-11.2ZM28.69,67.03c0,5.57,4.53,10.1,10.1,10.1,5.57,0,10.1-4.53,10.1-10.1s-4.53-10.1-10.1-10.1-10.1,4.53-10.1,10.1ZM59.12,70.08c0,3.89,3.17,7.06,7.06,7.06,3.89,0,7.06-3.17,7.06-7.06,0-3.89-3.17-7.06-7.06-7.06-3.89,0-7.06,3.17-7.06,7.06ZM54.98,52.37h-11.08s0,4.71,0,4.71c3.61,1.86,6.09,5.63,6.09,9.96,0,.86-.1,1.69-.28,2.5h5.27s0-17.16,0-17.16ZM70.19,59.62v-7.25s-14.12,0-14.12,0v12.88c1.81-3.76,5.66-6.37,10.1-6.37,1.4,0,2.75.25,4.02.74ZM42.81,56.58v-4.21s-11.08,0-11.08,0v5.98c1.93-1.57,4.38-2.51,7.06-2.51,1.41,0,2.77.26,4.02.75ZM35.13,40.19h-1.94s-1.38,11.08-1.38,11.08h1.94s1.38-11.08,1.38-11.08ZM42.81,40.19h-6.58s-1.38,11.08-1.38,11.08h7.96s0-11.08,0-11.08ZM52.05,40.19h-8.15s0,11.08,0,11.08h10.92s-2.77-11.08-2.77-11.08ZM54.98,37.15h-23.25s0,1.95,0,1.95h23.25s0-1.95,0-1.95ZM30.64,67.03c0-4.5,3.66-8.16,8.16-8.16,4.5,0,8.16,3.66,8.16,8.16,0,4.5-3.66,8.16-8.16,8.16s-8.16-3.66-8.16-8.16ZM31.73,67.03c0,3.89,3.17,7.06,7.06,7.06,3.89,0,7.06-3.17,7.06-7.06,0-3.89-3.17-7.06-7.06-7.06-3.89,0-7.06,3.17-7.06,7.06ZM61.06,70.08c0-2.82,2.29-5.11,5.11-5.11,2.82,0,5.11,2.29,5.11,5.11,0,2.82-2.29,5.11-5.11,5.11s-5.11-2.29-5.11-5.11ZM62.16,70.08c0,2.22,1.8,4.02,4.02,4.02s4.02-1.8,4.02-4.02-1.8-4.02-4.02-4.02-4.02,1.8-4.02,4.02ZM48.89,54.86c0-.3.24-.55.55-.55h3.04c.3,0,.55.24.55.55,0,.3-.24.55-.55.55h-3.04c-.3,0-.55-.24-.55-.55ZM58.02,54.86c0-.3.24-.55.55-.55h9.13c.3,0,.55.24.55.55s-.24.55-.55.55h-9.13c-.3,0-.55-.24-.55-.55Z"/>
  <text class="cls-6" transform="translate(27.59 119.7)"><tspan class="cls-18"><tspan class="cls-4" x="0" y="0">E</tspan><tspan class="cls-20" x="12.73" y="0">q</tspan><tspan x="27.2" y="0">u</tspan><tspan class="cls-1" x="40.11" y="0">i</tspan><tspan class="cls-15" x="45.73" y="0">p</tspan><tspan x="60.34" y="0">a</tspan><tspan class="cls-15" x="74.71" y="0">m</tspan><tspan class="cls-7" x="95.78" y="0">e</tspan><tspan x="108.92" y="0">n</tspan><tspan class="cls-16" x="122.31" y="0">t</tspan><tspan class="cls-1" x="130.63" y="0">o</tspan><tspan x="143.88" y="0">s </tspan><tspan class="cls-15" x="160.06" y="0">a</tspan><tspan x="174.19" y="0">g</tspan><tspan class="cls-20" x="188.89" y="0">r</tspan><tspan class="cls-7" x="197.76" y="0">í</tspan><tspan class="cls-11" x="203.28" y="0">c</tspan><tspan class="cls-27" x="215.15" y="0">o</tspan><tspan class="cls-1" x="228.12" y="0">l</tspan><tspan x="233.75" y="0">as</tspan></tspan><tspan class="cls-25"><tspan x="0" y="43.2">O</tspan><tspan class="cls-2" x="13.86" y="43.2">f</tspan><tspan class="cls-26" x="19.66" y="43.2">e</tspan><tspan class="cls-9" x="29.62" y="43.2">r</tspan><tspan class="cls-22" x="35.45" y="43.2">e</tspan><tspan class="cls-23" x="45.32" y="43.2">c</tspan><tspan x="54.38" y="43.2">e </tspan><tspan class="cls-23" x="68.75" y="43.2">c</tspan><tspan class="cls-24" x="77.8" y="43.2">o</tspan><tspan class="cls-17" x="87.73" y="43.2">b</tspan><tspan class="cls-5" x="98.38" y="43.2">e</tspan><tspan x="108.34" y="43.2">rtu</tspan><tspan class="cls-9" x="130.27" y="43.2">r</tspan><tspan x="136.11" y="43.2">a </tspan><tspan class="cls-22" x="150.88" y="43.2">p</tspan><tspan x="161.52" y="43.2">a</tspan><tspan class="cls-12" x="171.98" y="43.2">r</tspan><tspan x="177.81" y="43.2">a d</tspan><tspan class="cls-23" x="203.42" y="43.2">i</tspan><tspan class="cls-10" x="206.72" y="43.2">v</tspan><tspan class="cls-5" x="215.5" y="43.2">e</tspan><tspan class="cls-23" x="225.46" y="43.2">r</tspan><tspan class="cls-21" x="231.78" y="43.2">so</tspan><tspan x="249.46" y="43.2">s </tspan></tspan><tspan class="cls-25"><tspan class="cls-17" x="0" y="64.8">e</tspan><tspan class="cls-23" x="9.87" y="64.8">q</tspan><tspan class="cls-13" x="20.57" y="64.8">u</tspan><tspan class="cls-3" x="29.86" y="64.8">i</tspan><tspan class="cls-22" x="33.22" y="64.8">p</tspan><tspan x="43.86" y="64.8">a</tspan><tspan class="cls-17" x="54.31" y="64.8">m</tspan><tspan class="cls-5" x="70.13" y="64.8">e</tspan><tspan x="80.09" y="64.8">n</tspan><tspan class="cls-19" x="89.74" y="64.8">t</tspan><tspan class="cls-21" x="95.71" y="64.8">o</tspan><tspan class="cls-8" x="105.72" y="64.8">s</tspan><tspan x="113.43" y="64.8">, </tspan><tspan class="cls-8" x="121.36" y="64.8">i</tspan><tspan class="cls-22" x="124.76" y="64.8">n</tspan><tspan class="cls-23" x="134.23" y="64.8">c</tspan><tspan x="143.28" y="64.8">lu</tspan><tspan class="cls-8" x="155.99" y="64.8">i</tspan><tspan class="cls-22" x="159.38" y="64.8">n</tspan><tspan class="cls-3" x="168.85" y="64.8">d</tspan><tspan x="179.61" y="64.8">o </tspan></tspan><tspan class="cls-25"><tspan class="cls-9" x="0" y="86.4">r</tspan><tspan class="cls-17" x="5.83" y="86.4">o</tspan><tspan class="cls-23" x="15.73" y="86.4">ç</tspan><tspan class="cls-22" x="24.79" y="86.4">a</tspan><tspan class="cls-3" x="35.06" y="86.4">d</tspan><tspan class="cls-22" x="45.83" y="86.4">e</tspan><tspan class="cls-8" x="55.7" y="86.4">i</tspan><tspan class="cls-9" x="59.09" y="86.4">r</tspan><tspan x="64.93" y="86.4">a</tspan><tspan class="cls-8" x="75.38" y="86.4">s</tspan><tspan x="83.09" y="86.4">, t</tspan><tspan class="cls-12" x="97.24" y="86.4">r</tspan><tspan x="103.07" y="86.4">a</tspan><tspan class="cls-14" x="113.53" y="86.4">t</tspan><tspan class="cls-5" x="119.49" y="86.4">o</tspan><tspan class="cls-12" x="129.48" y="86.4">r</tspan><tspan class="cls-21" x="135.32" y="86.4">e</tspan><tspan x="145.31" y="86.4">s e </tspan></tspan><tspan class="cls-25"><tspan class="cls-23" x="0" y="108">c</tspan><tspan class="cls-24" x="9.05" y="108">o</tspan><tspan x="18.98" y="108">l</tspan><tspan class="cls-22" x="22.4" y="108">he</tspan><tspan x="41.74" y="108">i</tspan><tspan class="cls-14" x="45.16" y="108">t</tspan><tspan class="cls-17" x="51.13" y="108">a</tspan><tspan class="cls-21" x="61.41" y="108">d</tspan><tspan class="cls-17" x="72.17" y="108">e</tspan><tspan class="cls-8" x="82.04" y="108">i</tspan><tspan class="cls-9" x="85.44" y="108">r</tspan><tspan x="91.27" y="108">a</tspan><tspan class="cls-8" x="101.73" y="108">s</tspan><tspan x="109.43" y="108">.</tspan></tspan></text>
</svg>