<?xml version="1.0" encoding="UTF-8"?>
<svg id="Layer_1" data-name="Layer 1" xmlns="http://www.w3.org/2000/svg" viewBox="0 0 366.28 305.38">
  <defs>
    <style>
      .cls-1 {
        letter-spacing: -.01em;
      }

      .cls-2 {
        letter-spacing: 0em;
      }

      .cls-3 {
        letter-spacing: -.02em;
      }

      .cls-4 {
        letter-spacing: 0em;
      }

      .cls-5 {
        letter-spacing: -.05em;
      }

      .cls-6 {
        letter-spacing: -.04em;
      }

      .cls-7 {
        font-family: UrbanistRoman-Bold, Urbanist;
        font-size: 23.99px;
        font-variation-settings: 'wght' 700;
        font-weight: 700;
      }

      .cls-7, .cls-8 {
        fill: #130044;
      }
    </style>
  </defs>
  <path class="cls-8" d="M337.15,8.99c11.1,0,20.13,9.03,20.13,20.14v247.12c0,11.1-9.03,20.14-20.13,20.14H29.13c-11.1,0-20.14-9.03-20.14-20.14V29.13c0-11.1,9.03-20.14,20.14-20.14h308.02M337.15,0H29.13C13.11,0,0,13.11,0,29.13v247.12c0,16.02,13.11,29.13,29.13,29.13h308.02c16.02,0,29.13-13.11,29.13-29.13V29.13C366.28,13.11,353.18,0,337.15,0h0Z"/>
  <text class="cls-7" transform="translate(27.59 245.21)"><tspan class="cls-5" x="0" y="0">M</tspan><tspan class="cls-4" x="21.16" y="0">oe</tspan><tspan class="cls-2" x="47.53" y="0">d</tspan><tspan x="62.22" y="0">as </tspan><tspan class="cls-2" x="92.77" y="0">d</tspan><tspan x="107.46" y="0">e </tspan><tspan class="cls-4" x="126.64" y="0">p</tspan><tspan x="141.24" y="0">a</tspan><tspan class="cls-2" x="155.61" y="0">íse</tspan><tspan x="184.72" y="0">s </tspan><tspan x="0" y="28.78">d</tspan><tspan class="cls-3" x="14.87" y="28.78">i</tspan><tspan class="cls-6" x="20.3" y="28.78">v</tspan><tspan class="cls-1" x="33.4" y="28.78">e</tspan><tspan class="cls-3" x="46.55" y="28.78">r</tspan><tspan class="cls-2" x="55.41" y="28.78">so</tspan><tspan x="78.9" y="28.78">s</tspan></text>
  <polygon class="cls-8" points="338.69 262.6 330.04 262.6 330.04 253.95 324.38 253.95 324.38 262.6 315.73 262.6 315.73 268.27 324.38 268.27 324.38 276.92 330.04 276.92 330.04 268.27 338.69 268.27 338.69 262.6"/>
  <g>
    <path class="cls-8" d="M73.34,64.26c-.13-.44-.59-.69-1.03-.56-.44.13-.69.59-.56,1.03.25.84.37,1.72.37,2.61,0,5.09-4.14,9.23-9.23,9.23s-9.23-4.14-9.23-9.23,4.14-9.23,9.23-9.23c3.18,0,6.1,1.61,7.81,4.3.25.39.76.5,1.15.26.39-.25.5-.76.26-1.15-2.01-3.18-5.46-5.08-9.21-5.08-.5,0-.98.03-1.46.1.06-.48.1-.97.1-1.46,0-6.01-4.89-10.9-10.9-10.9-4.95,0-9.13,3.31-10.46,7.84-.55.1-1.11.15-1.68.15-5.09,0-9.23-4.14-9.23-9.23,0-2.5.98-4.84,2.77-6.59.33-.32.33-.85.01-1.18s-.85-.33-1.18-.01c-2.11,2.07-3.27,4.83-3.27,7.78,0,6.01,4.89,10.9,10.9,10.9.44,0,.89-.03,1.32-.08-.05.43-.08.88-.08,1.32,0,5.81,4.54,10.59,10.34,10.88.01,0,.03,0,.04,0,.44,0,.81-.35.83-.79.02-.46-.33-.85-.79-.87-4.91-.25-8.76-4.3-8.76-9.22s4.14-9.23,9.23-9.23,9.23,4.14,9.23,9.23c0,.62-.06,1.24-.19,1.85-4.44,1.37-7.68,5.52-7.68,10.41,0,6.01,4.89,10.9,10.9,10.9s10.9-4.89,10.9-10.9c0-1.05-.15-2.08-.44-3.08Z"/>
    <path class="cls-8" d="M66.52,61.87h-5.45c-.46,0-.83.37-.83.83v3.88h-.97c-.46,0-.83.37-.83.83s.37.83.83.83h.97v2.9h-.97c-.46,0-.83.37-.83.83s.37.83.83.83h6.57c.46,0,.83-.37.83-.83s-.37-.83-.83-.83h-3.94v-2.9h.99c.46,0,.83-.37.83-.83s-.37-.83-.83-.83h-.99v-3.04h3.79v1.11c0,.46.37.83.83.83s.83-.37.83-.83v-1.94c0-.46-.37-.83-.83-.83Z"/>
    <path class="cls-8" d="M52.81,52.61c.46,0,.83-.37.83-.83v-1.34c0-.46-.37-.83-.83-.83h-4.25c-.46,0-.83.37-.83.83v2.32h-.48c-.46,0-.83.37-.83.83s.37.83.83.83h.48v1.31h-.48c-.46,0-.83.37-.83.83s.37.83.83.83h.48v2.32c0,.46.37.83.83.83h4.25c.46,0,.83-.37.83-.83v-1.2c0-.46-.37-.83-.83-.83s-.83.37-.83.83v.37h-2.59v-1.49h1.41c.46,0,.83-.37.83-.83s-.37-.83-.83-.83h-1.41v-1.31h1.41c.46,0,.83-.37.83-.83s-.37-.83-.83-.83h-1.41v-1.49h2.59v.51c0,.46.37.83.83.83Z"/>
    <path class="cls-8" d="M41.22,42.1h-4.62v-1.64h4.62c.46,0,.83-.37.83-.83s-.37-.83-.83-.83h-1.9v-1.06c0-.46-.37-.83-.83-.83s-.83.37-.83.83v1.06h-1.9c-.46,0-.83.37-.83.83v3.31c0,.46.37.83.83.83h4.62v1.64h-4.62c-.46,0-.83.37-.83.83s.37.83.83.83h1.9v1.06c0,.46.37.83.83.83s.83-.37.83-.83v-1.06h1.9c.46,0,.83-.37.83-.83v-3.31c0-.46-.37-.83-.83-.83Z"/>
    <path class="cls-8" d="M49.32,41.79c-.58-5.56-5.24-9.75-10.84-9.75-1.84,0-3.66.47-5.27,1.36-.4.22-.55.73-.33,1.13.22.4.73.55,1.13.33,1.36-.75,2.9-1.15,4.46-1.15,4.74,0,8.69,3.55,9.18,8.26.04.43.41.75.83.75.03,0,.06,0,.09,0,.46-.05.79-.46.74-.91Z"/>
  </g>
</svg>