<?xml version="1.0" encoding="UTF-8"?>
<svg id="Layer_1" data-name="Layer 1" xmlns="http://www.w3.org/2000/svg" viewBox="0 0 366.28 305.38">
  <defs>
    <style>
      .cls-1 {
        letter-spacing: 0em;
      }

      .cls-2 {
        letter-spacing: 0em;
      }

      .cls-3 {
        letter-spacing: 0em;
      }

      .cls-4 {
        letter-spacing: 0em;
      }

      .cls-5 {
        fill: #fff;
      }

      .cls-6 {
        letter-spacing: -.01em;
      }

      .cls-7 {
        letter-spacing: 0em;
      }

      .cls-8 {
        letter-spacing: -.03em;
      }

      .cls-9 {
        letter-spacing: 0em;
      }

      .cls-10 {
        letter-spacing: -.03em;
      }

      .cls-11 {
        letter-spacing: -.03em;
      }

      .cls-12 {
        letter-spacing: -.01em;
      }

      .cls-13 {
        letter-spacing: -.04em;
      }

      .cls-14 {
        letter-spacing: -.01em;
      }

      .cls-15 {
        letter-spacing: 0em;
      }

      .cls-16 {
        font-family: UrbanistRoman-Bold, Urbanist;
        font-size: 23.99px;
        font-variation-settings: 'wght' 700;
        font-weight: 700;
      }

      .cls-17 {
        letter-spacing: -.01em;
      }

      .cls-18 {
        letter-spacing: 0em;
      }

      .cls-19 {
        letter-spacing: -.01em;
      }

      .cls-20 {
        letter-spacing: 0em;
      }

      .cls-21 {
        font-family: Urbanist-Regular, Urbanist;
        font-size: 18px;
        font-variation-settings: 'wght' 400;
      }

      .cls-22 {
        fill: #130044;
      }
    </style>
  </defs>
  <rect class="cls-22" x="0" y="0" width="366.28" height="305.38" rx="29.13" ry="29.13"/>
  <g>
    <path class="cls-5" d="M57.06,41.3h-2.84v-2.84c0-.41-.33-.74-.74-.74h-3.27c-.41,0-.74.33-.74.74v2.84h-2.84c-.41,0-.74.33-.74.74v3.27c0,.41.33.74.74.74h2.84v2.84c0,.41.33.74.74.74h3.27c.41,0,.74-.33.74-.74v-2.84h2.84c.41,0,.74-.33.74-.74v-3.27c0-.41-.33-.74-.74-.74ZM56.32,44.57h-2.84c-.41,0-.74.33-.74.74v2.84h-1.78v-2.84c0-.41-.33-.74-.74-.74h-2.84v-1.78h2.84c.41,0,.74-.33.74-.74v-2.84h1.78v2.84c0,.41.33.74.74.74h2.84v1.78Z"/>
    <path class="cls-5" d="M75.33,76.75h-4.01v-24.86h3.99c.32,0,.6-.2.7-.5.1-.3,0-.63-.24-.82l-23.46-18.37c-.27-.21-.64-.21-.91,0l-23.46,18.37c-.25.19-.35.53-.24.82.1.3.38.5.7.5h3.96v16.74c0,.41.33.74.74.74s.74-.33.74-.74v-16.74h36.01v24.86h-22.24v-18.04c0-.41-.33-.74-.74-.74h-10.27c-.41,0-.74.33-.74.74v18.04h-2.02v-5.68c0-.41-.33-.74-.74-.74s-.74.33-.74.74v5.68h-4.01c-.41,0-.74.33-.74.74s.33.74.74.74h47c.41,0,.74-.33.74-.74s-.33-.74-.74-.74ZM46.11,76.75h-8.79v-17.3h8.79v17.3ZM30.53,50.41l21.32-16.69,21.32,16.69H30.53Z"/>
    <path class="cls-5" d="M67.08,57.96h-3.53c-.41,0-.74.33-.74.74s.33.74.74.74h2.79v9.67h-15.83v-9.67h10.61c.41,0,.74-.33.74-.74s-.33-.74-.74-.74h-11.35c-.41,0-.74.33-.74.74v11.15c0,.41.33.74.74.74h17.31c.41,0,.74-.33.74-.74v-11.15c0-.41-.33-.74-.74-.74Z"/>
    <path class="cls-5" d="M44.37,66.19c-.41,0-.74.33-.74.74v2.34c0,.41.33.74.74.74s.74-.33.74-.74v-2.34c0-.41-.33-.74-.74-.74Z"/>
  </g>
  <text class="cls-5" transform="translate(27.59 119.7)"><tspan class="cls-16"><tspan class="cls-13" x="0" y="0">C</tspan><tspan class="cls-6" x="16.01" y="0">o</tspan><tspan class="cls-2" x="29.17" y="0">ns</tspan><tspan class="cls-4" x="52.97" y="0">u</tspan><tspan x="65.94" y="0">l</tspan><tspan class="cls-12" x="71.74" y="0">t</tspan><tspan x="80.07" y="0">as</tspan></tspan><tspan class="cls-21"><tspan class="cls-20" x="0" y="43.2">G</tspan><tspan x="13.71" y="43.2">a</tspan><tspan class="cls-8" x="24.17" y="43.2">r</tspan><tspan x="30" y="43.2">an</tspan><tspan class="cls-17" x="50.1" y="43.2">t</tspan><tspan x="56.07" y="43.2">e o u</tspan><tspan class="cls-18" x="94.13" y="43.2">s</tspan><tspan x="101.8" y="43.2">o </tspan><tspan class="cls-18" x="116.2" y="43.2">d</tspan><tspan x="126.96" y="43.2">e </tspan><tspan class="cls-20" x="141.33" y="43.2">c</tspan><tspan class="cls-3" x="150.39" y="43.2">o</tspan><tspan x="160.38" y="43.2">ns</tspan><tspan class="cls-9" x="177.76" y="43.2">u</tspan><tspan x="187.16" y="43.2">l</tspan><tspan class="cls-17" x="190.58" y="43.2">t</tspan><tspan x="196.55" y="43.2">as </tspan></tspan><tspan class="cls-21"><tspan class="cls-10" x="0" y="64.8">v</tspan><tspan class="cls-14" x="8.78" y="64.8">et</tspan><tspan class="cls-3" x="24.55" y="64.8">e</tspan><tspan class="cls-20" x="34.52" y="64.8">r</tspan><tspan class="cls-7" x="40.83" y="64.8">i</tspan><tspan class="cls-19" x="44.23" y="64.8">n</tspan><tspan x="53.69" y="64.8">á</tspan><tspan class="cls-20" x="64.15" y="64.8">r</tspan><tspan class="cls-3" x="70.47" y="64.8">i</tspan><tspan x="73.8" y="64.8">as </tspan><tspan class="cls-15" x="96.31" y="64.8">n</tspan><tspan class="cls-18" x="105.78" y="64.8">o</tspan><tspan x="115.79" y="64.8">s </tspan><tspan class="cls-18" x="127.85" y="64.8">l</tspan><tspan class="cls-15" x="131.2" y="64.8">o</tspan><tspan class="cls-20" x="141.1" y="64.8">c</tspan><tspan x="150.16" y="64.8">a</tspan><tspan class="cls-18" x="160.62" y="64.8">i</tspan><tspan x="163.97" y="64.8">s </tspan><tspan class="cls-18" x="176.02" y="64.8">d</tspan><tspan x="186.79" y="64.8">a </tspan><tspan class="cls-11" x="201.56" y="64.8">r</tspan><tspan class="cls-19" x="207.4" y="64.8">e</tspan><tspan class="cls-18" x="217.27" y="64.8">d</tspan><tspan x="228.03" y="64.8">e </tspan></tspan><tspan class="cls-21"><tspan x="0" y="86.4">c</tspan><tspan class="cls-8" x="9.17" y="86.4">r</tspan><tspan class="cls-15" x="15" y="86.4">e</tspan><tspan class="cls-18" x="24.88" y="86.4">d</tspan><tspan class="cls-3" x="35.64" y="86.4">e</tspan><tspan class="cls-15" x="45.6" y="86.4">n</tspan><tspan class="cls-1" x="55.07" y="86.4">c</tspan><tspan class="cls-3" x="64.09" y="86.4">i</tspan><tspan class="cls-15" x="67.42" y="86.4">a</tspan><tspan class="cls-18" x="77.7" y="86.4">d</tspan><tspan x="88.46" y="86.4">a.</tspan></tspan></text>
</svg>