<?xml version="1.0" encoding="UTF-8"?>
<svg id="Layer_1" data-name="Layer 1" xmlns="http://www.w3.org/2000/svg" viewBox="0 0 366.28 305.38">
  <defs>
    <style>
      .cls-1 {
        letter-spacing: 0em;
      }

      .cls-2 {
        letter-spacing: -.01em;
      }

      .cls-3 {
        letter-spacing: -.02em;
      }

      .cls-4 {
        letter-spacing: 0em;
      }

      .cls-5 {
        letter-spacing: -.04em;
      }

      .cls-6 {
        font-family: UrbanistRoman-Bold, Urbanist;
        font-size: 23.99px;
        font-variation-settings: 'wght' 700;
        font-weight: 700;
      }

      .cls-6, .cls-7 {
        fill: #130044;
      }
    </style>
  </defs>
  <path class="cls-7" d="M337.15,9c11.1,0,20.13,9.03,20.13,20.13v247.12c0,11.1-9.03,20.14-20.13,20.14H29.13c-11.1,0-20.13-9.03-20.13-20.14V29.13c0-11.1,9.03-20.13,20.13-20.13h308.02M337.15,0H29.13C13.11,0,0,13.11,0,29.13v247.12c0,16.02,13.11,29.13,29.13,29.13h308.02c16.02,0,29.13-13.11,29.13-29.13V29.13c0-16.02-13.11-29.13-29.13-29.13h0Z"/>
  <text class="cls-6" transform="translate(27.59 274.19)"><tspan class="cls-3" x="0" y="0">D</tspan><tspan x="15.75" y="0">a</tspan><tspan class="cls-4" x="30.11" y="0">n</tspan><tspan x="43.26" y="0">o </tspan><tspan class="cls-4" x="62.45" y="0">m</tspan><tspan class="cls-2" x="83.52" y="0">o</tspan><tspan class="cls-5" x="96.68" y="0">r</tspan><tspan class="cls-1" x="105.01" y="0">a</tspan><tspan x="119.44" y="0">l</tspan></text>
  <polygon class="cls-7" points="338.69 262.6 330.04 262.6 330.04 253.95 324.38 253.95 324.38 262.6 315.73 262.6 315.73 268.27 324.38 268.27 324.38 276.92 330.04 276.92 330.04 268.27 338.69 268.27 338.69 262.6"/>
  <g>
    <path class="cls-7" d="M55.2,49.54l-9.26,9.26-4.29-4.29c-.37-.37-.98-.37-1.36,0-.37.37-.37.98,0,1.36l4.97,4.97c.19.19.43.28.68.28s.49-.09.68-.28l9.94-9.94c.37-.37.37-.98,0-1.36-.37-.37-.98-.37-1.36,0Z"/>
    <path class="cls-7" d="M68.88,41.62c-.34-.9-.9-1.71-1.62-2.34-.82-.72-1.81-1.09-3.77-1.83l-13.32-5c-.56-.21-.87-.33-1.24-.38-.33-.05-.66-.05-.99,0-.37.05-.68.17-1.24.38l-13.32,5c-1.97.74-2.95,1.11-3.77,1.83-.72.63-1.28,1.44-1.62,2.34-.39,1.02-.39,2.07-.39,4.17v9.4c0,11.4,13.15,19.48,18.8,22.43.55.29.89.46,1.38.56.2.04.43.06.66.06s.46-.02.66-.06c.49-.1.82-.27,1.38-.56,5.65-2.94,18.8-11.03,18.8-22.42v-9.4c0-2.1,0-3.16-.39-4.17ZM67.35,55.19c0,10.64-13.6,18.55-17.77,20.72-.49.25-.65.34-.86.38-.15.03-.43.03-.58,0-.21-.04-.37-.12-.86-.38-4.17-2.17-17.77-10.08-17.77-20.72v-9.4c0-1.87,0-2.8.26-3.49.23-.61.61-1.15,1.1-1.58.55-.49,1.43-.82,3.18-1.47l13.32-5c.47-.18.68-.25.84-.28.07-.01.14-.02.22-.02s.15,0,.22.02c.16.02.37.1.84.28l13.32,5c1.75.66,2.62.98,3.18,1.47.49.43.87.98,1.1,1.58.26.69.26,1.63.26,3.49v9.4Z"/>
  </g>
</svg>