<?xml version="1.0" encoding="UTF-8"?>
<svg id="Layer_1" data-name="Layer 1" xmlns="http://www.w3.org/2000/svg" viewBox="0 0 366.28 305.38">
  <defs>
    <style>
      .cls-1 {
        letter-spacing: 0em;
      }

      .cls-2 {
        letter-spacing: -.02em;
      }

      .cls-3 {
        letter-spacing: 0em;
      }

      .cls-4 {
        letter-spacing: 0em;
      }

      .cls-5 {
        letter-spacing: 0em;
      }

      .cls-6 {
        letter-spacing: -.01em;
      }

      .cls-7 {
        letter-spacing: -.02em;
      }

      .cls-8 {
        letter-spacing: -.04em;
      }

      .cls-9 {
        font-family: UrbanistRoman-Bold, Urbanist;
        font-size: 23.99px;
        font-variation-settings: 'wght' 700;
        font-weight: 700;
      }

      .cls-9, .cls-10 {
        fill: #130044;
      }

      .cls-11 {
        letter-spacing: -.01em;
      }

      .cls-12 {
        letter-spacing: -.02em;
      }

      .cls-13 {
        letter-spacing: -.01em;
      }

      .cls-14 {
        letter-spacing: -.01em;
      }
    </style>
  </defs>
  <path class="cls-10" d="M337.15,9c11.1,0,20.14,9.03,20.14,20.13v247.12c0,11.1-9.03,20.14-20.14,20.14H29.13c-11.1,0-20.14-9.03-20.14-20.14V29.13c0-11.1,9.03-20.13,20.14-20.13h308.02M337.15,0H29.13C13.11,0,0,13.11,0,29.13v247.12c0,16.02,13.11,29.13,29.13,29.13h308.02c16.02,0,29.13-13.11,29.13-29.13V29.13c0-16.02-13.11-29.13-29.13-29.13h0Z"/>
  <text class="cls-9" transform="translate(27.59 274.19)"><tspan class="cls-7" x="0" y="0">P</tspan><tspan class="cls-8" x="12.72" y="0">r</tspan><tspan class="cls-6" x="21.06" y="0">op</tspan><tspan class="cls-12" x="48.79" y="0">r</tspan><tspan class="cls-11" x="57.65" y="0">i</tspan><tspan class="cls-3" x="63.18" y="0">e</tspan><tspan class="cls-1" x="76.36" y="0">d</tspan><tspan class="cls-13" x="91.05" y="0">a</tspan><tspan class="cls-1" x="105.18" y="0">d</tspan><tspan x="119.87" y="0">e </tspan><tspan class="cls-4" x="139.05" y="0">i</tspan><tspan x="144.76" y="0">n</tspan><tspan class="cls-14" x="158.14" y="0">t</tspan><tspan class="cls-2" x="166.47" y="0">e</tspan><tspan class="cls-1" x="179.43" y="0">l</tspan><tspan class="cls-13" x="185.06" y="0">e</tspan><tspan x="198.24" y="0">ct</tspan><tspan class="cls-1" x="219.06" y="0">u</tspan><tspan class="cls-5" x="231.78" y="0">a</tspan><tspan x="246.21" y="0">l</tspan></text>
  <polygon class="cls-10" points="338.69 262.6 330.04 262.6 330.04 253.95 324.38 253.95 324.38 262.6 315.73 262.6 315.73 268.27 324.38 268.27 324.38 276.92 330.04 276.92 330.04 268.27 338.69 268.27 338.69 262.6"/>
  <path class="cls-10" d="M64.4,57.34s0,.67-.56,1.26c-.4.42-.97.69-1.68.78,0,.04,0,.09.02.16l.03,1.65c-.02.23-.12.78-.75,1.22.11.45.1,1.16-.56,2.08-.33.45-.47.63-.33,1.13.12.66.38,2.56-.7,3.34-.4.37-1.7,1.2-5.02.79l-.49-.07c-1.45-.22-2.71-.32-3.52.69-1.12,2.17-3.11,6.18-3.27,7.13-.07.43-.45.74-.87.74-.05,0-.1,0-.15-.01-.48-.08-.81-.54-.73-1.02.26-1.51,3-6.77,3.54-7.8,1.59-2.03,3.89-1.68,5.26-1.48l.45.06c2.81.34,3.6-.33,3.61-.33.06-.08.09-.09.18-.14.07-.13.1-.91-.01-1.48-.36-1.26.23-2.05.55-2.48.28-.39.34-.6.35-.68-.41-.63-.27-1.22.05-1.55.1-.1.22-.18.35-.22.16-.05.25-.11.3-.14l-.03-1.3c-.08-.6.02-1.14.32-1.53.29-.38.66-.46.8-.48.54-.01.88-.11,1.03-.27,0-.04.08-.19.08-.24-.07-.36-1.16-2.51-2.13-4.23-.97-1.86-.3-3.25.15-4.17.14-.29.29-.59.3-.77.49-5.07-1.48-7.86-3.24-9.73-3.45-3.65-7.86-4.44-11-4.44h-.14c-8.04.06-11.05,2.67-13.24,5.12-4.77,5.33-3.91,9.88-3.87,10.07.11,2.39,3,6.67,4.11,8.13,3.58,5.14,1.86,9.15,1.79,9.32-.2.45-.73.65-1.17.45-.45-.19-.65-.72-.46-1.17.06-.15,1.35-3.33-1.6-7.56-.42-.55-4.3-5.76-4.43-8.95-.03-.07-1.11-5.43,4.31-11.47,2.62-2.93,6.2-5.65,14.55-5.71,3.56.04,8.5.82,12.44,4.99,2.03,2.14,4.28,5.34,3.72,11.12-.05.49-.26.94-.48,1.37-.39.81-.72,1.5-.18,2.55,2.45,4.31,2.37,5.01,2.33,5.28ZM46.21,48.13c-.62,0-1.11.43-1.85,1.12-.69.64-1.54,1.44-2.71,1.94-.06.03-.12.04-.19.07-.09.87-.63,3.64-3.75,5.1-.12.06-.25.08-.37.08-.33,0-.65-.19-.8-.51-.21-.44-.01-.97.43-1.18,1.65-.77,2.3-2.04,2.57-2.9-.63.13-1.26.2-1.86.2h0c-1.78,0-3.23-.57-4.19-1.65-1.03-1.16-1.43-2.82-1.18-4.92.6-5.04,6.01-9.19,12.58-9.66,6.63-.45,11.92,2.37,12.57,6.58.25,1.63-.05,2.95-.9,3.94-1.58,1.85-4.93,2.42-10.33,1.79,0,0,0,0-.02,0ZM46.43,46.37c1.44.17,2.7.23,3.81.22,0,0,0-.01,0-.02.19-.65.43-2.21-.06-2.84-.07-.08-.27-.35-.97-.32-.01,0-.03,0-.04,0-.48,0-.86-.37-.89-.85-.02-.49.36-.91.85-.93,1.3-.07,2.07.51,2.45,1,.89,1.14.7,2.9.51,3.83,1.49-.2,2.54-.63,3.11-1.29.5-.59.66-1.41.49-2.52-.46-2.97-4.41-5.13-9.4-5.13-.42,0-.85.02-1.29.05-2.67.19-5.09,1.06-6.99,2.34.43.06.86.17,1.26.4,1.04.59,1.63,1.71,1.76,3.31.04.49-.33.92-.81.96-.03,0-.05,0-.07,0-.46,0-.85-.35-.88-.82-.08-.98-.37-1.62-.87-1.91-.83-.48-2.17-.05-2.72.19-.87,1.1-1.47,2.31-1.62,3.62-.19,1.57.06,2.76.75,3.53.78.87,1.99,1.06,2.87,1.06,1.04,0,2.2-.26,3.28-.72.89-.38,1.56-1,2.2-1.61.92-.85,1.88-1.74,3.28-1.58Z"/>
</svg>