<?xml version="1.0" encoding="UTF-8"?>
<svg id="Layer_1" data-name="Layer 1" xmlns="http://www.w3.org/2000/svg" viewBox="0 0 366.28 305.38">
  <defs>
    <style>
      .cls-1 {
        letter-spacing: 0em;
      }

      .cls-2 {
        letter-spacing: 0em;
      }

      .cls-3 {
        letter-spacing: 0em;
      }

      .cls-4 {
        letter-spacing: -.01em;
      }

      .cls-5 {
        letter-spacing: 0em;
      }

      .cls-6 {
        letter-spacing: -.01em;
      }

      .cls-7 {
        letter-spacing: 0em;
      }

      .cls-8 {
        letter-spacing: 0em;
      }

      .cls-9 {
        fill: #fff;
      }

      .cls-10 {
        letter-spacing: .02em;
      }

      .cls-11 {
        letter-spacing: -.01em;
      }

      .cls-12 {
        letter-spacing: -.01em;
      }

      .cls-13 {
        letter-spacing: 0em;
      }

      .cls-14 {
        letter-spacing: -.03em;
      }

      .cls-15 {
        letter-spacing: 0em;
      }

      .cls-16 {
        letter-spacing: -.02em;
      }

      .cls-17 {
        letter-spacing: -.03em;
      }

      .cls-18 {
        letter-spacing: -.03em;
      }

      .cls-19 {
        letter-spacing: -.01em;
      }

      .cls-20 {
        letter-spacing: 0em;
      }

      .cls-21 {
        letter-spacing: -.01em;
      }

      .cls-22 {
        letter-spacing: 0em;
      }

      .cls-23 {
        font-family: UrbanistRoman-Bold, Urbanist;
        font-size: 23.99px;
        font-variation-settings: 'wght' 700;
        font-weight: 700;
      }

      .cls-24 {
        letter-spacing: -.03em;
      }

      .cls-25 {
        letter-spacing: -.01em;
      }

      .cls-26 {
        letter-spacing: -.02em;
      }

      .cls-27 {
        letter-spacing: 0em;
      }

      .cls-28 {
        letter-spacing: -.01em;
      }

      .cls-29 {
        letter-spacing: 0em;
      }

      .cls-30 {
        letter-spacing: 0em;
      }

      .cls-31 {
        font-family: Urbanist-Regular, Urbanist;
        font-size: 18px;
        font-variation-settings: 'wght' 400;
      }

      .cls-32 {
        letter-spacing: 0em;
      }

      .cls-33 {
        fill: #130044;
      }
    </style>
  </defs>
  <rect class="cls-33" x="0" y="0" width="366.28" height="305.38" rx="29.13" ry="29.13"/>
  <path class="cls-9" d="M70.18,36.95c0-2.71,2.2-4.91,4.91-4.91s4.91,2.2,4.91,4.91v36.04c0,2.71-2.2,4.91-4.91,4.91s-4.91-2.2-4.91-4.91v-.7c-7.08-4.07-14.71-6.04-22.64-6.82l1.33,8.88c.33,1.78-.84,3.49-2.61,3.83-.2.04-.4.06-.61.06h-1.8c-1.3,0-2.48-.77-3-1.96l-6.06-11.43c-.22,0-.44,0-.66,0-3.61-.04-6.52-2.97-6.53-6.58v-6.55c.01-3.61,2.92-6.54,6.53-6.59,2.71-.04,5.42-.12,8.13-.25,9.97-.5,20.14-2.78,27.93-7.2v-.7ZM73.46,36.95v36.04c0,.9.73,1.64,1.64,1.64s1.64-.73,1.64-1.64v-36.04c0-.9-.73-1.64-1.64-1.64s-1.64.73-1.64,1.64ZM70.18,41.38c-7.68,3.95-17.06,6.03-26.21,6.66v13.87c.59.03,1.18.07,1.76.12,8.41.62,16.68,2.44,24.45,6.53v-27.17ZM40.7,61.74v-13.53c-2.17.08-4.35.14-6.53.17-1.82.02-3.29,1.5-3.3,3.32v6.55c0,1.8,1.47,3.28,3.3,3.31,2.18.03,4.36.09,6.53.18h0ZM38.54,64.93l5.27,9.95.03.08h1.8v-.05s-1.46-9.72-1.46-9.72c-1.88-.11-3.76-.2-5.64-.27h0Z"/>
  <text class="cls-9" transform="translate(27.59 119.7)"><tspan class="cls-23"><tspan class="cls-1" x="0" y="0">D</tspan><tspan x="15.94" y="0">i</tspan><tspan class="cls-21" x="21.74" y="0">f</tspan><tspan x="30.15" y="0">a</tspan><tspan class="cls-20" x="44.52" y="0">ma</tspan><tspan class="cls-26" x="79.72" y="0">ç</tspan><tspan class="cls-20" x="91.58" y="0">ão</tspan><tspan x="118.9" y="0">, </tspan><tspan class="cls-26" x="130.73" y="0">c</tspan><tspan class="cls-8" x="142.59" y="0">a</tspan><tspan x="157.01" y="0">lún</tspan><tspan class="cls-6" x="189.11" y="0">i</tspan><tspan x="194.64" y="0">a, </tspan></tspan><tspan class="cls-23"><tspan class="cls-32" x="0" y="28.78">i</tspan><tspan class="cls-10" x="5.71" y="28.78">n</tspan><tspan class="cls-16" x="19.46" y="28.78">j</tspan><tspan x="24.93" y="28.78">ú</tspan><tspan class="cls-26" x="37.84" y="28.78">r</tspan><tspan class="cls-11" x="46.7" y="28.78">i</tspan><tspan x="52.23" y="28.78">a</tspan></tspan><tspan class="cls-31"><tspan class="cls-24" x="0" y="50.38">C</tspan><tspan class="cls-30" x="12.13" y="50.38">o</tspan><tspan class="cls-7" x="22.06" y="50.38">b</tspan><tspan class="cls-14" x="32.8" y="50.38">r</tspan><tspan x="38.63" y="50.38">e </tspan><tspan class="cls-22" x="53" y="50.38">p</tspan><tspan class="cls-7" x="63.64" y="50.38">e</tspan><tspan class="cls-14" x="73.6" y="50.38">r</tspan><tspan class="cls-27" x="79.43" y="50.38">d</tspan><tspan x="90.2" y="50.38">as </tspan><tspan class="cls-18" x="112.71" y="50.38">r</tspan><tspan class="cls-2" x="118.54" y="50.38">e</tspan><tspan class="cls-5" x="128.44" y="50.38">l</tspan><tspan class="cls-28" x="131.8" y="50.38">a</tspan><tspan class="cls-30" x="142.07" y="50.38">c</tspan><tspan class="cls-7" x="151.09" y="50.38">io</tspan><tspan class="cls-28" x="164.41" y="50.38">na</tspan><tspan class="cls-27" x="184.16" y="50.38">d</tspan><tspan x="194.92" y="50.38">as a </tspan></tspan><tspan class="cls-31"><tspan class="cls-14" x="0" y="71.98">r</tspan><tspan class="cls-22" x="5.83" y="71.98">e</tspan><tspan class="cls-29" x="15.71" y="71.98">c</tspan><tspan class="cls-27" x="24.76" y="71.98">l</tspan><tspan x="28.12" y="71.98">a</tspan><tspan class="cls-22" x="38.57" y="71.98">ma</tspan><tspan class="cls-29" x="64.67" y="71.98">ç</tspan><tspan class="cls-22" x="73.72" y="71.98">õ</tspan><tspan class="cls-27" x="83.62" y="71.98">e</tspan><tspan x="93.61" y="71.98">s </tspan><tspan class="cls-27" x="105.66" y="71.98">d</tspan><tspan x="116.42" y="71.98">e </tspan><tspan class="cls-25" x="130.8" y="71.98">t</tspan><tspan class="cls-7" x="136.76" y="71.98">e</tspan><tspan class="cls-14" x="146.73" y="71.98">r</tspan><tspan class="cls-29" x="152.56" y="71.98">c</tspan><tspan class="cls-22" x="161.61" y="71.98">e</tspan><tspan class="cls-13" x="171.49" y="71.98">i</tspan><tspan class="cls-14" x="174.88" y="71.98">r</tspan><tspan class="cls-27" x="180.71" y="71.98">o</tspan><tspan x="190.73" y="71.98">s </tspan><tspan class="cls-27" x="202.78" y="71.98">s</tspan><tspan class="cls-30" x="210.45" y="71.98">o</tspan><tspan class="cls-7" x="220.37" y="71.98">b</tspan><tspan class="cls-14" x="231.11" y="71.98">r</tspan><tspan x="236.94" y="71.98">e </tspan></tspan><tspan class="cls-31"><tspan x="0" y="93.58">di</tspan><tspan class="cls-4" x="14.25" y="93.58">f</tspan><tspan x="20.04" y="93.58">a</tspan><tspan class="cls-22" x="30.5" y="93.58">ma</tspan><tspan class="cls-3" x="56.59" y="93.58">ç</tspan><tspan class="cls-22" x="65.65" y="93.58">ão</tspan><tspan x="85.82" y="93.58">, </tspan><tspan class="cls-29" x="93.76" y="93.58">c</tspan><tspan class="cls-15" x="102.82" y="93.58">a</tspan><tspan x="113.39" y="93.58">lún</tspan><tspan class="cls-7" x="135.75" y="93.58">i</tspan><tspan x="139.08" y="93.58">a </tspan><tspan class="cls-28" x="153.85" y="93.58">o</tspan><tspan x="163.75" y="93.58">u </tspan><tspan class="cls-13" x="177.36" y="93.58">i</tspan><tspan class="cls-15" x="180.76" y="93.58">n</tspan><tspan class="cls-29" x="190.52" y="93.58">j</tspan><tspan x="194.37" y="93.58">ú</tspan><tspan class="cls-29" x="203.66" y="93.58">r</tspan><tspan class="cls-7" x="209.98" y="93.58">i</tspan><tspan x="213.31" y="93.58">a </tspan><tspan class="cls-12" x="228.09" y="93.58">f</tspan><tspan class="cls-28" x="233.88" y="93.58">e</tspan><tspan x="243.76" y="93.58">i</tspan><tspan class="cls-25" x="247.18" y="93.58">t</tspan><tspan x="253.14" y="93.58">a </tspan></tspan><tspan class="cls-31"><tspan class="cls-13" x="0" y="115.18">i</tspan><tspan class="cls-28" x="3.39" y="115.18">n</tspan><tspan class="cls-17" x="12.86" y="115.18">v</tspan><tspan class="cls-30" x="21.64" y="115.18">o</tspan><tspan x="31.56" y="115.18">lun</tspan><tspan class="cls-19" x="53.92" y="115.18">t</tspan><tspan x="59.89" y="115.18">a</tspan><tspan class="cls-29" x="70.34" y="115.18">r</tspan><tspan class="cls-7" x="76.66" y="115.18">i</tspan><tspan x="79.99" y="115.18">a</tspan><tspan class="cls-22" x="90.45" y="115.18">m</tspan><tspan class="cls-7" x="106.26" y="115.18">e</tspan><tspan x="116.23" y="115.18">n</tspan><tspan class="cls-25" x="125.87" y="115.18">t</tspan><tspan x="131.84" y="115.18">e </tspan><tspan class="cls-28" x="146.21" y="115.18">p</tspan><tspan class="cls-30" x="156.85" y="115.18">e</tspan><tspan class="cls-27" x="166.75" y="115.18">l</tspan><tspan x="170.11" y="115.18">o </tspan><tspan class="cls-27" x="184.51" y="115.18">s</tspan><tspan class="cls-22" x="192.18" y="115.18">e</tspan><tspan class="cls-29" x="202.05" y="115.18">g</tspan><tspan x="212.51" y="115.18">u</tspan><tspan class="cls-14" x="221.79" y="115.18">r</tspan><tspan class="cls-22" x="227.63" y="115.18">a</tspan><tspan class="cls-27" x="237.91" y="115.18">d</tspan><tspan x="248.67" y="115.18">o </tspan></tspan><tspan class="cls-31"><tspan x="0" y="136.78">du</tspan><tspan class="cls-14" x="20.11" y="136.78">r</tspan><tspan x="25.95" y="136.78">an</tspan><tspan class="cls-25" x="46.05" y="136.78">t</tspan><tspan x="52.02" y="136.78">e a a</tspan><tspan class="cls-27" x="91.63" y="136.78">t</tspan><tspan class="cls-29" x="97.77" y="136.78">iv</tspan><tspan class="cls-7" x="110.21" y="136.78">i</tspan><tspan class="cls-27" x="113.54" y="136.78">d</tspan><tspan class="cls-22" x="124.31" y="136.78">a</tspan><tspan class="cls-27" x="134.59" y="136.78">d</tspan><tspan x="145.35" y="136.78">e </tspan><tspan class="cls-7" x="159.72" y="136.78">p</tspan><tspan class="cls-18" x="170.45" y="136.78">r</tspan><tspan x="176.28" y="136.78">o</tspan><tspan class="cls-27" x="186.36" y="136.78">fi</tspan><tspan x="195.66" y="136.78">s</tspan><tspan class="cls-7" x="203.39" y="136.78">sio</tspan><tspan class="cls-22" x="224.35" y="136.78">n</tspan><tspan class="cls-15" x="233.82" y="136.78">a</tspan><tspan x="244.39" y="136.78">l.</tspan></tspan></text>
</svg>