<?xml version="1.0" encoding="UTF-8"?>
<svg id="Layer_1" data-name="Layer 1" xmlns="http://www.w3.org/2000/svg" viewBox="0 0 366.28 305.38">
  <defs>
    <style>
      .cls-1 {
        letter-spacing: 0em;
      }

      .cls-2 {
        letter-spacing: 0em;
      }

      .cls-3 {
        letter-spacing: -.04em;
      }

      .cls-4 {
        letter-spacing: .01em;
      }

      .cls-5 {
        letter-spacing: -.02em;
      }

      .cls-6 {
        letter-spacing: -.04em;
      }

      .cls-7 {
        letter-spacing: 0em;
      }

      .cls-8, .cls-9 {
        fill: #fff;
      }

      .cls-10 {
        letter-spacing: -.02em;
      }

      .cls-11 {
        letter-spacing: 0em;
      }

      .cls-12 {
        letter-spacing: -.01em;
      }

      .cls-13 {
        letter-spacing: -.02em;
      }

      .cls-14 {
        font-family: UrbanistRoman-Bold, Urbanist;
        font-variation-settings: 'wght' 700;
        font-weight: 700;
      }

      .cls-15 {
        letter-spacing: 0em;
      }

      .cls-16 {
        letter-spacing: 0em;
      }

      .cls-17 {
        letter-spacing: -.02em;
      }

      .cls-18 {
        letter-spacing: -.01em;
      }

      .cls-19 {
        letter-spacing: 0em;
      }

      .cls-20 {
        letter-spacing: -.03em;
      }

      .cls-21 {
        letter-spacing: 0em;
      }

      .cls-22 {
        letter-spacing: 0em;
      }

      .cls-23 {
        letter-spacing: -.03em;
      }

      .cls-24 {
        letter-spacing: 0em;
      }

      .cls-9 {
        font-size: 16px;
      }

      .cls-25 {
        letter-spacing: -.02em;
      }

      .cls-26 {
        letter-spacing: -.03em;
      }

      .cls-27 {
        letter-spacing: 0em;
      }

      .cls-28 {
        letter-spacing: -.05em;
      }

      .cls-29 {
        letter-spacing: 0em;
      }

      .cls-30 {
        letter-spacing: -.01em;
      }

      .cls-31 {
        letter-spacing: 0em;
      }

      .cls-32 {
        letter-spacing: -.04em;
      }

      .cls-33 {
        font-family: Urbanist-Regular, Urbanist;
        font-variation-settings: 'wght' 400;
      }

      .cls-34 {
        fill: #130044;
      }
    </style>
  </defs>
  <rect class="cls-34" x="0" y="0" width="366.28" height="305.38" rx="29.13" ry="29.13"/>
  <path class="cls-8" d="M59.41,46.36h0c-.34-.34-.81-.55-1.33-.55-.78,0-1.44.47-1.73,1.14h0c-.39.92-.9,1.69-1.5,2.37,0-.18.01-.4.01-.61,0-2.71-.6-5.28-1.66-7.58-1.92-4-5.13-7.12-9.08-8.89l-.12-.05c-.22-.1-.48-.16-.75-.16-1.04,0-1.89.84-1.89,1.89,0,.11.01.23.03.33h0c0,.05,0,.13,0,.21,0,3.02-1.35,5.73-3.47,7.56h-.01c-.79.8-1.62,1.56-2.46,2.31-1.98,1.64-3.69,3.48-5.15,5.52l-.06.09c-1.65,2.68-2.63,5.93-2.63,9.41,0,1.71.24,3.37.68,4.93l-.03-.13c1.16,4.73,4.06,8.65,7.98,11.09l.08.04c2.85,1.82,6.33,2.91,10.05,2.93h.02c.78,0,1.54-.05,2.29-.15,7.1-1.05,12.86-5.89,15.2-12.37l.04-.13c.6-1.76.94-3.79.94-5.9,0-5.18-2.07-9.88-5.44-13.32ZM60.34,64.37h0c-1.9,5.28-6.51,9.15-12.1,9.97h-.08c-.53.08-1.15.12-1.78.12-2.98,0-5.76-.87-8.1-2.36-3.16-1.98-5.46-5.08-6.36-8.74l-.02-.1c-.34-1.17-.54-2.51-.54-3.9,0-2.69.74-5.21,2.03-7.37,1.34-1.84,2.84-3.43,4.52-4.81l.05-.04c.89-.8,1.78-1.6,2.62-2.45,2.13-2,3.69-4.59,4.42-7.5l.02-.11c3.69,2.59,6.08,6.83,6.08,11.62,0,1.45-.22,2.84-.62,4.15-.05.16-.08.35-.08.55,0,1.04.84,1.88,1.88,1.88.25,0,.49-.05.71-.14,2.19-.91,4.01-2.34,5.35-4.15l.02-.03c1.7,2.43,2.72,5.44,2.72,8.69,0,1.65-.27,3.23-.75,4.72Z"/>
  <text class="cls-9" transform="translate(27.59 113.71)"><tspan class="cls-14"><tspan x="0" y="0">I</tspan><tspan class="cls-30" x="4.35" y="0">n</tspan><tspan class="cls-17" x="13.12" y="0">c</tspan><tspan class="cls-18" x="21.03" y="0">ê</tspan><tspan class="cls-24" x="29.8" y="0">n</tspan><tspan x="38.57" y="0">d</tspan><tspan class="cls-18" x="48.49" y="0">i</tspan><tspan class="cls-24" x="52.18" y="0">o</tspan><tspan x="60.98" y="0">, </tspan><tspan class="cls-28" x="68.86" y="0">e</tspan><tspan class="cls-13" x="76.97" y="0">x</tspan><tspan class="cls-25" x="86.14" y="0">p</tspan><tspan class="cls-15" x="95.74" y="0">los</tspan><tspan class="cls-30" x="115.17" y="0">ão</tspan><tspan x="133.39" y="0">, </tspan><tspan class="cls-16" x="141.28" y="0">f</tspan><tspan x="147.18" y="0">u</tspan><tspan class="cls-24" x="155.79" y="0">ma</tspan><tspan class="cls-17" x="179.27" y="0">ç</tspan><tspan x="187.18" y="0">a e </tspan><tspan class="cls-5" x="213.4" y="0">q</tspan><tspan class="cls-15" x="223.06" y="0">u</tspan><tspan class="cls-24" x="231.54" y="0">e</tspan><tspan class="cls-27" x="240.34" y="0">d</tspan><tspan x="250.14" y="0">a </tspan></tspan><tspan class="cls-14"><tspan class="cls-15" x="0" y="19.2">d</tspan><tspan x="9.8" y="19.2">e </tspan><tspan class="cls-24" x="22.59" y="19.2">a</tspan><tspan class="cls-18" x="32.02" y="19.2">e</tspan><tspan class="cls-3" x="40.78" y="19.2">r</tspan><tspan class="cls-12" x="46.34" y="19.2">o</tspan><tspan class="cls-30" x="55.12" y="19.2">n</tspan><tspan class="cls-10" x="63.89" y="19.2">a</tspan><tspan class="cls-32" x="73.1" y="19.2">v</tspan><tspan class="cls-15" x="81.84" y="19.2">e</tspan><tspan x="90.67" y="19.2">s</tspan></tspan><tspan class="cls-33"><tspan x="0" y="57.6">O</tspan><tspan class="cls-18" x="12.32" y="57.6">f</tspan><tspan class="cls-31" x="17.47" y="57.6">e</tspan><tspan class="cls-26" x="26.33" y="57.6">r</tspan><tspan class="cls-24" x="31.51" y="57.6">e</tspan><tspan class="cls-2" x="40.29" y="57.6">c</tspan><tspan class="cls-19" x="48.34" y="57.6">e </tspan><tspan class="cls-31" x="61.11" y="57.6">g</tspan><tspan x="70.43" y="57.6">a</tspan><tspan class="cls-23" x="79.73" y="57.6">r</tspan><tspan x="84.91" y="57.6">an</tspan><tspan class="cls-11" x="102.78" y="57.6">t</tspan><tspan class="cls-31" x="108.25" y="57.6">i</tspan><tspan x="111.21" y="57.6">as </tspan><tspan class="cls-30" x="131.22" y="57.6">p</tspan><tspan x="140.67" y="57.6">a</tspan><tspan class="cls-26" x="149.97" y="57.6">r</tspan><tspan x="155.15" y="57.6">a </tspan><tspan class="cls-7" x="168.29" y="57.6">o</tspan><tspan x="177.19" y="57.6">s </tspan><tspan class="cls-1" x="187.9" y="57.6">p</tspan><tspan class="cls-23" x="197.44" y="57.6">r</tspan><tspan class="cls-24" x="202.62" y="57.6">e</tspan><tspan class="cls-29" x="211.4" y="57.6">j</tspan><tspan x="214.82" y="57.6">uí</tspan><tspan class="cls-1" x="226.12" y="57.6">z</tspan><tspan class="cls-7" x="234.15" y="57.6">o</tspan><tspan x="243.05" y="57.6">s </tspan></tspan><tspan class="cls-33"><tspan class="cls-1" x="0" y="76.8">e</tspan><tspan x="8.86" y="76.8">m </tspan><tspan class="cls-2" x="26.91" y="76.8">c</tspan><tspan x="34.96" y="76.8">a</tspan><tspan class="cls-7" x="44.26" y="76.8">s</tspan><tspan x="51.07" y="76.8">o </tspan><tspan class="cls-11" x="63.87" y="76.8">d</tspan><tspan x="73.44" y="76.8">e </tspan><tspan class="cls-21" x="86.21" y="76.8">i</tspan><tspan class="cls-30" x="89.23" y="76.8">n</tspan><tspan class="cls-2" x="97.65" y="76.8">c</tspan><tspan class="cls-1" x="105.69" y="76.8">ê</tspan><tspan class="cls-24" x="114.55" y="76.8">n</tspan><tspan x="122.97" y="76.8">d</tspan><tspan class="cls-31" x="132.59" y="76.8">i</tspan><tspan class="cls-30" x="135.55" y="76.8">o</tspan><tspan x="144.35" y="76.8">, </tspan><tspan class="cls-6" x="151.41" y="76.8">e</tspan><tspan class="cls-30" x="159.7" y="76.8">x</tspan><tspan class="cls-22" x="168.06" y="76.8">p</tspan><tspan class="cls-11" x="177.54" y="76.8">los</tspan><tspan class="cls-30" x="196.25" y="76.8">ão</tspan><tspan x="214.18" y="76.8">, </tspan><tspan class="cls-4" x="221.24" y="76.8">f</tspan><tspan x="226.79" y="76.8">u</tspan><tspan class="cls-24" x="235.05" y="76.8">ma</tspan><tspan class="cls-29" x="258.24" y="76.8">ç</tspan><tspan x="266.29" y="76.8">a </tspan></tspan><tspan class="cls-33"><tspan x="0" y="96">e </tspan><tspan class="cls-2" x="12.78" y="96">q</tspan><tspan class="cls-11" x="22.29" y="96">u</tspan><tspan class="cls-24" x="30.49" y="96">e</tspan><tspan class="cls-11" x="39.26" y="96">d</tspan><tspan x="48.83" y="96">a </tspan><tspan class="cls-11" x="61.97" y="96">d</tspan><tspan x="71.54" y="96">e </tspan><tspan class="cls-24" x="84.31" y="96">a</tspan><tspan class="cls-31" x="93.45" y="96">e</tspan><tspan class="cls-26" x="102.3" y="96">r</tspan><tspan class="cls-1" x="107.49" y="96">o</tspan><tspan class="cls-24" x="116.37" y="96">na</tspan><tspan class="cls-20" x="133.92" y="96">v</tspan><tspan class="cls-11" x="141.72" y="96">e</tspan><tspan class="cls-21" x="150.6" y="96">s</tspan><tspan x="157.45" y="96">.</tspan></tspan></text>
</svg>