<?xml version="1.0" encoding="UTF-8"?>
<svg id="Layer_1" data-name="Layer 1" xmlns="http://www.w3.org/2000/svg" viewBox="0 0 366.28 305.38">
  <defs>
    <style>
      .cls-1 {
        letter-spacing: 0em;
      }

      .cls-2 {
        letter-spacing: 0em;
      }

      .cls-3 {
        letter-spacing: -.01em;
      }

      .cls-4 {
        letter-spacing: -.04em;
      }

      .cls-5 {
        font-family: UrbanistRoman-Bold, Urbanist;
        font-size: 23.99px;
        font-variation-settings: 'wght' 700;
        font-weight: 700;
      }

      .cls-5, .cls-6 {
        fill: #130044;
      }

      .cls-7 {
        letter-spacing: -.02em;
      }
    </style>
  </defs>
  <path class="cls-6" d="M337.15,8.99c11.1,0,20.14,9.03,20.14,20.14v247.12c0,11.1-9.03,20.14-20.14,20.14H29.13c-11.1,0-20.13-9.03-20.13-20.14V29.13c0-11.1,9.03-20.14,20.13-20.14h308.02M337.15,0H29.13C13.11,0,0,13.11,0,29.13v247.12c0,16.02,13.11,29.13,29.13,29.13h308.02c16.02,0,29.13-13.11,29.13-29.13V29.13c0-16.02-13.11-29.13-29.13-29.13h0Z"/>
  <text class="cls-5" transform="translate(27.59 274.19)"><tspan class="cls-7" x="0" y="0">C</tspan><tspan class="cls-2" x="16.55" y="0">i</tspan><tspan class="cls-1" x="22.26" y="0">r</tspan><tspan x="31.25" y="0">u</tspan><tspan class="cls-4" x="44.16" y="0">r</tspan><tspan class="cls-3" x="52.49" y="0">gi</tspan><tspan x="72.45" y="0">a</tspan></text>
  <polygon class="cls-6" points="338.69 262.6 330.04 262.6 330.04 253.95 324.38 253.95 324.38 262.6 315.73 262.6 315.73 268.27 324.38 268.27 324.38 276.92 330.04 276.92 330.04 268.27 338.69 268.27 338.69 262.6"/>
  <g>
    <path class="cls-6" d="M74.5,32.04h-39.91c-3.86,0-6.99,3.14-6.99,6.99v32.21c0,3.86,3.14,6.99,6.99,6.99h39.91c3.86,0,6.99-3.14,6.99-6.99v-32.21c0-3.86-3.14-6.99-6.99-6.99ZM79.38,71.24c0,2.69-2.19,4.89-4.89,4.89h-39.91c-2.69,0-4.89-2.19-4.89-4.89v-32.21c0-2.69,2.19-4.89,4.89-4.89h39.91c2.69,0,4.89,2.19,4.89,4.89v32.21h0Z"/>
    <path class="cls-6" d="M32.48,38.67c-.58,0-1.05.47-1.05,1.05v5.78c0,.58.47,1.05,1.05,1.05s1.05-.47,1.05-1.05v-5.78c0-.58-.47-1.05-1.05-1.05Z"/>
    <path class="cls-6" d="M32.48,49.08c-.58,0-1.05.47-1.05,1.05v20.21c0,.58.47,1.05,1.05,1.05s1.05-.47,1.05-1.05v-20.21c0-.58-.47-1.05-1.05-1.05Z"/>
    <path class="cls-6" d="M43.28,36.93c0-.58-.47-1.05-1.05-1.05h-6.95c-.58,0-1.05.47-1.05,1.05s.47,1.05,1.05,1.05h6.95c.58,0,1.05-.47,1.05-1.05Z"/>
    <path class="cls-6" d="M65.74,48.39h-4.46v-4.46c0-1.36-1.11-2.47-2.47-2.47h-8.53c-1.36,0-2.47,1.11-2.47,2.47v4.46h-4.46c-1.36,0-2.47,1.11-2.47,2.47v8.53c0,1.36,1.11,2.47,2.47,2.47h4.46v4.46c0,1.36,1.11,2.47,2.47,2.47h8.53c1.36,0,2.47-1.11,2.47-2.47v-4.46h4.46c1.36,0,2.47-1.11,2.47-2.47v-8.53c0-1.36-1.11-2.47-2.47-2.47ZM66.11,59.4c0,.2-.17.37-.37.37h-5.51c-.58,0-1.05.47-1.05,1.05v5.51c0,.2-.17.37-.37.37h-8.53c-.2,0-.37-.17-.37-.37v-5.51c0-.58-.47-1.05-1.05-1.05h-5.51c-.2,0-.37-.17-.37-.37v-8.53c0-.2.17-.37.37-.37h5.51c.58,0,1.05-.47,1.05-1.05v-5.51c0-.2.17-.37.37-.37h8.53c.2,0,.37.17.37.37v5.51c0,.58.47,1.05,1.05,1.05h5.51c.2,0,.37.17.37.37v8.53Z"/>
  </g>
</svg>