<?xml version="1.0" encoding="UTF-8"?>
<svg id="Layer_1" data-name="Layer 1" xmlns="http://www.w3.org/2000/svg" viewBox="0 0 366.28 305.38">
  <defs>
    <style>
      .cls-1 {
        letter-spacing: 0em;
      }

      .cls-2 {
        letter-spacing: 0em;
      }

      .cls-3 {
        letter-spacing: -.01em;
      }

      .cls-4 {
        letter-spacing: -.01em;
      }

      .cls-5 {
        letter-spacing: -.04em;
      }

      .cls-6 {
        letter-spacing: 0em;
      }

      .cls-7 {
        letter-spacing: 0em;
      }

      .cls-8 {
        fill: #fff;
      }

      .cls-9 {
        letter-spacing: -.03em;
      }

      .cls-10 {
        letter-spacing: -.04em;
      }

      .cls-11 {
        letter-spacing: 0em;
      }

      .cls-12 {
        letter-spacing: -.03em;
      }

      .cls-13 {
        letter-spacing: -.03em;
      }

      .cls-14 {
        letter-spacing: -.03em;
      }

      .cls-15 {
        letter-spacing: -.04em;
      }

      .cls-16 {
        letter-spacing: 0em;
      }

      .cls-17 {
        font-family: UrbanistRoman-Bold, Urbanist;
        font-size: 23.99px;
        font-variation-settings: 'wght' 700;
        font-weight: 700;
      }

      .cls-18 {
        letter-spacing: -.01em;
      }

      .cls-19 {
        letter-spacing: -.02em;
      }

      .cls-20 {
        letter-spacing: 0em;
      }

      .cls-21 {
        letter-spacing: -.01em;
      }

      .cls-22 {
        letter-spacing: 0em;
      }

      .cls-23 {
        letter-spacing: 0em;
      }

      .cls-24 {
        font-family: Urbanist-Regular, Urbanist;
        font-size: 18px;
        font-variation-settings: 'wght' 400;
      }

      .cls-25 {
        letter-spacing: -.02em;
      }

      .cls-26 {
        fill: #130044;
      }
    </style>
  </defs>
  <rect class="cls-26" x="0" y="0" width="366.28" height="305.38" rx="29.13" ry="29.13"/>
  <g>
    <path class="cls-8" d="M46.07,72.46c0-.64-.52-1.15-1.15-1.15h-2.31c-.64,0-1.15.52-1.15,1.15s.52,1.15,1.15,1.15h2.31c.64,0,1.15-.52,1.15-1.15Z"/>
    <path class="cls-8" d="M33.86,75.92h-.49c-1.91,0-3.46-1.55-3.46-3.46v-9.22c0-.64-.52-1.15-1.15-1.15s-1.15.52-1.15,1.15v9.22c0,3.19,2.59,5.77,5.77,5.77h.49c.64,0,1.15-.52,1.15-1.15s-.52-1.15-1.15-1.15Z"/>
    <path class="cls-8" d="M58.77,69.49c-.64,0-1.15.52-1.15,1.15v1.81c0,1.91-1.55,3.46-3.46,3.46h-9.03c-.64,0-1.15.52-1.15,1.15s.52,1.15,1.15,1.15h9.03c3.19,0,5.77-2.59,5.77-5.77v-1.81c0-.64-.52-1.15-1.15-1.15Z"/>
    <path class="cls-8" d="M58.77,49.45c-.64,0-1.15.52-1.15,1.15v11.1c0,.64.52,1.15,1.15,1.15s1.15-.52,1.15-1.15v-11.1c0-.64-.52-1.15-1.15-1.15Z"/>
    <path class="cls-8" d="M28.75,53.16c.64,0,1.15-.52,1.15-1.15v-14.19c0-1.91,1.55-3.46,3.46-3.46h.08c.64,0,1.15-.52,1.15-1.15s-.52-1.15-1.15-1.15h-.08c-3.19,0-5.77,2.59-5.77,5.77v14.19c0,.64.52,1.15,1.15,1.15Z"/>
    <path class="cls-8" d="M54.15,32.04h-9.17c-.64,0-1.15.52-1.15,1.15s.52,1.15,1.15,1.15h2.68l-1.15,2.31h-5.5l-.09-.19c-.32-.51-.96-.71-1.51-.44-.56.28-.78.94-.55,1.5l.4.8c.2.39.6.64,1.03.64h6.93c.44,0,.84-.25,1.03-.64l1.99-3.98h3.91c1.91,0,3.46,1.55,3.46,3.46v2.28c0,.64.52,1.15,1.15,1.15s1.15-.52,1.15-1.15v-2.28c0-3.19-2.59-5.77-5.77-5.77Z"/>
  </g>
  <text class="cls-8" transform="translate(27.59 119.7)"><tspan class="cls-17"><tspan class="cls-19" x="0" y="0">Q</tspan><tspan class="cls-1" x="18.49" y="0">u</tspan><tspan class="cls-25" x="31.22" y="0">e</tspan><tspan class="cls-4" x="44.18" y="0">b</tspan><tspan class="cls-15" x="58.78" y="0">r</tspan><tspan x="67.12" y="0">a</tspan></tspan><tspan class="cls-24"><tspan class="cls-22" x="0" y="43.2">Q</tspan><tspan class="cls-20" x="13.86" y="43.2">u</tspan><tspan x="23.08" y="43.2">a</tspan><tspan class="cls-16" x="33.54" y="43.2">n</tspan><tspan class="cls-20" x="43.01" y="43.2">d</tspan><tspan x="53.77" y="43.2">o o </tspan><tspan class="cls-22" x="82.57" y="43.2">c</tspan><tspan class="cls-2" x="91.63" y="43.2">e</tspan><tspan x="101.53" y="43.2">l</tspan><tspan class="cls-7" x="104.95" y="43.2">u</tspan><tspan class="cls-20" x="114.35" y="43.2">l</tspan><tspan x="117.71" y="43.2">ar é </tspan><tspan class="cls-20" x="153.3" y="43.2">l</tspan><tspan class="cls-12" x="156.65" y="43.2">ev</tspan><tspan class="cls-16" x="175" y="43.2">a</tspan><tspan class="cls-20" x="185.28" y="43.2">d</tspan><tspan x="196.05" y="43.2">o </tspan></tspan><tspan class="cls-24"><tspan class="cls-16" x="0" y="64.8">me</tspan><tspan x="25.69" y="64.8">d</tspan><tspan class="cls-6" x="36.51" y="64.8">i</tspan><tspan x="39.84" y="64.8">an</tspan><tspan class="cls-18" x="59.95" y="64.8">t</tspan><tspan x="65.92" y="64.8">e a</tspan><tspan class="cls-21" x="90.75" y="64.8">mea</tspan><tspan class="cls-22" x="126.71" y="64.8">ç</tspan><tspan x="135.76" y="64.8">a </tspan><tspan class="cls-20" x="150.54" y="64.8">fí</tspan><tspan class="cls-6" x="159.84" y="64.8">si</tspan><tspan class="cls-22" x="170.81" y="64.8">c</tspan><tspan x="179.86" y="64.8">a e </tspan><tspan class="cls-13" x="209.01" y="64.8">v</tspan><tspan class="cls-6" x="217.79" y="64.8">e</tspan><tspan class="cls-3" x="227.75" y="64.8">r</tspan><tspan class="cls-16" x="233.98" y="64.8">b</tspan><tspan class="cls-11" x="244.63" y="64.8">a</tspan><tspan x="255.2" y="64.8">l </tspan></tspan><tspan class="cls-24"><tspan class="cls-16" x="0" y="86.4">o</tspan><tspan x="9.9" y="86.4">u u</tspan><tspan class="cls-20" x="32.8" y="86.4">s</tspan><tspan x="40.46" y="86.4">o </tspan><tspan class="cls-20" x="54.86" y="86.4">d</tspan><tspan x="65.63" y="86.4">e </tspan><tspan class="cls-3" x="80" y="86.4">f</tspan><tspan class="cls-6" x="85.8" y="86.4">o</tspan><tspan class="cls-14" x="95.79" y="86.4">r</tspan><tspan class="cls-22" x="101.62" y="86.4">ç</tspan><tspan x="110.67" y="86.4">a </tspan><tspan class="cls-6" x="125.45" y="86.4">b</tspan><tspan class="cls-21" x="136.19" y="86.4">r</tspan><tspan x="142.44" y="86.4">u</tspan><tspan class="cls-18" x="151.73" y="86.4">t</tspan><tspan x="157.7" y="86.4">a, </tspan><tspan class="cls-16" x="176.09" y="86.4">p</tspan><tspan class="cls-6" x="186.73" y="86.4">o</tspan><tspan x="196.72" y="86.4">r </tspan></tspan><tspan class="cls-24"><tspan class="cls-5" x="0" y="108">e</tspan><tspan class="cls-10" x="9.33" y="108">x</tspan><tspan class="cls-6" x="18.26" y="108">e</tspan><tspan x="28.22" y="108">m</tspan><tspan class="cls-23" x="44.22" y="108">p</tspan><tspan class="cls-20" x="54.88" y="108">l</tspan><tspan class="cls-16" x="58.24" y="108">o</tspan><tspan x="68.14" y="108">, </tspan><tspan class="cls-20" x="76.08" y="108">s</tspan><tspan class="cls-6" x="83.74" y="108">e</tspan><tspan x="93.71" y="108">r </tspan></tspan><tspan class="cls-24"><tspan class="cls-11" x="0" y="129.6">a</tspan><tspan class="cls-16" x="10.57" y="129.6">b</tspan><tspan class="cls-6" x="21.22" y="129.6">o</tspan><tspan class="cls-9" x="31.21" y="129.6">r</tspan><tspan class="cls-20" x="37.04" y="129.6">d</tspan><tspan class="cls-16" x="47.81" y="129.6">a</tspan><tspan class="cls-20" x="58.09" y="129.6">d</tspan><tspan x="68.85" y="129.6">o/a</tspan><tspan class="cls-21" x="95.73" y="129.6">mea</tspan><tspan class="cls-22" x="131.7" y="129.6">ç</tspan><tspan class="cls-21" x="140.75" y="129.6">a</tspan><tspan class="cls-20" x="151.03" y="129.6">d</tspan><tspan x="161.79" y="129.6">o </tspan><tspan class="cls-16" x="176.19" y="129.6">p</tspan><tspan class="cls-23" x="186.83" y="129.6">e</tspan><tspan class="cls-20" x="196.73" y="129.6">l</tspan><tspan x="200.09" y="129.6">o </tspan></tspan><tspan class="cls-24"><tspan x="0" y="151.2">as</tspan><tspan class="cls-20" x="18.19" y="151.2">s</tspan><tspan class="cls-11" x="25.86" y="151.2">a</tspan><tspan x="36.43" y="151.2">l</tspan><tspan class="cls-18" x="39.85" y="151.2">t</tspan><tspan x="45.82" y="151.2">an</tspan><tspan class="cls-18" x="65.92" y="151.2">t</tspan><tspan x="71.89" y="151.2">e </tspan><tspan class="cls-22" x="86.26" y="151.2">q</tspan><tspan class="cls-20" x="96.97" y="151.2">u</tspan><tspan x="106.19" y="151.2">e </tspan><tspan class="cls-20" x="120.56" y="151.2">l</tspan><tspan class="cls-13" x="123.92" y="151.2">ev</tspan><tspan x="142.27" y="151.2">a o </tspan><tspan class="cls-20" x="171.45" y="151.2">s</tspan><tspan class="cls-16" x="179.12" y="151.2">e</tspan><tspan x="188.99" y="151.2">u </tspan><tspan class="cls-22" x="202.6" y="151.2">c</tspan><tspan class="cls-2" x="211.65" y="151.2">e</tspan><tspan x="221.55" y="151.2">l</tspan><tspan class="cls-7" x="224.97" y="151.2">u</tspan><tspan class="cls-20" x="234.38" y="151.2">l</tspan><tspan x="237.73" y="151.2">a</tspan><tspan class="cls-9" x="248.19" y="151.2">r</tspan><tspan x="254.02" y="151.2">.</tspan></tspan></text>
</svg>