<?xml version="1.0" encoding="UTF-8"?>
<svg id="Layer_1" data-name="Layer 1" xmlns="http://www.w3.org/2000/svg" viewBox="0 0 366.28 305.38">
  <defs>
    <style>
      .cls-1 {
        letter-spacing: 0em;
      }

      .cls-2 {
        letter-spacing: 0em;
      }

      .cls-3 {
        letter-spacing: 0em;
      }

      .cls-4 {
        letter-spacing: -.01em;
      }

      .cls-5 {
        letter-spacing: 0em;
      }

      .cls-6 {
        letter-spacing: -.04em;
      }

      .cls-7 {
        letter-spacing: 0em;
      }

      .cls-8 {
        fill: #fff;
      }

      .cls-9 {
        letter-spacing: 0em;
      }

      .cls-10 {
        letter-spacing: -.03em;
      }

      .cls-11 {
        letter-spacing: 0em;
      }

      .cls-12 {
        letter-spacing: 0em;
      }

      .cls-13 {
        letter-spacing: -.01em;
      }

      .cls-14 {
        letter-spacing: -.03em;
      }

      .cls-15 {
        font-family: UrbanistRoman-Bold, Urbanist;
        font-size: 23.99px;
        font-variation-settings: 'wght' 700;
        font-weight: 700;
      }

      .cls-16 {
        letter-spacing: -.03em;
      }

      .cls-17 {
        letter-spacing: -.02em;
      }

      .cls-18 {
        letter-spacing: 0em;
      }

      .cls-19 {
        letter-spacing: -.04em;
      }

      .cls-20 {
        letter-spacing: 0em;
      }

      .cls-21 {
        letter-spacing: 0em;
      }

      .cls-22 {
        letter-spacing: -.01em;
      }

      .cls-23 {
        letter-spacing: 0em;
      }

      .cls-24 {
        letter-spacing: .01em;
      }

      .cls-25 {
        letter-spacing: -.01em;
      }

      .cls-26 {
        letter-spacing: 0em;
      }

      .cls-27 {
        letter-spacing: 0em;
      }

      .cls-28 {
        letter-spacing: 0em;
      }

      .cls-29 {
        font-family: Urbanist-Regular, Urbanist;
        font-size: 18px;
        font-variation-settings: 'wght' 400;
      }

      .cls-30 {
        fill: #130044;
      }

      .cls-31 {
        letter-spacing: -.01em;
      }
    </style>
  </defs>
  <rect class="cls-30" x="0" y="0" width="366.28" height="305.38" rx="29.13" ry="29.13"/>
  <g>
    <path class="cls-8" d="M52.71,56.34v-.8c0-.45-.36-.81-.81-.81s-.81.36-.81.81v.8c-.89.18-1.69.66-2.28,1.35-1.05,1.24-.81,3.13.48,4.13l1.81,1.41v4.42c-.94-.33-1.62-1.23-1.62-2.29,0-.45-.36-.81-.81-.81s-.81.36-.81.81c0,1.96,1.39,3.6,3.24,3.97v.71c0,.45.36.81.81.81s.81-.36.81-.81v-.71c.89-.18,1.69-.66,2.28-1.35,1.05-1.24.81-3.13-.48-4.13l-1.81-1.41v-4.42c.94.33,1.62,1.23,1.62,2.29,0,.45.36.81.81.81s.81-.36.81-.81c0-1.96-1.39-3.6-3.24-3.97ZM53.53,65.12c.57.45.68,1.28.24,1.8-.28.33-.64.58-1.05.72v-3.16l.81.63ZM50.28,60.55c-.57-.45-.68-1.28-.24-1.8.28-.33.64-.58,1.05-.72v3.16l-.81-.63Z"/>
    <path class="cls-8" d="M73.78,48.25h-5.88c-1.03-1.47-2.73-2.43-4.65-2.43s-3.63.96-4.65,2.43h-2.64v-6.48h3.24c.7,0,1.07-.83.6-1.35l-7.29-8.1c-.32-.36-.88-.36-1.2,0l-7.29,8.1c-.47.52-.1,1.35.6,1.35h3.24v6.48h-19.45c-.45,0-.81.36-.81.81v28.36c0,.45.36.81.81.81h45.38c.45,0,.81-.36.81-.81v-28.36c0-.45-.36-.81-.81-.81ZM40.49,70.03s0,.04-.01.06c-.03.15-.07.31-.12.46,0,.01,0,.02-.01.04-.02.06-.04.12-.07.18,0,.02-.01.04-.02.05-.02.06-.05.11-.07.17,0,.02-.01.03-.02.05-.07.14-.14.28-.22.41,0,.01-.02.03-.02.04-.03.05-.07.1-.1.15-.01.02-.02.03-.03.05-.04.05-.07.1-.11.15,0,.01-.02.02-.02.03-.1.12-.21.24-.32.35,0,0,0,0-.01.01-.06.05-.11.11-.17.16,0,0,0,0,0,0-.13.11-.26.21-.4.3,0,0,0,0-.01,0-.64.42-1.4.67-2.23.67-2.24,0-4.05-1.81-4.05-4.05,0-.82.25-1.59.67-2.23,0,0,0,0,0,0,.09-.14.19-.27.3-.4,0,0,0,0,0,0,.05-.06.1-.12.16-.17,0,0,0,0,.01-.01.11-.11.23-.22.35-.32.01,0,.02-.02.03-.03.05-.04.1-.07.15-.11.02-.01.03-.02.05-.04.05-.03.1-.07.15-.1.02,0,.03-.02.05-.03.07-.04.13-.08.2-.12,0,0,0,0,0,0,.06-.03.13-.07.19-.1.02,0,.04-.02.06-.03.05-.02.1-.05.16-.07.02,0,.04-.02.06-.02.06-.02.11-.04.17-.06.01,0,.03-.01.04-.01.08-.02.15-.05.23-.07,0,0,0,0,0,0,.07-.02.15-.03.22-.05.02,0,.04,0,.06-.01.06,0,.11-.02.17-.03.02,0,.05,0,.07,0,.06,0,.11-.01.17-.02.02,0,.05,0,.07,0,.08,0,.16,0,.24,0,2.24,0,4.05,1.81,4.05,4.05,0,.08,0,.16,0,.24,0,.02,0,.05,0,.07,0,.06,0,.11-.02.17,0,.02,0,.05,0,.07,0,.06-.02.11-.03.17ZM41.18,72.53s.04-.06.06-.1c.02-.04.05-.07.07-.11.02-.03.04-.07.06-.1.02-.04.05-.08.07-.12.03-.06.06-.11.09-.17.02-.04.04-.08.06-.12.02-.04.04-.08.06-.12.02-.03.03-.07.05-.1.02-.04.04-.08.05-.12.01-.03.03-.07.04-.1.02-.04.03-.08.05-.13.02-.07.05-.14.07-.2.01-.04.03-.08.04-.13.01-.04.02-.08.03-.11.01-.04.02-.08.03-.13.01-.04.02-.08.03-.12,0-.04.02-.08.03-.12.01-.07.03-.14.04-.21,0-.03,0-.06.01-.09,0-.06.02-.12.02-.18,0-.03,0-.06,0-.1,0-.06,0-.12.01-.18,0-.03,0-.06,0-.08,0-.09,0-.17,0-.26,0-3.13-2.54-5.67-5.67-5.67-.09,0-.18,0-.26,0-.03,0-.06,0-.08,0-.06,0-.12,0-.18.01-.03,0-.06,0-.09,0-.06,0-.12.01-.19.02-.03,0-.05,0-.08.01-.08.01-.15.03-.23.04-.04,0-.07.02-.11.02-.04,0-.09.02-.13.03-.04,0-.08.02-.12.03-.04.01-.08.02-.12.04-.04.01-.08.02-.12.03-.07.02-.14.05-.21.07-.04.01-.08.03-.11.04-.04.01-.08.03-.12.05-.04.02-.08.03-.12.05-.04.02-.08.03-.11.05-.04.02-.07.03-.11.05-.05.02-.1.05-.15.08-.04.02-.09.05-.13.07-.05.03-.09.05-.14.08-.03.02-.06.04-.09.06-.04.02-.08.05-.12.08-.03.02-.06.04-.09.06-.01,0-.02.01-.03.02v-6.71c2.59-.2,4.65-2.26,4.85-4.85h19.7c.3,1,.87,1.89,1.62,2.58.44.4.94.72,1.48.97.09.04.18.08.27.11.01,0,.03.01.04.01.06.02.11.04.17.06.02,0,.04.01.07.02.05.02.11.04.16.05.03,0,.05.01.08.02.05.02.11.03.16.04.02,0,.03,0,.05.01.1.02.19.04.29.06.05,0,.09.02.14.02.04,0,.08.01.12.02.05,0,.1.01.15.02.04,0,.07,0,.11.01.06,0,.12,0,.17.01.03,0,.06,0,.09,0,.09,0,.18,0,.27,0h0c.11,0,.21,0,.31,0,.03,0,.05,0,.08,0,.08,0,.16-.01.23-.02.03,0,.06,0,.09-.01.08,0,.16-.02.23-.03.02,0,.05,0,.07-.01.08-.02.17-.03.25-.05.02,0,.03,0,.05-.01.42-.1.82-.24,1.19-.43.86.8,1.97,1.29,3.16,1.38v9.76c-2.59.2-4.65,2.26-4.85,4.85h-22.91s.01-.02.02-.03ZM63.25,47.44c1.48,0,2.78.79,3.48,1.98,0,.02.01.03.02.05.26.45.44.95.51,1.47,0,.02,0,.04,0,.06,0,.06.01.12.02.18,0,.03,0,.05,0,.08,0,.07,0,.13,0,.2,0,.01,0,.03,0,.04,0,1.4-.71,2.64-1.8,3.37-.02,0-.03.02-.05.03-.29.19-.59.34-.91.45,0,0,0,0,0,0-.12.04-.25.08-.37.11-.02,0-.05.01-.07.02-.03,0-.06.01-.09.02-.03,0-.07.01-.1.02-.02,0-.05,0-.07.01-.06,0-.11.02-.17.02-.02,0-.04,0-.05,0-.05,0-.09,0-.14.01-.02,0-.04,0-.06,0-.06,0-.12,0-.18,0-.07,0-.13,0-.2,0-.02,0-.05,0-.07,0-.04,0-.08,0-.12,0-.03,0-.06,0-.09-.01-.03,0-.07,0-.1-.01-.03,0-.07-.01-.1-.02-.03,0-.05,0-.08-.01-.04,0-.07-.01-.11-.02-.02,0-.04,0-.06-.01-.04,0-.08-.02-.12-.03-.01,0-.03,0-.04-.01-.05-.01-.09-.03-.14-.04,0,0,0,0,0,0-1.41-.46-2.49-1.67-2.74-3.18,0-.03-.01-.05-.02-.08-.03-.2-.04-.4-.04-.6,0-.08,0-.17,0-.25,0-.01,0-.03,0-.04,0-.07.01-.15.02-.22,0,0,0-.02,0-.03.07-.52.24-1.02.51-1.48,0-.01.01-.03.02-.04.71-1.19,2-1.98,3.48-1.98ZM48.66,40.14h-2.23l5.47-6.08,5.47,6.08h-2.23c-.45,0-.81.36-.81.81v7.29h-4.86v-7.29c0-.45-.36-.81-.81-.81ZM72.97,76.61H29.21v-26.74h28.6c-.06.19-.1.38-.14.58,0,.01,0,.03,0,.04-.02.1-.03.2-.05.31,0,.02,0,.05,0,.07,0,.04,0,.08-.01.12,0,.05,0,.09-.01.14,0,.04,0,.07,0,.11,0,.07,0,.13,0,.2,0,.02,0,.03,0,.05h-20.28c-.48,0-.85.41-.81.88.01.12.02.23.02.33,0,2.01-1.63,3.65-3.65,3.65-.1,0-.2,0-.34-.02-.47-.04-.88.33-.88.81v9.25c-.51.85-.81,1.85-.81,2.92,0,3.13,2.54,5.67,5.67,5.67,1.07,0,2.07-.3,2.92-.81h25.46c.47,0,.85-.41.81-.88-.01-.14-.02-.24-.02-.34,0-2.01,1.63-3.65,3.65-3.65.1,0,.2,0,.34.02.47.04.88-.33.88-.81v-11.39c0-.47-.41-.85-.88-.81-.14.01-.24.02-.34.02-.81,0-1.57-.26-2.19-.73,1.1-1.03,1.79-2.5,1.79-4.13,0-.09,0-.18,0-.27,0-.02,0-.04,0-.06,0-.07,0-.14-.02-.21,0-.02,0-.05,0-.07,0-.08-.02-.15-.03-.23,0-.04-.01-.09-.02-.13,0-.03-.01-.06-.02-.09-.01-.06-.02-.11-.03-.17,0,0,0,0,0,0-.03-.13-.06-.26-.1-.39h4.29v26.74h0Z"/>
  </g>
  <text class="cls-8" transform="translate(27.59 119.7)"><tspan class="cls-15"><tspan class="cls-6" x="0" y="0">P</tspan><tspan class="cls-13" x="12.22" y="0">o</tspan><tspan x="25.38" y="0">r</tspan><tspan class="cls-31" x="34.61" y="0">t</tspan><tspan class="cls-11" x="42.94" y="0">a</tspan><tspan class="cls-17" x="57.36" y="0">b</tspan><tspan class="cls-1" x="71.68" y="0">i</tspan><tspan x="77.51" y="0">l</tspan><tspan class="cls-13" x="83.32" y="0">i</tspan><tspan class="cls-2" x="88.85" y="0">d</tspan><tspan class="cls-18" x="103.54" y="0">a</tspan><tspan class="cls-2" x="117.67" y="0">d</tspan><tspan x="132.36" y="0">e g</tspan><tspan class="cls-19" x="166.24" y="0">r</tspan><tspan x="174.57" y="0">atui</tspan><tspan class="cls-31" x="216.24" y="0">t</tspan><tspan x="224.56" y="0">a</tspan></tspan><tspan class="cls-29"><tspan class="cls-26" x="0" y="43.2">S</tspan><tspan x="10.86" y="43.2">e o </tspan><tspan class="cls-9" x="39.64" y="43.2">i</tspan><tspan class="cls-25" x="43.03" y="43.2">n</tspan><tspan class="cls-16" x="52.5" y="43.2">v</tspan><tspan class="cls-23" x="61.27" y="43.2">e</tspan><tspan x="71.26" y="43.2">s</tspan><tspan class="cls-23" x="78.99" y="43.2">t</tspan><tspan class="cls-7" x="85.14" y="43.2">i</tspan><tspan class="cls-5" x="88.47" y="43.2">d</tspan><tspan class="cls-7" x="99.23" y="43.2">o</tspan><tspan x="109.22" y="43.2">r </tspan><tspan class="cls-23" x="119.98" y="43.2">e</tspan><tspan x="129.97" y="43.2">s</tspan><tspan class="cls-23" x="137.7" y="43.2">t</tspan><tspan class="cls-26" x="143.85" y="43.2">i</tspan><tspan class="cls-14" x="147.15" y="43.2">v</tspan><tspan class="cls-7" x="155.92" y="43.2">e</tspan><tspan x="165.89" y="43.2">r </tspan><tspan class="cls-9" x="176.64" y="43.2">i</tspan><tspan x="180.04" y="43.2">n</tspan><tspan class="cls-5" x="189.68" y="43.2">s</tspan><tspan x="197.35" y="43.2">a</tspan><tspan class="cls-23" x="207.81" y="43.2">ti</tspan><tspan x="217.31" y="43.2">s</tspan><tspan class="cls-4" x="225.04" y="43.2">f</tspan><tspan class="cls-20" x="230.84" y="43.2">e</tspan><tspan x="240.71" y="43.2">i</tspan><tspan class="cls-22" x="244.13" y="43.2">t</tspan><tspan class="cls-25" x="250.1" y="43.2">o</tspan><tspan x="260" y="43.2">, </tspan></tspan><tspan class="cls-29"><tspan class="cls-20" x="0" y="64.8">po</tspan><tspan class="cls-23" x="20.54" y="64.8">d</tspan><tspan x="31.3" y="64.8">e </tspan><tspan class="cls-20" x="45.67" y="64.8">pe</tspan><tspan x="66.19" y="64.8">d</tspan><tspan class="cls-9" x="77.01" y="64.8">i</tspan><tspan x="80.4" y="64.8">r a </tspan><tspan class="cls-20" x="105.94" y="64.8">p</tspan><tspan class="cls-7" x="116.58" y="64.8">o</tspan><tspan x="126.57" y="64.8">r</tspan><tspan class="cls-22" x="133" y="64.8">t</tspan><tspan class="cls-12" x="138.97" y="64.8">a</tspan><tspan class="cls-25" x="149.54" y="64.8">b</tspan><tspan class="cls-21" x="160.19" y="64.8">i</tspan><tspan x="163.67" y="64.8">l</tspan><tspan class="cls-7" x="167.09" y="64.8">i</tspan><tspan class="cls-23" x="170.42" y="64.8">d</tspan><tspan class="cls-20" x="181.19" y="64.8">a</tspan><tspan class="cls-23" x="191.46" y="64.8">d</tspan><tspan x="202.23" y="64.8">e </tspan><tspan class="cls-23" x="216.6" y="64.8">d</tspan><tspan x="227.36" y="64.8">e </tspan></tspan><tspan class="cls-29"><tspan class="cls-27" x="0" y="86.4">p</tspan><tspan class="cls-23" x="10.67" y="86.4">l</tspan><tspan x="14.02" y="86.4">a</tspan><tspan class="cls-25" x="24.48" y="86.4">n</tspan><tspan x="33.95" y="86.4">o e m</tspan><tspan class="cls-7" x="78.71" y="86.4">i</tspan><tspan class="cls-28" x="82.04" y="86.4">g</tspan><tspan class="cls-10" x="92.62" y="86.4">r</tspan><tspan x="98.45" y="86.4">ar </tspan><tspan class="cls-23" x="119.66" y="86.4">o</tspan><tspan x="129.68" y="86.4">s </tspan><tspan class="cls-10" x="141.73" y="86.4">r</tspan><tspan class="cls-20" x="147.56" y="86.4">e</tspan><tspan class="cls-7" x="157.44" y="86.4">c</tspan><tspan x="166.52" y="86.4">u</tspan><tspan class="cls-26" x="175.81" y="86.4">r</tspan><tspan class="cls-23" x="182.12" y="86.4">so</tspan><tspan x="199.81" y="86.4">s </tspan><tspan class="cls-20" x="211.86" y="86.4">p</tspan><tspan x="222.5" y="86.4">a</tspan><tspan class="cls-10" x="232.96" y="86.4">r</tspan><tspan x="238.79" y="86.4">a </tspan></tspan><tspan class="cls-29"><tspan class="cls-20" x="0" y="108">o</tspan><tspan x="9.9" y="108">ut</tspan><tspan class="cls-10" x="25.4" y="108">r</tspan><tspan x="31.23" y="108">o </tspan><tspan class="cls-24" x="45.63" y="108">f</tspan><tspan x="51.88" y="108">u</tspan><tspan class="cls-20" x="61.16" y="108">n</tspan><tspan class="cls-23" x="70.63" y="108">d</tspan><tspan x="81.4" y="108">o </tspan><tspan class="cls-23" x="95.8" y="108">d</tspan><tspan x="106.56" y="108">e </tspan><tspan class="cls-7" x="120.93" y="108">p</tspan><tspan class="cls-10" x="131.66" y="108">r</tspan><tspan class="cls-16" x="137.49" y="108">e</tspan><tspan class="cls-26" x="147.07" y="108">v</tspan><tspan class="cls-7" x="156.2" y="108">i</tspan><tspan class="cls-23" x="159.53" y="108">d</tspan><tspan class="cls-7" x="170.3" y="108">ê</tspan><tspan class="cls-20" x="180.26" y="108">n</tspan><tspan class="cls-3" x="189.73" y="108">c</tspan><tspan class="cls-7" x="198.75" y="108">i</tspan><tspan x="202.08" y="108">a </tspan><tspan class="cls-23" x="216.85" y="108">s</tspan><tspan class="cls-7" x="224.52" y="108">e</tspan><tspan x="234.49" y="108">m </tspan></tspan><tspan class="cls-29"><tspan class="cls-7" x="0" y="129.6">p</tspan><tspan class="cls-10" x="10.73" y="129.6">r</tspan><tspan class="cls-20" x="16.56" y="129.6">e</tspan><tspan class="cls-27" x="26.43" y="129.6">c</tspan><tspan class="cls-23" x="35.45" y="129.6">is</tspan><tspan x="46.48" y="129.6">ar </tspan><tspan class="cls-20" x="67.69" y="129.6">pe</tspan><tspan x="88.2" y="129.6">d</tspan><tspan class="cls-9" x="99.03" y="129.6">i</tspan><tspan x="102.42" y="129.6">r o </tspan><tspan class="cls-10" x="127.57" y="129.6">r</tspan><tspan class="cls-5" x="133.41" y="129.6">es</tspan><tspan class="cls-7" x="151.06" y="129.6">g</tspan><tspan x="161.55" y="129.6">a</tspan><tspan class="cls-22" x="172.01" y="129.6">t</tspan><tspan class="cls-25" x="177.97" y="129.6">e</tspan><tspan x="187.85" y="129.6">. </tspan></tspan></text>
</svg>