<?xml version="1.0" encoding="UTF-8"?>
<svg id="Layer_1" data-name="Layer 1" xmlns="http://www.w3.org/2000/svg" viewBox="0 0 366.28 305.38">
  <defs>
    <style>
      .cls-1 {
        letter-spacing: 0em;
      }

      .cls-2 {
        letter-spacing: 0em;
      }

      .cls-3 {
        letter-spacing: 0em;
      }

      .cls-4 {
        letter-spacing: 0em;
      }

      .cls-5 {
        letter-spacing: -.01em;
      }

      .cls-6 {
        letter-spacing: -.02em;
      }

      .cls-7 {
        font-family: UrbanistRoman-Bold, Urbanist;
        font-size: 23.99px;
        font-variation-settings: 'wght' 700;
        font-weight: 700;
      }

      .cls-7, .cls-8 {
        fill: #130044;
      }

      .cls-9 {
        letter-spacing: -.02em;
      }

      .cls-10 {
        letter-spacing: -.01em;
      }
    </style>
  </defs>
  <path class="cls-8" d="M337.15,8.99c11.1,0,20.14,9.03,20.14,20.14v247.12c0,11.1-9.03,20.14-20.14,20.14H29.13c-11.1,0-20.14-9.03-20.14-20.14V29.13c0-11.1,9.03-20.14,20.14-20.14h308.02M337.15,0H29.13C13.11,0,0,13.11,0,29.13v247.12c0,16.02,13.11,29.13,29.13,29.13h308.02c16.02,0,29.13-13.11,29.13-29.13V29.13C366.28,13.11,353.18,0,337.15,0h0Z"/>
  <text class="cls-7" transform="translate(27.59 269.55)"><tspan class="cls-5" x="0" y="0">S</tspan><tspan class="cls-1" x="14.7" y="0">u</tspan><tspan class="cls-6" x="27.43" y="0">c</tspan><tspan class="cls-1" x="39.29" y="0">e</tspan><tspan x="52.53" y="0">s</tspan><tspan class="cls-1" x="62.95" y="0">s</tspan><tspan class="cls-2" x="73.19" y="0">ã</tspan><tspan x="87.32" y="0">o </tspan><tspan class="cls-10" x="106.51" y="0">p</tspan><tspan x="121.12" y="0">at</tspan><tspan class="cls-9" x="144.08" y="0">r</tspan><tspan class="cls-3" x="152.94" y="0">i</tspan><tspan class="cls-10" x="158.65" y="0">m</tspan><tspan class="cls-5" x="179.72" y="0">o</tspan><tspan x="192.88" y="0">n</tspan><tspan class="cls-5" x="206.26" y="0">i</tspan><tspan class="cls-4" x="211.79" y="0">a</tspan><tspan x="226.22" y="0">l</tspan></text>
  <polygon class="cls-8" points="338.69 262.6 330.04 262.6 330.04 253.95 324.38 253.95 324.38 262.6 315.73 262.6 315.73 268.27 324.38 268.27 324.38 276.92 330.04 276.92 330.04 268.27 338.69 268.27 338.69 262.6"/>
  <path class="cls-8" d="M72.29,78.23h-12.96c-.83,0-1.5-.67-1.5-1.5s.67-1.5,1.5-1.5h11.46v-1.38c0-.83.67-1.5,1.5-1.5s1.5.67,1.5,1.5v2.88c0,.83-.67,1.5-1.5,1.5ZM44.93,78.23c-9.56,0-17.34-7.78-17.34-17.34s7.78-17.34,17.34-17.34,17.34,7.78,17.34,17.34-7.78,17.34-17.34,17.34ZM44.93,46.55c-7.91,0-14.34,6.43-14.34,14.34s6.43,14.34,14.34,14.34,14.34-6.43,14.34-14.34-6.43-14.34-14.34-14.34ZM44.93,72.47c-.83,0-1.5-.67-1.5-1.5v-.14c-2.48-.66-4.32-2.93-4.32-5.62,0-.83.67-1.5,1.5-1.5s1.5.67,1.5,1.5c0,1.56,1.27,2.82,2.82,2.82s2.82-1.27,2.82-2.82-1.27-2.82-2.82-2.82c-3.21,0-5.82-2.61-5.82-5.82,0-2.69,1.84-4.96,4.32-5.62v-.14c0-.83.67-1.5,1.5-1.5s1.5.67,1.5,1.5v.14c2.48.66,4.32,2.93,4.32,5.62,0,.83-.67,1.5-1.5,1.5s-1.5-.67-1.5-1.5c0-1.56-1.27-2.82-2.82-2.82s-2.82,1.27-2.82,2.82,1.27,2.82,2.82,2.82c3.21,0,5.82,2.61,5.82,5.82,0,2.69-1.84,4.96-4.32,5.62v.14c0,.83-.67,1.5-1.5,1.5ZM72.29,71.03h-8.64c-.83,0-1.5-.67-1.5-1.5s.67-1.5,1.5-1.5h7.14v-1.38c0-.83.67-1.5,1.5-1.5s1.5.67,1.5,1.5v2.88c0,.83-.67,1.5-1.5,1.5ZM72.29,63.83h-7.2c-.83,0-1.5-.67-1.5-1.5s.67-1.5,1.5-1.5h5.7v-1.38c0-.83.67-1.5,1.5-1.5s1.5.67,1.5,1.5v2.88c0,.83-.67,1.5-1.5,1.5ZM72.29,56.63h-7.2c-.83,0-1.5-.67-1.5-1.5s.67-1.5,1.5-1.5h5.7v-1.38c0-.83.67-1.5,1.5-1.5s1.5.67,1.5,1.5v2.88c0,.83-.67,1.5-1.5,1.5ZM72.29,49.43h-11.52c-.83,0-1.5-.67-1.5-1.5s.67-1.5,1.5-1.5h10.02v-1.38c0-.83.67-1.5,1.5-1.5s1.5.67,1.5,1.5v2.88c0,.83-.67,1.5-1.5,1.5ZM72.29,42.23h-30.24c-.83,0-1.5-.67-1.5-1.5s.67-1.5,1.5-1.5h28.74v-4.21h-31.57v5.7c0,.83-.67,1.5-1.5,1.5s-1.5-.67-1.5-1.5v-7.2c0-.83.67-1.5,1.5-1.5h34.56c.83,0,1.5.67,1.5,1.5v7.2c0,.83-.67,1.5-1.5,1.5Z"/>
</svg>