<?xml version="1.0" encoding="UTF-8"?>
<svg id="Layer_1" data-name="Layer 1" xmlns="http://www.w3.org/2000/svg" viewBox="0 0 366.28 305.38">
  <defs>
    <style>
      .cls-1 {
        letter-spacing: 0em;
      }

      .cls-2 {
        letter-spacing: 0em;
      }

      .cls-3 {
        letter-spacing: -.01em;
      }

      .cls-4 {
        letter-spacing: -.04em;
      }

      .cls-5 {
        font-family: UrbanistRoman-Bold, Urbanist;
        font-size: 23.99px;
        font-variation-settings: 'wght' 700;
        font-weight: 700;
      }

      .cls-5, .cls-6 {
        fill: #130044;
      }

      .cls-7 {
        letter-spacing: -.02em;
      }

      .cls-8 {
        letter-spacing: -.01em;
      }

      .cls-9 {
        letter-spacing: 0em;
      }

      .cls-10 {
        letter-spacing: -.01em;
      }

      .cls-11 {
        letter-spacing: 0em;
      }
    </style>
  </defs>
  <path class="cls-6" d="M337.15,9c11.1,0,20.14,9.03,20.14,20.14v247.12c0,11.1-9.03,20.13-20.14,20.13H29.13c-11.1,0-20.13-9.03-20.13-20.13V29.13c0-11.1,9.03-20.14,20.13-20.14h308.02M337.15,0H29.13C13.11,0,0,13.11,0,29.13v247.12c0,16.02,13.11,29.13,29.13,29.13h308.02c16.02,0,29.13-13.11,29.13-29.13V29.13c0-16.02-13.11-29.13-29.13-29.13h0Z"/>
  <text class="cls-5" transform="translate(27.59 274.19)"><tspan class="cls-4" x="0" y="0">A</tspan><tspan class="cls-10" x="16.54" y="0">t</tspan><tspan x="24.86" y="0">o </tspan><tspan class="cls-1" x="44.05" y="0">d</tspan><tspan x="58.74" y="0">o </tspan><tspan class="cls-2" x="77.93" y="0">b</tspan><tspan class="cls-3" x="92.56" y="0">o</tspan><tspan x="105.72" y="0">m </tspan><tspan class="cls-11" x="132.79" y="0">s</tspan><tspan class="cls-9" x="143.03" y="0">a</tspan><tspan class="cls-8" x="157.4" y="0">m</tspan><tspan x="178.47" y="0">a</tspan><tspan class="cls-7" x="192.84" y="0">r</tspan><tspan x="201.7" y="0">i</tspan><tspan class="cls-10" x="207.51" y="0">t</tspan><tspan x="215.83" y="0">a</tspan><tspan class="cls-8" x="230.2" y="0">n</tspan><tspan x="243.34" y="0">o</tspan></text>
  <polygon class="cls-6" points="338.69 262.6 330.04 262.6 330.04 253.95 324.38 253.95 324.38 262.6 315.73 262.6 315.73 268.27 324.38 268.27 324.38 276.92 330.04 276.92 330.04 268.27 338.69 268.27 338.69 262.6"/>
  <path class="cls-6" d="M75.62,35.87c-2.63-2.63-6.26-4.02-9.98-3.81-3.71.21-7.17,1.99-9.49,4.89l-2.62,3.28-2.63-3.28c-2.32-2.9-5.78-4.68-9.49-4.89-3.73-.21-7.35,1.18-9.97,3.81-4.95,4.95-5.14,12.88-.43,18.05l21.81,23.99c.18.2.44.31.71.31s.53-.11.71-.31l21.81-23.99c4.71-5.18,4.52-13.11-.43-18.05ZM74.63,52.63l-21.1,23.21-21.1-23.21c-4.02-4.42-3.86-11.18.37-15.41,2.1-2.1,4.95-3.27,7.9-3.27.2,0,.41,0,.61.02,3.17.18,6.12,1.7,8.1,4.17l3.37,4.22c.37.45,1.13.45,1.5,0l3.37-4.22c1.98-2.48,4.93-4,8.1-4.17,3.17-.18,6.27,1.01,8.51,3.25,4.22,4.22,4.38,10.99.37,15.41Z"/>
</svg>