<?xml version="1.0" encoding="UTF-8"?>
<svg id="Layer_1" data-name="Layer 1" xmlns="http://www.w3.org/2000/svg" viewBox="0 0 366.28 305.38">
  <defs>
    <style>
      .cls-1 {
        letter-spacing: 0em;
      }

      .cls-2 {
        letter-spacing: 0em;
      }

      .cls-3 {
        letter-spacing: 0em;
      }

      .cls-4 {
        letter-spacing: 0em;
      }

      .cls-5 {
        letter-spacing: 0em;
      }

      .cls-6, .cls-7 {
        fill: #fff;
      }

      .cls-7 {
        fill-rule: evenodd;
      }

      .cls-8 {
        letter-spacing: 0em;
      }

      .cls-9 {
        letter-spacing: -.03em;
      }

      .cls-10 {
        letter-spacing: -.01em;
      }

      .cls-11 {
        font-family: UrbanistRoman-Bold, Urbanist;
        font-size: 23.99px;
        font-variation-settings: 'wght' 700;
        font-weight: 700;
      }

      .cls-12 {
        letter-spacing: 0em;
      }

      .cls-13 {
        letter-spacing: -.03em;
      }

      .cls-14 {
        letter-spacing: -.02em;
      }

      .cls-15 {
        letter-spacing: -.01em;
      }

      .cls-16 {
        letter-spacing: 0em;
      }

      .cls-17 {
        letter-spacing: -.02em;
      }

      .cls-18 {
        letter-spacing: 0em;
      }

      .cls-19 {
        letter-spacing: 0em;
      }

      .cls-20 {
        letter-spacing: -.03em;
      }

      .cls-21 {
        letter-spacing: -.01em;
      }

      .cls-22 {
        letter-spacing: 0em;
      }

      .cls-23 {
        letter-spacing: -.01em;
      }

      .cls-24 {
        letter-spacing: 0em;
      }

      .cls-25 {
        letter-spacing: 0em;
      }

      .cls-26 {
        letter-spacing: 0em;
      }

      .cls-27 {
        font-family: Urbanist-Regular, Urbanist;
        font-size: 18px;
        font-variation-settings: 'wght' 400;
      }

      .cls-28 {
        fill: #130044;
      }

      .cls-29 {
        letter-spacing: -.01em;
      }
    </style>
  </defs>
  <rect class="cls-28" x="0" y="0" width="366.28" height="305.38" rx="29.13" ry="29.13"/>
  <path class="cls-7" d="M44.94,32.11c.92.25,1.55,1.08,1.55,2.03v14.7h12.6c.75,0,1.45.4,1.82,1.05.37.65.37,1.45,0,2.1l-14.7,25.2c-.48.82-1.45,1.22-2.36.97-.92-.25-1.55-1.08-1.55-2.03v-14.7h-12.6c-.75,0-1.45-.4-1.82-1.05-.37-.65-.37-1.45,0-2.1l14.7-25.2c.48-.82,1.45-1.22,2.36-.97ZM33.35,57.23h11.04c1.16,0,2.1.94,2.1,2.1v9.03l8.94-15.33h-11.04c-1.16,0-2.1-.94-2.1-2.1v-9.03l-8.94,15.33Z"/>
  <text class="cls-6" transform="translate(27.59 119.7)"><tspan class="cls-11"><tspan class="cls-14" x="0" y="0">D</tspan><tspan x="15.75" y="0">a</tspan><tspan class="cls-16" x="30.11" y="0">n</tspan><tspan class="cls-1" x="43.26" y="0">o</tspan><tspan x="56.51" y="0">s </tspan><tspan class="cls-17" x="72.69" y="0">e</tspan><tspan class="cls-1" x="85.65" y="0">l</tspan><tspan class="cls-29" x="91.28" y="0">é</tspan><tspan x="104.44" y="0">t</tspan><tspan class="cls-14" x="113.02" y="0">r</tspan><tspan class="cls-10" x="121.89" y="0">i</tspan><tspan class="cls-14" x="127.42" y="0">c</tspan><tspan class="cls-1" x="139.28" y="0">o</tspan><tspan x="152.53" y="0">s</tspan></tspan><tspan class="cls-27"><tspan class="cls-20" x="0" y="43.2">C</tspan><tspan class="cls-25" x="12.13" y="43.2">o</tspan><tspan class="cls-23" x="22.06" y="43.2">b</tspan><tspan class="cls-5" x="32.71" y="43.2">e</tspan><tspan class="cls-26" x="42.67" y="43.2">rtu</tspan><tspan class="cls-13" x="64.6" y="43.2">r</tspan><tspan x="70.43" y="43.2">a </tspan><tspan class="cls-23" x="85.21" y="43.2">p</tspan><tspan x="95.85" y="43.2">a</tspan><tspan class="cls-13" x="106.31" y="43.2">r</tspan><tspan x="112.14" y="43.2">a </tspan><tspan class="cls-22" x="126.92" y="43.2">d</tspan><tspan x="137.68" y="43.2">a</tspan><tspan class="cls-23" x="148.14" y="43.2">n</tspan><tspan class="cls-4" x="157.61" y="43.2">o</tspan><tspan x="167.62" y="43.2">s </tspan><tspan class="cls-24" x="179.68" y="43.2">c</tspan><tspan x="188.73" y="43.2">au</tspan><tspan class="cls-22" x="208.48" y="43.2">s</tspan><tspan class="cls-23" x="216.14" y="43.2">a</tspan><tspan class="cls-4" x="226.42" y="43.2">do</tspan><tspan x="247.2" y="43.2">s </tspan></tspan><tspan class="cls-27"><tspan class="cls-18" x="0" y="64.8">p</tspan><tspan class="cls-5" x="10.64" y="64.8">o</tspan><tspan x="20.63" y="64.8">r </tspan><tspan class="cls-22" x="31.38" y="64.8">os</tspan><tspan class="cls-25" x="49.07" y="64.8">c</tspan><tspan class="cls-19" x="58.09" y="64.8">i</tspan><tspan class="cls-22" x="61.57" y="64.8">l</tspan><tspan class="cls-23" x="64.93" y="64.8">a</tspan><tspan class="cls-24" x="75.2" y="64.8">ç</tspan><tspan class="cls-18" x="84.26" y="64.8">õ</tspan><tspan class="cls-22" x="94.16" y="64.8">e</tspan><tspan x="104.15" y="64.8">s </tspan><tspan class="cls-22" x="116.2" y="64.8">d</tspan><tspan x="126.96" y="64.8">e </tspan><tspan class="cls-5" x="141.34" y="64.8">e</tspan><tspan class="cls-18" x="151.3" y="64.8">n</tspan><tspan class="cls-5" x="160.77" y="64.8">e</tspan><tspan class="cls-9" x="170.73" y="64.8">r</tspan><tspan class="cls-5" x="176.56" y="64.8">gi</tspan><tspan x="190.38" y="64.8">a, </tspan></tspan><tspan class="cls-27"><tspan class="cls-22" x="0" y="86.4">des</tspan><tspan class="cls-3" x="28.42" y="86.4">c</tspan><tspan x="37.48" y="86.4">a</tspan><tspan class="cls-13" x="47.93" y="86.4">r</tspan><tspan class="cls-5" x="53.77" y="86.4">g</tspan><tspan x="64.25" y="86.4">as </tspan><tspan class="cls-25" x="86.76" y="86.4">e</tspan><tspan class="cls-22" x="96.66" y="86.4">l</tspan><tspan class="cls-15" x="100.02" y="86.4">é</tspan><tspan x="109.83" y="86.4">t</tspan><tspan class="cls-24" x="116.04" y="86.4">r</tspan><tspan class="cls-5" x="122.35" y="86.4">i</tspan><tspan class="cls-24" x="125.68" y="86.4">c</tspan><tspan x="134.74" y="86.4">as e </tspan></tspan><tspan class="cls-27"><tspan class="cls-5" x="0" y="108">c</tspan><tspan x="9.08" y="108">ur</tspan><tspan class="cls-21" x="24.8" y="108">t</tspan><tspan x="30.77" y="108">o-</tspan><tspan class="cls-2" x="48.77" y="108">c</tspan><tspan class="cls-8" x="57.79" y="108">i</tspan><tspan class="cls-13" x="61.18" y="108">r</tspan><tspan class="cls-5" x="67.01" y="108">c</tspan><tspan x="76.1" y="108">ui</tspan><tspan class="cls-15" x="88.8" y="108">t</tspan><tspan class="cls-4" x="94.77" y="108">o</tspan><tspan x="104.79" y="108">s </tspan><tspan class="cls-5" x="116.84" y="108">e</tspan><tspan x="126.8" y="108">m </tspan><tspan class="cls-23" x="147.11" y="108">b</tspan><tspan class="cls-5" x="157.76" y="108">i</tspan><tspan class="cls-25" x="161.09" y="108">c</tspan><tspan class="cls-5" x="170.11" y="108">i</tspan><tspan class="cls-24" x="173.44" y="108">c</tspan><tspan class="cls-22" x="182.49" y="108">l</tspan><tspan class="cls-21" x="185.85" y="108">et</tspan><tspan x="201.63" y="108">as </tspan></tspan><tspan class="cls-27"><tspan class="cls-25" x="0" y="129.6">e</tspan><tspan class="cls-22" x="9.9" y="129.6">l</tspan><tspan class="cls-21" x="13.26" y="129.6">é</tspan><tspan x="23.07" y="129.6">t</tspan><tspan class="cls-24" x="29.28" y="129.6">r</tspan><tspan class="cls-5" x="35.6" y="129.6">i</tspan><tspan class="cls-24" x="38.93" y="129.6">c</tspan><tspan x="47.98" y="129.6">a</tspan><tspan class="cls-12" x="58.44" y="129.6">s</tspan><tspan x="66.14" y="129.6">.</tspan></tspan></text>
</svg>