<?xml version="1.0" encoding="UTF-8"?>
<svg id="Layer_1" data-name="Layer 1" xmlns="http://www.w3.org/2000/svg" viewBox="0 0 366.28 305.38">
  <defs>
    <style>
      .cls-1 {
        letter-spacing: 0em;
      }

      .cls-2 {
        letter-spacing: -.04em;
      }

      .cls-3 {
        letter-spacing: -.02em;
      }

      .cls-4 {
        letter-spacing: 0em;
      }

      .cls-5 {
        font-family: UrbanistRoman-Bold, Urbanist;
        font-size: 23.99px;
        font-variation-settings: 'wght' 700;
        font-weight: 700;
      }

      .cls-5, .cls-6 {
        fill: #130044;
      }
    </style>
  </defs>
  <path class="cls-6" d="M337.15,8.99c11.1,0,20.13,9.03,20.13,20.14v247.12c0,11.1-9.03,20.14-20.13,20.14H29.13c-11.1,0-20.14-9.03-20.14-20.14V29.13c0-11.1,9.03-20.14,20.14-20.14h308.02M337.15,0H29.13C13.11,0,0,13.11,0,29.13v247.12c0,16.02,13.11,29.13,29.13,29.13h308.02c16.02,0,29.13-13.11,29.13-29.13V29.13C366.28,13.11,353.18,0,337.15,0h0Z"/>
  <text class="cls-5" transform="translate(27.59 274.19)"><tspan class="cls-3" x="0" y="0">S</tspan><tspan class="cls-4" x="14.61" y="0">e</tspan><tspan class="cls-3" x="27.79" y="0">g</tspan><tspan x="42.12" y="0">u</tspan><tspan class="cls-2" x="55.03" y="0">r</tspan><tspan class="cls-1" x="63.36" y="0">o</tspan><tspan x="76.61" y="0">s</tspan></text>
  <polygon class="cls-6" points="338.69 262.6 330.04 262.6 330.04 253.95 324.38 253.95 324.38 262.6 315.73 262.6 315.73 268.27 324.38 268.27 324.38 276.92 330.04 276.92 330.04 268.27 338.69 268.27 338.69 262.6"/>
  <g>
    <path class="cls-6" d="M42.08,58.97v1.63h2.92v-1.63c-.48.09-.97.14-1.46.14s-.98-.05-1.46-.14Z"/>
    <path class="cls-6" d="M57.22,56.63l-2.35-.7-3.05-.91h0s-.6-.18-.6-.18c-.39.48-.79.93-1.21,1.33l1.54.46c-.99,5.44-2.85,11.41-5.16,14.34l-1.39-9.29h-2.94l-1.39,9.28c-2.3-2.93-4.17-8.9-5.16-14.33l1.53-.46c-.42-.41-.82-.85-1.21-1.33l-5.99,1.79c-1.34.4-2.26,1.63-2.26,3.03v2.63c0,8.8,7.17,15.95,15.95,15.95h0s0,0,.01,0c4.97,0,9.56-2.47,12.21-5.71h0c2.32-2.77,3.72-6.34,3.72-10.24v-2.63c0-1.4-.92-2.63-2.26-3.03ZM32.45,67.35c-.16,1.1-.38,2.15-.61,3.17-1.65-2.33-2.62-5.17-2.62-8.23v-2.63c0-.67.45-1.28,1.1-1.47l2.26-.67c.43,2.65.44,6.1-.12,9.84ZM57.86,62.29c0,3.06-.97,5.89-2.61,8.22-.23-1-.44-2.02-.6-3.1-.56-3.75-.55-7.22-.11-9.88l2.22.66c.65.19,1.1.8,1.1,1.47v2.63h0Z"/>
    <path class="cls-6" d="M53.81,41.88c-.55-5.57-4.96-9.85-10.27-9.85s-9.72,4.28-10.27,9.85c-.81.33-1.42,1.08-1.68,2.08-.25.95-.18,2.05.18,3.11.58,1.67,1.82,2.89,3.16,3.17,1.67,3.58,4.74,7.25,8.61,7.25s6.94-3.66,8.61-7.24c1.32-.26,2.58-1.49,3.17-3.17.79-2.28.13-4.53-1.5-5.18ZM53.78,46.53c-.48,1.39-1.47,2.13-2.16,2.13h0c-.31.03-.63.19-.76.49-1.41,3.24-4.08,6.71-7.32,6.71s-5.9-3.46-7.32-6.71c-.13-.3-.46-.49-.78-.49-.68,0-1.66-.75-2.14-2.13-.26-.74-.31-1.53-.15-2.16.08-.3.28-.83.76-1,.05-.02.15-.03.2-.03.26-.03.47-.14.59-.35l2.4-3.99c.49-.81.79-1.72.89-2.67l.03-.31c1.22.64,3.22,1.06,5.52,1.06s4.3-.42,5.52-1.06l.03.31c.1.94.4,1.86.89,2.67,0,0,1.72,2.86,2.31,3.84.15.25.37.47.68.5.05,0,.15.01.2.03.72.25,1.15,1.61.61,3.15Z"/>
  </g>
</svg>