<?xml version="1.0" encoding="UTF-8"?>
<svg id="Layer_1" data-name="Layer 1" xmlns="http://www.w3.org/2000/svg" viewBox="0 0 366.28 305.38">
  <defs>
    <style>
      .cls-1 {
        letter-spacing: 0em;
      }

      .cls-2 {
        letter-spacing: -.01em;
      }

      .cls-3 {
        letter-spacing: 0em;
      }

      .cls-4 {
        letter-spacing: 0em;
      }

      .cls-5 {
        fill: #fff;
      }

      .cls-6 {
        letter-spacing: 0em;
      }

      .cls-7 {
        letter-spacing: -.03em;
      }

      .cls-8 {
        letter-spacing: 0em;
      }

      .cls-9 {
        letter-spacing: 0em;
      }

      .cls-10 {
        letter-spacing: -.01em;
      }

      .cls-11 {
        font-family: UrbanistRoman-Bold, Urbanist;
        font-size: 23.99px;
        font-variation-settings: 'wght' 700;
        font-weight: 700;
      }

      .cls-12 {
        letter-spacing: -.03em;
      }

      .cls-13 {
        letter-spacing: -.01em;
      }

      .cls-14 {
        letter-spacing: 0em;
      }

      .cls-15 {
        letter-spacing: 0em;
      }

      .cls-16 {
        letter-spacing: -.01em;
      }

      .cls-17 {
        letter-spacing: 0em;
      }

      .cls-18 {
        letter-spacing: -.02em;
      }

      .cls-19 {
        letter-spacing: .01em;
      }

      .cls-20 {
        letter-spacing: -.01em;
      }

      .cls-21 {
        letter-spacing: 0em;
      }

      .cls-22 {
        letter-spacing: 0em;
      }

      .cls-23 {
        font-family: Urbanist-Regular, Urbanist;
        font-size: 18px;
        font-variation-settings: 'wght' 400;
      }

      .cls-24 {
        fill: #130044;
      }

      .cls-25 {
        letter-spacing: -.01em;
      }
    </style>
  </defs>
  <rect class="cls-24" x="0" y="0" width="366.28" height="305.38" rx="29.13" ry="29.13"/>
  <path class="cls-5" d="M50.66,32.04c-12.75.01-23.07,10.35-23.07,23.1,0,12.76,10.34,23.1,23.1,23.1s23.1-10.34,23.1-23.1-10.34-23.1-23.1-23.1c0,0-.02,0-.02,0ZM51.84,34.66c2.43.41,4.76,2.42,6.59,5.74.59,1.07,1.12,2.28,1.57,3.58h-8.16v-9.32ZM49.53,34.75v9.23h-7.74c.46-1.3.98-2.51,1.57-3.58,1.72-3.13,3.89-5.09,6.16-5.65h0ZM44.21,35.38c-1.07,1.09-2.04,2.41-2.87,3.91-.78,1.41-1.44,2.99-1.99,4.69h-6.22c2.56-4.02,6.46-7.1,11.07-8.61ZM57.8,35.59c4.34,1.58,8,4.56,10.44,8.39h-5.79c-.55-1.71-1.21-3.29-1.99-4.69-.77-1.41-1.67-2.66-2.66-3.7h0ZM31.87,46.3h6.84c-.58,2.38-.93,4.97-1.02,7.68h-7.76c.14-2.66.8-5.27,1.93-7.68h0ZM41.1,46.3h8.44v7.68h-9.53c.1-2.74.48-5.34,1.09-7.68h0ZM51.84,46.3h8.87c.61,2.35.99,4.94,1.09,7.68h-9.96v-7.68h0ZM63.09,46.3h6.42c1.13,2.41,1.79,5.02,1.93,7.68h-7.33c-.09-2.71-.44-5.3-1.02-7.68h0ZM29.94,56.29h7.74c.06,2.7.38,5.29.92,7.68h-6.73c-1.13-2.41-1.79-5.02-1.93-7.68ZM39.99,56.29h9.55v7.68h-8.55c-.58-2.36-.93-4.95-.99-7.68ZM51.84,56.29h9.97c-.06,2.73-.42,5.33-.99,7.68h-8.98v-7.68ZM64.12,56.29h7.32c-.14,2.66-.8,5.27-1.93,7.68h-6.31c.54-2.39.86-4.98.92-7.68h0ZM33.14,66.28h6.07c.57,1.89,1.29,3.62,2.14,5.16.66,1.21,1.42,2.3,2.24,3.24-4.35-1.58-8.01-4.56-10.45-8.4h0ZM41.64,66.28h7.9v9.61c-.14,0-.28-.02-.42-.03-2.12-.69-4.12-2.6-5.74-5.53-.66-1.2-1.24-2.56-1.73-4.04h0ZM51.84,66.28h8.32c-.49,1.49-1.07,2.84-1.73,4.04-1.58,2.88-3.54,4.76-5.61,5.49-.33.03-.65.06-.98.07v-9.61ZM62.59,66.28h5.64c-2.34,3.68-5.77,6.53-9.81,8.15.74-.89,1.42-1.89,2.03-2.99.85-1.54,1.56-3.27,2.14-5.16h0Z"/>
  <text class="cls-5" transform="translate(27.59 119.7)"><tspan class="cls-11"><tspan x="0" y="0">In</tspan><tspan class="cls-25" x="19.91" y="0">t</tspan><tspan class="cls-10" x="28.23" y="0">er</tspan><tspan class="cls-14" x="50.34" y="0">na</tspan><tspan class="cls-18" x="77.61" y="0">c</tspan><tspan class="cls-10" x="89.39" y="0">io</tspan><tspan class="cls-14" x="108.07" y="0">n</tspan><tspan class="cls-8" x="121.22" y="0">a</tspan><tspan x="135.64" y="0">l</tspan></tspan><tspan class="cls-23"><tspan class="cls-17" x="0" y="43.2">Id</tspan><tspan class="cls-15" x="14.66" y="43.2">e</tspan><tspan class="cls-9" x="24.53" y="43.2">a</tspan><tspan x="35.11" y="43.2">l </tspan><tspan class="cls-15" x="42.85" y="43.2">p</tspan><tspan x="53.49" y="43.2">a</tspan><tspan class="cls-7" x="63.94" y="43.2">r</tspan><tspan x="69.78" y="43.2">a </tspan><tspan class="cls-21" x="84.55" y="43.2">q</tspan><tspan class="cls-17" x="95.26" y="43.2">u</tspan><tspan class="cls-4" x="104.48" y="43.2">e</tspan><tspan x="114.44" y="43.2">m </tspan><tspan class="cls-21" x="134.76" y="43.2">v</tspan><tspan class="cls-4" x="143.89" y="43.2">i</tspan><tspan class="cls-9" x="147.22" y="43.2">a</tspan><tspan class="cls-4" x="157.8" y="43.2">j</tspan><tspan x="161.67" y="43.2">a </tspan></tspan><tspan class="cls-23"><tspan class="cls-19" x="0" y="64.8">f</tspan><tspan class="cls-12" x="6.25" y="64.8">r</tspan><tspan class="cls-20" x="12.08" y="64.8">e</tspan><tspan class="cls-21" x="21.95" y="64.8">q</tspan><tspan class="cls-17" x="32.65" y="64.8">u</tspan><tspan class="cls-4" x="41.88" y="64.8">e</tspan><tspan x="51.84" y="64.8">n</tspan><tspan class="cls-16" x="61.49" y="64.8">t</tspan><tspan class="cls-4" x="67.46" y="64.8">e</tspan><tspan class="cls-15" x="77.42" y="64.8">m</tspan><tspan class="cls-4" x="93.23" y="64.8">e</tspan><tspan x="103.19" y="64.8">n</tspan><tspan class="cls-13" x="112.84" y="64.8">t</tspan><tspan x="118.81" y="64.8">e </tspan><tspan class="cls-20" x="133.18" y="64.8">o</tspan><tspan x="143.08" y="64.8">u </tspan><tspan class="cls-7" x="156.69" y="64.8">r</tspan><tspan class="cls-3" x="162.52" y="64.8">e</tspan><tspan class="cls-4" x="172.51" y="64.8">si</tspan><tspan class="cls-17" x="183.48" y="64.8">d</tspan><tspan x="194.25" y="64.8">e </tspan><tspan class="cls-2" x="208.62" y="64.8">f</tspan><tspan class="cls-4" x="214.42" y="64.8">o</tspan><tspan class="cls-12" x="224.41" y="64.8">r</tspan><tspan x="230.24" y="64.8">a </tspan><tspan class="cls-17" x="245.02" y="64.8">d</tspan><tspan x="255.78" y="64.8">o </tspan></tspan><tspan class="cls-23"><tspan class="cls-15" x="0" y="86.4">p</tspan><tspan x="10.64" y="86.4">a</tspan><tspan class="cls-17" x="21.1" y="86.4">í</tspan><tspan class="cls-6" x="24.45" y="86.4">s</tspan><tspan x="32.16" y="86.4">, </tspan><tspan class="cls-21" x="40.09" y="86.4">c</tspan><tspan class="cls-4" x="49.15" y="86.4">o</tspan><tspan x="59.14" y="86.4">m </tspan><tspan class="cls-21" x="79.45" y="86.4">c</tspan><tspan class="cls-1" x="88.51" y="86.4">o</tspan><tspan class="cls-15" x="98.43" y="86.4">b</tspan><tspan class="cls-4" x="109.08" y="86.4">e</tspan><tspan x="119.04" y="86.4">rtu</tspan><tspan class="cls-7" x="140.98" y="86.4">r</tspan><tspan x="146.81" y="86.4">a g</tspan><tspan class="cls-17" x="172.16" y="86.4">l</tspan><tspan class="cls-22" x="175.52" y="86.4">o</tspan><tspan class="cls-15" x="185.44" y="86.4">b</tspan><tspan class="cls-9" x="196.09" y="86.4">a</tspan><tspan x="206.67" y="86.4">l.</tspan></tspan></text>
</svg>