<?xml version="1.0" encoding="UTF-8"?>
<svg id="Layer_1" data-name="Layer 1" xmlns="http://www.w3.org/2000/svg" viewBox="0 0 366.28 305.38">
  <defs>
    <style>
      .cls-1 {
        letter-spacing: -.02em;
      }

      .cls-2 {
        letter-spacing: -.01em;
      }

      .cls-3 {
        font-family: UrbanistRoman-Bold, Urbanist;
        font-size: 20px;
        font-variation-settings: 'wght' 700;
        font-weight: 700;
      }

      .cls-3, .cls-4 {
        fill: #130044;
      }

      .cls-5 {
        letter-spacing: 0em;
      }

      .cls-6 {
        letter-spacing: -.02em;
      }

      .cls-7 {
        letter-spacing: -.04em;
      }

      .cls-8 {
        letter-spacing: -.01em;
      }

      .cls-9 {
        letter-spacing: 0em;
      }

      .cls-10 {
        letter-spacing: -.01em;
      }

      .cls-11 {
        letter-spacing: -.04em;
      }

      .cls-12 {
        letter-spacing: -.05em;
      }
    </style>
  </defs>
  <path class="cls-4" d="M337.15,9c11.1,0,20.14,9.03,20.14,20.13v247.12c0,11.1-9.03,20.13-20.14,20.13H29.13c-11.1,0-20.14-9.03-20.14-20.13V29.13c0-11.1,9.03-20.13,20.14-20.13h308.02M337.15,0H29.13C13.11,0,0,13.11,0,29.13v247.12C0,292.27,13.11,305.38,29.13,305.38h308.02c16.02,0,29.13-13.11,29.13-29.13V29.13C366.28,13.11,353.18,0,337.15,0h0Z"/>
  <text class="cls-3" transform="translate(27.59 273.28)"><tspan class="cls-12" x="0" y="0">M</tspan><tspan x="17.64" y="0">anu</tspan><tspan class="cls-8" x="51.54" y="0">t</tspan><tspan class="cls-2" x="58.48" y="0">e</tspan><tspan class="cls-10" x="69.44" y="0">n</tspan><tspan class="cls-6" x="80.4" y="0">ç</tspan><tspan class="cls-5" x="90.29" y="0">ã</tspan><tspan x="102.07" y="0">o </tspan><tspan class="cls-1" x="118.07" y="0">c</tspan><tspan class="cls-2" x="127.96" y="0">or</tspan><tspan class="cls-7" x="146.4" y="0">r</tspan><tspan class="cls-8" x="153.35" y="0">e</tspan><tspan class="cls-9" x="164.32" y="0">t</tspan><tspan class="cls-1" x="171.33" y="0">i</tspan><tspan class="cls-11" x="175.86" y="0">v</tspan><tspan x="186.78" y="0">a</tspan></text>
  <polygon class="cls-4" points="338.69 262.6 330.04 262.6 330.04 253.95 324.38 253.95 324.38 262.6 315.73 262.6 315.73 268.27 324.38 268.27 324.38 276.92 330.04 276.92 330.04 268.27 338.69 268.27 338.69 262.6"/>
  <g>
    <g>
      <path class="cls-4" d="M50.11,52.91l-6.98-6.98,2.02-2.02,6.98,6.98,1.15-1.15-7.33-7.33,2.11-2.11s.03-.03.05-.05c.02-.01.03-.03.05-.04l3.82-3.82c.31-.31.32-.82.01-1.14l-.04-.05s-.07-.08-.11-.11c-1.91-1.91-4.38-3.05-6.63-3.05-1.51,0-2.81.5-3.76,1.45-.02.02-.04.04-.06.06-.01.01-.03.02-.04.03l-8.66,8.66c-.32.32-.32.83,0,1.15l1.28,1.28-1.06,1.06-1.28-1.28c-.15-.15-.36-.24-.57-.24s-.42.09-.57.24l-2.65,2.65c-.32.32-.32.83,0,1.15l5.56,5.56c.15.15.36.24.57.24s.42-.09.57-.24l2.65-2.65c.32-.32.32-.83,0-1.15l-1.28-1.28,1.06-1.06,1.28,1.28c.16.16.37.24.57.24s.42-.08.57-.24l2.23-2.23,7.33,7.33,1.15-1.15ZM45.2,33.66c1.66,0,3.5.8,5.03,2.15l-2.66,2.66-4.34-4.34c.55-.31,1.21-.48,1.96-.48ZM33.97,52.09l-4.41-4.41,1.5-1.5,4.41,4.41-1.5,1.5ZM34.82,47.52l-.7-.7,1-1,.7.7-1,1ZM38.82,47.23l-4.41-4.41,7.51-7.51,4.41,4.41-7.51,7.51Z"/>
      <path class="cls-4" d="M77.15,73.62l-16.72-16.72-1.15,1.15,16.15,16.15-2.02,2.02-16.15-16.15-1.15,1.15,16.72,16.72c.15.15.36.24.57.24s.42-.09.57-.24l3.17-3.17c.32-.32.32-.83,0-1.15Z"/>
    </g>
    <path class="cls-4" d="M77.62,37.23c-.09-.26-.31-.46-.59-.52-.27-.06-.56.02-.76.22l-3.28,3.28-3.08-3.08,3.28-3.28c.2-.2.28-.48.22-.76-.06-.27-.26-.49-.52-.59-.82-.29-1.68-.43-2.55-.43-2.06,0-3.99.8-5.45,2.26-1.46,1.46-2.26,3.39-2.26,5.45,0,1,.19,1.96.55,2.86l-20.74,20.74c-.9-.36-1.86-.55-2.86-.55-2.06,0-3.99.8-5.45,2.26-2.08,2.08-2.8,5.22-1.83,7.99.09.26.31.46.59.52.27.06.56-.02.76-.22l3.28-3.28,3.08,3.08-3.28,3.28c-.2.2-.28.48-.22.76.06.27.26.49.52.59.82.29,1.67.43,2.55.43h0c2.06,0,3.99-.8,5.45-2.26,2.24-2.24,2.81-5.53,1.71-8.3l20.74-20.74c.9.36,1.86.55,2.86.55h0c2.06,0,3.99-.8,5.45-2.26,2.08-2.08,2.8-5.22,1.83-7.99ZM43.89,74.83c-1.15,1.15-2.67,1.78-4.3,1.78h0c-.22,0-.44-.01-.66-.04l2.82-2.82c.15-.15.24-.36.24-.57s-.09-.42-.24-.57l-4.23-4.23c-.32-.32-.83-.32-1.15,0l-2.82,2.82c-.19-1.81.43-3.65,1.74-4.96,1.15-1.15,2.67-1.78,4.3-1.78s3.15.63,4.3,1.78c2.37,2.37,2.37,6.23,0,8.6ZM46.04,66.08l-2-2,19.79-19.79,2,2-19.79,19.79ZM74.64,44.07c-1.15,1.15-2.67,1.78-4.3,1.78s-3.15-.63-4.3-1.78c-1.15-1.15-1.78-2.67-1.78-4.3s.63-3.15,1.78-4.3c1.15-1.15,2.67-1.78,4.3-1.78.22,0,.44.01.66.04l-2.82,2.82c-.15.15-.24.36-.24.57s.09.42.24.57l4.23,4.23c.32.32.83.32,1.15,0l2.82-2.82c.19,1.81-.43,3.65-1.74,4.96Z"/>
  </g>
</svg>