<?xml version="1.0" encoding="UTF-8"?>
<svg id="Layer_1" data-name="Layer 1" xmlns="http://www.w3.org/2000/svg" viewBox="0 0 366.28 305.38">
  <defs>
    <style>
      .cls-1 {
        letter-spacing: -.01em;
      }

      .cls-2 {
        letter-spacing: -.02em;
      }

      .cls-3 {
        letter-spacing: -.01em;
      }

      .cls-4 {
        font-family: UrbanistRoman-Bold, Urbanist;
        font-size: 19px;
        font-variation-settings: 'wght' 700;
        font-weight: 700;
      }

      .cls-4, .cls-5 {
        fill: #130044;
      }

      .cls-6 {
        letter-spacing: -.01em;
      }

      .cls-7 {
        letter-spacing: -.04em;
      }

      .cls-8 {
        letter-spacing: -.02em;
      }

      .cls-9 {
        letter-spacing: -.01em;
      }

      .cls-10 {
        letter-spacing: 0em;
      }

      .cls-11 {
        letter-spacing: 0em;
      }

      .cls-12 {
        letter-spacing: 0em;
      }
    </style>
  </defs>
  <path class="cls-5" d="M337.15,9c11.1,0,20.14,9.03,20.14,20.13v247.12c0,11.1-9.03,20.14-20.14,20.14H29.13c-11.1,0-20.14-9.03-20.14-20.14V29.13c0-11.1,9.03-20.13,20.14-20.13h308.02M337.15,0H29.13C13.11,0,0,13.11,0,29.13v247.12C0,292.27,13.11,305.38,29.13,305.38h308.02c16.02,0,29.13-13.11,29.13-29.13V29.13c0-16.02-13.11-29.13-29.13-29.13h0Z"/>
  <text class="cls-4" transform="translate(27.59 274.58)"><tspan class="cls-7" x="0" y="0">C</tspan><tspan x="12.68" y="0">a</tspan><tspan class="cls-1" x="24.06" y="0">n</tspan><tspan class="cls-2" x="34.47" y="0">c</tspan><tspan class="cls-8" x="43.87" y="0">e</tspan><tspan class="cls-11" x="54.14" y="0">l</tspan><tspan x="58.6" y="0">a</tspan><tspan class="cls-1" x="69.98" y="0">m</tspan><tspan class="cls-9" x="86.67" y="0">e</tspan><tspan x="97.08" y="0">n</tspan><tspan class="cls-3" x="107.68" y="0">t</tspan><tspan x="114.27" y="0">o </tspan><tspan class="cls-10" x="129.47" y="0">d</tspan><tspan x="141.11" y="0">e </tspan><tspan class="cls-2" x="156.3" y="0">v</tspan><tspan class="cls-6" x="167.06" y="0">i</tspan><tspan class="cls-12" x="171.44" y="0">a</tspan><tspan class="cls-6" x="182.63" y="0">ge</tspan><tspan x="204.47" y="0">m</tspan></text>
  <polygon class="cls-5" points="338.69 262.6 330.04 262.6 330.04 253.95 324.38 253.95 324.38 262.6 315.73 262.6 315.73 268.27 324.38 268.27 324.38 276.92 330.04 276.92 330.04 268.27 338.69 268.27 338.69 262.6"/>
  <path class="cls-5" d="M36.86,75.17l-8.29-8.29c-1.3-1.3-1.3-3.42,0-4.72l8.53-8.53-8.53-8.53c-1.3-1.3-1.3-3.42,0-4.72l8.29-8.29c1.3-1.3,3.42-1.3,4.72,0l8.53,8.53,8.53-8.53c1.3-1.3,3.42-1.3,4.72,0l8.29,8.29c1.3,1.3,1.3,3.42,0,4.72l-8.53,8.53,8.53,8.53c1.3,1.3,1.3,3.42,0,4.72l-8.29,8.29c-1.3,1.3-3.42,1.3-4.72,0l-8.53-8.53-8.53,8.53c-1.3,1.3-3.42,1.3-4.72,0ZM39.46,34.22c-.13-.13-.34-.13-.48,0l-8.29,8.29c-.13.13-.13.34,0,.48l9.59,9.59c.59.59.59,1.54,0,2.12l-9.59,9.59c-.13.13-.13.34,0,.48l8.29,8.29c.13.13.34.13.48,0l9.59-9.59c.59-.59,1.54-.59,2.12,0l9.59,9.59c.13.13.34.13.48,0l8.29-8.29c.13-.13.13-.34,0-.48l-9.59-9.59c-.59-.59-.59-1.54,0-2.12l9.59-9.59c.13-.13.13-.34,0-.48l-8.29-8.29c-.13-.13-.34-.13-.48,0l-9.59,9.59c-.59.59-1.54.59-2.12,0l-9.59-9.59Z"/>
</svg>