<?xml version="1.0" encoding="UTF-8"?>
<svg id="Layer_1" data-name="Layer 1" xmlns="http://www.w3.org/2000/svg" viewBox="0 0 366.28 305.38">
  <defs>
    <style>
      .cls-1 {
        letter-spacing: -.01em;
      }

      .cls-2 {
        letter-spacing: 0em;
      }

      .cls-3 {
        letter-spacing: -.04em;
      }

      .cls-4 {
        letter-spacing: -.01em;
      }

      .cls-5 {
        letter-spacing: -.02em;
      }

      .cls-6 {
        letter-spacing: 0em;
      }

      .cls-7 {
        letter-spacing: -.02em;
      }

      .cls-8 {
        letter-spacing: -.04em;
      }

      .cls-9 {
        letter-spacing: 0em;
      }

      .cls-10 {
        font-family: UrbanistRoman-Bold, Urbanist;
        font-size: 23.99px;
        font-variation-settings: 'wght' 700;
        font-weight: 700;
      }

      .cls-10, .cls-11 {
        fill: #130044;
      }
    </style>
  </defs>
  <path class="cls-11" d="M337.15,8.99c11.1,0,20.14,9.03,20.14,20.14v247.12c0,11.1-9.03,20.14-20.14,20.14H29.13c-11.1,0-20.13-9.03-20.13-20.14V29.13c0-11.1,9.03-20.14,20.13-20.14h308.02M337.15,0H29.13C13.11,0,0,13.11,0,29.13v247.12C0,292.27,13.11,305.38,29.13,305.38h308.02c16.02,0,29.13-13.11,29.13-29.13V29.13C366.28,13.11,353.18,0,337.15,0h0Z"/>
  <text class="cls-10" transform="translate(27.59 245.21)"><tspan x="0" y="0">Ent</tspan><tspan class="cls-8" x="35.14" y="0">r</tspan><tspan class="cls-6" x="43.48" y="0">e</tspan><tspan class="cls-4" x="56.66" y="0">g</tspan><tspan x="71.08" y="0">a </tspan><tspan class="cls-4" x="91.21" y="0">e</tspan><tspan x="104.35" y="0">m </tspan><tspan class="cls-5" x="131.42" y="0">c</tspan><tspan x="143.28" y="0">a</tspan><tspan class="cls-2" x="157.65" y="0">s</tspan><tspan x="167.89" y="0">a </tspan><tspan class="cls-1" x="188.02" y="0">e</tspan><tspan x="201.16" y="0">m </tspan><tspan class="cls-3" x="0" y="28.78">v</tspan><tspan class="cls-9" x="13.1" y="28.78">á</tspan><tspan class="cls-5" x="27.46" y="28.78">r</tspan><tspan class="cls-1" x="36.33" y="28.78">i</tspan><tspan x="41.86" y="28.78">as </tspan><tspan class="cls-7" x="72.4" y="28.78">c</tspan><tspan class="cls-4" x="84.18" y="28.78">i</tspan><tspan class="cls-2" x="89.71" y="28.78">d</tspan><tspan class="cls-6" x="104.4" y="28.78">a</tspan><tspan class="cls-2" x="118.53" y="28.78">de</tspan><tspan x="146.46" y="28.78">s </tspan><tspan class="cls-2" x="162.64" y="28.78">d</tspan><tspan x="177.33" y="28.78">o </tspan><tspan class="cls-6" x="196.52" y="28.78">p</tspan><tspan x="211.13" y="28.78">a</tspan><tspan class="cls-2" x="225.5" y="28.78">í</tspan><tspan x="231.12" y="28.78">s</tspan></text>
  <polygon class="cls-11" points="338.69 262.6 330.04 262.6 330.04 253.95 324.38 253.95 324.38 262.6 315.73 262.6 315.73 268.27 324.38 268.27 324.38 276.92 330.04 276.92 330.04 268.27 338.69 268.27 338.69 262.6"/>
  <g>
    <path class="cls-11" d="M56.81,32.04h-1.81l-16.97,7.72v4.62l1.49-.68v9.21h-5.96v13.41h25.33v-2.98h13.41v-19.64l1.49.68v-4.62l-16.97-7.72ZM38.02,54.39h1.49v2.98h-1.49v-2.98ZM42.49,64.82h-7.45v-10.43h1.49v4.47h4.47v-4.47h1.49v10.43ZM57.39,64.82h-13.41v-10.43h13.41v10.43ZM60.37,61.84h-1.49v-8.94h-7.45v-4.47h8.94v13.41ZM70.8,61.84h-8.94v-14.9h-11.92v5.96h-8.94v-9.88l14.32-6.51h1.17l14.32,6.51v18.82ZM72.29,42.06l-15.48-7.04h-1.81l-15.48,7.04v-1.34l15.81-7.18h1.17l15.81,7.19v1.34Z"/>
    <path class="cls-11" d="M55.93,70.15c-.56-.19-1.18-.13-1.7.15l-1.64.9.23-.67c.21-.63.11-1.33-.28-1.87-.39-.54-1.02-.86-1.68-.86-.85,0-1.61.51-1.92,1.3l-.97,2.42h-2.29l-.04-.02,1.61-.86c.97-.51,1.44-1.65,1.12-2.7-.18-.61-.6-1.1-1.16-1.39-.56-.29-1.21-.33-1.8-.12l-6.11,2.14-2.21,1.45h-4.99v-1.49h-4.49v1.49h3v6.71h-3v1.49h4.49v-1.33l2.83.57h9.91s7.52-1.49,7.52-1.49l3.86-1.88c1.04-.51,1.48-1.74,1-2.8-.25-.54-.71-.96-1.27-1.15ZM50.31,69.66c.16-.4.76-.47,1.01-.12.11.15.14.34.08.52l-.49,1.47h-1.34l.75-1.87ZM55.54,72.77l-3.59,1.77-7.28,1.46h-9.54l-3.05-.61v-3.86h5.44l2.34-1.56,6.02-2.11c.21-.07.44-.06.64.04.2.1.34.27.41.49.11.37-.05.77-.4.95l-4.16,2.21,2.94,1.47h7.07l2.56-1.4c.16-.09.34-.11.52-.05.17.06.31.18.39.35.15.32.01.69-.3.85Z"/>
    <rect class="cls-11" x="54.41" y="61.84" width="1.49" height="1.49"/>
    <rect class="cls-11" x="49.94" y="61.84" width="2.98" height="1.49"/>
    <rect class="cls-11" x="48.45" y="58.86" width="7.45" height="1.49"/>
  </g>
</svg>