<?xml version="1.0" encoding="UTF-8"?>
<svg id="Layer_1" data-name="Layer 1" xmlns="http://www.w3.org/2000/svg" viewBox="0 0 366.28 305.38">
  <defs>
    <style>
      .cls-1 {
        letter-spacing: -.01em;
      }

      .cls-2 {
        letter-spacing: 0em;
      }

      .cls-3 {
        letter-spacing: 0em;
      }

      .cls-4 {
        letter-spacing: 0em;
      }

      .cls-5 {
        letter-spacing: 0em;
      }

      .cls-6 {
        fill: #fff;
      }

      .cls-7 {
        letter-spacing: 0em;
      }

      .cls-8 {
        letter-spacing: -.03em;
      }

      .cls-9 {
        letter-spacing: -.01em;
      }

      .cls-10 {
        letter-spacing: -.03em;
      }

      .cls-11 {
        font-family: UrbanistRoman-Bold, Urbanist;
        font-size: 23.99px;
        font-variation-settings: 'wght' 700;
        font-weight: 700;
      }

      .cls-12 {
        letter-spacing: -.03em;
      }

      .cls-13 {
        letter-spacing: -.03em;
      }

      .cls-14 {
        letter-spacing: -.02em;
      }

      .cls-15 {
        letter-spacing: -.01em;
      }

      .cls-16 {
        letter-spacing: 0em;
      }

      .cls-17 {
        letter-spacing: -.02em;
      }

      .cls-18 {
        letter-spacing: -.04em;
      }

      .cls-19 {
        letter-spacing: 0em;
      }

      .cls-20 {
        letter-spacing: -.04em;
      }

      .cls-21 {
        letter-spacing: -.03em;
      }

      .cls-22 {
        letter-spacing: -.01em;
      }

      .cls-23 {
        letter-spacing: 0em;
      }

      .cls-24 {
        letter-spacing: -.01em;
      }

      .cls-25 {
        letter-spacing: 0em;
      }

      .cls-26 {
        letter-spacing: 0em;
      }

      .cls-27 {
        font-family: Urbanist-Regular, Urbanist;
        font-size: 18px;
        font-variation-settings: 'wght' 400;
      }

      .cls-28 {
        fill: #130044;
      }

      .cls-29 {
        letter-spacing: -.01em;
      }

      .cls-30 {
        letter-spacing: -.02em;
      }
    </style>
  </defs>
  <rect class="cls-28" x="0" y="0" width="366.28" height="305.38" rx="29.13" ry="29.13"/>
  <g>
    <path class="cls-6" d="M74.42,54.14H28.74c-.63,0-1.15-.51-1.15-1.15s.51-1.15,1.15-1.15h45.46c.07-.01.15-.02.22-.02,3.74,0,6.79-3.05,6.79-6.79s-3.05-6.79-6.79-6.79-6.79,3.05-6.79,6.79c0,.63-.51,1.15-1.15,1.15s-1.15-.51-1.15-1.15c0-5.01,4.08-9.09,9.09-9.09s9.09,4.08,9.09,9.09-3.95,8.96-8.85,9.08c-.08.02-.16.02-.24.02Z"/>
    <path class="cls-6" d="M50.89,46.19h-22.15c-.63,0-1.15-.51-1.15-1.15s.51-1.15,1.15-1.15h21.93c.07-.01.15-.02.22-.02,3.74,0,6.79-3.05,6.79-6.79s-3.05-6.79-6.79-6.79-6.79,3.05-6.79,6.79c0,.63-.51,1.15-1.15,1.15s-1.15-.51-1.15-1.15c0-5.01,4.08-9.09,9.09-9.09s9.09,4.08,9.09,9.09-3.95,8.96-8.85,9.08c-.08.02-.16.02-.24.02Z"/>
    <path class="cls-6" d="M64.96,78.23c-5.01,0-9.09-4.08-9.09-9.09,0-.63.51-1.15,1.15-1.15s1.15.51,1.15,1.15c0,3.74,3.05,6.79,6.79,6.79s6.79-3.05,6.79-6.79-3.05-6.79-6.79-6.79H28.74c-.63,0-1.15-.51-1.15-1.15s.51-1.15,1.15-1.15h36.22c5.01,0,9.09,4.08,9.09,9.09s-4.08,9.09-9.09,9.09Z"/>
  </g>
  <text class="cls-6" transform="translate(27.59 119.7)"><tspan class="cls-11"><tspan class="cls-14" x="0" y="0">D</tspan><tspan x="15.75" y="0">a</tspan><tspan class="cls-16" x="30.11" y="0">n</tspan><tspan class="cls-2" x="43.26" y="0">o</tspan><tspan x="56.51" y="0">s </tspan><tspan class="cls-17" x="72.69" y="0">e</tspan><tspan class="cls-2" x="85.65" y="0">l</tspan><tspan class="cls-29" x="91.28" y="0">é</tspan><tspan x="104.44" y="0">t</tspan><tspan class="cls-14" x="113.02" y="0">r</tspan><tspan class="cls-9" x="121.89" y="0">i</tspan><tspan class="cls-14" x="127.42" y="0">c</tspan><tspan class="cls-2" x="139.28" y="0">o</tspan><tspan x="152.53" y="0">s e </tspan><tspan class="cls-20" x="187.88" y="0">ev</tspan><tspan class="cls-9" x="213.55" y="0">e</tspan><tspan x="226.7" y="0">n</tspan><tspan class="cls-29" x="240.08" y="0">t</tspan><tspan class="cls-2" x="248.4" y="0">o</tspan><tspan x="261.66" y="0">s </tspan></tspan><tspan class="cls-11"><tspan class="cls-2" x="0" y="28.78">d</tspan><tspan x="14.69" y="28.78">a </tspan><tspan class="cls-16" x="34.82" y="28.78">n</tspan><tspan x="47.96" y="28.78">atu</tspan><tspan class="cls-18" x="83.82" y="28.78">r</tspan><tspan class="cls-30" x="92.16" y="28.78">e</tspan><tspan class="cls-1" x="105.19" y="28.78">z</tspan><tspan x="117.08" y="28.78">a</tspan></tspan><tspan class="cls-27"><tspan class="cls-21" x="0" y="71.98">C</tspan><tspan class="cls-26" x="12.13" y="71.98">o</tspan><tspan class="cls-5" x="22.06" y="71.98">b</tspan><tspan class="cls-8" x="32.8" y="71.98">r</tspan><tspan x="38.63" y="71.98">e </tspan><tspan class="cls-23" x="53" y="71.98">d</tspan><tspan x="63.76" y="71.98">a</tspan><tspan class="cls-19" x="74.22" y="71.98">n</tspan><tspan class="cls-23" x="83.69" y="71.98">o</tspan><tspan x="93.71" y="71.98">s </tspan><tspan class="cls-25" x="105.76" y="71.98">c</tspan><tspan x="114.81" y="71.98">au</tspan><tspan class="cls-23" x="134.56" y="71.98">s</tspan><tspan class="cls-19" x="142.23" y="71.98">a</tspan><tspan class="cls-23" x="152.51" y="71.98">do</tspan><tspan x="173.29" y="71.98">s </tspan><tspan class="cls-19" x="185.34" y="71.98">p</tspan><tspan class="cls-5" x="195.98" y="71.98">o</tspan><tspan x="205.97" y="71.98">r </tspan></tspan><tspan class="cls-27"><tspan class="cls-5" x="0" y="93.58">c</tspan><tspan x="9.08" y="93.58">ur</tspan><tspan class="cls-22" x="24.8" y="93.58">t</tspan><tspan x="30.77" y="93.58">o-</tspan><tspan class="cls-3" x="48.77" y="93.58">c</tspan><tspan class="cls-7" x="57.79" y="93.58">i</tspan><tspan class="cls-13" x="61.18" y="93.58">r</tspan><tspan class="cls-5" x="67.01" y="93.58">c</tspan><tspan x="76.1" y="93.58">ui</tspan><tspan class="cls-15" x="88.8" y="93.58">t</tspan><tspan class="cls-19" x="94.77" y="93.58">o</tspan><tspan x="104.67" y="93.58">, </tspan><tspan class="cls-12" x="112.61" y="93.58">v</tspan><tspan x="121.38" y="93.58">a</tspan><tspan class="cls-25" x="131.84" y="93.58">r</tspan><tspan class="cls-5" x="138.16" y="93.58">i</tspan><tspan class="cls-24" x="141.49" y="93.58">a</tspan><tspan class="cls-25" x="151.77" y="93.58">ç</tspan><tspan class="cls-19" x="160.82" y="93.58">õ</tspan><tspan class="cls-23" x="170.72" y="93.58">e</tspan><tspan x="180.71" y="93.58">s </tspan><tspan class="cls-23" x="192.76" y="93.58">d</tspan><tspan x="203.53" y="93.58">e </tspan></tspan><tspan class="cls-27"><tspan class="cls-5" x="0" y="115.18">e</tspan><tspan class="cls-19" x="9.96" y="115.18">n</tspan><tspan class="cls-5" x="19.43" y="115.18">e</tspan><tspan class="cls-8" x="29.39" y="115.18">r</tspan><tspan class="cls-5" x="35.23" y="115.18">gi</tspan><tspan x="49.04" y="115.18">a, </tspan><tspan class="cls-8" x="67.44" y="115.18">r</tspan><tspan x="73.27" y="115.18">a</tspan><tspan class="cls-5" x="83.73" y="115.18">i</tspan><tspan class="cls-4" x="87.06" y="115.18">o</tspan><tspan x="97.07" y="115.18">s e </tspan><tspan class="cls-10" x="123.5" y="115.18">ev</tspan><tspan class="cls-5" x="141.85" y="115.18">e</tspan><tspan x="151.81" y="115.18">n</tspan><tspan class="cls-22" x="161.46" y="115.18">t</tspan><tspan class="cls-23" x="167.43" y="115.18">o</tspan><tspan x="177.44" y="115.18">s </tspan><tspan class="cls-24" x="189.49" y="115.18">n</tspan><tspan x="198.96" y="115.18">atu</tspan><tspan class="cls-13" x="224.92" y="115.18">r</tspan><tspan x="230.75" y="115.18">a</tspan><tspan class="cls-23" x="241.21" y="115.18">i</tspan><tspan class="cls-7" x="244.57" y="115.18">s</tspan><tspan x="252.27" y="115.18">.</tspan></tspan></text>
</svg>