<?xml version="1.0" encoding="UTF-8"?>
<svg id="Layer_1" data-name="Layer 1" xmlns="http://www.w3.org/2000/svg" viewBox="0 0 366.28 305.38">
  <defs>
    <style>
      .cls-1 {
        letter-spacing: -.01em;
      }

      .cls-2 {
        letter-spacing: 0em;
      }

      .cls-3 {
        letter-spacing: 0em;
      }

      .cls-4 {
        letter-spacing: 0em;
      }

      .cls-5 {
        fill: #fff;
      }

      .cls-6 {
        letter-spacing: -.02em;
      }

      .cls-7 {
        letter-spacing: -.03em;
      }

      .cls-8 {
        letter-spacing: 0em;
      }

      .cls-9 {
        letter-spacing: -.01em;
      }

      .cls-10 {
        font-family: UrbanistRoman-Bold, Urbanist;
        font-size: 23.99px;
        font-variation-settings: 'wght' 700;
        font-weight: 700;
      }

      .cls-11 {
        letter-spacing: -.03em;
      }

      .cls-12 {
        letter-spacing: -.03em;
      }

      .cls-13 {
        letter-spacing: 0em;
      }

      .cls-14 {
        letter-spacing: -.01em;
      }

      .cls-15 {
        letter-spacing: -.02em;
      }

      .cls-16 {
        letter-spacing: 0em;
      }

      .cls-17 {
        letter-spacing: -.04em;
      }

      .cls-18 {
        letter-spacing: -.01em;
      }

      .cls-19 {
        letter-spacing: 0em;
      }

      .cls-20 {
        letter-spacing: -.01em;
      }

      .cls-21 {
        letter-spacing: -.04em;
      }

      .cls-22 {
        letter-spacing: 0em;
      }

      .cls-23 {
        letter-spacing: 0em;
      }

      .cls-24 {
        font-family: Urbanist-Regular, Urbanist;
        font-size: 18px;
        font-variation-settings: 'wght' 400;
      }

      .cls-25 {
        fill: #130044;
      }
    </style>
  </defs>
  <rect class="cls-25" x="0" y="0" width="366.28" height="305.38" rx="29.13" ry="29.13"/>
  <path class="cls-5" d="M73.57,68.68l-1.09-1.09c5.75-8.36,5.75-19.54,0-27.9l1.09-1.09c.44-.44.44-1.15,0-1.58l-4.75-4.75c-.44-.44-1.15-.44-1.58,0l-1.09,1.09c-8.36-5.75-19.54-5.75-27.9,0l-1.09-1.09c-.44-.44-1.15-.44-1.58,0l-4.75,4.75c-.44.44-.44,1.15,0,1.58l1.09,1.09c-5.75,8.36-5.76,19.55,0,27.9l-1.09,1.09c-.44.44-.44,1.15,0,1.58l4.75,4.75c.44.44,1.15.44,1.58,0l1.09-1.09c8.34,5.75,19.54,5.75,27.9,0l1.09,1.09c.44.44,1.15.44,1.58,0l4.75-4.75c.44-.44.44-1.15,0-1.58ZM70.86,41.28c4.92,7.45,4.92,17.24,0,24.69l-7.4-7.4c1.37-3.14,1.37-6.72,0-9.88l7.4-7.4ZM68.03,34.63l3.17,3.17-8.86,8.86c-.85-1.24-1.92-2.32-3.17-3.17l8.86-8.86h0ZM64.53,34.96l-7.4,7.4c-3.14-1.37-6.72-1.37-9.88,0l-7.4-7.4c7.44-4.92,17.24-4.92,24.69,0ZM33.19,37.8l3.17-3.17,8.86,8.86c-1.24.85-2.32,1.92-3.17,3.17l-8.86-8.86ZM33.51,65.98c-4.92-7.44-4.92-17.24,0-24.69l7.4,7.4c-1.37,3.14-1.37,6.72,0,9.88l-7.4,7.4h0ZM36.36,72.64l-3.17-3.17,8.86-8.86c.85,1.24,1.92,2.32,3.17,3.17l-8.86,8.86ZM45.07,60.76c-3.93-3.93-3.93-10.32,0-14.25,3.93-3.93,10.32-3.93,14.25,0,3.93,3.93,3.93,10.32,0,14.25-3.94,3.93-10.31,3.93-14.25,0ZM39.86,72.3l7.4-7.4c3.14,1.37,6.72,1.37,9.88,0l7.4,7.4c-7.46,4.92-17.25,4.92-24.69,0ZM68.03,72.64l-8.86-8.86c1.24-.85,2.32-1.92,3.17-3.17l8.86,8.86-3.17,3.17Z"/>
  <text class="cls-5" transform="translate(27.59 119.7)"><tspan class="cls-10"><tspan class="cls-21" x="0" y="0">A</tspan><tspan x="16.45" y="0">s</tspan><tspan class="cls-1" x="26.88" y="0">s</tspan><tspan class="cls-2" x="37.02" y="0">i</tspan><tspan x="42.65" y="0">s</tspan><tspan class="cls-14" x="53.07" y="0">t</tspan><tspan class="cls-1" x="61.39" y="0">ê</tspan><tspan class="cls-13" x="74.54" y="0">n</tspan><tspan class="cls-15" x="87.68" y="0">c</tspan><tspan class="cls-9" x="99.46" y="0">i</tspan><tspan x="104.99" y="0">a e </tspan><tspan class="cls-2" x="144.29" y="0">s</tspan><tspan class="cls-8" x="154.53" y="0">a</tspan><tspan class="cls-1" x="168.96" y="0">l</tspan><tspan class="cls-17" x="174.49" y="0">v</tspan><tspan x="187.58" y="0">a</tspan><tspan class="cls-13" x="201.95" y="0">m</tspan><tspan class="cls-1" x="223.02" y="0">e</tspan><tspan x="236.17" y="0">n</tspan><tspan class="cls-14" x="249.55" y="0">t</tspan><tspan x="257.88" y="0">o</tspan></tspan><tspan class="cls-24"><tspan class="cls-6" x="0" y="43.2">R</tspan><tspan class="cls-4" x="9.7" y="43.2">e</tspan><tspan x="19.67" y="43.2">mu</tspan><tspan class="cls-16" x="44.95" y="43.2">n</tspan><tspan class="cls-4" x="54.41" y="43.2">e</tspan><tspan class="cls-7" x="64.38" y="43.2">r</tspan><tspan class="cls-16" x="70.21" y="43.2">a</tspan><tspan class="cls-22" x="80.49" y="43.2">ç</tspan><tspan class="cls-20" x="89.54" y="43.2">ã</tspan><tspan x="99.82" y="43.2">o </tspan><tspan class="cls-16" x="114.22" y="43.2">o</tspan><tspan x="124.12" y="43.2">u </tspan><tspan class="cls-7" x="137.73" y="43.2">r</tspan><tspan class="cls-16" x="143.56" y="43.2">e</tspan><tspan class="cls-22" x="153.43" y="43.2">c</tspan><tspan class="cls-4" x="162.49" y="43.2">o</tspan><tspan x="172.48" y="43.2">m</tspan><tspan class="cls-20" x="188.47" y="43.2">p</tspan><tspan class="cls-4" x="199.11" y="43.2">e</tspan><tspan x="209.07" y="43.2">n</tspan><tspan class="cls-3" x="218.72" y="43.2">s</tspan><tspan x="226.39" y="43.2">a </tspan></tspan><tspan class="cls-24"><tspan class="cls-19" x="0" y="64.8">d</tspan><tspan class="cls-11" x="10.76" y="64.8">e</tspan><tspan class="cls-22" x="20.34" y="64.8">v</tspan><tspan class="cls-4" x="29.48" y="64.8">i</tspan><tspan class="cls-19" x="32.81" y="64.8">d</tspan><tspan x="43.57" y="64.8">a a </tspan><tspan class="cls-22" x="73.12" y="64.8">q</tspan><tspan class="cls-19" x="83.83" y="64.8">u</tspan><tspan class="cls-4" x="93.05" y="64.8">e</tspan><tspan x="103.01" y="64.8">m at</tspan><tspan class="cls-19" x="139.99" y="64.8">u</tspan><tspan x="149.22" y="64.8">ar </tspan><tspan class="cls-4" x="170.43" y="64.8">e</tspan><tspan x="180.39" y="64.8">m </tspan><tspan class="cls-12" x="200.71" y="64.8">r</tspan><tspan class="cls-19" x="206.54" y="64.8">es</tspan><tspan class="cls-4" x="224.2" y="64.8">g</tspan><tspan x="234.68" y="64.8">a</tspan><tspan class="cls-18" x="245.14" y="64.8">t</tspan><tspan x="251.11" y="64.8">e </tspan></tspan><tspan class="cls-24"><tspan class="cls-19" x="0" y="86.4">d</tspan><tspan x="10.76" y="86.4">o </tspan><tspan class="cls-19" x="25.16" y="86.4">s</tspan><tspan class="cls-16" x="32.83" y="86.4">e</tspan><tspan class="cls-22" x="42.7" y="86.4">g</tspan><tspan x="53.16" y="86.4">u</tspan><tspan class="cls-7" x="62.45" y="86.4">r</tspan><tspan class="cls-16" x="68.28" y="86.4">a</tspan><tspan class="cls-19" x="78.56" y="86.4">d</tspan><tspan class="cls-20" x="89.32" y="86.4">o</tspan><tspan class="cls-23" x="99.22" y="86.4">.</tspan></tspan></text>
</svg>