<?xml version="1.0" encoding="UTF-8"?>
<svg id="Layer_1" data-name="Layer 1" xmlns="http://www.w3.org/2000/svg" viewBox="0 0 366.28 305.38">
  <defs>
    <style>
      .cls-1 {
        letter-spacing: 0em;
      }

      .cls-2 {
        letter-spacing: -.05em;
      }

      .cls-3 {
        letter-spacing: -.01em;
      }

      .cls-4 {
        letter-spacing: -.02em;
      }

      .cls-5 {
        font-family: UrbanistRoman-Bold, Urbanist;
        font-size: 23.99px;
        font-variation-settings: 'wght' 700;
        font-weight: 700;
      }

      .cls-5, .cls-6 {
        fill: #130044;
      }

      .cls-7 {
        letter-spacing: -.02em;
      }
    </style>
  </defs>
  <path class="cls-6" d="M337.15,8.99c11.1,0,20.14,9.03,20.14,20.14v247.12c0,11.1-9.03,20.14-20.14,20.14H29.13c-11.1,0-20.14-9.03-20.14-20.14V29.13c0-11.1,9.03-20.14,20.14-20.14h308.02M337.15,0H29.13C13.11,0,0,13.11,0,29.13v247.12c0,16.02,13.11,29.13,29.13,29.13h308.02c16.02,0,29.13-13.11,29.13-29.13V29.13C366.28,13.11,353.18,0,337.15,0h0Z"/>
  <text class="cls-5" transform="translate(27.59 274.19)"><tspan class="cls-2" x="0" y="0">A</tspan><tspan class="cls-7" x="16.29" y="0">c</tspan><tspan class="cls-1" x="28.15" y="0">e</tspan><tspan x="41.39" y="0">s</tspan><tspan class="cls-1" x="51.81" y="0">s</tspan><tspan class="cls-3" x="62.05" y="0">ó</tspan><tspan class="cls-4" x="75.21" y="0">r</tspan><tspan class="cls-3" x="84.07" y="0">i</tspan><tspan class="cls-1" x="89.6" y="0">o</tspan><tspan x="102.86" y="0">s</tspan></text>
  <polygon class="cls-6" points="338.69 262.6 330.04 262.6 330.04 253.95 324.38 253.95 324.38 262.6 315.73 262.6 315.73 268.27 324.38 268.27 324.38 276.92 330.04 276.92 330.04 268.27 338.69 268.27 338.69 262.6"/>
  <g>
    <path class="cls-6" d="M64.39,38.17c-3.67-3.95-8.77-6.13-14.37-6.13h-1.52c-11.27,0-20.48,8.97-20.89,20.14,0,.04-.02.07-.02.11v10.14s0,.04.01.05c.06,5.01,1.9,9.82,5.21,13.58.18.2.43.31.69.31.08,0,.16-.01.24-.03l33.61-9.18c.31-.09.56-.33.65-.64.38-1.36.62-2.76.73-4.15l.7-9.4c.42-5.59-1.37-10.84-5.04-14.8ZM29.44,53.07l19.2-3.21c1.56-.26,2.81.03,3.41.79.6.76.6,2.04-.02,3.5l-3.01,7.14-19.59.21v-8.43ZM67.59,52.83l-.7,9.4c-.08,1.1-.26,2.21-.53,3.29l-32.53,8.89c-2.6-3.13-4.11-7.01-4.34-11.07l20.16-.22c.37,0,.7-.23.84-.56l3.24-7.69c.9-2.13.81-4.03-.23-5.36-1.05-1.33-2.88-1.84-5.16-1.46l-18.81,3.14c.89-9.69,9.06-17.3,18.97-17.3h1.52c5.08,0,9.7,1.97,13.02,5.54,3.32,3.58,4.94,8.34,4.56,13.41Z"/>
    <path class="cls-6" d="M59.86,52.32c-2.03,0-3.69,1.65-3.69,3.69s1.65,3.69,3.69,3.69,3.69-1.65,3.69-3.69-1.65-3.69-3.69-3.69ZM59.86,57.86c-1.02,0-1.84-.83-1.84-1.84s.83-1.84,1.84-1.84,1.84.83,1.84,1.84-.83,1.84-1.84,1.84Z"/>
    <path class="cls-6" d="M50.37,51.67c-.36-.36-.94-.36-1.3,0l-2.77,2.77c-.36.36-.36.94,0,1.3.18.18.42.27.65.27s.47-.09.65-.27l2.77-2.77c.36-.36.36-.94,0-1.3Z"/>
    <path class="cls-6" d="M65.91,68.42l-29.31,8c-.49.13-.78.64-.65,1.13.11.41.48.68.89.68.08,0,.16-.01.24-.03l29.31-8c.49-.13.78-.64.65-1.13-.13-.49-.64-.78-1.13-.65Z"/>
  </g>
</svg>