<?xml version="1.0" encoding="UTF-8"?>
<svg id="Layer_1" data-name="Layer 1" xmlns="http://www.w3.org/2000/svg" viewBox="0 0 366.28 305.38">
  <defs>
    <style>
      .cls-1 {
        letter-spacing: 0em;
      }

      .cls-2 {
        letter-spacing: -.02em;
      }

      .cls-3 {
        letter-spacing: 0em;
      }

      .cls-4 {
        letter-spacing: -.04em;
      }

      .cls-5 {
        letter-spacing: 0em;
      }

      .cls-6 {
        letter-spacing: -.01em;
      }

      .cls-7 {
        font-family: UrbanistRoman-Bold, Urbanist;
        font-size: 23.99px;
        font-variation-settings: 'wght' 700;
        font-weight: 700;
      }

      .cls-7, .cls-8 {
        fill: #130044;
      }

      .cls-9 {
        letter-spacing: -.01em;
      }

      .cls-10 {
        letter-spacing: -.04em;
      }

      .cls-11 {
        letter-spacing: -.01em;
      }

      .cls-12 {
        letter-spacing: -.01em;
      }
    </style>
  </defs>
  <path class="cls-8" d="M337.15,8.99c11.1,0,20.14,9.03,20.14,20.14v247.12c0,11.1-9.03,20.14-20.14,20.14H29.13c-11.1,0-20.14-9.03-20.14-20.14V29.13c0-11.1,9.03-20.14,20.14-20.14h308.02M337.15,0H29.13C13.11,0,0,13.11,0,29.13v247.12C0,292.27,13.11,305.38,29.13,305.38h308.02c16.02,0,29.13-13.11,29.13-29.13V29.13c0-16.02-13.11-29.13-29.13-29.13h0Z"/>
  <text class="cls-7" transform="translate(27.59 274.19)"><tspan class="cls-10" x="0" y="0">A</tspan><tspan x="16.46" y="0">s</tspan><tspan class="cls-6" x="26.88" y="0">s</tspan><tspan class="cls-1" x="37.02" y="0">i</tspan><tspan x="42.65" y="0">s</tspan><tspan class="cls-12" x="53.07" y="0">t</tspan><tspan class="cls-6" x="61.39" y="0">ê</tspan><tspan class="cls-11" x="74.54" y="0">n</tspan><tspan class="cls-2" x="87.68" y="0">c</tspan><tspan class="cls-9" x="99.46" y="0">i</tspan><tspan x="104.99" y="0">a e </tspan><tspan class="cls-1" x="144.29" y="0">s</tspan><tspan class="cls-5" x="154.53" y="0">a</tspan><tspan class="cls-6" x="168.96" y="0">l</tspan><tspan class="cls-4" x="174.49" y="0">v</tspan><tspan x="187.59" y="0">a</tspan><tspan class="cls-3" x="201.96" y="0">m</tspan><tspan class="cls-6" x="223.03" y="0">e</tspan><tspan x="236.17" y="0">n</tspan><tspan class="cls-12" x="249.56" y="0">t</tspan><tspan x="257.88" y="0">o</tspan></text>
  <polygon class="cls-8" points="338.69 262.6 330.04 262.6 330.04 253.95 324.38 253.95 324.38 262.6 315.73 262.6 315.73 268.27 324.38 268.27 324.38 276.92 330.04 276.92 330.04 268.27 338.69 268.27 338.69 262.6"/>
  <path class="cls-8" d="M73.57,68.68l-1.09-1.09c5.75-8.36,5.75-19.54,0-27.9l1.09-1.09c.44-.44.44-1.15,0-1.58l-4.75-4.75c-.44-.44-1.15-.44-1.58,0l-1.09,1.09c-8.36-5.75-19.54-5.75-27.9,0l-1.09-1.09c-.44-.44-1.15-.44-1.58,0l-4.75,4.75c-.44.44-.44,1.15,0,1.58l1.09,1.09c-5.75,8.36-5.76,19.55,0,27.9l-1.09,1.09c-.44.44-.44,1.15,0,1.58l4.75,4.75c.44.44,1.15.44,1.58,0l1.09-1.09c8.34,5.75,19.54,5.75,27.9,0l1.09,1.09c.44.44,1.15.44,1.58,0l4.75-4.75c.44-.44.44-1.15,0-1.58ZM70.86,41.28c4.92,7.45,4.92,17.24,0,24.69l-7.4-7.4c1.37-3.14,1.37-6.72,0-9.88l7.4-7.4ZM68.03,34.63l3.17,3.17-8.86,8.86c-.85-1.24-1.92-2.32-3.17-3.17l8.86-8.86h0ZM64.53,34.96l-7.4,7.4c-3.14-1.37-6.72-1.37-9.88,0l-7.4-7.4c7.44-4.92,17.24-4.92,24.69,0ZM33.19,37.8l3.17-3.17,8.86,8.86c-1.24.85-2.32,1.92-3.17,3.17l-8.86-8.86ZM33.51,65.98c-4.92-7.44-4.92-17.24,0-24.69l7.4,7.4c-1.37,3.14-1.37,6.72,0,9.88l-7.4,7.4h0ZM36.36,72.64l-3.17-3.17,8.86-8.86c.85,1.24,1.92,2.32,3.17,3.17l-8.86,8.86ZM45.07,60.76c-3.93-3.93-3.93-10.32,0-14.25,3.93-3.93,10.32-3.93,14.25,0,3.93,3.93,3.93,10.32,0,14.25-3.94,3.93-10.31,3.93-14.25,0ZM39.86,72.3l7.4-7.4c3.14,1.37,6.72,1.37,9.88,0l7.4,7.4c-7.46,4.92-17.25,4.92-24.69,0ZM68.03,72.64l-8.86-8.86c1.24-.85,2.32-1.92,3.17-3.17l8.86,8.86-3.17,3.17Z"/>
</svg>