<?xml version="1.0" encoding="UTF-8"?>
<svg id="Layer_1" data-name="Layer 1" xmlns="http://www.w3.org/2000/svg" viewBox="0 0 366.28 305.38">
  <defs>
    <style>
      .cls-1 {
        letter-spacing: -.01em;
      }

      .cls-2 {
        letter-spacing: 0em;
      }

      .cls-3 {
        letter-spacing: 0em;
      }

      .cls-4 {
        letter-spacing: 0em;
      }

      .cls-5 {
        fill: #fff;
      }

      .cls-6 {
        letter-spacing: -.01em;
      }

      .cls-7 {
        letter-spacing: 0em;
      }

      .cls-8 {
        letter-spacing: -.03em;
      }

      .cls-9 {
        letter-spacing: -.01em;
      }

      .cls-10 {
        font-family: UrbanistRoman-Bold, Urbanist;
        font-size: 23.99px;
        font-variation-settings: 'wght' 700;
        font-weight: 700;
      }

      .cls-11 {
        letter-spacing: -.02em;
      }

      .cls-12 {
        letter-spacing: 0em;
      }

      .cls-13 {
        letter-spacing: .01em;
      }

      .cls-14 {
        letter-spacing: -.02em;
      }

      .cls-15 {
        letter-spacing: 0em;
      }

      .cls-16 {
        letter-spacing: 0em;
      }

      .cls-17 {
        letter-spacing: 0em;
      }

      .cls-18 {
        letter-spacing: -.01em;
      }

      .cls-19 {
        letter-spacing: 0em;
      }

      .cls-20 {
        letter-spacing: -.01em;
      }

      .cls-21 {
        letter-spacing: -.03em;
      }

      .cls-22 {
        letter-spacing: 0em;
      }

      .cls-23 {
        font-family: Urbanist-Regular, Urbanist;
        font-size: 18px;
        font-variation-settings: 'wght' 400;
      }

      .cls-24 {
        fill: #130044;
      }
    </style>
  </defs>
  <rect class="cls-24" x="0" y="0" width="366.28" height="305.38" rx="29.13" ry="29.13"/>
  <path class="cls-5" d="M72.29,78.23h-12.96c-.83,0-1.5-.67-1.5-1.5s.67-1.5,1.5-1.5h11.46v-1.38c0-.83.67-1.5,1.5-1.5s1.5.67,1.5,1.5v2.88c0,.83-.67,1.5-1.5,1.5ZM44.93,78.23c-9.56,0-17.34-7.78-17.34-17.34s7.78-17.34,17.34-17.34,17.34,7.78,17.34,17.34-7.78,17.34-17.34,17.34ZM44.93,46.55c-7.91,0-14.34,6.43-14.34,14.34s6.43,14.34,14.34,14.34,14.34-6.43,14.34-14.34-6.43-14.34-14.34-14.34ZM44.93,72.47c-.83,0-1.5-.67-1.5-1.5v-.14c-2.48-.66-4.32-2.93-4.32-5.62,0-.83.67-1.5,1.5-1.5s1.5.67,1.5,1.5c0,1.56,1.27,2.82,2.82,2.82s2.82-1.27,2.82-2.82-1.27-2.82-2.82-2.82c-3.21,0-5.82-2.61-5.82-5.82,0-2.69,1.84-4.96,4.32-5.62v-.14c0-.83.67-1.5,1.5-1.5s1.5.67,1.5,1.5v.14c2.48.66,4.32,2.93,4.32,5.62,0,.83-.67,1.5-1.5,1.5s-1.5-.67-1.5-1.5c0-1.56-1.27-2.82-2.82-2.82s-2.82,1.27-2.82,2.82,1.27,2.82,2.82,2.82c3.21,0,5.82,2.61,5.82,5.82,0,2.69-1.84,4.96-4.32,5.62v.14c0,.83-.67,1.5-1.5,1.5ZM72.29,71.03h-8.64c-.83,0-1.5-.67-1.5-1.5s.67-1.5,1.5-1.5h7.14v-1.38c0-.83.67-1.5,1.5-1.5s1.5.67,1.5,1.5v2.88c0,.83-.67,1.5-1.5,1.5ZM72.29,63.83h-7.2c-.83,0-1.5-.67-1.5-1.5s.67-1.5,1.5-1.5h5.7v-1.38c0-.83.67-1.5,1.5-1.5s1.5.67,1.5,1.5v2.88c0,.83-.67,1.5-1.5,1.5ZM72.29,56.63h-7.2c-.83,0-1.5-.67-1.5-1.5s.67-1.5,1.5-1.5h5.7v-1.38c0-.83.67-1.5,1.5-1.5s1.5.67,1.5,1.5v2.88c0,.83-.67,1.5-1.5,1.5ZM72.29,49.43h-11.52c-.83,0-1.5-.67-1.5-1.5s.67-1.5,1.5-1.5h10.02v-1.38c0-.83.67-1.5,1.5-1.5s1.5.67,1.5,1.5v2.88c0,.83-.67,1.5-1.5,1.5ZM72.29,42.23h-30.24c-.83,0-1.5-.67-1.5-1.5s.67-1.5,1.5-1.5h28.74v-4.21h-31.57v5.7c0,.83-.67,1.5-1.5,1.5s-1.5-.67-1.5-1.5v-7.2c0-.83.67-1.5,1.5-1.5h34.56c.83,0,1.5.67,1.5,1.5v7.2c0,.83-.67,1.5-1.5,1.5Z"/>
  <text class="cls-5" transform="translate(27.59 119.7)"><tspan class="cls-10"><tspan class="cls-21" x="0" y="0">B</tspan><tspan class="cls-1" x="13.44" y="0">e</tspan><tspan class="cls-12" x="26.59" y="0">n</tspan><tspan x="39.73" y="0">e</tspan><tspan class="cls-2" x="53.15" y="0">f</tspan><tspan class="cls-9" x="61.72" y="0">í</tspan><tspan class="cls-14" x="67.25" y="0">c</tspan><tspan class="cls-1" x="79.02" y="0">i</tspan><tspan class="cls-2" x="84.55" y="0">o</tspan><tspan x="97.8" y="0">s </tspan><tspan class="cls-2" x="113.98" y="0">fis</tspan><tspan class="cls-11" x="138.41" y="0">c</tspan><tspan x="150.27" y="0">a</tspan><tspan class="cls-2" x="164.64" y="0">i</tspan><tspan x="170.27" y="0">s</tspan></tspan><tspan class="cls-23"><tspan class="cls-17" x="0" y="43.2">P</tspan><tspan class="cls-19" x="9.45" y="43.2">l</tspan><tspan x="12.81" y="43.2">a</tspan><tspan class="cls-15" x="23.26" y="43.2">ne</tspan><tspan class="cls-4" x="42.61" y="43.2">j</tspan><tspan x="46.48" y="43.2">e o </tspan><tspan class="cls-13" x="75.26" y="43.2">f</tspan><tspan x="81.5" y="43.2">utu</tspan><tspan class="cls-8" x="106.29" y="43.2">r</tspan><tspan x="112.12" y="43.2">o </tspan><tspan class="cls-19" x="126.52" y="43.2">do</tspan><tspan x="147.3" y="43.2">s </tspan><tspan class="cls-3" x="159.35" y="43.2">s</tspan><tspan class="cls-20" x="167.02" y="43.2">e</tspan><tspan x="176.89" y="43.2">us </tspan><tspan class="cls-19" x="198.23" y="43.2">f</tspan><tspan class="cls-16" x="204.17" y="43.2">i</tspan><tspan x="207.65" y="43.2">l</tspan><tspan class="cls-15" x="211.07" y="43.2">h</tspan><tspan class="cls-19" x="220.54" y="43.2">o</tspan><tspan x="230.56" y="43.2">s e </tspan></tspan><tspan class="cls-23"><tspan class="cls-15" x="0" y="64.8">h</tspan><tspan class="cls-4" x="9.47" y="64.8">e</tspan><tspan class="cls-8" x="19.43" y="64.8">r</tspan><tspan class="cls-19" x="25.26" y="64.8">d</tspan><tspan class="cls-15" x="36.03" y="64.8">e</tspan><tspan class="cls-7" x="45.9" y="64.8">i</tspan><tspan class="cls-8" x="49.29" y="64.8">r</tspan><tspan class="cls-19" x="55.12" y="64.8">o</tspan><tspan x="65.14" y="64.8">s </tspan><tspan class="cls-19" x="77.19" y="64.8">d</tspan><tspan x="87.96" y="64.8">e </tspan><tspan class="cls-6" x="102.33" y="64.8">f</tspan><tspan class="cls-4" x="108.13" y="64.8">or</tspan><tspan class="cls-20" x="124.46" y="64.8">m</tspan><tspan x="140.27" y="64.8">a </tspan><tspan class="cls-4" x="155.05" y="64.8">s</tspan><tspan class="cls-7" x="162.69" y="64.8">i</tspan><tspan x="166.09" y="64.8">m</tspan><tspan class="cls-22" x="182.08" y="64.8">p</tspan><tspan class="cls-19" x="192.74" y="64.8">le</tspan><tspan x="206.09" y="64.8">s e </tspan></tspan><tspan class="cls-23"><tspan x="0" y="86.4">e</tspan><tspan class="cls-19" x="10.05" y="86.4">f</tspan><tspan class="cls-4" x="15.99" y="86.4">i</tspan><tspan class="cls-22" x="19.32" y="86.4">c</tspan><tspan class="cls-4" x="28.34" y="86.4">ie</tspan><tspan x="41.63" y="86.4">n</tspan><tspan class="cls-18" x="51.28" y="86.4">t</tspan><tspan class="cls-20" x="57.25" y="86.4">e</tspan><tspan x="67.12" y="86.4">.</tspan></tspan></text>
</svg>