<?xml version="1.0" encoding="UTF-8"?>
<svg id="Layer_1" data-name="Layer 1" xmlns="http://www.w3.org/2000/svg" viewBox="0 0 366.28 305.38">
  <defs>
    <style>
      .cls-1 {
        letter-spacing: 0em;
      }

      .cls-2 {
        letter-spacing: -.03em;
      }

      .cls-3 {
        letter-spacing: -.04em;
      }

      .cls-4 {
        letter-spacing: -.02em;
      }

      .cls-5 {
        font-family: UrbanistRoman-Bold, Urbanist;
        font-size: 23.99px;
        font-variation-settings: 'wght' 700;
        font-weight: 700;
      }

      .cls-5, .cls-6 {
        fill: #130044;
      }

      .cls-7 {
        letter-spacing: 0em;
      }

      .cls-8 {
        letter-spacing: -.01em;
      }
    </style>
  </defs>
  <path class="cls-6" d="M337.15,8.99c11.1,0,20.13,9.03,20.13,20.14v247.12c0,11.1-9.03,20.14-20.13,20.14H29.13c-11.1,0-20.14-9.03-20.14-20.14V29.13c0-11.1,9.03-20.14,20.14-20.14h308.02M337.15,0H29.13C13.11,0,0,13.11,0,29.13v247.12c0,16.02,13.11,29.13,29.13,29.13h308.02c16.02,0,29.13-13.11,29.13-29.13V29.13c0-16.02-13.11-29.13-29.13-29.13h0Z"/>
  <text class="cls-5" transform="translate(27.59 274.19)"><tspan class="cls-4" x="0" y="0">P</tspan><tspan class="cls-3" x="12.72" y="0">r</tspan><tspan class="cls-8" x="21.06" y="0">ót</tspan><tspan class="cls-1" x="42.55" y="0">ese</tspan><tspan x="79.28" y="0">s </tspan><tspan class="cls-2" x="95.45" y="0">R</tspan><tspan class="cls-7" x="109.27" y="0">O</tspan><tspan x="127.52" y="0">L</tspan></text>
  <polygon class="cls-6" points="338.69 262.6 330.04 262.6 330.04 253.95 324.38 253.95 324.38 262.6 315.73 262.6 315.73 268.27 324.38 268.27 324.38 276.92 330.04 276.92 330.04 268.27 338.69 268.27 338.69 262.6"/>
  <path class="cls-6" d="M64.06,35.61c-2.06-2.31-4.89-3.58-7.98-3.58-2.42,0-5.01,1.43-6.9,2.47-.63.35-1.56.91-1.84.91-.27,0-1.2-.56-1.83-.91-1.89-1.04-4.47-2.47-6.91-2.47-3.09,0-5.92,1.27-7.98,3.58-1.96,2.19-3.03,5.07-3.03,8.12,0,1.96.36,4.27.93,6.88.53,2.46,2.22,4.53,5.78,6.1,1.08.47,3.01.84,3.35,1.19.42.42.86,1.92.86,1.92,0,0,.1.35-.05.35-.82,0-1.49.67-1.49,1.49s.67,1.49,1.49,1.49h.96c.19,0,.25.19.25.19l.52,1.59s.04.29-.3.29c-.82,0-1.49.67-1.49,1.49s.67,1.49,1.49,1.49h1.18c.22,0,.29.17.29.17l.6,1.8s.03.11-.1.11h-.54c-.82,0-1.49.67-1.49,1.49s.67,1.49,1.49,1.49h1.49c.2,0,.23.16.23.16l.92,2.75h0c.55,1.36,1.66,2.04,3.3,2.04h.09c1.64,0,2.75-.68,3.31-2.03,0,0,.69-2.1.95-2.8.05-.14.14-.12.14-.12h1.61c.82,0,1.49-.67,1.49-1.49s-.4-1.49-1.49-1.49c-.23,0-.45,0-.55,0-.15,0-.06-.26-.06-.26l.55-1.65s.03-.17.19-.17h1.31c.82,0,1.49-.67,1.49-1.49s-.6-1.49-1.42-1.49c-.17,0-.24,0-.3,0-.18,0-.08-.2-.08-.2,0,0,.39-1.29.56-1.78.04-.11.15-.1.15-.1h1.03c.82,0,1.49-.67,1.49-1.49s-.67-1.49-1.49-1.49c-.13,0-.11-.17-.08-.26.13-.54.39-1.66.87-2.02.45-.33,2.28-.73,3.33-1.19,3.49-1.53,5.31-3.85,5.77-5.96.58-2.67.99-5.08.99-7.02,0-3.04-1.08-5.93-3.03-8.12ZM48.92,75.5c-.33.79-1.31.85-1.61.85s-1.28-.06-1.61-.85l-.71-2.13s-.02-.1.12-.1h4.48c.08,0,.06.05.06.05l-.74,2.17ZM50.63,70.3h-6.57c-.1,0-.12-.1-.12-.1l-.64-1.9s-.01-.08.12-.08h7.89c.07,0,.06.06.06.06l-.67,1.99s-.02.03-.06.03ZM52.43,65.17s-.02.07-.09.07h-9.95c-.11,0-.13-.07-.13-.07l-.63-1.89s-.04-.12.12-.12c3.1,0,8.44,0,11.25,0,.1,0,.07.08.07.08l-.65,1.93ZM53.91,60.18c-3.3,0-13.16,0-13.16,0,0,0-.1,0-.15-.1-.14-.29-.41-1.01-.52-1.43-.06-.23.16-.16.16-.16,2.31.44,4.53.62,7.07.62s4.9-.19,7.23-.65c0,0,.16-.03.13.08-.13.35-.38,1.11-.5,1.47-.04.11-.15.18-.27.18ZM64.45,50.17c-.08.35-.33.98-.47,1.34-.49,1.33-2.17,2.53-4.4,3.51-1.14.5-2.44.93-3.85,1.28l-.25.06c-2.49.58-5.31.89-8.18.89s-5.54-.29-7.98-.84l-.24-.06c-1.49-.35-2.85-.8-4.06-1.33-2.19-.96-3.96-2.3-4.49-3.58-.17-.41-.45-1.41-.45-1.41-.57-2.43-.65-4.53-.65-6.29,0-4.84,3.43-9.84,9.16-9.84,1.49,0,3.45.68,5.25,1.82.26.17.64.45,1,.73.14.11.29.22.42.32.43.32,1.01.74,1.69,1.14.36.21.68.4,1.04.55,1.47.62,3.03.94,4.63.94s3.65-.4,3.62-.62c-.03-.23-3.38-.23-5.61-.82-.89-.24-1.9-.62-1.9-.83,0-.22.32-.4.56-.55.22-.13.46-.28.77-.45,1.71-.95,4.06-2.24,6-2.24,5.74,0,9.16,5,9.16,9.84,0,1.74-.23,3.98-.79,6.44Z"/>
</svg>