<?xml version="1.0" encoding="UTF-8"?>
<svg id="Layer_1" data-name="Layer 1" xmlns="http://www.w3.org/2000/svg" viewBox="0 0 366.28 305.38">
  <defs>
    <style>
      .cls-1 {
        letter-spacing: 0em;
      }

      .cls-2 {
        letter-spacing: 0em;
      }

      .cls-3 {
        letter-spacing: -.01em;
      }

      .cls-4 {
        letter-spacing: -.04em;
      }

      .cls-5 {
        letter-spacing: 0em;
      }

      .cls-6 {
        letter-spacing: -.02em;
      }

      .cls-7 {
        letter-spacing: -.04em;
      }

      .cls-8 {
        font-family: UrbanistRoman-Bold, Urbanist;
        font-size: 23.99px;
        font-variation-settings: 'wght' 700;
        font-weight: 700;
      }

      .cls-8, .cls-9 {
        fill: #130044;
      }
    </style>
  </defs>
  <path class="cls-9" d="M337.15,8.99c11.1,0,20.14,9.03,20.14,20.14v247.12c0,11.1-9.03,20.13-20.14,20.13H29.13c-11.1,0-20.14-9.03-20.14-20.13V29.13c0-11.1,9.03-20.14,20.14-20.14h308.02M337.15,0H29.13C13.11,0,0,13.11,0,29.13v247.12c0,16.02,13.11,29.13,29.13,29.13h308.02c16.02,0,29.13-13.11,29.13-29.13V29.13c0-16.02-13.11-29.13-29.13-29.13h0Z"/>
  <text class="cls-8" transform="translate(27.59 274.19)"><tspan class="cls-7" x="0" y="0">V</tspan><tspan class="cls-3" x="16.89" y="0">i</tspan><tspan class="cls-2" x="22.42" y="0">d</tspan><tspan class="cls-4" x="37.29" y="0">r</tspan><tspan class="cls-1" x="45.62" y="0">o</tspan><tspan x="58.88" y="0">s e </tspan><tspan class="cls-1" x="94.23" y="0">e</tspan><tspan x="107.47" y="0">s</tspan><tspan class="cls-5" x="117.89" y="0">p</tspan><tspan class="cls-6" x="132.5" y="0">e</tspan><tspan x="145.47" y="0">l</tspan><tspan class="cls-5" x="151.27" y="0">h</tspan><tspan class="cls-1" x="164.41" y="0">o</tspan><tspan x="177.67" y="0">s</tspan></text>
  <polygon class="cls-9" points="338.69 262.6 330.04 262.6 330.04 253.95 324.38 253.95 324.38 262.6 315.73 262.6 315.73 268.27 324.38 268.27 324.38 276.92 330.04 276.92 330.04 268.27 338.69 268.27 338.69 262.6"/>
  <g>
    <path class="cls-9" d="M27.59,52.98v-20.95h16.62v1.41c-.02,8.73-5.89,16.5-14.28,18.91l-.56.15-1.77.48ZM30.41,34.86v14.38c6.08-2.28,10.36-7.92,10.92-14.38h-10.92Z"/>
    <path class="cls-9" d="M44.21,78.23h-16.61v-29.47l2.11,1.21c8.94,5.11,14.5,14.69,14.51,24.99v3.27ZM30.41,75.41h10.98v-.45c0-8.46-4.16-16.37-10.98-21.21v21.66Z"/>
    <path class="cls-9" d="M73.78,52.98l-2.33-.63c-8.39-2.4-14.26-10.18-14.28-18.91v-1.41s16.61,0,16.61,0v20.95ZM60.05,34.86c.56,6.46,4.84,12.1,10.92,14.38v-14.38h-10.92Z"/>
    <path class="cls-9" d="M73.78,78.23h-16.61v-3.27c0-10.3,5.56-19.88,14.51-25l2.11-1.21v29.47ZM59.99,75.41h10.98v-21.66c-6.82,4.84-10.98,12.75-10.98,21.21v.45Z"/>
    <path class="cls-9" d="M73.78,78.23H27.59v-46.19h46.19v46.19ZM30.41,75.41h40.56v-40.56H30.41v40.56Z"/>
    <rect class="cls-9" x="34.91" y="53.73" width="31.56" height="2.82"/>
    <rect class="cls-9" x="49.28" y="33.45" width="2.82" height="43.37"/>
  </g>
</svg>