<?xml version="1.0" encoding="UTF-8"?>
<svg id="Layer_1" data-name="Layer 1" xmlns="http://www.w3.org/2000/svg" viewBox="0 0 366.28 305.38">
  <defs>
    <style>
      .cls-1 {
        letter-spacing: 0em;
      }

      .cls-2 {
        letter-spacing: 0em;
      }

      .cls-3 {
        letter-spacing: 0em;
      }

      .cls-4 {
        letter-spacing: 0em;
      }

      .cls-5 {
        fill: #fff;
      }

      .cls-6 {
        letter-spacing: 0em;
      }

      .cls-7 {
        letter-spacing: -.04em;
      }

      .cls-8 {
        letter-spacing: -.03em;
      }

      .cls-9 {
        letter-spacing: 0em;
      }

      .cls-10 {
        letter-spacing: -.03em;
      }

      .cls-11 {
        letter-spacing: -.01em;
      }

      .cls-12 {
        letter-spacing: -.02em;
      }

      .cls-13 {
        letter-spacing: 0em;
      }

      .cls-14 {
        letter-spacing: -.02em;
      }

      .cls-15 {
        letter-spacing: -.01em;
      }

      .cls-16 {
        letter-spacing: -.01em;
      }

      .cls-17 {
        letter-spacing: 0em;
      }

      .cls-18 {
        letter-spacing: 0em;
      }

      .cls-19 {
        letter-spacing: -.01em;
      }

      .cls-20 {
        letter-spacing: 0em;
      }

      .cls-21 {
        letter-spacing: -.02em;
      }

      .cls-22 {
        font-family: Urbanist-Regular, Urbanist;
        font-size: 18px;
        font-variation-settings: 'wght' 400;
      }

      .cls-23 {
        letter-spacing: 0em;
      }

      .cls-24 {
        letter-spacing: 0em;
      }

      .cls-25 {
        letter-spacing: -.02em;
      }

      .cls-26 {
        fill: #130044;
      }

      .cls-27 {
        font-family: UrbanistRoman-Bold, Urbanist;
        font-size: 22px;
        font-variation-settings: 'wght' 700;
        font-weight: 700;
      }
    </style>
  </defs>
  <rect class="cls-26" x="0" y="0" width="366.28" height="305.38" rx="29.13" ry="29.13"/>
  <path class="cls-5" d="M30.35,37.12c-.17-.57-.06-1.18.3-1.65s.9-.75,1.5-.75c.83,0,1.55.53,1.79,1.33l5.46,17.88c.17.56.69.95,1.28.95h20.48c1.24,0,2.26,1.01,2.26,2.26v5.47h-10.11c-1.76-3.74-5.55-6.33-9.95-6.33-6.06,0-10.99,4.93-10.99,10.99,0,6.06,4.93,10.99,10.99,10.99,6.06,0,10.99-4.93,10.99-10.99,0-.68-.06-1.34-.18-1.98h9.25v6.2c-.02.21-.03.42-.03.63,0,3.38,2.75,6.14,6.14,6.14,3.38,0,6.14-2.75,6.14-6.14s-2.75-6.14-6.14-6.14c-1.27,0-2.45.39-3.43,1.05v-5.76s0,0,0,0v-4.13c0-2.72-2.21-4.93-4.93-4.93h-19.49s-1.99-6.5-1.99-6.5h12.61c1.63,0,2.96,1.33,2.96,2.96,0,.74.6,1.34,1.34,1.34s1.34-.6,1.34-1.34c0-3.11-2.53-5.63-5.63-5.63h-13.43s-2.37-7.76-2.37-7.76c-.59-1.93-2.34-3.22-4.35-3.22-1.45,0-2.78.67-3.65,1.83-.87,1.16-1.13,2.62-.72,4.01l5.46,18.4c.21.71.95,1.11,1.66.9.71-.21,1.11-.95.9-1.66l-5.46-18.4ZM51.67,67.24c0,4.58-3.73,8.31-8.31,8.31-4.58,0-8.31-3.73-8.31-8.31,0-4.58,3.73-8.31,8.31-8.31s8.31,3.73,8.31,8.31ZM66.06,72.16c.02-.09.03-.18.03-.28v-.24c.22-1.7,1.67-3.01,3.43-3.01,1.91,0,3.46,1.55,3.46,3.46,0,1.91-1.55,3.46-3.46,3.46-1.89,0-3.43-1.52-3.46-3.4Z"/>
  <text class="cls-5" transform="translate(27.59 118.21)"><tspan class="cls-27"><tspan x="0" y="0">I</tspan><tspan class="cls-25" x="5.98" y="0">n</tspan><tspan class="cls-7" x="17.75" y="0">v</tspan><tspan class="cls-3" x="29.77" y="0">a</tspan><tspan x="43" y="0">l</tspan><tspan class="cls-11" x="48.32" y="0">i</tspan><tspan class="cls-24" x="53.39" y="0">d</tspan><tspan class="cls-21" x="66.87" y="0">e</tspan><tspan x="78.83" y="0">z </tspan><tspan class="cls-23" x="95.26" y="0">p</tspan><tspan class="cls-11" x="108.66" y="0">er</tspan><tspan class="cls-23" x="128.93" y="0">m</tspan><tspan x="148.26" y="0">a</tspan><tspan class="cls-23" x="161.44" y="0">n</tspan><tspan class="cls-11" x="173.49" y="0">e</tspan><tspan x="185.55" y="0">n</tspan><tspan class="cls-16" x="197.82" y="0">t</tspan><tspan x="205.46" y="0">e </tspan><tspan class="cls-16" x="223.05" y="0">tot</tspan><tspan class="cls-3" x="250.39" y="0">a</tspan><tspan x="263.62" y="0">l </tspan></tspan><tspan class="cls-27"><tspan class="cls-23" x="0" y="26.4">p</tspan><tspan class="cls-11" x="13.4" y="26.4">o</tspan><tspan x="25.46" y="26.4">r </tspan><tspan class="cls-17" x="39.21" y="26.4">d</tspan><tspan class="cls-23" x="52.69" y="26.4">o</tspan><tspan class="cls-11" x="64.79" y="26.4">e</tspan><tspan class="cls-23" x="76.85" y="26.4">n</tspan><tspan class="cls-14" x="88.9" y="26.4">ç</tspan><tspan x="99.78" y="26.4">a </tspan><tspan class="cls-25" x="118.24" y="26.4">o</tspan><tspan x="130.05" y="26.4">u </tspan><tspan class="cls-23" x="147.17" y="26.4">a</tspan><tspan class="cls-12" x="160.13" y="26.4">c</tspan><tspan class="cls-11" x="170.93" y="26.4">i</tspan><tspan class="cls-24" x="176" y="26.4">d</tspan><tspan class="cls-11" x="189.48" y="26.4">e</tspan><tspan x="201.53" y="26.4">n</tspan><tspan class="cls-16" x="213.81" y="26.4">t</tspan><tspan class="cls-3" x="221.44" y="26.4">a</tspan><tspan x="234.67" y="26.4">l</tspan></tspan><tspan class="cls-22"><tspan class="cls-20" x="0" y="69.6">G</tspan><tspan x="13.71" y="69.6">a</tspan><tspan class="cls-8" x="24.17" y="69.6">r</tspan><tspan x="30" y="69.6">an</tspan><tspan class="cls-15" x="50.1" y="69.6">t</tspan><tspan x="56.07" y="69.6">e o </tspan><tspan class="cls-13" x="84.84" y="69.6">pa</tspan><tspan class="cls-4" x="105.76" y="69.6">g</tspan><tspan x="116.24" y="69.6">a</tspan><tspan class="cls-13" x="126.7" y="69.6">m</tspan><tspan class="cls-4" x="142.51" y="69.6">e</tspan><tspan x="152.48" y="69.6">n</tspan><tspan class="cls-15" x="162.13" y="69.6">t</tspan><tspan x="168.09" y="69.6">o </tspan><tspan class="cls-4" x="182.49" y="69.6">e</tspan><tspan x="192.46" y="69.6">m </tspan><tspan class="cls-20" x="212.77" y="69.6">c</tspan><tspan x="221.82" y="69.6">a</tspan><tspan class="cls-18" x="232.28" y="69.6">s</tspan><tspan x="239.95" y="69.6">o </tspan><tspan class="cls-18" x="254.35" y="69.6">d</tspan><tspan x="265.11" y="69.6" xml:space="preserve">e  </tspan></tspan><tspan class="cls-22"><tspan class="cls-18" x="0" y="91.2">d</tspan><tspan x="10.76" y="91.2">e </tspan><tspan class="cls-6" x="25.14" y="91.2">i</tspan><tspan class="cls-13" x="28.53" y="91.2">n</tspan><tspan class="cls-20" x="38" y="91.2">c</tspan><tspan x="47.05" y="91.2">a</tspan><tspan class="cls-19" x="57.51" y="91.2">pa</tspan><tspan class="cls-1" x="78.43" y="91.2">c</tspan><tspan class="cls-4" x="87.44" y="91.2">i</tspan><tspan class="cls-2" x="90.77" y="91.2">d</tspan><tspan class="cls-19" x="101.54" y="91.2">a</tspan><tspan class="cls-18" x="111.82" y="91.2">d</tspan><tspan x="122.58" y="91.2">e </tspan><tspan class="cls-15" x="136.95" y="91.2">tot</tspan><tspan class="cls-9" x="158.72" y="91.2">a</tspan><tspan x="169.3" y="91.2">l e </tspan><tspan class="cls-18" x="191.41" y="91.2">d</tspan><tspan x="202.17" y="91.2">e</tspan><tspan class="cls-18" x="212.23" y="91.2">f</tspan><tspan class="cls-6" x="218.17" y="91.2">i</tspan><tspan x="221.56" y="91.2">ni</tspan><tspan class="cls-18" x="234.63" y="91.2">t</tspan><tspan class="cls-20" x="240.77" y="91.2">i</tspan><tspan class="cls-10" x="244.08" y="91.2">v</tspan><tspan x="252.85" y="91.2">a </tspan></tspan><tspan class="cls-22"><tspan class="cls-18" x="0" y="112.8">d</tspan><tspan x="10.76" y="112.8">o </tspan><tspan class="cls-20" x="25.16" y="112.8">S</tspan><tspan class="cls-13" x="36.03" y="112.8">e</tspan><tspan class="cls-20" x="45.9" y="112.8">g</tspan><tspan x="56.36" y="112.8">u</tspan><tspan class="cls-8" x="65.65" y="112.8">r</tspan><tspan class="cls-19" x="71.48" y="112.8">a</tspan><tspan class="cls-2" x="81.75" y="112.8">d</tspan><tspan class="cls-19" x="92.52" y="112.8">o</tspan><tspan x="102.42" y="112.8">.</tspan></tspan></text>
</svg>