<?xml version="1.0" encoding="UTF-8"?>
<svg id="Layer_1" data-name="Layer 1" xmlns="http://www.w3.org/2000/svg" viewBox="0 0 366.28 305.38">
  <defs>
    <style>
      .cls-1 {
        fill-rule: evenodd;
      }

      .cls-1, .cls-2, .cls-3 {
        fill: #130044;
      }

      .cls-2 {
        font-family: UrbanistRoman-Bold, Urbanist;
        font-size: 22px;
        font-variation-settings: 'wght' 700;
        font-weight: 700;
      }

      .cls-4 {
        letter-spacing: 0em;
      }

      .cls-5 {
        letter-spacing: -.05em;
      }

      .cls-6 {
        letter-spacing: -.01em;
      }

      .cls-7 {
        letter-spacing: -.05em;
      }

      .cls-8 {
        letter-spacing: -.01em;
      }

      .cls-9 {
        letter-spacing: -.02em;
      }

      .cls-10 {
        letter-spacing: -.04em;
      }

      .cls-11 {
        letter-spacing: -.01em;
      }

      .cls-12 {
        letter-spacing: 0em;
      }

      .cls-13 {
        letter-spacing: 0em;
      }

      .cls-14 {
        letter-spacing: 0em;
      }

      .cls-15 {
        letter-spacing: -.02em;
      }
    </style>
  </defs>
  <path class="cls-3" d="M337.15,8.99c11.1,0,20.13,9.03,20.13,20.14v247.12c0,11.1-9.03,20.14-20.13,20.14H29.13c-11.1,0-20.13-9.03-20.13-20.14V29.13c0-11.1,9.03-20.14,20.13-20.14h308.02M337.15,0H29.13C13.11,0,0,13.11,0,29.13v247.12c0,16.02,13.11,29.13,29.13,29.13h308.02c16.02,0,29.13-13.11,29.13-29.13V29.13C366.28,13.11,353.18,0,337.15,0h0Z"/>
  <text class="cls-2" transform="translate(27.59 242.48)"><tspan class="cls-9" x="0" y="0">M</tspan><tspan x="20.15" y="0">NA (</tspan><tspan class="cls-7" x="64.54" y="0">M</tspan><tspan class="cls-6" x="83.94" y="0">o</tspan><tspan x="96.01" y="0">r</tspan><tspan class="cls-11" x="104.48" y="0">t</tspan><tspan x="112.11" y="0">e </tspan><tspan class="cls-12" x="129.7" y="0">N</tspan><tspan x="144.26" y="0">atu</tspan><tspan class="cls-10" x="177.15" y="0">r</tspan><tspan class="cls-4" x="184.8" y="0">a</tspan><tspan x="198.03" y="0">l </tspan><tspan class="cls-15" x="208.63" y="0">o</tspan><tspan x="220.45" y="0">u </tspan><tspan class="cls-13" x="237.56" y="0">p</tspan><tspan class="cls-8" x="250.96" y="0">o</tspan><tspan x="263.03" y="0">r </tspan><tspan class="cls-5" x="0" y="26.4">A</tspan><tspan class="cls-9" x="14.94" y="26.4">c</tspan><tspan class="cls-8" x="25.74" y="26.4">i</tspan><tspan class="cls-14" x="30.81" y="26.4">d</tspan><tspan class="cls-8" x="44.29" y="26.4">e</tspan><tspan x="56.34" y="26.4">n</tspan><tspan class="cls-11" x="68.62" y="26.4">t</tspan><tspan x="76.25" y="26.4">e)</tspan></text>
  <polygon class="cls-3" points="338.69 262.6 330.04 262.6 330.04 253.95 324.38 253.95 324.38 262.6 315.73 262.6 315.73 268.27 324.38 268.27 324.38 276.92 330.04 276.92 330.04 268.27 338.69 268.27 338.69 262.6"/>
  <g>
    <path class="cls-1" d="M60.57,43.64v-6.66c0-1.31-.52-2.57-1.45-3.5-.93-.93-2.18-1.45-3.5-1.45h-23.09c-1.31,0-2.57.52-3.5,1.45-.93.93-1.45,2.19-1.45,3.5v36.3c0,1.31.52,2.57,1.45,3.5.93.93,2.19,1.45,3.5,1.45h23.09c.91,0,1.65-.74,1.65-1.65s-.74-1.65-1.65-1.65h-23.09c-.44,0-.86-.17-1.17-.48s-.48-.73-.48-1.17v-36.3c0-.44.17-.86.48-1.17.31-.31.73-.48,1.17-.48h23.09c.44,0,.86.17,1.17.48.31.31.48.73.48,1.17v6.66c0,.91.74,1.65,1.65,1.65s1.65-.74,1.65-1.65h0Z"/>
    <path class="cls-1" d="M42.44,42h-1.63c-.91,0-1.65.74-1.65,1.65s.74,1.65,1.65,1.65h1.63v1.62c0,.91.73,1.65,1.64,1.65.91,0,1.65-.74,1.65-1.65v-1.63h1.63c.91,0,1.65-.74,1.65-1.65s-.74-1.65-1.65-1.65h-1.63v-1.63c0-.91-.73-1.65-1.64-1.65-.91,0-1.65.74-1.65,1.65v1.63h0Z"/>
    <path class="cls-1" d="M63.89,65.06v-11.57c0-2.73-2.21-4.95-4.95-4.95h-6.6c-2.73,0-4.95,2.21-4.95,4.95v11.57c0,.52.25,1.01.66,1.32l6.64,4.95c.59.44,1.39.44,1.98,0l6.56-4.95c.41-.31.65-.8.65-1.32h0ZM60.59,53.49v10.75l-4.92,3.71-4.98-3.71v-10.74c0-.91.74-1.65,1.65-1.65h6.6c.91,0,1.65.74,1.65,1.65h0Z"/>
    <path class="cls-1" d="M35.84,56.77h6.6c.91,0,1.65-.73,1.65-1.64,0-.91-.74-1.65-1.65-1.65h-6.6c-.91,0-1.65.73-1.65,1.64,0,.91.74,1.65,1.65,1.65Z"/>
    <path class="cls-1" d="M35.85,63.37h6.6c.91,0,1.65-.73,1.65-1.64,0-.91-.74-1.65-1.65-1.65h-6.6c-.91,0-1.65.73-1.65,1.64,0,.91.74,1.65,1.65,1.65h0Z"/>
    <path class="cls-1" d="M35.84,69.97h6.6c.91,0,1.65-.73,1.65-1.64,0-.91-.74-1.65-1.65-1.65h-6.6c-.91,0-1.65.73-1.65,1.64,0,.91.74,1.65,1.65,1.65Z"/>
  </g>
</svg>