<?xml version="1.0" encoding="UTF-8"?>
<svg id="Layer_1" data-name="Layer 1" xmlns="http://www.w3.org/2000/svg" viewBox="0 0 366.28 305.38">
  <defs>
    <style>
      .cls-1 {
        letter-spacing: -.04em;
      }

      .cls-2 {
        letter-spacing: -.02em;
      }

      .cls-3 {
        letter-spacing: -.02em;
      }

      .cls-4 {
        letter-spacing: -.01em;
      }

      .cls-5 {
        letter-spacing: -.02em;
      }

      .cls-6 {
        letter-spacing: 0em;
      }

      .cls-7 {
        letter-spacing: 0em;
      }

      .cls-8 {
        letter-spacing: -.02em;
      }

      .cls-9 {
        letter-spacing: -.01em;
      }

      .cls-10 {
        letter-spacing: 0em;
      }

      .cls-11 {
        letter-spacing: -.02em;
      }

      .cls-12 {
        font-family: UrbanistRoman-Bold, Urbanist;
        font-size: 16px;
        font-variation-settings: 'wght' 700;
        font-weight: 700;
      }

      .cls-12, .cls-13 {
        fill: #130044;
      }

      .cls-14 {
        letter-spacing: 0em;
      }

      .cls-15 {
        letter-spacing: -.05em;
      }

      .cls-16 {
        letter-spacing: -.01em;
      }

      .cls-17 {
        letter-spacing: -.04em;
      }
    </style>
  </defs>
  <path class="cls-13" d="M337.15,8.99c11.1,0,20.13,9.03,20.13,20.14v247.12c0,11.1-9.03,20.13-20.13,20.13H29.13c-11.1,0-20.13-9.03-20.13-20.13V29.13c0-11.1,9.03-20.14,20.13-20.14h308.02M337.15,0H29.13C13.11,0,0,13.11,0,29.13v247.12C0,292.27,13.11,305.38,29.13,305.38h308.02c16.02,0,29.13-13.11,29.13-29.13V29.13C366.28,13.11,353.18,0,337.15,0h0Z"/>
  <text class="cls-12" transform="translate(27.59 253)"><tspan x="0" y="0">I</tspan><tspan class="cls-16" x="4.35" y="0">n</tspan><tspan class="cls-8" x="13.12" y="0">c</tspan><tspan class="cls-9" x="21.03" y="0">ê</tspan><tspan class="cls-10" x="29.8" y="0">n</tspan><tspan x="38.57" y="0">d</tspan><tspan class="cls-9" x="48.49" y="0">i</tspan><tspan class="cls-10" x="52.18" y="0">o</tspan><tspan x="60.98" y="0">, </tspan><tspan class="cls-15" x="68.86" y="0">e</tspan><tspan class="cls-5" x="76.97" y="0">x</tspan><tspan class="cls-11" x="86.14" y="0">p</tspan><tspan class="cls-6" x="95.74" y="0">los</tspan><tspan class="cls-16" x="115.17" y="0">ão</tspan><tspan x="133.39" y="0">, </tspan><tspan class="cls-7" x="141.28" y="0">f</tspan><tspan x="147.18" y="0">u</tspan><tspan class="cls-10" x="155.79" y="0">ma</tspan><tspan class="cls-8" x="179.27" y="0">ç</tspan><tspan x="187.18" y="0">a e </tspan><tspan class="cls-2" x="213.4" y="0">q</tspan><tspan class="cls-6" x="223.06" y="0">u</tspan><tspan class="cls-10" x="231.54" y="0">e</tspan><tspan class="cls-14" x="240.34" y="0">d</tspan><tspan x="250.14" y="0">a </tspan><tspan class="cls-6" x="0" y="19.2">d</tspan><tspan x="9.8" y="19.2">e </tspan><tspan class="cls-10" x="22.59" y="19.2">a</tspan><tspan class="cls-9" x="32.02" y="19.2">e</tspan><tspan class="cls-1" x="40.78" y="19.2">r</tspan><tspan class="cls-4" x="46.34" y="19.2">o</tspan><tspan class="cls-16" x="55.12" y="19.2">n</tspan><tspan class="cls-3" x="63.89" y="19.2">a</tspan><tspan class="cls-17" x="73.1" y="19.2">v</tspan><tspan class="cls-6" x="81.84" y="19.2">e</tspan><tspan x="90.67" y="19.2">s</tspan></text>
  <polygon class="cls-13" points="338.69 262.6 330.04 262.6 330.04 253.95 324.38 253.95 324.38 262.6 315.73 262.6 315.73 268.27 324.38 268.27 324.38 276.92 330.04 276.92 330.04 268.27 338.69 268.27 338.69 262.6"/>
  <path class="cls-13" d="M59.41,46.36h0c-.34-.34-.81-.55-1.33-.55-.78,0-1.44.47-1.73,1.14h0c-.39.92-.9,1.69-1.5,2.37,0-.18.01-.4.01-.61,0-2.71-.6-5.28-1.66-7.58-1.92-4-5.13-7.12-9.08-8.89l-.12-.05c-.22-.1-.48-.16-.75-.16-1.04,0-1.89.84-1.89,1.89,0,.11.01.23.03.33h0c0,.05,0,.13,0,.21,0,3.02-1.35,5.73-3.47,7.56h-.01c-.79.8-1.62,1.56-2.46,2.31-1.98,1.64-3.69,3.48-5.15,5.52l-.06.09c-1.65,2.68-2.63,5.93-2.63,9.41,0,1.71.24,3.37.68,4.93l-.03-.13c1.16,4.73,4.06,8.65,7.98,11.09l.08.04c2.85,1.82,6.33,2.91,10.05,2.93h.02c.78,0,1.54-.05,2.29-.15,7.1-1.05,12.86-5.89,15.2-12.37l.04-.13c.6-1.76.94-3.79.94-5.9,0-5.18-2.07-9.88-5.44-13.32ZM60.34,64.37h0c-1.9,5.28-6.51,9.15-12.1,9.97h-.08c-.53.08-1.15.12-1.78.12-2.98,0-5.76-.87-8.1-2.36-3.16-1.98-5.46-5.08-6.36-8.74l-.02-.1c-.34-1.17-.54-2.51-.54-3.9,0-2.69.74-5.21,2.03-7.37,1.34-1.84,2.84-3.43,4.52-4.81l.05-.04c.89-.8,1.78-1.6,2.62-2.45,2.13-2,3.69-4.59,4.42-7.5l.02-.11c3.69,2.59,6.08,6.83,6.08,11.62,0,1.45-.22,2.84-.62,4.15-.05.16-.08.35-.08.55,0,1.04.84,1.88,1.88,1.88.25,0,.49-.05.71-.14,2.19-.91,4.01-2.34,5.35-4.15l.02-.03c1.7,2.43,2.72,5.44,2.72,8.69,0,1.65-.27,3.23-.75,4.72Z"/>
</svg>