<?xml version="1.0" encoding="UTF-8"?>
<svg id="Layer_1" data-name="Layer 1" xmlns="http://www.w3.org/2000/svg" viewBox="0 0 366.28 305.38">
  <defs>
    <style>
      .cls-1 {
        letter-spacing: 0em;
      }

      .cls-2 {
        letter-spacing: -.02em;
      }

      .cls-3 {
        letter-spacing: -.04em;
      }

      .cls-4 {
        letter-spacing: 0em;
      }

      .cls-5 {
        letter-spacing: -.05em;
      }

      .cls-6 {
        fill: #fff;
      }

      .cls-7 {
        letter-spacing: 0em;
      }

      .cls-8 {
        letter-spacing: -.03em;
      }

      .cls-9 {
        letter-spacing: 0em;
      }

      .cls-10 {
        letter-spacing: -.01em;
      }

      .cls-11 {
        letter-spacing: 0em;
      }

      .cls-12 {
        letter-spacing: -.04em;
      }

      .cls-13 {
        letter-spacing: -.02em;
      }

      .cls-14 {
        font-family: UrbanistRoman-Bold, Urbanist;
        font-size: 19px;
        font-variation-settings: 'wght' 700;
        font-weight: 700;
      }

      .cls-15 {
        letter-spacing: 0em;
      }

      .cls-16 {
        letter-spacing: -.04em;
      }

      .cls-17 {
        letter-spacing: -.01em;
      }

      .cls-18 {
        letter-spacing: 0em;
      }

      .cls-19 {
        letter-spacing: -.01em;
      }

      .cls-20 {
        letter-spacing: 0em;
      }

      .cls-21 {
        font-family: Urbanist-Regular, Urbanist;
        font-size: 18px;
        font-variation-settings: 'wght' 400;
      }

      .cls-22 {
        letter-spacing: 0em;
      }

      .cls-23 {
        letter-spacing: -.01em;
      }

      .cls-24 {
        fill: #130044;
      }
    </style>
  </defs>
  <rect class="cls-24" x="0" y="0" width="366.28" height="305.38" rx="29.13" ry="29.13"/>
  <path class="cls-6" d="M49.5,45.77h-1.62c0-.49-.32-.81-.81-.81s-.81.32-.81.81h-1.62v-11.49c.96-.32,1.62-1.21,1.62-2.3,0-1.38-1.05-2.43-2.43-2.43h-8.12c-1.38,0-2.43,1.05-2.43,2.43,0,1.08.7,1.96,1.62,2.29v11.5h-1.62c0-.49-.32-.81-.81-.81s-.81.32-.81.81h-1.62c-1.38,0-2.43,1.05-2.43,2.43v25.97c0,1.38,1.05,2.43,2.43,2.43h2.43v.81c0,.49.32.81.81.81s.81-.32.81-.81v-.81h11.36v.81c0,.49.32.81.81.81s.81-.32.81-.81v-.81h2.43c1.38,0,2.43-1.05,2.43-2.43v-25.97c0-1.38-1.05-2.43-2.43-2.43ZM35.71,31.16h8.12c.49,0,.81.32.81.81s-.32.81-.81.81h-8.12c-.49,0-.81-.32-.81-.81s.41-.81.81-.81ZM36.52,34.41h6.49v11.36h-6.49v-11.36ZM30.03,47.39h19.48c.49,0,.81.32.81.81v2.43h-21.1v-2.43c0-.49.32-.81.81-.81ZM36.6,52.26h6.49v.73c0,.49-.41.89-.89.89h-4.71c-.49,0-.89-.41-.89-.89v-.73h0ZM49.5,74.98h-19.48c-.49,0-.81-.32-.81-.81v-.81h2.43c.49,0,.81-.32.81-.81s-.32-.81-.81-.81h-2.43v-1.62h2.43c.49,0,.81-.32.81-.81s-.32-.81-.81-.81h-2.43v-16.23h5.76v.73c0,1.38,1.14,2.52,2.52,2.52h4.71c1.3,0,2.43-1.14,2.43-2.52v-.73h5.68v21.91c0,.49-.32.81-.81.81Z"/>
  <text class="cls-6" transform="translate(27.59 115.96)"><tspan class="cls-14"><tspan class="cls-12" x="0" y="0">P</tspan><tspan class="cls-23" x="9.68" y="0">e</tspan><tspan class="cls-16" x="20.09" y="0">r</tspan><tspan class="cls-11" x="26.7" y="0">d</tspan><tspan x="38.33" y="0">a </tspan><tspan class="cls-13" x="54.27" y="0">o</tspan><tspan x="64.48" y="0">u </tspan><tspan class="cls-5" x="79.26" y="0">e</tspan><tspan x="88.88" y="0">xt</tspan><tspan class="cls-16" x="107.02" y="0">r</tspan><tspan class="cls-13" x="113.62" y="0">a</tspan><tspan class="cls-2" x="124.56" y="0">v</tspan><tspan class="cls-10" x="135.32" y="0">i</tspan><tspan class="cls-1" x="139.7" y="0">o </tspan><tspan class="cls-11" x="154.9" y="0">d</tspan><tspan x="166.54" y="0">e </tspan><tspan class="cls-9" x="181.73" y="0">ba</tspan><tspan class="cls-23" x="204.51" y="0">g</tspan><tspan class="cls-9" x="215.93" y="0">a</tspan><tspan class="cls-23" x="227.13" y="0">ge</tspan><tspan x="248.97" y="0">m</tspan></tspan><tspan class="cls-21"><tspan class="cls-18" x="0" y="43.2">D</tspan><tspan class="cls-7" x="12.02" y="43.2">i</tspan><tspan class="cls-8" x="15.42" y="43.2">r</tspan><tspan class="cls-15" x="21.25" y="43.2">e</tspan><tspan x="31.12" y="43.2">i</tspan><tspan class="cls-17" x="34.54" y="43.2">t</tspan><tspan x="40.51" y="43.2">o à </tspan><tspan class="cls-7" x="69.69" y="43.2">i</tspan><tspan class="cls-19" x="73.08" y="43.2">n</tspan><tspan class="cls-18" x="82.55" y="43.2">d</tspan><tspan class="cls-4" x="93.31" y="43.2">e</tspan><tspan x="103.27" y="43.2">ni</tspan><tspan class="cls-4" x="116.34" y="43.2">z</tspan><tspan class="cls-15" x="125.38" y="43.2">a</tspan><tspan class="cls-20" x="135.66" y="43.2">ç</tspan><tspan class="cls-15" x="144.71" y="43.2">ã</tspan><tspan x="154.99" y="43.2">o </tspan><tspan class="cls-22" x="169.39" y="43.2">e</tspan><tspan x="179.35" y="43.2">m </tspan><tspan class="cls-20" x="199.66" y="43.2">c</tspan><tspan x="208.72" y="43.2">a</tspan><tspan class="cls-18" x="219.18" y="43.2">so</tspan><tspan x="236.86" y="43.2">s </tspan><tspan class="cls-18" x="248.91" y="43.2">d</tspan><tspan x="259.68" y="43.2">e </tspan></tspan><tspan class="cls-21"><tspan class="cls-15" x="0" y="64.8">p</tspan><tspan class="cls-4" x="10.64" y="64.8">e</tspan><tspan class="cls-8" x="20.6" y="64.8">r</tspan><tspan class="cls-18" x="26.43" y="64.8">d</tspan><tspan x="37.2" y="64.8">a, </tspan><tspan class="cls-3" x="55.59" y="64.8">e</tspan><tspan x="64.93" y="64.8">xt</tspan><tspan class="cls-8" x="80.72" y="64.8">r</tspan><tspan class="cls-15" x="86.55" y="64.8">a</tspan><tspan class="cls-20" x="96.83" y="64.8">v</tspan><tspan class="cls-4" x="105.97" y="64.8">i</tspan><tspan x="109.3" y="64.8">o </tspan><tspan class="cls-19" x="123.7" y="64.8">o</tspan><tspan x="133.6" y="64.8">u </tspan><tspan class="cls-18" x="147.2" y="64.8">d</tspan><tspan x="157.97" y="64.8">a</tspan><tspan class="cls-15" x="168.42" y="64.8">n</tspan><tspan class="cls-18" x="177.89" y="64.8">o</tspan><tspan x="187.91" y="64.8">s </tspan><tspan class="cls-15" x="199.96" y="64.8">n</tspan><tspan x="209.43" y="64.8">a </tspan></tspan><tspan class="cls-21"><tspan class="cls-15" x="0" y="86.4">ba</tspan><tspan class="cls-4" x="20.92" y="86.4">g</tspan><tspan class="cls-15" x="31.41" y="86.4">a</tspan><tspan class="cls-4" x="41.69" y="86.4">ge</tspan><tspan x="62.14" y="86.4">m.</tspan></tspan></text>
</svg>