<?xml version="1.0" encoding="UTF-8"?>
<svg id="Layer_1" data-name="Layer 1" xmlns="http://www.w3.org/2000/svg" viewBox="0 0 366.28 305.38">
  <defs>
    <style>
      .cls-1 {
        letter-spacing: 0em;
      }

      .cls-2 {
        letter-spacing: 0em;
      }

      .cls-3 {
        letter-spacing: 0em;
      }

      .cls-4 {
        letter-spacing: -.04em;
      }

      .cls-5 {
        letter-spacing: 0em;
      }

      .cls-6 {
        fill: #fff;
      }

      .cls-7 {
        letter-spacing: 0em;
      }

      .cls-8 {
        letter-spacing: 0em;
      }

      .cls-9 {
        letter-spacing: -.03em;
      }

      .cls-10 {
        letter-spacing: -.01em;
      }

      .cls-11 {
        font-family: UrbanistRoman-Bold, Urbanist;
        font-size: 23.99px;
        font-variation-settings: 'wght' 700;
        font-weight: 700;
      }

      .cls-12 {
        letter-spacing: -.03em;
      }

      .cls-13 {
        letter-spacing: -.04em;
      }

      .cls-14 {
        letter-spacing: -.01em;
      }

      .cls-15 {
        letter-spacing: 0em;
      }

      .cls-16 {
        letter-spacing: -.02em;
      }

      .cls-17 {
        letter-spacing: 0em;
      }

      .cls-18 {
        letter-spacing: -.04em;
      }

      .cls-19 {
        letter-spacing: -.01em;
      }

      .cls-20 {
        letter-spacing: 0em;
      }

      .cls-21 {
        letter-spacing: -.01em;
      }

      .cls-22 {
        letter-spacing: 0em;
      }

      .cls-23 {
        letter-spacing: 0em;
      }

      .cls-24 {
        font-family: Urbanist-Regular, Urbanist;
        font-size: 18px;
        font-variation-settings: 'wght' 400;
      }

      .cls-25 {
        letter-spacing: 0em;
      }

      .cls-26 {
        fill: #130044;
      }
    </style>
  </defs>
  <rect class="cls-26" x="0" y="0" width="366.28" height="305.38" rx="29.13" ry="29.13"/>
  <g>
    <path class="cls-6" d="M27.59,52.98v-20.95h16.62v1.41c-.02,8.73-5.89,16.5-14.28,18.91l-.56.15-1.77.48ZM30.41,34.86v14.38c6.08-2.28,10.36-7.92,10.92-14.38h-10.92Z"/>
    <path class="cls-6" d="M44.21,78.23h-16.61v-29.47l2.11,1.21c8.94,5.11,14.5,14.69,14.51,24.99v3.27ZM30.41,75.41h10.98v-.45c0-8.46-4.16-16.37-10.98-21.21v21.66Z"/>
    <path class="cls-6" d="M73.78,52.98l-2.33-.63c-8.39-2.4-14.26-10.18-14.28-18.91v-1.41s16.61,0,16.61,0v20.95ZM60.05,34.86c.56,6.46,4.84,12.1,10.92,14.38v-14.38h-10.92Z"/>
    <path class="cls-6" d="M73.78,78.23h-16.61v-3.27c0-10.3,5.56-19.88,14.51-25l2.11-1.21v29.47ZM59.99,75.41h10.98v-21.66c-6.82,4.84-10.98,12.75-10.98,21.21v.45Z"/>
    <path class="cls-6" d="M73.78,78.23H27.59v-46.19h46.19v46.19ZM30.41,75.41h40.56v-40.56H30.41v40.56Z"/>
    <rect class="cls-6" x="34.91" y="53.73" width="31.56" height="2.82"/>
    <rect class="cls-6" x="49.28" y="33.45" width="2.82" height="43.37"/>
  </g>
  <text class="cls-6" transform="translate(27.59 119.7)"><tspan class="cls-11"><tspan class="cls-18" x="0" y="0">V</tspan><tspan class="cls-10" x="16.89" y="0">i</tspan><tspan class="cls-7" x="22.42" y="0">d</tspan><tspan class="cls-13" x="37.29" y="0">r</tspan><tspan class="cls-1" x="45.62" y="0">o</tspan><tspan x="58.88" y="0">s e </tspan><tspan class="cls-1" x="94.23" y="0">e</tspan><tspan x="107.47" y="0">s</tspan><tspan class="cls-15" x="117.89" y="0">p</tspan><tspan class="cls-16" x="132.5" y="0">e</tspan><tspan x="145.47" y="0">l</tspan><tspan class="cls-15" x="151.27" y="0">h</tspan><tspan class="cls-1" x="164.41" y="0">o</tspan><tspan x="177.67" y="0">s</tspan></tspan><tspan class="cls-24"><tspan class="cls-17" x="0" y="43.2">A</tspan><tspan x="12" y="43.2">m</tspan><tspan class="cls-21" x="27.99" y="43.2">p</tspan><tspan x="38.63" y="43.2">a</tspan><tspan class="cls-9" x="49.09" y="43.2">r</tspan><tspan x="54.92" y="43.2">o </tspan><tspan class="cls-3" x="69.32" y="43.2">s</tspan><tspan x="76.99" y="43.2">e </tspan><tspan class="cls-20" x="91.36" y="43.2">o</tspan><tspan x="101.38" y="43.2">s </tspan><tspan class="cls-22" x="113.43" y="43.2">v</tspan><tspan class="cls-5" x="122.56" y="43.2">i</tspan><tspan x="125.89" y="43.2">d</tspan><tspan class="cls-9" x="136.72" y="43.2">r</tspan><tspan class="cls-20" x="142.55" y="43.2">o</tspan><tspan x="152.57" y="43.2">s </tspan><tspan class="cls-20" x="164.62" y="43.2">d</tspan><tspan x="175.38" y="43.2">e s</tspan><tspan class="cls-3" x="197.49" y="43.2">u</tspan><tspan x="206.71" y="43.2">a </tspan><tspan class="cls-22" x="221.49" y="43.2">c</tspan><tspan x="230.54" y="43.2">a</tspan><tspan class="cls-20" x="241" y="43.2">s</tspan><tspan x="248.67" y="43.2">a </tspan></tspan><tspan class="cls-24"><tspan class="cls-22" x="0" y="64.8">q</tspan><tspan class="cls-20" x="10.7" y="64.8">u</tspan><tspan class="cls-23" x="19.93" y="64.8">e</tspan><tspan class="cls-5" x="29.83" y="64.8">b</tspan><tspan class="cls-9" x="40.56" y="64.8">r</tspan><tspan x="46.39" y="64.8">a</tspan><tspan class="cls-9" x="56.85" y="64.8">r</tspan><tspan class="cls-25" x="62.68" y="64.8">e</tspan><tspan x="72.65" y="64.8">m, </tspan><tspan class="cls-21" x="96.58" y="64.8">b</tspan><tspan class="cls-4" x="107.22" y="64.8">o</tspan><tspan x="116.58" y="64.8">x, </tspan><tspan class="cls-5" x="134.11" y="64.8">j</tspan><tspan x="137.99" y="64.8">a</tspan><tspan class="cls-21" x="148.44" y="64.8">n</tspan><tspan class="cls-23" x="157.91" y="64.8">e</tspan><tspan class="cls-20" x="167.81" y="64.8">l</tspan><tspan x="171.17" y="64.8">a</tspan><tspan class="cls-8" x="181.63" y="64.8">s</tspan><tspan x="189.33" y="64.8">, </tspan><tspan class="cls-12" x="197.27" y="64.8">v</tspan><tspan x="206.04" y="64.8">a</tspan><tspan class="cls-9" x="216.5" y="64.8">r</tspan><tspan x="222.33" y="64.8">a</tspan><tspan class="cls-17" x="232.79" y="64.8">n</tspan><tspan class="cls-20" x="242.26" y="64.8">d</tspan><tspan x="253.02" y="64.8">a, </tspan></tspan><tspan class="cls-24"><tspan class="cls-20" x="0" y="86.4">e</tspan><tspan x="9.99" y="86.4">s</tspan><tspan class="cls-17" x="17.72" y="86.4">p</tspan><tspan class="cls-2" x="28.36" y="86.4">e</tspan><tspan x="38.26" y="86.4">l</tspan><tspan class="cls-17" x="41.68" y="86.4">h</tspan><tspan class="cls-20" x="51.15" y="86.4">o</tspan><tspan x="61.16" y="86.4">s e a</tspan><tspan class="cls-19" x="98.04" y="86.4">t</tspan><tspan x="104.01" y="86.4">é o </tspan><tspan class="cls-22" x="132.78" y="86.4">c</tspan><tspan class="cls-21" x="141.84" y="86.4">o</tspan><tspan class="cls-23" x="151.74" y="86.4">o</tspan><tspan class="cls-17" x="161.67" y="86.4">k</tspan><tspan class="cls-14" x="170.32" y="86.4">t</tspan><tspan class="cls-5" x="176.29" y="86.4">o</tspan><tspan class="cls-17" x="186.28" y="86.4">p</tspan><tspan x="196.92" y="86.4">.</tspan></tspan></text>
</svg>