<?xml version="1.0" encoding="UTF-8"?>
<svg id="Layer_1" data-name="Layer 1" xmlns="http://www.w3.org/2000/svg" viewBox="0 0 366.28 305.38">
  <defs>
    <style>
      .cls-1 {
        letter-spacing: 0em;
      }

      .cls-2 {
        letter-spacing: -.02em;
      }

      .cls-3 {
        letter-spacing: -.02em;
      }

      .cls-4 {
        letter-spacing: 0em;
      }

      .cls-5 {
        fill: #fff;
      }

      .cls-6 {
        letter-spacing: -.02em;
      }

      .cls-7 {
        letter-spacing: -.01em;
      }

      .cls-8 {
        letter-spacing: 0em;
      }

      .cls-9 {
        font-family: UrbanistRoman-Bold, Urbanist;
        font-size: 20px;
        font-variation-settings: 'wght' 700;
        font-weight: 700;
      }

      .cls-10 {
        letter-spacing: -.03em;
      }

      .cls-11 {
        letter-spacing: 0em;
      }

      .cls-12 {
        letter-spacing: 0em;
      }

      .cls-13 {
        letter-spacing: -.02em;
      }

      .cls-14 {
        letter-spacing: -.03em;
      }

      .cls-15 {
        letter-spacing: -.03em;
      }

      .cls-16 {
        letter-spacing: -.02em;
      }

      .cls-17 {
        letter-spacing: 0em;
      }

      .cls-18 {
        letter-spacing: -.01em;
      }

      .cls-19 {
        letter-spacing: -.01em;
      }

      .cls-20 {
        letter-spacing: 0em;
      }

      .cls-21 {
        letter-spacing: 0em;
      }

      .cls-22 {
        letter-spacing: -.01em;
      }

      .cls-23 {
        letter-spacing: -.01em;
      }

      .cls-24 {
        letter-spacing: 0em;
      }

      .cls-25 {
        letter-spacing: 0em;
      }

      .cls-26 {
        letter-spacing: .01em;
      }

      .cls-27 {
        letter-spacing: -.01em;
      }

      .cls-28 {
        letter-spacing: 0em;
      }

      .cls-29 {
        letter-spacing: 0em;
      }

      .cls-30 {
        font-family: Urbanist-Regular, Urbanist;
        font-size: 18px;
        font-variation-settings: 'wght' 400;
      }

      .cls-31 {
        letter-spacing: 0em;
      }

      .cls-32 {
        letter-spacing: -.04em;
      }

      .cls-33 {
        fill: #130044;
      }
    </style>
  </defs>
  <rect class="cls-33" x="0" y="0" width="366.28" height="305.38" rx="29.13" ry="29.13"/>
  <path class="cls-5" d="M69.52,65.95c-1.27,0-2.45.39-3.43,1.05v-9.89c0-2.72-2.21-4.93-4.93-4.93h-19.49l-1.99-6.5h12.61c1.63,0,2.96,1.33,2.96,2.96,0,.74.6,1.34,1.34,1.34s1.34-.6,1.34-1.34c0-3.11-2.53-5.63-5.63-5.63h-13.43l-2.37-7.76c-.59-1.93-2.34-3.22-4.35-3.22-1.45,0-2.78.67-3.65,1.83-.87,1.16-1.13,2.62-.72,4.01l5.46,18.4c.21.71.95,1.11,1.66.9.71-.21,1.11-.95.9-1.66l-5.46-18.4c-.17-.57-.06-1.18.3-1.65.36-.48.9-.75,1.5-.75.83,0,1.55.53,1.79,1.33l5.46,17.88c.17.56.69.95,1.28.95h20.48c1.24,0,2.26,1.01,2.26,2.26v5.47h-10.12c-1.76-3.73-5.55-6.33-9.94-6.33-6.06,0-10.99,4.93-10.99,10.99s4.93,10.99,10.99,10.99,10.99-4.93,10.99-10.99c0-.68-.07-1.34-.19-1.98h9.26v6.2c-.02.21-.03.42-.03.63,0,3.38,2.75,6.14,6.14,6.14s6.14-2.75,6.14-6.14-2.75-6.14-6.14-6.14ZM43.35,75.56c-4.58,0-8.31-3.73-8.31-8.31s3.73-8.31,8.31-8.31,8.31,3.73,8.31,8.31-3.73,8.31-8.31,8.31ZM69.52,75.56c-1.91,0-3.46-1.55-3.46-3.46,0-.03,0-.07.01-.1,0-.04.02-.07.02-.11v-.11c.17-1.76,1.63-3.14,3.43-3.14,1.91,0,3.46,1.55,3.46,3.46s-1.55,3.46-3.46,3.46Z"/>
  <text class="cls-5" transform="translate(27.59 116.71)"><tspan class="cls-9"><tspan x="0" y="0">I</tspan><tspan class="cls-16" x="5.44" y="0">n</tspan><tspan class="cls-32" x="16.14" y="0">v</tspan><tspan class="cls-11" x="27.06" y="0">a</tspan><tspan x="39.09" y="0">l</tspan><tspan class="cls-7" x="43.93" y="0">i</tspan><tspan class="cls-24" x="48.54" y="0">d</tspan><tspan class="cls-13" x="60.79" y="0">e</tspan><tspan x="71.66" y="0">z </tspan><tspan class="cls-17" x="86.6" y="0">f</tspan><tspan x="93.98" y="0">u</tspan><tspan class="cls-21" x="104.74" y="0">n</tspan><tspan class="cls-2" x="115.7" y="0">c</tspan><tspan class="cls-19" x="125.52" y="0">io</tspan><tspan class="cls-27" x="141.1" y="0">n</tspan><tspan class="cls-11" x="152.06" y="0">a</tspan><tspan x="164.09" y="0">l e </tspan></tspan><tspan class="cls-9"><tspan class="cls-21" x="0" y="24">p</tspan><tspan class="cls-19" x="12.18" y="24">er</tspan><tspan class="cls-21" x="30.61" y="24">m</tspan><tspan x="48.18" y="24">a</tspan><tspan class="cls-21" x="60.16" y="24">n</tspan><tspan class="cls-19" x="71.12" y="24">e</tspan><tspan x="82.08" y="24">n</tspan><tspan class="cls-23" x="93.24" y="24">t</tspan><tspan x="100.18" y="24">e </tspan><tspan class="cls-23" x="116.17" y="24">tot</tspan><tspan class="cls-11" x="141.03" y="24">a</tspan><tspan x="153.06" y="24">l </tspan><tspan class="cls-27" x="162.7" y="24">p</tspan><tspan class="cls-7" x="174.88" y="24">o</tspan><tspan x="185.85" y="24">r </tspan><tspan class="cls-24" x="198.35" y="24">d</tspan><tspan class="cls-21" x="210.6" y="24">o</tspan><tspan class="cls-19" x="221.6" y="24">e</tspan><tspan class="cls-21" x="232.56" y="24">n</tspan><tspan class="cls-3" x="243.52" y="24">ç</tspan><tspan x="253.41" y="24">a</tspan></tspan><tspan class="cls-30"><tspan class="cls-28" x="0" y="67.2">G</tspan><tspan x="13.71" y="67.2">a</tspan><tspan class="cls-10" x="24.17" y="67.2">r</tspan><tspan x="30" y="67.2">an</tspan><tspan class="cls-22" x="50.1" y="67.2">t</tspan><tspan x="56.07" y="67.2">e </tspan><tspan class="cls-20" x="70.44" y="67.2">a</tspan><tspan class="cls-25" x="80.72" y="67.2">o</tspan><tspan x="90.74" y="67.2">s </tspan><tspan class="cls-27" x="102.79" y="67.2">b</tspan><tspan class="cls-4" x="113.44" y="67.2">e</tspan><tspan class="cls-20" x="123.4" y="67.2">n</tspan><tspan x="132.87" y="67.2">e</tspan><tspan class="cls-25" x="142.92" y="67.2">f</tspan><tspan class="cls-4" x="148.86" y="67.2">i</tspan><tspan class="cls-29" x="152.19" y="67.2">c</tspan><tspan class="cls-4" x="161.21" y="67.2">i</tspan><tspan x="164.54" y="67.2">á</tspan><tspan class="cls-28" x="175" y="67.2">r</tspan><tspan class="cls-4" x="181.31" y="67.2">i</tspan><tspan class="cls-25" x="184.64" y="67.2">o</tspan><tspan x="194.66" y="67.2">s </tspan></tspan><tspan class="cls-30"><tspan class="cls-20" x="0" y="88.8">pa</tspan><tspan class="cls-4" x="20.92" y="88.8">g</tspan><tspan x="31.4" y="88.8">a</tspan><tspan class="cls-20" x="41.86" y="88.8">m</tspan><tspan class="cls-4" x="57.67" y="88.8">e</tspan><tspan x="67.63" y="88.8">n</tspan><tspan class="cls-22" x="77.28" y="88.8">t</tspan><tspan x="83.25" y="88.8">o </tspan><tspan class="cls-4" x="97.65" y="88.8">e</tspan><tspan x="107.61" y="88.8">m </tspan><tspan class="cls-28" x="127.93" y="88.8">c</tspan><tspan x="136.98" y="88.8">a</tspan><tspan class="cls-25" x="147.44" y="88.8">s</tspan><tspan x="155.11" y="88.8">o </tspan><tspan class="cls-25" x="169.51" y="88.8">d</tspan><tspan x="180.27" y="88.8">e </tspan><tspan class="cls-8" x="194.64" y="88.8">i</tspan><tspan class="cls-27" x="198.03" y="88.8">n</tspan><tspan class="cls-14" x="207.5" y="88.8">v</tspan><tspan class="cls-12" x="216.28" y="88.8">a</tspan><tspan x="226.85" y="88.8">l</tspan><tspan class="cls-4" x="230.27" y="88.8">i</tspan><tspan class="cls-25" x="233.6" y="88.8">d</tspan><tspan class="cls-6" x="244.37" y="88.8">e</tspan><tspan x="254.09" y="88.8">z </tspan></tspan><tspan class="cls-30"><tspan class="cls-26" x="0" y="110.4">f</tspan><tspan x="6.25" y="110.4">u</tspan><tspan class="cls-20" x="15.53" y="110.4">n</tspan><tspan class="cls-1" x="25" y="110.4">c</tspan><tspan class="cls-31" x="34.02" y="110.4">io</tspan><tspan class="cls-27" x="47.34" y="110.4">n</tspan><tspan class="cls-12" x="56.81" y="110.4">a</tspan><tspan x="67.38" y="110.4">l e </tspan><tspan class="cls-20" x="89.5" y="110.4">p</tspan><tspan class="cls-4" x="100.13" y="110.4">er</tspan><tspan class="cls-27" x="116.44" y="110.4">m</tspan><tspan x="132.25" y="110.4">a</tspan><tspan class="cls-20" x="142.71" y="110.4">n</tspan><tspan class="cls-4" x="152.18" y="110.4">e</tspan><tspan x="162.14" y="110.4">n</tspan><tspan class="cls-22" x="171.79" y="110.4">t</tspan><tspan x="177.76" y="110.4">e </tspan><tspan class="cls-22" x="192.13" y="110.4">tot</tspan><tspan class="cls-12" x="213.9" y="110.4">a</tspan><tspan x="224.48" y="110.4">l </tspan><tspan class="cls-20" x="232.22" y="110.4">p</tspan><tspan class="cls-4" x="242.85" y="110.4">o</tspan><tspan x="252.85" y="110.4">r </tspan></tspan><tspan class="cls-30"><tspan class="cls-25" x="0" y="132">d</tspan><tspan class="cls-20" x="10.76" y="132">o</tspan><tspan class="cls-4" x="20.66" y="132">e</tspan><tspan class="cls-27" x="30.63" y="132">n</tspan><tspan class="cls-28" x="40.09" y="132">ç</tspan><tspan x="49.15" y="132">a </tspan><tspan class="cls-28" x="63.93" y="132">c</tspan><tspan class="cls-29" x="72.98" y="132">o</tspan><tspan class="cls-27" x="82.91" y="132">b</tspan><tspan class="cls-31" x="93.55" y="132">e</tspan><tspan x="103.52" y="132">r</tspan><tspan class="cls-18" x="109.95" y="132">t</tspan><tspan x="115.92" y="132">a </tspan><tspan class="cls-20" x="130.7" y="132">p</tspan><tspan class="cls-29" x="141.34" y="132">e</tspan><tspan class="cls-25" x="151.24" y="132">l</tspan><tspan x="154.59" y="132">o </tspan><tspan class="cls-25" x="168.99" y="132">s</tspan><tspan class="cls-27" x="176.66" y="132">e</tspan><tspan class="cls-28" x="186.53" y="132">g</tspan><tspan x="196.99" y="132">u</tspan><tspan class="cls-15" x="206.28" y="132">r</tspan><tspan class="cls-27" x="212.11" y="132">o</tspan><tspan x="222.01" y="132">.</tspan></tspan></text>
</svg>