<?xml version="1.0" encoding="UTF-8"?>
<svg id="Layer_1" data-name="Layer 1" xmlns="http://www.w3.org/2000/svg" viewBox="0 0 366.28 305.38">
  <defs>
    <style>
      .cls-1 {
        letter-spacing: 0em;
      }

      .cls-2 {
        letter-spacing: 0em;
      }

      .cls-3 {
        letter-spacing: 0em;
      }

      .cls-4 {
        fill: #fff;
      }

      .cls-5 {
        letter-spacing: 0em;
      }

      .cls-6 {
        letter-spacing: -.03em;
      }

      .cls-7 {
        letter-spacing: 0em;
      }

      .cls-8 {
        letter-spacing: 0em;
      }

      .cls-9 {
        letter-spacing: -.01em;
      }

      .cls-10 {
        font-family: UrbanistRoman-Bold, Urbanist;
        font-size: 23.99px;
        font-variation-settings: 'wght' 700;
        font-weight: 700;
      }

      .cls-11 {
        letter-spacing: 0em;
      }

      .cls-12 {
        letter-spacing: -.03em;
      }

      .cls-13 {
        letter-spacing: -.02em;
      }

      .cls-14 {
        letter-spacing: -.02em;
      }

      .cls-15 {
        letter-spacing: -.01em;
      }

      .cls-16 {
        letter-spacing: 0em;
      }

      .cls-17 {
        letter-spacing: -.01em;
      }

      .cls-18 {
        letter-spacing: 0em;
      }

      .cls-19 {
        letter-spacing: -.04em;
      }

      .cls-20 {
        letter-spacing: -.01em;
      }

      .cls-21 {
        letter-spacing: 0em;
      }

      .cls-22 {
        letter-spacing: -.01em;
      }

      .cls-23 {
        letter-spacing: 0em;
      }

      .cls-24 {
        letter-spacing: 0em;
      }

      .cls-25 {
        letter-spacing: 0em;
      }

      .cls-26 {
        font-family: Urbanist-Regular, Urbanist;
        font-size: 18px;
        font-variation-settings: 'wght' 400;
      }

      .cls-27 {
        letter-spacing: 0em;
      }

      .cls-28 {
        fill: #130044;
      }
    </style>
  </defs>
  <rect class="cls-28" x="0" y="0" width="366.28" height="305.38" rx="29.13" ry="29.13"/>
  <g>
    <path class="cls-4" d="M48.66,54.72c2.79,0,5.33-1.03,7.31-2.7,1.98,1.68,4.54,2.7,7.33,2.7s5.35-1.02,7.33-2.7c1.98,1.68,4.52,2.7,7.31,2.7,6.25,0,11.34-5.09,11.34-11.34s-5.09-11.34-11.34-11.34c-2.79,0-5.33,1.03-7.31,2.7-1.98-1.68-4.54-2.7-7.33-2.7s-5.35,1.02-7.33,2.7c-1.98-1.68-4.52-2.7-7.31-2.7-6.25,0-11.34,5.09-11.34,11.34s5.09,11.34,11.34,11.34ZM85.59,43.38c0,4.22-3.44,7.66-7.66,7.66-1.88,0-3.6-.69-4.93-1.82,1.03-1.71,1.64-3.7,1.64-5.84s-.61-4.13-1.64-5.84c1.33-1.13,3.05-1.82,4.93-1.82,4.22,0,7.66,3.44,7.66,7.66ZM63.3,35.72c4.22,0,7.66,3.44,7.66,7.66s-3.44,7.66-7.66,7.66-7.66-3.44-7.66-7.66,3.44-7.66,7.66-7.66ZM48.66,35.72c1.88,0,3.6.69,4.93,1.82-1.03,1.71-1.64,3.7-1.64,5.84s.61,4.13,1.64,5.84c-1.33,1.13-3.05,1.82-4.93,1.82-4.22,0-7.66-3.44-7.66-7.66s3.44-7.66,7.66-7.66Z"/>
    <path class="cls-4" d="M77.93,55.32c-2.57,0-5.03.47-7.31,1.32-2.28-.85-4.75-1.32-7.33-1.32s-5.04.47-7.33,1.32c-2.28-.85-4.74-1.32-7.31-1.32-11.62,0-21.07,9.45-21.07,21.07,0,1.02.82,1.84,1.84,1.84h67.73c1.02,0,1.84-.82,1.84-1.84,0-11.62-9.45-21.07-21.07-21.07ZM80.59,74.55h-34.59c.92-8.73,8.33-15.55,17.29-15.55s16.37,6.82,17.29,15.55ZM48.66,59c.85,0,1.68.07,2.49.18-4.92,3.49-8.29,9.03-8.84,15.36h-10.94c.92-8.73,8.33-15.55,17.29-15.55ZM84.28,74.55c-.55-6.34-3.92-11.88-8.84-15.36.81-.12,1.65-.18,2.49-.18,8.97,0,16.37,6.82,17.29,15.55h-10.94Z"/>
  </g>
  <text class="cls-4" transform="translate(27.59 119.7)"><tspan class="cls-10"><tspan class="cls-13" x="0" y="0">O</tspan><tspan class="cls-9" x="18.1" y="0">c</tspan><tspan class="cls-14" x="30.06" y="0">u</tspan><tspan class="cls-16" x="42.41" y="0">p</tspan><tspan x="57.02" y="0">an</tspan><tspan class="cls-17" x="84.77" y="0">t</tspan><tspan class="cls-1" x="93.09" y="0">e</tspan><tspan x="106.33" y="0">s </tspan><tspan class="cls-1" x="122.51" y="0">d</tspan><tspan x="137.2" y="0">o </tspan><tspan class="cls-19" x="156.39" y="0">v</tspan><tspan class="cls-14" x="169.49" y="0">e</tspan><tspan class="cls-9" x="182.36" y="0">íc</tspan><tspan class="cls-7" x="199.84" y="0">u</tspan><tspan class="cls-1" x="212.81" y="0">l</tspan><tspan x="218.43" y="0">o</tspan></tspan><tspan class="cls-26"><tspan x="0" y="43.2">Em </tspan><tspan class="cls-23" x="29.96" y="43.2">c</tspan><tspan x="39.01" y="43.2">a</tspan><tspan class="cls-21" x="49.47" y="43.2">s</tspan><tspan x="57.14" y="43.2">o </tspan><tspan class="cls-21" x="71.54" y="43.2">d</tspan><tspan x="82.3" y="43.2">e </tspan><tspan class="cls-18" x="96.68" y="43.2">a</tspan><tspan class="cls-24" x="106.96" y="43.2">c</tspan><tspan class="cls-3" x="115.97" y="43.2">i</tspan><tspan class="cls-21" x="119.3" y="43.2">d</tspan><tspan class="cls-3" x="130.07" y="43.2">e</tspan><tspan x="140.03" y="43.2">n</tspan><tspan class="cls-20" x="149.68" y="43.2">t</tspan><tspan class="cls-22" x="155.65" y="43.2">e</tspan><tspan x="165.52" y="43.2">, </tspan><tspan class="cls-21" x="173.46" y="43.2">de</tspan><tspan x="194.21" y="43.2">s</tspan><tspan class="cls-22" x="201.94" y="43.2">p</tspan><tspan class="cls-21" x="212.58" y="43.2">es</tspan><tspan x="230.24" y="43.2">as </tspan></tspan><tspan class="cls-26"><tspan class="cls-18" x="0" y="64.8">mé</tspan><tspan x="25.69" y="64.8">d</tspan><tspan class="cls-3" x="36.51" y="64.8">i</tspan><tspan class="cls-23" x="39.84" y="64.8">c</tspan><tspan x="48.9" y="64.8">as e </tspan><tspan class="cls-21" x="85.78" y="64.8">d</tspan><tspan x="96.54" y="64.8">e </tspan><tspan class="cls-18" x="110.91" y="64.8">h</tspan><tspan class="cls-21" x="120.38" y="64.8">o</tspan><tspan x="130.4" y="64.8">s</tspan><tspan class="cls-18" x="138.13" y="64.8">p</tspan><tspan x="148.77" y="64.8">i</tspan><tspan class="cls-15" x="152.19" y="64.8">t</tspan><tspan class="cls-8" x="158.16" y="64.8">a</tspan><tspan x="168.73" y="64.8">l </tspan><tspan class="cls-2" x="176.47" y="64.8">do</tspan><tspan x="197.25" y="64.8">s </tspan></tspan><tspan class="cls-26"><tspan class="cls-18" x="0" y="86.4">p</tspan><tspan x="10.64" y="86.4">as</tspan><tspan class="cls-21" x="28.83" y="86.4">s</tspan><tspan class="cls-22" x="36.5" y="86.4">a</tspan><tspan class="cls-3" x="46.77" y="86.4">g</tspan><tspan class="cls-18" x="57.26" y="86.4">e</tspan><tspan class="cls-5" x="67.13" y="86.4">i</tspan><tspan class="cls-6" x="70.52" y="86.4">r</tspan><tspan class="cls-21" x="76.36" y="86.4">o</tspan><tspan x="86.37" y="86.4">s </tspan><tspan class="cls-21" x="98.42" y="86.4">s</tspan><tspan class="cls-27" x="106.09" y="86.4">e</tspan><tspan class="cls-6" x="116.06" y="86.4">r</tspan><tspan class="cls-22" x="121.89" y="86.4">ã</tspan><tspan x="132.17" y="86.4">o </tspan><tspan class="cls-12" x="146.56" y="86.4">r</tspan><tspan class="cls-22" x="152.4" y="86.4">e</tspan><tspan class="cls-3" x="162.27" y="86.4">e</tspan><tspan class="cls-8" x="172.23" y="86.4">m</tspan><tspan class="cls-18" x="188.34" y="86.4">b</tspan><tspan class="cls-24" x="198.99" y="86.4">o</tspan><tspan x="208.92" y="86.4">l</tspan><tspan class="cls-21" x="212.34" y="86.4">s</tspan><tspan class="cls-22" x="220" y="86.4">a</tspan><tspan class="cls-2" x="230.28" y="86.4">d</tspan><tspan x="241.05" y="86.4">a</tspan><tspan class="cls-11" x="251.5" y="86.4">s</tspan><tspan class="cls-25" x="259.21" y="86.4">.</tspan></tspan></text>
</svg>