<?xml version="1.0" encoding="UTF-8"?>
<svg id="Layer_1" data-name="Layer 1" xmlns="http://www.w3.org/2000/svg" viewBox="0 0 366.28 305.38">
  <defs>
    <style>
      .cls-1 {
        letter-spacing: -.01em;
      }

      .cls-2 {
        letter-spacing: 0em;
      }

      .cls-3 {
        letter-spacing: 0em;
      }

      .cls-4 {
        letter-spacing: 0em;
      }

      .cls-5 {
        fill: #fff;
      }

      .cls-6 {
        letter-spacing: 0em;
      }

      .cls-7 {
        letter-spacing: -.03em;
      }

      .cls-8 {
        letter-spacing: -.01em;
      }

      .cls-9 {
        font-family: UrbanistRoman-Bold, Urbanist;
        font-size: 23.99px;
        font-variation-settings: 'wght' 700;
        font-weight: 700;
      }

      .cls-10 {
        letter-spacing: -.02em;
      }

      .cls-11 {
        letter-spacing: 0em;
      }

      .cls-12 {
        letter-spacing: 0em;
      }

      .cls-13 {
        letter-spacing: -.01em;
      }

      .cls-14 {
        letter-spacing: 0em;
      }

      .cls-15 {
        letter-spacing: -.01em;
      }

      .cls-16 {
        letter-spacing: 0em;
      }

      .cls-17 {
        font-family: Urbanist-Regular, Urbanist;
        font-size: 18px;
        font-variation-settings: 'wght' 400;
      }

      .cls-18 {
        letter-spacing: 0em;
      }

      .cls-19 {
        fill: #130044;
      }

      .cls-20 {
        letter-spacing: -.01em;
      }
    </style>
  </defs>
  <rect class="cls-19" x="0" y="0" width="366.28" height="305.38" rx="29.13" ry="29.13"/>
  <g>
    <path class="cls-5" d="M49.21,73.36h-11.22c-3.15,0-4.73,0-5.79-.54-.94-.48-1.68-1.22-2.16-2.16-.54-1.06-.54-2.64-.54-5.79v-22.43c0-3.15,0-4.73.54-5.79.48-.94,1.23-1.68,2.16-2.16,1.06-.54,2.64-.54,5.79-.54h34.24c3.15,0,4.73,0,5.79.54.94.48,1.68,1.23,2.16,2.16.54,1.06.54,2.64.54,5.79v.89c0,.53.43.96.96.96s.96-.43.96-.96v-.89c0-3.45,0-5.19-.75-6.66-.66-1.3-1.7-2.34-3-3-1.47-.75-3.2-.75-6.66-.75h-34.24c-3.45,0-5.19,0-6.66.75-1.3.66-2.34,1.7-3,3-.75,1.47-.75,3.2-.75,6.66v22.43c0,3.45,0,5.19.75,6.66.66,1.3,1.7,2.34,3,3,1.47.75,3.2.75,6.66.75h11.22c.53,0,.96-.43.96-.96s-.43-.96-.96-.96Z"/>
    <path class="cls-5" d="M82.36,55.93c-2-2-5.26-2-7.26,0l-12.27,12.27c-.4.4-.63.63-.82.91-.18.25-.32.53-.43.81-.13.32-.19.63-.3,1.19l-1.2,5.98c-.06.31.04.64.26.87.18.18.43.28.68.28.06,0,.13,0,.19-.02l5.98-1.2c.56-.11.86-.17,1.19-.3.28-.11.55-.26.81-.43.29-.2.52-.44.91-.82l12.27-12.27c.97-.97,1.5-2.26,1.5-3.63s-.53-2.66-1.5-3.63ZM81,61.84l-12.27,12.27c-.35.35-.5.5-.65.6-.13.09-.27.17-.41.22-.16.06-.38.11-.86.2l-4.57.91.91-4.57c.1-.5.14-.7.2-.86.06-.15.13-.28.22-.41.1-.14.27-.31.6-.65l12.27-12.27c.63-.63,1.45-.94,2.27-.94s1.65.31,2.27.94.94,1.41.94,2.27-.33,1.67-.94,2.27Z"/>
    <path class="cls-5" d="M46.26,47.24h5.9c.53,0,.96-.43.96-.96s-.43-.96-.96-.96h-4.95v-1.99c0-.53-.43-.96-.96-.96s-.96.43-.96.96v2c-2.46.06-5.89.59-5.9,4.88,0,1.29,0,2.41.81,3.23.88.88,2.41,1.18,6.05,1.18,1.93,0,3.99.06,4.62.49.3.2.32.68.32,2,0,1.92,0,2.98-4.95,2.98h-5.9c-.53,0-.96.43-.96.96s.43.96.96.96h4.95v1.99c0,.53.43.96.96.96s.96-.43.96-.96v-2.01c5.45-.21,5.9-2.25,5.9-4.88,0-3.79-.96-4.4-6.86-4.4-1.75,0-4.14-.06-4.69-.62-.24-.25-.26-.84-.25-1.87,0-2.31,1.11-2.98,4.95-2.98Z"/>
    <path class="cls-5" d="M61.02,48.71h8.85c.53,0,.96-.43.96-.96s-.43-.96-.96-.96h-8.85c-.53,0-.96.43-.96.96s.43.96.96.96Z"/>
  </g>
  <text class="cls-5" transform="translate(27.59 119.7)"><tspan class="cls-9"><tspan x="0" y="0">I</tspan><tspan class="cls-11" x="6.52" y="0">n</tspan><tspan class="cls-2" x="19.67" y="0">d</tspan><tspan class="cls-8" x="34.36" y="0">e</tspan><tspan x="47.51" y="0">ni</tspan><tspan class="cls-1" x="66.69" y="0">z</tspan><tspan class="cls-11" x="78.58" y="0">a</tspan><tspan class="cls-10" x="92.71" y="0">ç</tspan><tspan class="cls-11" x="104.57" y="0">ã</tspan><tspan x="118.7" y="0">o </tspan><tspan class="cls-11" x="137.88" y="0">p</tspan><tspan class="cls-8" x="152.49" y="0">o</tspan><tspan x="165.65" y="0">r </tspan><tspan class="cls-11" x="180.64" y="0">m</tspan><tspan class="cls-8" x="201.71" y="0">o</tspan><tspan x="214.87" y="0">r</tspan><tspan class="cls-20" x="224.1" y="0">t</tspan><tspan x="232.43" y="0">e</tspan></tspan><tspan class="cls-17"><tspan class="cls-14" x="0" y="43.2">Id</tspan><tspan class="cls-4" x="14.66" y="43.2">e</tspan><tspan x="24.62" y="43.2">ni</tspan><tspan class="cls-4" x="37.69" y="43.2">z</tspan><tspan class="cls-12" x="46.73" y="43.2">a</tspan><tspan class="cls-16" x="57.01" y="43.2">ç</tspan><tspan class="cls-12" x="66.06" y="43.2">ã</tspan><tspan x="76.34" y="43.2">o </tspan><tspan class="cls-15" x="90.74" y="43.2">p</tspan><tspan class="cls-4" x="101.38" y="43.2">o</tspan><tspan x="111.37" y="43.2">r </tspan><tspan class="cls-12" x="122.12" y="43.2">m</tspan><tspan class="cls-4" x="137.93" y="43.2">o</tspan><tspan x="147.92" y="43.2">r</tspan><tspan class="cls-13" x="154.36" y="43.2">t</tspan><tspan x="160.33" y="43.2">e </tspan><tspan class="cls-15" x="174.7" y="43.2">p</tspan><tspan x="185.34" y="43.2">a</tspan><tspan class="cls-7" x="195.79" y="43.2">r</tspan><tspan x="201.63" y="43.2">a </tspan></tspan><tspan class="cls-17"><tspan x="0" y="64.8">am</tspan><tspan class="cls-12" x="26.45" y="64.8">p</tspan><tspan x="37.09" y="64.8">a</tspan><tspan class="cls-7" x="47.55" y="64.8">r</tspan><tspan x="53.38" y="64.8">ar </tspan><tspan class="cls-14" x="74.59" y="64.8">o</tspan><tspan x="84.61" y="64.8">s </tspan><tspan class="cls-12" x="96.66" y="64.8">b</tspan><tspan class="cls-4" x="107.31" y="64.8">e</tspan><tspan class="cls-15" x="117.27" y="64.8">n</tspan><tspan x="126.74" y="64.8">e</tspan><tspan class="cls-14" x="136.79" y="64.8">f</tspan><tspan class="cls-18" x="142.73" y="64.8">i</tspan><tspan class="cls-3" x="146.06" y="64.8">c</tspan><tspan class="cls-4" x="155.08" y="64.8">i</tspan><tspan x="158.41" y="64.8">á</tspan><tspan class="cls-16" x="168.87" y="64.8">r</tspan><tspan class="cls-4" x="175.18" y="64.8">i</tspan><tspan class="cls-14" x="178.51" y="64.8">o</tspan><tspan class="cls-6" x="188.53" y="64.8">s</tspan><tspan x="196.24" y="64.8">.</tspan></tspan></text>
</svg>