<?xml version="1.0" encoding="UTF-8"?>
<svg id="Layer_1" data-name="Layer 1" xmlns="http://www.w3.org/2000/svg" viewBox="0 0 366.28 305.38">
  <defs>
    <style>
      .cls-1 {
        letter-spacing: -.01em;
      }

      .cls-2 {
        letter-spacing: -.01em;
      }

      .cls-3 {
        font-family: UrbanistRoman-Bold, Urbanist;
        font-size: 16px;
        font-variation-settings: 'wght' 700;
        font-weight: 700;
      }

      .cls-3, .cls-4 {
        fill: #130044;
      }

      .cls-5 {
        letter-spacing: -.01em;
      }

      .cls-6 {
        letter-spacing: -.04em;
      }
    </style>
  </defs>
  <path class="cls-4" d="M337.15,9c11.1,0,20.14,9.03,20.14,20.14v247.12c0,11.1-9.03,20.13-20.14,20.13H29.13c-11.1,0-20.14-9.03-20.14-20.13V29.13c0-11.1,9.03-20.14,20.14-20.14h308.02M337.15,0H29.13C13.11,0,0,13.11,0,29.13v247.12C0,292.27,13.11,305.38,29.13,305.38h308.02c16.02,0,29.13-13.11,29.13-29.13V29.13c0-16.02-13.11-29.13-29.13-29.13h0Z"/>
  <text class="cls-3" transform="translate(27.59 272.88)"><tspan class="cls-6" x="0" y="0">R</tspan><tspan x="9.03" y="0">e</tspan><tspan class="cls-1" x="17.98" y="0">f</tspan><tspan class="cls-2" x="23.59" y="0">or</tspan><tspan class="cls-5" x="38.34" y="0">m</tspan><tspan x="52.4" y="0">as</tspan></text>
  <polygon class="cls-4" points="338.69 262.6 330.04 262.6 330.04 253.95 324.38 253.95 324.38 262.6 315.73 262.6 315.73 268.27 324.38 268.27 324.38 276.92 330.04 276.92 330.04 268.27 338.69 268.27 338.69 262.6"/>
  <g>
    <path class="cls-4" d="M37.04,48.04h16.35v2.15c0,3.34-2.72,6.06-6.06,6.06h-.14c-2.82,0-5.24-1.91-5.9-4.65-.14-.57-.71-.93-1.29-.79-.57.14-.93.71-.79,1.29.89,3.7,4.17,6.28,7.98,6.28h.14c4.52,0,8.2-3.68,8.2-8.2v-2.15h1.94c.59,0,1.07-.48,1.07-1.07s-.48-1.07-1.07-1.07h-.81v-2.69c0-3.54-1.99-6.63-4.9-8.2v-1.9c0-.59-.48-1.07-1.07-1.07s-1.07.48-1.07,1.07v1.07c-.73-.18-1.49-.28-2.28-.28h-.17c-.79,0-1.55.1-2.28.28v-1.07c0-.59-.48-1.07-1.07-1.07s-1.07.48-1.07,1.07v1.9c-2.92,1.58-4.9,4.66-4.9,8.2v2.69h-.81c-.59,0-1.07.48-1.07,1.07s.48,1.07,1.07,1.07ZM39.99,43.21c0-2.3,1.08-4.34,2.77-5.66v.42c0,.59.48,1.07,1.07,1.07s1.07-.48,1.07-1.07v-1.57c.72-.24,1.48-.37,2.28-.37h.17c.8,0,1.56.13,2.28.37v1.57c0,.59.48,1.07,1.07,1.07s1.07-.48,1.07-1.07v-.42c1.68,1.32,2.77,3.36,2.77,5.66v2.69h-14.53v-2.69Z"/>
    <path class="cls-4" d="M57.85,60.19h-21.99c-4.56,0-8.27,3.71-8.27,8.27v8.71c0,.59.48,1.07,1.07,1.07h36.39c.59,0,1.07-.48,1.07-1.07v-8.71c0-4.56-3.71-8.27-8.27-8.27ZM29.73,68.45c0-3.38,2.75-6.13,6.13-6.13h3.32v7.82c0,.59.48,1.07,1.07,1.07h13.22c.59,0,1.07-.48,1.07-1.07v-5.09c0-.59-.48-1.07-1.07-1.07s-1.07.48-1.07,1.07v4.02h-11.08v-6.75h15.09v13.77h-19.1v-8.76c0-.59-.48-1.07-1.07-1.07s-1.07.48-1.07,1.07v8.76h-5.44v-7.64ZM63.98,76.09h-5.44v-13.73c3.06.34,5.44,2.94,5.44,6.09v7.64Z"/>
    <path class="cls-4" d="M40.25,74.48h13.22c.59,0,1.07-.48,1.07-1.07s-.48-1.07-1.07-1.07h-13.22c-.59,0-1.07.48-1.07,1.07s.48,1.07,1.07,1.07Z"/>
  </g>
</svg>