<?xml version="1.0" encoding="UTF-8"?>
<svg id="Layer_1" data-name="Layer 1" xmlns="http://www.w3.org/2000/svg" viewBox="0 0 366.28 305.38">
  <defs>
    <style>
      .cls-1 {
        letter-spacing: 0em;
      }

      .cls-2 {
        letter-spacing: -.02em;
      }

      .cls-3 {
        letter-spacing: 0em;
      }

      .cls-4 {
        letter-spacing: -.04em;
      }

      .cls-5 {
        letter-spacing: 0em;
      }

      .cls-6 {
        fill: #fff;
      }

      .cls-7 {
        letter-spacing: -.01em;
      }

      .cls-8 {
        letter-spacing: -.04em;
      }

      .cls-9 {
        letter-spacing: 0em;
      }

      .cls-10 {
        font-family: UrbanistRoman-Bold, Urbanist;
        font-size: 20px;
        font-variation-settings: 'wght' 700;
        font-weight: 700;
      }

      .cls-11 {
        letter-spacing: -.03em;
      }

      .cls-12 {
        letter-spacing: -.03em;
      }

      .cls-13 {
        letter-spacing: -.03em;
      }

      .cls-14 {
        letter-spacing: 0em;
      }

      .cls-15 {
        letter-spacing: -.01em;
      }

      .cls-16 {
        letter-spacing: 0em;
      }

      .cls-17 {
        letter-spacing: 0em;
      }

      .cls-18 {
        letter-spacing: -.02em;
      }

      .cls-19 {
        letter-spacing: -.04em;
      }

      .cls-20 {
        letter-spacing: -.01em;
      }

      .cls-21 {
        letter-spacing: -.01em;
      }

      .cls-22 {
        letter-spacing: 0em;
      }

      .cls-23 {
        letter-spacing: 0em;
      }

      .cls-24 {
        letter-spacing: -.01em;
      }

      .cls-25 {
        letter-spacing: 0em;
      }

      .cls-26 {
        letter-spacing: 0em;
      }

      .cls-27 {
        font-family: Urbanist-Regular, Urbanist;
        font-size: 18px;
        font-variation-settings: 'wght' 400;
      }

      .cls-28 {
        letter-spacing: -.04em;
      }

      .cls-29 {
        letter-spacing: -.05em;
      }

      .cls-30 {
        fill: #130044;
      }
    </style>
  </defs>
  <rect class="cls-30" x="0" y="0" width="366.28" height="305.38" rx="29.13" ry="29.13"/>
  <g>
    <g>
      <path class="cls-6" d="M50.11,52.91l-6.98-6.98,2.02-2.02,6.98,6.98,1.15-1.15-7.33-7.33,2.11-2.11s.03-.03.05-.05c.02-.01.03-.03.05-.04l3.82-3.82c.31-.31.32-.82.01-1.14l-.04-.05s-.07-.08-.11-.11c-1.91-1.91-4.38-3.05-6.63-3.05-1.51,0-2.81.5-3.76,1.45-.02.02-.04.04-.06.06-.01.01-.03.02-.04.03l-8.66,8.66c-.32.32-.32.83,0,1.15l1.28,1.28-1.06,1.06-1.28-1.28c-.15-.15-.36-.24-.57-.24s-.42.09-.57.24l-2.65,2.65c-.32.32-.32.83,0,1.15l5.56,5.56c.15.15.36.24.57.24s.42-.09.57-.24l2.65-2.65c.32-.32.32-.83,0-1.15l-1.28-1.28,1.06-1.06,1.28,1.28c.16.16.37.24.57.24s.42-.08.57-.24l2.23-2.23,7.33,7.33,1.15-1.15ZM45.2,33.66c1.66,0,3.5.8,5.03,2.15l-2.66,2.66-4.34-4.34c.55-.31,1.21-.48,1.96-.48ZM33.97,52.09l-4.41-4.41,1.5-1.5,4.41,4.41-1.5,1.5ZM34.82,47.52l-.7-.7,1-1,.7.7-1,1ZM38.82,47.23l-4.41-4.41,7.51-7.51,4.41,4.41-7.51,7.51Z"/>
      <path class="cls-6" d="M77.15,73.62l-16.72-16.72-1.15,1.15,16.15,16.15-2.02,2.02-16.15-16.15-1.15,1.15,16.72,16.72c.15.15.36.24.57.24s.42-.09.57-.24l3.17-3.17c.32-.32.32-.83,0-1.15Z"/>
    </g>
    <path class="cls-6" d="M77.62,37.23c-.09-.26-.31-.46-.59-.52-.27-.06-.56.02-.76.22l-3.28,3.28-3.08-3.08,3.28-3.28c.2-.2.28-.48.22-.76-.06-.27-.26-.49-.52-.59-.82-.29-1.68-.43-2.55-.43-2.06,0-3.99.8-5.45,2.26-1.46,1.46-2.26,3.39-2.26,5.45,0,1,.19,1.96.55,2.86l-20.74,20.74c-.9-.36-1.86-.55-2.86-.55-2.06,0-3.99.8-5.45,2.26-2.08,2.08-2.8,5.22-1.83,7.99.09.26.31.46.59.52.27.06.56-.02.76-.22l3.28-3.28,3.08,3.08-3.28,3.28c-.2.2-.28.48-.22.76.06.27.26.49.52.59.82.29,1.67.43,2.55.43h0c2.06,0,3.99-.8,5.45-2.26,2.24-2.24,2.81-5.53,1.71-8.3l20.74-20.74c.9.36,1.86.55,2.86.55h0c2.06,0,3.99-.8,5.45-2.26,2.08-2.08,2.8-5.22,1.83-7.99ZM43.89,74.83c-1.15,1.15-2.67,1.78-4.3,1.78h0c-.22,0-.44-.01-.66-.04l2.82-2.82c.15-.15.24-.36.24-.57s-.09-.42-.24-.57l-4.23-4.23c-.32-.32-.83-.32-1.15,0l-2.82,2.82c-.19-1.81.43-3.65,1.74-4.96,1.15-1.15,2.67-1.78,4.3-1.78s3.15.63,4.3,1.78c2.37,2.37,2.37,6.23,0,8.6ZM46.04,66.08l-2-2,19.79-19.79,2,2-19.79,19.79ZM74.64,44.07c-1.15,1.15-2.67,1.78-4.3,1.78s-3.15-.63-4.3-1.78c-1.15-1.15-1.78-2.67-1.78-4.3s.63-3.15,1.78-4.3c1.15-1.15,2.67-1.78,4.3-1.78.22,0,.44.01.66.04l-2.82,2.82c-.15.15-.24.36-.24.57s.09.42.24.57l4.23,4.23c.32.32.83.32,1.15,0l2.82-2.82c.19,1.81-.43,3.65-1.74,4.96Z"/>
  </g>
  <text class="cls-6" transform="translate(27.59 116.71)"><tspan class="cls-10"><tspan class="cls-29" x="0" y="0">M</tspan><tspan x="17.64" y="0">anu</tspan><tspan class="cls-21" x="51.54" y="0">t</tspan><tspan class="cls-7" x="58.48" y="0">e</tspan><tspan class="cls-24" x="69.44" y="0">n</tspan><tspan class="cls-18" x="80.4" y="0">ç</tspan><tspan class="cls-17" x="90.29" y="0">ã</tspan><tspan x="102.07" y="0">o </tspan><tspan class="cls-2" x="118.07" y="0">c</tspan><tspan class="cls-7" x="127.96" y="0">or</tspan><tspan class="cls-19" x="146.4" y="0">r</tspan><tspan class="cls-21" x="153.35" y="0">e</tspan><tspan class="cls-23" x="164.32" y="0">t</tspan><tspan class="cls-2" x="171.33" y="0">i</tspan><tspan class="cls-28" x="175.86" y="0">v</tspan><tspan x="186.78" y="0">a</tspan></tspan><tspan class="cls-27"><tspan class="cls-25" x="0" y="43.2">G</tspan><tspan x="13.71" y="43.2">a</tspan><tspan class="cls-11" x="24.17" y="43.2">r</tspan><tspan x="30" y="43.2">an</tspan><tspan class="cls-20" x="50.1" y="43.2">t</tspan><tspan x="56.07" y="43.2">e a </tspan><tspan class="cls-9" x="85.22" y="43.2">i</tspan><tspan class="cls-24" x="88.61" y="43.2">n</tspan><tspan class="cls-3" x="98.08" y="43.2">d</tspan><tspan class="cls-5" x="108.85" y="43.2">e</tspan><tspan x="118.81" y="43.2">ni</tspan><tspan class="cls-5" x="131.88" y="43.2">z</tspan><tspan class="cls-24" x="140.91" y="43.2">a</tspan><tspan class="cls-25" x="151.19" y="43.2">ç</tspan><tspan class="cls-16" x="160.24" y="43.2">ã</tspan><tspan x="170.52" y="43.2">o </tspan><tspan class="cls-24" x="184.92" y="43.2">p</tspan><tspan class="cls-26" x="195.56" y="43.2">e</tspan><tspan class="cls-22" x="205.46" y="43.2">lo</tspan><tspan x="218.83" y="43.2">s </tspan></tspan><tspan class="cls-27"><tspan class="cls-5" x="0" y="64.8">p</tspan><tspan class="cls-11" x="10.73" y="64.8">r</tspan><tspan class="cls-16" x="16.56" y="64.8">e</tspan><tspan class="cls-25" x="26.43" y="64.8">j</tspan><tspan x="30.29" y="64.8">uí</tspan><tspan class="cls-5" x="42.99" y="64.8">z</tspan><tspan class="cls-22" x="52.03" y="64.8">o</tspan><tspan x="62.05" y="64.8">s </tspan><tspan class="cls-22" x="74.1" y="64.8">d</tspan><tspan class="cls-16" x="84.86" y="64.8">e</tspan><tspan class="cls-25" x="94.73" y="64.8">c</tspan><tspan class="cls-5" x="103.79" y="64.8">or</tspan><tspan class="cls-11" x="120.12" y="64.8">r</tspan><tspan class="cls-5" x="125.96" y="64.8">e</tspan><tspan x="135.92" y="64.8">n</tspan><tspan class="cls-20" x="145.57" y="64.8">t</tspan><tspan class="cls-22" x="151.53" y="64.8">e</tspan><tspan x="161.52" y="64.8">s </tspan><tspan class="cls-22" x="173.57" y="64.8">d</tspan><tspan x="184.34" y="64.8">a </tspan></tspan><tspan class="cls-27"><tspan class="cls-9" x="0" y="86.4">i</tspan><tspan class="cls-24" x="3.39" y="86.4">n</tspan><tspan class="cls-4" x="12.86" y="86.4">e</tspan><tspan class="cls-8" x="22.19" y="86.4">x</tspan><tspan class="cls-24" x="31.12" y="86.4">e</tspan><tspan class="cls-5" x="40.99" y="86.4">c</tspan><tspan class="cls-22" x="50.08" y="86.4">u</tspan><tspan class="cls-25" x="59.3" y="86.4">ç</tspan><tspan class="cls-16" x="68.35" y="86.4">ã</tspan><tspan x="78.63" y="86.4">o </tspan><tspan class="cls-22" x="93.03" y="86.4">d</tspan><tspan x="103.8" y="86.4">as </tspan><tspan class="cls-16" x="126.31" y="86.4">a</tspan><tspan class="cls-25" x="136.58" y="86.4">ç</tspan><tspan class="cls-24" x="145.64" y="86.4">õ</tspan><tspan class="cls-22" x="155.54" y="86.4">e</tspan><tspan x="165.53" y="86.4">s </tspan><tspan class="cls-25" x="177.58" y="86.4">c</tspan><tspan class="cls-5" x="186.63" y="86.4">or</tspan><tspan class="cls-13" x="202.97" y="86.4">r</tspan><tspan class="cls-20" x="208.8" y="86.4">e</tspan><tspan class="cls-22" x="218.61" y="86.4">t</tspan><tspan class="cls-25" x="224.76" y="86.4">i</tspan><tspan class="cls-12" x="228.06" y="86.4">v</tspan><tspan x="236.84" y="86.4">as </tspan></tspan><tspan class="cls-27"><tspan x="0" y="108">a</tspan><tspan class="cls-16" x="10.46" y="108">p</tspan><tspan class="cls-5" x="21.1" y="108">o</tspan><tspan x="31.09" y="108">n</tspan><tspan class="cls-15" x="40.73" y="108">t</tspan><tspan class="cls-16" x="46.7" y="108">a</tspan><tspan class="cls-22" x="56.98" y="108">d</tspan><tspan x="67.74" y="108">as </tspan><tspan class="cls-16" x="90.25" y="108">p</tspan><tspan class="cls-1" x="100.89" y="108">e</tspan><tspan class="cls-3" x="110.79" y="108">l</tspan><tspan x="114.15" y="108">o </tspan><tspan class="cls-22" x="128.55" y="108">s</tspan><tspan class="cls-24" x="136.21" y="108">e</tspan><tspan class="cls-25" x="146.09" y="108">g</tspan><tspan x="156.55" y="108">u</tspan><tspan class="cls-13" x="165.83" y="108">r</tspan><tspan class="cls-24" x="171.67" y="108">a</tspan><tspan class="cls-22" x="181.94" y="108">d</tspan><tspan x="192.71" y="108">o </tspan><tspan class="cls-16" x="207.11" y="108">a</tspan><tspan x="217.39" y="108">o </tspan></tspan><tspan class="cls-27"><tspan class="cls-20" x="0" y="129.6">t</tspan><tspan class="cls-5" x="5.97" y="129.6">o</tspan><tspan class="cls-24" x="15.96" y="129.6">ma</tspan><tspan class="cls-22" x="42.05" y="129.6">d</tspan><tspan class="cls-5" x="52.81" y="129.6">o</tspan><tspan class="cls-13" x="62.8" y="129.6">r</tspan><tspan class="cls-14" x="68.63" y="129.6">.</tspan></tspan></text>
</svg>