<?xml version="1.0" encoding="UTF-8"?>
<svg id="Layer_1" data-name="Layer 1" xmlns="http://www.w3.org/2000/svg" viewBox="0 0 366.28 305.38">
  <defs>
    <style>
      .cls-1 {
        letter-spacing: 0em;
      }

      .cls-2 {
        letter-spacing: -.02em;
      }

      .cls-3 {
        letter-spacing: 0em;
      }

      .cls-4 {
        letter-spacing: -.01em;
      }

      .cls-5 {
        font-family: UrbanistRoman-Bold, Urbanist;
        font-size: 23.99px;
        font-variation-settings: 'wght' 700;
        font-weight: 700;
      }

      .cls-5, .cls-6 {
        fill: #130044;
      }

      .cls-7 {
        letter-spacing: 0em;
      }

      .cls-8 {
        letter-spacing: -.02em;
      }

      .cls-9 {
        letter-spacing: -.01em;
      }

      .cls-10 {
        letter-spacing: -.01em;
      }

      .cls-11 {
        letter-spacing: 0em;
      }
    </style>
  </defs>
  <path class="cls-6" d="M337.15,8.99c11.1,0,20.14,9.03,20.14,20.14v247.12c0,11.1-9.03,20.14-20.14,20.14H29.13c-11.1,0-20.13-9.03-20.13-20.14V29.13c0-11.1,9.03-20.14,20.13-20.14h308.02M337.15,0H29.13C13.11,0,0,13.11,0,29.13v247.12c0,16.02,13.11,29.13,29.13,29.13h308.02c16.02,0,29.13-13.11,29.13-29.13V29.13C366.28,13.11,353.18,0,337.15,0h0Z"/>
  <text class="cls-5" transform="translate(27.59 240.95)"><tspan class="cls-7" x="0" y="0">P</tspan><tspan class="cls-1" x="13.06" y="0">l</tspan><tspan x="18.69" y="0">a</tspan><tspan class="cls-3" x="33.05" y="0">n</tspan><tspan class="cls-1" x="46.2" y="0">o</tspan><tspan x="59.45" y="0">s </tspan><tspan class="cls-1" x="75.63" y="0">d</tspan><tspan x="90.32" y="0">e </tspan><tspan class="cls-1" x="109.5" y="0">s</tspan><tspan x="119.74" y="0">a</tspan><tspan class="cls-1" x="134.11" y="0">úd</tspan><tspan x="161.53" y="0">e e </tspan><tspan class="cls-3" x="0" y="28.78">o</tspan><tspan class="cls-11" x="13.19" y="28.78">d</tspan><tspan class="cls-4" x="27.88" y="28.78">o</tspan><tspan x="41.04" y="28.78">n</tspan><tspan class="cls-10" x="54.43" y="28.78">t</tspan><tspan class="cls-2" x="62.75" y="28.78">o</tspan><tspan class="cls-1" x="75.73" y="28.78">l</tspan><tspan class="cls-9" x="81.35" y="28.78">ó</tspan><tspan class="cls-4" x="94.54" y="28.78">gi</tspan><tspan class="cls-8" x="114.5" y="28.78">c</tspan><tspan x="126.36" y="28.78">o</tspan></text>
  <polygon class="cls-6" points="338.69 262.6 330.04 262.6 330.04 253.95 324.38 253.95 324.38 262.6 315.73 262.6 315.73 268.27 324.38 268.27 324.38 276.92 330.04 276.92 330.04 268.27 338.69 268.27 338.69 262.6"/>
  <g id="Layer_22" data-name="Layer 22">
    <path class="cls-6" d="M78.41,50.66c.32-1.24.48-2.53.46-3.81,0-8.18-6.63-14.81-14.81-14.81h-.17c-3.92.03-7.66,1.6-10.42,4.39-2.85-2.71-6.64-4.21-10.57-4.18-8.34.1-15.02,6.95-14.92,15.28.01,1.08.14,2.16.39,3.22-.5.35-.8.92-.8,1.54,0,1.02.83,1.85,1.85,1.85h.09c.75,1.49,1.74,2.86,2.92,4.03l.8.72c.08.11.16.21.26.3l18.91,18.51c.34.34.81.53,1.3.54.49,0,.97-.2,1.31-.56l18.51-18.93c.2-.21.35-.45.44-.72l.59-.57c.97-.99,1.79-2.11,2.44-3.33h.52c1.02,0,1.85-.83,1.85-1.85,0-.68-.38-1.29-.98-1.61ZM34.98,39.39c4.4-4.49,11.6-4.57,16.09-.17,0,0,0,0,0,0,.32.31.63.65.91,1,.08.11.18.22.28.31.78.68,1.96.63,2.68-.11l.2-.24c.25-.37.55-.71.87-1.02,2.08-2.14,4.92-3.35,7.9-3.37h.11c6.13-.05,11.14,4.88,11.19,11.01,0,1.21-.18,2.41-.55,3.55l-17.01-.2h0c-.74,0-1.41.45-1.7,1.13l-.63-2.46c-.16-.57-.58-1.03-1.13-1.24-.56-.21-1.19-.13-1.68.2l-2.33,1.57-2.59-7.4c-.23-.65-.8-1.12-1.48-1.22-.71-.13-1.43.15-1.85.74l-6.38,8.68-5.77.15c-1.05-3.89.04-8.05,2.87-10.92ZM71.99,54.84c-.31.33-.65.63-1.02.91-.37.27-.63.66-.72,1.11l-16.53,16.88-17.19-16.82c-.12-.24-.29-.45-.5-.61-.34-.25-.65-.52-.94-.81-.46-.46-.87-.96-1.24-1.5l5.03-.13c.57-.02,1.11-.3,1.44-.76l4.87-6.64,2.22,6.38c.19.54.62.97,1.17,1.15.55.18,1.15.1,1.63-.22l2.18-1.48,1.46,5.37c.21.78.9,1.33,1.7,1.37h.09c.76,0,1.45-.47,1.72-1.18l1.54-3.98,13.71.17c-.19.28-.4.56-.63.81Z"/>
  </g>
</svg>