<?xml version="1.0" encoding="UTF-8"?>
<svg id="Layer_1" data-name="Layer 1" xmlns="http://www.w3.org/2000/svg" viewBox="0 0 366.28 305.38">
  <defs>
    <style>
      .cls-1 {
        letter-spacing: 0em;
      }

      .cls-2 {
        letter-spacing: -.01em;
      }

      .cls-3 {
        letter-spacing: 0em;
      }

      .cls-4 {
        font-family: UrbanistRoman-Bold, Urbanist;
        font-size: 23.99px;
        font-variation-settings: 'wght' 700;
        font-weight: 700;
      }

      .cls-4, .cls-5 {
        fill: #130044;
      }

      .cls-6 {
        letter-spacing: 0em;
      }

      .cls-7 {
        letter-spacing: -.02em;
      }
    </style>
  </defs>
  <path class="cls-5" d="M337.15,8.99c11.1,0,20.13,9.03,20.13,20.14v247.12c0,11.1-9.03,20.14-20.13,20.14H29.13c-11.1,0-20.13-9.03-20.13-20.14V29.13c0-11.1,9.03-20.14,20.13-20.14h308.02M337.15,0H29.13C13.11,0,0,13.11,0,29.13v247.12c0,16.02,13.11,29.13,29.13,29.13h308.02c16.02,0,29.13-13.11,29.13-29.13V29.13C366.28,13.11,353.18,0,337.15,0h0Z"/>
  <text class="cls-4" transform="translate(27.59 274.19)"><tspan x="0" y="0">I</tspan><tspan class="cls-6" x="6.52" y="0">n</tspan><tspan x="19.67" y="0">d</tspan><tspan class="cls-7" x="34.54" y="0">iv</tspan><tspan class="cls-2" x="53.55" y="0">i</tspan><tspan x="59.08" y="0">d</tspan><tspan class="cls-1" x="73.95" y="0">u</tspan><tspan class="cls-3" x="86.68" y="0">a</tspan><tspan x="101.1" y="0">l</tspan></text>
  <polygon class="cls-5" points="338.69 262.6 330.04 262.6 330.04 253.95 324.38 253.95 324.38 262.6 315.73 262.6 315.73 268.27 324.38 268.27 324.38 276.92 330.04 276.92 330.04 268.27 338.69 268.27 338.69 262.6"/>
  <path class="cls-5" d="M37.07,41c2.22-1.6,2.72-4.69,1.12-6.91-1.6-2.22-4.69-2.72-6.91-1.12-2.22,1.6-2.72,4.69-1.12,6.91.31.43.69.81,1.12,1.12-2.25,1.1-3.69,3.39-3.69,5.9v29.68c0,.91.74,1.65,1.65,1.65h9.89c.91,0,1.65-.74,1.65-1.65v-29.68c-.01-2.51-1.45-4.8-3.71-5.9ZM34.19,35.36c.91,0,1.65.74,1.65,1.65s-.74,1.65-1.65,1.65-1.65-.74-1.65-1.65.74-1.65,1.65-1.65ZM37.49,74.93h-1.65v-8.24c0-.91-.74-1.65-1.65-1.65s-1.65.74-1.65,1.65v8.24h-1.65v-13.19h6.6v13.19ZM37.49,58.44h-6.6v-11.54c0-1.82,1.48-3.3,3.3-3.3s3.3,1.48,3.3,3.3v11.54Z"/>
</svg>