<?xml version="1.0" encoding="UTF-8"?>
<svg id="Layer_1" data-name="Layer 1" xmlns="http://www.w3.org/2000/svg" viewBox="0 0 366.28 305.38">
  <defs>
    <style>
      .cls-1 {
        letter-spacing: 0em;
      }

      .cls-2 {
        letter-spacing: 0em;
      }

      .cls-3 {
        letter-spacing: 0em;
      }

      .cls-4 {
        letter-spacing: 0em;
      }

      .cls-5, .cls-6 {
        fill: #fff;
      }

      .cls-7 {
        letter-spacing: -.01em;
      }

      .cls-8 {
        letter-spacing: 0em;
      }

      .cls-9 {
        font-family: UrbanistRoman-Bold, Urbanist;
        font-variation-settings: 'wght' 700;
        font-weight: 700;
      }

      .cls-10 {
        letter-spacing: 0em;
      }

      .cls-11 {
        letter-spacing: -.01em;
      }

      .cls-12 {
        letter-spacing: 0em;
      }

      .cls-13 {
        letter-spacing: 0em;
      }

      .cls-14 {
        letter-spacing: -.03em;
      }

      .cls-15 {
        letter-spacing: 0em;
      }

      .cls-6 {
        font-size: 16px;
      }

      .cls-16 {
        letter-spacing: -.03em;
      }

      .cls-17 {
        letter-spacing: -.01em;
      }

      .cls-18 {
        letter-spacing: -.03em;
      }

      .cls-19 {
        letter-spacing: 0em;
      }

      .cls-20 {
        letter-spacing: 0em;
      }

      .cls-21 {
        letter-spacing: -.01em;
      }

      .cls-22 {
        letter-spacing: 0em;
      }

      .cls-23 {
        letter-spacing: -.04em;
      }

      .cls-24 {
        font-family: Urbanist-Regular, Urbanist;
        font-variation-settings: 'wght' 400;
      }

      .cls-25 {
        fill: #130044;
      }
    </style>
  </defs>
  <rect class="cls-25" x="0" y="0" width="366.28" height="305.38" rx="29.13" ry="29.13"/>
  <g>
    <path class="cls-5" d="M37.04,48.04h16.35v2.15c0,3.34-2.72,6.06-6.06,6.06h-.14c-2.82,0-5.24-1.91-5.9-4.65-.14-.57-.71-.93-1.29-.79-.57.14-.93.71-.79,1.29.89,3.7,4.17,6.28,7.98,6.28h.14c4.52,0,8.2-3.68,8.2-8.2v-2.15h1.94c.59,0,1.07-.48,1.07-1.07s-.48-1.07-1.07-1.07h-.81v-2.69c0-3.54-1.99-6.63-4.9-8.2v-1.9c0-.59-.48-1.07-1.07-1.07s-1.07.48-1.07,1.07v1.07c-.73-.18-1.49-.28-2.28-.28h-.17c-.79,0-1.55.1-2.28.28v-1.07c0-.59-.48-1.07-1.07-1.07s-1.07.48-1.07,1.07v1.9c-2.92,1.58-4.9,4.66-4.9,8.2v2.69h-.81c-.59,0-1.07.48-1.07,1.07s.48,1.07,1.07,1.07ZM39.99,43.21c0-2.3,1.08-4.34,2.77-5.66v.42c0,.59.48,1.07,1.07,1.07s1.07-.48,1.07-1.07v-1.57c.72-.24,1.48-.37,2.28-.37h.17c.8,0,1.56.13,2.28.37v1.57c0,.59.48,1.07,1.07,1.07s1.07-.48,1.07-1.07v-.42c1.68,1.32,2.77,3.36,2.77,5.66v2.69h-14.53v-2.69Z"/>
    <path class="cls-5" d="M57.85,60.19h-21.99c-4.56,0-8.27,3.71-8.27,8.27v8.71c0,.59.48,1.07,1.07,1.07h36.39c.59,0,1.07-.48,1.07-1.07v-8.71c0-4.56-3.71-8.27-8.27-8.27ZM29.73,68.45c0-3.38,2.75-6.13,6.13-6.13h3.32v7.82c0,.59.48,1.07,1.07,1.07h13.22c.59,0,1.07-.48,1.07-1.07v-5.09c0-.59-.48-1.07-1.07-1.07s-1.07.48-1.07,1.07v4.02h-11.08v-6.75h15.09v13.77h-19.1v-8.76c0-.59-.48-1.07-1.07-1.07s-1.07.48-1.07,1.07v8.76h-5.44v-7.64ZM63.98,76.09h-5.44v-13.73c3.06.34,5.44,2.94,5.44,6.09v7.64Z"/>
    <path class="cls-5" d="M40.25,74.48h13.22c.59,0,1.07-.48,1.07-1.07s-.48-1.07-1.07-1.07h-13.22c-.59,0-1.07.48-1.07,1.07s.48,1.07,1.07,1.07Z"/>
  </g>
  <text class="cls-6" transform="translate(27.59 113.71)"><tspan class="cls-9"><tspan class="cls-23" x="0" y="0">R</tspan><tspan x="9.03" y="0">e</tspan><tspan class="cls-7" x="17.98" y="0">f</tspan><tspan class="cls-11" x="23.59" y="0">or</tspan><tspan class="cls-15" x="38.34" y="0">m</tspan><tspan x="52.4" y="0">as</tspan></tspan><tspan class="cls-24"><tspan class="cls-16" x="0" y="38.4">C</tspan><tspan class="cls-2" x="10.78" y="38.4">o</tspan><tspan class="cls-15" x="19.61" y="38.4">b</tspan><tspan class="cls-1" x="29.07" y="38.4">e</tspan><tspan x="37.93" y="38.4">rtu</tspan><tspan class="cls-18" x="57.42" y="38.4">r</tspan><tspan x="62.61" y="38.4">a </tspan><tspan class="cls-15" x="75.74" y="38.4">a</tspan><tspan x="84.88" y="38.4">d</tspan><tspan class="cls-22" x="94.5" y="38.4">i</tspan><tspan class="cls-2" x="97.46" y="38.4">c</tspan><tspan class="cls-22" x="105.48" y="38.4">io</tspan><tspan class="cls-21" x="117.32" y="38.4">n</tspan><tspan class="cls-10" x="125.73" y="38.4">a</tspan><tspan x="135.13" y="38.4">l, am</tspan><tspan class="cls-15" x="168.74" y="38.4">p</tspan><tspan x="178.2" y="38.4">a</tspan><tspan class="cls-18" x="187.49" y="38.4">r</tspan><tspan x="192.68" y="38.4">a as á</tspan><tspan class="cls-18" x="235.12" y="38.4">r</tspan><tspan class="cls-15" x="240.3" y="38.4">e</tspan><tspan x="249.08" y="38.4">as </tspan></tspan><tspan class="cls-24"><tspan class="cls-20" x="0" y="57.6">c</tspan><tspan class="cls-22" x="8.05" y="57.6">o</tspan><tspan x="16.93" y="57.6">muns </tspan><tspan class="cls-4" x="58.69" y="57.6">d</tspan><tspan x="68.26" y="57.6">o </tspan><tspan class="cls-20" x="81.06" y="57.6">c</tspan><tspan class="cls-1" x="89.1" y="57.6">o</tspan><tspan class="cls-15" x="97.98" y="57.6">n</tspan><tspan class="cls-4" x="106.4" y="57.6">d</tspan><tspan class="cls-1" x="115.97" y="57.6">o</tspan><tspan x="124.85" y="57.6">m</tspan><tspan class="cls-12" x="139.06" y="57.6">í</tspan><tspan x="142.08" y="57.6">n</tspan><tspan class="cls-22" x="150.66" y="57.6">i</tspan><tspan x="153.62" y="57.6">o </tspan><tspan class="cls-8" x="166.42" y="57.6">s</tspan><tspan class="cls-15" x="173.23" y="57.6">e</tspan><tspan class="cls-20" x="182.01" y="57.6">g</tspan><tspan x="191.3" y="57.6">u</tspan><tspan class="cls-14" x="199.56" y="57.6">r</tspan><tspan class="cls-21" x="204.74" y="57.6">a</tspan><tspan class="cls-4" x="213.88" y="57.6">d</tspan><tspan x="223.45" y="57.6">o </tspan></tspan><tspan class="cls-24"><tspan x="0" y="76.8">du</tspan><tspan class="cls-18" x="17.88" y="76.8">r</tspan><tspan x="23.06" y="76.8">an</tspan><tspan class="cls-17" x="40.94" y="76.8">t</tspan><tspan x="46.24" y="76.8">e a </tspan><tspan class="cls-14" x="72.15" y="76.8">r</tspan><tspan x="77.33" y="76.8">e</tspan><tspan class="cls-11" x="86.27" y="76.8">f</tspan><tspan class="cls-22" x="91.42" y="76.8">or</tspan><tspan class="cls-21" x="105.94" y="76.8">m</tspan><tspan x="120" y="76.8">a </tspan><tspan class="cls-4" x="133.13" y="76.8">d</tspan><tspan x="142.7" y="76.8">e </tspan><tspan class="cls-21" x="155.48" y="76.8">m</tspan><tspan class="cls-13" x="169.53" y="76.8">e</tspan><tspan x="178.33" y="76.8">l</tspan><tspan class="cls-21" x="181.37" y="76.8">h</tspan><tspan class="cls-1" x="189.79" y="76.8">o</tspan><tspan class="cls-3" x="198.67" y="76.8">r</tspan><tspan class="cls-1" x="204.29" y="76.8">i</tspan><tspan x="207.25" y="76.8">a, </tspan></tspan><tspan class="cls-24"><tspan class="cls-21" x="0" y="96">m</tspan><tspan x="14.06" y="96">anu</tspan><tspan class="cls-17" x="40.18" y="96">t</tspan><tspan class="cls-22" x="45.49" y="96">e</tspan><tspan class="cls-15" x="54.34" y="96">n</tspan><tspan class="cls-20" x="62.76" y="96">ç</tspan><tspan class="cls-21" x="70.81" y="96">ã</tspan><tspan x="79.94" y="96">o </tspan><tspan class="cls-15" x="92.74" y="96">o</tspan><tspan x="101.54" y="96">u </tspan><tspan class="cls-12" x="113.64" y="96">i</tspan><tspan x="116.65" y="96">ns</tspan><tspan class="cls-17" x="132.1" y="96">t</tspan><tspan class="cls-10" x="137.41" y="96">a</tspan><tspan class="cls-8" x="146.81" y="96">l</tspan><tspan class="cls-15" x="149.79" y="96">a</tspan><tspan class="cls-20" x="158.93" y="96">ç</tspan><tspan class="cls-21" x="166.97" y="96">õ</tspan><tspan class="cls-4" x="175.77" y="96">e</tspan><tspan x="184.65" y="96">s </tspan><tspan class="cls-8" x="195.37" y="96">d</tspan><tspan x="204.93" y="96">e </tspan></tspan><tspan class="cls-24"><tspan class="cls-21" x="0" y="115.2">e</tspan><tspan class="cls-3" x="8.78" y="115.2">q</tspan><tspan x="18.29" y="115.2">u</tspan><tspan class="cls-4" x="26.54" y="115.2">i</tspan><tspan class="cls-21" x="29.53" y="115.2">p</tspan><tspan x="38.98" y="115.2">a</tspan><tspan class="cls-21" x="48.28" y="115.2">m</tspan><tspan class="cls-22" x="62.34" y="115.2">e</tspan><tspan x="71.19" y="115.2">n</tspan><tspan class="cls-17" x="79.77" y="115.2">t</tspan><tspan class="cls-8" x="85.07" y="115.2">o</tspan><tspan class="cls-19" x="93.98" y="115.2">s</tspan><tspan x="100.82" y="115.2">.</tspan></tspan></text>
</svg>