<?xml version="1.0" encoding="UTF-8"?>
<svg id="Layer_1" data-name="Layer 1" xmlns="http://www.w3.org/2000/svg" viewBox="0 0 366.28 305.38">
  <defs>
    <style>
      .cls-1 {
        letter-spacing: -.01em;
      }

      .cls-2 {
        letter-spacing: 0em;
      }

      .cls-3 {
        letter-spacing: -.04em;
      }

      .cls-4 {
        letter-spacing: 0em;
      }

      .cls-5 {
        fill: #fff;
      }

      .cls-6 {
        letter-spacing: 0em;
      }

      .cls-7 {
        letter-spacing: 0em;
      }

      .cls-8 {
        letter-spacing: -.03em;
      }

      .cls-9 {
        letter-spacing: -.01em;
      }

      .cls-10 {
        font-family: UrbanistRoman-Bold, Urbanist;
        font-size: 23.99px;
        font-variation-settings: 'wght' 700;
        font-weight: 700;
      }

      .cls-11 {
        letter-spacing: -.02em;
      }

      .cls-12 {
        letter-spacing: 0em;
      }

      .cls-13 {
        letter-spacing: -.05em;
      }

      .cls-14 {
        letter-spacing: 0em;
      }

      .cls-15 {
        letter-spacing: -.03em;
      }

      .cls-16 {
        letter-spacing: -.02em;
      }

      .cls-17 {
        letter-spacing: 0em;
      }

      .cls-18 {
        letter-spacing: -.02em;
      }

      .cls-19 {
        letter-spacing: .01em;
      }

      .cls-20 {
        letter-spacing: -.01em;
      }

      .cls-21 {
        letter-spacing: 0em;
      }

      .cls-22 {
        letter-spacing: 0em;
      }

      .cls-23 {
        font-family: Urbanist-Regular, Urbanist;
        font-size: 18px;
        font-variation-settings: 'wght' 400;
      }

      .cls-24 {
        fill: #130044;
      }
    </style>
  </defs>
  <rect class="cls-24" x="0" y="0" width="366.28" height="305.38" rx="29.13" ry="29.13"/>
  <g>
    <polygon class="cls-5" points="71.72 41.87 71.72 41.87 71.72 41.87 71.72 41.87"/>
    <path class="cls-5" d="M67.36,54.81s-.02,0-.03,0c0,0,0,0,0,0h.04Z"/>
    <polygon class="cls-5" points="69.1 45.45 69.1 45.45 69.1 45.46 69.1 45.45"/>
    <path class="cls-5" d="M69.16,39.69s0,.02.01.03c0,0,0,0,0,.01l-.02-.05Z"/>
    <path class="cls-5" d="M36.53,46.94h-4.47v4.47h4.47v-4.47ZM35.04,49.92h-1.49v-1.49h1.49v1.49Z"/>
    <path class="cls-5" d="M42.49,46.94h-4.47v4.47h4.47v-4.47ZM41,49.92h-1.49v-1.49h1.49v1.49Z"/>
    <path class="cls-5" d="M55.9,63.33h5.96v-4.47h-5.96v4.47ZM57.39,60.35h2.98v1.49h-2.98v-1.49Z"/>
    <path class="cls-5" d="M63.35,63.33h5.96v-4.47h-5.96v4.47ZM64.84,60.35h2.98v1.49h-2.98v-1.49Z"/>
    <path class="cls-5" d="M36.53,52.9h-4.47v4.47h4.47v-4.47ZM35.04,55.88h-1.49v-1.49h1.49v1.49Z"/>
    <path class="cls-5" d="M42.49,52.9h-4.47v4.47h4.47v-4.47ZM41,55.88h-1.49v-1.49h1.49v1.49Z"/>
    <path class="cls-5" d="M36.53,58.86h-4.47v4.47h4.47v-4.47ZM35.04,61.84h-1.49v-1.49h1.49v1.49Z"/>
    <path class="cls-5" d="M42.49,58.86h-4.47v4.47h4.47v-4.47ZM41,61.84h-1.49v-1.49h1.49v1.49Z"/>
    <path class="cls-5" d="M36.53,64.82h-4.47v4.47h4.47v-4.47ZM35.04,67.8h-1.49v-1.49h1.49v1.49Z"/>
    <path class="cls-5" d="M42.49,64.82h-4.47v4.47h4.47v-4.47ZM41,67.8h-1.49v-1.49h1.49v1.49Z"/>
    <path class="cls-5" d="M36.53,70.78h-4.47v4.47h4.47v-4.47ZM35.04,73.76h-1.49v-1.49h1.49v1.49Z"/>
    <path class="cls-5" d="M42.49,70.78h-4.47v4.47h4.47v-4.47ZM41,73.76h-1.49v-1.49h1.49v1.49Z"/>
    <path class="cls-5" d="M48.45,46.94h-4.47v4.47h4.47v-4.47ZM46.96,49.92h-1.49v-1.49h1.49v1.49Z"/>
    <path class="cls-5" d="M48.45,52.9h-4.47v4.47h4.47v-4.47ZM46.96,55.88h-1.49v-1.49h1.49v1.49Z"/>
    <path class="cls-5" d="M48.45,58.86h-4.47v4.47h4.47v-4.47ZM46.96,61.84h-1.49v-1.49h1.49v1.49Z"/>
    <path class="cls-5" d="M48.45,64.82h-4.47v4.47h4.47v-4.47ZM46.96,67.8h-1.49v-1.49h1.49v1.49Z"/>
    <path class="cls-5" d="M41,42.47h16.39v-7.45h-16.39v7.45ZM42.49,36.51h13.41v4.47h-13.41v-4.47Z"/>
    <path class="cls-5" d="M48.45,70.78h-4.47v4.47h4.47v-4.47ZM46.96,73.76h-1.49v-1.49h1.49v1.49Z"/>
    <path class="cls-5" d="M72.29,51.95c.52-.65.95-1.38,1.24-2.19l.02-.05c.24-.72.38-1.55.38-2.41,0-2.12-.85-4.03-2.22-5.44h0c-.14-.14-.33-.22-.54-.22-.32,0-.59.19-.71.47h0c-.16.37-.37.69-.61.97,0-.07,0-.16,0-.25,0-1.11-.25-2.16-.68-3.11-.78-1.63-2.09-2.9-3.7-3.62l-.05-.02c-.09-.04-.2-.06-.3-.06-.43,0-.77.34-.77.77,0,.05,0,.09.01.14h0s0,.05,0,.09c0,1.23-.55,2.34-1.42,3.09h0c-.32.33-.66.63-1,.94-.58.48-1.09,1.02-1.56,1.59v-10.59h-22.35v11.92h-8.94v32.78h-1.49v1.49h46.19v-1.49h-1.49v-24.79ZM61.1,44.17c.55-.75,1.16-1.4,1.85-1.97h.02c.36-.34.73-.67,1.07-1.02.87-.82,1.5-1.87,1.81-3.06v-.04c1.52,1.06,2.49,2.79,2.49,4.75,0,.6-.09,1.19-.27,1.74v-.04c-.01.07-.02.14-.02.22,0,.42.34.77.77.77.1,0,.2-.02.29-.06.89-.37,1.64-.96,2.18-1.69h0c.69.98,1.11,2.21,1.11,3.53,0,.67-.11,1.32-.31,1.93-.78,2.15-2.66,3.73-4.94,4.06h-.03c-.22.03-.47.05-.73.05-1.22,0-2.35-.35-3.3-.96-1.29-.81-2.23-2.08-2.6-3.57v-.04c-.06-.17-.09-.35-.12-.54v-2.11c.13-.7.37-1.36.72-1.96ZM64.84,54.7c.5.1,1.01.18,1.54.18h0c.32,0,.63-.02.93-.06.17-.02.33-.07.5-.11v1.17h-2.98v-1.18ZM49.94,76.74h-19.37v-31.29h19.37v31.29ZM52.92,76.74h-1.49v-32.78h-11.92v-10.43h19.37v12.22c-.09.46-.15.93-.15,1.42s.06.96.15,1.42v1.33h-5.96v26.82ZM66.33,76.74h-7.45v-10.43h7.45v10.43ZM67.82,76.74v-10.43h1.49v-1.49h-13.41v1.49h1.49v10.43h-2.98v-25.33h5.59c.36.55.77,1.06,1.25,1.49h-5.35v4.47h5.96v-4c.13.1.25.21.39.3l.03.02c.34.21.7.39,1.07.56v3.13h5.96v-3.12c.53-.23,1.03-.53,1.49-.87v23.36h-2.98ZM60.37,54.39v1.49h-2.98v-1.49h2.98ZM72.1,52.19s.02-.03.04-.04v.03s-.04.01-.04.01Z"/>
  </g>
  <text class="cls-5" transform="translate(27.59 119.7)"><tspan class="cls-10"><tspan x="0" y="0">I</tspan><tspan class="cls-12" x="6.52" y="0">n</tspan><tspan class="cls-11" x="19.67" y="0">c</tspan><tspan class="cls-9" x="31.53" y="0">ê</tspan><tspan class="cls-12" x="44.67" y="0">n</tspan><tspan x="57.82" y="0">d</tspan><tspan class="cls-1" x="72.69" y="0">i</tspan><tspan class="cls-12" x="78.22" y="0">o</tspan><tspan x="91.41" y="0">, </tspan><tspan class="cls-13" x="103.24" y="0">e</tspan><tspan class="cls-16" x="115.39" y="0">x</tspan><tspan class="cls-18" x="129.14" y="0">p</tspan><tspan class="cls-2" x="143.53" y="0">los</tspan><tspan class="cls-12" x="172.65" y="0">ão</tspan><tspan x="199.97" y="0">, </tspan></tspan><tspan class="cls-10"><tspan class="cls-6" x="0" y="28.78">i</tspan><tspan x="5.71" y="28.78">m</tspan><tspan class="cls-18" x="27.02" y="28.78">p</tspan><tspan class="cls-2" x="41.41" y="28.78">los</tspan><tspan class="cls-12" x="70.53" y="28.78">ã</tspan><tspan x="84.66" y="28.78">o</tspan></tspan><tspan class="cls-23"><tspan class="cls-15" x="0" y="71.98">C</tspan><tspan class="cls-22" x="12.13" y="71.98">o</tspan><tspan class="cls-4" x="22.06" y="71.98">b</tspan><tspan class="cls-8" x="32.8" y="71.98">r</tspan><tspan x="38.63" y="71.98">e </tspan><tspan class="cls-17" x="53" y="71.98">d</tspan><tspan x="63.76" y="71.98">a</tspan><tspan class="cls-14" x="74.22" y="71.98">n</tspan><tspan class="cls-17" x="83.69" y="71.98">o</tspan><tspan x="93.71" y="71.98">s </tspan><tspan class="cls-14" x="105.76" y="71.98">p</tspan><tspan x="116.4" y="71.98">o </tspan><tspan class="cls-7" x="130.8" y="71.98">i</tspan><tspan class="cls-20" x="134.19" y="71.98">n</tspan><tspan class="cls-21" x="143.66" y="71.98">c</tspan><tspan class="cls-4" x="152.71" y="71.98">ê</tspan><tspan class="cls-14" x="162.67" y="71.98">n</tspan><tspan x="172.14" y="71.98">d</tspan><tspan class="cls-4" x="182.97" y="71.98">i</tspan><tspan class="cls-20" x="186.3" y="71.98">o</tspan><tspan x="196.2" y="71.98">, </tspan></tspan><tspan class="cls-23"><tspan class="cls-3" x="0" y="93.58">e</tspan><tspan class="cls-20" x="9.33" y="93.58">x</tspan><tspan class="cls-22" x="18.74" y="93.58">p</tspan><tspan class="cls-17" x="29.4" y="93.58">los</tspan><tspan class="cls-20" x="50.45" y="93.58">ão</tspan><tspan x="70.62" y="93.58">, </tspan><tspan class="cls-19" x="78.56" y="93.58">f</tspan><tspan x="84.81" y="93.58">u</tspan><tspan class="cls-20" x="94.09" y="93.58">ma</tspan><tspan class="cls-21" x="120.19" y="93.58">ç</tspan><tspan x="129.24" y="93.58">a, e </tspan><tspan class="cls-21" x="162.01" y="93.58">q</tspan><tspan class="cls-17" x="172.71" y="93.58">u</tspan><tspan class="cls-14" x="181.93" y="93.58">e</tspan><tspan class="cls-17" x="191.81" y="93.58">d</tspan><tspan x="202.57" y="93.58">a </tspan><tspan class="cls-17" x="217.35" y="93.58">d</tspan><tspan x="228.11" y="93.58">e </tspan><tspan class="cls-8" x="242.48" y="93.58">r</tspan><tspan x="248.32" y="93.58">a</tspan><tspan class="cls-4" x="258.77" y="93.58">i</tspan><tspan class="cls-14" x="262.1" y="93.58">o</tspan><tspan x="272" y="93.58">.</tspan></tspan></text>
</svg>