<?xml version="1.0" encoding="UTF-8"?>
<svg id="Layer_1" data-name="Layer 1" xmlns="http://www.w3.org/2000/svg" viewBox="0 0 366.28 305.38">
  <defs>
    <style>
      .cls-1 {
        letter-spacing: -.04em;
      }

      .cls-2 {
        letter-spacing: 0em;
      }

      .cls-3 {
        letter-spacing: -.02em;
      }

      .cls-4 {
        letter-spacing: 0em;
      }

      .cls-5 {
        fill: #5b1112;
      }

      .cls-6 {
        letter-spacing: -.01em;
      }

      .cls-7 {
        letter-spacing: 0em;
      }

      .cls-8 {
        font-family: UrbanistRoman-Bold, Urbanist;
        font-size: 16px;
        font-variation-settings: 'wght' 700;
        font-weight: 700;
      }

      .cls-8, .cls-9 {
        fill: #130044;
      }

      .cls-10 {
        letter-spacing: 0em;
      }

      .cls-11 {
        letter-spacing: -.04em;
      }

      .cls-12 {
        letter-spacing: -.01em;
      }

      .cls-13 {
        letter-spacing: -.01em;
      }

      .cls-14 {
        letter-spacing: -.01em;
      }
    </style>
  </defs>
  <path class="cls-9" d="M337.15,8.99c11.1,0,20.14,9.03,20.14,20.14v247.12c0,11.1-9.03,20.14-20.14,20.14H29.13c-11.1,0-20.14-9.03-20.14-20.14V29.13c0-11.1,9.03-20.14,20.14-20.14h308.02M337.15,0H29.13C13.11,0,0,13.11,0,29.13v247.12C0,292.27,13.11,305.38,29.13,305.38h308.02c16.02,0,29.13-13.11,29.13-29.13V29.13c0-16.02-13.11-29.13-29.13-29.13h0Z"/>
  <text class="cls-8" transform="translate(27.59 253.55)"><tspan x="0" y="0">Inu</tspan><tspan class="cls-13" x="21.89" y="0">n</tspan><tspan class="cls-4" x="30.65" y="0">d</tspan><tspan class="cls-13" x="40.46" y="0">a</tspan><tspan class="cls-3" x="49.88" y="0">ç</tspan><tspan class="cls-13" x="57.79" y="0">ão</tspan><tspan class="cls-10" x="76.02" y="0">, t</tspan><tspan class="cls-11" x="89.63" y="0">r</tspan><tspan x="95.19" y="0">ans</tspan><tspan class="cls-13" x="120.65" y="0">b</tspan><tspan class="cls-6" x="130.41" y="0">o</tspan><tspan class="cls-1" x="139.19" y="0">r</tspan><tspan class="cls-7" x="144.75" y="0">d</tspan><tspan x="154.55" y="0">a</tspan><tspan class="cls-2" x="164.13" y="0">m</tspan><tspan class="cls-14" x="178.19" y="0">e</tspan><tspan x="186.96" y="0">n</tspan><tspan class="cls-12" x="195.89" y="0">t</tspan><tspan x="201.44" y="0">o du</tspan><tspan class="cls-1" x="232.77" y="0">r</tspan><tspan x="238.33" y="0">an</tspan><tspan class="cls-12" x="256.84" y="0">t</tspan><tspan x="262.39" y="0">e </tspan><tspan x="0" y="19.2">a </tspan><tspan class="cls-3" x="13.42" y="19.2">v</tspan><tspan class="cls-6" x="22.48" y="19.2">i</tspan><tspan class="cls-13" x="26.17" y="19.2">a</tspan><tspan class="cls-6" x="35.59" y="19.2">ge</tspan><tspan x="53.98" y="19.2">m </tspan><tspan class="cls-12" x="72.04" y="19.2">t</tspan><tspan class="cls-14" x="77.59" y="19.2">er</tspan><tspan class="cls-1" x="92.34" y="19.2">r</tspan><tspan class="cls-7" x="97.9" y="19.2">e</tspan><tspan x="106.73" y="19.2">st</tspan><tspan class="cls-1" x="119.41" y="19.2">r</tspan><tspan x="124.97" y="19.2">e</tspan></text>
  <polygon class="cls-9" points="338.69 262.6 330.04 262.6 330.04 253.95 324.38 253.95 324.38 262.6 315.73 262.6 315.73 268.27 324.38 268.27 324.38 276.92 330.04 276.92 330.04 268.27 338.69 268.27 338.69 262.6"/>
  <path class="cls-9" d="M59.25,78.23c-2.47,0-4.79-.96-6.54-2.71l-.6-.6c-1.18-1.18-2.75-1.83-4.42-1.83s-3.25.67-4.42,1.83l-.6.6c-1.75,1.75-4.07,2.71-6.54,2.71s-4.79-.96-6.54-2.71l-1.58-1.58c-.59-.59-.59-1.54,0-2.12s1.54-.59,2.12,0l1.58,1.58c1.18,1.18,2.75,1.83,4.42,1.83s3.24-.65,4.42-1.83l.6-.6c1.72-1.72,4.1-2.71,6.54-2.71s4.79.96,6.54,2.71l.6.6c1.18,1.18,2.75,1.83,4.42,1.83s3.24-.65,4.42-1.83l.6-.6c1.75-1.75,4.07-2.71,6.54-2.71s4.79.96,6.54,2.71l1.58,1.58c.59.59.59,1.54,0,2.12s-1.54.59-2.12,0l-1.58-1.58c-1.18-1.18-2.75-1.83-4.42-1.83s-3.24.65-4.42,1.83l-.6.6c-1.75,1.75-4.07,2.71-6.54,2.71ZM59.25,65.4c-2.47,0-4.79-.96-6.54-2.71l-.6-.6c-1.18-1.18-2.75-1.83-4.42-1.83s-3.25.67-4.42,1.83l-.6.6c-1.75,1.75-4.07,2.71-6.54,2.71s-4.79-.96-6.54-2.71l-1.58-1.58c-.59-.59-.59-1.54,0-2.12s1.54-.59,2.12,0l1.58,1.58c1.18,1.18,2.75,1.83,4.42,1.83s3.24-.65,4.42-1.83l.6-.6c1.72-1.72,4.1-2.71,6.54-2.71s4.79.96,6.54,2.71l.6.6c1.18,1.18,2.75,1.83,4.42,1.83s3.24-.65,4.42-1.83l.6-.6c1.75-1.75,4.07-2.71,6.54-2.71s4.79.96,6.54,2.71l1.58,1.58c.59.59.59,1.54,0,2.12s-1.54.59-2.12,0l-1.58-1.58c-1.18-1.18-2.75-1.83-4.42-1.83s-3.24.65-4.42,1.83l-.6.6c-1.75,1.75-4.07,2.71-6.54,2.71ZM53.47,52.57c-.83,0-1.5-.67-1.5-1.5v-16.91l-5.14,5.14c-.59.59-1.54.59-2.12,0s-.59-1.54,0-2.12l7.69-7.69s0,0,0,0c.14-.14.31-.25.49-.33.17-.07.36-.11.55-.11h.04c.2,0,.38.04.55.11.18.07.34.18.49.33h0s7.7,7.7,7.7,7.7c.59.59.59,1.54,0,2.12s-1.54.59-2.12,0l-5.14-5.14v16.91c0,.83-.67,1.5-1.5,1.5Z"/>
  <polygon class="cls-5" points="116.43 24.95 116.43 24.95 116.43 24.95 116.43 24.95"/>
  <path class="cls-5" d="M110.43,29.37s.01-.04.02-.06c0,0,0,0,0,0l-.02.07Z"/>
  <polygon class="cls-9" points="112.14 30.83 112.13 30.83 112.13 30.84 112.14 30.83"/>
  <path class="cls-5" d="M112.24,21.39s.02.04.03.07c0,0,0,0,0,0l-.03-.07Z"/>
</svg>