<?xml version="1.0" encoding="UTF-8"?>
<svg id="Layer_1" data-name="Layer 1" xmlns="http://www.w3.org/2000/svg" viewBox="0 0 366.28 305.38">
  <defs>
    <style>
      .cls-1 {
        letter-spacing: 0em;
      }

      .cls-2 {
        letter-spacing: 0em;
      }

      .cls-3 {
        letter-spacing: 0em;
      }

      .cls-4 {
        letter-spacing: 0em;
      }

      .cls-5 {
        letter-spacing: 0em;
      }

      .cls-6 {
        fill: #fff;
      }

      .cls-7 {
        letter-spacing: 0em;
      }

      .cls-8 {
        letter-spacing: -.03em;
      }

      .cls-9 {
        font-family: UrbanistRoman-Bold, Urbanist;
        font-size: 23.99px;
        font-variation-settings: 'wght' 700;
        font-weight: 700;
      }

      .cls-10 {
        letter-spacing: -.03em;
      }

      .cls-11 {
        letter-spacing: -.04em;
      }

      .cls-12 {
        letter-spacing: -.03em;
      }

      .cls-13 {
        letter-spacing: -.02em;
      }

      .cls-14 {
        letter-spacing: -.01em;
      }

      .cls-15 {
        letter-spacing: 0em;
      }

      .cls-16 {
        letter-spacing: 0em;
      }

      .cls-17 {
        letter-spacing: 0em;
      }

      .cls-18 {
        letter-spacing: -.01em;
      }

      .cls-19 {
        letter-spacing: 0em;
      }

      .cls-20 {
        letter-spacing: -.01em;
      }

      .cls-21 {
        letter-spacing: 0em;
      }

      .cls-22 {
        letter-spacing: 0em;
      }

      .cls-23 {
        font-family: Urbanist-Regular, Urbanist;
        font-size: 18px;
        font-variation-settings: 'wght' 400;
      }

      .cls-24 {
        letter-spacing: 0em;
      }

      .cls-25 {
        fill: #130044;
      }
    </style>
  </defs>
  <rect class="cls-25" x="0" y="0" width="366.28" height="305.38" rx="29.13" ry="29.13"/>
  <g>
    <path class="cls-6" d="M68.35,39.27c-1.01-1.45-4.02-2.48-11.29-4.96l-1.27-.43c-3.56-1.22-5.35-1.83-7.31-1.83s-3.75.61-7.31,1.83l-1.27.43c-7.27,2.49-10.28,3.52-11.29,4.96-1.01,1.44-1.01,4.64-1.01,12.36v3.49c0,13.11,9.93,19.4,15.85,21.99,1.66.73,2.58,1.13,5.03,1.13s3.37-.4,5.04-1.13c5.92-2.59,15.85-8.88,15.85-21.99v-3.49c0-7.72,0-10.92-1.01-12.36ZM67.44,55.12c0,12.02-9.21,17.83-14.7,20.23-1.56.68-2.21.97-4.27.97s-2.7-.28-4.27-.97c-5.49-2.4-14.7-8.22-14.7-20.23v-3.49c0-6.21,0-10.32.66-11.26.66-.94,4.51-2.25,10.34-4.25l1.27-.43c3.36-1.15,5.05-1.73,6.69-1.73s3.33.58,6.69,1.73l1.27.43c5.83,2,9.69,3.32,10.35,4.25.66.94.66,5.05.66,11.26v3.49Z"/>
    <path class="cls-6" d="M48.48,56.09c.53,0,.96-.43.96-.96v-8.85c0-.53-.43-.96-.96-.96s-.96.43-.96.96v8.85c0,.53.43.96.96.96Z"/>
    <circle class="cls-6" cx="48.48" cy="61.78" r="2.21"/>
  </g>
  <text class="cls-6" transform="translate(27.59 119.7)"><tspan class="cls-9"><tspan class="cls-13" x="0" y="0">S</tspan><tspan class="cls-15" x="14.61" y="0">e</tspan><tspan class="cls-13" x="27.79" y="0">g</tspan><tspan x="42.12" y="0">u</tspan><tspan class="cls-11" x="55.03" y="0">r</tspan><tspan class="cls-1" x="63.36" y="0">o</tspan><tspan x="76.61" y="0">s</tspan></tspan><tspan class="cls-23"><tspan class="cls-21" x="0" y="43.2">S</tspan><tspan class="cls-20" x="10.86" y="43.2">e</tspan><tspan class="cls-24" x="20.74" y="43.2">j</tspan><tspan x="24.61" y="43.2">am </tspan><tspan class="cls-19" x="55.39" y="43.2">o</tspan><tspan x="65.4" y="43.2">s </tspan><tspan class="cls-19" x="77.45" y="43.2">s</tspan><tspan class="cls-16" x="85.12" y="43.2">e</tspan><tspan class="cls-3" x="94.99" y="43.2">g</tspan><tspan x="105.45" y="43.2">u</tspan><tspan class="cls-12" x="114.74" y="43.2">r</tspan><tspan class="cls-19" x="120.57" y="43.2">o</tspan><tspan x="130.59" y="43.2">s </tspan><tspan class="cls-22" x="142.64" y="43.2">o</tspan><tspan class="cls-5" x="152.57" y="43.2">b</tspan><tspan class="cls-21" x="163.3" y="43.2">r</tspan><tspan class="cls-5" x="169.62" y="43.2">ig</tspan><tspan x="183.44" y="43.2">a</tspan><tspan class="cls-14" x="193.9" y="43.2">t</tspan><tspan class="cls-24" x="199.86" y="43.2">ó</tspan><tspan class="cls-3" x="209.85" y="43.2">r</tspan><tspan class="cls-24" x="216.17" y="43.2">i</tspan><tspan class="cls-19" x="219.5" y="43.2">o</tspan><tspan x="229.52" y="43.2">s </tspan><tspan class="cls-20" x="241.57" y="43.2">o</tspan><tspan x="251.47" y="43.2">u </tspan></tspan><tspan class="cls-23"><tspan class="cls-5" x="0" y="64.8">o</tspan><tspan class="cls-16" x="9.99" y="64.8">p</tspan><tspan class="cls-2" x="20.63" y="64.8">c</tspan><tspan class="cls-5" x="29.65" y="64.8">io</tspan><tspan class="cls-16" x="42.97" y="64.8">n</tspan><tspan x="52.43" y="64.8">a</tspan><tspan class="cls-19" x="62.89" y="64.8">i</tspan><tspan class="cls-7" x="66.25" y="64.8">s</tspan><tspan x="73.95" y="64.8">, </tspan><tspan class="cls-18" x="81.89" y="64.8">t</tspan><tspan class="cls-5" x="87.86" y="64.8">e</tspan><tspan class="cls-20" x="97.82" y="64.8">m</tspan><tspan class="cls-4" x="113.63" y="64.8">o</tspan><tspan x="123.65" y="64.8">s u</tspan><tspan class="cls-20" x="144.99" y="64.8">m</tspan><tspan x="160.8" y="64.8">a am</tspan><tspan class="cls-22" x="202.03" y="64.8">p</tspan><tspan class="cls-19" x="212.7" y="64.8">l</tspan><tspan x="216.05" y="64.8">a </tspan></tspan><tspan class="cls-23"><tspan class="cls-10" x="0" y="86.4">v</tspan><tspan x="8.78" y="86.4">a</tspan><tspan class="cls-3" x="19.23" y="86.4">r</tspan><tspan class="cls-24" x="25.55" y="86.4">i</tspan><tspan class="cls-20" x="28.88" y="86.4">e</tspan><tspan class="cls-19" x="38.75" y="86.4">d</tspan><tspan class="cls-16" x="49.52" y="86.4">a</tspan><tspan class="cls-19" x="59.8" y="86.4">d</tspan><tspan x="70.56" y="86.4">e </tspan><tspan class="cls-19" x="84.93" y="86.4">d</tspan><tspan class="cls-22" x="95.7" y="86.4">e</tspan><tspan class="cls-19" x="105.6" y="86.4">le</tspan><tspan x="118.94" y="86.4">s </tspan><tspan class="cls-16" x="130.99" y="86.4">p</tspan><tspan x="141.63" y="86.4">a</tspan><tspan class="cls-8" x="152.09" y="86.4">r</tspan><tspan x="157.92" y="86.4">a a u</tspan><tspan class="cls-19" x="196.77" y="86.4">t</tspan><tspan class="cls-17" x="202.91" y="86.4">i</tspan><tspan x="206.4" y="86.4">li</tspan><tspan class="cls-5" x="213.23" y="86.4">z</tspan><tspan class="cls-16" x="222.27" y="86.4">a</tspan><tspan class="cls-21" x="232.55" y="86.4">ç</tspan><tspan class="cls-20" x="241.6" y="86.4">ã</tspan><tspan x="251.88" y="86.4">o </tspan></tspan><tspan class="cls-23"><tspan class="cls-16" x="0" y="108">n</tspan><tspan class="cls-19" x="9.47" y="108">o</tspan><tspan x="19.49" y="108">s </tspan><tspan class="cls-19" x="31.54" y="108">s</tspan><tspan class="cls-16" x="39.2" y="108">e</tspan><tspan x="49.08" y="108">us </tspan><tspan class="cls-20" x="70.42" y="108">ne</tspan><tspan class="cls-5" x="89.76" y="108">g</tspan><tspan class="cls-20" x="100.24" y="108">ó</tspan><tspan class="cls-22" x="110.14" y="108">c</tspan><tspan class="cls-5" x="119.16" y="108">i</tspan><tspan class="cls-19" x="122.49" y="108">o</tspan><tspan class="cls-7" x="132.51" y="108">s</tspan><tspan x="140.21" y="108">, </tspan><tspan class="cls-18" x="148.15" y="108">t</tspan><tspan x="154.12" y="108">a</tspan><tspan class="cls-19" x="164.57" y="108">i</tspan><tspan x="167.93" y="108">s </tspan><tspan class="cls-21" x="179.98" y="108">q</tspan><tspan class="cls-19" x="190.68" y="108">u</tspan><tspan x="199.91" y="108">a</tspan><tspan class="cls-19" x="210.37" y="108">i</tspan><tspan x="213.72" y="108">s o </tspan></tspan><tspan class="cls-23"><tspan class="cls-5" x="0" y="129.6">g</tspan><tspan x="10.48" y="129.6">a</tspan><tspan class="cls-8" x="20.94" y="129.6">r</tspan><tspan x="26.77" y="129.6">an</tspan><tspan class="cls-4" x="46.88" y="129.6">t</tspan><tspan class="cls-5" x="53.03" y="129.6">i</tspan><tspan x="56.36" y="129.6">a </tspan><tspan class="cls-19" x="71.14" y="129.6">e</tspan><tspan x="81.13" y="129.6">s</tspan><tspan class="cls-18" x="88.86" y="129.6">t</tspan><tspan class="cls-5" x="94.82" y="129.6">e</tspan><tspan class="cls-20" x="104.79" y="129.6">n</tspan><tspan x="114.25" y="129.6">d</tspan><tspan class="cls-5" x="125.08" y="129.6">i</tspan><tspan class="cls-19" x="128.41" y="129.6">d</tspan><tspan x="139.18" y="129.6">a </tspan><tspan class="cls-16" x="153.95" y="129.6">o</tspan><tspan x="163.85" y="129.6">u </tspan><tspan class="cls-19" x="177.46" y="129.6">d</tspan><tspan x="188.22" y="129.6">e c</tspan><tspan class="cls-12" x="211.77" y="129.6">r</tspan><tspan class="cls-20" x="217.6" y="129.6">é</tspan><tspan x="227.47" y="129.6">di</tspan><tspan class="cls-18" x="241.72" y="129.6">t</tspan><tspan x="247.69" y="129.6">o </tspan></tspan><tspan class="cls-23"><tspan class="cls-5" x="0" y="151.2">e</tspan><tspan x="9.96" y="151.2">nt</tspan><tspan class="cls-8" x="25.82" y="151.2">r</tspan><tspan x="31.65" y="151.2">e </tspan><tspan class="cls-16" x="46.03" y="151.2">o</tspan><tspan x="55.93" y="151.2">ut</tspan><tspan class="cls-8" x="71.42" y="151.2">r</tspan><tspan class="cls-19" x="77.26" y="151.2">o</tspan><tspan class="cls-7" x="87.27" y="151.2">s</tspan><tspan x="94.98" y="151.2">.</tspan></tspan></text>
</svg>