<?xml version="1.0" encoding="UTF-8"?>
<svg id="Layer_1" data-name="Layer 1" xmlns="http://www.w3.org/2000/svg" viewBox="0 0 366.28 305.38">
  <defs>
    <style>
      .cls-1 {
        letter-spacing: 0em;
      }

      .cls-2 {
        letter-spacing: 0em;
      }

      .cls-3 {
        letter-spacing: 0em;
      }

      .cls-4 {
        letter-spacing: 0em;
      }

      .cls-5 {
        fill: #fff;
      }

      .cls-6 {
        letter-spacing: 0em;
      }

      .cls-7 {
        letter-spacing: 0em;
      }

      .cls-8 {
        letter-spacing: -.01em;
      }

      .cls-9 {
        letter-spacing: -.03em;
      }

      .cls-10 {
        font-family: UrbanistRoman-Bold, Urbanist;
        font-size: 23.99px;
        font-variation-settings: 'wght' 700;
        font-weight: 700;
      }

      .cls-11 {
        letter-spacing: -.03em;
      }

      .cls-12 {
        letter-spacing: -.02em;
      }

      .cls-13 {
        letter-spacing: 0em;
      }

      .cls-14 {
        letter-spacing: -.02em;
      }

      .cls-15 {
        letter-spacing: -.04em;
      }

      .cls-16 {
        letter-spacing: 0em;
      }

      .cls-17 {
        letter-spacing: -.03em;
      }

      .cls-18 {
        letter-spacing: -.01em;
      }

      .cls-19 {
        letter-spacing: 0em;
      }

      .cls-20 {
        letter-spacing: -.01em;
      }

      .cls-21 {
        letter-spacing: 0em;
      }

      .cls-22 {
        letter-spacing: 0em;
      }

      .cls-23 {
        letter-spacing: 0em;
      }

      .cls-24 {
        font-family: Urbanist-Regular, Urbanist;
        font-size: 18px;
        font-variation-settings: 'wght' 400;
      }

      .cls-25 {
        fill: #130044;
      }

      .cls-26 {
        letter-spacing: 0em;
      }

      .cls-27 {
        letter-spacing: -.01em;
      }
    </style>
  </defs>
  <rect class="cls-25" x="0" y="0" width="366.28" height="305.38" rx="29.13" ry="29.13"/>
  <path class="cls-5" d="M60.81,78.23c-.37,0-.73-.15-1-.41-.33-.33-.48-.81-.39-1.27l1.17-5.86c.11-.55.18-.88.32-1.24.12-.31.28-.62.48-.89.22-.31.46-.55.86-.95l12.02-12.02c1.04-1.04,2.42-1.61,3.89-1.61s2.85.57,3.89,1.61c1.04,1.04,1.61,2.42,1.61,3.89s-.57,2.85-1.61,3.89l-12.02,12.02c-.4.4-.64.64-.95.86-.28.19-.58.35-.89.48-.35.14-.69.21-1.24.32l-5.86,1.17c-.09.02-.18.03-.28.03ZM78.16,56.79c-.72,0-1.39.28-1.9.78l-12.02,12.02c-.31.31-.47.47-.54.57-.07.1-.12.2-.16.31-.05.12-.09.33-.18.77l-.76,3.78,3.78-.76c.43-.09.65-.13.76-.18.11-.04.21-.1.31-.16.11-.07.26-.23.57-.54l12.02-12.02c.51-.51.78-1.18.78-1.9s-.28-1.39-.78-1.9c-.51-.51-1.18-.78-1.9-.78ZM49.24,75.34h-10.99c-3.46,0-5.2,0-6.74-.78-1.36-.69-2.45-1.78-3.14-3.14-.78-1.54-.78-3.28-.78-6.74v-21.98c0-3.46,0-5.2.78-6.74.69-1.36,1.78-2.45,3.14-3.14,1.54-.78,3.28-.78,6.74-.78h33.54c3.46,0,5.2,0,6.74.78,1.36.7,2.45,1.78,3.14,3.14.78,1.54.78,3.28.78,6.74v.87c0,.78-.63,1.41-1.41,1.41s-1.41-.63-1.41-1.41v-.87c0-3.01,0-4.52-.48-5.46-.42-.83-1.08-1.49-1.91-1.91-.93-.48-2.45-.48-5.46-.48h-33.54c-3.01,0-4.52,0-5.46.48-.83.42-1.49,1.08-1.91,1.91-.48.94-.48,2.45-.48,5.46v21.98c0,3.01,0,4.52.48,5.46.42.83,1.08,1.49,1.91,1.91.94.48,2.45.48,5.46.48h10.99c.78,0,1.41.63,1.41,1.41s-.63,1.41-1.41,1.41ZM46.35,65.22c-.78,0-1.41-.63-1.41-1.41v-1.48h-4.37c-.78,0-1.41-.63-1.41-1.41s.63-1.41,1.41-1.41h5.78c4.38,0,4.38-.72,4.38-2.45,0-.62,0-1.39-.11-1.57-.19-.18-1.09-.4-4.27-.4s-5.17-.21-6.26-1.29c-.94-.94-.94-2.18-.93-3.49,0-4.34,3.32-5.1,5.78-5.23v-1.51c0-.78.63-1.41,1.41-1.41s1.41.63,1.41,1.41v1.48h4.38c.78,0,1.41.63,1.41,1.41s-.63,1.41-1.41,1.41h-5.78c-3.74,0-4.37.61-4.37,2.45,0,.52,0,1.38.11,1.5.17.17.96.47,4.26.47,5.75,0,7.19.56,7.19,4.78,0,3.06-.99,4.93-5.78,5.22v1.52c0,.78-.63,1.41-1.41,1.41ZM69.48,49.31h-8.67c-.78,0-1.41-.63-1.41-1.41s.63-1.41,1.41-1.41h8.67c.78,0,1.41.63,1.41,1.41s-.63,1.41-1.41,1.41Z"/>
  <text class="cls-5" transform="translate(27.59 119.7)"><tspan class="cls-10"><tspan class="cls-26" x="0" y="0">M</tspan><tspan class="cls-6" x="22.26" y="0">u</tspan><tspan x="35.22" y="0">l</tspan><tspan class="cls-27" x="41.03" y="0">t</tspan><tspan x="49.35" y="0">a </tspan><tspan class="cls-13" x="69.48" y="0">p</tspan><tspan class="cls-8" x="84.08" y="0">o</tspan><tspan x="97.24" y="0">r </tspan><tspan class="cls-15" x="112.23" y="0">r</tspan><tspan class="cls-1" x="120.57" y="0">es</tspan><tspan class="cls-14" x="144.05" y="0">c</tspan><tspan class="cls-1" x="155.83" y="0">is</tspan><tspan class="cls-13" x="171.69" y="0">ã</tspan><tspan x="185.82" y="0">o </tspan></tspan><tspan class="cls-10"><tspan class="cls-12" x="0" y="28.78">c</tspan><tspan class="cls-8" x="11.86" y="28.78">o</tspan><tspan x="25.02" y="28.78">nt</tspan><tspan class="cls-15" x="46.99" y="28.78">r</tspan><tspan x="55.32" y="28.78">at</tspan><tspan class="cls-1" x="78.28" y="28.78">u</tspan><tspan class="cls-6" x="91" y="28.78">a</tspan><tspan x="105.43" y="28.78">l</tspan></tspan><tspan class="cls-24"><tspan class="cls-17" x="0" y="71.98">C</tspan><tspan class="cls-22" x="12.13" y="71.98">o</tspan><tspan class="cls-20" x="22.06" y="71.98">b</tspan><tspan class="cls-4" x="32.71" y="71.98">e</tspan><tspan class="cls-23" x="42.67" y="71.98">rtu</tspan><tspan class="cls-11" x="64.6" y="71.98">r</tspan><tspan x="70.43" y="71.98">a </tspan><tspan class="cls-20" x="85.21" y="71.98">a</tspan><tspan x="95.49" y="71.98">d</tspan><tspan class="cls-4" x="106.32" y="71.98">i</tspan><tspan class="cls-22" x="109.65" y="71.98">c</tspan><tspan class="cls-4" x="118.66" y="71.98">io</tspan><tspan class="cls-16" x="131.98" y="71.98">n</tspan><tspan class="cls-7" x="141.45" y="71.98">a</tspan><tspan x="152.03" y="71.98">l, a</tspan><tspan class="cls-18" x="173.84" y="71.98">t</tspan><tspan x="179.81" y="71.98">é 3x o </tspan><tspan class="cls-9" x="231.33" y="71.98">v</tspan><tspan class="cls-7" x="240.11" y="71.98">a</tspan><tspan class="cls-19" x="250.68" y="71.98">l</tspan><tspan class="cls-4" x="254.04" y="71.98">o</tspan><tspan x="264.03" y="71.98">r </tspan></tspan><tspan class="cls-24"><tspan class="cls-19" x="0" y="93.58">d</tspan><tspan x="10.76" y="93.58">o </tspan><tspan class="cls-7" x="25.16" y="93.58">a</tspan><tspan x="35.74" y="93.58">l</tspan><tspan class="cls-19" x="39.16" y="93.58">u</tspan><tspan class="cls-21" x="48.38" y="93.58">g</tspan><tspan class="cls-3" x="58.84" y="93.58">u</tspan><tspan class="cls-2" x="68.07" y="93.58">e</tspan><tspan x="77.97" y="93.58">l.</tspan></tspan></text>
</svg>