<?xml version="1.0" encoding="UTF-8"?>
<svg id="Layer_1" data-name="Layer 1" xmlns="http://www.w3.org/2000/svg" viewBox="0 0 366.28 305.38">
  <defs>
    <style>
      .cls-1 {
        letter-spacing: -.02em;
      }

      .cls-2 {
        letter-spacing: 0em;
      }

      .cls-3 {
        font-family: UrbanistRoman-Bold, Urbanist;
        font-size: 23.99px;
        font-variation-settings: 'wght' 700;
        font-weight: 700;
      }

      .cls-3, .cls-4 {
        fill: #130044;
      }
    </style>
  </defs>
  <path class="cls-4" d="M337.15,8.99c11.1,0,20.14,9.03,20.14,20.14v247.12c0,11.1-9.03,20.14-20.14,20.14H29.13c-11.1,0-20.13-9.03-20.13-20.14V29.13c0-11.1,9.03-20.14,20.13-20.14h308.02M337.15,0H29.13C13.11,0,0,13.11,0,29.13v247.12C0,292.27,13.11,305.38,29.13,305.38h308.02c16.02,0,29.13-13.11,29.13-29.13V29.13C366.28,13.11,353.18,0,337.15,0h0Z"/>
  <path class="cls-4" d="M126.4,67.1c-.47,0-.9-.25-1.14-.66l-3.89-6.73-7.51,2.01c-.45.12-.94,0-1.27-.34-.33-.33-.46-.81-.34-1.27l2.01-7.51-6.73-3.89c-.41-.23-.66-.67-.66-1.14s.25-.9.66-1.14l6.73-3.89-2.01-7.51c-.12-.45,0-.94.34-1.27.33-.33.81-.46,1.27-.34l7.51,2.01,3.89-6.73c.23-.41.67-.66,1.14-.66s.9.25,1.14.66l3.89,6.73,7.51-2.01c.45-.12.94,0,1.27.34.33.33.46.81.34,1.27l-2.01,7.51,6.73,3.89c.41.23.66.67.66,1.14s-.25.9-.66,1.14l-6.73,3.89,2.01,7.51c.12.45,0,.94-.34,1.27s-.81.46-1.27.34l-7.51-2.01-3.89,6.73c-.23.41-.67.66-1.14.66ZM122.01,56.88c.46,0,.9.24,1.14.66l3.25,5.64,3.25-5.64c.3-.51.9-.76,1.48-.61l6.29,1.68-1.68-6.29c-.15-.57.1-1.18.61-1.48l5.64-3.25-5.64-3.25c-.51-.3-.76-.9-.61-1.48l1.68-6.29-6.29,1.69c-.57.15-1.18-.1-1.48-.61l-3.25-5.64-3.25,5.64c-.3.51-.9.76-1.48.61l-6.29-1.69,1.68,6.29c.15.57-.1,1.18-.61,1.48l-5.64,3.25,5.64,3.25c.51.3.76.9.61,1.48l-1.68,6.29,6.29-1.68c.11-.03.23-.04.34-.04Z"/>
  <text class="cls-3" transform="translate(27.59 274.19)"><tspan class="cls-1" x="0" y="0">D</tspan><tspan x="15.75" y="0">a</tspan><tspan class="cls-2" x="30.11" y="0">n</tspan><tspan x="43.26" y="0">o</tspan></text>
  <polygon class="cls-4" points="338.69 262.6 330.04 262.6 330.04 253.95 324.38 253.95 324.38 262.6 315.73 262.6 315.73 268.27 324.38 268.27 324.38 276.92 330.04 276.92 330.04 268.27 338.69 268.27 338.69 262.6"/>
  <path class="cls-4" d="M95.33,47.74c-1.91,0-3.73.37-5.42,1.02l-6.8-13.45h5.31v-2.76h-9.81l2.8,5.53h-23.95l-1.39-2.76h4.71v-2.76h-9.2l3.11,6.16s-.04.04-.05.06l-5.86,10.2c-1.83-.79-3.85-1.22-5.97-1.22-8.39,0-15.2,6.82-15.2,15.21s6.82,15.2,15.2,15.2c7.92,0,14.43-6.09,15.13-13.82h11.32c.49,0,.95-.26,1.2-.69l12.76-22,4.22,8.34c-4.37,2.67-7.31,7.48-7.31,12.97,0,8.39,6.82,15.21,15.2,15.21s15.2-6.82,15.2-15.21-6.82-15.21-15.2-15.21h0ZM56.16,41.64l10.06,19.93h-8.29c-.43-4.71-3-8.8-6.74-11.28l4.97-8.65h0ZM55.16,61.57h-10.45l5.1-8.88c2.91,2,4.93,5.2,5.34,8.88ZM42.8,75.39c-6.86,0-12.44-5.58-12.44-12.44s5.58-12.44,12.44-12.44c1.62,0,3.16.32,4.57.88l-6.25,10.87c-.25.43-.24.95,0,1.38s.7.69,1.2.69h12.83c-.69,6.21-5.97,11.06-12.36,11.06h0ZM68.92,60.77l-10.07-19.93h21.63l-11.57,19.93h0ZM95.33,75.39c-6.86,0-12.44-5.58-12.44-12.44,0-4.41,2.32-8.29,5.79-10.5l5.85,11.58,2.47-1.25-5.84-11.54c1.3-.47,2.7-.73,4.16-.73,6.86,0,12.44,5.58,12.44,12.44s-5.58,12.44-12.44,12.44h0Z"/>
</svg>