<?xml version="1.0" encoding="UTF-8"?>
<svg id="Layer_1" data-name="Layer 1" xmlns="http://www.w3.org/2000/svg" viewBox="0 0 366.28 305.38">
  <defs>
    <style>
      .cls-1 {
        letter-spacing: 0em;
      }

      .cls-2 {
        letter-spacing: 0em;
      }

      .cls-3 {
        letter-spacing: -.02em;
      }

      .cls-4 {
        letter-spacing: -.02em;
      }

      .cls-5 {
        letter-spacing: 0em;
      }

      .cls-6 {
        letter-spacing: 0em;
      }

      .cls-7 {
        letter-spacing: 0em;
      }

      .cls-8 {
        fill: #fff;
      }

      .cls-9 {
        letter-spacing: -.01em;
      }

      .cls-10 {
        letter-spacing: -.04em;
      }

      .cls-11 {
        font-family: UrbanistRoman-Bold, Urbanist;
        font-size: 20px;
        font-variation-settings: 'wght' 700;
        font-weight: 700;
      }

      .cls-12 {
        letter-spacing: -.03em;
      }

      .cls-13 {
        letter-spacing: 0em;
      }

      .cls-14 {
        letter-spacing: 0em;
      }

      .cls-15 {
        letter-spacing: -.02em;
      }

      .cls-16 {
        letter-spacing: -.03em;
      }

      .cls-17 {
        letter-spacing: -.01em;
      }

      .cls-18 {
        letter-spacing: 0em;
      }

      .cls-19 {
        letter-spacing: 0em;
      }

      .cls-20 {
        letter-spacing: -.03em;
      }

      .cls-21 {
        letter-spacing: -.04em;
      }

      .cls-22 {
        letter-spacing: -.01em;
      }

      .cls-23 {
        letter-spacing: 0em;
      }

      .cls-24 {
        letter-spacing: 0em;
      }

      .cls-25 {
        letter-spacing: .01em;
      }

      .cls-26 {
        letter-spacing: -.01em;
      }

      .cls-27 {
        letter-spacing: 0em;
      }

      .cls-28 {
        font-family: Urbanist-Regular, Urbanist;
        font-size: 18px;
        font-variation-settings: 'wght' 400;
      }

      .cls-29 {
        fill: #130044;
      }
    </style>
  </defs>
  <rect class="cls-29" x="0" y="0" width="366.28" height="305.38" rx="29.13" ry="29.13"/>
  <path class="cls-8" d="M59.61,32.04l-1.17,1.28c-2.61,2.88-4.77,4.16-6.56,5-1.79.84-3.3,1.09-4.78,2.22-1.58,1.21-3.87,3.53-4.84,7.67-2.07.45-3.59,1.24-4.78,2.28-1.18,1.02-2.07,2.18-3.17,3.45,0,.01,0,.04,0,.06-1.57,1.81-2.95,3.75-5.61,4.78l-1.11.44v19.01h33.91c1.95-.1,3.29-1.45,4.11-2.78s1.27-2.77,1.5-3.95c.59-3.01,1.67-11.67,1.67-11.67l.06-.17v-.17c-.06-1.2-.55-2.22-1.17-3.17l2-5.95,3.17-4.78.89-1.28-1.17-1.06-11.67-10.12-1.28-1.11ZM59.72,36.93l9.28,8.06-2.45,3.61-.17.17-.06.28-1.61,4.78c-.84-.35-1.71-.59-2.67-.56h-.11l-11.23.06h-1.78v6.89c-.25,1.94-1.33,2.69-2.67,3.22-.44.18-.5.08-.89.17v-10.34c-.29-6.59,2.06-8.49,3.89-9.89.51-.39,1.99-.84,4.11-1.83,1.77-.83,3.97-2.33,6.34-4.61ZM41.93,52.22c0,.4-.13.69-.11,1.11v14.23h1.78s1.9-.02,3.95-.83c2.04-.81,4.51-2.72,4.95-6.06v-3.78l9.56-.06h.06c1.64-.09,3,1.15,3.11,2.78,0,.03-.09.69-.11.83h-7.28v3.56h6.84c-.19,1.38-.36,2.24-.56,3.56h-6.28v3.56h5.73c-.19.79-.56,1.74-1,2.45-.49.79-.9,1.09-1.28,1.11h-30.13v-13.29c2.88-1.53,4.68-3.73,5.84-5.06,1.2-1.38,2.03-2.42,2.83-3.11.53-.45,1.35-.71,2.11-1Z"/>
  <text class="cls-8" transform="translate(27.59 116.71)"><tspan class="cls-11"><tspan class="cls-10" x="0" y="0">A</tspan><tspan x="13.72" y="0">s</tspan><tspan class="cls-17" x="22.41" y="0">s</tspan><tspan class="cls-23" x="30.87" y="0">i</tspan><tspan x="35.56" y="0">s</tspan><tspan class="cls-22" x="44.25" y="0">t</tspan><tspan class="cls-9" x="51.19" y="0">ê</tspan><tspan class="cls-26" x="62.15" y="0">n</tspan><tspan class="cls-3" x="73.11" y="0">c</tspan><tspan class="cls-9" x="82.93" y="0">i</tspan><tspan class="cls-6" x="87.54" y="0">a </tspan><tspan class="cls-15" x="104.32" y="0">F</tspan><tspan x="113.56" y="0">u</tspan><tspan class="cls-26" x="124.32" y="0">n</tspan><tspan class="cls-9" x="135.28" y="0">e</tspan><tspan class="cls-21" x="146.24" y="0">r</tspan><tspan class="cls-13" x="153.19" y="0">a</tspan><tspan x="165.22" y="0">l I</tspan><tspan class="cls-19" x="180.3" y="0">n</tspan><tspan x="191.26" y="0">d</tspan><tspan class="cls-4" x="203.66" y="0">iv</tspan><tspan class="cls-17" x="219.51" y="0">i</tspan><tspan x="224.12" y="0">d</tspan><tspan class="cls-23" x="236.52" y="0">u</tspan><tspan class="cls-13" x="247.13" y="0">a</tspan><tspan x="259.16" y="0">l</tspan></tspan><tspan class="cls-28"><tspan class="cls-20" x="0" y="43.2">C</tspan><tspan class="cls-27" x="12.13" y="43.2">o</tspan><tspan class="cls-7" x="22.06" y="43.2">b</tspan><tspan class="cls-12" x="32.8" y="43.2">r</tspan><tspan x="38.63" y="43.2">e as </tspan><tspan class="cls-24" x="75.51" y="43.2">de</tspan><tspan x="96.26" y="43.2">s</tspan><tspan class="cls-26" x="103.99" y="43.2">p</tspan><tspan class="cls-24" x="114.63" y="43.2">es</tspan><tspan x="132.29" y="43.2">as </tspan><tspan class="cls-24" x="154.8" y="43.2">d</tspan><tspan x="165.56" y="43.2">o </tspan><tspan class="cls-24" x="179.96" y="43.2">s</tspan><tspan class="cls-18" x="187.63" y="43.2">e</tspan><tspan class="cls-2" x="197.5" y="43.2">g</tspan><tspan x="207.96" y="43.2">u</tspan><tspan class="cls-16" x="217.25" y="43.2">r</tspan><tspan class="cls-26" x="223.08" y="43.2">a</tspan><tspan class="cls-5" x="233.36" y="43.2">d</tspan><tspan x="244.12" y="43.2">o</tspan></tspan><tspan class="cls-28"><tspan class="cls-12" x="0" y="64.8">r</tspan><tspan class="cls-27" x="5.83" y="64.8">e</tspan><tspan class="cls-24" x="15.73" y="64.8">l</tspan><tspan class="cls-18" x="19.09" y="64.8">a</tspan><tspan class="cls-1" x="29.37" y="64.8">c</tspan><tspan class="cls-7" x="38.38" y="64.8">io</tspan><tspan class="cls-26" x="51.71" y="64.8">na</tspan><tspan class="cls-24" x="71.45" y="64.8">d</tspan><tspan x="82.22" y="64.8">a</tspan><tspan class="cls-24" x="92.67" y="64.8">s</tspan><tspan x="100.34" y="64.8">a </tspan><tspan class="cls-18" x="115.12" y="64.8">a</tspan><tspan x="125.4" y="64.8">o </tspan><tspan class="cls-25" x="139.8" y="64.8">f</tspan><tspan x="146.04" y="64.8">u</tspan><tspan class="cls-26" x="155.33" y="64.8">n</tspan><tspan class="cls-7" x="164.8" y="64.8">e</tspan><tspan class="cls-16" x="174.76" y="64.8">r</tspan><tspan class="cls-14" x="180.59" y="64.8">a</tspan><tspan x="191.17" y="64.8">l.</tspan></tspan></text>
</svg>