<?xml version="1.0" encoding="UTF-8"?>
<svg id="Layer_1" data-name="Layer 1" xmlns="http://www.w3.org/2000/svg" viewBox="0 0 366.28 305.38">
  <defs>
    <style>
      .cls-1 {
        letter-spacing: 0em;
      }

      .cls-2 {
        letter-spacing: 0em;
      }

      .cls-3 {
        letter-spacing: -.01em;
      }

      .cls-4 {
        letter-spacing: -.02em;
      }

      .cls-5 {
        letter-spacing: -.04em;
      }

      .cls-6 {
        font-family: UrbanistRoman-Bold, Urbanist;
        font-size: 23.99px;
        font-variation-settings: 'wght' 700;
        font-weight: 700;
      }

      .cls-6, .cls-7 {
        fill: #130044;
      }

      .cls-8 {
        letter-spacing: -.01em;
      }

      .cls-9 {
        letter-spacing: -.02em;
      }

      .cls-10 {
        letter-spacing: -.01em;
      }
    </style>
  </defs>
  <path class="cls-7" d="M337.15,8.99c11.1,0,20.14,9.03,20.14,20.14v247.12c0,11.1-9.03,20.13-20.14,20.13H29.13c-11.1,0-20.13-9.03-20.13-20.13V29.13c0-11.1,9.03-20.14,20.13-20.14h308.02M337.15,0H29.13C13.11,0,0,13.11,0,29.13v247.12c0,16.02,13.11,29.13,29.13,29.13h308.02c16.02,0,29.13-13.11,29.13-29.13V29.13C366.28,13.11,353.18,0,337.15,0h0Z"/>
  <text class="cls-6" transform="translate(27.59 274.19)"><tspan class="cls-4" x="0" y="0">P</tspan><tspan class="cls-5" x="12.72" y="0">r</tspan><tspan class="cls-3" x="21.06" y="0">op</tspan><tspan class="cls-9" x="48.79" y="0">r</tspan><tspan class="cls-8" x="57.65" y="0">i</tspan><tspan class="cls-2" x="63.18" y="0">e</tspan><tspan class="cls-1" x="76.36" y="0">d</tspan><tspan class="cls-10" x="91.05" y="0">a</tspan><tspan class="cls-1" x="105.18" y="0">de</tspan><tspan x="133.11" y="0">s </tspan><tspan class="cls-2" x="149.29" y="0">r</tspan><tspan x="158.29" y="0">u</tspan><tspan class="cls-5" x="171.19" y="0">r</tspan><tspan x="179.53" y="0">a</tspan><tspan class="cls-1" x="193.89" y="0">i</tspan><tspan x="199.52" y="0">s</tspan></text>
  <polygon class="cls-7" points="338.69 262.6 330.04 262.6 330.04 253.95 324.38 253.95 324.38 262.6 315.73 262.6 315.73 268.27 324.38 268.27 324.38 276.92 330.04 276.92 330.04 268.27 338.69 268.27 338.69 262.6"/>
  <path id="farm--02" class="cls-7" d="M44.47,78.23h-1.17c0-2.12,1.72-3.84,3.84-3.84h26.06v1.17h-26.06c-1.47,0-2.67,1.2-2.67,2.67ZM41.21,78.23h-1.17c0-3.92,3.19-7.1,7.1-7.1h26.06v1.17h-26.06c-3.27,0-5.93,2.66-5.93,5.93ZM37.95,78.23h-1.17c0-5.71,4.65-10.36,10.36-10.36h26.06v1.17h-26.06c-5.07,0-9.19,4.12-9.19,9.18ZM34.69,78.23h-1.17c0-2.12.49-4.14,1.36-5.93h-7.29v-1.17h7.93c.46-.74.98-1.44,1.57-2.08h-9.5v-1.17h10.72c.99-.84,2.1-1.55,3.3-2.08h-14.02v-1.17h1.04v-11.64c0-1.45.37-2.88,1.07-4.11.77-1.36,2.11-2.16,3.58-2.16s2.81.81,3.58,2.16c.7,1.23,1.07,2.66,1.07,4.11v1.68c.91-.56,2.01-.83,3.12-.75,1.54.11,2.9.87,3.73,2.1h0c.85,1.25,1.29,2.68,1.29,4.15v4.51c.34-.03.69-.04,1.04-.04h7.56v-8.59l-2.26,2.26-.83-.83,10.59-10.59c.23-.23.6-.23.83,0l10.59,10.59-.83.83-2.26-2.26v8.59h2.67v1.17h-26.06c-6.86,0-12.44,5.58-12.44,12.44ZM65.64,64.61h3.71v-9.76l-6.74-6.74-6.74,6.74v9.76h3.71v-5.11c0-.32.26-.59.59-.59h4.89c.32,0,.59.26.59.59v5.11h0ZM60.75,64.61h3.71v-4.53h-3.71v4.53ZM41.21,64.61h3.71v-4.47c0-1.23-.38-2.44-1.09-3.49h0c-.63-.92-1.67-1.5-2.85-1.59-1.21-.09-2.41.37-3.18,1.22-.16.18-.42.24-.64.15-.22-.09-.37-.3-.37-.55v-2.91c0-1.25-.32-2.47-.92-3.53-.56-.99-1.52-1.57-2.56-1.57s-2,.59-2.56,1.57c-.6,1.06-.92,2.28-.92,3.53v11.64h2.08v-12.44h1.17v12.44h6.97v-5.93h1.17v5.93ZM63.43,55.2h-1.63c-.32,0-.59-.26-.59-.59v-3.26c0-.32.26-.59.59-.59h1.63c.32,0,.59.26.59.59v3.26c0,.32-.26.59-.59.59ZM62.38,54.03h.45v-2.08h-.45v2.08ZM68.08,44.03h-1.17v-1.63h1.17v1.63h0ZM71.11,42.77l-1.15-1.15.83-.83,1.15,1.15-.83.83ZM63.88,42.77l-.83-.83,1.15-1.15.83.83-1.15,1.15ZM67.5,41.36c-1.67,0-3.03-1.36-3.03-3.03s1.36-3.03,3.03-3.03,3.03,1.36,3.03,3.03-1.36,3.03-3.03,3.03ZM67.5,36.47c-1.02,0-1.86.83-1.86,1.86s.83,1.86,1.86,1.86,1.86-.83,1.86-1.86-.83-1.86-1.86-1.86ZM73.2,38.91h-1.63v-1.17h1.63v1.17ZM63.43,38.91h-1.63v-1.17h1.63v1.17ZM47.14,36.47h-4.89v-1.17h4.89v1.17ZM38.99,36.47h-11.4v-1.17h11.4v1.17ZM70.79,35.86l-.83-.83,1.15-1.15.83.83-1.15,1.15ZM64.2,35.86l-1.15-1.15.83-.83,1.15,1.15-.83.83ZM68.08,34.25h-1.17v-1.63h1.17v1.63h0ZM48.77,33.21h-21.17v-1.17h21.17v1.17Z"/>
</svg>