<?xml version="1.0" encoding="UTF-8"?>
<svg id="Layer_1" data-name="Layer 1" xmlns="http://www.w3.org/2000/svg" viewBox="0 0 366.28 305.38">
  <defs>
    <style>
      .cls-1 {
        letter-spacing: -.01em;
      }

      .cls-2 {
        letter-spacing: -.04em;
      }

      .cls-3 {
        letter-spacing: 0em;
      }

      .cls-4 {
        font-family: UrbanistRoman-Bold, Urbanist;
        font-size: 19px;
        font-variation-settings: 'wght' 700;
        font-weight: 700;
      }

      .cls-4, .cls-5 {
        fill: #130044;
      }

      .cls-6 {
        letter-spacing: -.02em;
      }

      .cls-7 {
        letter-spacing: -.02em;
      }

      .cls-8 {
        letter-spacing: 0em;
      }

      .cls-9 {
        letter-spacing: -.04em;
      }

      .cls-10 {
        letter-spacing: -.02em;
      }

      .cls-11 {
        letter-spacing: 0em;
      }

      .cls-12 {
        letter-spacing: -.05em;
      }

      .cls-13 {
        letter-spacing: 0em;
      }

      .cls-14 {
        letter-spacing: -.01em;
      }

      .cls-15 {
        letter-spacing: -.08em;
      }

      .cls-16 {
        letter-spacing: -.01em;
      }
    </style>
  </defs>
  <path class="cls-5" d="M337.15,9c11.1,0,20.14,9.03,20.14,20.14v247.12c0,11.1-9.03,20.13-20.14,20.13H29.13c-11.1,0-20.14-9.03-20.14-20.13V29.13c0-11.1,9.03-20.14,20.14-20.14h308.02M337.15,0H29.13C13.11,0,0,13.11,0,29.13v247.12C0,292.27,13.11,305.38,29.13,305.38h308.02c16.02,0,29.13-13.11,29.13-29.13V29.13c0-16.02-13.11-29.13-29.13-29.13h0Z"/>
  <text class="cls-4" transform="translate(27.59 251.17)"><tspan x="0" y="0">I</tspan><tspan class="cls-10" x="5.17" y="0">n</tspan><tspan class="cls-2" x="15.33" y="0">v</tspan><tspan class="cls-13" x="25.71" y="0">a</tspan><tspan x="37.14" y="0">l</tspan><tspan class="cls-16" x="41.73" y="0">i</tspan><tspan class="cls-11" x="46.11" y="0">d</tspan><tspan class="cls-6" x="57.75" y="0">e</tspan><tspan x="68.08" y="0">z </tspan><tspan class="cls-9" x="82.27" y="0">P</tspan><tspan class="cls-16" x="91.95" y="0">er</tspan><tspan class="cls-3" x="109.46" y="0">m</tspan><tspan x="126.15" y="0">a</tspan><tspan class="cls-3" x="137.53" y="0">n</tspan><tspan class="cls-16" x="147.94" y="0">e</tspan><tspan x="158.35" y="0">n</tspan><tspan class="cls-14" x="168.96" y="0">t</tspan><tspan x="175.55" y="0">e </tspan><tspan class="cls-15" x="190.74" y="0">T</tspan><tspan class="cls-1" x="201.27" y="0">ot</tspan><tspan class="cls-13" x="218.29" y="0">a</tspan><tspan x="229.72" y="0">l </tspan><tspan class="cls-3" x="238.88" y="0">p</tspan><tspan class="cls-16" x="250.45" y="0">o</tspan><tspan class="cls-8" x="260.87" y="0">r </tspan><tspan class="cls-12" x="0" y="22.8">A</tspan><tspan class="cls-7" x="12.9" y="22.8">c</tspan><tspan class="cls-16" x="22.23" y="22.8">i</tspan><tspan class="cls-11" x="26.61" y="22.8">d</tspan><tspan class="cls-16" x="38.25" y="22.8">e</tspan><tspan x="48.66" y="22.8">n</tspan><tspan class="cls-1" x="59.26" y="22.8">t</tspan><tspan x="65.85" y="22.8">e</tspan></text>
  <polygon class="cls-5" points="338.69 262.6 330.04 262.6 330.04 253.95 324.38 253.95 324.38 262.6 315.73 262.6 315.73 268.27 324.38 268.27 324.38 276.92 330.04 276.92 330.04 268.27 338.69 268.27 338.69 262.6"/>
  <path class="cls-5" d="M30.35,37.12c-.17-.57-.06-1.18.3-1.65s.9-.75,1.5-.75c.83,0,1.55.53,1.79,1.33l5.46,17.88c.17.56.69.95,1.28.95h20.48c1.24,0,2.26,1.01,2.26,2.26v4.13s0,1.34,0,1.34h-10.11c-1.76-3.74-5.55-6.33-9.95-6.33-6.06,0-10.99,4.93-10.99,10.99s4.93,10.99,10.99,10.99c6.06,0,10.99-4.93,10.99-10.99,0-.68-.06-1.34-.18-1.98h9.25v6.2c-.02.21-.03.42-.03.63,0,3.38,2.75,6.14,6.14,6.14s6.14-2.75,6.14-6.14c0-3.38-2.75-6.14-6.14-6.14-1.27,0-2.45.39-3.43,1.05v-5.76h0v-4.13c0-2.72-2.21-4.93-4.93-4.93h-19.49s-1.99-6.5-1.99-6.5h12.61c1.63,0,2.96,1.33,2.96,2.96,0,.74.6,1.34,1.34,1.34s1.34-.6,1.34-1.34c0-3.11-2.53-5.63-5.63-5.63h-13.43s-2.37-7.76-2.37-7.76c-.59-1.93-2.34-3.22-4.35-3.22-1.45,0-2.78.67-3.65,1.83-.87,1.16-1.13,2.62-.72,4.01l5.46,18.4c.21.71.95,1.11,1.66.9.71-.21,1.11-.95.9-1.66l-5.46-18.4ZM51.67,67.24c0,4.58-3.73,8.31-8.31,8.31-4.58,0-8.31-3.73-8.31-8.31,0-4.58,3.73-8.31,8.31-8.31,4.58,0,8.31,3.73,8.31,8.31ZM66.06,72.16c.02-.09.03-.18.03-.28v-.24c.22-1.7,1.67-3.01,3.43-3.01,1.91,0,3.46,1.55,3.46,3.46,0,1.91-1.55,3.46-3.46,3.46-1.89,0-3.43-1.52-3.46-3.4Z"/>
</svg>