<?xml version="1.0" encoding="UTF-8"?>
<svg id="Layer_1" data-name="Layer 1" xmlns="http://www.w3.org/2000/svg" viewBox="0 0 366.28 305.38">
  <defs>
    <style>
      .cls-1 {
        letter-spacing: 0em;
      }

      .cls-2 {
        letter-spacing: 0em;
      }

      .cls-3 {
        letter-spacing: -.02em;
      }

      .cls-4 {
        letter-spacing: 0em;
      }

      .cls-5 {
        letter-spacing: -.04em;
      }

      .cls-6 {
        letter-spacing: -.01em;
      }

      .cls-7 {
        letter-spacing: -.02em;
      }

      .cls-8 {
        font-family: UrbanistRoman-Bold, Urbanist;
        font-size: 23.99px;
        font-variation-settings: 'wght' 700;
        font-weight: 700;
      }

      .cls-8, .cls-9 {
        fill: #130044;
      }

      .cls-10 {
        letter-spacing: -.01em;
      }

      .cls-11 {
        letter-spacing: -.02em;
      }

      .cls-12 {
        letter-spacing: -.01em;
      }

      .cls-13 {
        letter-spacing: -.01em;
      }
    </style>
  </defs>
  <path class="cls-9" d="M337.15,9c11.1,0,20.14,9.03,20.14,20.14v247.12c0,11.1-9.03,20.13-20.14,20.13H29.13c-11.1,0-20.14-9.03-20.14-20.13V29.13c0-11.1,9.03-20.14,20.14-20.14h308.02M337.15,0H29.13C13.11,0,0,13.11,0,29.13v247.12C0,292.27,13.11,305.38,29.13,305.38h308.02c16.02,0,29.13-13.11,29.13-29.13V29.13c0-16.02-13.11-29.13-29.13-29.13h0Z"/>
  <text class="cls-8" transform="translate(27.59 245.34)"><tspan class="cls-5" x="0" y="0">P</tspan><tspan class="cls-2" x="12.22" y="0">ar</tspan><tspan class="cls-1" x="35.82" y="0">t</tspan><tspan class="cls-6" x="44.23" y="0">i</tspan><tspan class="cls-3" x="49.76" y="0">c</tspan><tspan class="cls-1" x="61.54" y="0">i</tspan><tspan class="cls-12" x="67.16" y="0">pa</tspan><tspan class="cls-7" x="95.9" y="0">ç</tspan><tspan class="cls-4" x="107.76" y="0">ã</tspan><tspan x="121.89" y="0">o </tspan><tspan class="cls-6" x="141.08" y="0">e</tspan><tspan x="154.22" y="0">m </tspan><tspan class="cls-11" x="0" y="28.78">c</tspan><tspan class="cls-10" x="11.86" y="28.78">o</tspan><tspan x="25.02" y="28.78">m</tspan><tspan class="cls-4" x="46.33" y="28.78">p</tspan><tspan class="cls-13" x="60.94" y="28.78">e</tspan><tspan class="cls-1" x="74.09" y="28.78">t</tspan><tspan class="cls-6" x="82.5" y="28.78">i</tspan><tspan class="cls-7" x="88.03" y="28.78">ç</tspan><tspan class="cls-4" x="99.89" y="28.78">ã</tspan><tspan x="114.02" y="28.78">o </tspan><tspan class="cls-1" x="133.21" y="28.78">d</tspan><tspan x="147.9" y="28.78">e </tspan><tspan class="cls-12" x="167.08" y="28.78">p</tspan><tspan class="cls-1" x="181.69" y="28.78">es</tspan><tspan class="cls-11" x="205.17" y="28.78">c</tspan><tspan x="217.03" y="28.78">a</tspan></text>
  <polygon class="cls-9" points="338.69 262.6 330.04 262.6 330.04 253.95 324.38 253.95 324.38 262.6 315.73 262.6 315.73 268.27 324.38 268.27 324.38 276.92 330.04 276.92 330.04 268.27 338.69 268.27 338.69 262.6"/>
  <path class="cls-9" d="M76.11,69.71l-9.26-9.26-.7.7-9.88-9.88h0l-6.97-6.97h0l-9.22-9.22.04-.04-4.26-4.26c-.74-.74-2.05-.74-2.79,0l-.66.66c-.33.33-.57.82-.57,1.39s.16,1.07.57,1.39l.54.55c-1.41,1.5-4.75,5.53-4.55,11.25.08,1.97.57,4.02,1.64,5.98.25.57.66,1.15,1.07,1.8,2.09,3.21,3.31,5.72.97,8.05-.13-.01-.26-.02-.4-.02-2.29,0-4.1,1.8-4.1,4.1,0,2.01,1.39,3.65,3.28,4.02v1.72h-1.64c-.49,0-.82.33-.82.82s.33.82.82.82h1.64v2.46c0,.49-.33.82-.82.82s-.82-.33-.82-.82-.33-.82-.82-.82-.82.33-.82.82c0,1.39,1.07,2.46,2.46,2.46s2.46-1.07,2.46-2.46v-2.46h1.64c.49,0,.82-.33.82-.82s-.33-.82-.82-.82h-1.64v-1.72c1.89-.37,3.28-2.01,3.28-4.02,0-1.51-.78-2.8-1.96-3.51,2.63-3.32.27-6.94-1.32-9.44-.33-.66-.74-1.23-.98-1.72-.98-1.72-1.48-3.52-1.48-5.25-.13-5,2.83-8.72,4.06-10.08l1.36,1.38h-.01s.13.14.13.14c-1.2,2.12-.1,5.63,2.82,8.56,2.13,2.13,4.59,3.28,6.64,3.28.2,0,.4-.01.6-.04-.21,1.52.03,3.21.14,3.89.43,2.44,1.36,4.69,2.52,6.15-1.02,1.62-.85,3.8.51,5.16l2.29,2.29-1.39,1.99c-.51-.23-1.07-.34-1.63-.34-1.07,0-2.05.49-2.87,1.23-.82.74-1.23,1.8-1.23,2.87s.49,2.05,1.23,2.87c.74.82,1.8,1.23,2.87,1.23s2.05-.49,2.87-1.23c.82-.74,1.23-1.8,1.23-2.87s-.46-2.05-1.15-2.78l1.25-1.79,1.21,1.21c.74.82,1.8,1.23,2.87,1.23s2.05-.41,2.95-1.23c1.56-1.64,1.56-4.26,0-5.82l1.1-1.1,2.34,2.33-.57.57,9.18,9.26c.49.41,1.07.66,1.64.66s1.15-.25,1.72-.66l1.39-1.39c.9-.9.9-2.38,0-3.28ZM31.69,68.4c-1.39,0-2.46-1.07-2.46-2.46s1.07-2.46,2.46-2.46,2.46,1.07,2.46,2.46-1.07,2.46-2.46,2.46ZM50.54,72.49c0,.66-.25,1.23-.74,1.72-.9.9-2.54.9-3.44,0-.49-.41-.74-1.07-.74-1.72s.25-1.31.74-1.72c.41-.49,1.07-.74,1.72-.74.22,0,.45.03.66.09l-1.32,1.88c-.33.41-.25.9.16,1.15.16.08.33.16.49.16.25,0,.49-.08.66-.33l1.34-1.92c.31.4.46.91.46,1.43ZM48.25,47.74l1.15-1.15,2.27,2.27,2.4,2.4-1.15,1.15-4.67-4.67ZM47.06,46.55l-9.22-9.22,1.15-1.15,9.22,9.22-1.15,1.15ZM33.58,33.07c-.08-.08-.08-.16-.08-.25s0-.16.08-.25l.66-.66c.08-.08.16-.08.25-.08s.16,0,.25.08l3.03,3.11-1.15,1.15-3.03-3.11ZM39.56,44.87c-2.2-2.2-3.04-4.72-2.71-6.16l8.91,8.88c-1.45.4-3.96-.49-6.19-2.72ZM47.27,49.15l5.56,5.56.03-.03,2.87,2.86-1.09,1.09c-1.43-1.36-3.55-1.53-5.15-.52-1-1.23-1.79-3.17-2.14-5.3-.27-1.57-.26-2.85-.07-3.68ZM58.08,68.07c-.9.98-2.46.98-3.44,0l-1.45-1.45,1.28-1.83c.33-.41.25-.82-.16-1.15s-.9-.25-1.15.16l-1.15,1.64-2.05-2.05c-.98-.9-.98-2.46,0-3.44.49-.49,1.07-.74,1.72-.74s1.31.25,1.72.74l4.67,4.67c.98.9.98,2.46,0,3.44ZM58.12,62.13l-2.29-2.29,1.1-1.1,2.3,2.29-1.1,1.1ZM54.02,53.52l1.15-1.15,9.88,9.88-1.15,1.15-9.88-9.88ZM74.88,71.84l-1.39,1.39c-.25.25-.66.25-.9,0l-8.11-8.11,2.29-2.29,8.11,8.11c.25.25.25.66,0,.9Z"/>
</svg>