<?xml version="1.0" encoding="UTF-8"?>
<svg id="Layer_1" data-name="Layer 1" xmlns="http://www.w3.org/2000/svg" viewBox="0 0 366.28 305.38">
  <defs>
    <style>
      .cls-1 {
        letter-spacing: -.04em;
      }

      .cls-2 {
        letter-spacing: -.04em;
      }

      .cls-3 {
        letter-spacing: -.02em;
      }

      .cls-4 {
        letter-spacing: -.01em;
      }

      .cls-5 {
        letter-spacing: -.02em;
      }

      .cls-6 {
        letter-spacing: 0em;
      }

      .cls-7 {
        letter-spacing: -.02em;
      }

      .cls-8 {
        letter-spacing: -.01em;
      }

      .cls-9 {
        letter-spacing: 0em;
      }

      .cls-10 {
        font-family: UrbanistRoman-Bold, Urbanist;
        font-size: 16px;
        font-variation-settings: 'wght' 700;
        font-weight: 700;
      }

      .cls-10, .cls-11 {
        fill: #130044;
      }

      .cls-12 {
        letter-spacing: 0em;
      }

      .cls-13 {
        letter-spacing: -.01em;
      }

      .cls-14 {
        letter-spacing: -.01em;
      }
    </style>
  </defs>
  <path class="cls-11" d="M337.15,8.99c11.1,0,20.13,9.03,20.13,20.14v247.12c0,11.1-9.03,20.14-20.13,20.14H29.13c-11.1,0-20.13-9.03-20.13-20.14V29.13c0-11.1,9.03-20.14,20.13-20.14h308.02M337.15,0H29.13C13.11,0,0,13.11,0,29.13v247.12c0,16.02,13.11,29.13,29.13,29.13h308.02c16.02,0,29.13-13.11,29.13-29.13V29.13c0-16.02-13.11-29.13-29.13-29.13h0Z"/>
  <text class="cls-10" transform="translate(27.59 271.3)"><tspan class="cls-3" x="0" y="0">D</tspan><tspan class="cls-12" x="10.5" y="0">e</tspan><tspan x="19.34" y="0">s</tspan><tspan class="cls-9" x="26.29" y="0">m</tspan><tspan class="cls-8" x="40.34" y="0">o</tspan><tspan class="cls-1" x="49.12" y="0">r</tspan><tspan class="cls-4" x="54.68" y="0">o</tspan><tspan class="cls-14" x="63.46" y="0">n</tspan><tspan x="72.22" y="0">a</tspan><tspan class="cls-9" x="81.81" y="0">m</tspan><tspan class="cls-8" x="95.86" y="0">e</tspan><tspan x="104.63" y="0">n</tspan><tspan class="cls-13" x="113.56" y="0">t</tspan><tspan x="119.11" y="0">o </tspan><tspan class="cls-5" x="131.91" y="0">o</tspan><tspan x="140.5" y="0">u </tspan><tspan class="cls-7" x="152.95" y="0">q</tspan><tspan class="cls-6" x="162.61" y="0">u</tspan><tspan class="cls-14" x="171.1" y="0">e</tspan><tspan class="cls-12" x="179.89" y="0">d</tspan><tspan x="189.69" y="0">a </tspan><tspan class="cls-12" x="203.11" y="0">d</tspan><tspan x="212.91" y="0">e </tspan><tspan class="cls-13" x="225.7" y="0">t</tspan><tspan class="cls-8" x="231.26" y="0">er</tspan><tspan class="cls-2" x="246" y="0">r</tspan><tspan x="251.56" y="0">a</tspan></text>
  <polygon class="cls-11" points="338.69 262.6 330.04 262.6 330.04 253.95 324.38 253.95 324.38 262.6 315.73 262.6 315.73 268.27 324.38 268.27 324.38 276.92 330.04 276.92 330.04 268.27 338.69 268.27 338.69 262.6"/>
  <g>
    <path class="cls-11" d="M76.65,78.23H29c-.78,0-1.41-.63-1.41-1.41v-43.37c0-.49.25-.94.66-1.2.41-.26.93-.28,1.37-.07l8.77,4.31c.39.19.66.54.75.96l1.52,6.95,8.42,3.96c.51.24.83.76.81,1.32l-.24,7.05,5.06,2.96c.33.19.56.51.66.88l.81,3.26,2.9-.07c.28,0,.57.08.81.23l17.53,11.64c.52.34.75.99.57,1.58-.18.59-.73,1-1.35,1ZM30.41,75.41h41.57l-13.27-8.81-3.59.08c-.68.03-1.24-.43-1.4-1.07l-.94-3.78-5.27-3.08c-.45-.26-.72-.75-.7-1.26l.24-6.96-8.21-3.86c-.4-.19-.68-.55-.78-.97l-1.53-6.96-6.13-3.02v39.7Z"/>
    <path class="cls-11" d="M56.89,45.53h-8.91c-.45,0-.86-.21-1.13-.57l-3.74-5.03c-.22-.3-.32-.68-.26-1.05.06-.37.25-.7.55-.93l4.65-3.44c.35-.26.79-.34,1.21-.23l8,2.19c.61.17,1.04.72,1.04,1.36v6.29c0,.78-.63,1.41-1.41,1.41ZM48.68,42.71h6.79v-3.8l-6.3-1.73-2.97,2.2,2.47,3.33Z"/>
    <path class="cls-11" d="M61.37,59.09c-.22,0-.44-.05-.64-.15l-6.57-3.36c-.68-.35-.96-1.17-.63-1.85l2.25-4.79c.18-.39.54-.68.96-.77.42-.1.86,0,1.2.28l4.46,3.61c.34.28.54.7.52,1.14l-.14,4.54c-.01.48-.28.92-.69,1.17-.22.13-.47.2-.72.2ZM56.65,53.69l3.38,1.73.05-1.62-2.52-2.04-.91,1.93Z"/>
    <path class="cls-11" d="M67.02,69.15s-.06,0-.09,0c-.37-.02-.72-.19-.96-.46l-3.26-3.15c-.28-.27-.44-.65-.43-1.04,0-.39.18-.76.47-1.02l2.23-1.99c.45-.4,1.09-.47,1.61-.18l3.62,1.99c.36.2.62.55.7.95.08.41-.02.83-.27,1.15l-2.52,3.22c-.27.34-.68.54-1.11.54ZM65.77,64.56l1.11,1.08.53-.68-1.29-.71-.35.31Z"/>
  </g>
</svg>