<?xml version="1.0" encoding="UTF-8"?>
<svg id="Layer_1" data-name="Layer 1" xmlns="http://www.w3.org/2000/svg" viewBox="0 0 366.28 305.38">
  <defs>
    <style>
      .cls-1 {
        letter-spacing: 0em;
      }

      .cls-2 {
        fill: #fff;
      }

      .cls-3 {
        letter-spacing: 0em;
      }

      .cls-4 {
        letter-spacing: -.03em;
      }

      .cls-5 {
        letter-spacing: 0em;
      }

      .cls-6 {
        letter-spacing: -.03em;
      }

      .cls-7 {
        font-family: UrbanistRoman-Bold, Urbanist;
        font-size: 23.99px;
        font-variation-settings: 'wght' 700;
        font-weight: 700;
      }

      .cls-8 {
        letter-spacing: 0em;
      }

      .cls-9 {
        letter-spacing: -.02em;
      }

      .cls-10 {
        letter-spacing: 0em;
      }

      .cls-11 {
        letter-spacing: -.04em;
      }

      .cls-12 {
        letter-spacing: 0em;
      }

      .cls-13 {
        letter-spacing: -.01em;
      }

      .cls-14 {
        letter-spacing: 0em;
      }

      .cls-15 {
        font-family: Urbanist-Regular, Urbanist;
        font-size: 18px;
        font-variation-settings: 'wght' 400;
      }

      .cls-16 {
        fill: #130044;
      }
    </style>
  </defs>
  <rect class="cls-16" x="0" y="0" width="366.28" height="305.38" rx="29.13" ry="29.13"/>
  <g>
    <path class="cls-2" d="M73.05,76.77h-4.13v-23.06c.39.14.8.21,1.21.21,1.28,0,2.44-.64,3.11-1.71.51-.82.67-1.78.44-2.72-.23-.94-.81-1.74-1.65-2.24l-19.45-11.76c-1.17-.71-2.63-.71-3.81,0l-7.09,4.29v-6.03c0-.94-.76-1.7-1.7-1.7h-3.89c-.94,0-1.7.76-1.7,1.7v10.44l-5.06,3.06c-.84.51-1.42,1.3-1.65,2.24-.22.93-.07,1.9.44,2.72.92,1.47,2.74,2.06,4.32,1.51v23.06h-4.13c-.4,0-.73.33-.73.73s.33.73.73.73h8.75c.4,0,.73-.33.73-.73s-.33-.73-.73-.73h-3.16v-23.85l16.77-10.14,11.07,6.7c.34.21.79.1,1-.25.21-.34.1-.79-.25-1l-11.45-6.92c-.23-.14-.52-.14-.75,0l-17.92,10.84c-1.03.62-2.38.31-3.02-.71-.3-.48-.4-1.05-.26-1.61.13-.56.48-1.03.98-1.34l8.21-4.96c.34-.21.46-.66.25-1-.21-.34-.66-.46-1-.25l-1.69,1.02v-9.56c0-.13.11-.24.24-.24h3.89c.13,0,.24.11.24.24v6.91l-.61.37c-.34.21-.46.66-.25,1,.21.34.66.46,1,.25l9.16-5.54c.71-.43,1.59-.43,2.3,0l19.45,11.76c.5.3.85.78.98,1.34.13.55.04,1.12-.26,1.61-.4.64-1.1,1.03-1.87,1.03-.4,0-.8-.11-1.15-.32l-4.24-2.56c-.34-.21-.79-.1-1,.25-.21.34-.1.79.25,1l3.47,2.1v23.85h-27.62c-.4,0-.73.33-.73.73s.33.73.73.73h33.21c.4,0,.73-.33.73-.73,0-.4-.33-.73-.73-.73Z"/>
    <path class="cls-2" d="M41.21,60v8.75c0,.94.76,1.7,1.7,1.7h15.56c.94,0,1.7-.76,1.7-1.7v-8.75c0-.94-.76-1.7-1.7-1.7h-15.56c-.94,0-1.7.76-1.7,1.7ZM49.96,68.99h-7.05c-.13,0-.24-.11-.24-.24v-5.11h7.29v5.35h0ZM51.42,63.64h5.11c.4,0,.73-.33.73-.73s-.33-.73-.73-.73h-5.11v-2.43h7.05c.13,0,.24.11.24.24v8.75c0,.13-.11.24-.24.24h-7.05v-5.35h0ZM49.96,62.19h-7.29v-2.19c0-.13.11-.24.24-.24h7.05v2.43h0Z"/>
    <path class="cls-2" d="M52.15,52.95c1.47,0,2.67-1.2,2.67-2.67s-1.2-2.67-2.67-2.67h-2.92c-1.47,0-2.67,1.2-2.67,2.67s1.2,2.67,2.67,2.67h2.92ZM48.01,50.27c0-.67.55-1.22,1.22-1.22h2.92c.67,0,1.22.55,1.22,1.22s-.55,1.22-1.22,1.22h-2.92c-.67,0-1.22-.55-1.22-1.22Z"/>
  </g>
  <text class="cls-2" transform="translate(27.59 119.7)"><tspan class="cls-7"><tspan x="0" y="0">I</tspan><tspan class="cls-8" x="6.52" y="0">m</tspan><tspan class="cls-11" x="27.6" y="0">óv</tspan><tspan class="cls-9" x="53.27" y="0">e</tspan><tspan x="66.24" y="0">l</tspan></tspan><tspan class="cls-15"><tspan x="0" y="43.2">I</tspan><tspan class="cls-10" x="3.96" y="43.2">n</tspan><tspan class="cls-6" x="13.43" y="43.2">v</tspan><tspan class="cls-12" x="22.2" y="43.2">e</tspan><tspan x="32.19" y="43.2">s</tspan><tspan class="cls-12" x="39.92" y="43.2">t</tspan><tspan class="cls-3" x="46.07" y="43.2">i</tspan><tspan class="cls-10" x="49.46" y="43.2">n</tspan><tspan class="cls-12" x="58.93" y="43.2">d</tspan><tspan x="69.7" y="43.2">o </tspan><tspan class="cls-10" x="84.1" y="43.2">n</tspan><tspan x="93.56" y="43.2">o </tspan><tspan class="cls-12" x="107.96" y="43.2">s</tspan><tspan class="cls-1" x="115.63" y="43.2">o</tspan><tspan class="cls-5" x="125.62" y="43.2">n</tspan><tspan class="cls-13" x="135.39" y="43.2">h</tspan><tspan x="144.85" y="43.2">o </tspan><tspan class="cls-12" x="159.25" y="43.2">d</tspan><tspan x="170.02" y="43.2">a </tspan><tspan class="cls-14" x="184.8" y="43.2">c</tspan><tspan x="193.85" y="43.2">a</tspan><tspan class="cls-12" x="204.31" y="43.2">s</tspan><tspan x="211.98" y="43.2">a </tspan></tspan><tspan class="cls-15"><tspan class="cls-1" x="0" y="64.8">p</tspan><tspan class="cls-4" x="10.73" y="64.8">r</tspan><tspan class="cls-1" x="16.56" y="64.8">óp</tspan><tspan class="cls-14" x="37.28" y="64.8">r</tspan><tspan class="cls-1" x="43.6" y="64.8">i</tspan><tspan x="46.93" y="64.8">a!</tspan></tspan></text>
</svg>