<?xml version="1.0" encoding="UTF-8"?>
<svg id="Layer_1" data-name="Layer 1" xmlns="http://www.w3.org/2000/svg" viewBox="0 0 366.28 305.38">
  <defs>
    <style>
      .cls-1 {
        letter-spacing: -.01em;
      }

      .cls-2 {
        letter-spacing: 0em;
      }

      .cls-3 {
        letter-spacing: 0em;
      }

      .cls-4 {
        fill: #fff;
      }

      .cls-5 {
        letter-spacing: 0em;
      }

      .cls-6 {
        letter-spacing: -.03em;
      }

      .cls-7 {
        letter-spacing: 0em;
      }

      .cls-8 {
        letter-spacing: -.01em;
      }

      .cls-9 {
        font-family: UrbanistRoman-Bold, Urbanist;
        font-size: 23.99px;
        font-variation-settings: 'wght' 700;
        font-weight: 700;
      }

      .cls-10 {
        letter-spacing: -.03em;
      }

      .cls-11 {
        letter-spacing: 0em;
      }

      .cls-12 {
        letter-spacing: -.03em;
      }

      .cls-13 {
        letter-spacing: -.02em;
      }

      .cls-14 {
        letter-spacing: 0em;
      }

      .cls-15 {
        letter-spacing: 0em;
      }

      .cls-16 {
        letter-spacing: -.01em;
      }

      .cls-17 {
        letter-spacing: 0em;
      }

      .cls-18 {
        letter-spacing: -.01em;
      }

      .cls-19 {
        letter-spacing: 0em;
      }

      .cls-20 {
        letter-spacing: 0em;
      }

      .cls-21 {
        font-family: Urbanist-Regular, Urbanist;
        font-size: 18px;
        font-variation-settings: 'wght' 400;
      }

      .cls-22 {
        fill: #130044;
      }
    </style>
  </defs>
  <rect class="cls-22" x="0" y="0" width="366.28" height="305.38" rx="29.13" ry="29.13"/>
  <g>
    <path class="cls-4" d="M109.28,46.18s-.03,0-.04,0c0,0-.01,0-.02,0h.06Z"/>
    <polygon class="cls-4" points="116.43 24.95 116.43 24.95 116.43 24.95 116.43 24.95"/>
    <path class="cls-4" d="M110.43,29.37s.01-.04.02-.06c0,0,0,0,0,0l-.02.07Z"/>
    <polygon class="cls-4" points="112.14 30.83 112.13 30.84 112.13 30.84 112.14 30.83"/>
    <path class="cls-4" d="M116.43,24.95h0c-.23-.23-.54-.37-.89-.37-.52,0-.97.31-1.16.76h0c-.26.61-.6,1.13-1.01,1.59,0-.12,0-.27,0-.41,0-1.81-.4-3.53-1.11-5.08-1.29-2.68-3.44-4.77-6.08-5.95l-.08-.03c-.15-.07-.32-.1-.5-.1-.7,0-1.26.57-1.26,1.26,0,.08,0,.15.02.22h0s0,.09,0,.14c0,2.02-.9,3.84-2.32,5.06h0c-.53.54-1.08,1.04-1.64,1.54-1.32,1.1-2.47,2.33-3.45,3.7l-.04.06c-1.11,1.79-1.76,3.97-1.76,6.3,0,1.15.16,2.25.46,3.3l-.02-.09c.77,3.17,2.72,5.79,5.34,7.43l.05.03c1.91,1.22,4.23,1.95,6.73,1.96h.01c.52,0,1.03-.04,1.53-.1,4.75-.7,8.61-3.94,10.18-8.28l.03-.09c.4-1.18.63-2.54.63-3.95,0-3.47-1.39-6.62-3.64-8.91ZM117.05,37.01h0c-1.27,3.54-4.36,6.13-8.1,6.67h-.06c-.36.05-.77.08-1.19.08-2,0-3.86-.58-5.42-1.58-2.11-1.33-3.65-3.4-4.25-5.85v-.07c-.24-.78-.37-1.68-.37-2.61,0-1.8.5-3.49,1.36-4.93.89-1.23,1.9-2.3,3.03-3.22l.03-.02c.6-.54,1.19-1.07,1.75-1.64,1.42-1.34,2.47-3.07,2.96-5.02l.02-.07c2.47,1.73,4.07,4.57,4.07,7.78,0,.97-.15,1.9-.42,2.78-.03.11-.05.24-.05.37,0,.7.56,1.26,1.26,1.26.17,0,.33-.03.48-.09,1.47-.61,2.68-1.57,3.58-2.78l.02-.02c1.14,1.62,1.82,3.64,1.82,5.82,0,1.1-.18,2.16-.5,3.16Z"/>
    <path class="cls-4" d="M112.24,21.39s.02.04.03.07c0,0,0,0,0,0l-.03-.07Z"/>
    <path class="cls-4" d="M97.02,51.22c-1.82,0-3.56.36-5.15,1.02l-.75-1.4c1.83-.78,3.82-1.2,5.89-1.2,2.58,0,5.12.66,7.36,1.92.64.36,1.45.13,1.81-.51.36-.64.13-1.45-.51-1.81-2.64-1.48-5.63-2.26-8.67-2.26-2.52,0-4.94.53-7.15,1.51l-1.32-2.47c.12,0,.25.01.37.01h3.08c.74,0,1.33-.6,1.33-1.33v-8.61c0-.74-.6-1.33-1.33-1.33h-3.08c-2.09,0-3.91,1.18-4.83,2.9l-2.35-4.41c-.23-.43-.68-.71-1.17-.71h-6.27c-.74,0-1.33.6-1.33,1.33s.6,1.33,1.33,1.33h5.47l2.26,4.25c-.29-.21-.6-.41-.93-.58-2.01-1.05-4.43-1.12-6.49-.16l-4.15,1.92c-1.5.69-2.68,1.84-3.42,3.21-1.19-1.32-2.85-2.22-4.74-2.43l-20.21-2.28c-1.03-.12-2.07.21-2.84.9-.77.69-1.22,1.68-1.22,2.72v5.85c-.25.11-.51.23-.75.35-4.59,2.37-7.92,6.59-9.14,11.59-.17.71.26,1.43.98,1.61.11.03.21.04.32.04.6,0,1.14-.41,1.29-1.02,1.03-4.25,3.87-7.84,7.77-9.85,1.39-.72,2.99-1.1,4.63-1.1h23.19v3.86h-12.66c-2.29-1.78-5.16-2.85-8.27-2.85-6.94,0-12.7,5.3-13.43,12.07h-3.05c-.74,0-1.33.6-1.33,1.33v4.43c0,.74.6,1.33,1.33,1.33h4.21c2.19,4.73,7,7.86,12.27,7.86s10.08-3.12,12.27-7.86h9.18c2.9,0,5.3-2.23,5.57-5.06,2.47-.89,4.57-2.67,5.84-5.07l6.31-12.31c.36-.95.5-1.93.46-2.89l2.5,4.69c-3.34,2.12-5.96,5.33-7.3,9.26-.24.7.13,1.45.83,1.69.14.05.29.07.43.07.55,0,1.07-.35,1.26-.9,1.12-3.27,3.28-5.96,6.04-7.76l.75,1.4c-3.62,2.43-6.01,6.55-6.01,11.23,0,7.45,6.06,13.51,13.51,13.51s13.51-6.06,13.51-13.51-6.06-13.51-13.51-13.51ZM44.98,47.54h0s-1.84,0-1.84,0h-2.43v-4.81c0-.38.21-.62.33-.73.12-.11.39-.29.77-.24l20.21,2.28c2,.23,3.61,1.65,4.13,3.5h-21.16ZM61.69,56.73l3.41,6.55h-6.27c-.26-2.43-1.17-4.68-2.56-6.55h5.42ZM45.4,53.88c5.47,0,10.03,4.11,10.74,9.4h-21.49c.71-5.29,5.27-9.4,10.74-9.4ZM45.4,75.57c-3.8,0-7.31-2.02-9.25-5.19h1.69c1.78,2.39,4.56,3.8,7.56,3.8s5.78-1.41,7.56-3.8h1.69c-1.95,3.17-5.45,5.19-9.25,5.19ZM41.65,70.38h7.51c-1.09.73-2.39,1.13-3.75,1.13-1.36,0-2.66-.41-3.75-1.13ZM66.84,67.71H30.26v-1.76h39.28c-.45,1.04-1.49,1.76-2.69,1.76ZM75.9,59c-1.41,2.65-4.14,4.29-7.13,4.29h-.67l-3.41-6.55h2.97c.74,0,1.33-.6,1.33-1.33v-5.19h11.58l-4.67,8.79ZM82.07,47l-.2.54h-12.99c-.02-.1-.04-.2-.06-.3.05-1.78,1.1-3.43,2.78-4.21l4.15-1.92c1.31-.61,2.85-.57,4.13.1,2.08,1.09,3.03,3.58,2.2,5.77ZM86.12,40.55v-.32c0-1.55,1.26-2.81,2.81-2.81h1.75v5.95h-1.75c-1.55,0-2.81-1.26-2.81-2.81ZM92.72,59.48l1.47,2.76c.24.45.7.71,1.18.71.21,0,.43-.05.63-.16.65-.35.89-1.15.55-1.8l-1.47-2.76c.62-.19,1.28-.29,1.95-.29,3.74,0,6.78,3.04,6.78,6.78s-3.04,6.78-6.78,6.78-6.78-3.04-6.78-6.78c0-2.11.97-4,2.48-5.24ZM97.02,75.57c-5.98,0-10.84-4.86-10.84-10.84,0-3.66,1.82-6.9,4.61-8.86l.66,1.24c-2.35,1.72-3.88,4.5-3.88,7.62,0,5.21,4.24,9.45,9.45,9.45s9.45-4.24,9.45-9.45-4.24-9.45-9.45-9.45c-1.13,0-2.22.2-3.23.57l-.66-1.24c1.21-.47,2.52-.72,3.89-.72,5.98,0,10.84,4.86,10.84,10.84s-4.86,10.84-10.84,10.84Z"/>
    <path class="cls-4" d="M95.79,65.23s0,.02,0,0c.36.84,1.51,1.1,2.17.43.51-.5.51-1.38,0-1.88-.44-.45-1.17-.51-1.68-.17-.52.35-.72,1.03-.49,1.61,0-.02-.01-.03,0,0Z"/>
  </g>
  <text class="cls-4" transform="translate(27.59 119.7)"><tspan class="cls-9"><tspan x="0" y="0">I</tspan><tspan class="cls-14" x="6.52" y="0">n</tspan><tspan class="cls-13" x="19.67" y="0">c</tspan><tspan class="cls-8" x="31.53" y="0">ê</tspan><tspan class="cls-14" x="44.67" y="0">n</tspan><tspan x="57.82" y="0">d</tspan><tspan class="cls-1" x="72.69" y="0">i</tspan><tspan x="78.22" y="0">o</tspan></tspan><tspan class="cls-21"><tspan class="cls-19" x="0" y="43.2">S</tspan><tspan x="10.86" y="43.2">e </tspan><tspan class="cls-18" x="25.24" y="43.2">ho</tspan><tspan x="44.6" y="43.2">u</tspan><tspan class="cls-10" x="53.89" y="43.2">v</tspan><tspan class="cls-3" x="62.67" y="43.2">e</tspan><tspan x="72.63" y="43.2">r um </tspan><tspan class="cls-11" x="112.99" y="43.2">i</tspan><tspan class="cls-15" x="116.38" y="43.2">n</tspan><tspan class="cls-19" x="125.85" y="43.2">c</tspan><tspan class="cls-3" x="134.9" y="43.2">ê</tspan><tspan class="cls-15" x="144.86" y="43.2">n</tspan><tspan x="154.33" y="43.2">d</tspan><tspan class="cls-3" x="165.16" y="43.2">i</tspan><tspan x="168.49" y="43.2">o </tspan><tspan class="cls-18" x="182.89" y="43.2">n</tspan><tspan x="192.36" y="43.2">o </tspan><tspan class="cls-10" x="206.76" y="43.2">v</tspan><tspan class="cls-18" x="215.53" y="43.2">e</tspan><tspan class="cls-3" x="225.4" y="43.2">íc</tspan><tspan class="cls-7" x="237.81" y="43.2">u</tspan><tspan class="cls-2" x="247.22" y="43.2">l</tspan><tspan class="cls-18" x="250.58" y="43.2">o</tspan><tspan x="260.48" y="43.2">, </tspan></tspan><tspan class="cls-21"><tspan class="cls-19" x="0" y="64.8">c</tspan><tspan class="cls-3" x="9.05" y="64.8">o</tspan><tspan x="19.04" y="64.8">n</tspan><tspan class="cls-16" x="28.69" y="64.8">t</tspan><tspan x="34.66" y="64.8">e </tspan><tspan class="cls-19" x="49.03" y="64.8">c</tspan><tspan class="cls-3" x="58.09" y="64.8">o</tspan><tspan x="68.08" y="64.8">m a </tspan><tspan class="cls-5" x="103.17" y="64.8">i</tspan><tspan class="cls-18" x="106.56" y="64.8">n</tspan><tspan class="cls-17" x="116.03" y="64.8">d</tspan><tspan class="cls-3" x="126.79" y="64.8">e</tspan><tspan x="136.75" y="64.8">ni</tspan><tspan class="cls-3" x="149.82" y="64.8">z</tspan><tspan class="cls-15" x="158.86" y="64.8">a</tspan><tspan class="cls-19" x="169.14" y="64.8">ç</tspan><tspan class="cls-15" x="178.19" y="64.8">ã</tspan><tspan x="188.47" y="64.8">o </tspan><tspan class="cls-11" x="202.87" y="64.8">i</tspan><tspan x="206.26" y="64.8">n</tspan><tspan class="cls-16" x="215.91" y="64.8">t</tspan><tspan class="cls-15" x="221.88" y="64.8">e</tspan><tspan x="231.75" y="64.8">g</tspan><tspan class="cls-6" x="242.32" y="64.8">r</tspan><tspan class="cls-7" x="248.16" y="64.8">a</tspan><tspan x="258.73" y="64.8">l </tspan></tspan><tspan class="cls-21"><tspan class="cls-15" x="0" y="86.4">o</tspan><tspan x="9.9" y="86.4">u </tspan><tspan class="cls-18" x="23.51" y="86.4">p</tspan><tspan x="34.15" y="86.4">a</tspan><tspan class="cls-6" x="44.6" y="86.4">r</tspan><tspan class="cls-20" x="50.44" y="86.4">c</tspan><tspan class="cls-3" x="59.45" y="86.4">i</tspan><tspan class="cls-7" x="62.78" y="86.4">a</tspan><tspan x="73.36" y="86.4">l </tspan><tspan class="cls-17" x="81.1" y="86.4">d</tspan><tspan x="91.86" y="86.4">o </tspan><tspan class="cls-3" x="106.26" y="86.4">p</tspan><tspan class="cls-12" x="116.99" y="86.4">r</tspan><tspan class="cls-18" x="122.82" y="86.4">e</tspan><tspan class="cls-19" x="132.7" y="86.4">j</tspan><tspan x="136.55" y="86.4">uí</tspan><tspan class="cls-3" x="149.26" y="86.4">z</tspan><tspan class="cls-15" x="158.29" y="86.4">o</tspan><tspan x="168.19" y="86.4">.</tspan></tspan></text>
</svg>