<?xml version="1.0" encoding="UTF-8"?>
<svg id="Layer_1" data-name="Layer 1" xmlns="http://www.w3.org/2000/svg" viewBox="0 0 366.28 305.38">
  <defs>
    <style>
      .cls-1 {
        letter-spacing: 0em;
      }

      .cls-2 {
        letter-spacing: -.04em;
      }

      .cls-3 {
        letter-spacing: 0em;
      }

      .cls-4 {
        fill: #fff;
      }

      .cls-5 {
        letter-spacing: -.02em;
      }

      .cls-6 {
        letter-spacing: 0em;
      }

      .cls-7 {
        letter-spacing: -.03em;
      }

      .cls-8 {
        letter-spacing: -.03em;
      }

      .cls-9 {
        font-family: UrbanistRoman-Bold, Urbanist;
        font-size: 23.99px;
        font-variation-settings: 'wght' 700;
        font-weight: 700;
      }

      .cls-10 {
        letter-spacing: -.04em;
      }

      .cls-11 {
        letter-spacing: -.02em;
      }

      .cls-12 {
        letter-spacing: 0em;
      }

      .cls-13 {
        letter-spacing: 0em;
      }

      .cls-14 {
        letter-spacing: -.01em;
      }

      .cls-15 {
        letter-spacing: 0em;
      }

      .cls-16 {
        letter-spacing: 0em;
      }

      .cls-17 {
        font-family: Urbanist-Regular, Urbanist;
        font-size: 18px;
        font-variation-settings: 'wght' 400;
      }

      .cls-18 {
        fill: #130044;
      }

      .cls-19 {
        letter-spacing: -.01em;
      }
    </style>
  </defs>
  <rect class="cls-18" x="0" y="0" width="366.28" height="305.38" rx="29.13" ry="29.13"/>
  <g>
    <path class="cls-4" d="M66.81,38.65c-.87-2.27-2.29-4.1-4.1-5.31-2.02-1.36-4.42-1.66-6.75-.86-2.07.72-3.9,2.24-5,4.18-.65,1.13-2.2,1.77-3.46,1.91-1.36.15-2.63-.91-3.23-1.94-1.08-1.87-3-3.42-5.13-4.15-2.33-.79-4.73-.47-6.74.9-2.14,1.45-3.78,3.9-4.5,6.72-.79,3.11.07,5.81.98,8.67l.03.1c1.8,5.64,3.34,11.51,4.83,17.18.72,2.75,1.47,5.6,2.24,8.39.01.04.03.09.05.13.08.16.15.33.23.5.54,1.21,1.22,2.71,2.87,3.07,1.02.22,1.93.03,2.71-.56,2.52-1.92,2.84-7.65,3.04-11.44.05-.84.09-1.57.14-2,.17-1.31,1.91-1.38,2.43-1.37.82.01,2.76.17,2.93,1.41.06.44.1,1.18.15,2.04.22,3.78.55,9.49,3.07,11.39.56.43,1.2.64,1.89.64.26,0,.54-.03.82-.09,1.64-.37,2.29-1.86,2.81-3.05.08-.18.16-.36.24-.54.02-.04.04-.08.05-.13.76-2.84,1.5-5.74,2.22-8.55l.76-2.96c.1-.41-.15-.83-.56-.94-.41-.11-.84.14-.94.56l-.76,2.96c-.71,2.78-1.44,5.66-2.2,8.47-.08.16-.15.34-.23.51-.52,1.19-.92,1.98-1.73,2.16-.57.13-1.02.04-1.44-.27-1.95-1.47-2.28-7.18-2.46-10.24-.05-.93-.1-1.66-.17-2.16-.24-1.71-1.86-2.71-4.44-2.75-2.22-.01-3.76,1.01-3.98,2.72-.06.49-.1,1.21-.15,2.12-.17,3.08-.48,8.81-2.44,10.3-.41.31-.87.4-1.44.28-.89-.19-1.35-1.21-1.79-2.19-.07-.16-.14-.32-.21-.47-.76-2.75-1.5-5.58-2.21-8.3-1.49-5.69-3.04-11.58-4.85-17.26l-.03-.1c-.88-2.76-1.64-5.14-.96-7.82.62-2.46,2.04-4.58,3.87-5.83,1.61-1.09,3.52-1.34,5.38-.71,1.78.6,3.38,1.9,4.29,3.45.87,1.51,2.66,2.92,4.73,2.71,1.6-.17,3.66-.96,4.64-2.68.92-1.62,2.44-2.88,4.16-3.48,1.86-.64,3.77-.4,5.38.68,1.52,1.02,2.77,2.65,3.51,4.58.15.4.6.6,1,.44.4-.15.6-.6.44-1Z"/>
    <path class="cls-4" d="M63.95,41.24c-5.41,0-9.81,4.4-9.81,9.81s4.4,9.81,9.81,9.81,9.81-4.4,9.81-9.81c0-5.41-4.4-9.81-9.81-9.81ZM63.95,59.31c-4.55,0-8.26-3.71-8.26-8.26s3.71-8.26,8.26-8.26,8.26,3.71,8.26,8.26-3.71,8.26-8.26,8.26Z"/>
    <path class="cls-4" d="M68.63,47.54c-.36-.23-.84-.13-1.07.22l-4.01,6.13-2.3-2.62c-.28-.32-.77-.35-1.09-.07-.32.28-.35.77-.07,1.09l2.98,3.39c.15.17.36.26.58.26.02,0,.04,0,.05,0,.24-.02.46-.15.59-.35l4.57-6.98c.23-.36.13-.84-.22-1.07Z"/>
    <path class="cls-4" d="M73.4,72.01l-2.41-1.32-1.32-2.42c-.14-.25-.4-.4-.68-.4s-.54.15-.68.4l-1.32,2.42-2.41,1.32c-.25.14-.4.4-.4.68s.15.54.4.68l2.41,1.32,1.32,2.42c.14.25.4.4.68.4s.54-.15.68-.4l1.32-2.42,2.41-1.32c.25-.14.4-.4.4-.68s-.15-.54-.4-.68ZM70.04,73.44c-.13.07-.24.18-.31.31l-.75,1.37-.75-1.37c-.07-.13-.18-.24-.31-.31l-1.37-.75,1.37-.75c.13-.07.24-.18.31-.31l.75-1.37.75,1.37c.07.13.18.24.31.31l1.37.75-1.37.75Z"/>
    <path class="cls-4" d="M43.25,46.49l-2.41-1.32-1.32-2.42c-.27-.5-1.09-.5-1.36,0l-1.32,2.42-2.42,1.32c-.25.14-.4.4-.4.68s.15.54.4.68l2.42,1.32,1.32,2.42c.14.25.4.4.68.4s.54-.15.68-.4l1.32-2.42,2.42-1.32c.25-.14.4-.4.4-.68,0-.28-.15-.54-.4-.68ZM39.89,47.92c-.13.07-.24.18-.31.31l-.75,1.37-.75-1.37c-.07-.13-.18-.24-.31-.31l-1.37-.75,1.37-.75c.13-.07.24-.18.31-.31l.75-1.37.75,1.37c.07.13.18.24.31.31l1.37.75-1.37.75Z"/>
  </g>
  <text class="cls-4" transform="translate(27.59 119.7)"><tspan class="cls-9"><tspan class="cls-2" x="0" y="0">R</tspan><tspan class="cls-1" x="13.54" y="0">e</tspan><tspan x="26.78" y="0">s</tspan><tspan class="cls-19" x="37.2" y="0">t</tspan><tspan x="45.53" y="0">au</tspan><tspan class="cls-10" x="72.8" y="0">r</tspan><tspan class="cls-12" x="81.13" y="0">a</tspan><tspan class="cls-11" x="95.26" y="0">ç</tspan><tspan class="cls-12" x="107.12" y="0">õ</tspan><tspan class="cls-1" x="120.32" y="0">e</tspan><tspan x="133.56" y="0">s</tspan></tspan><tspan class="cls-17"><tspan class="cls-5" x="0" y="43.2">R</tspan><tspan class="cls-15" x="9.7" y="43.2">e</tspan><tspan x="19.69" y="43.2">s</tspan><tspan class="cls-14" x="27.42" y="43.2">t</tspan><tspan x="33.39" y="43.2">au</tspan><tspan class="cls-7" x="53.14" y="43.2">r</tspan><tspan class="cls-13" x="58.97" y="43.2">a</tspan><tspan class="cls-16" x="69.25" y="43.2">ç</tspan><tspan class="cls-13" x="78.3" y="43.2">õ</tspan><tspan class="cls-15" x="88.2" y="43.2">e</tspan><tspan x="98.19" y="43.2">s d</tspan><tspan class="cls-16" x="121.07" y="43.2">i</tspan><tspan class="cls-8" x="124.37" y="43.2">v</tspan><tspan class="cls-3" x="133.15" y="43.2">e</tspan><tspan class="cls-16" x="143.11" y="43.2">r</tspan><tspan class="cls-15" x="149.43" y="43.2">s</tspan><tspan x="157.1" y="43.2">a</tspan><tspan class="cls-6" x="167.55" y="43.2">s</tspan><tspan x="175.26" y="43.2">.</tspan></tspan></text>
</svg>