<?xml version="1.0" encoding="UTF-8"?>
<svg id="Layer_1" data-name="Layer 1" xmlns="http://www.w3.org/2000/svg" viewBox="0 0 366.28 305.38">
  <defs>
    <style>
      .cls-1 {
        letter-spacing: 0em;
      }

      .cls-2 {
        letter-spacing: -.04em;
      }

      .cls-3 {
        letter-spacing: -.02em;
      }

      .cls-4 {
        letter-spacing: 0em;
      }

      .cls-5 {
        letter-spacing: 0em;
      }

      .cls-6 {
        fill: #fff;
      }

      .cls-7 {
        letter-spacing: -.01em;
      }

      .cls-8 {
        letter-spacing: 0em;
      }

      .cls-9 {
        font-family: UrbanistRoman-Bold, Urbanist;
        font-size: 20px;
        font-variation-settings: 'wght' 700;
        font-weight: 700;
      }

      .cls-10 {
        letter-spacing: 0em;
      }

      .cls-11 {
        letter-spacing: -.03em;
      }

      .cls-12 {
        letter-spacing: -.01em;
      }

      .cls-13 {
        letter-spacing: -.01em;
      }

      .cls-14 {
        letter-spacing: -.02em;
      }

      .cls-15 {
        letter-spacing: 0em;
      }

      .cls-16 {
        letter-spacing: 0em;
      }

      .cls-17 {
        letter-spacing: -.03em;
      }

      .cls-18 {
        letter-spacing: -.01em;
      }

      .cls-19 {
        letter-spacing: 0em;
      }

      .cls-20 {
        letter-spacing: 0em;
      }

      .cls-21 {
        letter-spacing: -.01em;
      }

      .cls-22 {
        letter-spacing: 0em;
      }

      .cls-23 {
        letter-spacing: 0em;
      }

      .cls-24 {
        letter-spacing: 0em;
      }

      .cls-25 {
        font-family: Urbanist-Regular, Urbanist;
        font-size: 18px;
        font-variation-settings: 'wght' 400;
      }

      .cls-26 {
        letter-spacing: 0em;
      }

      .cls-27 {
        fill: #130044;
      }
    </style>
  </defs>
  <rect class="cls-27" x="0" y="0" width="366.28" height="305.38" rx="29.13" ry="29.13"/>
  <path class="cls-6" d="M44.42,48.25c2.36-1.59,3.91-4.29,3.91-7.35,0-4.89-3.97-8.86-8.86-8.86s-8.86,3.97-8.86,8.86c0,3.06,1.55,5.76,3.91,7.35-4.09,1.88-6.93,6.01-6.93,10.8v16.36c3.57,1.8,7.61,2.82,11.88,2.82s8.31-1.02,11.88-2.82v-16.36c0-4.79-2.84-8.92-6.93-10.8ZM33.25,40.9c0-3.44,2.79-6.22,6.22-6.22s6.22,2.79,6.22,6.22-2.79,6.22-6.22,6.22-6.22-2.79-6.22-6.22ZM35.09,59.16l3.57,11.42h-3.57v-11.42ZM32.39,53.11v10.15h-2.16v-4.21c0-2.26.81-4.33,2.16-5.94ZM32.39,65.95v4.63h-2.1v-4.63h2.1ZM48.71,73.73c-2.84,1.2-5.96,1.86-9.24,1.86s-6.4-.66-9.24-1.86v-.46h10.68c2.75,0,4.99-2.24,4.99-4.99v-.03c0-2.75-2.24-4.99-4.99-4.99h-1.72l-3.9-12.45c1.25-.64,2.67-1,4.18-1,5.1,0,9.24,4.14,9.24,9.24v14.68ZM40.03,65.95h.88c1.27,0,2.3,1.03,2.3,2.3v.03c0,1.08-.74,1.98-1.75,2.23l-1.43-4.56Z"/>
  <text class="cls-6" transform="translate(27.59 116.71)"><tspan class="cls-9"><tspan x="0" y="0">I</tspan><tspan class="cls-16" x="5.44" y="0">n</tspan><tspan class="cls-3" x="16.4" y="0">c</tspan><tspan x="26.29" y="0">a</tspan><tspan class="cls-16" x="38.27" y="0">pa</tspan><tspan class="cls-14" x="62.23" y="0">c</tspan><tspan class="cls-7" x="72.05" y="0">i</tspan><tspan class="cls-19" x="76.66" y="0">d</tspan><tspan class="cls-16" x="88.91" y="0">a</tspan><tspan class="cls-19" x="100.69" y="0">d</tspan><tspan x="112.94" y="0">e </tspan><tspan class="cls-19" x="128.93" y="0">fí</tspan><tspan class="cls-13" x="140.76" y="0">si</tspan><tspan class="cls-3" x="153.83" y="0">c</tspan><tspan x="163.72" y="0">a </tspan></tspan><tspan class="cls-9"><tspan class="cls-18" x="0" y="24">t</tspan><tspan class="cls-13" x="6.94" y="24">e</tspan><tspan x="17.9" y="24">m</tspan><tspan class="cls-16" x="35.67" y="24">p</tspan><tspan class="cls-13" x="47.85" y="24">o</tspan><tspan class="cls-2" x="58.82" y="24">r</tspan><tspan x="65.77" y="24">á</tspan><tspan class="cls-3" x="77.75" y="24">r</tspan><tspan class="cls-7" x="85.14" y="24">i</tspan><tspan x="89.75" y="24">a</tspan></tspan><tspan class="cls-25"><tspan class="cls-17" x="0" y="67.2">C</tspan><tspan class="cls-23" x="12.13" y="67.2">o</tspan><tspan class="cls-21" x="22.06" y="67.2">b</tspan><tspan class="cls-5" x="32.71" y="67.2">e</tspan><tspan class="cls-24" x="42.67" y="67.2">rtu</tspan><tspan class="cls-11" x="64.6" y="67.2">r</tspan><tspan x="70.43" y="67.2">a </tspan><tspan class="cls-21" x="85.21" y="67.2">a</tspan><tspan x="95.49" y="67.2">d</tspan><tspan class="cls-5" x="106.32" y="67.2">i</tspan><tspan class="cls-23" x="109.65" y="67.2">c</tspan><tspan class="cls-5" x="118.66" y="67.2">io</tspan><tspan class="cls-15" x="131.98" y="67.2">n</tspan><tspan class="cls-10" x="141.45" y="67.2">a</tspan><tspan x="152.03" y="67.2">l: </tspan><tspan class="cls-21" x="163.01" y="67.2">pa</tspan><tspan class="cls-5" x="183.92" y="67.2">g</tspan><tspan x="194.41" y="67.2">a</tspan><tspan class="cls-15" x="204.87" y="67.2">m</tspan><tspan class="cls-5" x="220.68" y="67.2">e</tspan><tspan x="230.64" y="67.2">n</tspan><tspan class="cls-12" x="240.29" y="67.2">t</tspan><tspan x="246.26" y="67.2">o </tspan></tspan><tspan class="cls-25"><tspan class="cls-20" x="0" y="88.8">d</tspan><tspan x="10.76" y="88.8">e d</tspan><tspan class="cls-5" x="35.96" y="88.8">i</tspan><tspan x="39.29" y="88.8">á</tspan><tspan class="cls-22" x="49.75" y="88.8">r</tspan><tspan class="cls-5" x="56.07" y="88.8">i</tspan><tspan x="59.4" y="88.8">as </tspan><tspan class="cls-5" x="81.91" y="88.8">e</tspan><tspan x="91.87" y="88.8">m </tspan><tspan class="cls-22" x="112.18" y="88.8">c</tspan><tspan x="121.24" y="88.8">a</tspan><tspan class="cls-20" x="131.7" y="88.8">s</tspan><tspan x="139.36" y="88.8">o </tspan><tspan class="cls-4" x="153.76" y="88.8">d</tspan><tspan x="164.53" y="88.8">e </tspan></tspan><tspan class="cls-25"><tspan class="cls-8" x="0" y="110.4">i</tspan><tspan class="cls-21" x="3.39" y="110.4">n</tspan><tspan class="cls-22" x="12.86" y="110.4">c</tspan><tspan x="21.92" y="110.4">a</tspan><tspan class="cls-15" x="32.37" y="110.4">pa</tspan><tspan class="cls-23" x="53.29" y="110.4">c</tspan><tspan class="cls-5" x="62.31" y="110.4">i</tspan><tspan class="cls-20" x="65.64" y="110.4">d</tspan><tspan class="cls-15" x="76.4" y="110.4">a</tspan><tspan class="cls-20" x="86.68" y="110.4">d</tspan><tspan x="97.44" y="110.4">e </tspan><tspan class="cls-20" x="111.82" y="110.4">fí</tspan><tspan class="cls-5" x="121.11" y="110.4">si</tspan><tspan class="cls-22" x="132.08" y="110.4">c</tspan><tspan x="141.14" y="110.4">a </tspan><tspan class="cls-22" x="155.92" y="110.4">c</tspan><tspan x="164.97" y="110.4">au</tspan><tspan class="cls-20" x="184.72" y="110.4">s</tspan><tspan class="cls-21" x="192.38" y="110.4">a</tspan><tspan class="cls-4" x="202.66" y="110.4">d</tspan><tspan x="213.43" y="110.4">a </tspan><tspan class="cls-15" x="228.2" y="110.4">p</tspan><tspan class="cls-5" x="238.84" y="110.4">o</tspan><tspan x="248.83" y="110.4">r </tspan></tspan><tspan class="cls-25"><tspan class="cls-15" x="0" y="132">a</tspan><tspan class="cls-1" x="10.28" y="132">c</tspan><tspan class="cls-5" x="19.3" y="132">i</tspan><tspan class="cls-20" x="22.63" y="132">d</tspan><tspan class="cls-26" x="33.39" y="132">e</tspan><tspan x="43.35" y="132">n</tspan><tspan class="cls-12" x="53" y="132">t</tspan><tspan class="cls-15" x="58.97" y="132">e</tspan><tspan x="68.84" y="132">.</tspan></tspan></text>
</svg>