<?xml version="1.0" encoding="UTF-8"?>
<svg id="Layer_1" data-name="Layer 1" xmlns="http://www.w3.org/2000/svg" viewBox="0 0 366.28 305.38">
  <defs>
    <style>
      .cls-1 {
        letter-spacing: 0em;
      }

      .cls-2 {
        letter-spacing: -.01em;
      }

      .cls-3 {
        letter-spacing: -.02em;
      }

      .cls-4 {
        font-family: UrbanistRoman-Bold, Urbanist;
        font-size: 23.99px;
        font-variation-settings: 'wght' 700;
        font-weight: 700;
      }

      .cls-4, .cls-5 {
        fill: #130044;
      }

      .cls-6 {
        letter-spacing: -.01em;
      }

      .cls-7 {
        letter-spacing: -.02em;
      }
    </style>
  </defs>
  <path class="cls-5" d="M337.15,8.99c11.1,0,20.14,9.03,20.14,20.14v247.12c0,11.1-9.03,20.14-20.14,20.14H29.13c-11.1,0-20.14-9.03-20.14-20.14V29.13c0-11.1,9.03-20.14,20.14-20.14h308.02M337.15,0H29.13C13.11,0,0,13.11,0,29.13v247.12C0,292.27,13.11,305.38,29.13,305.38h308.02c16.02,0,29.13-13.11,29.13-29.13V29.13C366.28,13.11,353.18,0,337.15,0h0Z"/>
  <text class="cls-4" transform="translate(27.59 274.19)"><tspan class="cls-7" x="0" y="0">S</tspan><tspan class="cls-6" x="14.61" y="0">e</tspan><tspan x="27.75" y="0">r</tspan><tspan class="cls-7" x="36.99" y="0">v</tspan><tspan class="cls-2" x="50.56" y="0">i</tspan><tspan class="cls-3" x="56.09" y="0">ç</tspan><tspan class="cls-1" x="67.95" y="0">o</tspan><tspan x="81.21" y="0">s</tspan></text>
  <polygon class="cls-5" points="338.69 262.6 330.04 262.6 330.04 253.95 324.38 253.95 324.38 262.6 315.73 262.6 315.73 268.27 324.38 268.27 324.38 276.92 330.04 276.92 330.04 268.27 338.69 268.27 338.69 262.6"/>
  <g>
    <path class="cls-5" d="M44.81,67.04h-2.02l-3.3-4.79s-.01-.02-.02-.02c-.01-.01-.02-.03-.03-.04-.01-.01-.02-.02-.03-.03,0,0-.02-.02-.02-.03-.01-.01-.03-.02-.04-.04,0,0-.01-.01-.02-.02-.01-.01-.03-.02-.04-.03,0,0-.02-.01-.03-.02-.01,0-.03-.02-.04-.03-.01,0-.02-.01-.03-.02-.01,0-.03-.01-.04-.02-.01,0-.03-.01-.04-.02-.01,0-.02,0-.03-.01-.01,0-.03-.01-.05-.02-.01,0-.02,0-.03,0-.02,0-.03,0-.05-.01-.01,0-.03,0-.04,0-.01,0-.03,0-.04,0-.02,0-.04,0-.06,0,0,0-.02,0-.03,0h-1.83s-.02,0-.03,0c-.02,0-.03,0-.05,0-.02,0-.04,0-.05,0,0,0-.02,0-.03,0,0,0,0,0,0,0-.02,0-.04,0-.06.01,0,0-.02,0-.02,0-.02,0-.04.01-.05.02,0,0-.02,0-.03.01-.01,0-.03.01-.04.02-.01,0-.03.01-.04.02,0,0-.01,0-.02.01-.02.01-.04.02-.05.03,0,0,0,0,0,0-.04.03-.09.07-.12.1,0,0,0,0,0,0-.02.02-.04.04-.05.06-.01.01-.02.03-.03.04,0,0-.01.02-.02.03-.01.02-.03.04-.04.06,0,0,0,0,0,0-.01.02-.02.04-.03.06,0,0,0,0,0,.01,0,.02-.01.03-.02.05,0,.01,0,.02-.01.03,0,.01,0,.02,0,.04,0,.02,0,.03-.01.05,0,0,0,.02,0,.02,0,.02,0,.04,0,.06,0,0,0,.01,0,.02,0,.02,0,.04,0,.07,0,0,0,0,0,0,0,0,0,.02,0,.03,0,.02,0,.04,0,.06,0,.02,0,.03,0,.05,0,0,0,.02,0,.03h0s0,.01,0,.01l.79,4.13h-2.07l-1.47-1.47s-.01-.01-.02-.02c-.01-.01-.03-.03-.04-.04-.01,0-.02-.02-.03-.03-.01,0-.02-.02-.03-.02-.01,0-.03-.02-.04-.02-.01,0-.02-.01-.03-.02-.01,0-.03-.01-.04-.02-.01,0-.02-.01-.04-.02-.01,0-.02,0-.04-.01-.01,0-.03-.01-.04-.02-.01,0-.02,0-.04,0-.02,0-.03,0-.05-.01-.01,0-.03,0-.04,0-.01,0-.03,0-.04,0-.02,0-.04,0-.07,0,0,0-.01,0-.02,0s-.01,0-.02,0c-.02,0-.04,0-.07,0-.01,0-.03,0-.04,0-.01,0-.03,0-.04,0-.02,0-.03,0-.05.01-.01,0-.02,0-.04,0-.01,0-.03,0-.04.02-.01,0-.02,0-.04.01-.01,0-.03.01-.04.02-.01,0-.03.01-.04.02-.01,0-.02.01-.03.02-.01,0-.03.02-.04.02-.01,0-.02.02-.03.02-.01,0-.02.02-.03.03-.02.01-.03.03-.04.04,0,0-.01.01-.02.02,0,0-.01.01-.02.02-.01.01-.03.03-.04.04,0,.01-.02.02-.03.04,0,.01-.02.02-.02.03,0,.01-.02.03-.03.04,0,.01-.01.02-.02.03,0,.01-.01.03-.02.04,0,.01-.01.02-.02.03,0,.01-.01.03-.02.04,0,.01,0,.03-.01.04,0,.01,0,.03-.01.04,0,.01,0,.03,0,.04,0,.02,0,.03,0,.05,0,.01,0,.02,0,.03,0,.03,0,.06,0,.09v3.44s0,.03,0,.05c-.02.24.07.48.25.66.17.17.39.25.61.25s.44-.08.61-.25l1.58-1.58h1.96l-.79,4.13s0,0,0,0h0s0,.03,0,.04c0,.02,0,.03,0,.05,0,.02,0,.04,0,.06,0,0,0,.02,0,.03,0,0,0,0,0,0,0,.02,0,.04,0,.07,0,0,0,.01,0,.02,0,.02,0,.04,0,.06,0,0,0,.02,0,.02,0,.02,0,.03.01.05,0,.01,0,.02,0,.04,0,.01,0,.02.01.03,0,.02.01.03.02.05,0,0,0,0,0,.01,0,.02.02.04.03.06,0,0,0,0,0,0,.01.02.02.04.04.06,0,0,.01.02.02.03,0,.01.02.03.03.04.02.02.03.04.05.06,0,0,0,0,0,0,.04.04.08.07.12.1,0,0,0,0,0,0,.02.01.03.02.05.03,0,0,.01,0,.02.01.01,0,.03.01.04.02.01,0,.03.01.04.02,0,0,.02,0,.03.01.02,0,.04.01.05.02,0,0,.02,0,.02,0,.02,0,.04.01.06.01,0,0,0,0,0,0,.01,0,.03,0,.04,0,.01,0,.03,0,.04,0,.03,0,.06,0,.09,0,0,0,0,0,0,0h1.82s0,0,0,0c0,0,0,0,0,0,.03,0,.06,0,.09,0,0,0,.02,0,.03,0,.02,0,.05,0,.07-.01,0,0,.02,0,.03,0,.02,0,.04-.01.07-.02,0,0,.02,0,.03-.01.02,0,.04-.02.06-.03,0,0,.02,0,.03-.01.03-.01.05-.03.08-.05,0,0,.01,0,.02-.01.02-.01.04-.03.06-.05,0,0,.02-.02.03-.02.02-.01.03-.03.04-.04,0,0,.02-.02.02-.03.02-.02.03-.04.05-.06,0,0,0,0,0-.01l3.3-4.79h2.02c.48,0,.86-.39.86-.86s-.39-.86-.86-.86ZM38,63.59h.34l2.37,3.44h-2.04l-.66-3.44ZM40.7,68.76l-2.37,3.44h-.34l.66-3.44h2.04Z"/>
    <path class="cls-5" d="M56.87,71.34h-6.89c-.48,0-.86.39-.86.86s.39.86.86.86h6.89c.48,0,.86-.39.86-.86s-.39-.86-.86-.86Z"/>
    <path class="cls-5" d="M56.87,67.04h-6.89c-.48,0-.86.39-.86.86s.39.86.86.86h6.89c.48,0,.86-.39.86-.86s-.39-.86-.86-.86Z"/>
    <path class="cls-5" d="M49.98,64.45h6.89c.48,0,.86-.39.86-.86s-.39-.86-.86-.86h-6.89c-.48,0-.86.39-.86.86s.39.86.86.86Z"/>
    <path class="cls-5" d="M66.34,66.18c-.48,0-.86.39-.86.86v6.03c0,.48.39.86.86.86s.86-.39.86-.86v-6.03c0-.48-.39-.86-.86-.86Z"/>
    <path class="cls-5" d="M66.34,61.87c-.48,0-.86.39-.86.86v.86c0,.48.39.86.86.86s.86-.39.86-.86v-.86c0-.48-.39-.86-.86-.86Z"/>
    <path class="cls-5" d="M71.51,48.09h-36.17c-2.37,0-4.31,1.93-4.31,4.31v5.25c-1.96.4-3.44,2.14-3.44,4.22v12.06c0,2.37,1.93,4.31,4.31,4.31h36.17c2.37,0,4.31-1.93,4.31-4.31v-5.25c1.96-.4,3.44-2.14,3.44-4.22v-12.06c0-2.37-1.93-4.31-4.31-4.31ZM29.31,73.93v-12.06c0-1.42,1.16-2.58,2.58-2.58h13.88s0,0,0,0c0,0,0,0,0,0h15.39v17.22h-29.28c-1.42,0-2.58-1.16-2.58-2.58ZM41.44,54.12h.34l2.37,3.44h-2.04l-.66-3.44ZM70.65,73.93c0,1.42-1.16,2.58-2.58,2.58h-5.17v-17.22h5.17c1.42,0,2.58,1.16,2.58,2.58v12.06ZM74.09,64.45c0,1.12-.72,2.08-1.72,2.44v-5.02c0-1.41-.68-2.66-1.72-3.44v-.86c0-.48-.39-.86-.86-.86s-.86.39-.86.86v.09c-.28-.06-.57-.09-.86-.09h-21.83l-3.3-4.79s-.01-.02-.02-.02c-.01-.01-.02-.03-.03-.04-.01-.01-.02-.02-.03-.03,0,0-.02-.02-.03-.03-.01-.01-.03-.02-.04-.03,0,0-.02-.01-.02-.02-.01-.01-.03-.02-.04-.03,0,0-.02-.01-.03-.02-.01,0-.03-.02-.04-.02-.01,0-.02-.01-.03-.02-.01,0-.02-.01-.04-.02-.01,0-.03-.01-.04-.02-.01,0-.02,0-.03-.01-.02,0-.03-.01-.05-.02-.01,0-.02,0-.03,0-.02,0-.03,0-.05-.01-.01,0-.03,0-.04,0-.01,0-.03,0-.04,0-.02,0-.04,0-.05,0,0,0-.02,0-.03,0h-1.83s-.02,0-.03,0c-.02,0-.03,0-.05,0-.02,0-.04,0-.05,0,0,0-.02,0-.03,0,0,0,0,0,0,0-.02,0-.04,0-.06.01,0,0-.02,0-.02,0-.02,0-.04.01-.05.02,0,0-.02,0-.03.01-.01,0-.03.01-.04.02-.01,0-.03.01-.04.02,0,0-.01,0-.02.01-.02.01-.04.02-.05.03,0,0,0,0,0,0-.04.03-.09.07-.12.1,0,0,0,0,0,0-.02.02-.04.04-.05.06-.01.01-.02.03-.03.04,0,0-.01.02-.02.03-.01.02-.03.04-.04.06,0,0,0,0,0,0-.01.02-.02.04-.03.06,0,0,0,0,0,.01,0,.02-.01.03-.02.05,0,.01,0,.02-.01.03,0,.01,0,.02,0,.04,0,.02,0,.03-.01.05,0,0,0,.02,0,.02,0,.02,0,.04,0,.06,0,0,0,.01,0,.02,0,.02,0,.04,0,.07,0,0,0,0,0,0,0,0,0,.02,0,.03,0,.02,0,.04,0,.06,0,.02,0,.03,0,.05,0,0,0,.02,0,.03h0s0,.01,0,.01l.79,4.13h-2.07l-1.47-1.47s-.01-.01-.02-.02c-.01-.01-.03-.03-.04-.04-.01,0-.02-.02-.03-.03-.01,0-.02-.02-.03-.02-.01,0-.03-.02-.04-.02-.01,0-.02-.01-.03-.02-.01,0-.03-.01-.04-.02-.01,0-.02-.01-.04-.02-.01,0-.02,0-.04-.01-.01,0-.03-.01-.04-.02-.01,0-.02,0-.04,0-.02,0-.03,0-.05-.01-.01,0-.03,0-.04,0-.01,0-.03,0-.04,0-.02,0-.04,0-.07,0,0,0-.01,0-.02,0s-.01,0-.02,0c-.02,0-.04,0-.07,0-.01,0-.03,0-.04,0-.01,0-.03,0-.04,0-.02,0-.03,0-.05.01-.01,0-.02,0-.04,0-.01,0-.03,0-.04.02-.01,0-.02,0-.04.01-.01,0-.03.01-.04.02-.01,0-.03.01-.04.02-.01,0-.02.01-.03.02-.01,0-.03.02-.04.02-.01,0-.02.02-.03.02-.01,0-.02.02-.03.03-.02.01-.03.03-.04.04,0,0-.01.01-.02.02,0,0-.01.01-.02.02-.01.01-.03.03-.04.04,0,.01-.02.02-.03.04,0,.01-.02.02-.02.03,0,.01-.02.03-.03.04,0,.01-.01.02-.02.03,0,.01-.01.03-.02.04,0,.01-.01.02-.02.03,0,.01-.01.03-.02.04,0,.01,0,.03-.01.04,0,.01,0,.03-.01.04,0,.01,0,.03,0,.04,0,.02,0,.03,0,.05,0,.01,0,.02,0,.03,0,.03,0,.06,0,.09v.86h-2.58v-5.17c0-1.42,1.16-2.58,2.58-2.58h29.28v5.17c0,.48.39.86.86.86s.86-.39.86-.86v-5.17h5.17c1.42,0,2.58,1.16,2.58,2.58v12.06Z"/>
    <path class="cls-5" d="M60.31,53.26h-6.89c-.48,0-.86.39-.86.86s.39.86.86.86h6.89c.48,0,.86-.39.86-.86s-.39-.86-.86-.86Z"/>
    <path class="cls-5" d="M69.79,52.4c-.48,0-.86.39-.86.86v.86c0,.48.39.86.86.86s.86-.39.86-.86v-.86c0-.48-.39-.86-.86-.86Z"/>
  </g>
</svg>