<?xml version="1.0" encoding="UTF-8"?>
<svg id="Layer_1" data-name="Layer 1" xmlns="http://www.w3.org/2000/svg" viewBox="0 0 366.28 305.38">
  <defs>
    <style>
      .cls-1 {
        letter-spacing: 0em;
      }

      .cls-2 {
        letter-spacing: 0em;
      }

      .cls-3 {
        letter-spacing: -.04em;
      }

      .cls-4 {
        letter-spacing: 0em;
      }

      .cls-5 {
        fill: #fff;
      }

      .cls-6 {
        letter-spacing: -.01em;
      }

      .cls-7 {
        letter-spacing: 0em;
      }

      .cls-8 {
        letter-spacing: -.03em;
      }

      .cls-9 {
        letter-spacing: 0em;
      }

      .cls-10 {
        letter-spacing: -.03em;
      }

      .cls-11 {
        letter-spacing: -.01em;
      }

      .cls-12 {
        letter-spacing: 0em;
      }

      .cls-13 {
        letter-spacing: 0em;
      }

      .cls-14 {
        font-family: UrbanistRoman-Bold, Urbanist;
        font-size: 23.99px;
        font-variation-settings: 'wght' 700;
        font-weight: 700;
      }

      .cls-15 {
        letter-spacing: -.01em;
      }

      .cls-16 {
        letter-spacing: 0em;
      }

      .cls-17 {
        letter-spacing: 0em;
      }

      .cls-18 {
        letter-spacing: -.01em;
      }

      .cls-19 {
        letter-spacing: 0em;
      }

      .cls-20 {
        letter-spacing: 0em;
      }

      .cls-21 {
        font-family: Urbanist-Regular, Urbanist;
        font-size: 18px;
        font-variation-settings: 'wght' 400;
      }

      .cls-22 {
        letter-spacing: 0em;
      }

      .cls-23 {
        letter-spacing: -.02em;
      }

      .cls-24 {
        fill: #130044;
      }
    </style>
  </defs>
  <rect class="cls-24" x="0" y="0" width="366.28" height="305.38" rx="29.13" ry="29.13"/>
  <g>
    <path class="cls-5" d="M74.5,32.04h-39.91c-3.86,0-6.99,3.14-6.99,6.99v32.21c0,3.86,3.14,6.99,6.99,6.99h39.91c3.86,0,6.99-3.14,6.99-6.99v-32.21c0-3.86-3.14-6.99-6.99-6.99ZM79.38,71.24c0,2.69-2.19,4.89-4.89,4.89h-39.91c-2.69,0-4.89-2.19-4.89-4.89v-32.21c0-2.69,2.19-4.89,4.89-4.89h39.91c2.69,0,4.89,2.19,4.89,4.89v32.21h0Z"/>
    <path class="cls-5" d="M32.48,38.67c-.58,0-1.05.47-1.05,1.05v5.78c0,.58.47,1.05,1.05,1.05s1.05-.47,1.05-1.05v-5.78c0-.58-.47-1.05-1.05-1.05Z"/>
    <path class="cls-5" d="M32.48,49.08c-.58,0-1.05.47-1.05,1.05v20.21c0,.58.47,1.05,1.05,1.05s1.05-.47,1.05-1.05v-20.21c0-.58-.47-1.05-1.05-1.05Z"/>
    <path class="cls-5" d="M43.28,36.93c0-.58-.47-1.05-1.05-1.05h-6.95c-.58,0-1.05.47-1.05,1.05s.47,1.05,1.05,1.05h6.95c.58,0,1.05-.47,1.05-1.05Z"/>
    <path class="cls-5" d="M65.74,48.39h-4.46v-4.46c0-1.36-1.11-2.47-2.47-2.47h-8.53c-1.36,0-2.47,1.11-2.47,2.47v4.46h-4.46c-1.36,0-2.47,1.11-2.47,2.47v8.53c0,1.36,1.11,2.47,2.47,2.47h4.46v4.46c0,1.36,1.11,2.47,2.47,2.47h8.53c1.36,0,2.47-1.11,2.47-2.47v-4.46h4.46c1.36,0,2.47-1.11,2.47-2.47v-8.53c0-1.36-1.11-2.47-2.47-2.47ZM66.11,59.4c0,.2-.17.37-.37.37h-5.51c-.58,0-1.05.47-1.05,1.05v5.51c0,.2-.17.37-.37.37h-8.53c-.2,0-.37-.17-.37-.37v-5.51c0-.58-.47-1.05-1.05-1.05h-5.51c-.2,0-.37-.17-.37-.37v-8.53c0-.2.17-.37.37-.37h5.51c.58,0,1.05-.47,1.05-1.05v-5.51c0-.2.17-.37.37-.37h8.53c.2,0,.37.17.37.37v5.51c0,.58.47,1.05,1.05,1.05h5.51c.2,0,.37.17.37.37v8.53Z"/>
  </g>
  <text class="cls-5" transform="translate(27.59 119.7)"><tspan class="cls-14"><tspan class="cls-23" x="0" y="0">C</tspan><tspan class="cls-16" x="16.55" y="0">i</tspan><tspan class="cls-12" x="22.26" y="0">r</tspan><tspan x="31.25" y="0">u</tspan><tspan class="cls-3" x="44.16" y="0">r</tspan><tspan class="cls-6" x="52.5" y="0">gi</tspan><tspan x="72.45" y="0">a</tspan></tspan><tspan class="cls-21"><tspan x="0" y="43.2">Em </tspan><tspan class="cls-19" x="29.96" y="43.2">c</tspan><tspan x="39.01" y="43.2">a</tspan><tspan class="cls-17" x="49.47" y="43.2">s</tspan><tspan x="57.14" y="43.2">o </tspan><tspan class="cls-17" x="71.54" y="43.2">d</tspan><tspan x="82.3" y="43.2">e </tspan><tspan class="cls-13" x="96.68" y="43.2">a</tspan><tspan class="cls-20" x="106.96" y="43.2">c</tspan><tspan class="cls-4" x="115.97" y="43.2">i</tspan><tspan class="cls-17" x="119.3" y="43.2">d</tspan><tspan class="cls-4" x="130.07" y="43.2">e</tspan><tspan x="140.03" y="43.2">n</tspan><tspan class="cls-15" x="149.68" y="43.2">t</tspan><tspan x="155.65" y="43.2">e </tspan><tspan class="cls-18" x="170.02" y="43.2">o</tspan><tspan x="179.92" y="43.2">u </tspan><tspan class="cls-17" x="193.53" y="43.2">d</tspan><tspan class="cls-13" x="204.29" y="43.2">o</tspan><tspan class="cls-4" x="214.19" y="43.2">e</tspan><tspan class="cls-13" x="224.15" y="43.2">n</tspan><tspan class="cls-19" x="233.62" y="43.2">ç</tspan><tspan x="242.67" y="43.2">a, o </tspan></tspan><tspan class="cls-21"><tspan class="cls-17" x="0" y="64.8">s</tspan><tspan class="cls-13" x="7.67" y="64.8">e</tspan><tspan class="cls-19" x="17.54" y="64.8">g</tspan><tspan x="28" y="64.8">u</tspan><tspan class="cls-8" x="37.29" y="64.8">r</tspan><tspan x="43.12" y="64.8">o </tspan><tspan class="cls-19" x="57.52" y="64.8">c</tspan><tspan class="cls-20" x="66.57" y="64.8">o</tspan><tspan class="cls-4" x="76.5" y="64.8">b</tspan><tspan class="cls-8" x="87.24" y="64.8">r</tspan><tspan class="cls-13" x="93.07" y="64.8">e</tspan><tspan x="102.94" y="64.8">, a</tspan><tspan class="cls-11" x="121.34" y="64.8">t</tspan><tspan x="127.3" y="64.8">é o </tspan><tspan class="cls-10" x="156.08" y="64.8">v</tspan><tspan class="cls-9" x="164.85" y="64.8">a</tspan><tspan class="cls-17" x="175.43" y="64.8">l</tspan><tspan class="cls-4" x="178.78" y="64.8">o</tspan><tspan x="188.77" y="64.8">r </tspan></tspan><tspan class="cls-21"><tspan class="cls-17" x="0" y="86.4">e</tspan><tspan x="9.99" y="86.4">s</tspan><tspan class="cls-17" x="17.72" y="86.4">ti</tspan><tspan class="cls-18" x="27.23" y="86.4">p</tspan><tspan class="cls-9" x="37.86" y="86.4">u</tspan><tspan class="cls-17" x="47.27" y="86.4">l</tspan><tspan class="cls-13" x="50.62" y="86.4">a</tspan><tspan class="cls-17" x="60.9" y="86.4">d</tspan><tspan x="71.67" y="86.4">o </tspan><tspan class="cls-4" x="86.07" y="86.4">e</tspan><tspan x="96.03" y="86.4">m a</tspan><tspan class="cls-13" x="126.8" y="86.4">p</tspan><tspan class="cls-1" x="137.44" y="86.4">ó</tspan><tspan x="147.36" y="86.4">l</tspan><tspan class="cls-22" x="150.78" y="86.4">i</tspan><tspan class="cls-2" x="154.12" y="86.4">c</tspan><tspan class="cls-13" x="163.17" y="86.4">e</tspan><tspan x="173.04" y="86.4">, as </tspan></tspan><tspan class="cls-21"><tspan class="cls-17" x="0" y="108">de</tspan><tspan x="20.75" y="108">s</tspan><tspan class="cls-13" x="28.48" y="108">p</tspan><tspan class="cls-17" x="39.12" y="108">es</tspan><tspan x="56.78" y="108">as </tspan><tspan class="cls-17" x="79.29" y="108">d</tspan><tspan x="90.05" y="108">e </tspan><tspan class="cls-1" x="104.43" y="108">c</tspan><tspan class="cls-7" x="113.44" y="108">i</tspan><tspan class="cls-13" x="116.84" y="108">r</tspan><tspan x="123.09" y="108">u</tspan><tspan class="cls-8" x="132.38" y="108">r</tspan><tspan class="cls-4" x="138.21" y="108">gi</tspan><tspan x="152.03" y="108">a </tspan><tspan class="cls-17" x="166.8" y="108">d</tspan><tspan x="177.57" y="108">o </tspan><tspan class="cls-17" x="191.97" y="108">s</tspan><tspan class="cls-13" x="199.64" y="108">e</tspan><tspan x="209.51" y="108">u </tspan><tspan class="cls-13" x="223.12" y="108">p</tspan><tspan class="cls-11" x="233.75" y="108">e</tspan><tspan class="cls-13" x="243.56" y="108">t</tspan><tspan x="249.59" y="108">.</tspan></tspan></text>
</svg>