<?xml version="1.0" encoding="UTF-8"?>
<svg id="Layer_1" data-name="Layer 1" xmlns="http://www.w3.org/2000/svg" viewBox="0 0 366.28 305.38">
  <defs>
    <style>
      .cls-1 {
        letter-spacing: -.04em;
      }

      .cls-2 {
        letter-spacing: 0em;
      }

      .cls-3 {
        letter-spacing: -.01em;
      }

      .cls-4 {
        letter-spacing: -.02em;
      }

      .cls-5 {
        letter-spacing: 0em;
      }

      .cls-6 {
        letter-spacing: -.02em;
      }

      .cls-7 {
        letter-spacing: -.04em;
      }

      .cls-8 {
        font-family: UrbanistRoman-Bold, Urbanist;
        font-size: 23.99px;
        font-variation-settings: 'wght' 700;
        font-weight: 700;
      }

      .cls-8, .cls-9 {
        fill: #130044;
      }

      .cls-10 {
        letter-spacing: -.08em;
      }
    </style>
  </defs>
  <path class="cls-9" d="M337.15,9c11.1,0,20.13,9.03,20.13,20.14v247.12c0,11.1-9.03,20.13-20.13,20.13H29.13c-11.1,0-20.13-9.03-20.13-20.13V29.13c0-11.1,9.03-20.14,20.13-20.14h308.02M337.15,0H29.13C13.11,0,0,13.11,0,29.13v247.12c0,16.02,13.11,29.13,29.13,29.13h308.02c16.02,0,29.13-13.11,29.13-29.13V29.13C366.28,13.11,353.18,0,337.15,0h0Z"/>
  <text class="cls-8" transform="translate(27.59 274.19)"><tspan class="cls-10" x="0" y="0">A</tspan><tspan class="cls-1" x="15.53" y="0">v</tspan><tspan x="28.63" y="0">a</tspan><tspan class="cls-4" x="43" y="0">r</tspan><tspan class="cls-3" x="51.86" y="0">i</tspan><tspan x="57.39" y="0">a </tspan><tspan class="cls-5" x="77.51" y="0">p</tspan><tspan x="92.12" y="0">a</tspan><tspan class="cls-7" x="106.49" y="0">r</tspan><tspan class="cls-6" x="114.82" y="0">c</tspan><tspan class="cls-3" x="126.6" y="0">i</tspan><tspan class="cls-2" x="132.13" y="0">a</tspan><tspan x="146.56" y="0">l</tspan></text>
  <polygon class="cls-9" points="338.69 262.6 330.04 262.6 330.04 253.95 324.38 253.95 324.38 262.6 315.73 262.6 315.73 268.27 324.38 268.27 324.38 276.92 330.04 276.92 330.04 268.27 338.69 268.27 338.69 262.6"/>
  <g>
    <path class="cls-9" d="M79.26,68.64c-.14-.27-.42-.43-.72-.43h-20.17v-4.37l2.35-2.35h15.03c.3,0,.58-.17.72-.44.14-.27.12-.59-.05-.84l-6.81-9.93-1.17,1.17h0s-8.4,8.4-8.4,8.4h0l-1.63,1.63h0l-.05.05h0s-1.63,1.62-1.63,1.62h0s-2.27,2.28-2.27,2.28c0,0,0,0,0,0l-1.63,1.63h0l-1.35,1.35s0,0,0,0l-1.44,1.44h0l-6.72,6.72h0l-1.63,1.63h31.27c.27,0,.53-.14.68-.36l5.57-8.35c.17-.25.18-.57.04-.84ZM69.38,52.83l4.82,7.03h-11.85l7.03-7.03ZM56.74,65.47v2.74h-1.66v-.4c0-.21-.01-.42-.04-.63l1.71-1.71ZM72.53,76.57h-26.89l7.8-7.8v.26c0,.45.37.82.82.82.05,0,.09,0,.13-.01.04,0,.09.01.13.01h22.49l-4.48,6.72Z"/>
    <path class="cls-9" d="M65.43,44.29l.05-.05-7.11-10.37v-1.06c0-.45-.37-.82-.82-.82s-.82.37-.82.82v5.5l-11.37,20.56c-.14.25-.14.56.01.81.15.25.41.4.7.4h1.33l-2.55,2.55h-1.72v-18.38h0v-.49c0-.45-.37-.82-.82-.82s-.82.37-.82.82v.24l-11,16.21c-.17.25-.19.57-.05.84s.42.43.72.43h8.35c.45,0,.82-.37.82-.82s-.37-.82-.82-.82h-6.82l8.78-12.95v15.73h-1.97c-.45,0-.82.37-.82.82v1.97h-4.75c-.45,0-.82.37-.82.82v1.97h-4.75c-.26,0-.51.13-.66.34-.15.21-.2.49-.11.74l2.79,8.35c.11.33.42.56.77.56h.33l.02-.02.05.05,33.89-33.89-.05-.05ZM31.57,75.94l-2.03-6.1h8.13l-6.1,6.1ZM39.3,68.21h-4.51v-1.15h4.75c.45,0,.82-.37.82-.82v-1.97h2.88l-3.94,3.94ZM56.74,50.78l-7.69,7.69h-1.58l9.27-16.76v9.08ZM58.37,49.14v-10.6h0v-1.78l5.04,7.34-5.04,5.04Z"/>
  </g>
</svg>