<?xml version="1.0" encoding="UTF-8"?>
<svg id="Layer_1" data-name="Layer 1" xmlns="http://www.w3.org/2000/svg" viewBox="0 0 366.28 305.38">
  <defs>
    <style>
      .cls-1 {
        letter-spacing: 0em;
      }

      .cls-2 {
        letter-spacing: 0em;
      }

      .cls-3 {
        fill: #fff;
      }

      .cls-4 {
        letter-spacing: -.01em;
      }

      .cls-5 {
        font-family: UrbanistRoman-Bold, Urbanist;
        font-size: 20px;
        font-variation-settings: 'wght' 700;
        font-weight: 700;
      }

      .cls-6 {
        letter-spacing: -.03em;
      }

      .cls-7 {
        letter-spacing: -.03em;
      }

      .cls-8 {
        letter-spacing: 0em;
      }

      .cls-9 {
        letter-spacing: 0em;
      }

      .cls-10 {
        letter-spacing: -.04em;
      }

      .cls-11 {
        letter-spacing: 0em;
      }

      .cls-12 {
        letter-spacing: -.04em;
      }

      .cls-13 {
        letter-spacing: -.01em;
      }

      .cls-14 {
        letter-spacing: 0em;
      }

      .cls-15 {
        letter-spacing: 0em;
      }

      .cls-16 {
        letter-spacing: -.01em;
      }

      .cls-17 {
        letter-spacing: 0em;
      }

      .cls-18 {
        letter-spacing: 0em;
      }

      .cls-19 {
        font-family: Urbanist-Regular, Urbanist;
        font-size: 18px;
        font-variation-settings: 'wght' 400;
      }

      .cls-20 {
        fill: #130044;
      }
    </style>
  </defs>
  <rect class="cls-20" x="0" y="0" width="366.28" height="305.38" rx="29.13" ry="29.13"/>
  <path class="cls-3" d="M39.13,52.82c-1.27,0-2.31,1.03-2.31,2.31s1.03,2.31,2.31,2.31,2.31-1.03,2.31-2.31-1.03-2.31-2.31-2.31ZM52.66,49.25h0l-16.51-16.53c-.91-.91-2.37-.91-3.28,0s-.91,2.37,0,3.28l3,2.98h-1.36c-3.82,0-6.93,3.1-6.93,6.93v18.47c0,3.82,3.1,6.93,6.93,6.93h33.68l6.23,6.26c.9.91,2.36.91,3.26.01,0,0,0,0,.01-.01.91-.9.91-2.36.01-3.26,0,0,0,0-.01-.01l-25.05-25.02ZM50.95,54.07l3.09,3.09c-.33.18-.69.27-1.06.28-1.27,0-2.31-1.03-2.31-2.31,0-.37.1-.74.28-1.06h0ZM34.52,66.68c-1.27,0-2.31-1.03-2.31-2.31v-18.47c0-1.27,1.03-2.31,2.31-2.31h5.98l7.16,7.16c-1.02,1.23-1.59,2.78-1.59,4.39,0,3.82,3.1,6.93,6.93,6.93,1.6,0,3.15-.57,4.39-1.59l6.21,6.21h-29.06ZM71.45,38.97h-16.94c-1.27,0-2.31,1.03-2.31,2.31s1.03,2.31,2.31,2.31h16.94c1.27,0,2.31,1.03,2.31,2.31v16.94c0,1.27,1.03,2.31,2.31,2.31s2.31-1.03,2.31-2.31v-16.94c0-3.82-3.1-6.93-6.93-6.93ZM69.14,55.13c0-1.27-1.03-2.31-2.31-2.31s-2.31,1.03-2.31,2.31,1.03,2.31,2.31,2.31,2.31-1.03,2.31-2.31Z"/>
  <text class="cls-3" transform="translate(27.59 116.71)"><tspan class="cls-5"><tspan class="cls-10" x="0" y="0">P</tspan><tspan class="cls-4" x="10.19" y="0">e</tspan><tspan class="cls-12" x="21.15" y="0">r</tspan><tspan class="cls-14" x="28.1" y="0">d</tspan><tspan x="40.35" y="0">a </tspan><tspan class="cls-14" x="57.13" y="0">d</tspan><tspan x="69.38" y="0">e </tspan><tspan class="cls-12" x="85.37" y="0">r</tspan><tspan class="cls-4" x="92.32" y="0">e</tspan><tspan class="cls-11" x="103.28" y="0">n</tspan><tspan class="cls-14" x="114.24" y="0">d</tspan><tspan x="126.49" y="0">a</tspan></tspan><tspan class="cls-19"><tspan class="cls-17" x="0" y="43.2">G</tspan><tspan x="13.71" y="43.2">a</tspan><tspan class="cls-6" x="24.17" y="43.2">r</tspan><tspan x="30" y="43.2">an</tspan><tspan class="cls-13" x="50.1" y="43.2">t</tspan><tspan x="56.07" y="43.2">e </tspan><tspan class="cls-9" x="70.44" y="43.2">a</tspan><tspan x="80.72" y="43.2">o </tspan><tspan class="cls-16" x="95.12" y="43.2">b</tspan><tspan class="cls-2" x="105.77" y="43.2">e</tspan><tspan class="cls-9" x="115.73" y="43.2">n</tspan><tspan x="125.2" y="43.2">e</tspan><tspan class="cls-15" x="135.25" y="43.2">f</tspan><tspan class="cls-2" x="141.19" y="43.2">i</tspan><tspan class="cls-18" x="144.52" y="43.2">c</tspan><tspan class="cls-2" x="153.54" y="43.2">i</tspan><tspan x="156.87" y="43.2">á</tspan><tspan class="cls-17" x="167.33" y="43.2">r</tspan><tspan class="cls-2" x="173.65" y="43.2">i</tspan><tspan x="176.98" y="43.2">o </tspan></tspan><tspan class="cls-19"><tspan class="cls-9" x="0" y="64.8">pa</tspan><tspan class="cls-2" x="20.92" y="64.8">g</tspan><tspan x="31.4" y="64.8">a</tspan><tspan class="cls-9" x="41.86" y="64.8">m</tspan><tspan class="cls-2" x="57.67" y="64.8">e</tspan><tspan x="67.63" y="64.8">n</tspan><tspan class="cls-13" x="77.28" y="64.8">t</tspan><tspan x="83.25" y="64.8">o </tspan><tspan class="cls-2" x="97.65" y="64.8">e</tspan><tspan x="107.61" y="64.8">m </tspan><tspan class="cls-17" x="127.93" y="64.8">c</tspan><tspan x="136.98" y="64.8">a</tspan><tspan class="cls-15" x="147.44" y="64.8">s</tspan><tspan x="155.11" y="64.8">o </tspan><tspan class="cls-15" x="169.51" y="64.8">d</tspan><tspan x="180.27" y="64.8">e </tspan></tspan><tspan class="cls-19"><tspan class="cls-15" x="0" y="86.4">des</tspan><tspan class="cls-2" x="28.42" y="86.4">e</tspan><tspan x="38.38" y="86.4">m</tspan><tspan class="cls-2" x="54.38" y="86.4">p</tspan><tspan class="cls-6" x="65.11" y="86.4">r</tspan><tspan class="cls-9" x="70.94" y="86.4">e</tspan><tspan class="cls-2" x="80.81" y="86.4">g</tspan><tspan x="91.3" y="86.4">o </tspan><tspan class="cls-8" x="105.7" y="86.4">i</tspan><tspan class="cls-9" x="109.09" y="86.4">n</tspan><tspan class="cls-7" x="118.56" y="86.4">v</tspan><tspan class="cls-1" x="127.33" y="86.4">o</tspan><tspan x="137.26" y="86.4">lun</tspan><tspan class="cls-13" x="159.61" y="86.4">t</tspan><tspan x="165.58" y="86.4">á</tspan><tspan class="cls-17" x="176.04" y="86.4">r</tspan><tspan class="cls-2" x="182.36" y="86.4">i</tspan><tspan x="185.69" y="86.4">o </tspan><tspan class="cls-15" x="200.09" y="86.4">d</tspan><tspan x="210.85" y="86.4">o </tspan></tspan><tspan class="cls-19"><tspan class="cls-15" x="0" y="108">s</tspan><tspan class="cls-9" x="7.67" y="108">e</tspan><tspan class="cls-17" x="17.54" y="108">g</tspan><tspan x="28" y="108">u</tspan><tspan class="cls-6" x="37.29" y="108">r</tspan><tspan class="cls-9" x="43.12" y="108">a</tspan><tspan class="cls-15" x="53.4" y="108">d</tspan><tspan class="cls-16" x="64.16" y="108">o</tspan><tspan x="74.06" y="108">.</tspan></tspan></text>
</svg>