<?xml version="1.0" encoding="UTF-8"?>
<svg id="Layer_1" data-name="Layer 1" xmlns="http://www.w3.org/2000/svg" viewBox="0 0 366.28 305.38">
  <defs>
    <style>
      .cls-1 {
        letter-spacing: 0em;
      }

      .cls-2 {
        letter-spacing: 0em;
      }

      .cls-3 {
        letter-spacing: -.03em;
      }

      .cls-4 {
        letter-spacing: 0em;
      }

      .cls-5 {
        letter-spacing: 0em;
      }

      .cls-6 {
        letter-spacing: -.01em;
      }

      .cls-7 {
        letter-spacing: -.04em;
      }

      .cls-8 {
        font-family: UrbanistRoman-Bold, Urbanist;
        font-size: 23.99px;
        font-variation-settings: 'wght' 700;
        font-weight: 700;
      }

      .cls-8, .cls-9 {
        fill: #130044;
      }

      .cls-10 {
        letter-spacing: -.01em;
      }

      .cls-11 {
        letter-spacing: -.05em;
      }

      .cls-12 {
        letter-spacing: -.02em;
      }

      .cls-13 {
        letter-spacing: -.01em;
      }

      .cls-14 {
        letter-spacing: -.01em;
      }
    </style>
  </defs>
  <path class="cls-9" d="M337.15,8.99c11.1,0,20.14,9.03,20.14,20.14v247.12c0,11.1-9.03,20.14-20.14,20.14H29.13c-11.1,0-20.13-9.03-20.13-20.14V29.13c0-11.1,9.03-20.14,20.13-20.14h308.02M337.15,0H29.13C13.11,0,0,13.11,0,29.13v247.12c0,16.02,13.11,29.13,29.13,29.13h308.02c16.02,0,29.13-13.11,29.13-29.13V29.13C366.28,13.11,353.18,0,337.15,0h0Z"/>
  <text class="cls-8" transform="translate(27.6 244.25)"><tspan class="cls-3" x="0" y="0">E</tspan><tspan class="cls-11" x="12.47" y="0">x</tspan><tspan x="25.53" y="0">a</tspan><tspan class="cls-2" x="39.9" y="0">m</tspan><tspan class="cls-1" x="60.97" y="0">e</tspan><tspan x="74.21" y="0">s </tspan><tspan class="cls-1" x="90.39" y="0">l</tspan><tspan class="cls-5" x="96.02" y="0">a</tspan><tspan class="cls-13" x="110.45" y="0">b</tspan><tspan class="cls-6" x="125.08" y="0">o</tspan><tspan class="cls-7" x="138.23" y="0">r</tspan><tspan x="146.57" y="0">a</tspan><tspan class="cls-14" x="160.94" y="0">t</tspan><tspan class="cls-6" x="169.26" y="0">o</tspan><tspan class="cls-12" x="182.42" y="0">r</tspan><tspan class="cls-10" x="191.28" y="0">i</tspan><tspan x="196.81" y="0">a</tspan><tspan class="cls-1" x="211.18" y="0">i</tspan><tspan x="216.8" y="0">s e </tspan><tspan class="cls-1" x="0" y="28.78">d</tspan><tspan x="14.69" y="28.78">e </tspan><tspan class="cls-4" x="33.87" y="28.78">i</tspan><tspan class="cls-13" x="39.58" y="28.78">ma</tspan><tspan class="cls-6" x="74.78" y="28.78">ge</tspan><tspan x="102.35" y="28.78">m</tspan></text>
  <polygon class="cls-9" points="338.69 262.6 330.04 262.6 330.04 253.95 324.38 253.95 324.38 262.6 315.73 262.6 315.73 268.27 324.38 268.27 324.38 276.92 330.04 276.92 330.04 268.27 338.69 268.27 338.69 262.6"/>
  <g>
    <path class="cls-9" d="M89.01,38.92h-2.46c-.27,0-.48-.21-.48-.48v-4.93c0-.81-.67-1.46-1.49-1.46h-51.1c-.81,0-1.47.65-1.47,1.46v4.93c0,.27-.22.48-.49.48h-2.46c-.81,0-1.47.67-1.47,1.48v28.49c0,.81.65,1.47,1.47,1.47h2.46c.27,0,.49.22.49.49v5.91c0,.81.66,1.46,1.47,1.46h51.1c.81,0,1.49-.65,1.49-1.46v-5.91c0-.27.21-.49.48-.49h2.46c.81,0,1.49-.66,1.49-1.47v-28.49c0-.81-.67-1.48-1.49-1.48ZM82.14,73.81h0c0,.27-.22.49-.49.49h-45.21c-.27,0-.49-.22-.49-.49v-37.35c0-.27.22-.49.49-.49h45.21c.27,0,.49.22.49.49v37.35h0Z"/>
    <path class="cls-9" d="M74.4,53.66h-13.88v-1.47h13.88c.81,0,1.47-.66,1.47-1.47s-.66-1.47-1.47-1.47h-13.88v-1.47h11.24c.81,0,1.47-.66,1.47-1.47s-.66-1.47-1.47-1.47h-11.24v-1.47h8.51c.81,0,1.47-.66,1.47-1.47s-.66-1.47-1.47-1.47h-8.64c-.23-.49-.74-.89-1.35-.89s-1.12.39-1.35.89h-8.64c-.81,0-1.47.66-1.47,1.47s.66,1.47,1.47,1.47h8.52v1.47h-11.25c-.81,0-1.47.66-1.47,1.47s.66,1.47,1.47,1.47h11.25v1.47h-13.9c-.81,0-1.47.66-1.47,1.47s.66,1.47,1.47,1.47h13.9v1.47h-13.9c-.81,0-1.47.66-1.47,1.47s.66,1.47,1.47,1.47h13.9v2.87c0,.81.66,1.47,1.47,1.47s1.47-.66,1.47-1.47v-2.87h13.88c.81,0,1.47-.66,1.47-1.47s-.66-1.47-1.47-1.47Z"/>
    <path class="cls-9" d="M55.04,58.08h-11.37c-.81,0-1.47.66-1.47,1.47s.66,1.47,1.47,1.47h11.37c.81,0,1.47-.66,1.47-1.47s-.66-1.47-1.47-1.47Z"/>
    <path class="cls-9" d="M53.42,62.51h-8.13c-.81,0-1.47.66-1.47,1.47s.66,1.47,1.47,1.47h8.13c.81,0,1.47-.66,1.47-1.47s-.66-1.47-1.47-1.47Z"/>
    <path class="cls-9" d="M51.54,66.93h-4.37c-.81,0-1.47.66-1.47,1.47s.66,1.47,1.47,1.47h4.37c.81,0,1.47-.66,1.47-1.47s-.66-1.47-1.47-1.47Z"/>
    <path class="cls-9" d="M74.4,58.08h-11.37c-.81,0-1.47.66-1.47,1.47s.66,1.47,1.47,1.47h11.37c.81,0,1.47-.66,1.47-1.47,0-.81-.66-1.47-1.47-1.47Z"/>
    <path class="cls-9" d="M72.77,62.51h-8.13c-.81,0-1.47.66-1.47,1.47s.66,1.47,1.47,1.47h8.13c.81,0,1.47-.66,1.47-1.47s-.66-1.47-1.47-1.47Z"/>
    <path class="cls-9" d="M70.9,66.93h-4.37c-.81,0-1.47.66-1.47,1.47s.66,1.47,1.47,1.47h4.37c.81,0,1.47-.66,1.47-1.47s-.66-1.47-1.47-1.47Z"/>
  </g>
</svg>