<?xml version="1.0" encoding="UTF-8"?>
<svg id="Layer_1" data-name="Layer 1" xmlns="http://www.w3.org/2000/svg" viewBox="0 0 366.28 305.38">
  <defs>
    <style>
      .cls-1 {
        letter-spacing: -.02em;
      }

      .cls-2 {
        letter-spacing: -.01em;
      }

      .cls-3 {
        letter-spacing: 0em;
      }

      .cls-4 {
        letter-spacing: -.05em;
      }

      .cls-5 {
        font-family: UrbanistRoman-Bold, Urbanist;
        font-size: 20px;
        font-variation-settings: 'wght' 700;
        font-weight: 700;
      }

      .cls-5, .cls-6 {
        fill: #130044;
      }

      .cls-7 {
        letter-spacing: -.05em;
      }

      .cls-8 {
        letter-spacing: 0em;
      }

      .cls-9 {
        letter-spacing: -.02em;
      }

      .cls-10 {
        letter-spacing: -.04em;
      }

      .cls-11 {
        letter-spacing: 0em;
      }

      .cls-12 {
        letter-spacing: -.01em;
      }

      .cls-13 {
        letter-spacing: -.01em;
      }

      .cls-14 {
        letter-spacing: -.02em;
      }
    </style>
  </defs>
  <path class="cls-6" d="M337.15,9c11.1,0,20.14,9.03,20.14,20.14v247.12c0,11.1-9.03,20.13-20.14,20.13H29.13c-11.1,0-20.14-9.03-20.14-20.13V29.13c0-11.1,9.03-20.14,20.14-20.14h308.02M337.15,0H29.13C13.11,0,0,13.11,0,29.13v247.12C0,292.27,13.11,305.38,29.13,305.38h308.02c16.02,0,29.13-13.11,29.13-29.13V29.13C366.28,13.11,353.18,0,337.15,0h0Z"/>
  <text class="cls-5" transform="translate(27.59 271.2)"><tspan x="0" y="0">J</tspan><tspan class="cls-11" x="8.88" y="0">u</tspan><tspan x="19.49" y="0">d</tspan><tspan class="cls-13" x="31.89" y="0">i</tspan><tspan class="cls-1" x="36.5" y="0">c</tspan><tspan class="cls-2" x="46.32" y="0">i</tspan><tspan class="cls-3" x="50.93" y="0">a</tspan><tspan x="62.96" y="0">l </tspan><tspan class="cls-12" x="72.6" y="0">p</tspan><tspan x="84.78" y="0">a</tspan><tspan class="cls-10" x="96.76" y="0">r</tspan><tspan x="103.71" y="0">a </tspan><tspan class="cls-7" x="120.49" y="0">e</tspan><tspan class="cls-4" x="130.62" y="0">x</tspan><tspan class="cls-8" x="141.51" y="0">e</tspan><tspan class="cls-13" x="152.5" y="0">c</tspan><tspan class="cls-11" x="162.47" y="0">u</tspan><tspan class="cls-9" x="173.08" y="0">ç</tspan><tspan class="cls-12" x="182.97" y="0">ã</tspan><tspan x="194.75" y="0">o </tspan><tspan class="cls-11" x="210.75" y="0">fis</tspan><tspan class="cls-14" x="231.12" y="0">c</tspan><tspan class="cls-3" x="241.01" y="0">a</tspan><tspan x="253.04" y="0">l</tspan></text>
  <polygon class="cls-6" points="338.69 262.6 330.04 262.6 330.04 253.95 324.38 253.95 324.38 262.6 315.73 262.6 315.73 268.27 324.38 268.27 324.38 276.92 330.04 276.92 330.04 268.27 338.69 268.27 338.69 262.6"/>
  <path class="cls-6" d="M73.65,57.41s0,0,0,0l-8.35-11.61c-.12-1.86-1.61-3.67-3.43-4.1l-8.97-2.13v-2.37c0-.57-.21-1.08-.56-1.47.35-.39.56-.91.56-1.47,0-1.22-.99-2.21-2.21-2.21s-2.21.99-2.21,2.21c0,.57.21,1.08.56,1.47-.35.39-.56.91-.56,1.47v2.37l-8.97,2.13c-1.81.43-3.3,2.24-3.43,4.1l-8.35,11.61s0,0,0,0c-.09.12-.14.27-.14.43,0,2.57,2.09,4.67,4.67,4.67h9.09c2.57,0,4.67-2.09,4.67-4.67,0-.16-.05-.31-.14-.43,0,0,0,0,0,0l-7.64-10.63h8.02c.41,0,.74-.33.74-.74s-.33-.74-.74-.74h-8.61c.3-1.02,1.18-1.94,2.19-2.18l8.63-2.05v21.92h-1.23c-.41,0-.74.33-.74.74s.32.73.72.74l-2.01,6.43c-1.53.23-2.75,1.4-3.06,2.91h-3.27c-1.22,0-2.21.99-2.21,2.21s.99,2.21,2.21,2.21h23.59c1.22,0,2.21-.99,2.21-2.21s-.99-2.21-2.21-2.21h-3.27c-.31-1.5-1.53-2.67-3.06-2.91l-2.01-6.43c.4-.01.72-.34.72-.74s-.33-.74-.74-.74h-1.23v-21.92l8.63,2.05c1.01.24,1.89,1.16,2.19,2.18h-8.61c-.41,0-.74.33-.74.74s.33.74.74.74h8.02l-7.64,10.63s0,0,0,0c-.09.12-.14.27-.14.43,0,2.57,2.09,4.67,4.67,4.67h9.09c2.57,0,4.67-2.09,4.67-4.67,0-.16-.05-.31-.14-.43ZM41.35,61.03h-9.09c-1.51,0-2.77-1.05-3.11-2.46h15.31c-.33,1.41-1.6,2.46-3.11,2.46ZM43.85,57.1h-14.08l7.04-9.79,7.04,9.79ZM50.69,33.51c.41,0,.74.33.74.74s-.33.74-.74.74-.74-.33-.74-.74.33-.74.74-.74ZM49.95,37.2c0-.41.33-.74.74-.74s.74.33.74.74v25.8h-1.47v-25.8h0ZM57.69,73.81h-11.91c-.41,0-.74.33-.74.74s.33.74.74.74h16.71c.41,0,.74.33.74.74s-.33.74-.74.74h-23.59c-.41,0-.74-.33-.74-.74s.33-.74.74-.74h3.93c.41,0,.74-.33.74-.74,0-1.22.99-2.21,2.21-2.21h9.83c.96,0,1.78.62,2.09,1.47ZM54.6,70.86h-7.82l2-6.39h3.83l2,6.39ZM64.57,47.31l7.04,9.79h-14.08l7.04-9.79ZM69.12,61.03h-9.09c-1.51,0-2.77-1.05-3.11-2.46h15.31c-.33,1.41-1.6,2.46-3.11,2.46Z"/>
</svg>