<?xml version="1.0" encoding="UTF-8"?>
<svg id="Layer_1" data-name="Layer 1" xmlns="http://www.w3.org/2000/svg" viewBox="0 0 366.28 305.38">
  <defs>
    <style>
      .cls-1 {
        letter-spacing: 0em;
      }

      .cls-2 {
        letter-spacing: -.01em;
      }

      .cls-3 {
        letter-spacing: 0em;
      }

      .cls-4 {
        letter-spacing: -.04em;
      }

      .cls-5 {
        font-family: UrbanistRoman-Bold, Urbanist;
        font-size: 23.99px;
        font-variation-settings: 'wght' 700;
        font-weight: 700;
      }

      .cls-5, .cls-6 {
        fill: #130044;
      }

      .cls-7 {
        letter-spacing: -.02em;
      }

      .cls-8 {
        letter-spacing: -.01em;
      }
    </style>
  </defs>
  <path class="cls-6" d="M337.15,8.99c11.1,0,20.14,9.03,20.14,20.14v247.12c0,11.1-9.03,20.14-20.14,20.14H29.13c-11.1,0-20.14-9.03-20.14-20.14V29.13c0-11.1,9.03-20.14,20.14-20.14h308.02M337.15,0H29.13C13.11,0,0,13.11,0,29.13v247.12c0,16.02,13.11,29.13,29.13,29.13h308.02c16.02,0,29.13-13.11,29.13-29.13V29.13C366.28,13.11,353.18,0,337.15,0h0Z"/>
  <text class="cls-5" transform="translate(27.59 274.19)"><tspan class="cls-2" x="0" y="0">S</tspan><tspan class="cls-1" x="14.7" y="0">u</tspan><tspan class="cls-8" x="27.67" y="0">b</tspan><tspan x="42.28" y="0">t</tspan><tspan class="cls-4" x="50.86" y="0">r</tspan><tspan class="cls-3" x="59.2" y="0">a</tspan><tspan class="cls-7" x="73.33" y="0">ç</tspan><tspan class="cls-3" x="85.19" y="0">ã</tspan><tspan x="99.32" y="0">o</tspan></text>
  <polygon class="cls-6" points="338.69 262.6 330.04 262.6 330.04 253.95 324.38 253.95 324.38 262.6 315.73 262.6 315.73 268.27 324.38 268.27 324.38 276.92 330.04 276.92 330.04 268.27 338.69 268.27 338.69 262.6"/>
  <g>
    <path class="cls-6" d="M94.95,32.93l2.23-2.23h0s.95-.96.95-.96c.52-.52.52-1.38,0-1.9-.52-.52-1.38-.52-1.9,0l-.95.95h0s-2.23,2.22-2.23,2.22c-.53.53-.53,1.38,0,1.91.53.53,1.38.53,1.91,0Z"/>
    <path class="cls-6" d="M88.99,31.15c.75,0,1.35-.6,1.35-1.35v-3.15h0v-1.34c0-.74-.6-1.34-1.34-1.34s-1.34.6-1.34,1.34v1.34h0v3.15c0,.75.6,1.35,1.35,1.35Z"/>
    <path class="cls-6" d="M96.18,35.63c-.75,0-1.35.6-1.35,1.35s.6,1.35,1.35,1.35h3.15s1.34,0,1.34,0c.74,0,1.34-.6,1.34-1.34s-.6-1.34-1.34-1.34h-1.34s-3.15,0-3.15,0Z"/>
    <path class="cls-6" d="M46.61,76.21c-.18-.58-.69-.96-1.25-1.02-.82.17-1.67.26-2.54.26-1.29,0-2.54-.2-3.71-.56-5.07-1.57-8.75-6.3-8.75-11.88,0-3.83,1.75-7.25,4.48-9.53.41-.46.49-1.15.14-1.69-.38-.6-1.15-.81-1.78-.53-3.42,2.79-5.61,7.01-5.61,11.76,0,8.39,6.82,15.2,15.2,15.2,1.11,0,2.19-.13,3.24-.36.52-.36.77-1.02.58-1.65Z"/>
    <path class="cls-6" d="M109.11,61.6c-.66,0-1.21.45-1.36,1.06,0,.12.02.23.02.35,0,3.86-1.76,7.31-4.53,9.59-2.15,1.78-4.9,2.85-7.9,2.85-.58.17-1.01.71-1.01,1.35,0,.73.56,1.33,1.27,1.4,8.25-.15,14.93-6.9,14.93-15.19,0-.78-.63-1.41-1.41-1.41Z"/>
    <path class="cls-6" d="M106.36,52.59c-2.77-2.94-6.69-4.79-11.04-4.79h0c-1.91,0-3.73.37-5.42,1.01l-6.8-13.45h5.31v-2.76h-9.81l2.8,5.53h-14.14c-.58.18-1,.71-1,1.35,0,.78.63,1.41,1.41,1.41h12.81l-4.14,7.14c-.19.62.06,1.31.65,1.64.59.34,1.32.2,1.76-.29l4.46-7.69,4.22,8.34c-4.37,2.67-7.31,7.48-7.31,12.97,0,3,.88,5.79,2.39,8.15.47.45,1.21.53,1.77.14.56-.38.75-1.08.52-1.68-1.21-1.92-1.91-4.19-1.91-6.61,0-.83.11-1.64.26-2.42,0-.05.02-.09.03-.14.08-.37.17-.74.28-1.1.01-.04.03-.08.04-.13.33-1.02.78-1.98,1.35-2.87.09-.14.18-.28.27-.42.15-.21.3-.42.46-.62.14-.17.28-.34.43-.51.15-.17.29-.34.45-.49.24-.25.5-.48.76-.71.13-.12.27-.23.41-.34.29-.23.6-.45.91-.66.05-.03.09-.07.14-.1h0c.77-.48,1.61-.89,2.48-1.2h0c.09-.05.19-.07.28-.1.13-.04.25-.08.38-.12.29-.09.59-.16.89-.23.06-.01.11-.03.17-.04.79-.16,1.6-.26,2.44-.26,3,0,5.76,1.07,7.92,2.85.34.28.66.58.96.89.5.47,1.27.55,1.83.11.57-.44.69-1.23.33-1.83Z"/>
    <path class="cls-6" d="M73.96,54.84c-.56-.33-1.25-.21-1.7.22l-3.35,5.77h0l-1.52-3c-.41-.48-1.11-.64-1.7-.34-.65.33-.94,1.09-.69,1.76l1.21,2.39h-11.04c.05.46.08.92.08,1.38,0,3.14-1.17,6-3.09,8.19-.37.54-.35,1.26.12,1.76.49.52,1.26.56,1.83.17,2.12-2.36,3.51-5.38,3.81-8.72h11.32c.49,0,.95-.26,1.2-.69l4.09-7.04c.31-.66.08-1.46-.57-1.83Z"/>
    <path class="cls-6" d="M61.22,48.64c.61-.32.89-1.01.71-1.65l-3.08-6.1h.56c.6-.16,1.05-.71,1.05-1.36,0-.73-.56-1.33-1.27-1.4h-1.73l-1.4-2.76h4.71v-2.76h-9.2l3.11,6.16s-.04.04-.05.06l-5.86,10.2c-1.83-.79-3.85-1.22-5.97-1.22-.07,0-.14,0-.21.01-.68.1-1.21.68-1.21,1.39,0,.67.46,1.22,1.08,1.37.11,0,.22-.02.34-.02.42,0,.83.02,1.23.06,2.09.2,4.02.93,5.68,2.03v-.02s1.48-2.3,1.48-2.3l4.97-8.65h0l3.33,6.6c.42.5,1.13.66,1.73.35Z"/>
  </g>
</svg>