<?xml version="1.0" encoding="UTF-8"?>
<svg id="Layer_1" data-name="Layer 1" xmlns="http://www.w3.org/2000/svg" viewBox="0 0 366.28 305.38">
  <defs>
    <style>
      .cls-1 {
        letter-spacing: -.02em;
      }

      .cls-2 {
        letter-spacing: -.01em;
      }

      .cls-3 {
        letter-spacing: 0em;
      }

      .cls-4 {
        font-family: UrbanistRoman-Bold, Urbanist;
        font-size: 16px;
        font-variation-settings: 'wght' 700;
        font-weight: 700;
      }

      .cls-4, .cls-5 {
        fill: #130044;
      }

      .cls-6 {
        letter-spacing: 0em;
      }

      .cls-7 {
        letter-spacing: -.01em;
      }
    </style>
  </defs>
  <path class="cls-5" d="M337.15,9c11.1,0,20.14,9.03,20.14,20.13v247.12c0,11.1-9.03,20.14-20.14,20.14H29.13c-11.1,0-20.14-9.03-20.14-20.14V29.13c0-11.1,9.03-20.13,20.14-20.13h308.02M337.15,0H29.13C13.11,0,0,13.11,0,29.13v247.12C0,292.27,13.11,305.38,29.13,305.38h308.02c16.02,0,29.13-13.11,29.13-29.13V29.13c0-16.02-13.11-29.13-29.13-29.13h0Z"/>
  <text class="cls-4" transform="translate(27.59 272.65)"><tspan class="cls-1" x="0" y="0">A</tspan><tspan class="cls-6" x="11.42" y="0">l</tspan><tspan class="cls-3" x="15.17" y="0">a</tspan><tspan class="cls-2" x="24.59" y="0">g</tspan><tspan x="34.22" y="0">a</tspan><tspan class="cls-3" x="43.8" y="0">m</tspan><tspan class="cls-2" x="57.86" y="0">e</tspan><tspan x="66.62" y="0">n</tspan><tspan class="cls-7" x="75.55" y="0">t</tspan><tspan x="81.1" y="0">o</tspan></text>
  <polygon class="cls-5" points="338.69 262.6 330.04 262.6 330.04 253.95 324.38 253.95 324.38 262.6 315.73 262.6 315.73 268.27 324.38 268.27 324.38 276.92 330.04 276.92 330.04 268.27 338.69 268.27 338.69 262.6"/>
  <path class="cls-5" d="M37.7,71.2h-2.59l2.19-4.69h2.59l-2.19,4.69ZM42.54,75.89l4.38-9.37h-2.59l-4.38,9.37h2.59ZM50.66,73.54l3.29-7.03h-2.59l-3.29,7.03h2.59ZM58.39,66.52l-5.48,11.71h2.59l5.48-11.71h-2.59ZM63.23,71.2h2.59l2.19-4.69h-2.59l-2.19,4.69ZM76.79,52.9c0-4.63-2.84-8.78-7.15-10.47-2.12-6.44-8.93-10.08-15.46-8.24.03.05.07.08.09.13.35.65.58,1.35.67,2.09,5.3-1.39,10.77,1.59,12.48,6.79l.35,1.02,1.01.4c4.59,1.8,6.84,6.98,5.05,11.56-1.34,3.42-4.64,5.67-8.31,5.66h-29.87c-3.15,0-5.71-2.53-5.72-5.68,0-2.56,1.69-4.8,4.15-5.5l.15-2.44c-4.37.78-7.28,4.97-6.5,9.34.69,3.83,4.02,6.62,7.92,6.62h29.87c6.23,0,11.28-5.05,11.28-11.28ZM39.23,43.09h-9.44l5.45-18.74h14.26l-7.26,11.71h8.99l-12.93,22.2.93-15.17ZM41.72,40.74l-.48,7.81,5.91-10.15h-9.12l7.26-11.71h-8.29l-4.09,14.06h8.81Z"/>
</svg>