<?xml version="1.0" encoding="UTF-8"?>
<svg id="Layer_1" data-name="Layer 1" xmlns="http://www.w3.org/2000/svg" viewBox="0 0 366.28 305.38">
  <defs>
    <style>
      .cls-1 {
        font-family: UrbanistRoman-Bold, Urbanist;
        font-size: 22px;
        font-variation-settings: 'wght' 700;
        font-weight: 700;
      }

      .cls-1, .cls-2 {
        fill: #130044;
      }

      .cls-3 {
        letter-spacing: -.01em;
      }

      .cls-4 {
        letter-spacing: -.04em;
      }

      .cls-5 {
        letter-spacing: -.02em;
      }

      .cls-6 {
        letter-spacing: 0em;
      }

      .cls-7 {
        letter-spacing: -.02em;
      }

      .cls-8 {
        letter-spacing: 0em;
      }

      .cls-9 {
        letter-spacing: 0em;
      }

      .cls-10 {
        letter-spacing: 0em;
      }

      .cls-11 {
        letter-spacing: 0em;
      }
    </style>
  </defs>
  <path class="cls-2" d="M337.15,8.99c11.1,0,20.14,9.03,20.14,20.14v247.12c0,11.1-9.03,20.14-20.14,20.14H29.13c-11.1,0-20.14-9.03-20.14-20.14V29.13c0-11.1,9.03-20.14,20.14-20.14h308.02M337.15,0H29.13C13.11,0,0,13.11,0,29.13v247.12C0,292.27,13.11,305.38,29.13,305.38h308.02c16.02,0,29.13-13.11,29.13-29.13V29.13C366.28,13.11,353.18,0,337.15,0h0Z"/>
  <text class="cls-1" transform="translate(27.59 272.92)"><tspan class="cls-7" x="0" y="0">D</tspan><tspan x="14.44" y="0">a</tspan><tspan class="cls-10" x="27.62" y="0">n</tspan><tspan class="cls-8" x="39.68" y="0">o</tspan><tspan x="51.83" y="0">s </tspan><tspan class="cls-11" x="66.67" y="0">fí</tspan><tspan class="cls-3" x="79.68" y="0">si</tspan><tspan class="cls-7" x="94.06" y="0">c</tspan><tspan class="cls-8" x="104.94" y="0">o</tspan><tspan x="117.09" y="0">s </tspan><tspan class="cls-10" x="131.93" y="0">a</tspan><tspan x="144.89" y="0">o </tspan><tspan class="cls-9" x="162.49" y="0">i</tspan><tspan class="cls-10" x="167.73" y="0">m</tspan><tspan class="cls-4" x="187.05" y="0">óv</tspan><tspan class="cls-5" x="210.6" y="0">e</tspan><tspan class="cls-6" x="222.5" y="0">l</tspan></text>
  <polygon class="cls-2" points="338.69 262.6 330.04 262.6 330.04 253.95 324.38 253.95 324.38 262.6 315.73 262.6 315.73 268.27 324.38 268.27 324.38 276.92 330.04 276.92 330.04 268.27 338.69 268.27 338.69 262.6"/>
  <g>
    <path class="cls-2" d="M67.69,37.3c-.13-.12-.3-.2-.49-.2-.28,0-.53.17-.64.42h0c-.14.34-.33.62-.56.87h0c0-.07,0-.15,0-.23,0-1.01-.22-1.96-.63-2.82l.02.04c-.7-1.47-1.89-2.62-3.34-3.27l-.04-.02c-.08-.04-.18-.06-.27-.06-.38,0-.69.31-.69.69,0,.04,0,.08.01.12h0s0,.05,0,.08c0,1.11-.49,2.1-1.27,2.78h0c-.29.3-.59.57-.9.85-.73.6-1.36,1.28-1.89,2.03l-.02.03c-.61.98-.97,2.18-.97,3.45,0,.63.09,1.24.25,1.81v-.05c.41,1.74,1.48,3.18,2.92,4.07l.03.02c1.05.67,2.32,1.07,3.69,1.08h0c.29,0,.58-.02.86-.06h-.03c2.61-.38,4.73-2.16,5.59-4.54l.02-.05c.22-.65.34-1.39.34-2.17,0-1.9-.76-3.63-2-4.89h0s0,0,0,0ZM68.03,43.91c-.7,1.94-2.39,3.36-4.44,3.66h-.03c-.2.03-.42.04-.65.04-1.1,0-2.13-.32-2.99-.88h.02c-1.16-.71-2.01-1.85-2.34-3.2v-.04c-.13-.43-.2-.92-.2-1.43,0-1,.28-1.93.76-2.73v.02c.48-.68,1.03-1.26,1.65-1.77h.02c.33-.31.65-.6.96-.91.78-.74,1.35-1.69,1.62-2.76v-.04c1.36.95,2.24,2.51,2.24,4.27,0,.54-.08,1.07-.24,1.56v-.04c0,.06-.02.13-.02.2,0,.38.31.69.69.69.09,0,.18-.02.26-.05h0c.81-.33,1.47-.86,1.97-1.52h0c.62.88,1,1.98,1,3.18,0,.62-.1,1.21-.29,1.77v-.04s.01,0,.01,0Z"/>
    <g>
      <path class="cls-2" d="M65.84,61.69h-8.27v9.3h8.27v-9.3ZM63.78,68.93h-4.14v-5.17h4.14v5.17Z"/>
      <path class="cls-2" d="M64.74,34.81l.17,2.07h6.11v18.61h-1.89c-.11-.02-.23-.02-.34,0h-10.64l-7.8-12.26-7.8,12.26h-10.65c-.06,0-.12-.01-.18-.01-.05,0-.1,0-.15.01h-1.9v-18.61h29.98l1.63-1.56v-.51H27.59v22.74h3.1v20.68h39.29v-20.68h3.1v-22.74h-8.35ZM53.44,76.16h-6.2v-9.3c0-1.72,1.38-3.1,3.1-3.1s3.1,1.38,3.1,3.1v9.3ZM67.91,76.16h-12.41v-9.3c0-2.84-2.33-5.17-5.17-5.17s-5.17,2.33-5.17,5.17v9.3h-12.41v-18.61h10.91l6.67-10.48,6.67,10.48h10.91v18.61Z"/>
      <path class="cls-2" d="M34.83,62.72v8.27h8.27v-9.3h-8.27v1.03ZM36.9,63.76h4.14v5.17h-4.14v-5.17Z"/>
    </g>
  </g>
</svg>