<?xml version="1.0" encoding="UTF-8"?>
<svg id="Layer_1" data-name="Layer 1" xmlns="http://www.w3.org/2000/svg" viewBox="0 0 366.28 305.38">
  <defs>
    <style>
      .cls-1 {
        letter-spacing: 0em;
      }

      .cls-2 {
        letter-spacing: -.01em;
      }

      .cls-3 {
        font-family: UrbanistRoman-Bold, Urbanist;
        font-size: 20px;
        font-variation-settings: 'wght' 700;
        font-weight: 700;
      }

      .cls-3, .cls-4 {
        fill: #130044;
      }

      .cls-5 {
        letter-spacing: 0em;
      }

      .cls-6 {
        letter-spacing: -.01em;
      }

      .cls-7 {
        letter-spacing: -.05em;
      }

      .cls-8 {
        letter-spacing: 0em;
      }

      .cls-9 {
        letter-spacing: -.01em;
      }
    </style>
  </defs>
  <path class="cls-4" d="M337.15,9c11.1,0,20.14,9.03,20.14,20.13v247.12c0,11.1-9.03,20.13-20.14,20.13H29.13c-11.1,0-20.13-9.03-20.13-20.13V29.13c0-11.1,9.03-20.13,20.13-20.13h308.02M337.15,0H29.13C13.11,0,0,13.11,0,29.13v247.12C0,292.27,13.11,305.38,29.13,305.38h308.02c16.02,0,29.13-13.11,29.13-29.13V29.13C366.28,13.11,353.18,0,337.15,0h0Z"/>
  <text class="cls-3" transform="translate(27.59 273.67)"><tspan class="cls-7" x="0" y="0">A</tspan><tspan class="cls-1" x="13.58" y="0">d</tspan><tspan class="cls-2" x="25.98" y="0">i</tspan><tspan x="30.59" y="0">an</tspan><tspan class="cls-6" x="53.73" y="0">t</tspan><tspan x="60.67" y="0">a</tspan><tspan class="cls-9" x="72.65" y="0">m</tspan><tspan class="cls-2" x="90.22" y="0">e</tspan><tspan x="101.18" y="0">n</tspan><tspan class="cls-6" x="112.34" y="0">t</tspan><tspan x="119.28" y="0">o </tspan><tspan class="cls-8" x="135.28" y="0">d</tspan><tspan x="147.53" y="0">e </tspan><tspan class="cls-5" x="163.52" y="0">pa</tspan><tspan class="cls-2" x="187.48" y="0">g</tspan><tspan x="199.51" y="0">a</tspan><tspan class="cls-9" x="211.49" y="0">m</tspan><tspan class="cls-2" x="229.06" y="0">e</tspan><tspan x="240.02" y="0">n</tspan><tspan class="cls-6" x="251.18" y="0">t</tspan><tspan x="258.12" y="0">o</tspan></text>
  <polygon class="cls-4" points="338.69 262.6 330.04 262.6 330.04 253.95 324.38 253.95 324.38 262.6 315.73 262.6 315.73 268.27 324.38 268.27 324.38 276.92 330.04 276.92 330.04 268.27 338.69 268.27 338.69 262.6"/>
  <g>
    <path class="cls-4" d="M61.36,50.63c.05-.55.08-1.11.08-1.66,0-9.33-7.59-16.92-16.92-16.92s-16.92,7.59-16.92,16.92,7.59,16.92,16.92,16.92c.55,0,1.11-.03,1.66-.08.71,6.97,6.61,12.43,13.77,12.43,7.63,0,13.84-6.21,13.84-13.84,0-7.15-5.46-13.06-12.43-13.77ZM46.11,64.36c-.53.05-1.06.08-1.59.08-8.53,0-15.48-6.94-15.48-15.48s6.94-15.48,15.48-15.48,15.48,6.94,15.48,15.48c0,.53-.03,1.06-.08,1.59-7.6.02-13.79,6.2-13.8,13.8ZM59.95,76.78c-6.83,0-12.39-5.56-12.39-12.39s5.56-12.39,12.39-12.39,12.39,5.56,12.39,12.39-5.56,12.39-12.39,12.39Z"/>
    <path class="cls-4" d="M59.95,53.64c-5.93,0-10.75,4.82-10.75,10.75s4.82,10.75,10.75,10.75,10.75-4.82,10.75-10.75-4.82-10.75-10.75-10.75ZM59.95,73.7c-5.13,0-9.31-4.17-9.31-9.31s4.17-9.31,9.31-9.31,9.31,4.17,9.31,9.31-4.17,9.31-9.31,9.31Z"/>
    <path class="cls-4" d="M62.31,61.79c0,.4.32.72.72.72s.72-.32.72-.72c0-1.36-1.31-2.46-3.09-2.7v-.87c0-.4-.32-.72-.72-.72s-.72.32-.72.72v.87c-1.78.24-3.09,1.34-3.09,2.7,0,1.93,1.7,2.68,3.09,3.13v3.31c-.99-.19-1.64-.73-1.64-1.24,0-.4-.32-.72-.72-.72s-.72.32-.72.72c0,1.36,1.31,2.46,3.09,2.7v.87c0,.4.32.72.72.72s.72-.32.72-.72v-.87c1.78-.24,3.09-1.34,3.09-2.7,0-1.93-1.7-2.68-3.09-3.13v-3.31c.99.19,1.64.73,1.64,1.24ZM59.22,63.38c-1.23-.47-1.64-.9-1.64-1.59,0-.5.65-1.05,1.64-1.24v2.83ZM62.31,67c0,.5-.65,1.05-1.64,1.24v-2.83c1.23.47,1.64.9,1.64,1.59Z"/>
    <path class="cls-4" d="M51.9,44.13c.32-.25.37-.7.13-1.01-.25-.32-.7-.37-1.01-.13l-5.25,4.08c-.36-.24-.79-.38-1.25-.38-.36,0-.7.09-1.01.24l-6.2-6.2c-.28-.28-.74-.28-1.02,0-.28.28-.28.74,0,1.02l6.2,6.2c-.15.3-.24.65-.24,1.01,0,1.25,1.02,2.27,2.27,2.27s2.27-1.02,2.27-2.27c0-.26-.05-.51-.13-.75l5.25-4.08ZM44.52,49.78c-.45,0-.82-.37-.82-.82s.37-.82.82-.82.82.37.82.82-.37.82-.82.82Z"/>
    <path class="cls-4" d="M44.52,38.11c.4,0,.72-.32.72-.72v-1.54c0-.4-.32-.72-.72-.72s-.72.32-.72.72v1.54c0,.4.32.72.72.72Z"/>
    <path class="cls-4" d="M44.52,59.81c-.4,0-.72.32-.72.72v1.54c0,.4.32.72.72.72s.72-.32.72-.72v-1.54c0-.4-.32-.72-.72-.72Z"/>
    <path class="cls-4" d="M55.36,48.96c0,.4.32.72.72.72h1.54c.4,0,.72-.32.72-.72s-.32-.72-.72-.72h-1.54c-.4,0-.72.32-.72.72Z"/>
    <path class="cls-4" d="M33.67,48.96c0-.4-.32-.72-.72-.72h-1.54c-.4,0-.72.32-.72.72s.32.72.72.72h1.54c.4,0,.72-.32.72-.72Z"/>
    <path class="cls-4" d="M50.33,38.9c.11.07.24.1.36.1.25,0,.49-.13.63-.36l.39-.67c.2-.35.08-.79-.26-.99-.35-.2-.79-.08-.99.26l-.39.67c-.2.35-.08.79.27.99Z"/>
    <path class="cls-4" d="M38.71,59.03c-.35-.2-.79-.08-.99.26l-.39.67c-.2.35-.08.79.26.99.11.07.24.1.36.1.25,0,.49-.13.63-.36l.39-.67c.2-.35.08-.79-.27-.99Z"/>
    <path class="cls-4" d="M37.72,38.64c.13.23.38.36.63.36.12,0,.25-.03.36-.1.35-.2.46-.64.27-.99l-.39-.67c-.2-.35-.64-.46-.99-.26-.35.2-.46.64-.26.99l.39.67Z"/>
    <path class="cls-4" d="M34.19,42.17l-.67-.39c-.35-.2-.79-.08-.99.26s-.08.79.27.99l.67.39c.11.07.24.1.36.1.25,0,.49-.13.63-.36.2-.35.08-.79-.26-.99Z"/>
    <path class="cls-4" d="M55.21,43.52c.12,0,.25-.03.36-.1l.67-.39c.35-.2.46-.64.26-.99s-.64-.46-.99-.26l-.67.39c-.35.2-.46.64-.26.99.13.23.38.36.63.36Z"/>
    <path class="cls-4" d="M33.46,54.51l-.67.39c-.35.2-.46.64-.27.99.13.23.38.36.63.36.12,0,.25-.03.36-.1l.67-.39c.35-.2.46-.64.26-.99s-.64-.46-.99-.26Z"/>
  </g>
</svg>