<?xml version="1.0" encoding="UTF-8"?>
<svg id="Layer_1" data-name="Layer 1" xmlns="http://www.w3.org/2000/svg" viewBox="0 0 366.28 305.38">
  <defs>
    <style>
      .cls-1 {
        letter-spacing: 0em;
      }

      .cls-2 {
        letter-spacing: 0em;
      }

      .cls-3 {
        letter-spacing: -.04em;
      }

      .cls-4 {
        letter-spacing: 0em;
      }

      .cls-5 {
        letter-spacing: -.01em;
      }

      .cls-6 {
        letter-spacing: -.01em;
      }

      .cls-7 {
        font-family: UrbanistRoman-Bold, Urbanist;
        font-size: 23.99px;
        font-variation-settings: 'wght' 700;
        font-weight: 700;
      }

      .cls-7, .cls-8 {
        fill: #130044;
      }

      .cls-9 {
        letter-spacing: -.01em;
      }

      .cls-10 {
        letter-spacing: -.02em;
      }

      .cls-11 {
        letter-spacing: -.01em;
      }
    </style>
  </defs>
  <path class="cls-8" d="M337.15,9c11.1,0,20.14,9.03,20.14,20.13v247.12c0,11.1-9.03,20.14-20.14,20.14H29.13c-11.1,0-20.14-9.03-20.14-20.14V29.13c0-11.1,9.03-20.13,20.14-20.13h308.02M337.15,0H29.13C13.11,0,0,13.11,0,29.13v247.12c0,16.02,13.11,29.13,29.13,29.13h308.02c16.02,0,29.13-13.11,29.13-29.13V29.13c0-16.02-13.11-29.13-29.13-29.13h0Z"/>
  <text class="cls-7" transform="translate(27.59 274.19)"><tspan class="cls-10" x="0" y="0">D</tspan><tspan class="cls-1" x="15.75" y="0">e</tspan><tspan x="28.99" y="0">s</tspan><tspan class="cls-11" x="39.41" y="0">p</tspan><tspan class="cls-1" x="54.02" y="0">es</tspan><tspan x="77.5" y="0">as </tspan><tspan class="cls-1" x="108.05" y="0">d</tspan><tspan x="122.74" y="0">e </tspan><tspan class="cls-1" x="141.92" y="0">s</tspan><tspan class="cls-4" x="152.16" y="0">a</tspan><tspan class="cls-5" x="166.58" y="0">l</tspan><tspan class="cls-3" x="172.11" y="0">v</tspan><tspan x="185.21" y="0">a</tspan><tspan class="cls-2" x="199.58" y="0">m</tspan><tspan class="cls-9" x="220.65" y="0">e</tspan><tspan x="233.79" y="0">n</tspan><tspan class="cls-6" x="247.18" y="0">t</tspan><tspan x="255.5" y="0">o</tspan></text>
  <polygon class="cls-8" points="338.69 262.6 330.04 262.6 330.04 253.95 324.38 253.95 324.38 262.6 315.73 262.6 315.73 268.27 324.38 268.27 324.38 276.92 330.04 276.92 330.04 268.27 338.69 268.27 338.69 262.6"/>
  <path class="cls-8" d="M75.43,38.64h-13.2v-1.65c0-2.73-2.22-4.95-4.95-4.95h-6.6c-2.73,0-4.95,2.22-4.95,4.95v1.65h-13.2c-2.73,0-4.95,2.22-4.95,4.95v32.99c0,.91.74,1.65,1.65,1.65h49.49c.91,0,1.65-.74,1.65-1.65v-32.99c0-2.73-2.22-4.95-4.95-4.95ZM50.69,33.69h6.6c1.82,0,3.3,1.48,3.3,3.3v1.65h-1.65v-1.65c0-.91-.74-1.65-1.65-1.65h-6.6c-.91,0-1.65.74-1.65,1.65v1.65h-1.65v-1.65c0-1.82,1.48-3.3,3.3-3.3ZM57.29,36.99v1.65h-6.6v-1.65h6.6ZM78.73,76.58H29.24v-26.4h6.6v1.65c0,.91.74,1.65,1.65,1.65h1.65c.91,0,1.65-.74,1.65-1.65v-1.65h26.4v1.65c0,.91.74,1.65,1.65,1.65h1.65c.91,0,1.65-.74,1.65-1.65v-1.65h6.6v26.4ZM37.49,51.84v-4.95h1.65v4.95h-1.65ZM68.83,51.84v-4.95h1.65v4.95h-1.65ZM78.73,48.54h-6.6v-1.65c0-.91-.74-1.65-1.65-1.65h-1.65c-.91,0-1.65.74-1.65,1.65v1.65h-26.4v-1.65c0-.91-.74-1.65-1.65-1.65h-1.65c-.91,0-1.65.74-1.65,1.65v1.65h-6.6v-4.95c0-1.82,1.48-3.3,3.3-3.3h42.89c1.82,0,3.3,1.48,3.3,3.3v4.95ZM55.64,55.14h-3.3c-.91,0-1.65.74-1.65,1.65v3.3h-3.3c-.91,0-1.65.74-1.65,1.65v3.3c0,.91.74,1.65,1.65,1.65h3.3v3.3c0,.91.74,1.65,1.65,1.65h3.3c.91,0,1.65-.74,1.65-1.65v-3.3h3.3c.91,0,1.65-.74,1.65-1.65v-3.3c0-.91-.74-1.65-1.65-1.65h-3.3v-3.3c0-.91-.74-1.65-1.65-1.65ZM60.59,61.73v3.3h-4.95v4.95h-3.3v-4.95h-4.95v-3.3h4.95v-4.95h3.3v4.95h4.95Z"/>
</svg>