<?xml version="1.0" encoding="UTF-8"?>
<svg id="Layer_1" data-name="Layer 1" xmlns="http://www.w3.org/2000/svg" viewBox="0 0 366.28 305.38">
  <defs>
    <style>
      .cls-1 {
        letter-spacing: -.04em;
      }

      .cls-2, .cls-3 {
        fill: #5b1112;
      }

      .cls-4 {
        letter-spacing: 0em;
      }

      .cls-5 {
        letter-spacing: 0em;
      }

      .cls-6 {
        letter-spacing: 0em;
      }

      .cls-3 {
        font-family: UrbanistRoman-Bold, Urbanist;
        font-size: 23.99px;
        font-variation-settings: 'wght' 700;
        font-weight: 700;
      }

      .cls-7 {
        letter-spacing: -.02em;
      }

      .cls-8 {
        fill: #130044;
      }

      .cls-9 {
        letter-spacing: -.01em;
      }
    </style>
  </defs>
  <path class="cls-8" d="M337.15,9c11.1,0,20.14,9.03,20.14,20.14v247.12c0,11.1-9.03,20.14-20.14,20.14H29.13c-11.1,0-20.13-9.03-20.13-20.14V29.13c0-11.1,9.03-20.14,20.13-20.14h308.02M337.15,0H29.13C13.11,0,0,13.11,0,29.13v247.12C0,292.27,13.11,305.38,29.13,305.38h308.02c16.02,0,29.13-13.11,29.13-29.13V29.13C366.28,13.11,353.18,0,337.15,0h0Z"/>
  <text class="cls-3" transform="translate(27.6 274.19)"><tspan class="cls-1" x="0" y="0">R</tspan><tspan class="cls-7" x="13.54" y="0">o</tspan><tspan class="cls-4" x="26.42" y="0">u</tspan><tspan class="cls-5" x="39.39" y="0">b</tspan><tspan x="54.02" y="0">o e </tspan><tspan class="cls-6" x="92.38" y="0">f</tspan><tspan x="101.23" y="0">ur</tspan><tspan class="cls-9" x="123.37" y="0">t</tspan><tspan x="131.7" y="0">o</tspan></text>
  <polygon class="cls-2" points="338.69 262.6 330.04 262.6 330.04 253.95 324.38 253.95 324.38 262.6 315.73 262.6 315.73 268.27 324.38 268.27 324.38 276.92 330.04 276.92 330.04 268.27 338.69 268.27 338.69 262.6"/>
  <g>
    <path class="cls-2" d="M87.01,32.93l2.23-2.23h0s.95-.96.95-.96c.52-.52.52-1.38,0-1.9-.52-.52-1.38-.52-1.9,0l-.95.95h0s-2.23,2.22-2.23,2.22c-.53.53-.53,1.38,0,1.91.53.53,1.38.53,1.91,0Z"/>
    <path class="cls-2" d="M81.04,31.15c.75,0,1.35-.6,1.35-1.35v-3.15h0v-1.34c0-.74-.6-1.34-1.34-1.34s-1.34.6-1.34,1.34v1.34h0v3.15c0,.75.6,1.35,1.35,1.35Z"/>
    <path class="cls-2" d="M88.23,35.63c-.75,0-1.35.6-1.35,1.35s.6,1.35,1.35,1.35h3.15s1.34,0,1.34,0c.74,0,1.34-.6,1.34-1.34s-.6-1.34-1.34-1.34h-1.34s-3.15,0-3.15,0Z"/>
    <path class="cls-2" d="M86.59,72.68h.01s0,0,0,0c-.66-1-1.05-2.2-1.05-3.49,0-.29.03-.57.06-.85h-15.87s-1.44,0-1.44,0c-.75,0-1.35.61-1.35,1.35s.61,1.35,1.35,1.35h14.73c.25,1.18.73,2.27,1.39,3.23h.02c.24.35.63.6,1.1.6.75,0,1.35-.6,1.35-1.35,0-.32-.13-.6-.31-.83,0,0,0,0,0,0Z"/>
    <path class="cls-2" d="M102.63,68.32s-.01,0-.02,0h-4.41c.04.28.06.56.06.85,0,3.5-2.85,6.35-6.35,6.35-.04,0-.08,0-.11,0h0s0,0,0,0c-.75,0-1.35.61-1.35,1.35s.61,1.35,1.35,1.35c.01,0,.03,0,.04,0,.03,0,.05,0,.08,0,4.36,0,8-3.09,8.86-7.2h1.86c.75,0,1.35-.61,1.35-1.36s-.6-1.35-1.35-1.35Z"/>
    <path class="cls-2" d="M108.6,63.54c-.75,0-1.35.6-1.35,1.35v-.08s-.21,1.88-.21,1.88l-.19,1.64h-.12s-.01,0-.02,0-.01,0-.02,0h0c-.73.02-1.32.61-1.32,1.35s.59,1.33,1.32,1.35h0s1.38.01,1.38.01c.69,0,1.26-.52,1.34-1.2l.54-4.77v-.14s.01-.02.01-.03c0-.75-.6-1.35-1.35-1.35Z"/>
    <path class="cls-2" d="M101.31,49.05l-3.34-.38v.03s-.08-.03-.13-.03c-.75,0-1.35.6-1.35,1.35,0,.68.52,1.23,1.18,1.32v.02s3.33.38,3.33.38c2.88.33,5.21,2.22,6.25,4.73,0,0,.65,1.35.57,2.7,0,.34-.03,1.05-.03,1.05,0,0,0,.02,0,.03,0,.75.6,1.35,1.35,1.35.64,0,1.14-.45,1.28-1.05,0,0,.07-.33.07-.34.45-5.55-3.59-10.52-9.17-11.16Z"/>
    <path class="cls-2" d="M91.59,50.64s.08.03.13.03c.75,0,1.35-.6,1.35-1.35s-.6-1.35-1.35-1.35h0s-2.46-.28-2.46-.28l-6.43-10.46c-1.96-3.19-5.51-5.18-9.26-5.18h-4.22s-.03,0-.04,0c-.75,0-1.35.6-1.35,1.35s.6,1.35,1.35,1.35h0s4.26,0,4.26,0c2.82,0,5.49,1.49,6.96,3.89l6.78,11.02c.22.35.59.59,1,.63l3.29.38v-.03Z"/>
    <path class="cls-2" d="M28.94,59.31c.75,0,1.35-.6,1.35-1.35,0,0,0,0,0,0v-3.23c0-1.34.9-2.54,2.2-2.9,3.91-1.1,7.02-4.22,8.1-8.15l.17-.62c1.35-4.9,5.84-8.32,10.92-8.32h3.03c.74,0,1.34-.61,1.34-1.35s-.6-1.34-1.34-1.35h0s-3.03,0-3.03,0c-6.29,0-11.85,4.24-13.52,10.3l-.17.62c-.83,3.01-3.21,5.41-6.22,6.26-2.45.69-4.16,2.95-4.16,5.5v3.23h0c0,.75.6,1.35,1.35,1.35Z"/>
    <path class="cls-2" d="M60.95,68.33h-9.91c.04.28.06.56.06.85,0,3.5-2.85,6.35-6.35,6.35s-6.35-2.85-6.35-6.35c0-.29.03-.57.06-.85h-8.17v-1.21s0,0,0,0c0-.75-.6-1.35-1.35-1.35s-1.35.6-1.35,1.35v2.56c0,.75.6,1.35,1.35,1.35h6.95c.86,4.11,4.5,7.2,8.86,7.2s8-3.09,8.86-7.2h4.72s2.62-.01,2.62-.01c.74,0,1.34-.6,1.34-1.34s-.6-1.34-1.34-1.34Z"/>
  </g>
</svg>