<?xml version="1.0" encoding="UTF-8"?>
<svg id="Layer_1" data-name="Layer 1" xmlns="http://www.w3.org/2000/svg" viewBox="0 0 366.28 305.38">
  <defs>
    <style>
      .cls-1 {
        letter-spacing: -.01em;
      }

      .cls-2 {
        letter-spacing: 0em;
      }

      .cls-3 {
        letter-spacing: 0em;
      }

      .cls-4 {
        letter-spacing: -.04em;
      }

      .cls-5 {
        letter-spacing: 0em;
      }

      .cls-6 {
        fill: #fff;
      }

      .cls-7 {
        letter-spacing: 0em;
      }

      .cls-8 {
        letter-spacing: -.04em;
      }

      .cls-9 {
        letter-spacing: 0em;
      }

      .cls-10 {
        letter-spacing: -.03em;
      }

      .cls-11 {
        letter-spacing: 0em;
      }

      .cls-12 {
        letter-spacing: -.01em;
      }

      .cls-13 {
        font-family: UrbanistRoman-Bold, Urbanist;
        font-size: 23.99px;
        font-variation-settings: 'wght' 700;
        font-weight: 700;
      }

      .cls-14 {
        letter-spacing: -.03em;
      }

      .cls-15 {
        letter-spacing: 0em;
      }

      .cls-16 {
        letter-spacing: -.03em;
      }

      .cls-17 {
        letter-spacing: -.02em;
      }

      .cls-18 {
        letter-spacing: 0em;
      }

      .cls-19 {
        letter-spacing: -.04em;
      }

      .cls-20 {
        letter-spacing: 0em;
      }

      .cls-21 {
        letter-spacing: -.03em;
      }

      .cls-22 {
        letter-spacing: -.01em;
      }

      .cls-23 {
        letter-spacing: 0em;
      }

      .cls-24 {
        letter-spacing: -.01em;
      }

      .cls-25 {
        letter-spacing: 0em;
      }

      .cls-26 {
        letter-spacing: 0em;
      }

      .cls-27 {
        letter-spacing: 0em;
      }

      .cls-28 {
        font-family: Urbanist-Regular, Urbanist;
        font-size: 18px;
        font-variation-settings: 'wght' 400;
      }

      .cls-29 {
        fill: #130044;
      }
    </style>
  </defs>
  <rect class="cls-29" x="0" y="0" width="366.28" height="305.38" rx="29.13" ry="29.13"/>
  <path class="cls-6" d="M39.13,52.82c-1.27,0-2.31,1.03-2.31,2.31s1.03,2.31,2.31,2.31,2.31-1.03,2.31-2.31-1.03-2.31-2.31-2.31ZM52.66,49.25h0l-16.51-16.53c-.91-.91-2.37-.91-3.28,0s-.91,2.37,0,3.28l3,2.98h-1.36c-3.82,0-6.93,3.1-6.93,6.93v18.47c0,3.82,3.1,6.93,6.93,6.93h33.68l6.23,6.26c.9.91,2.36.91,3.26.01,0,0,0,0,.01-.01.91-.9.91-2.36.01-3.26,0,0,0,0-.01-.01l-25.05-25.02ZM50.95,54.07l3.09,3.09c-.33.18-.69.27-1.06.28-1.27,0-2.31-1.03-2.31-2.31,0-.37.1-.74.28-1.06h0ZM34.52,66.68c-1.27,0-2.31-1.03-2.31-2.31v-18.47c0-1.27,1.03-2.31,2.31-2.31h5.98l7.16,7.16c-1.02,1.23-1.59,2.78-1.59,4.39,0,3.82,3.1,6.93,6.93,6.93,1.6,0,3.15-.57,4.39-1.59l6.21,6.21h-29.06ZM71.45,38.97h-16.94c-1.27,0-2.31,1.03-2.31,2.31s1.03,2.31,2.31,2.31h16.94c1.27,0,2.31,1.03,2.31,2.31v16.94c0,1.27,1.03,2.31,2.31,2.31s2.31-1.03,2.31-2.31v-16.94c0-3.82-3.1-6.93-6.93-6.93ZM69.14,55.13c0-1.27-1.03-2.31-2.31-2.31s-2.31,1.03-2.31,2.31,1.03,2.31,2.31,2.31,2.31-1.03,2.31-2.31Z"/>
  <text class="cls-6" transform="translate(27.59 119.7)"><tspan class="cls-13"><tspan class="cls-4" x="0" y="0">P</tspan><tspan class="cls-12" x="12.22" y="0">e</tspan><tspan class="cls-19" x="25.37" y="0">r</tspan><tspan class="cls-2" x="33.7" y="0">d</tspan><tspan x="48.39" y="0">a </tspan><tspan class="cls-2" x="68.52" y="0">d</tspan><tspan x="83.21" y="0">e l</tspan><tspan class="cls-2" x="108.19" y="0">u</tspan><tspan x="120.92" y="0">c</tspan><tspan class="cls-19" x="133.15" y="0">r</tspan><tspan x="141.48" y="0">o </tspan><tspan class="cls-18" x="160.67" y="0">p</tspan><tspan class="cls-12" x="175.28" y="0">o</tspan><tspan x="188.44" y="0">r </tspan></tspan><tspan class="cls-13"><tspan class="cls-7" x="0" y="28.78">i</tspan><tspan class="cls-18" x="5.71" y="28.78">n</tspan><tspan class="cls-17" x="18.85" y="28.78">c</tspan><tspan class="cls-1" x="30.71" y="28.78">ê</tspan><tspan class="cls-18" x="43.86" y="28.78">n</tspan><tspan x="57" y="28.78">d</tspan><tspan class="cls-12" x="71.88" y="28.78">i</tspan><tspan x="77.4" y="28.78">o</tspan></tspan><tspan class="cls-28"><tspan class="cls-21" x="0" y="71.98">C</tspan><tspan class="cls-26" x="12.13" y="71.98">o</tspan><tspan class="cls-24" x="22.06" y="71.98">b</tspan><tspan class="cls-5" x="32.71" y="71.98">e</tspan><tspan class="cls-27" x="42.67" y="71.98">rtu</tspan><tspan class="cls-16" x="64.6" y="71.98">r</tspan><tspan x="70.43" y="71.98">a </tspan><tspan class="cls-23" x="85.21" y="71.98">d</tspan><tspan x="95.98" y="71.98">e </tspan><tspan class="cls-20" x="110.35" y="71.98">p</tspan><tspan class="cls-5" x="120.99" y="71.98">e</tspan><tspan class="cls-10" x="130.95" y="71.98">r</tspan><tspan class="cls-23" x="136.78" y="71.98">d</tspan><tspan x="147.54" y="71.98">a </tspan><tspan class="cls-23" x="162.32" y="71.98">d</tspan><tspan x="173.09" y="71.98">e l</tspan><tspan class="cls-3" x="190.88" y="71.98">u</tspan><tspan x="200.1" y="71.98">c</tspan><tspan class="cls-10" x="209.28" y="71.98">r</tspan><tspan class="cls-24" x="215.11" y="71.98">o</tspan><tspan x="225.01" y="71.98">, </tspan></tspan><tspan class="cls-28"><tspan class="cls-23" x="0" y="93.58">de</tspan><tspan x="20.75" y="93.58">s</tspan><tspan class="cls-20" x="28.48" y="93.58">p</tspan><tspan class="cls-23" x="39.12" y="93.58">es</tspan><tspan x="56.78" y="93.58">as </tspan><tspan class="cls-3" x="79.29" y="93.58">f</tspan><tspan class="cls-24" x="85.23" y="93.58">i</tspan><tspan class="cls-8" x="88.47" y="93.58">x</tspan><tspan x="97.4" y="93.58">a</tspan><tspan class="cls-15" x="107.86" y="93.58">s</tspan><tspan x="115.56" y="93.58">, m</tspan><tspan class="cls-3" x="139.49" y="93.58">ud</tspan><tspan x="159.48" y="93.58">a</tspan><tspan class="cls-24" x="169.94" y="93.58">n</tspan><tspan class="cls-25" x="179.4" y="93.58">ç</tspan><tspan x="188.46" y="93.58">a </tspan><tspan class="cls-23" x="203.24" y="93.58">d</tspan><tspan x="214" y="93.58">e </tspan><tspan class="cls-23" x="228.37" y="93.58">l</tspan><tspan class="cls-24" x="231.73" y="93.58">o</tspan><tspan class="cls-25" x="241.63" y="93.58">c</tspan><tspan class="cls-11" x="250.68" y="93.58">a</tspan><tspan x="261.26" y="93.58">l </tspan></tspan><tspan class="cls-28"><tspan x="0" y="115.18">e </tspan><tspan class="cls-11" x="14.37" y="115.18">a</tspan><tspan x="24.95" y="115.18">l</tspan><tspan class="cls-23" x="28.37" y="115.18">u</tspan><tspan class="cls-25" x="37.59" y="115.18">g</tspan><tspan class="cls-23" x="48.05" y="115.18">u</tspan><tspan class="cls-26" x="57.27" y="115.18">e</tspan><tspan x="67.17" y="115.18">l </tspan><tspan class="cls-20" x="74.91" y="115.18">p</tspan><tspan class="cls-5" x="85.55" y="115.18">o</tspan><tspan x="95.54" y="115.18">r </tspan><tspan class="cls-24" x="106.3" y="115.18">m</tspan><tspan class="cls-22" x="122.11" y="115.18">o</tspan><tspan class="cls-23" x="131.95" y="115.18">t</tspan><tspan class="cls-25" x="138.09" y="115.18">i</tspan><tspan class="cls-14" x="141.4" y="115.18">v</tspan><tspan class="cls-23" x="150.17" y="115.18">o</tspan><tspan x="160.19" y="115.18">s </tspan><tspan class="cls-23" x="172.24" y="115.18">d</tspan><tspan x="183" y="115.18">e </tspan><tspan class="cls-9" x="197.38" y="115.18">i</tspan><tspan class="cls-24" x="200.77" y="115.18">n</tspan><tspan class="cls-25" x="210.24" y="115.18">c</tspan><tspan class="cls-5" x="219.29" y="115.18">ê</tspan><tspan class="cls-20" x="229.25" y="115.18">n</tspan><tspan x="238.72" y="115.18">d</tspan><tspan class="cls-5" x="249.55" y="115.18">i</tspan><tspan class="cls-20" x="252.88" y="115.18">o</tspan><tspan x="262.78" y="115.18">.</tspan></tspan></text>
</svg>