<?xml version="1.0" encoding="UTF-8"?>
<svg id="Layer_1" data-name="Layer 1" xmlns="http://www.w3.org/2000/svg" viewBox="0 0 366.28 305.38">
  <defs>
    <style>
      .cls-1 {
        letter-spacing: 0em;
      }

      .cls-2 {
        letter-spacing: -.04em;
      }

      .cls-3 {
        letter-spacing: 0em;
      }

      .cls-4 {
        fill: #fff;
      }

      .cls-5 {
        letter-spacing: -.01em;
      }

      .cls-6 {
        letter-spacing: 0em;
      }

      .cls-7 {
        letter-spacing: -.03em;
      }

      .cls-8 {
        letter-spacing: 0em;
      }

      .cls-9 {
        letter-spacing: 0em;
      }

      .cls-10 {
        letter-spacing: -.03em;
      }

      .cls-11 {
        font-family: UrbanistRoman-Bold, Urbanist;
        font-size: 23.99px;
        font-variation-settings: 'wght' 700;
        font-weight: 700;
      }

      .cls-12 {
        letter-spacing: -.03em;
      }

      .cls-13 {
        letter-spacing: 0em;
      }

      .cls-14 {
        letter-spacing: 0em;
      }

      .cls-15 {
        letter-spacing: 0em;
      }

      .cls-16 {
        letter-spacing: -.02em;
      }

      .cls-17 {
        letter-spacing: -.01em;
      }

      .cls-18 {
        letter-spacing: 0em;
      }

      .cls-19 {
        letter-spacing: .01em;
      }

      .cls-20 {
        letter-spacing: -.01em;
      }

      .cls-21 {
        letter-spacing: 0em;
      }

      .cls-22 {
        letter-spacing: 0em;
      }

      .cls-23 {
        letter-spacing: 0em;
      }

      .cls-24 {
        font-family: Urbanist-Regular, Urbanist;
        font-size: 18px;
        font-variation-settings: 'wght' 400;
      }

      .cls-25 {
        fill: #130044;
      }

      .cls-26 {
        letter-spacing: -.01em;
      }
    </style>
  </defs>
  <rect class="cls-25" x="0" y="0" width="366.28" height="305.38" rx="29.13" ry="29.13"/>
  <g>
    <path class="cls-4" d="M94.95,32.93l2.23-2.23h0s.95-.96.95-.96c.52-.52.52-1.38,0-1.9-.52-.52-1.38-.52-1.9,0l-.95.95h0s-2.23,2.22-2.23,2.22c-.53.53-.53,1.38,0,1.91.53.53,1.38.53,1.91,0Z"/>
    <path class="cls-4" d="M88.99,31.15c.75,0,1.35-.6,1.35-1.35v-3.15h0v-1.34c0-.74-.6-1.34-1.34-1.34s-1.34.6-1.34,1.34v1.34h0v3.15c0,.75.6,1.35,1.35,1.35Z"/>
    <path class="cls-4" d="M96.18,35.63c-.75,0-1.35.6-1.35,1.35s.6,1.35,1.35,1.35h3.15s1.34,0,1.34,0c.74,0,1.34-.6,1.34-1.34s-.6-1.34-1.34-1.34h-1.34s-3.15,0-3.15,0Z"/>
    <g>
      <path class="cls-4" d="M29.13,62.14c.11.03.21.04.32.04.6,0,1.14-.41,1.29-1.02.26-1.06.63-2.08,1.1-3.05-.14-.4-.4-.76-.8-1-.51-.3-1.1-.33-1.62-.13-.55,1.12-.98,2.31-1.28,3.54-.17.71.26,1.43.98,1.61Z"/>
      <path class="cls-4" d="M36.15,70.38l-1.31-2.66h-4.58v-1.76h4.4v-2.66c.33-2.48,1.52-4.7,3.24-6.36,0-.35-.12-.71-.34-1.02-.39-.54-1.01-.81-1.63-.77-2.16,2.13-3.62,4.97-3.95,8.15h-3.05c-.74,0-1.33.6-1.33,1.33v4.43c0,.74.6,1.33,1.33,1.33h4.21c.86,1.87,2.14,3.48,3.69,4.76.58-.07,1.11-.41,1.41-.96.2-.38.25-.8.18-1.2-.88-.74-1.66-1.61-2.27-2.6Z"/>
      <path class="cls-4" d="M54.99,41.98c.07-.55-.12-1.08-.47-1.46l-12.41-1.4c-1.03-.12-2.07.21-2.84.9-.77.69-1.22,1.68-1.22,2.72v5.85c-.25.11-.51.23-.75.35-.62.32-1.22.69-1.79,1.08-.03.46.1.92.42,1.3.37.45.9.67,1.44.66.37-.24.75-.47,1.15-.68.69-.36,1.43-.63,2.2-.81h0v-7.76c0-.38.21-.62.33-.73.12-.11.39-.29.77-.24l12.52,1.42c.35-.29.6-.71.66-1.2Z"/>
      <path class="cls-4" d="M56.27,67.71l-1.61,2.66c-1.79,2.91-4.9,4.83-8.34,5.13-.47.27-.82.74-.91,1.32-.08.51.07,1.01.36,1.39,5.12-.14,9.76-3.22,11.9-7.84h1.62c.42-.34.69-.85.69-1.43,0-.47-.18-.9-.48-1.23h-3.24Z"/>
      <path class="cls-4" d="M75.85,61.19c-.41-.28-.9-.37-1.36-.29-1.27,1.27-2.92,2.1-4.73,2.33,0,0,0,0,0,0-.02,1.44-.23,2.72-.23,2.72-.45,1.04-1.49,1.76-2.69,1.76h0c-.31.33-.51.78-.51,1.27,0,.55.25,1.04.63,1.38,2.85-.06,5.19-2.25,5.46-5.05,1.61-.58,3.05-1.54,4.22-2.8-.06-.52-.32-1.01-.79-1.33Z"/>
      <path class="cls-4" d="M83.03,56.37c-.46-.32-1.02-.39-1.53-.26-.51.91-.94,1.87-1.29,2.88-.24.7.13,1.45.83,1.69.14.05.29.07.43.07.55,0,1.07-.35,1.26-.9.28-.83.63-1.61,1.04-2.36-.1-.44-.35-.85-.75-1.12Z"/>
      <path class="cls-4" d="M104.38,51.56c.64.36,1.45.13,1.81-.51.36-.64.13-1.45-.51-1.81-1.83-1.03-3.84-1.71-5.91-2.04-.51.23-.88.71-.94,1.31-.05.51.14.98.47,1.31,1.78.27,3.51.86,5.08,1.74Z"/>
      <path class="cls-4" d="M103.57,52.93c-.48.08-.92.38-1.16.85-.27.54-.19,1.16.14,1.62,3.18,1.89,5.32,5.36,5.32,9.32,0,5.65-4.35,10.31-9.88,10.79-.4.23-.7.64-.76,1.14-.08.63.24,1.22.76,1.52,7-.49,12.55-6.33,12.55-13.46,0-5.07-2.81-9.48-6.96-11.79Z"/>
      <path class="cls-4" d="M68.99,55.4v-4.14l-.12-3.71c-.02-.1-.04-.2-.06-.3.04-1.42.73-2.76,1.86-3.64l-.06.03c.06-.03.12-.08.17-.12.02-.02.05-.04.07-.05.48-.41.62-1.11.3-1.69-.31-.57-.96-.82-1.56-.67-1.09.69-1.96,1.63-2.56,2.72-1.19-1.32-2.85-2.22-4.74-2.43h0c-.34.27-.59.67-.67,1.13-.1.57.09,1.12.44,1.53,1.97.25,3.55,1.65,4.07,3.49l.15,2.66h.03v3.86h-12.66c-1.93-1.51-4.29-2.49-6.84-2.77-.4.36-.64.88-.61,1.46.02.48.23.9.55,1.22,2.26.29,4.31,1.29,5.92,2.75h9s3.11,0,3.11,0h2.86c.74,0,1.33-.6,1.33-1.33Z"/>
      <path class="cls-4" d="M95.06,58.23l-1.27-2.38-.66-1.24-1.26-2.36-.75-1.4c.47-.2.95-.37,1.43-.52.34-.38.48-.91.33-1.43-.17-.59-.67-.99-1.24-1.07-.61.19-1.2.41-1.78.67l-1.32-2.47c.12,0,.25.01.37.01h3.08c.74,0,1.33-.6,1.33-1.33v-3.19c-.33-.31-.77-.5-1.26-.5-.57,0-1.07.26-1.41.66v1.7h-1.75c-1.55,0-2.81-1.26-2.81-2.81v-.32c0-1.08.61-2,1.5-2.47.15-.46.12-.98-.12-1.45-.25-.46-.66-.77-1.13-.9-.96.51-1.76,1.29-2.27,2.25l-2.35-4.41c-.23-.43-.68-.71-1.17-.71h-6.27c-.74,0-1.33.6-1.33,1.33s.6,1.33,1.33,1.33h5.47l2.26,4.25c-.29-.21-.6-.41-.93-.58-1.23-.64-2.61-.91-3.97-.81-.61.26-.97.93-.82,1.6.12.53.53.92,1.03,1.05.86-.06,1.74.11,2.52.52,2.08,1.09,3.03,3.58,2.2,5.77l-.2.54-1.29,2.66-1.23,2.31c.12.49.43.93.91,1.19.4.22.84.26,1.26.17l3.05-5.95c.36-.95.5-1.93.46-2.89l2.5,4.69c-.46.29-.9.61-1.33.94-.18.48-.11,1.04.25,1.47.43.52,1.14.66,1.73.41.2-.15.4-.32.61-.46l.75,1.4c-3.62,2.43-6.01,6.55-6.01,11.23,0,3.71,1.5,7.07,3.93,9.52.6.2,1.28.02,1.69-.51.3-.39.37-.87.26-1.3-1.99-1.97-3.23-4.69-3.23-7.71,0-3.66,1.82-6.9,4.61-8.86l.66,1.24,1.27,2.38,1.47,2.76c.24.45.7.71,1.18.71.21,0,.43-.05.63-.16.65-.35.89-1.15.55-1.8l-1.47-2.76Z"/>
    </g>
  </g>
  <text class="cls-4" transform="translate(27.59 119.7)"><tspan class="cls-11"><tspan class="cls-2" x="0" y="0">R</tspan><tspan class="cls-16" x="13.54" y="0">o</tspan><tspan class="cls-8" x="26.42" y="0">u</tspan><tspan class="cls-13" x="39.39" y="0">b</tspan><tspan x="54.02" y="0">o e </tspan><tspan class="cls-14" x="92.38" y="0">f</tspan><tspan x="101.23" y="0">ur</tspan><tspan class="cls-26" x="123.37" y="0">t</tspan><tspan x="131.7" y="0">o</tspan></tspan><tspan class="cls-24"><tspan class="cls-21" x="0" y="43.2">S</tspan><tspan x="10.86" y="43.2">e o </tspan><tspan class="cls-10" x="39.64" y="43.2">v</tspan><tspan class="cls-15" x="48.41" y="43.2">e</tspan><tspan class="cls-3" x="58.28" y="43.2">íc</tspan><tspan class="cls-9" x="70.69" y="43.2">u</tspan><tspan class="cls-18" x="80.1" y="43.2">l</tspan><tspan x="83.46" y="43.2">o </tspan><tspan class="cls-5" x="97.86" y="43.2">f</tspan><tspan class="cls-3" x="103.65" y="43.2">o</tspan><tspan x="113.64" y="43.2">r </tspan><tspan class="cls-7" x="124.4" y="43.2">r</tspan><tspan class="cls-15" x="130.23" y="43.2">o</tspan><tspan class="cls-9" x="140.13" y="43.2">u</tspan><tspan class="cls-20" x="149.53" y="43.2">ba</tspan><tspan class="cls-18" x="170.46" y="43.2">d</tspan><tspan x="181.22" y="43.2">o </tspan><tspan class="cls-15" x="195.62" y="43.2">o</tspan><tspan x="205.52" y="43.2">u </tspan></tspan><tspan class="cls-24"><tspan class="cls-19" x="0" y="64.8">f</tspan><tspan x="6.25" y="64.8">ur</tspan><tspan class="cls-17" x="21.97" y="64.8">t</tspan><tspan class="cls-15" x="27.94" y="64.8">a</tspan><tspan class="cls-18" x="38.21" y="64.8">d</tspan><tspan class="cls-20" x="48.98" y="64.8">o</tspan><tspan x="58.88" y="64.8">, </tspan><tspan class="cls-21" x="66.82" y="64.8">c</tspan><tspan class="cls-3" x="75.87" y="64.8">o</tspan><tspan x="85.86" y="64.8">n</tspan><tspan class="cls-17" x="95.51" y="64.8">t</tspan><tspan x="101.48" y="64.8">e </tspan><tspan class="cls-21" x="115.85" y="64.8">c</tspan><tspan class="cls-3" x="124.9" y="64.8">o</tspan><tspan x="134.89" y="64.8">m </tspan><tspan class="cls-6" x="155.2" y="64.8">i</tspan><tspan class="cls-20" x="158.6" y="64.8">n</tspan><tspan class="cls-1" x="168.07" y="64.8">d</tspan><tspan class="cls-3" x="178.83" y="64.8">e</tspan><tspan x="188.79" y="64.8">ni</tspan><tspan class="cls-3" x="201.86" y="64.8">z</tspan><tspan class="cls-20" x="210.9" y="64.8">a</tspan><tspan class="cls-21" x="221.17" y="64.8">ç</tspan><tspan class="cls-15" x="230.23" y="64.8">ã</tspan><tspan x="240.51" y="64.8">o </tspan></tspan><tspan class="cls-24"><tspan class="cls-6" x="0" y="86.4">i</tspan><tspan x="3.39" y="86.4">n</tspan><tspan class="cls-17" x="13.04" y="86.4">t</tspan><tspan class="cls-20" x="19.01" y="86.4">e</tspan><tspan x="28.88" y="86.4">g</tspan><tspan class="cls-12" x="39.46" y="86.4">r</tspan><tspan class="cls-9" x="45.29" y="86.4">a</tspan><tspan x="55.86" y="86.4">l </tspan><tspan class="cls-20" x="63.6" y="86.4">o</tspan><tspan x="73.5" y="86.4">u </tspan><tspan class="cls-15" x="87.11" y="86.4">p</tspan><tspan x="97.75" y="86.4">a</tspan><tspan class="cls-7" x="108.21" y="86.4">r</tspan><tspan class="cls-22" x="114.04" y="86.4">c</tspan><tspan class="cls-3" x="123.06" y="86.4">i</tspan><tspan class="cls-9" x="126.39" y="86.4">a</tspan><tspan x="136.96" y="86.4">l </tspan><tspan class="cls-18" x="144.7" y="86.4">d</tspan><tspan x="155.46" y="86.4">o </tspan><tspan class="cls-3" x="169.86" y="86.4">p</tspan><tspan class="cls-7" x="180.59" y="86.4">r</tspan><tspan class="cls-15" x="186.42" y="86.4">e</tspan><tspan class="cls-21" x="196.3" y="86.4">j</tspan><tspan x="200.15" y="86.4">uí</tspan><tspan class="cls-3" x="212.86" y="86.4">z</tspan><tspan class="cls-20" x="221.89" y="86.4">o</tspan><tspan class="cls-23" x="231.79" y="86.4">.</tspan></tspan></text>
</svg>