<?xml version="1.0" encoding="UTF-8"?>
<svg id="Layer_1" data-name="Layer 1" xmlns="http://www.w3.org/2000/svg" viewBox="0 0 366.28 305.38">
  <defs>
    <style>
      .cls-1 {
        letter-spacing: -.02em;
      }

      .cls-2 {
        letter-spacing: -.01em;
      }

      .cls-3 {
        letter-spacing: 0em;
      }

      .cls-4 {
        font-family: UrbanistRoman-Bold, Urbanist;
        font-size: 20px;
        font-variation-settings: 'wght' 700;
        font-weight: 700;
      }

      .cls-4, .cls-5 {
        fill: #130044;
      }

      .cls-6 {
        letter-spacing: 0em;
      }

      .cls-7 {
        letter-spacing: -.01em;
      }
    </style>
  </defs>
  <path class="cls-5" d="M337.15,9c11.1,0,20.14,9.03,20.14,20.13v247.12c0,11.1-9.03,20.13-20.14,20.13H29.13c-11.1,0-20.14-9.03-20.14-20.13V29.13c0-11.1,9.03-20.13,20.14-20.13h308.02M337.15,0H29.13C13.11,0,0,13.11,0,29.13v247.12c0,16.02,13.11,29.13,29.13,29.13h308.02c16.02,0,29.13-13.11,29.13-29.13V29.13C366.28,13.11,353.18,0,337.15,0h0Z"/>
  <text class="cls-4" transform="translate(27.59 273.28)"><tspan x="0" y="0">J</tspan><tspan class="cls-6" x="8.88" y="0">u</tspan><tspan x="19.49" y="0">d</tspan><tspan class="cls-7" x="31.89" y="0">i</tspan><tspan class="cls-1" x="36.5" y="0">c</tspan><tspan class="cls-2" x="46.32" y="0">i</tspan><tspan class="cls-3" x="50.93" y="0">a</tspan><tspan x="62.96" y="0">l</tspan></text>
  <polygon class="cls-5" points="338.69 262.6 330.04 262.6 330.04 253.95 324.38 253.95 324.38 262.6 315.73 262.6 315.73 268.27 324.38 268.27 324.38 276.92 330.04 276.92 330.04 268.27 338.69 268.27 338.69 262.6"/>
  <g>
    <path class="cls-5" d="M57.67,52.74c-.3.29-.47.68-.47,1.1,0,.42.16.81.46,1.11l.97.97c.25.25.56.41.89.47.07.33.22.64.47.89l.84.84c.33.33.77.51,1.23.51s.9-.18,1.23-.51l6.89-6.89c.68-.68.68-1.78,0-2.46l-.84-.84c-.25-.25-.56-.41-.89-.47-.07-.33-.23-.64-.48-.89l-.97-.97c-.29-.29-.69-.48-1.12-.46-.41,0-.8.16-1.08.46l-7.71-7.69c.3-.29.47-.68.47-1.1s-.16-.81-.46-1.11l-.97-.97c-.24-.24-.56-.4-.88-.46-.06-.33-.22-.65-.48-.9l-.84-.84c-.66-.66-1.8-.66-2.46,0l-6.89,6.89c-.33.33-.51.77-.51,1.23s.18.9.51,1.23l.84.84c.25.25.55.41.89.48.07.33.23.64.48.89l.97.97c.29.29.69.46,1.11.46h0c.41,0,.8-.17,1.08-.46l1.24,1.24c.23.22.23.59,0,.82l-5.64,5.64-.55-.55c-.91-.91-2.39-.91-3.3,0-.91.91-.91,2.39,0,3.3l.55.55-7.05,7.05c-.41.41-.92.7-1.49.84l-2.26.56c-.84.21-1.6.64-2.21,1.25l-.25.25c-.9.9-1.39,2.1-1.39,3.37s.5,2.47,1.39,3.37l.97.97c.9.9,2.1,1.39,3.37,1.39s2.47-.5,3.37-1.39l.25-.25c.61-.61,1.04-1.37,1.25-2.21l.56-2.26c.14-.56.43-1.08.84-1.49l7.05-7.05.55.55c.88.88,2.42.88,3.3,0,.44-.44.68-1.03.68-1.65s-.24-1.21-.68-1.65l-.55-.55,5.64-5.64c.23-.23.59-.23.82,0l1.26,1.23ZM69.13,50s0,.09-.05.13l-6.89,6.89c-.09.09-.17.09-.26,0l-.84-.84c-.07-.07-.07-.19,0-.26l6.89-6.89s.08-.05.13-.05.09.02.13.05l.84.84s.05.1.05.13ZM45.63,40.65s0-.09.05-.13l6.89-6.89s.1-.05.13-.05.09,0,.13.05l.84.84c.07.07.07.19,0,.26l-6.89,6.89c-.07.07-.19.07-.26,0l-.84-.84s-.05-.1-.05-.13ZM54.5,50.41l-6.74,6.74,1.65,1.65c.15.15.23.34.23.55s-.08.4-.23.55c-.29.29-.81.29-1.1,0l-1.65-1.65-8.15,8.15c-.61.61-1.04,1.38-1.25,2.21l-.56,2.26c-.14.56-.43,1.08-.84,1.49l-.25.25c-.61.61-1.41.94-2.27.94s-1.67-.34-2.27-.94l-.97-.97c-.61-.61-.94-1.41-.94-2.27s.33-1.66.94-2.27l.25-.25c.41-.41.93-.7,1.49-.84l2.26-.56c.84-.21,1.6-.64,2.21-1.25l8.16-8.15-1.65-1.65c-.3-.3-.3-.8,0-1.1.15-.15.35-.23.55-.23s.4.08.55.23l1.65,1.65,6.74-6.74c.83-.83.83-2.19,0-3.02l-1.24-1.24c-.29-.29-.68-.46-1.1-.46h-.01c-.42,0-.81.17-1.09.46l-.97-.97s-.05-.1-.05-.13,0-.09.05-.13l6.89-6.89c.09-.09.17-.09.26,0l.97.97c-.29.29-.46.67-.46,1.09,0,.42.16.82.46,1.12l7.7,7.7c.29.29.68.46,1.1.46h.01c.42,0,.81-.17,1.09-.46l.97.97s.05.09.05.13,0,.09-.05.13l-6.89,6.89h0c-.07.07-.19.07-.26,0l-.97-.97c.29-.29.46-.67.46-1.08,0-.41-.16-.82-.46-1.12l-1.24-1.24c-.83-.83-2.19-.83-3.02,0Z"/>
    <path class="cls-5" d="M68.82,72.01h-7c-3,0-5.45,2.44-5.45,5.45v.78h17.89v-.78c0-3-2.44-5.45-5.45-5.45ZM58.01,76.68c.36-1.77,1.93-3.11,3.81-3.11h7c1.88,0,3.45,1.34,3.81,3.11h-14.62Z"/>
    <path class="cls-5" d="M60.27,69.67c-.43,0-.78.35-.78.78s.35.78.78.78h10.11c.43,0,.78-.35.78-.78s-.35-.78-.78-.78h-10.11Z"/>
  </g>
</svg>