<?xml version="1.0" encoding="UTF-8"?>
<svg id="Layer_1" data-name="Layer 1" xmlns="http://www.w3.org/2000/svg" viewBox="0 0 366.28 305.38">
  <defs>
    <style>
      .cls-1 {
        letter-spacing: 0em;
      }

      .cls-2 {
        letter-spacing: 0em;
      }

      .cls-3 {
        font-family: Urbanist-Regular, Urbanist;
        font-size: 16px;
        font-variation-settings: 'wght' 400;
      }

      .cls-3, .cls-4 {
        fill: #fff;
      }

      .cls-5 {
        letter-spacing: 0em;
      }

      .cls-6 {
        letter-spacing: 0em;
      }

      .cls-7 {
        letter-spacing: -.01em;
      }

      .cls-8 {
        letter-spacing: 0em;
      }

      .cls-9 {
        letter-spacing: 0em;
      }

      .cls-10 {
        letter-spacing: -.03em;
      }

      .cls-11 {
        letter-spacing: 0em;
      }

      .cls-12 {
        letter-spacing: -.01em;
      }

      .cls-13 {
        letter-spacing: -.03em;
      }

      .cls-14 {
        letter-spacing: 0em;
      }

      .cls-15 {
        letter-spacing: -.01em;
      }

      .cls-16 {
        letter-spacing: 0em;
      }

      .cls-17 {
        fill: #130044;
      }
    </style>
  </defs>
  <rect class="cls-17" x="0" y="0" width="366.28" height="305.38" rx="29.13" ry="29.13"/>
  <text class="cls-3" transform="translate(27.59 113.71)"><tspan x="0" y="0">O</tspan><tspan class="cls-7" x="12.32" y="0">f</tspan><tspan class="cls-16" x="17.47" y="0">e</tspan><tspan class="cls-13" x="26.33" y="0">r</tspan><tspan class="cls-11" x="31.51" y="0">e</tspan><tspan class="cls-2" x="40.29" y="0">c</tspan><tspan class="cls-8" x="48.34" y="0">e </tspan><tspan class="cls-16" x="61.11" y="0">g</tspan><tspan x="70.43" y="0">a</tspan><tspan class="cls-10" x="79.73" y="0">r</tspan><tspan x="84.91" y="0">an</tspan><tspan class="cls-6" x="102.78" y="0">t</tspan><tspan class="cls-16" x="108.25" y="0">i</tspan><tspan x="111.21" y="0">as </tspan><tspan class="cls-15" x="131.22" y="0">p</tspan><tspan x="140.67" y="0">a</tspan><tspan class="cls-13" x="149.97" y="0">r</tspan><tspan x="155.15" y="0">a </tspan><tspan class="cls-5" x="168.29" y="0">o</tspan><tspan x="177.19" y="0">s </tspan><tspan class="cls-1" x="187.9" y="0">p</tspan><tspan class="cls-10" x="197.44" y="0">r</tspan><tspan class="cls-11" x="202.62" y="0">e</tspan><tspan class="cls-14" x="211.4" y="0">j</tspan><tspan x="214.82" y="0">uí</tspan><tspan class="cls-1" x="226.12" y="0">z</tspan><tspan class="cls-5" x="234.15" y="0">o</tspan><tspan x="243.05" y="0">s </tspan><tspan class="cls-15" x="0" y="19.2">p</tspan><tspan x="9.46" y="19.2">a</tspan><tspan class="cls-10" x="18.75" y="19.2">r</tspan><tspan x="23.94" y="19.2">a </tspan><tspan class="cls-6" x="37.07" y="19.2">o</tspan><tspan x="45.98" y="19.2">s </tspan><tspan class="cls-2" x="56.69" y="19.2">c</tspan><tspan x="64.74" y="19.2">a</tspan><tspan class="cls-5" x="74.03" y="19.2">so</tspan><tspan x="89.75" y="19.2">s </tspan><tspan class="cls-6" x="100.46" y="19.2">de</tspan><tspan x="118.91" y="19.2">s</tspan><tspan class="cls-12" x="125.78" y="19.2">t</tspan><tspan class="cls-15" x="131.09" y="19.2">a</tspan><tspan class="cls-2" x="140.22" y="19.2">c</tspan><tspan class="cls-11" x="148.27" y="19.2">a</tspan><tspan class="cls-6" x="157.41" y="19.2">do</tspan><tspan x="175.88" y="19.2">s </tspan><tspan class="cls-6" x="186.59" y="19.2">d</tspan><tspan x="196.16" y="19.2">a </tspan><tspan class="cls-14" x="0" y="38.4">c</tspan><tspan class="cls-9" x="8.05" y="38.4">o</tspan><tspan class="cls-11" x="16.87" y="38.4">b</tspan><tspan class="cls-1" x="26.34" y="38.4">e</tspan><tspan x="35.19" y="38.4">rtu</tspan><tspan class="cls-13" x="54.69" y="38.4">r</tspan><tspan x="59.87" y="38.4">a.</tspan></text>
  <path class="cls-4" d="M50.69,78.22c-.55,0-1.07-.3-1.34-.78l-4.6-7.97-8.89,2.38c-.54.14-1.11,0-1.5-.4-.39-.39-.55-.96-.4-1.5l2.38-8.89-7.97-4.6c-.48-.28-.78-.79-.78-1.34s.3-1.07.78-1.34l7.97-4.6-2.38-8.89c-.14-.54,0-1.11.4-1.5.39-.39.96-.54,1.5-.4l8.89,2.38,4.6-7.97c.28-.48.79-.78,1.34-.78s1.07.3,1.34.78l4.6,7.97,8.89-2.38c.54-.14,1.11,0,1.5.4.39.39.55.96.4,1.5l-2.38,8.89,7.97,4.6c.48.28.78.79.78,1.34s-.3,1.07-.78,1.34l-7.97,4.6,2.38,8.89c.14.54,0,1.11-.4,1.5s-.96.55-1.5.4l-8.89-2.38-4.6,7.97c-.28.48-.79.78-1.34.78ZM45.49,66.11c.54,0,1.06.29,1.34.78l3.85,6.67,3.85-6.67c.35-.61,1.07-.9,1.75-.72l7.44,1.99-1.99-7.44c-.18-.68.11-1.39.72-1.75l6.67-3.85-6.67-3.85c-.61-.35-.91-1.07-.72-1.75l1.99-7.44-7.44,1.99c-.68.18-1.39-.12-1.75-.72l-3.85-6.67-3.85,6.67c-.35.61-1.07.9-1.75.72l-7.44-1.99,1.99,7.44c.18.68-.11,1.39-.72,1.75l-6.67,3.85,6.67,3.85c.61.35.91,1.07.72,1.75l-1.99,7.44,7.44-1.99c.13-.04.27-.05.4-.05Z"/>
</svg>