<?xml version="1.0" encoding="UTF-8"?>
<svg id="Layer_1" data-name="Layer 1" xmlns="http://www.w3.org/2000/svg" viewBox="0 0 366.28 305.38">
  <defs>
    <style>
      .cls-1 {
        letter-spacing: -.04em;
      }

      .cls-2 {
        letter-spacing: 0em;
      }

      .cls-3 {
        letter-spacing: 0em;
      }

      .cls-4 {
        letter-spacing: -.02em;
      }

      .cls-5 {
        font-family: UrbanistRoman-Bold, Urbanist;
        font-size: 23.99px;
        font-variation-settings: 'wght' 700;
        font-weight: 700;
      }

      .cls-5, .cls-6 {
        fill: #130044;
      }

      .cls-7 {
        letter-spacing: -.01em;
      }

      .cls-8 {
        letter-spacing: 0em;
      }
    </style>
  </defs>
  <path class="cls-6" d="M337.15,8.99c11.1,0,20.13,9.03,20.13,20.14v247.12c0,11.1-9.03,20.14-20.13,20.14H29.13c-11.1,0-20.13-9.03-20.13-20.14V29.13c0-11.1,9.03-20.14,20.13-20.14h308.02M337.15,0H29.13C13.11,0,0,13.11,0,29.13v247.12c0,16.02,13.11,29.13,29.13,29.13h308.02c16.02,0,29.13-13.11,29.13-29.13V29.13C366.28,13.11,353.18,0,337.15,0h0Z"/>
  <text class="cls-5" transform="translate(27.59 274.19)"><tspan class="cls-1" x="0" y="0">R</tspan><tspan class="cls-4" x="13.54" y="0">o</tspan><tspan class="cls-2" x="26.42" y="0">u</tspan><tspan class="cls-8" x="39.39" y="0">b</tspan><tspan x="54.02" y="0">o e </tspan><tspan class="cls-3" x="92.38" y="0">f</tspan><tspan x="101.23" y="0">ur</tspan><tspan class="cls-7" x="123.37" y="0">t</tspan><tspan x="131.7" y="0">o</tspan></text>
  <polygon class="cls-6" points="338.69 262.6 330.04 262.6 330.04 253.95 324.38 253.95 324.38 262.6 315.73 262.6 315.73 268.27 324.38 268.27 324.38 276.92 330.04 276.92 330.04 268.27 338.69 268.27 338.69 262.6"/>
  <g>
    <path class="cls-6" d="M33.15,44.79c0,.5.4.9.9.9s.9-.4.9-.9v-2.43h0v-8.52h3.13s.26,0,.26,0c.5,0,.9-.4.9-.9s-.4-.9-.9-.9h-5.19v12.37h0v.38Z"/>
    <path class="cls-6" d="M45.47,33.84h.11s21.99,0,21.99,0h0s.32,0,.32,0c.5,0,.9-.4.9-.9s-.4-.9-.9-.9h-22.41c-.5,0-.9.4-.9.9s.4.9.9.9Z"/>
    <path class="cls-6" d="M76.51,33.84h.67s2.19,0,2.19,0v7.36h0v1.7c0,.5.4.9.9.9s.9-.4.9-.9v-10.87h-4.67c-.5,0-.9.4-.9.9s.4.9.9.9Z"/>
    <path class="cls-6" d="M78.42,34.84h-18.68c-.5,0-.9.4-.9.9s.4.9.9.9h16.87v.65h-.02v2.43c0,.5.4.9.9.9s.9-.4.9-.9v-1.5h.02v-3.38Z"/>
    <path class="cls-6" d="M38.67,74.59h2.43c.5,0,.9-.4.9-.9s-.4-.9-.9-.9h-3.05c-.5,0-.9.4-.9.9s.4.9.9.9h.62Z"/>
    <path class="cls-6" d="M54.74,36.64c.5,0,.9-.4.9-.9s-.4-.9-.9-.9h-18.83v14.7c0,.5.4.9.9.9s.9-.4.9-.9v-12.9h17.03Z"/>
    <path class="cls-6" d="M37.71,56.42v-2.02c0-.5-.4-.9-.9-.9s-.9.4-.9.9v4.46h7.2c.5,0,.9-.4.9-.9s-.4-.9-.9-.9h-1.45s-3.95,0-3.95,0v-.64Z"/>
    <path class="cls-6" d="M51.02,58.86h16.49c.5,0,.9-.4.9-.9s-.4-.9-.9-.9h-1.26s-14.39,0-14.39,0h0s-.84,0-.84,0c-.5,0-.9.4-.9.9s.4.9.9.9Z"/>
    <path class="cls-6" d="M77.52,44.67c-.5,0-.9.4-.9.9v11.48h-1.68s-1.65,0-1.65,0c-.5,0-.9.4-.9.9s.4.9.9.9h5.13v-13.28c0-.5-.4-.9-.9-.9Z"/>
    <path class="cls-6" d="M50.05,76.43h-11.6c-.5,0-.9.4-.9.9s.4.9.9.9h11.6c.5,0,.9-.4.9-.9s-.4-.9-.9-.9Z"/>
    <path class="cls-6" d="M74.62,76.43h-16.1c-.5,0-.9.4-.9.9s.4.9.9.9h16.1c.5,0,.9-.4.9-.9s-.4-.9-.9-.9Z"/>
    <path class="cls-6" d="M70.97,74.59c.5,0,.9-.4.9-.9s-.4-.9-.9-.9h-1.44s-8.29,0-8.29,0h0s-1.33,0-1.33,0c-.5,0-.9.4-.9.9s.4.9.9.9h2.43s6.21,0,6.21,0h0s2.43,0,2.43,0Z"/>
    <path class="cls-6" d="M53.67,72.79h-1.66s-5.9,0-5.9,0h0s-.1,0-.1,0c-.5,0-.9.4-.9.9s.4.9.9.9h2.43s2.81,0,2.81,0h2.43c.5,0,.9-.4.9-.9s-.4-.9-.9-.9Z"/>
    <path class="cls-6" d="M33.27,72.79h-.12s-3.31,0-3.31,0l.84-1.96.58-1.36s0,0,0,0v-.02s0,0,0,0c.18-.45-.03-.97-.48-1.16-.46-.2-.99.01-1.18.47l-.3.69h0l-.4.93-.26.61h0s-1.05,2.46-1.05,2.46v4.78h4.72c.5,0,.9-.4.9-.9s-.4-.9-.9-.9h-2.92v-1.84h1.45s2.43,0,2.43,0c.5,0,.9-.4.9-.9s-.4-.9-.9-.9Z"/>
    <path class="cls-6" d="M79.7,61.62l.32.76h0l.63,1.47c.2.46.72.67,1.18.47.46-.2.67-.72.47-1.18l-.95-2.23h0s-.18-.41-.18-.41v-11.26c0-.5-.4-.9-.9-.9s-.9.4-.9.9v2.23h0v8.34h-1.58s-2.43,0-2.43,0c-.5,0-.9.4-.9.9s.4.9.9.9h.28s4.05,0,4.05,0Z"/>
    <path class="cls-6" d="M85.18,69.83h0s-.95-2.23-.95-2.23c-.2-.46-.72-.67-1.18-.47-.46.2-.67.72-.47,1.18l.21.49h0l1.71,4h-6.85s-.3,0-.3,0c-.5,0-.9.4-.9.9s.4.9.9.9h2.43s5.16,0,5.16,0v1.84h-3.83c-.5,0-.9.4-.9.9s.4.9.9.9h5.64v-4.78l-1.55-3.62Z"/>
    <path class="cls-6" d="M44.62,61.62h2.43c.5,0,.9-.4.9-.9s-.4-.9-.9-.9h-1.76s-10.35,0-10.35,0v-8.96h-.01c-.03-.47-.41-.85-.89-.85s-.86.38-.89.85h-.01v9.64l-.73,1.7h0s-.23.53-.23.53l-.35.82h0l-.38.89c-.2.46.02.99.47,1.18s.99-.02,1.18-.47l.68-1.59h0l.82-1.92h10Z"/>
    <path class="cls-6" d="M67.87,61.62h2.43c.5,0,.9-.4.9-.9s-.4-.9-.9-.9h-.83s-14.67,0-14.67,0h0s-.13,0-.13,0c-.5,0-.9.4-.9.9s.4.9.9.9h2.43s10.78,0,10.78,0h0Z"/>
  </g>
</svg>