<?xml version="1.0" encoding="UTF-8"?>
<svg id="Layer_1" data-name="Layer 1" xmlns="http://www.w3.org/2000/svg" viewBox="0 0 366.28 305.38">
  <defs>
    <style>
      .cls-1 {
        letter-spacing: 0em;
      }

      .cls-2 {
        letter-spacing: 0em;
      }

      .cls-3 {
        letter-spacing: 0em;
      }

      .cls-4 {
        fill: #fff;
      }

      .cls-5 {
        letter-spacing: 0em;
      }

      .cls-6 {
        letter-spacing: -.04em;
      }

      .cls-7 {
        letter-spacing: 0em;
      }

      .cls-8 {
        letter-spacing: -.01em;
      }

      .cls-9 {
        letter-spacing: -.03em;
      }

      .cls-10 {
        letter-spacing: 0em;
      }

      .cls-11 {
        letter-spacing: -.01em;
      }

      .cls-12 {
        font-family: UrbanistRoman-Bold, Urbanist;
        font-size: 23.99px;
        font-variation-settings: 'wght' 700;
        font-weight: 700;
      }

      .cls-13 {
        letter-spacing: -.04em;
      }

      .cls-14 {
        letter-spacing: -.03em;
      }

      .cls-15 {
        letter-spacing: -.02em;
      }

      .cls-16 {
        letter-spacing: -.01em;
      }

      .cls-17 {
        letter-spacing: 0em;
      }

      .cls-18 {
        letter-spacing: -.02em;
      }

      .cls-19 {
        letter-spacing: 0em;
      }

      .cls-20 {
        letter-spacing: 0em;
      }

      .cls-21 {
        letter-spacing: 0em;
      }

      .cls-22 {
        letter-spacing: -.01em;
      }

      .cls-23 {
        letter-spacing: -.04em;
      }

      .cls-24 {
        letter-spacing: 0em;
      }

      .cls-25 {
        letter-spacing: -.01em;
      }

      .cls-26 {
        letter-spacing: 0em;
      }

      .cls-27 {
        letter-spacing: 0em;
      }

      .cls-28 {
        font-family: Urbanist-Regular, Urbanist;
        font-size: 18px;
        font-variation-settings: 'wght' 400;
      }

      .cls-29 {
        letter-spacing: 0em;
      }

      .cls-30 {
        fill: #130044;
      }

      .cls-31 {
        letter-spacing: -.01em;
      }
    </style>
  </defs>
  <rect class="cls-30" x="0" y="0" width="366.28" height="305.38" rx="29.13" ry="29.13"/>
  <path class="cls-4" d="M50.66,32.04c-12.75.01-23.07,10.35-23.07,23.1,0,12.76,10.34,23.1,23.1,23.1s23.1-10.34,23.1-23.1-10.34-23.1-23.1-23.1c0,0-.02,0-.02,0ZM51.84,34.66c2.43.41,4.76,2.42,6.59,5.74.59,1.07,1.12,2.28,1.57,3.58h-8.16v-9.32ZM49.53,34.75v9.23h-7.74c.46-1.3.98-2.51,1.57-3.58,1.72-3.13,3.89-5.09,6.16-5.65h0ZM44.21,35.38c-1.07,1.09-2.04,2.41-2.87,3.91-.78,1.41-1.44,2.99-1.99,4.69h-6.22c2.56-4.02,6.46-7.1,11.07-8.61ZM57.8,35.59c4.34,1.58,8,4.56,10.44,8.39h-5.79c-.55-1.71-1.21-3.29-1.99-4.69-.77-1.41-1.67-2.66-2.66-3.7h0ZM31.87,46.3h6.84c-.58,2.38-.93,4.97-1.02,7.68h-7.76c.14-2.66.8-5.27,1.93-7.68h0ZM41.09,46.3h8.44v7.68h-9.53c.1-2.74.48-5.34,1.09-7.68h0ZM51.84,46.3h8.87c.61,2.35.99,4.94,1.09,7.68h-9.96v-7.68h0ZM63.09,46.3h6.42c1.13,2.41,1.79,5.02,1.93,7.68h-7.33c-.09-2.71-.44-5.3-1.02-7.68h0ZM29.94,56.29h7.74c.06,2.7.38,5.29.92,7.68h-6.73c-1.13-2.41-1.79-5.02-1.93-7.68ZM39.99,56.29h9.55v7.68h-8.55c-.58-2.36-.93-4.95-.99-7.68ZM51.84,56.29h9.97c-.06,2.73-.42,5.33-.99,7.68h-8.98v-7.68ZM64.12,56.29h7.32c-.14,2.66-.8,5.27-1.93,7.68h-6.31c.54-2.39.86-4.98.92-7.68h0ZM33.14,66.28h6.07c.57,1.89,1.29,3.62,2.14,5.16.66,1.21,1.42,2.3,2.24,3.24-4.35-1.58-8.01-4.56-10.45-8.4h0ZM41.64,66.28h7.9v9.61c-.14,0-.28-.02-.42-.03-2.12-.69-4.12-2.6-5.74-5.53-.66-1.2-1.24-2.56-1.73-4.04h0ZM51.84,66.28h8.32c-.49,1.49-1.07,2.84-1.73,4.04-1.58,2.88-3.54,4.76-5.61,5.49-.33.03-.65.06-.98.07v-9.61ZM62.59,66.28h5.64c-2.34,3.68-5.77,6.53-9.81,8.15.74-.89,1.42-1.89,2.03-2.99.85-1.54,1.56-3.27,2.14-5.16h0Z"/>
  <text class="cls-4" transform="translate(27.59 119.7)"><tspan class="cls-12"><tspan class="cls-15" x="0" y="0">G</tspan><tspan x="18.06" y="0">a</tspan><tspan class="cls-13" x="32.43" y="0">r</tspan><tspan class="cls-7" x="40.77" y="0">an</tspan><tspan class="cls-20" x="68.52" y="0">t</tspan><tspan class="cls-11" x="76.92" y="0">i</tspan><tspan x="82.45" y="0">a </tspan><tspan class="cls-5" x="102.58" y="0">i</tspan><tspan x="108.29" y="0">n</tspan><tspan class="cls-31" x="121.67" y="0">t</tspan><tspan class="cls-11" x="129.99" y="0">er</tspan><tspan class="cls-17" x="152.1" y="0">na</tspan><tspan class="cls-18" x="179.37" y="0">c</tspan><tspan class="cls-11" x="191.15" y="0">io</tspan><tspan class="cls-17" x="209.83" y="0">n</tspan><tspan class="cls-10" x="222.98" y="0">a</tspan><tspan x="237.41" y="0">l</tspan></tspan><tspan class="cls-28"><tspan class="cls-23" x="0" y="43.2">P</tspan><tspan class="cls-24" x="8.68" y="43.2">o</tspan><tspan x="18.69" y="43.2">s</tspan><tspan class="cls-3" x="26.42" y="43.2">s</tspan><tspan class="cls-21" x="34.07" y="43.2">i</tspan><tspan class="cls-25" x="37.55" y="43.2">b</tspan><tspan class="cls-21" x="48.19" y="43.2">i</tspan><tspan x="51.68" y="43.2">li</tspan><tspan class="cls-22" x="58.52" y="43.2">t</tspan><tspan x="64.48" y="43.2">a a </tspan><tspan class="cls-6" x="94.04" y="43.2">e</tspan><tspan x="103.37" y="43.2">x</tspan><tspan class="cls-22" x="112.96" y="43.2">t</tspan><tspan class="cls-3" x="118.93" y="43.2">e</tspan><tspan x="128.89" y="43.2">n</tspan><tspan class="cls-24" x="138.54" y="43.2">s</tspan><tspan class="cls-19" x="146.2" y="43.2">ã</tspan><tspan x="156.48" y="43.2">o </tspan><tspan class="cls-24" x="170.88" y="43.2">d</tspan><tspan x="181.65" y="43.2">as </tspan></tspan><tspan class="cls-28"><tspan class="cls-3" x="0" y="64.8">g</tspan><tspan x="10.48" y="64.8">a</tspan><tspan class="cls-9" x="20.94" y="64.8">r</tspan><tspan x="26.77" y="64.8">an</tspan><tspan class="cls-2" x="46.88" y="64.8">t</tspan><tspan class="cls-3" x="53.03" y="64.8">i</tspan><tspan x="56.36" y="64.8">as </tspan><tspan class="cls-26" x="78.87" y="64.8">c</tspan><tspan class="cls-3" x="87.92" y="64.8">o</tspan><tspan x="97.91" y="64.8">nt</tspan><tspan class="cls-9" x="113.77" y="64.8">r</tspan><tspan x="119.6" y="64.8">a</tspan><tspan class="cls-22" x="130.06" y="64.8">t</tspan><tspan class="cls-25" x="136.03" y="64.8">a</tspan><tspan class="cls-24" x="146.3" y="64.8">d</tspan><tspan x="157.07" y="64.8">as </tspan><tspan class="cls-26" x="179.58" y="64.8">q</tspan><tspan class="cls-2" x="190.28" y="64.8">u</tspan><tspan x="199.5" y="64.8">e </tspan></tspan><tspan class="cls-28"><tspan class="cls-19" x="0" y="86.4">a</tspan><tspan class="cls-1" x="10.28" y="86.4">c</tspan><tspan class="cls-29" x="19.33" y="86.4">o</tspan><tspan x="29.32" y="86.4">n</tspan><tspan class="cls-16" x="38.97" y="86.4">t</tspan><tspan class="cls-19" x="44.94" y="86.4">e</tspan><tspan class="cls-26" x="54.81" y="86.4">c</tspan><tspan class="cls-3" x="63.86" y="86.4">e</tspan><tspan class="cls-9" x="73.83" y="86.4">r</tspan><tspan class="cls-3" x="79.66" y="86.4">e</tspan><tspan x="89.62" y="86.4">m </tspan><tspan class="cls-8" x="109.94" y="86.4">f</tspan><tspan class="cls-3" x="115.73" y="86.4">o</tspan><tspan class="cls-9" x="125.72" y="86.4">r</tspan><tspan x="131.55" y="86.4">a </tspan><tspan class="cls-24" x="146.33" y="86.4">d</tspan><tspan x="157.1" y="86.4">o B</tspan><tspan class="cls-14" x="181.53" y="86.4">r</tspan><tspan x="187.36" y="86.4">a</tspan><tspan class="cls-3" x="197.82" y="86.4">s</tspan><tspan class="cls-27" x="205.46" y="86.4">i</tspan><tspan x="208.94" y="86.4">l.</tspan></tspan></text>
</svg>