<?xml version="1.0" encoding="UTF-8"?>
<svg id="Layer_1" data-name="Layer 1" xmlns="http://www.w3.org/2000/svg" viewBox="0 0 366.28 305.38">
  <defs>
    <style>
      .cls-1 {
        letter-spacing: 0em;
      }

      .cls-2 {
        letter-spacing: 0em;
      }

      .cls-3 {
        letter-spacing: 0em;
      }

      .cls-4 {
        letter-spacing: -.01em;
      }

      .cls-5 {
        letter-spacing: 0em;
      }

      .cls-6, .cls-7 {
        fill: #fff;
      }

      .cls-7 {
        fill-rule: evenodd;
      }

      .cls-8 {
        letter-spacing: 0em;
      }

      .cls-9 {
        letter-spacing: 0em;
      }

      .cls-10 {
        letter-spacing: -.03em;
      }

      .cls-11 {
        letter-spacing: -.01em;
      }

      .cls-12 {
        letter-spacing: 0em;
      }

      .cls-13 {
        letter-spacing: 0em;
      }

      .cls-14 {
        font-family: UrbanistRoman-Bold, Urbanist;
        font-size: 23.99px;
        font-variation-settings: 'wght' 700;
        font-weight: 700;
      }

      .cls-15 {
        letter-spacing: -.03em;
      }

      .cls-16 {
        letter-spacing: -.01em;
      }

      .cls-17 {
        letter-spacing: -.02em;
      }

      .cls-18 {
        letter-spacing: 0em;
      }

      .cls-19 {
        letter-spacing: -.01em;
      }

      .cls-20 {
        letter-spacing: 0em;
      }

      .cls-21 {
        letter-spacing: 0em;
      }

      .cls-22 {
        letter-spacing: 0em;
      }

      .cls-23 {
        font-family: Urbanist-Regular, Urbanist;
        font-size: 18px;
        font-variation-settings: 'wght' 400;
      }

      .cls-24 {
        letter-spacing: 0em;
      }

      .cls-25 {
        letter-spacing: -.02em;
      }

      .cls-26 {
        fill: #130044;
      }
    </style>
  </defs>
  <rect class="cls-26" x="0" y="0" width="366.28" height="305.38" rx="29.13" ry="29.13"/>
  <path class="cls-7" d="M44.94,32.11c.92.25,1.55,1.08,1.55,2.03v14.7h12.6c.75,0,1.45.4,1.82,1.05.37.65.37,1.45,0,2.1l-14.7,25.2c-.48.82-1.45,1.22-2.36.97-.92-.25-1.55-1.08-1.55-2.03v-14.7h-12.6c-.75,0-1.45-.4-1.82-1.05-.37-.65-.37-1.45,0-2.1l14.7-25.2c.48-.82,1.45-1.22,2.36-.97ZM33.35,57.23h11.04c1.16,0,2.1.94,2.1,2.1v9.03l8.94-15.33h-11.04c-1.16,0-2.1-.94-2.1-2.1v-9.03l-8.94,15.33Z"/>
  <text class="cls-6" transform="translate(27.59 119.7)"><tspan class="cls-14"><tspan class="cls-17" x="0" y="0">D</tspan><tspan x="15.75" y="0">a</tspan><tspan class="cls-12" x="30.11" y="0">n</tspan><tspan class="cls-1" x="43.26" y="0">o</tspan><tspan x="56.51" y="0">s </tspan><tspan class="cls-25" x="72.69" y="0">e</tspan><tspan class="cls-1" x="85.66" y="0">l</tspan><tspan class="cls-11" x="91.28" y="0">é</tspan><tspan x="104.44" y="0">t</tspan><tspan class="cls-17" x="113.02" y="0">r</tspan><tspan class="cls-4" x="121.89" y="0">i</tspan><tspan class="cls-17" x="127.42" y="0">c</tspan><tspan class="cls-1" x="139.28" y="0">o</tspan><tspan x="152.53" y="0">s</tspan></tspan><tspan class="cls-23"><tspan class="cls-15" x="0" y="43.2">C</tspan><tspan class="cls-21" x="12.13" y="43.2">o</tspan><tspan class="cls-19" x="22.06" y="43.2">b</tspan><tspan class="cls-5" x="32.71" y="43.2">e</tspan><tspan class="cls-22" x="42.67" y="43.2">rtu</tspan><tspan class="cls-10" x="64.6" y="43.2">r</tspan><tspan x="70.43" y="43.2">a </tspan><tspan class="cls-19" x="85.21" y="43.2">a</tspan><tspan x="95.49" y="43.2">d</tspan><tspan class="cls-5" x="106.32" y="43.2">i</tspan><tspan class="cls-21" x="109.65" y="43.2">c</tspan><tspan class="cls-5" x="118.66" y="43.2">io</tspan><tspan class="cls-13" x="131.98" y="43.2">n</tspan><tspan class="cls-9" x="141.45" y="43.2">a</tspan><tspan x="152.03" y="43.2">l: </tspan><tspan class="cls-8" x="163.01" y="43.2">i</tspan><tspan class="cls-19" x="166.4" y="43.2">n</tspan><tspan class="cls-18" x="175.87" y="43.2">d</tspan><tspan class="cls-24" x="186.63" y="43.2">e</tspan><tspan x="196.6" y="43.2">ni</tspan><tspan class="cls-5" x="209.66" y="43.2">z</tspan><tspan class="cls-19" x="218.7" y="43.2">a</tspan><tspan class="cls-20" x="228.98" y="43.2">ç</tspan><tspan class="cls-13" x="238.03" y="43.2">ã</tspan><tspan x="248.31" y="43.2">o </tspan></tspan><tspan class="cls-23"><tspan class="cls-13" x="0" y="64.8">p</tspan><tspan class="cls-5" x="10.64" y="64.8">o</tspan><tspan x="20.63" y="64.8">r </tspan><tspan class="cls-18" x="31.38" y="64.8">d</tspan><tspan x="42.15" y="64.8">a</tspan><tspan class="cls-19" x="52.6" y="64.8">n</tspan><tspan class="cls-3" x="62.07" y="64.8">o</tspan><tspan x="72.09" y="64.8">s </tspan><tspan class="cls-2" x="84.14" y="64.8">e</tspan><tspan class="cls-18" x="94.04" y="64.8">l</tspan><tspan class="cls-16" x="97.4" y="64.8">é</tspan><tspan x="107.21" y="64.8">t</tspan><tspan class="cls-20" x="113.42" y="64.8">r</tspan><tspan class="cls-5" x="119.74" y="64.8">i</tspan><tspan class="cls-20" x="123.07" y="64.8">c</tspan><tspan class="cls-18" x="132.12" y="64.8">o</tspan><tspan class="cls-8" x="142.14" y="64.8">s</tspan><tspan x="149.84" y="64.8">.</tspan></tspan></text>
</svg>