<?xml version="1.0" encoding="UTF-8"?>
<svg id="Layer_1" data-name="Layer 1" xmlns="http://www.w3.org/2000/svg" viewBox="0 0 366.28 305.38">
  <defs>
    <style>
      .cls-1 {
        letter-spacing: 0em;
      }

      .cls-2 {
        letter-spacing: 0em;
      }

      .cls-3 {
        letter-spacing: 0em;
      }

      .cls-4 {
        letter-spacing: 0em;
      }

      .cls-5 {
        fill: #fff;
      }

      .cls-6 {
        letter-spacing: -.01em;
      }

      .cls-7 {
        letter-spacing: 0em;
      }

      .cls-8 {
        font-family: UrbanistRoman-Bold, Urbanist;
        font-size: 20px;
        font-variation-settings: 'wght' 700;
        font-weight: 700;
      }

      .cls-9 {
        letter-spacing: -.03em;
      }

      .cls-10 {
        letter-spacing: 0em;
      }

      .cls-11 {
        letter-spacing: -.03em;
      }

      .cls-12 {
        letter-spacing: -.01em;
      }

      .cls-13 {
        letter-spacing: 0em;
      }

      .cls-14 {
        letter-spacing: -.02em;
      }

      .cls-15 {
        letter-spacing: -.03em;
      }

      .cls-16 {
        letter-spacing: -.01em;
      }

      .cls-17 {
        letter-spacing: -.01em;
      }

      .cls-18 {
        letter-spacing: 0em;
      }

      .cls-19 {
        letter-spacing: -.01em;
      }

      .cls-20 {
        letter-spacing: 0em;
      }

      .cls-21 {
        font-family: Urbanist-Regular, Urbanist;
        font-size: 18px;
        font-variation-settings: 'wght' 400;
      }

      .cls-22 {
        letter-spacing: 0em;
      }

      .cls-23 {
        letter-spacing: -.05em;
      }

      .cls-24 {
        fill: #130044;
      }
    </style>
  </defs>
  <rect class="cls-24" x="0" y="0" width="366.28" height="305.38" rx="29.13" ry="29.13"/>
  <path class="cls-5" d="M76.66,36.23c-2.7-2.7-6.28-4.18-10.11-4.19-3.82,0-7.41,1.49-10.11,4.19l-2.23,2.23-2.23-2.23c-2.7-2.7-6.29-4.19-10.11-4.19-3.82,0-7.4,1.49-10.1,4.19-2.7,2.7-4.19,6.3-4.19,10.13s1.49,7.38,4.19,10.08l21.34,21.34c.29.29.69.46,1.1.46s.8-.16,1.1-.46l21.34-21.34c2.7-2.7,4.19-6.29,4.19-10.11s-1.49-7.41-4.19-10.11ZM77.73,46.33c0,2.98-1.16,5.79-3.27,7.9l-20.23,20.23-20.23-20.24c-2.11-2.11-3.27-4.9-3.27-7.87s1.16-5.81,3.27-7.92c2.11-2.11,4.91-3.27,7.89-3.27h0c2.99,0,5.79,1.16,7.9,3.27l3.33,3.33c.59.59,1.62.59,2.21,0l3.33-3.33c2.11-2.11,4.91-3.27,7.91-3.27,2.98,0,5.78,1.17,7.89,3.27,2.11,2.11,3.27,4.92,3.27,7.9Z"/>
  <text class="cls-5" transform="translate(27.59 116.71)"><tspan class="cls-8"><tspan class="cls-23" x="0" y="0">M</tspan><tspan class="cls-6" x="17.64" y="0">o</tspan><tspan x="28.61" y="0">r</tspan><tspan class="cls-17" x="36.31" y="0">t</tspan><tspan x="43.25" y="0">e</tspan></tspan><tspan class="cls-21"><tspan class="cls-20" x="0" y="43.2">G</tspan><tspan x="13.71" y="43.2">a</tspan><tspan class="cls-9" x="24.17" y="43.2">r</tspan><tspan x="30" y="43.2">an</tspan><tspan class="cls-16" x="50.1" y="43.2">t</tspan><tspan x="56.07" y="43.2">e </tspan><tspan class="cls-13" x="70.44" y="43.2">a</tspan><tspan class="cls-18" x="80.72" y="43.2">o</tspan><tspan x="90.74" y="43.2">s </tspan><tspan class="cls-14" x="102.79" y="43.2">B</tspan><tspan class="cls-4" x="112.46" y="43.2">e</tspan><tspan class="cls-13" x="122.43" y="43.2">n</tspan><tspan x="131.9" y="43.2">e</tspan><tspan class="cls-18" x="141.95" y="43.2">f</tspan><tspan class="cls-4" x="147.89" y="43.2">i</tspan><tspan class="cls-1" x="151.22" y="43.2">c</tspan><tspan class="cls-22" x="160.24" y="43.2">i</tspan><tspan x="163.57" y="43.2">á</tspan><tspan class="cls-2" x="174.02" y="43.2">r</tspan><tspan class="cls-22" x="180.34" y="43.2">i</tspan><tspan class="cls-18" x="183.67" y="43.2">o</tspan><tspan x="193.69" y="43.2">s o </tspan></tspan><tspan class="cls-21"><tspan class="cls-13" x="0" y="64.8">pa</tspan><tspan class="cls-4" x="20.92" y="64.8">g</tspan><tspan x="31.4" y="64.8">a</tspan><tspan class="cls-13" x="41.86" y="64.8">m</tspan><tspan class="cls-4" x="57.67" y="64.8">e</tspan><tspan x="67.63" y="64.8">n</tspan><tspan class="cls-16" x="77.28" y="64.8">t</tspan><tspan x="83.25" y="64.8">o </tspan><tspan class="cls-18" x="97.65" y="64.8">d</tspan><tspan x="108.41" y="64.8">o </tspan><tspan class="cls-15" x="122.81" y="64.8">C</tspan><tspan x="134.95" y="64.8">a</tspan><tspan class="cls-13" x="145.4" y="64.8">p</tspan><tspan x="156.04" y="64.8">i</tspan><tspan class="cls-12" x="159.46" y="64.8">t</tspan><tspan class="cls-10" x="165.43" y="64.8">a</tspan><tspan x="176" y="64.8">l </tspan><tspan class="cls-20" x="183.74" y="64.8">S</tspan><tspan class="cls-13" x="194.61" y="64.8">e</tspan><tspan class="cls-20" x="204.48" y="64.8">g</tspan><tspan x="214.94" y="64.8">u</tspan><tspan class="cls-9" x="224.22" y="64.8">r</tspan><tspan class="cls-13" x="230.06" y="64.8">a</tspan><tspan class="cls-18" x="240.33" y="64.8">d</tspan><tspan x="251.1" y="64.8">o </tspan></tspan><tspan class="cls-21"><tspan class="cls-20" x="0" y="86.4">c</tspan><tspan class="cls-4" x="9.05" y="86.4">o</tspan><tspan x="19.04" y="86.4">nt</tspan><tspan class="cls-9" x="34.9" y="86.4">r</tspan><tspan x="40.73" y="86.4">a</tspan><tspan class="cls-16" x="51.19" y="86.4">t</tspan><tspan class="cls-13" x="57.16" y="86.4">a</tspan><tspan class="cls-18" x="67.44" y="86.4">d</tspan><tspan x="78.2" y="86.4">o </tspan><tspan class="cls-19" x="92.6" y="86.4">p</tspan><tspan x="103.24" y="86.4">a</tspan><tspan class="cls-11" x="113.7" y="86.4">r</tspan><tspan x="119.53" y="86.4">a a </tspan><tspan class="cls-20" x="149.09" y="86.4">c</tspan><tspan class="cls-1" x="158.14" y="86.4">o</tspan><tspan class="cls-13" x="168.07" y="86.4">b</tspan><tspan class="cls-4" x="178.71" y="86.4">e</tspan><tspan x="188.68" y="86.4">rtu</tspan><tspan class="cls-9" x="210.61" y="86.4">r</tspan><tspan x="216.44" y="86.4">a, </tspan><tspan class="cls-4" x="234.84" y="86.4">e</tspan><tspan x="244.8" y="86.4">m </tspan></tspan><tspan class="cls-21"><tspan class="cls-20" x="0" y="108">c</tspan><tspan x="9.05" y="108">a</tspan><tspan class="cls-18" x="19.51" y="108">s</tspan><tspan x="27.18" y="108">o </tspan><tspan class="cls-18" x="41.58" y="108">d</tspan><tspan x="52.34" y="108">e </tspan><tspan class="cls-6" x="66.72" y="108">f</tspan><tspan class="cls-10" x="72.51" y="108">a</tspan><tspan class="cls-18" x="83.09" y="108">l</tspan><tspan class="cls-13" x="86.44" y="108">e</tspan><tspan class="cls-1" x="96.32" y="108">c</tspan><tspan class="cls-7" x="105.33" y="108">i</tspan><tspan class="cls-13" x="108.73" y="108">m</tspan><tspan class="cls-4" x="124.54" y="108">e</tspan><tspan x="134.5" y="108">n</tspan><tspan class="cls-16" x="144.15" y="108">t</tspan><tspan x="150.12" y="108">o </tspan><tspan class="cls-3" x="164.52" y="108">d</tspan><tspan x="175.28" y="108">o </tspan><tspan class="cls-18" x="189.68" y="108">s</tspan><tspan class="cls-19" x="197.35" y="108">e</tspan><tspan class="cls-20" x="207.22" y="108">g</tspan><tspan x="217.68" y="108">u</tspan><tspan class="cls-11" x="226.97" y="108">r</tspan><tspan class="cls-19" x="232.8" y="108">a</tspan><tspan class="cls-18" x="243.08" y="108">d</tspan><tspan class="cls-13" x="253.84" y="108">o</tspan><tspan x="263.74" y="108">.</tspan></tspan></text>
</svg>