<?xml version="1.0" encoding="UTF-8"?>
<svg id="Layer_1" data-name="Layer 1" xmlns="http://www.w3.org/2000/svg" viewBox="0 0 366.28 305.38">
  <defs>
    <style>
      .cls-1 {
        letter-spacing: -.01em;
      }

      .cls-2 {
        letter-spacing: 0em;
      }

      .cls-3 {
        letter-spacing: 0em;
      }

      .cls-4 {
        letter-spacing: 0em;
      }

      .cls-5 {
        fill: #fff;
      }

      .cls-6 {
        letter-spacing: 0em;
      }

      .cls-7 {
        letter-spacing: -.02em;
      }

      .cls-8 {
        letter-spacing: 0em;
      }

      .cls-9 {
        letter-spacing: -.03em;
      }

      .cls-10 {
        letter-spacing: 0em;
      }

      .cls-11 {
        font-family: UrbanistRoman-Bold, Urbanist;
        font-size: 23.99px;
        font-variation-settings: 'wght' 700;
        font-weight: 700;
      }

      .cls-12 {
        letter-spacing: -.03em;
      }

      .cls-13 {
        letter-spacing: -.02em;
      }

      .cls-14 {
        letter-spacing: -.02em;
      }

      .cls-15 {
        letter-spacing: 0em;
      }

      .cls-16 {
        letter-spacing: -.01em;
      }

      .cls-17 {
        letter-spacing: -.04em;
      }

      .cls-18 {
        letter-spacing: 0em;
      }

      .cls-19 {
        letter-spacing: -.01em;
      }

      .cls-20 {
        letter-spacing: 0em;
      }

      .cls-21 {
        letter-spacing: -.01em;
      }

      .cls-22 {
        letter-spacing: 0em;
      }

      .cls-23 {
        letter-spacing: 0em;
      }

      .cls-24 {
        letter-spacing: -.02em;
      }

      .cls-25 {
        font-family: Urbanist-Regular, Urbanist;
        font-size: 18px;
        font-variation-settings: 'wght' 400;
      }

      .cls-26 {
        fill: #130044;
      }
    </style>
  </defs>
  <rect class="cls-26" x="0" y="0" width="366.28" height="305.38" rx="29.13" ry="29.13"/>
  <path class="cls-5" d="M44.42,48.25c2.36-1.59,3.91-4.29,3.91-7.35,0-4.89-3.97-8.86-8.86-8.86s-8.86,3.97-8.86,8.86c0,3.06,1.55,5.76,3.91,7.35-4.09,1.88-6.93,6.01-6.93,10.8v16.36c3.57,1.8,7.61,2.82,11.88,2.82s8.31-1.02,11.88-2.82v-16.36c0-4.79-2.84-8.92-6.93-10.8ZM33.25,40.9c0-3.44,2.79-6.22,6.22-6.22s6.22,2.79,6.22,6.22-2.79,6.22-6.22,6.22-6.22-2.79-6.22-6.22ZM35.09,59.16l3.57,11.42h-3.57v-11.42ZM32.39,53.11v10.15h-2.16v-4.21c0-2.26.81-4.33,2.16-5.94ZM32.39,65.95v4.63h-2.1v-4.63h2.1ZM48.71,73.73c-2.84,1.2-5.96,1.86-9.24,1.86s-6.4-.66-9.24-1.86v-.46h10.68c2.75,0,4.99-2.24,4.99-4.99v-.03c0-2.75-2.24-4.99-4.99-4.99h-1.72l-3.9-12.45c1.25-.64,2.67-1,4.18-1,5.1,0,9.24,4.14,9.24,9.24v14.68ZM40.03,65.95h.88c1.27,0,2.3,1.03,2.3,2.3v.03c0,1.08-.74,1.98-1.75,2.23l-1.43-4.56Z"/>
  <text class="cls-5" transform="translate(27.59 119.7)"><tspan class="cls-11"><tspan class="cls-13" x="0" y="0">D</tspan><tspan x="15.75" y="0">a</tspan><tspan class="cls-15" x="30.11" y="0">n</tspan><tspan class="cls-2" x="43.26" y="0">o</tspan><tspan x="56.51" y="0">s a </tspan><tspan class="cls-16" x="92.81" y="0">t</tspan><tspan class="cls-1" x="101.14" y="0">e</tspan><tspan class="cls-17" x="114.28" y="0">r</tspan><tspan class="cls-24" x="122.62" y="0">c</tspan><tspan class="cls-14" x="134.48" y="0">e</tspan><tspan class="cls-6" x="147.35" y="0">i</tspan><tspan class="cls-17" x="153.06" y="0">r</tspan><tspan class="cls-2" x="161.39" y="0">o</tspan><tspan x="174.65" y="0">s</tspan></tspan><tspan class="cls-25"><tspan class="cls-7" x="0" y="43.2">R</tspan><tspan class="cls-18" x="9.7" y="43.2">e</tspan><tspan class="cls-4" x="19.58" y="43.2">e</tspan><tspan class="cls-10" x="29.54" y="43.2">m</tspan><tspan class="cls-21" x="45.65" y="43.2">b</tspan><tspan class="cls-23" x="56.29" y="43.2">o</tspan><tspan x="66.22" y="43.2">l</tspan><tspan class="cls-20" x="69.64" y="43.2">s</tspan><tspan x="77.31" y="43.2">o </tspan><tspan class="cls-3" x="91.71" y="43.2">d</tspan><tspan x="102.47" y="43.2">as </tspan><tspan class="cls-20" x="124.98" y="43.2">de</tspan><tspan x="145.74" y="43.2">s</tspan><tspan class="cls-18" x="153.47" y="43.2">p</tspan><tspan class="cls-20" x="164.1" y="43.2">es</tspan><tspan x="181.76" y="43.2">as </tspan><tspan class="cls-22" x="204.27" y="43.2">c</tspan><tspan class="cls-4" x="213.33" y="43.2">o</tspan><tspan x="223.32" y="43.2">m </tspan></tspan><tspan class="cls-25"><tspan class="cls-20" x="0" y="64.8">d</tspan><tspan x="10.76" y="64.8">a</tspan><tspan class="cls-18" x="21.22" y="64.8">n</tspan><tspan class="cls-20" x="30.69" y="64.8">o</tspan><tspan x="40.71" y="64.8">s </tspan><tspan class="cls-22" x="52.76" y="64.8">c</tspan><tspan x="61.81" y="64.8">au</tspan><tspan class="cls-20" x="81.56" y="64.8">s</tspan><tspan class="cls-18" x="89.23" y="64.8">a</tspan><tspan class="cls-20" x="99.5" y="64.8">d</tspan><tspan x="110.27" y="64.8">as a </tspan><tspan class="cls-19" x="147.55" y="64.8">t</tspan><tspan class="cls-4" x="153.52" y="64.8">e</tspan><tspan class="cls-9" x="163.48" y="64.8">r</tspan><tspan class="cls-22" x="169.32" y="64.8">c</tspan><tspan class="cls-21" x="178.37" y="64.8">e</tspan><tspan class="cls-8" x="188.24" y="64.8">i</tspan><tspan class="cls-12" x="191.64" y="64.8">r</tspan><tspan class="cls-20" x="197.47" y="64.8">o</tspan><tspan x="207.49" y="64.8">s </tspan><tspan class="cls-21" x="219.54" y="64.8">n</tspan><tspan x="229" y="64.8">a </tspan></tspan><tspan class="cls-25"><tspan class="cls-4" x="0" y="86.4">e</tspan><tspan x="9.96" y="86.4">m</tspan><tspan class="cls-4" x="25.96" y="86.4">p</tspan><tspan class="cls-9" x="36.68" y="86.4">r</tspan><tspan class="cls-3" x="42.52" y="86.4">es</tspan><tspan x="60.17" y="86.4">a.</tspan></tspan></text>
</svg>