<?xml version="1.0" encoding="UTF-8"?>
<svg id="Layer_1" data-name="Layer 1" xmlns="http://www.w3.org/2000/svg" viewBox="0 0 366.28 305.38">
  <defs>
    <style>
      .cls-1 {
        letter-spacing: 0em;
      }

      .cls-2 {
        letter-spacing: 0em;
      }

      .cls-3 {
        letter-spacing: -.01em;
      }

      .cls-4 {
        letter-spacing: -.01em;
      }

      .cls-5 {
        font-family: UrbanistRoman-Bold, Urbanist;
        font-size: 23.99px;
        font-variation-settings: 'wght' 700;
        font-weight: 700;
      }

      .cls-5, .cls-6 {
        fill: #130044;
      }

      .cls-7 {
        letter-spacing: -.01em;
      }

      .cls-8 {
        letter-spacing: -.02em;
      }
    </style>
  </defs>
  <path class="cls-6" d="M337.15,8.99c11.1,0,20.14,9.03,20.14,20.14v247.12c0,11.1-9.03,20.14-20.14,20.14H29.13c-11.1,0-20.14-9.03-20.14-20.14V29.13c0-11.1,9.03-20.14,20.14-20.14h308.02M337.15,0H29.13C13.11,0,0,13.11,0,29.13v247.12c0,16.02,13.11,29.13,29.13,29.13h308.02c16.02,0,29.13-13.11,29.13-29.13V29.13C366.28,13.11,353.18,0,337.15,0h0Z"/>
  <text class="cls-5" transform="translate(27.6 274.19)"><tspan class="cls-8" x="0" y="0">O</tspan><tspan class="cls-1" x="18.1" y="0">d</tspan><tspan class="cls-7" x="32.79" y="0">o</tspan><tspan x="45.95" y="0">n</tspan><tspan class="cls-4" x="59.33" y="0">t</tspan><tspan class="cls-7" x="67.66" y="0">o</tspan><tspan class="cls-2" x="80.81" y="0">pe</tspan><tspan x="108.6" y="0">d</tspan><tspan class="cls-3" x="123.47" y="0">i</tspan><tspan x="129" y="0">at</tspan><tspan class="cls-8" x="151.96" y="0">r</tspan><tspan class="cls-3" x="160.82" y="0">i</tspan><tspan x="166.35" y="0">a</tspan></text>
  <polygon class="cls-6" points="338.69 262.6 330.04 262.6 330.04 253.95 324.38 253.95 324.38 262.6 315.73 262.6 315.73 268.27 324.38 268.27 324.38 276.92 330.04 276.92 330.04 268.27 338.69 268.27 338.69 262.6"/>
  <g>
    <path class="cls-6" d="M68.65,46.53c-.02-.45-.4-.81-.85-.81h-15.4c-.45,0-.83.36-.85.81l-1.71,30.79c-.01.23.07.46.23.64.16.17.39.27.62.27h18.82c.23,0,.46-.1.62-.27.16-.17.25-.4.23-.64l-1.71-30.79ZM51.59,76.52l1.62-29.08h13.78l1.62,29.08h-17.01Z"/>
    <path class="cls-6" d="M65.23,54.28h-10.26c-.47,0-.86.38-.86.86v5.99c0,.47.38.86.86.86h10.26c.47,0,.86-.38.86-.86v-5.99c0-.47-.38-.86-.86-.86ZM64.37,60.27h-8.55v-4.28h8.55v4.28Z"/>
    <path class="cls-6" d="M55.82,44.01h8.55c.47,0,.86-.38.86-.86v-6.85c0-2.36-1.92-4.27-4.29-4.27h-1.69c-2.36,0-4.29,1.92-4.29,4.27v6.85c0,.47.38.86.86.86ZM56.68,36.31c0-1.41,1.16-2.56,2.57-2.56h1.69c1.42,0,2.57,1.15,2.57,2.56v5.99h-6.84v-5.99Z"/>
    <path class="cls-6" d="M31.86,32.04h-.84c-1.89,0-3.43,1.54-3.43,3.42v41.91c0,.47.38.86.86.86h5.99c.24,0,.46-.1.62-.27.16-.17.24-.41.23-.64l-1.68-25.24c1-.6,1.68-1.68,1.68-2.93v-13.68c0-1.89-1.54-3.42-3.43-3.42ZM29.3,76.52v-23.95h2.62l1.6,23.95h-4.22ZM33.58,49.15c0,.94-.77,1.71-1.72,1.71h-2.56v-15.4c0-.94.77-1.71,1.72-1.71h.84c.95,0,1.72.77,1.72,1.71v13.68Z"/>
    <path class="cls-6" d="M43.42,33.75h-5.99c-.47,0-.86.38-.86.86s.38.86.86.86h5.99c.47,0,.86-.38.86-.86s-.38-.86-.86-.86Z"/>
    <path class="cls-6" d="M43.42,36.32h-5.99c-.47,0-.86.38-.86.86s.38.86.86.86h5.99c.47,0,.86-.38.86-.86s-.38-.86-.86-.86Z"/>
    <path class="cls-6" d="M43.42,38.88h-5.99c-.47,0-.86.38-.86.86s.38.86.86.86h5.99c.47,0,.86-.38.86-.86s-.38-.86-.86-.86Z"/>
    <path class="cls-6" d="M43.42,41.45h-5.99c-.47,0-.86.38-.86.86s.38.86.86.86h5.99c.47,0,.86-.38.86-.86s-.38-.86-.86-.86Z"/>
    <path class="cls-6" d="M43.42,44.01h-5.99c-.47,0-.86.38-.86.86s.38.86.86.86h5.99c.47,0,.86-.38.86-.86s-.38-.86-.86-.86Z"/>
    <path class="cls-6" d="M43.42,46.58h-5.99c-.47,0-.86.38-.86.86s.38.86.86.86h5.99c.47,0,.86-.38.86-.86s-.38-.86-.86-.86Z"/>
    <path class="cls-6" d="M43.42,49.15h-5.99c-.47,0-.86.38-.86.86s.38.86.86.86h5.99c.47,0,.86-.38.86-.86s-.38-.86-.86-.86Z"/>
  </g>
</svg>