<?xml version="1.0" encoding="UTF-8"?>
<svg id="Layer_1" data-name="Layer 1" xmlns="http://www.w3.org/2000/svg" viewBox="0 0 366.28 305.38">
  <defs>
    <style>
      .cls-1 {
        letter-spacing: 0em;
      }

      .cls-2 {
        letter-spacing: -.02em;
      }

      .cls-3 {
        letter-spacing: 0em;
      }

      .cls-4 {
        letter-spacing: -.05em;
      }

      .cls-5 {
        font-family: UrbanistRoman-Bold, Urbanist;
        font-size: 20px;
        font-variation-settings: 'wght' 700;
        font-weight: 700;
      }

      .cls-5, .cls-6 {
        fill: #130044;
      }

      .cls-7 {
        letter-spacing: -.04em;
      }

      .cls-8 {
        letter-spacing: 0em;
      }

      .cls-9 {
        letter-spacing: -.01em;
      }
    </style>
  </defs>
  <path class="cls-6" d="M337.15,9c11.1,0,20.14,9.03,20.14,20.14v247.12c0,11.1-9.03,20.13-20.14,20.13H29.13c-11.1,0-20.14-9.03-20.14-20.13V29.13c0-11.1,9.03-20.14,20.14-20.14h308.02M337.15,0H29.13C13.11,0,0,13.11,0,29.13v247.12C0,292.27,13.11,305.38,29.13,305.38h308.02c16.02,0,29.13-13.11,29.13-29.13V29.13C366.28,13.11,353.18,0,337.15,0h0Z"/>
  <text class="cls-5" transform="translate(27.59 273.99)"><tspan class="cls-4" x="0" y="0">A</tspan><tspan x="13.58" y="0">d</tspan><tspan class="cls-8" x="25.98" y="0">u</tspan><tspan x="36.59" y="0">a</tspan><tspan class="cls-9" x="48.57" y="0">n</tspan><tspan class="cls-2" x="59.53" y="0">e</tspan><tspan class="cls-1" x="70.26" y="0">i</tspan><tspan class="cls-7" x="75.02" y="0">r</tspan><tspan class="cls-3" x="81.97" y="0">o</tspan></text>
  <polygon class="cls-6" points="338.69 262.6 330.04 262.6 330.04 253.95 324.38 253.95 324.38 262.6 315.73 262.6 315.73 268.27 324.38 268.27 324.38 276.92 330.04 276.92 330.04 268.27 338.69 268.27 338.69 262.6"/>
  <g>
    <path class="cls-6" d="M47.92,64.48v13h24.59v-13h-24.59ZM71.1,76.08h-21.77v-10.18h21.77v10.18h0Z"/>
    <rect class="cls-6" x="53.67" y="67.4" width="1.41" height="7.34"/>
    <rect class="cls-6" x="50.85" y="67.4" width="1.41" height="7.34"/>
    <rect class="cls-6" x="56.59" y="67.4" width="1.41" height="7.34"/>
    <rect class="cls-6" x="59.51" y="67.4" width="1.41" height="7.34"/>
    <rect class="cls-6" x="62.43" y="67.4" width="1.41" height="7.34"/>
    <rect class="cls-6" x="65.25" y="67.4" width="1.41" height="7.34"/>
    <rect class="cls-6" x="68.17" y="67.4" width="1.41" height="7.34"/>
    <polygon class="cls-6" points="71.09 62.41 71.09 61.57 69.68 61.57 69.68 62.41 50.66 62.41 50.66 61.57 49.25 61.57 49.25 62.41 47.93 62.41 47.93 63.83 72.5 63.83 72.5 62.41 71.09 62.41"/>
    <polygon class="cls-6" points="61.92 51.49 60.92 51.49 60.92 49.99 59.51 49.99 59.51 51.49 58.52 51.49 49.25 59.06 49.25 60.81 50.66 60.81 50.66 59.73 59.02 52.91 61.42 52.91 69.68 59.73 69.68 60.81 71.09 60.81 71.09 59.06 61.92 51.49"/>
    <path class="cls-6" d="M34.87,41.3c-1.59,0-2.88,1.29-2.88,2.88s1.29,2.88,2.88,2.88,2.88-1.29,2.88-2.88-1.29-2.88-2.88-2.88ZM34.87,45.65c-.81,0-1.47-.66-1.47-1.47s.66-1.47,1.47-1.47,1.47.66,1.47,1.47-.66,1.47-1.47,1.47Z"/>
    <rect class="cls-6" x="59.51" y="39.16" width="1.41" height="10.07"/>
    <path class="cls-6" d="M31.99,48.55v7.93h5.76v-7.93h-5.76ZM36.33,55.07h-2.93v-5.11h2.93v5.11Z"/>
    <path class="cls-6" d="M61.63,33.46c-.41-1.12-1.65-1.69-2.76-1.29h-.01s-20.54,8.38-20.54,8.38c-.93-.91-2.16-1.41-3.47-1.41s-2.61.53-3.55,1.48c-.93.95-1.44,2.22-1.44,3.57v18.89h1.98v.56h-1.67l-2.57,3.49v11.1h1.41v-10.07h3.58v-1.41h-2.95l1.25-1.69h7.97l1.22,1.69h-3.06v1.41h3.67v10.07h1.41v-11.09l-2.52-3.5h-1.91v-.56h2.17v-5.74h5.84v-8.37l-3.99-3.96h-1.84v-.42l19.68-8.02v1.85h1.41v-2.5c.73-.56,1.04-1.54.71-2.45ZM36.25,63.64h-3.01v-.56h3.01v.56h0ZM38.42,61.66h-7.16v-17.48c0-2.04,1.57-3.64,3.58-3.64s3.58,1.6,3.58,3.64v17.48h0ZM42.09,47.4l2.17,2.15v1.95h-2.17v-4.09ZM40.68,46.41v6.5h3.58v3.01h-4.42v-9.51h.85ZM59.86,34.89h-.01s-20.13,8.21-20.13,8.21c-.1-.49-.28-.96-.52-1.39l20.16-8.22c.38-.13.8.07.94.45.14.38-.06.81-.44.95Z"/>
    <rect class="cls-6" x="33.43" y="57.33" width="3.01" height="1.41"/>
    <rect class="cls-6" x="33.43" y="59.4" width="3.01" height="1.41"/>
    <rect class="cls-6" x="33.43" y="65.99" width="3.01" height="1.41"/>
    <rect class="cls-6" x="33.43" y="68.25" width="3.01" height="1.41"/>
    <rect class="cls-6" x="33.43" y="70.23" width="3.01" height="1.41"/>
    <rect class="cls-6" x="33.43" y="72.49" width="3.01" height="1.41"/>
    <rect class="cls-6" x="33.43" y="74.75" width="3.01" height="1.41"/>
    <rect class="cls-6" x="33.43" y="76.82" width="3.01" height="1.41"/>
    <rect class="cls-6" x="34.18" y="43.49" width="1.51" height="1.41"/>
  </g>
</svg>