<?xml version="1.0" encoding="UTF-8"?>
<svg id="Layer_1" data-name="Layer 1" xmlns="http://www.w3.org/2000/svg" viewBox="0 0 366.28 305.38">
  <defs>
    <style>
      .cls-1 {
        letter-spacing: 0em;
      }

      .cls-2 {
        letter-spacing: -.03em;
      }

      .cls-3 {
        letter-spacing: -.01em;
      }

      .cls-4 {
        letter-spacing: -.02em;
      }

      .cls-5 {
        letter-spacing: -.04em;
      }

      .cls-6 {
        font-family: UrbanistRoman-Bold, Urbanist;
        font-size: 23.99px;
        font-variation-settings: 'wght' 700;
        font-weight: 700;
      }

      .cls-6, .cls-7 {
        fill: #130044;
      }

      .cls-8 {
        letter-spacing: -.04em;
      }

      .cls-9 {
        letter-spacing: -.01em;
      }

      .cls-10 {
        letter-spacing: -.01em;
      }

      .cls-11 {
        letter-spacing: -.01em;
      }
    </style>
  </defs>
  <path class="cls-7" d="M337.15,8.99c11.1,0,20.14,9.03,20.14,20.14v247.12c0,11.1-9.03,20.14-20.14,20.14H29.13c-11.1,0-20.14-9.03-20.14-20.14V29.13c0-11.1,9.03-20.14,20.14-20.14h308.02M337.15,0H29.13C13.11,0,0,13.11,0,29.13v247.12C0,292.27,13.11,305.38,29.13,305.38h308.02c16.02,0,29.13-13.11,29.13-29.13V29.13C366.28,13.11,353.18,0,337.15,0h0Z"/>
  <text class="cls-6" transform="translate(27.59 271.94)"><tspan class="cls-2" x="0" y="0">F</tspan><tspan class="cls-1" x="10.97" y="0">i</tspan><tspan class="cls-3" x="16.6" y="0">si</tspan><tspan class="cls-11" x="32.27" y="0">ot</tspan><tspan class="cls-9" x="53.77" y="0">e</tspan><tspan class="cls-8" x="66.91" y="0">r</tspan><tspan x="75.25" y="0">a</tspan><tspan class="cls-4" x="89.62" y="0">p</tspan><tspan class="cls-3" x="103.91" y="0">i</tspan><tspan x="109.44" y="0">a e </tspan><tspan class="cls-10" x="148.74" y="0">a</tspan><tspan class="cls-3" x="162.87" y="0">c</tspan><tspan class="cls-4" x="174.83" y="0">up</tspan><tspan x="201.48" y="0">untu</tspan><tspan class="cls-5" x="249.26" y="0">r</tspan><tspan x="257.59" y="0">a</tspan></text>
  <polygon class="cls-7" points="338.69 262.6 330.04 262.6 330.04 253.95 324.38 253.95 324.38 262.6 315.73 262.6 315.73 268.27 324.38 268.27 324.38 276.92 330.04 276.92 330.04 268.27 338.69 268.27 338.69 262.6"/>
  <g>
    <path class="cls-7" d="M75.38,77.44l-.81-9.38c-.28-3.21-2.53-5.9-5.6-6.7l-9.33-2.43c-.25-.06-.51,0-.69.18l-.23.22-2.38-1.08-.22-1.36c.9-.57,1.73-1.34,2.42-2.21,2.57-.51,4.47-2.8,4.47-5.45v-9.48c0-4.25-3.46-7.7-7.7-7.7h-7.62c-2.56,0-4.95,1.27-6.38,3.39-.23.33-.14.79.2,1.02.33.23.79.14,1.02-.2,1.16-1.72,3.1-2.75,5.17-2.75h7.62c3.44,0,6.24,2.8,6.24,6.24v3.82c-.28-.16-.61-.26-.96-.26h-.03v-.38c0-.23-.11-.44-.29-.58-.18-.14-.42-.18-.64-.12-.59.16-1.2.3-1.81.41-1.15.2-2.33.3-3.53.3-2.66,0-5.25-.52-7.48-1.46-.21-.09-.41-.18-.62-.28-.01,0-.03-.01-.04-.02-.93-.44-1.78-.96-2.55-1.55-.22-.17-.52-.2-.77-.08-.25.12-.41.38-.41.66v3.1h-.03c-.35,0-.68.1-.96.26v-3.82c0-.45.05-.9.14-1.33.09-.39-.16-.78-.56-.87-.39-.09-.78.16-.87.56-.12.54-.18,1.09-.18,1.64v9.48c0,2.64,1.89,4.93,4.45,5.45.69.88,1.52,1.65,2.43,2.23l-.22,1.34-2.38,1.08-.23-.22c-.18-.18-.45-.24-.69-.18l-9.33,2.43c-3.07.8-5.32,3.49-5.6,6.7l-.81,9.38c-.02.2.05.41.19.56.14.15.33.24.54.24h8.22s0,0,0,0c0,0,0,0,0,0h29.9s0,0,0,0c0,0,0,0,0,0h8.22c.2,0,.4-.09.54-.24.14-.15.21-.35.19-.56ZM60.56,44.77h.03c.24,0,.44.2.44.44v1.74c0,.24-.2.44-.44.44h-.03v-2.62ZM60.07,51.99s.02-.05.03-.07c.02-.07.05-.14.07-.2.02-.07.04-.13.06-.2.01-.03.02-.07.03-.1.03-.09.05-.18.07-.27,0-.02,0-.04.01-.06.05-.21.09-.41.13-.61,0-.01,0-.02,0-.04.02-.1.03-.2.04-.3,0-.02,0-.03,0-.05.01-.1.02-.2.02-.3,0-.01,0-.03,0-.04,0-.1,0-.2,0-.31v-.6h.03c.35,0,.68-.1.96-.26v.64h0c0,1.35-.67,2.57-1.7,3.32.08-.18.16-.37.23-.55ZM41.96,45.2c0-.24.2-.44.44-.44h.03v2.62h-.03c-.24,0-.44-.2-.44-.44v-1.74ZM41.44,49.22v-.64c.28.16.61.26.96.26h.03v.62c0,.1,0,.2,0,.31,0,.01,0,.03,0,.04,0,.1.01.2.02.3,0,.02,0,.03,0,.05.01.1.02.2.04.3,0,.01,0,.02,0,.03.03.21.08.42.13.63,0,.01,0,.03,0,.04.02.09.05.19.08.28,0,.03.02.05.02.08.03.09.05.17.08.26.01.04.03.08.04.12.02.04.03.09.05.13.06.17.14.34.21.51-1.03-.75-1.69-1.97-1.69-3.31ZM44.16,51.11s0-.02-.01-.04c-.02-.07-.04-.14-.06-.21,0-.03-.01-.05-.02-.08-.01-.06-.03-.11-.04-.17,0-.04-.02-.07-.02-.11-.01-.05-.02-.1-.03-.15,0-.04-.02-.08-.02-.12,0-.05-.01-.09-.02-.14,0-.04-.01-.08-.02-.12,0-.05,0-.1-.01-.15,0-.03,0-.07,0-.1,0-.09,0-.17,0-.25v-7.86c2.86,1.78,6.57,2.79,10.4,2.79,1.26,0,2.51-.11,3.72-.31.37-.06.73-.13,1.09-.22v5.59c0,.08,0,.17,0,.25,0,.03,0,.07,0,.1,0,.05,0,.1-.01.15,0,.04-.01.08-.02.13,0,.05-.01.09-.02.14,0,.04-.01.08-.02.13,0,.05-.02.09-.03.14,0,.04-.02.08-.03.11-.01.05-.03.11-.04.16,0,.03-.02.06-.02.09-.02.07-.04.13-.06.2,0,.02-.01.03-.02.05-.61,1.91-2.15,3.82-3.89,4.78-.02,0-.03.02-.05.03-.06.03-.11.06-.17.09-.02.01-.05.02-.07.04-.07.03-.13.06-.2.09-.03.01-.05.02-.08.03-.05.02-.11.04-.16.06-.02,0-.04.02-.06.02-.07.03-.14.05-.21.07-.02,0-.04.01-.06.02-.08.02-.15.04-.23.06l-.09.02c-.89.22-1.52.35-2.1.35-.37,0-.75-.05-1.2-.14-.05,0-.09-.02-.14-.03-.24-.05-.49-.11-.78-.19-.08-.02-.15-.04-.23-.06-.02,0-.04-.01-.06-.02-.07-.02-.14-.05-.21-.07-.02,0-.04-.02-.06-.02-.06-.02-.11-.04-.17-.07-.02,0-.05-.02-.07-.03-.07-.03-.14-.06-.21-.1-.02,0-.04-.02-.06-.03-.07-.03-.14-.07-.2-.11,0,0-.01,0-.02,0-1.74-.96-3.28-2.87-3.89-4.79ZM47.6,59.41c.22-.1.38-.31.42-.55l.21-1.26s.02,0,.03.01c.04.01.08.03.11.04.08.03.16.06.24.08.02,0,.04.01.06.02.09.03.19.06.28.08,1.01.25,1.74.4,2.48.4s1.46-.14,2.46-.39l.09-.02c.09-.02.19-.05.28-.08.02,0,.04-.01.07-.02.08-.03.16-.05.24-.08.04-.01.08-.03.12-.05.01,0,.03,0,.04-.01l.21,1.28c.04.24.2.45.42.55l2.2,1-6.09,5.84-6.09-5.84,2.2-1ZM40.83,66.35c.56,0,1.01.47,1.01,1.05s-.45,1.05-1.01,1.05-1.01-.47-1.01-1.05.45-1.05,1.01-1.05ZM67.11,76.77l-.57-6.43c-.04-.4-.39-.7-.79-.66-.4.04-.7.39-.66.79l.56,6.3h-28.3l.23-2.55c.04-.4-.26-.76-.66-.79-.4-.04-.76.26-.79.66l-.24,2.68h-6.75l.75-8.58c.23-2.59,2.04-4.77,4.51-5.41l5.72-1.49v3.72c-1.01.32-1.75,1.27-1.75,2.4,0,1.38,1.11,2.51,2.48,2.51s2.48-1.13,2.48-2.51c0-1.13-.74-2.08-1.75-2.4v-4.1l1.75-.46,7.44,7.14v4.73c0,.4.33.73.73.73s.73-.33.73-.73v-4.73l7.44-7.14.94.25v4.38c-1.45.06-2.62,1.28-2.62,2.76v6.35c0,.26.14.51.37.64l1.37.77c.11.06.24.09.36.09.26,0,.5-.13.64-.37.2-.35.07-.8-.28-1l-1-.56v-5.92c0-.72.57-1.3,1.27-1.3h1.23c.7,0,1.27.59,1.27,1.3v5.92l-1,.56c-.35.2-.48.64-.28,1,.2.35.64.48,1,.28l1.37-.77c.23-.13.37-.37.37-.64v-6.35c0-1.49-1.16-2.7-2.62-2.76v-4l6.53,1.7c2.47.64,4.29,2.82,4.51,5.41l.75,8.58h-6.75Z"/>
    <path class="cls-7" d="M37.23,69.68c-.4-.04-.76.26-.79.66l-.12,1.35c-.04.4.26.76.66.79.02,0,.04,0,.07,0,.37,0,.69-.29.73-.67l.12-1.35c.04-.4-.26-.76-.66-.79Z"/>
    <path class="cls-7" d="M46.77,45.05c-.4,0-.73.33-.73.73v.59c0,.4.33.73.73.73s.73-.33.73-.73v-.59c0-.4-.33-.73-.73-.73Z"/>
    <path class="cls-7" d="M56.21,45.05c-.4,0-.73.33-.73.73v.59c0,.4.33.73.73.73s.73-.33.73-.73v-.59c0-.4-.33-.73-.73-.73Z"/>
  </g>
</svg>