<?xml version="1.0" encoding="UTF-8"?>
<svg id="Layer_1" data-name="Layer 1" xmlns="http://www.w3.org/2000/svg" viewBox="0 0 366.28 305.38">
  <defs>
    <style>
      .cls-1 {
        letter-spacing: 0em;
      }

      .cls-2 {
        letter-spacing: 0em;
      }

      .cls-3 {
        letter-spacing: -.02em;
      }

      .cls-4 {
        letter-spacing: 0em;
      }

      .cls-5 {
        letter-spacing: 0em;
      }

      .cls-6 {
        fill: #fff;
      }

      .cls-7 {
        letter-spacing: 0em;
      }

      .cls-8 {
        letter-spacing: -.03em;
      }

      .cls-9 {
        letter-spacing: -.02em;
      }

      .cls-10 {
        letter-spacing: 0em;
      }

      .cls-11 {
        letter-spacing: 0em;
      }

      .cls-12 {
        letter-spacing: -.01em;
      }

      .cls-13 {
        letter-spacing: -.03em;
      }

      .cls-14 {
        letter-spacing: -.03em;
      }

      .cls-15 {
        letter-spacing: -.03em;
      }

      .cls-16 {
        letter-spacing: -.02em;
      }

      .cls-17 {
        letter-spacing: -.01em;
      }

      .cls-18 {
        font-family: UrbanistRoman-Bold, Urbanist;
        font-size: 19px;
        font-variation-settings: 'wght' 700;
        font-weight: 700;
      }

      .cls-19 {
        letter-spacing: 0em;
      }

      .cls-20 {
        letter-spacing: 0em;
      }

      .cls-21 {
        letter-spacing: -.04em;
      }

      .cls-22 {
        letter-spacing: -.08em;
      }

      .cls-23 {
        letter-spacing: -.02em;
      }

      .cls-24 {
        letter-spacing: -.01em;
      }

      .cls-25 {
        letter-spacing: 0em;
      }

      .cls-26 {
        letter-spacing: 0em;
      }

      .cls-27 {
        letter-spacing: -.01em;
      }

      .cls-28 {
        letter-spacing: 0em;
      }

      .cls-29 {
        font-family: Urbanist-Regular, Urbanist;
        font-size: 18px;
        font-variation-settings: 'wght' 400;
      }

      .cls-30 {
        letter-spacing: 0em;
      }

      .cls-31 {
        letter-spacing: -.01em;
      }

      .cls-32 {
        fill: #130044;
      }
    </style>
  </defs>
  <rect class="cls-32" x="0" y="0" width="366.28" height="305.38" rx="29.13" ry="29.13"/>
  <path class="cls-6" d="M59.48,62.61s-.04-.05-.07-.08c-.82-.91-2-1.49-3.31-1.49h-4.59v-27.02c0-2.47-2.01-4.48-4.48-4.48h-14.96c-2.47,0-4.48,2.01-4.48,4.48v32.2h0v7.53c0,1.05.38,2,.98,2.77,0,.01,0,.03.02.04.07.1.14.18.23.26.82.87,1.97,1.41,3.25,1.41h24.03c2.47,0,4.48-2.01,4.48-4.48v-8.23c0-1.12-.42-2.12-1.1-2.91ZM56.71,63.64l-2.55,3.93-1.92-4.04h3.86c.21,0,.42.04.61.11ZM32.12,75.73l6.91-4.55s0,0,0,0l10.71-7.05,2.82,5.92-3.69,5.69h-16.75ZM36.57,34.77l10.62,3.95-17.09,8.88v-9.24l6.47-3.59ZM38.21,68.72l-8.12-3.35v-.68l18.92-12.69v9.61l-10.79,7.11ZM49.01,48.99l-9.68,6.49-9.24-2.55v-2.51l18.92-9.83v8.4ZM30.09,55.53l6.5,1.8-6.5,4.36v-6.15ZM30.09,73.75v-5.67l5.6,2.31-5.57,3.67c-.02-.1-.03-.2-.03-.3ZM49.01,34.02v2.72l-9.56-3.56,2.05-1.14h5.54c1.09,0,1.98.89,1.98,1.98ZM32.07,32.04h4.27l-6.25,3.47v-1.49c0-1.09.89-1.98,1.98-1.98ZM56.1,75.73h-4.25l6.23-9.61v7.63c0,1.09-.89,1.98-1.98,1.98Z"/>
  <text class="cls-6" transform="translate(27.59 115.96)"><tspan class="cls-18"><tspan class="cls-20" x="0" y="0">D</tspan><tspan class="cls-31" x="12.63" y="0">i</tspan><tspan x="17" y="0">á</tspan><tspan class="cls-3" x="28.39" y="0">r</tspan><tspan class="cls-31" x="35.41" y="0">i</tspan><tspan x="39.79" y="0">a </tspan><tspan class="cls-11" x="55.73" y="0">p</tspan><tspan class="cls-31" x="67.3" y="0">o</tspan><tspan x="77.72" y="0">r I</tspan><tspan class="cls-11" x="94.76" y="0">n</tspan><tspan class="cls-23" x="105.17" y="0">c</tspan><tspan x="114.57" y="0">a</tspan><tspan class="cls-11" x="125.95" y="0">pa</tspan><tspan class="cls-16" x="148.71" y="0">c</tspan><tspan class="cls-31" x="158.04" y="0">i</tspan><tspan class="cls-20" x="162.42" y="0">d</tspan><tspan class="cls-25" x="174.06" y="0">a</tspan><tspan class="cls-20" x="185.25" y="0">d</tspan><tspan x="196.89" y="0">e </tspan></tspan><tspan class="cls-18"><tspan class="cls-22" x="0" y="22.8">T</tspan><tspan class="cls-31" x="10.53" y="22.8">e</tspan><tspan x="20.94" y="22.8">m</tspan><tspan class="cls-11" x="37.82" y="22.8">p</tspan><tspan class="cls-31" x="49.39" y="22.8">o</tspan><tspan class="cls-21" x="59.81" y="22.8">r</tspan><tspan x="66.41" y="22.8">a</tspan><tspan class="cls-3" x="77.8" y="22.8">r</tspan><tspan class="cls-12" x="84.82" y="22.8">i</tspan><tspan x="89.2" y="22.8">a (</tspan><tspan class="cls-1" x="112.34" y="22.8">D</tspan><tspan x="124.94" y="22.8">IT)</tspan></tspan><tspan class="cls-29"><tspan class="cls-28" x="0" y="66">G</tspan><tspan x="13.71" y="66">a</tspan><tspan class="cls-8" x="24.17" y="66">r</tspan><tspan x="30" y="66">an</tspan><tspan class="cls-24" x="50.1" y="66">t</tspan><tspan x="56.07" y="66">e </tspan><tspan class="cls-7" x="70.44" y="66">i</tspan><tspan class="cls-27" x="73.84" y="66">n</tspan><tspan class="cls-4" x="83.3" y="66">d</tspan><tspan class="cls-5" x="94.07" y="66">e</tspan><tspan x="104.03" y="66">ni</tspan><tspan class="cls-5" x="117.1" y="66">z</tspan><tspan class="cls-27" x="126.13" y="66">a</tspan><tspan class="cls-28" x="136.41" y="66">ç</tspan><tspan class="cls-19" x="145.47" y="66">ã</tspan><tspan x="155.75" y="66">o </tspan><tspan class="cls-27" x="170.15" y="66">p</tspan><tspan x="180.78" y="66">a</tspan><tspan class="cls-15" x="191.24" y="66">r</tspan><tspan x="197.07" y="66">a o </tspan></tspan><tspan class="cls-29"><tspan class="cls-26" x="0" y="87.6">s</tspan><tspan class="cls-19" x="7.67" y="87.6">e</tspan><tspan class="cls-28" x="17.54" y="87.6">g</tspan><tspan x="28" y="87.6">u</tspan><tspan class="cls-8" x="37.29" y="87.6">r</tspan><tspan class="cls-19" x="43.12" y="87.6">a</tspan><tspan class="cls-26" x="53.4" y="87.6">d</tspan><tspan x="64.16" y="87.6">o </tspan><tspan class="cls-5" x="78.56" y="87.6">e</tspan><tspan x="88.52" y="87.6">m </tspan><tspan class="cls-28" x="108.84" y="87.6">c</tspan><tspan x="117.89" y="87.6">a</tspan><tspan class="cls-26" x="128.35" y="87.6">s</tspan><tspan x="136.02" y="87.6">o </tspan><tspan class="cls-26" x="150.42" y="87.6">d</tspan><tspan x="161.18" y="87.6">e </tspan><tspan class="cls-7" x="175.55" y="87.6">i</tspan><tspan class="cls-19" x="178.95" y="87.6">n</tspan><tspan class="cls-13" x="188.41" y="87.6">v</tspan><tspan class="cls-10" x="197.19" y="87.6">a</tspan><tspan x="207.76" y="87.6">l</tspan><tspan class="cls-5" x="211.18" y="87.6">i</tspan><tspan class="cls-26" x="214.51" y="87.6">d</tspan><tspan class="cls-9" x="225.28" y="87.6">e</tspan><tspan x="235" y="87.6">z </tspan></tspan><tspan class="cls-29"><tspan class="cls-19" x="0" y="109.2">p</tspan><tspan class="cls-5" x="10.64" y="109.2">er</tspan><tspan class="cls-27" x="26.95" y="109.2">m</tspan><tspan x="42.76" y="109.2">a</tspan><tspan class="cls-19" x="53.22" y="109.2">n</tspan><tspan class="cls-5" x="62.69" y="109.2">e</tspan><tspan x="72.65" y="109.2">n</tspan><tspan class="cls-24" x="82.3" y="109.2">t</tspan><tspan x="88.26" y="109.2">e </tspan><tspan class="cls-17" x="102.64" y="109.2">tot</tspan><tspan class="cls-10" x="124.41" y="109.2">a</tspan><tspan x="134.98" y="109.2">l </tspan><tspan class="cls-27" x="142.72" y="109.2">p</tspan><tspan class="cls-30" x="153.36" y="109.2">o</tspan><tspan x="163.35" y="109.2">r </tspan><tspan class="cls-27" x="174.1" y="109.2">m</tspan><tspan class="cls-24" x="189.92" y="109.2">o</tspan><tspan class="cls-26" x="199.75" y="109.2">t</tspan><tspan class="cls-28" x="205.9" y="109.2">i</tspan><tspan class="cls-14" x="209.21" y="109.2">v</tspan><tspan x="217.98" y="109.2">o </tspan><tspan class="cls-4" x="232.38" y="109.2">d</tspan><tspan x="243.14" y="109.2">e </tspan></tspan><tspan class="cls-29"><tspan class="cls-19" x="0" y="130.8">a</tspan><tspan class="cls-2" x="10.28" y="130.8">c</tspan><tspan class="cls-5" x="19.3" y="130.8">i</tspan><tspan class="cls-26" x="22.63" y="130.8">d</tspan><tspan class="cls-30" x="33.39" y="130.8">e</tspan><tspan x="43.35" y="130.8">n</tspan><tspan class="cls-17" x="53" y="130.8">t</tspan><tspan class="cls-19" x="58.97" y="130.8">e</tspan><tspan x="68.84" y="130.8">.</tspan></tspan></text>
</svg>