<?xml version="1.0" encoding="UTF-8"?>
<svg id="Layer_1" data-name="Layer 1" xmlns="http://www.w3.org/2000/svg" viewBox="0 0 366.28 305.38">
  <defs>
    <style>
      .cls-1 {
        letter-spacing: 0em;
      }

      .cls-2 {
        letter-spacing: 0em;
      }

      .cls-3 {
        letter-spacing: 0em;
      }

      .cls-4 {
        letter-spacing: 0em;
      }

      .cls-5 {
        letter-spacing: 0em;
      }

      .cls-6 {
        fill: #fff;
      }

      .cls-7 {
        letter-spacing: -.01em;
      }

      .cls-8 {
        letter-spacing: 0em;
      }

      .cls-9 {
        letter-spacing: -.03em;
      }

      .cls-10 {
        letter-spacing: -.02em;
      }

      .cls-11 {
        letter-spacing: -.03em;
      }

      .cls-12 {
        font-family: UrbanistRoman-Bold, Urbanist;
        font-size: 23.99px;
        font-variation-settings: 'wght' 700;
        font-weight: 700;
      }

      .cls-13 {
        letter-spacing: -.03em;
      }

      .cls-14 {
        letter-spacing: -.03em;
      }

      .cls-15 {
        letter-spacing: -.02em;
      }

      .cls-16 {
        letter-spacing: -.02em;
      }

      .cls-17 {
        letter-spacing: 0em;
      }

      .cls-18 {
        letter-spacing: 0em;
      }

      .cls-19 {
        letter-spacing: -.05em;
      }

      .cls-20 {
        letter-spacing: 0em;
      }

      .cls-21 {
        letter-spacing: 0em;
      }

      .cls-22 {
        letter-spacing: -.04em;
      }

      .cls-23 {
        letter-spacing: 0em;
      }

      .cls-24 {
        letter-spacing: -.01em;
      }

      .cls-25 {
        letter-spacing: -.07em;
      }

      .cls-26 {
        letter-spacing: 0em;
      }

      .cls-27 {
        letter-spacing: -.02em;
      }

      .cls-28 {
        letter-spacing: -.01em;
      }

      .cls-29 {
        letter-spacing: 0em;
      }

      .cls-30 {
        letter-spacing: 0em;
      }

      .cls-31 {
        letter-spacing: -.02em;
      }

      .cls-32 {
        letter-spacing: 0em;
      }

      .cls-33 {
        font-family: Urbanist-Regular, Urbanist;
        font-size: 18px;
        font-variation-settings: 'wght' 400;
      }

      .cls-34 {
        letter-spacing: 0em;
      }

      .cls-35 {
        fill: #130044;
      }

      .cls-36 {
        letter-spacing: -.01em;
      }
    </style>
  </defs>
  <rect class="cls-35" x="0" y="0" width="366.28" height="305.38" rx="29.13" ry="29.13"/>
  <g id="growth">
    <path class="cls-6" d="M72.61,75.92h-3.46v-26.55c0-.64-.52-1.15-1.15-1.15h-6.92c-.64,0-1.15.52-1.15,1.15v26.55h-4.62v-17.31c0-.64-.52-1.15-1.15-1.15h-6.92c-.64,0-1.15.52-1.15,1.15v17.31h-4.62v-15c0-.64-.52-1.15-1.15-1.15h-6.92c-.64,0-1.15.52-1.15,1.15v15h-3.46c-.64,0-1.15.52-1.15,1.15s.52,1.15,1.15,1.15h43.86c.64,0,1.15-.52,1.15-1.15s-.52-1.15-1.15-1.15ZM39.14,75.92h-4.62v-13.85h4.62v13.85ZM52.99,75.92h-4.62v-16.16h4.62v16.16ZM66.84,75.92h-4.62v-25.39h4.62v25.39Z"/>
    <path class="cls-6" d="M28.75,57.46c.31,0,.6-.12.81-.35l10.85-10.83,8.43,6.32c.46.35,1.1.3,1.5-.12l16.5-16.48v4.13c0,.64.52,1.15,1.15,1.15s1.15-.52,1.15-1.15v-6.92c.03-.14.03-.29,0-.44-.12-.33-.38-.6-.72-.72-.14-.03-.29-.03-.44,0h-6.92c-.64,0-1.15.52-1.15,1.15s.52,1.15,1.15,1.15h4.13l-15.79,15.79-8.43-6.32c-.46-.35-1.1-.3-1.5.12l-11.54,11.54c-.45.42-.47,1.12-.05,1.57.02.02.03.03.05.05.21.22.5.35.81.35Z"/>
  </g>
  <text class="cls-6" transform="translate(27.59 119.7)"><tspan class="cls-12"><tspan class="cls-25" x="0" y="0">T</tspan><tspan class="cls-15" x="13.54" y="0">r</tspan><tspan class="cls-1" x="22.4" y="0">i</tspan><tspan class="cls-16" x="28.23" y="0">b</tspan><tspan x="42.55" y="0">u</tspan><tspan class="cls-36" x="55.46" y="0">t</tspan><tspan class="cls-18" x="63.78" y="0">a</tspan><tspan class="cls-31" x="77.91" y="0">ç</tspan><tspan class="cls-18" x="89.77" y="0">ã</tspan><tspan x="103.9" y="0">o </tspan><tspan class="cls-20" x="123.09" y="0">f</tspan><tspan class="cls-2" x="131.95" y="0">l</tspan><tspan class="cls-19" x="137.57" y="0">e</tspan><tspan class="cls-16" x="149.72" y="0">x</tspan><tspan class="cls-15" x="163.48" y="0">í</tspan><tspan class="cls-22" x="168.91" y="0">v</tspan><tspan class="cls-27" x="182.01" y="0">e</tspan><tspan x="194.97" y="0">l</tspan></tspan><tspan class="cls-33"><tspan x="0" y="43.2">É </tspan><tspan class="cls-21" x="13.97" y="43.2">p</tspan><tspan class="cls-26" x="24.61" y="43.2">o</tspan><tspan x="34.62" y="43.2">s</tspan><tspan class="cls-5" x="42.35" y="43.2">s</tspan><tspan class="cls-29" x="50" y="43.2">í</tspan><tspan class="cls-11" x="53.3" y="43.2">v</tspan><tspan class="cls-30" x="62.07" y="43.2">e</tspan><tspan x="71.97" y="43.2">l </tspan><tspan class="cls-26" x="79.71" y="43.2">es</tspan><tspan class="cls-29" x="97.37" y="43.2">c</tspan><tspan class="cls-30" x="106.42" y="43.2">o</tspan><tspan x="116.35" y="43.2">l</tspan><tspan class="cls-21" x="119.77" y="43.2">h</tspan><tspan class="cls-5" x="129.24" y="43.2">e</tspan><tspan x="139.2" y="43.2">r a </tspan><tspan class="cls-28" x="164.74" y="43.2">m</tspan><tspan class="cls-30" x="180.55" y="43.2">e</tspan><tspan x="190.45" y="43.2">l</tspan><tspan class="cls-28" x="193.87" y="43.2">h</tspan><tspan class="cls-5" x="203.34" y="43.2">o</tspan><tspan x="213.33" y="43.2">r </tspan><tspan class="cls-7" x="224.08" y="43.2">f</tspan><tspan class="cls-5" x="229.88" y="43.2">or</tspan><tspan class="cls-21" x="246.21" y="43.2">m</tspan><tspan x="262.03" y="43.2">a </tspan></tspan><tspan class="cls-33"><tspan class="cls-26" x="0" y="64.8">d</tspan><tspan x="10.76" y="64.8">e t</tspan><tspan class="cls-29" x="31.35" y="64.8">r</tspan><tspan class="cls-23" x="37.66" y="64.8">i</tspan><tspan class="cls-28" x="41.15" y="64.8">b</tspan><tspan x="51.79" y="64.8">u</tspan><tspan class="cls-24" x="61.08" y="64.8">t</tspan><tspan class="cls-21" x="67.05" y="64.8">a</tspan><tspan class="cls-29" x="77.33" y="64.8">ç</tspan><tspan class="cls-28" x="86.38" y="64.8">ã</tspan><tspan x="96.66" y="64.8">o </tspan><tspan class="cls-26" x="111.06" y="64.8">d</tspan><tspan x="121.82" y="64.8">o </tspan><tspan class="cls-3" x="136.22" y="64.8">p</tspan><tspan class="cls-26" x="146.89" y="64.8">l</tspan><tspan x="150.25" y="64.8">a</tspan><tspan class="cls-21" x="160.7" y="64.8">no</tspan><tspan class="cls-32" x="180.07" y="64.8">. </tspan><tspan class="cls-10" x="187.63" y="64.8">R</tspan><tspan class="cls-28" x="197.33" y="64.8">e</tspan><tspan class="cls-5" x="207.21" y="64.8">g</tspan><tspan class="cls-8" x="217.69" y="64.8">i</tspan><tspan class="cls-21" x="221.08" y="64.8">m</tspan><tspan x="236.9" y="64.8">e </tspan></tspan><tspan class="cls-33"><tspan class="cls-5" x="0" y="86.4">p</tspan><tspan class="cls-9" x="10.73" y="86.4">r</tspan><tspan class="cls-21" x="16.56" y="86.4">o</tspan><tspan x="26.46" y="86.4">g</tspan><tspan class="cls-9" x="37.04" y="86.4">r</tspan><tspan class="cls-26" x="42.87" y="86.4">e</tspan><tspan x="52.86" y="86.4">s</tspan><tspan class="cls-34" x="60.59" y="86.4">s</tspan><tspan class="cls-4" x="68.23" y="86.4">i</tspan><tspan class="cls-13" x="71.53" y="86.4">v</tspan><tspan class="cls-21" x="80.31" y="86.4">o</tspan><tspan class="cls-17" x="90.21" y="86.4">, </tspan><tspan class="cls-28" x="98.15" y="86.4">b</tspan><tspan class="cls-5" x="108.79" y="86.4">o</tspan><tspan x="118.78" y="86.4">m </tspan><tspan class="cls-21" x="139.09" y="86.4">p</tspan><tspan x="149.73" y="86.4">a</tspan><tspan class="cls-9" x="160.19" y="86.4">r</tspan><tspan x="166.02" y="86.4">a </tspan></tspan><tspan class="cls-33"><tspan class="cls-8" x="0" y="108">i</tspan><tspan class="cls-28" x="3.39" y="108">n</tspan><tspan class="cls-13" x="12.86" y="108">v</tspan><tspan class="cls-26" x="21.64" y="108">e</tspan><tspan x="31.63" y="108">s</tspan><tspan class="cls-26" x="39.36" y="108">t</tspan><tspan class="cls-8" x="45.5" y="108">i</tspan><tspan class="cls-21" x="48.9" y="108">m</tspan><tspan class="cls-5" x="64.71" y="108">e</tspan><tspan x="74.67" y="108">n</tspan><tspan class="cls-24" x="84.32" y="108">t</tspan><tspan class="cls-26" x="90.29" y="108">o</tspan><tspan x="100.31" y="108">s </tspan><tspan class="cls-26" x="112.36" y="108">d</tspan><tspan x="123.12" y="108">e </tspan><tspan class="cls-5" x="137.49" y="108">c</tspan><tspan x="146.57" y="108">ur</tspan><tspan class="cls-24" x="162.3" y="108">t</tspan><tspan x="168.26" y="108">o </tspan><tspan class="cls-5" x="182.66" y="108">p</tspan><tspan class="cls-9" x="193.39" y="108">r</tspan><tspan x="199.22" y="108">a</tspan><tspan class="cls-5" x="209.68" y="108">z</tspan><tspan x="218.72" y="108">o e </tspan></tspan><tspan class="cls-33"><tspan class="cls-9" x="0" y="129.6">r</tspan><tspan class="cls-21" x="5.83" y="129.6">e</tspan><tspan class="cls-5" x="15.71" y="129.6">g</tspan><tspan class="cls-8" x="26.19" y="129.6">i</tspan><tspan class="cls-28" x="29.58" y="129.6">m</tspan><tspan x="45.4" y="129.6">e </tspan><tspan class="cls-14" x="59.77" y="129.6">r</tspan><tspan class="cls-28" x="65.6" y="129.6">e</tspan><tspan x="75.47" y="129.6">g</tspan><tspan class="cls-14" x="86.05" y="129.6">r</tspan><tspan class="cls-26" x="91.88" y="129.6">e</tspan><tspan x="101.87" y="129.6">s</tspan><tspan class="cls-5" x="109.6" y="129.6">s</tspan><tspan class="cls-29" x="117.24" y="129.6">i</tspan><tspan class="cls-11" x="120.55" y="129.6">v</tspan><tspan class="cls-21" x="129.32" y="129.6">o</tspan><tspan x="139.22" y="129.6">, </tspan><tspan class="cls-28" x="147.16" y="129.6">b</tspan><tspan class="cls-5" x="157.8" y="129.6">o</tspan><tspan x="167.79" y="129.6">m </tspan><tspan class="cls-21" x="188.11" y="129.6">p</tspan><tspan x="198.75" y="129.6">a</tspan><tspan class="cls-9" x="209.2" y="129.6">r</tspan><tspan x="215.04" y="129.6">a </tspan></tspan><tspan class="cls-33"><tspan class="cls-8" x="0" y="151.2">i</tspan><tspan class="cls-28" x="3.39" y="151.2">n</tspan><tspan class="cls-13" x="12.86" y="151.2">v</tspan><tspan class="cls-26" x="21.64" y="151.2">e</tspan><tspan x="31.63" y="151.2">s</tspan><tspan class="cls-26" x="39.36" y="151.2">t</tspan><tspan class="cls-8" x="45.5" y="151.2">i</tspan><tspan class="cls-21" x="48.9" y="151.2">m</tspan><tspan class="cls-5" x="64.71" y="151.2">e</tspan><tspan x="74.67" y="151.2">n</tspan><tspan class="cls-24" x="84.32" y="151.2">t</tspan><tspan class="cls-26" x="90.29" y="151.2">o</tspan><tspan x="100.31" y="151.2">s </tspan><tspan class="cls-26" x="112.36" y="151.2">d</tspan><tspan x="123.12" y="151.2">e </tspan><tspan class="cls-26" x="137.49" y="151.2">l</tspan><tspan class="cls-5" x="140.85" y="151.2">o</tspan><tspan class="cls-21" x="150.84" y="151.2">n</tspan><tspan class="cls-5" x="160.31" y="151.2">g</tspan><tspan x="170.79" y="151.2">o </tspan><tspan class="cls-5" x="185.19" y="151.2">p</tspan><tspan class="cls-9" x="195.92" y="151.2">r</tspan><tspan x="201.75" y="151.2">a</tspan><tspan class="cls-5" x="212.21" y="151.2">z</tspan><tspan class="cls-21" x="221.25" y="151.2">o</tspan><tspan x="231.15" y="151.2">.</tspan></tspan></text>
</svg>