<?xml version="1.0" encoding="UTF-8"?>
<svg id="Layer_1" data-name="Layer 1" xmlns="http://www.w3.org/2000/svg" viewBox="0 0 366.28 305.38">
  <defs>
    <style>
      .cls-1 {
        letter-spacing: -.01em;
      }

      .cls-2 {
        font-family: UrbanistRoman-Bold, Urbanist;
        font-size: 23.99px;
        font-variation-settings: 'wght' 700;
        font-weight: 700;
      }

      .cls-2, .cls-3 {
        fill: #130044;
      }

      .cls-4 {
        letter-spacing: 0em;
      }

      .cls-5 {
        letter-spacing: -.01em;
      }

      .cls-6 {
        letter-spacing: -.04em;
      }

      .cls-7 {
        letter-spacing: 0em;
      }
    </style>
  </defs>
  <path class="cls-3" d="M337.15,8.99c11.1,0,20.13,9.03,20.13,20.14v247.12c0,11.1-9.03,20.14-20.13,20.14H29.13c-11.1,0-20.14-9.03-20.14-20.14V29.13c0-11.1,9.03-20.14,20.14-20.14h308.02M337.15,0H29.13C13.11,0,0,13.11,0,29.13v247.12C0,292.27,13.11,305.38,29.13,305.38h308.02c16.02,0,29.13-13.11,29.13-29.13V29.13C366.28,13.11,353.18,0,337.15,0h0Z"/>
  <text class="cls-2" transform="translate(27.59 274.19)"><tspan class="cls-6" x="0" y="0">C</tspan><tspan class="cls-1" x="16.01" y="0">o</tspan><tspan class="cls-7" x="29.17" y="0">ns</tspan><tspan class="cls-4" x="52.97" y="0">u</tspan><tspan x="65.94" y="0">l</tspan><tspan class="cls-5" x="71.74" y="0">t</tspan><tspan x="80.07" y="0">as</tspan></text>
  <polygon class="cls-3" points="338.69 262.6 330.04 262.6 330.04 253.95 324.38 253.95 324.38 262.6 315.73 262.6 315.73 268.27 324.38 268.27 324.38 276.92 330.04 276.92 330.04 268.27 338.69 268.27 338.69 262.6"/>
  <g>
    <path class="cls-3" d="M57.06,41.3h-2.84v-2.84c0-.41-.33-.74-.74-.74h-3.27c-.41,0-.74.33-.74.74v2.84h-2.84c-.41,0-.74.33-.74.74v3.27c0,.41.33.74.74.74h2.84v2.84c0,.41.33.74.74.74h3.27c.41,0,.74-.33.74-.74v-2.84h2.84c.41,0,.74-.33.74-.74v-3.27c0-.41-.33-.74-.74-.74ZM56.32,44.57h-2.84c-.41,0-.74.33-.74.74v2.84h-1.78v-2.84c0-.41-.33-.74-.74-.74h-2.84v-1.78h2.84c.41,0,.74-.33.74-.74v-2.84h1.78v2.84c0,.41.33.74.74.74h2.84v1.78Z"/>
    <path class="cls-3" d="M75.33,76.75h-4.01v-24.86h3.99c.32,0,.6-.2.7-.5.1-.3,0-.63-.24-.82l-23.46-18.37c-.27-.21-.64-.21-.91,0l-23.46,18.37c-.25.19-.35.53-.24.82.1.3.38.5.7.5h3.96v16.74c0,.41.33.74.74.74s.74-.33.74-.74v-16.74h36.01v24.86h-22.24v-18.04c0-.41-.33-.74-.74-.74h-10.27c-.41,0-.74.33-.74.74v18.04h-2.02v-5.68c0-.41-.33-.74-.74-.74s-.74.33-.74.74v5.68h-4.01c-.41,0-.74.33-.74.74s.33.74.74.74h47c.41,0,.74-.33.74-.74s-.33-.74-.74-.74ZM46.11,76.75h-8.79v-17.3h8.79v17.3ZM30.53,50.41l21.32-16.69,21.32,16.69H30.53Z"/>
    <path class="cls-3" d="M67.08,57.96h-3.53c-.41,0-.74.33-.74.74s.33.74.74.74h2.79v9.67h-15.83v-9.67h10.61c.41,0,.74-.33.74-.74s-.33-.74-.74-.74h-11.35c-.41,0-.74.33-.74.74v11.15c0,.41.33.74.74.74h17.31c.41,0,.74-.33.74-.74v-11.15c0-.41-.33-.74-.74-.74Z"/>
    <path class="cls-3" d="M44.37,66.19c-.41,0-.74.33-.74.74v2.34c0,.41.33.74.74.74s.74-.33.74-.74v-2.34c0-.41-.33-.74-.74-.74Z"/>
  </g>
</svg>