<?xml version="1.0" encoding="UTF-8"?>
<svg id="Layer_1" data-name="Layer 1" xmlns="http://www.w3.org/2000/svg" viewBox="0 0 366.28 305.38">
  <defs>
    <style>
      .cls-1 {
        letter-spacing: -.04em;
      }

      .cls-2 {
        letter-spacing: 0em;
      }

      .cls-3 {
        letter-spacing: 0em;
      }

      .cls-4 {
        letter-spacing: 0em;
      }

      .cls-5 {
        letter-spacing: 0em;
      }

      .cls-6 {
        letter-spacing: -.02em;
      }

      .cls-7 {
        letter-spacing: 0em;
      }

      .cls-8, .cls-9 {
        fill: #fff;
      }

      .cls-10 {
        letter-spacing: -.02em;
      }

      .cls-11 {
        letter-spacing: 0em;
      }

      .cls-12 {
        letter-spacing: -.01em;
      }

      .cls-13 {
        font-family: UrbanistRoman-Bold, Urbanist;
        font-variation-settings: 'wght' 700;
        font-weight: 700;
      }

      .cls-14 {
        letter-spacing: 0em;
      }

      .cls-15 {
        letter-spacing: -.04em;
      }

      .cls-16 {
        letter-spacing: 0em;
      }

      .cls-17 {
        letter-spacing: -.02em;
      }

      .cls-18 {
        letter-spacing: -.01em;
      }

      .cls-19 {
        letter-spacing: 0em;
      }

      .cls-20 {
        letter-spacing: -.03em;
      }

      .cls-21 {
        letter-spacing: 0em;
      }

      .cls-22 {
        letter-spacing: 0em;
      }

      .cls-23 {
        letter-spacing: -.03em;
      }

      .cls-24 {
        letter-spacing: 0em;
      }

      .cls-9 {
        font-size: 16px;
      }

      .cls-25 {
        letter-spacing: -.03em;
      }

      .cls-26 {
        letter-spacing: -.01em;
      }

      .cls-27 {
        letter-spacing: -.03em;
      }

      .cls-28 {
        letter-spacing: 0em;
      }

      .cls-29 {
        letter-spacing: 0em;
      }

      .cls-30 {
        letter-spacing: -.01em;
      }

      .cls-31 {
        letter-spacing: -.04em;
      }

      .cls-32 {
        letter-spacing: -.01em;
      }

      .cls-33 {
        letter-spacing: 0em;
      }

      .cls-34 {
        font-family: Urbanist-Regular, Urbanist;
        font-variation-settings: 'wght' 400;
      }

      .cls-35 {
        letter-spacing: 0em;
      }

      .cls-36 {
        letter-spacing: 0em;
      }

      .cls-37 {
        fill: #130044;
      }
    </style>
  </defs>
  <rect class="cls-37" x="0" y="0" width="366.28" height="305.38" rx="29.13" ry="29.13"/>
  <path class="cls-8" d="M57,54.95c-.05-.17-.14-.32-.21-.39l-13.51-22.52-13.57,22.64c-.04.07-.07.13-.1.2-1.32,2.35-2.02,5-2.02,7.67,0,8.65,7.04,15.69,15.69,15.69s15.69-7.04,15.69-15.69c0-2.64-.68-5.26-1.97-7.59ZM31.98,55.87l11.3-18.84,11.25,18.75c.03.08.06.15.09.2,1.16,2,1.77,4.26,1.77,6.56,0,7.23-5.88,13.12-13.12,13.12-7.23,0-13.12-5.88-13.12-13.12,0-2.29.61-4.56,1.77-6.55.03-.06.06-.12.06-.12,0,0,0,0,0,0Z"/>
  <text class="cls-9" transform="translate(27.59 113.71)"><tspan class="cls-13"><tspan class="cls-6" x="0" y="0">D</tspan><tspan class="cls-12" x="10.5" y="0">er</tspan><tspan class="cls-1" x="25.25" y="0">r</tspan><tspan x="30.81" y="0">a</tspan><tspan class="cls-24" x="40.39" y="0">m</tspan><tspan x="54.45" y="0">e e </tspan><tspan class="cls-31" x="80.03" y="0">v</tspan><tspan x="88.77" y="0">a</tspan><tspan class="cls-12" x="98.35" y="0">z</tspan><tspan x="106.28" y="0">a</tspan><tspan class="cls-24" x="115.86" y="0">m</tspan><tspan class="cls-18" x="129.92" y="0">e</tspan><tspan x="138.69" y="0">n</tspan><tspan class="cls-30" x="147.62" y="0">t</tspan><tspan x="153.17" y="0">o </tspan><tspan class="cls-16" x="165.97" y="0">d</tspan><tspan x="175.77" y="0">e </tspan><tspan class="cls-24" x="188.56" y="0">á</tspan><tspan class="cls-17" x="197.98" y="0">g</tspan><tspan class="cls-16" x="207.54" y="0">u</tspan><tspan x="216.03" y="0">a </tspan><tspan class="cls-28" x="229.46" y="0">d</tspan><tspan class="cls-19" x="239.26" y="0">e </tspan></tspan><tspan class="cls-13"><tspan class="cls-6" x="0" y="19.2">c</tspan><tspan x="7.91" y="19.2">hu</tspan><tspan class="cls-15" x="25.45" y="19.2">v</tspan><tspan class="cls-10" x="34.18" y="19.2">e</tspan><tspan class="cls-22" x="42.77" y="19.2">i</tspan><tspan class="cls-1" x="46.58" y="19.2">r</tspan><tspan class="cls-28" x="52.14" y="19.2">o</tspan><tspan x="60.98" y="19.2">s au</tspan><tspan class="cls-30" x="89.96" y="19.2">t</tspan><tspan class="cls-18" x="95.51" y="19.2">o</tspan><tspan class="cls-24" x="104.29" y="19.2">m</tspan><tspan x="118.35" y="19.2">á</tspan><tspan class="cls-28" x="127.93" y="19.2">t</tspan><tspan class="cls-18" x="133.54" y="19.2">i</tspan><tspan class="cls-17" x="137.23" y="19.2">c</tspan><tspan class="cls-16" x="145.14" y="19.2">o</tspan><tspan x="153.98" y="19.2">s</tspan></tspan><tspan class="cls-34"><tspan class="cls-25" x="0" y="57.6">C</tspan><tspan class="cls-3" x="10.78" y="57.6">o</tspan><tspan class="cls-24" x="19.61" y="57.6">b</tspan><tspan class="cls-2" x="29.07" y="57.6">e</tspan><tspan x="37.93" y="57.6">rtu</tspan><tspan class="cls-27" x="57.42" y="57.6">r</tspan><tspan x="62.61" y="57.6">a </tspan><tspan class="cls-24" x="75.74" y="57.6">a</tspan><tspan x="84.88" y="57.6">d</tspan><tspan class="cls-33" x="94.5" y="57.6">i</tspan><tspan class="cls-3" x="97.46" y="57.6">c</tspan><tspan class="cls-33" x="105.48" y="57.6">io</tspan><tspan class="cls-32" x="117.32" y="57.6">n</tspan><tspan class="cls-14" x="125.73" y="57.6">a</tspan><tspan x="135.13" y="57.6">l, </tspan><tspan class="cls-2" x="145.23" y="57.6">g</tspan><tspan x="154.55" y="57.6">a</tspan><tspan class="cls-23" x="163.85" y="57.6">r</tspan><tspan x="169.03" y="57.6">an</tspan><tspan class="cls-26" x="186.9" y="57.6">t</tspan><tspan x="192.21" y="57.6">e </tspan><tspan class="cls-7" x="204.98" y="57.6">o</tspan><tspan x="213.89" y="57.6">s </tspan><tspan class="cls-11" x="224.6" y="57.6">d</tspan><tspan x="234.17" y="57.6">a</tspan><tspan class="cls-24" x="243.46" y="57.6">n</tspan><tspan class="cls-11" x="251.88" y="57.6">o</tspan><tspan x="260.78" y="57.6">s </tspan></tspan><tspan class="cls-34"><tspan class="cls-5" x="0" y="76.8">q</tspan><tspan class="cls-11" x="9.51" y="76.8">u</tspan><tspan x="17.71" y="76.8">e o </tspan><tspan class="cls-5" x="43.29" y="76.8">c</tspan><tspan class="cls-2" x="51.34" y="76.8">o</tspan><tspan class="cls-24" x="60.22" y="76.8">n</tspan><tspan class="cls-11" x="68.63" y="76.8">d</tspan><tspan class="cls-33" x="78.2" y="76.8">o</tspan><tspan x="87.08" y="76.8">m</tspan><tspan class="cls-4" x="101.3" y="76.8">í</tspan><tspan x="104.31" y="76.8">n</tspan><tspan class="cls-33" x="112.89" y="76.8">i</tspan><tspan x="115.85" y="76.8">o e </tspan><tspan class="cls-11" x="141.42" y="76.8">o</tspan><tspan x="150.33" y="76.8">s </tspan><tspan class="cls-24" x="161.04" y="76.8">b</tspan><tspan class="cls-33" x="170.5" y="76.8">e</tspan><tspan x="179.36" y="76.8">ns </tspan><tspan class="cls-11" x="198.65" y="76.8">do</tspan><tspan x="217.12" y="76.8">s </tspan></tspan><tspan class="cls-34"><tspan class="cls-32" x="0" y="96">m</tspan><tspan class="cls-33" x="14.06" y="96">o</tspan><tspan class="cls-23" x="22.94" y="96">r</tspan><tspan class="cls-32" x="28.12" y="96">a</tspan><tspan class="cls-7" x="37.26" y="96">d</tspan><tspan class="cls-2" x="46.82" y="96">o</tspan><tspan class="cls-27" x="55.7" y="96">r</tspan><tspan class="cls-7" x="60.89" y="96">e</tspan><tspan x="69.77" y="96">s </tspan><tspan class="cls-7" x="80.48" y="96">t</tspan><tspan class="cls-29" x="85.94" y="96">i</tspan><tspan class="cls-20" x="88.88" y="96">v</tspan><tspan class="cls-33" x="96.68" y="96">e</tspan><tspan class="cls-27" x="105.54" y="96">r</tspan><tspan class="cls-2" x="110.72" y="96">e</tspan><tspan x="119.57" y="96">m, </tspan><tspan class="cls-24" x="140.85" y="96">p</tspan><tspan class="cls-33" x="150.3" y="96">o</tspan><tspan x="159.18" y="96">r </tspan><tspan class="cls-4" x="168.74" y="96">i</tspan><tspan x="171.76" y="96">n</tspan><tspan class="cls-7" x="180.33" y="96">f</tspan><tspan class="cls-35" x="185.61" y="96">i</tspan><tspan x="188.71" y="96">lt</tspan><tspan class="cls-23" x="197.27" y="96">r</tspan><tspan class="cls-24" x="202.45" y="96">a</tspan><tspan class="cls-29" x="211.59" y="96">ç</tspan><tspan class="cls-32" x="219.64" y="96">ã</tspan><tspan x="228.77" y="96">o </tspan><tspan class="cls-24" x="241.57" y="96">o</tspan><tspan x="250.37" y="96">u </tspan></tspan><tspan class="cls-34"><tspan class="cls-7" x="0" y="115.2">d</tspan><tspan class="cls-2" x="9.57" y="115.2">er</tspan><tspan class="cls-23" x="24.06" y="115.2">r</tspan><tspan x="29.25" y="115.2">a</tspan><tspan class="cls-24" x="38.54" y="115.2">m</tspan><tspan x="52.6" y="115.2">a</tspan><tspan class="cls-32" x="61.9" y="115.2">m</tspan><tspan class="cls-2" x="75.95" y="115.2">e</tspan><tspan x="84.81" y="115.2">n</tspan><tspan class="cls-26" x="93.38" y="115.2">t</tspan><tspan x="98.69" y="115.2">o </tspan><tspan class="cls-7" x="111.49" y="115.2">d</tspan><tspan x="121.05" y="115.2">e </tspan><tspan class="cls-32" x="133.83" y="115.2">á</tspan><tspan class="cls-5" x="142.97" y="115.2">g</tspan><tspan class="cls-11" x="152.26" y="115.2">u</tspan><tspan x="160.46" y="115.2">a </tspan><tspan class="cls-7" x="173.6" y="115.2">d</tspan><tspan x="183.17" y="115.2">e </tspan><tspan class="cls-5" x="195.94" y="115.2">c</tspan><tspan class="cls-19" x="203.99" y="115.2">hu</tspan><tspan class="cls-20" x="220.82" y="115.2">v</tspan><tspan class="cls-24" x="228.62" y="115.2">e</tspan><tspan class="cls-21" x="237.4" y="115.2">i</tspan><tspan class="cls-27" x="240.41" y="115.2">r</tspan><tspan class="cls-7" x="245.6" y="115.2">o</tspan><tspan x="254.5" y="115.2">s </tspan></tspan><tspan class="cls-34"><tspan x="0" y="134.4">au</tspan><tspan class="cls-26" x="17.55" y="134.4">t</tspan><tspan class="cls-2" x="22.86" y="134.4">o</tspan><tspan class="cls-24" x="31.74" y="134.4">m</tspan><tspan x="45.79" y="134.4">á</tspan><tspan class="cls-11" x="55.09" y="134.4">t</tspan><tspan class="cls-33" x="60.55" y="134.4">i</tspan><tspan class="cls-5" x="63.51" y="134.4">c</tspan><tspan class="cls-11" x="71.56" y="134.4">o</tspan><tspan x="80.46" y="134.4">s e </tspan><tspan class="cls-26" x="103.95" y="134.4">t</tspan><tspan x="109.25" y="134.4">a</tspan><tspan class="cls-36" x="118.55" y="134.4">m</tspan><tspan class="cls-24" x="132.87" y="134.4">b</tspan><tspan class="cls-33" x="142.33" y="134.4">é</tspan><tspan x="151.19" y="134.4">m </tspan><tspan class="cls-11" x="169.25" y="134.4">o</tspan><tspan x="178.15" y="134.4">s </tspan><tspan class="cls-11" x="188.86" y="134.4">d</tspan><tspan x="198.43" y="134.4">a</tspan><tspan class="cls-24" x="207.72" y="134.4">n</tspan><tspan class="cls-11" x="216.14" y="134.4">o</tspan><tspan x="225.04" y="134.4">s </tspan><tspan class="cls-7" x="235.76" y="134.4">d</tspan><tspan x="245.33" y="134.4">as </tspan></tspan><tspan class="cls-34"><tspan class="cls-21" x="0" y="153.6">i</tspan><tspan x="3.02" y="153.6">ns</tspan><tspan class="cls-26" x="18.46" y="153.6">t</tspan><tspan class="cls-14" x="23.77" y="153.6">a</tspan><tspan class="cls-11" x="33.17" y="153.6">l</tspan><tspan class="cls-24" x="36.15" y="153.6">a</tspan><tspan class="cls-29" x="45.29" y="153.6">ç</tspan><tspan class="cls-32" x="53.34" y="153.6">õ</tspan><tspan class="cls-7" x="62.14" y="153.6">e</tspan><tspan x="71.02" y="153.6">s </tspan><tspan class="cls-11" x="81.73" y="153.6">de</tspan><tspan x="100.18" y="153.6">s</tspan><tspan class="cls-7" x="107.05" y="153.6">se</tspan><tspan x="122.74" y="153.6">s </tspan><tspan class="cls-5" x="133.46" y="153.6">c</tspan><tspan class="cls-19" x="141.5" y="153.6">hu</tspan><tspan class="cls-20" x="158.33" y="153.6">v</tspan><tspan class="cls-24" x="166.13" y="153.6">e</tspan><tspan class="cls-21" x="174.91" y="153.6">i</tspan><tspan class="cls-27" x="177.93" y="153.6">r</tspan><tspan class="cls-7" x="183.11" y="153.6">o</tspan><tspan class="cls-21" x="192.01" y="153.6">s</tspan><tspan x="198.86" y="153.6">.</tspan></tspan></text>
</svg>