<?xml version="1.0" encoding="UTF-8"?>
<svg id="Layer_1" data-name="Layer 1" xmlns="http://www.w3.org/2000/svg" viewBox="0 0 366.28 305.38">
  <defs>
    <style>
      .cls-1 {
        letter-spacing: 0em;
      }

      .cls-2 {
        letter-spacing: -.04em;
      }

      .cls-3, .cls-4 {
        fill: #5b1112;
      }

      .cls-5 {
        letter-spacing: 0em;
      }

      .cls-6 {
        letter-spacing: -.01em;
      }

      .cls-7 {
        letter-spacing: -.04em;
      }

      .cls-4 {
        font-family: UrbanistRoman-Bold, Urbanist;
        font-size: 23.99px;
        font-variation-settings: 'wght' 700;
        font-weight: 700;
      }

      .cls-8 {
        fill: #130044;
      }

      .cls-9 {
        letter-spacing: -.01em;
      }
    </style>
  </defs>
  <path class="cls-8" d="M337.15,8.99c11.1,0,20.14,9.03,20.14,20.14v247.12c0,11.1-9.03,20.14-20.14,20.14H29.13c-11.1,0-20.13-9.03-20.13-20.14V29.13c0-11.1,9.03-20.14,20.13-20.14h308.02M337.15,0H29.13C13.11,0,0,13.11,0,29.13v247.12C0,292.27,13.11,305.38,29.13,305.38h308.02c16.02,0,29.13-13.11,29.13-29.13V29.13C366.28,13.11,353.18,0,337.15,0h0Z"/>
  <text class="cls-4" transform="translate(27.59 274.19)"><tspan class="cls-2" x="0" y="0">P</tspan><tspan class="cls-6" x="12.22" y="0">e</tspan><tspan class="cls-7" x="25.37" y="0">r</tspan><tspan class="cls-1" x="33.7" y="0">d</tspan><tspan x="48.39" y="0">a </tspan><tspan class="cls-9" x="68.52" y="0">tot</tspan><tspan class="cls-5" x="98.33" y="0">a</tspan><tspan x="112.76" y="0">l</tspan></text>
  <polygon class="cls-3" points="338.69 262.6 330.04 262.6 330.04 253.95 324.38 253.95 324.38 262.6 315.73 262.6 315.73 268.27 324.38 268.27 324.38 276.92 330.04 276.92 330.04 268.27 338.69 268.27 338.69 262.6"/>
  <g>
    <path class="cls-3" d="M44.75,64.67c-2.49,0-4.51,2.02-4.51,4.51s2.02,4.51,4.51,4.51,4.51-2.02,4.51-4.51-2.02-4.51-4.51-4.51ZM44.75,70.99c-1,0-1.81-.81-1.81-1.81s.81-1.81,1.81-1.81,1.81.81,1.81,1.81-.81,1.81-1.81,1.81Z"/>
    <path class="cls-3" d="M91.9,64.67c-2.49,0-4.51,2.02-4.51,4.51s2.02,4.51,4.51,4.51,4.51-2.02,4.51-4.51-2.02-4.51-4.51-4.51ZM91.9,70.99c-1,0-1.81-.81-1.81-1.81s.81-1.81,1.81-1.81,1.81.81,1.81,1.81-.81,1.81-1.81,1.81Z"/>
    <path class="cls-3" d="M51.3,55.14h2.84c.75,0,1.35-.6,1.35-1.35s-.6-1.35-1.35-1.35h-2.84c-.75,0-1.35.6-1.35,1.35s.6,1.35,1.35,1.35Z"/>
    <path class="cls-3" d="M54.59,65.04c-.27,1.17,1.09,2.08,2.08,1.41.52-.35.73-1.04.49-1.63,0,.02.01.03,0,0-.02-.04,0-.02,0,0-.24-.56-.84-.91-1.44-.81-.55.09-.99.5-1.12,1.04Z"/>
    <path class="cls-3" d="M51.67,32.04c-6.29,0-11.85,4.24-13.52,10.3l-.17.62c-.83,3.01-3.21,5.41-6.22,6.26-2.45.69-4.16,2.95-4.16,5.5v14.95c0,.75.6,1.35,1.35,1.35h6.95c.86,4.11,4.5,7.2,8.86,7.2s8.01-3.09,8.86-7.2h9.98v-38.99h-11.93ZM35.74,68.33h-5.44v-1.64h5.76c-.15.53-.26,1.08-.31,1.64ZM44.75,75.53c-3.5,0-6.35-2.85-6.35-6.35s2.85-6.35,6.35-6.35,6.35,2.85,6.35,6.35-2.85,6.35-6.35,6.35ZM60.9,47.59h-9.83v-8.47c.2-.02.4-.03.61-.03h9.22v8.5ZM60.9,36.39h-9.22c-4.34,0-8.17,2.92-9.32,7.1l-.17.62c-.44,1.61-1.13,4.38-1.16,4.5-.1.4,0,.83.25,1.16.26.33.65.52,1.06.52h18.56v13.69h-.44c-.75,0-1.35.6-1.35,1.35s.6,1.35,1.35,1.35h.44v1.64h-7.13c-.43-4.59-4.31-8.2-9.01-8.2-3.06,0-5.77,1.53-7.41,3.86h-7.05v-9.26c0-1.34.9-2.54,2.2-2.9,3.91-1.1,7.02-4.22,8.1-8.15l.17-.62c1.35-4.9,5.84-8.32,10.92-8.32h9.22v1.65ZM48.36,39.94v7.66h-4.3c.23-.9.51-1.98.72-2.76l.17-.62c.52-1.87,1.78-3.39,3.41-4.28Z"/>
    <path class="cls-3" d="M101.31,49.05l-12.05-1.38-6.43-10.46c-1.96-3.19-5.51-5.18-9.26-5.18h-2.77v38.99h12.25c.86,4.11,4.5,7.2,8.86,7.2s8.01-3.09,8.86-7.2h7.29c.69,0,1.26-.52,1.34-1.2l1.06-9.27c.65-5.69-3.45-10.85-9.15-11.51ZM73.49,39.09h.07c1.32,0,2.56.7,3.25,1.82l4.11,6.68h-7.43v-8.5ZM82.89,68.33h-9.4v-1.64h9.71c-.15.53-.26,1.08-.31,1.64ZM91.9,75.53c-3.5,0-6.35-2.85-6.35-6.35s2.85-6.35,6.35-6.35,6.35,2.85,6.35,6.35-2.85,6.35-6.35,6.35ZM106.85,68.33h-5.94c-.05-.56-.16-1.11-.31-1.64h6.43l-.19,1.64ZM107.77,60.25l-.43,3.73h-8.04c-1.64-2.33-4.35-3.86-7.41-3.86s-5.77,1.53-7.41,3.86h-11v-8.84h.14c.75,0,1.35-.6,1.35-1.35s-.6-1.35-1.35-1.35h-.14v-2.14h9.85c.49,0,.94-.26,1.18-.69.24-.43.23-.95-.03-1.37l-5.37-8.74c-1.18-1.92-3.31-3.11-5.56-3.11h-.07v-1.65h.07c2.82,0,5.49,1.49,6.96,3.89l6.78,11.02c.22.35.59.59,1,.63l12.71,1.45c2.88.33,5.21,2.22,6.25,4.73h-4.22c-.75,0-1.35.6-1.35,1.35s.6,1.35,1.35,1.35h4.79c0,.36,0,.72-.05,1.08Z"/>
  </g>
</svg>