<?xml version="1.0" encoding="UTF-8"?>
<svg id="Layer_1" data-name="Layer 1" xmlns="http://www.w3.org/2000/svg" viewBox="0 0 366.28 305.38">
  <defs>
    <style>
      .cls-1 {
        letter-spacing: 0em;
      }

      .cls-2 {
        letter-spacing: 0em;
      }

      .cls-3 {
        letter-spacing: -.01em;
      }

      .cls-4 {
        letter-spacing: -.02em;
      }

      .cls-5 {
        letter-spacing: 0em;
      }

      .cls-6 {
        letter-spacing: -.02em;
      }

      .cls-7 {
        letter-spacing: -.04em;
      }

      .cls-8 {
        font-family: UrbanistRoman-Bold, Urbanist;
        font-size: 23.99px;
        font-variation-settings: 'wght' 700;
        font-weight: 700;
      }

      .cls-8, .cls-9 {
        fill: #130044;
      }

      .cls-10 {
        letter-spacing: 0em;
      }

      .cls-11 {
        letter-spacing: -.01em;
      }
    </style>
  </defs>
  <path class="cls-9" d="M337.15,8.99c11.1,0,20.14,9.03,20.14,20.14v247.12c0,11.1-9.03,20.14-20.14,20.14H29.13c-11.1,0-20.14-9.03-20.14-20.14V29.13c0-11.1,9.03-20.14,20.14-20.14h308.02M337.15,0H29.13C13.11,0,0,13.11,0,29.13v247.12c0,16.02,13.11,29.13,29.13,29.13h308.02c16.02,0,29.13-13.11,29.13-29.13V29.13C366.28,13.11,353.18,0,337.15,0h0Z"/>
  <text class="cls-8" transform="translate(27.6 244.18)"><tspan class="cls-10" x="0" y="0">M</tspan><tspan class="cls-2" x="22.26" y="0">u</tspan><tspan x="35.22" y="0">l</tspan><tspan class="cls-11" x="41.03" y="0">t</tspan><tspan x="49.35" y="0">a </tspan><tspan class="cls-5" x="69.48" y="0">p</tspan><tspan class="cls-3" x="84.08" y="0">o</tspan><tspan x="97.24" y="0">r </tspan><tspan class="cls-7" x="112.23" y="0">r</tspan><tspan class="cls-1" x="120.57" y="0">es</tspan><tspan class="cls-6" x="144.05" y="0">c</tspan><tspan class="cls-1" x="155.83" y="0">is</tspan><tspan class="cls-5" x="171.69" y="0">ã</tspan><tspan x="185.82" y="0">o </tspan><tspan class="cls-4" x="0" y="28.78">c</tspan><tspan class="cls-3" x="11.86" y="28.78">o</tspan><tspan x="25.02" y="28.78">nt</tspan><tspan class="cls-7" x="46.99" y="28.78">r</tspan><tspan x="55.32" y="28.78">at</tspan><tspan class="cls-1" x="78.28" y="28.78">u</tspan><tspan class="cls-2" x="91" y="28.78">a</tspan><tspan x="105.43" y="28.78">l</tspan></text>
  <polygon class="cls-9" points="338.69 262.6 330.04 262.6 330.04 253.95 324.38 253.95 324.38 262.6 315.73 262.6 315.73 268.27 324.38 268.27 324.38 276.92 330.04 276.92 330.04 268.27 338.69 268.27 338.69 262.6"/>
  <path class="cls-9" d="M60.81,78.23c-.37,0-.73-.15-1-.41-.33-.33-.48-.81-.39-1.27l1.17-5.86c.11-.55.18-.88.32-1.24.12-.31.28-.62.48-.89.22-.31.46-.55.86-.95l12.02-12.02c1.04-1.04,2.42-1.61,3.89-1.61s2.85.57,3.89,1.61c1.04,1.04,1.61,2.42,1.61,3.89s-.57,2.85-1.61,3.89l-12.02,12.02c-.4.4-.64.64-.95.86-.28.19-.58.35-.89.48-.35.14-.69.21-1.24.32l-5.86,1.17c-.09.02-.18.03-.28.03ZM78.16,56.79c-.72,0-1.39.28-1.9.78l-12.02,12.02c-.31.31-.47.47-.54.57-.07.1-.12.2-.16.31-.05.12-.09.33-.18.77l-.76,3.78,3.78-.76c.43-.09.65-.13.76-.18.11-.04.21-.1.31-.16.11-.07.26-.23.57-.54l12.02-12.02c.51-.51.78-1.18.78-1.9s-.28-1.39-.78-1.9c-.51-.51-1.18-.78-1.9-.78ZM49.24,75.34h-10.99c-3.46,0-5.2,0-6.74-.78-1.36-.69-2.45-1.78-3.14-3.14-.78-1.54-.78-3.28-.78-6.74v-21.98c0-3.46,0-5.2.78-6.74.69-1.36,1.78-2.45,3.14-3.14,1.54-.78,3.28-.78,6.74-.78h33.54c3.46,0,5.2,0,6.74.78,1.36.7,2.45,1.78,3.14,3.14.78,1.54.78,3.28.78,6.74v.87c0,.78-.63,1.41-1.41,1.41s-1.41-.63-1.41-1.41v-.87c0-3.01,0-4.52-.48-5.46-.42-.83-1.08-1.49-1.91-1.91-.93-.48-2.45-.48-5.46-.48h-33.54c-3.01,0-4.52,0-5.46.48-.83.42-1.49,1.08-1.91,1.91-.48.94-.48,2.45-.48,5.46v21.98c0,3.01,0,4.52.48,5.46.42.83,1.08,1.49,1.91,1.91.94.48,2.45.48,5.46.48h10.99c.78,0,1.41.63,1.41,1.41s-.63,1.41-1.41,1.41ZM46.35,65.22c-.78,0-1.41-.63-1.41-1.41v-1.48h-4.37c-.78,0-1.41-.63-1.41-1.41s.63-1.41,1.41-1.41h5.78c4.38,0,4.38-.72,4.38-2.45,0-.62,0-1.39-.11-1.57-.19-.18-1.09-.4-4.27-.4s-5.17-.21-6.26-1.29c-.94-.94-.94-2.18-.93-3.49,0-4.34,3.32-5.1,5.78-5.23v-1.51c0-.78.63-1.41,1.41-1.41s1.41.63,1.41,1.41v1.48h4.38c.78,0,1.41.63,1.41,1.41s-.63,1.41-1.41,1.41h-5.78c-3.74,0-4.37.61-4.37,2.45,0,.52,0,1.38.11,1.5.17.17.96.47,4.26.47,5.75,0,7.19.56,7.19,4.78,0,3.06-.99,4.93-5.78,5.22v1.52c0,.78-.63,1.41-1.41,1.41ZM69.48,49.31h-8.67c-.78,0-1.41-.63-1.41-1.41s.63-1.41,1.41-1.41h8.67c.78,0,1.41.63,1.41,1.41s-.63,1.41-1.41,1.41Z"/>
</svg>