<?xml version="1.0" encoding="UTF-8"?>
<svg id="Layer_1" data-name="Layer 1" xmlns="http://www.w3.org/2000/svg" viewBox="0 0 366.28 305.38">
  <defs>
    <style>
      .cls-1 {
        letter-spacing: -.04em;
      }

      .cls-2 {
        letter-spacing: 0em;
      }

      .cls-3 {
        letter-spacing: 0em;
      }

      .cls-4 {
        letter-spacing: 0em;
      }

      .cls-5 {
        letter-spacing: 0em;
      }

      .cls-6 {
        letter-spacing: 0em;
      }

      .cls-7 {
        fill: #fff;
      }

      .cls-8 {
        letter-spacing: -.01em;
      }

      .cls-9 {
        letter-spacing: -.03em;
      }

      .cls-10 {
        letter-spacing: 0em;
      }

      .cls-11 {
        letter-spacing: 0em;
      }

      .cls-12 {
        letter-spacing: -.02em;
      }

      .cls-13 {
        letter-spacing: -.03em;
      }

      .cls-14 {
        letter-spacing: -.01em;
      }

      .cls-15 {
        letter-spacing: -.02em;
      }

      .cls-16 {
        font-family: UrbanistRoman-Bold, Urbanist;
        font-size: 19px;
        font-variation-settings: 'wght' 700;
        font-weight: 700;
      }

      .cls-17 {
        letter-spacing: 0em;
      }

      .cls-18 {
        letter-spacing: 0em;
      }

      .cls-19 {
        letter-spacing: 0em;
      }

      .cls-20 {
        letter-spacing: 0em;
      }

      .cls-21 {
        letter-spacing: -.01em;
      }

      .cls-22 {
        letter-spacing: -.04em;
      }

      .cls-23 {
        letter-spacing: -.03em;
      }

      .cls-24 {
        letter-spacing: -.01em;
      }

      .cls-25 {
        letter-spacing: 0em;
      }

      .cls-26 {
        letter-spacing: .01em;
      }

      .cls-27 {
        letter-spacing: -.01em;
      }

      .cls-28 {
        letter-spacing: 0em;
      }

      .cls-29 {
        letter-spacing: 0em;
      }

      .cls-30 {
        font-family: Urbanist-Regular, Urbanist;
        font-size: 18px;
        font-variation-settings: 'wght' 400;
      }

      .cls-31 {
        letter-spacing: -.01em;
      }

      .cls-32 {
        fill: #130044;
      }
    </style>
  </defs>
  <rect class="cls-32" x="0" width="366.28" height="305.38" rx="29.13" ry="29.13"/>
  <path class="cls-7" d="M53.77,43.88c-1.47-1.32-2.98-1.78-3.71-1.94v-5.97l1.08-1.04c.64-.1,1.13-.65,1.13-1.31v-.56c0-.73-.6-1.33-1.33-1.33h-16.76c-.73,0-1.33.6-1.33,1.33v.56c0,.66.49,1.21,1.13,1.31l1.09,1.04v5.97c-.74.15-2.24.61-3.71,1.94-1.83,1.64-3.96,4.99-3.74,11.62.22,6.53,2.26,11.9,3.94,15.25,1.33,2.67,2.63,4.5,3.25,5.32-.24.23-.39.55-.39.9,0,.69.56,1.25,1.25,1.25h13.79c.69,0,1.25-.56,1.25-1.25,0-.35-.15-.67-.39-.9.62-.82,1.92-2.64,3.25-5.32,1.67-3.36,3.72-8.73,3.94-15.25.22-6.63-1.91-9.98-3.74-11.62ZM34.18,33.94c-.17,0-.32-.14-.32-.32v-.56c0-.17.14-.32.32-.32h16.76c.17,0,.32.14.32.32v.56c0,.17-.14.32-.32.32h-16.76ZM36.07,39.34v-1.4h12.97v1.4h-12.97ZM49.04,40.35v1.52h-12.97v-1.52h12.97ZM36.07,36.93v-1.17c0-.14-.06-.27-.16-.37l-.46-.44h14.19l-.46.44c-.1.1-.16.23-.16.37v1.17h-12.97ZM31.98,44.68c1.68-1.54,3.44-1.78,3.62-1.8h13.93c.18.02,1.94.26,3.62,1.8,1.03.94,1.84,2.19,2.4,3.71-.76.23-1.25.7-1.7,1.13-.57.55-1.02.98-1.97.98s-1.41-.43-1.98-.98c-.61-.59-1.31-1.27-2.68-1.27s-2.07.67-2.68,1.27c-.57.55-1.02.98-1.97.98s-1.41-.43-1.97-.98c-.61-.59-1.31-1.27-2.68-1.27s-2.07.67-2.68,1.27c-.57.55-1.02.98-1.97.98s-1.41-.43-1.97-.98c-.44-.43-.94-.9-1.7-1.13.56-1.52,1.37-2.77,2.4-3.71ZM29.26,49.35c.54.16.9.5,1.3.89.61.59,1.31,1.27,2.68,1.27s2.07-.67,2.68-1.27c.57-.55,1.02-.98,1.97-.98s1.41.43,1.97.98c.61.59,1.31,1.27,2.68,1.27s2.07-.67,2.68-1.27c.57-.55,1.02-.98,1.97-.98s1.41.43,1.97.98c.61.59,1.31,1.27,2.68,1.27s2.07-.67,2.68-1.27c.4-.39.77-.74,1.31-.89.31,1.09.51,2.31.6,3.63-1.06.15-1.67.71-2.21,1.23-.56.53-1.05.99-2.05.99s-1.5-.46-2.06-.99c-.63-.59-1.35-1.26-2.76-1.26s-2.12.67-2.76,1.26c-.57.53-1.06.99-2.06.99s-1.5-.46-2.06-.99c-.63-.59-1.35-1.26-2.76-1.26s-2.12.67-2.76,1.26c-.57.53-1.06.99-2.06.99s-1.49-.46-2.05-.99c-.54-.51-1.15-1.08-2.21-1.23.09-1.32.29-2.54.6-3.63ZM49.45,77.22h-13.79c-.13,0-.24-.11-.24-.24s.11-.24.24-.24h13.79c.13,0,.24.11.24.24,0,.13-.11.24-.24.24ZM49.3,75.73h-13.5c-.34-.43-1.26-1.65-2.33-3.51h18.16c-1.07,1.86-1.99,3.08-2.33,3.51ZM52.2,71.2h-19.28c-.14-.26-.28-.54-.42-.82h20.13c-.14.28-.28.56-.42.82ZM53.11,69.37h-21.11c-1.31-2.82-2.57-6.44-3.12-10.65.63.14,1.04.51,1.5.93.65.59,1.39,1.26,2.76,1.26s2.08-.67,2.7-1.27c.57-.55,1.03-.99,2-.99s1.43.43,2,.99c.62.59,1.32,1.27,2.7,1.27s2.08-.67,2.7-1.27c.57-.55,1.03-.99,2-.99s1.43.43,2,.99c.62.59,1.32,1.27,2.7,1.27s2.11-.67,2.76-1.26c.46-.42.88-.79,1.5-.93-.57,4.34-1.88,8.01-3.11,10.65ZM56.49,55.47c-.03.75-.08,1.48-.15,2.19-1.08.13-1.73.71-2.3,1.23-.59.53-1.1,1-2.08,1s-1.43-.43-2-.99c-.62-.59-1.32-1.27-2.7-1.27s-2.08.67-2.7,1.27c-.57.55-1.03.99-2,.99s-1.43-.43-2-.99c-.62-.59-1.32-1.27-2.7-1.27s-2.08.67-2.7,1.27c-.57.55-1.03.99-2,.99s-1.49-.46-2.08-1c-.57-.52-1.22-1.1-2.3-1.23-.07-.72-.12-1.45-.15-2.19-.02-.5-.02-.99,0-1.47.69.12,1.1.51,1.56.94.63.59,1.34,1.27,2.75,1.27s2.12-.67,2.76-1.26c.57-.53,1.06-.99,2.06-.99s1.5.46,2.06.99c.63.59,1.35,1.26,2.76,1.26s2.12-.67,2.76-1.26c.57-.53,1.06-.99,2.06-.99s1.5.46,2.06.99c.63.59,1.35,1.26,2.76,1.26s2.12-.67,2.75-1.26c.46-.44.87-.82,1.56-.95.01.48,0,.97,0,1.47Z"/>
  <text class="cls-7" transform="translate(27.59 115.96)"><tspan class="cls-16"><tspan class="cls-1" x="0" y="0">A</tspan><tspan x="13.03" y="0">s</tspan><tspan class="cls-31" x="21.29" y="0">s</tspan><tspan class="cls-18" x="29.33" y="0">i</tspan><tspan x="33.78" y="0">s</tspan><tspan class="cls-21" x="42.04" y="0">t</tspan><tspan class="cls-31" x="48.63" y="0">ê</tspan><tspan class="cls-11" x="59.04" y="0">n</tspan><tspan class="cls-15" x="69.45" y="0">c</tspan><tspan class="cls-31" x="78.78" y="0">i</tspan><tspan x="83.16" y="0">a </tspan><tspan class="cls-12" x="99.1" y="0">F</tspan><tspan x="107.88" y="0">u</tspan><tspan class="cls-11" x="118.1" y="0">n</tspan><tspan class="cls-31" x="128.51" y="0">e</tspan><tspan class="cls-22" x="138.93" y="0">r</tspan><tspan class="cls-20" x="145.53" y="0">a</tspan><tspan x="156.96" y="0">l</tspan></tspan><tspan class="cls-30"><tspan class="cls-23" x="0" y="43.2">C</tspan><tspan class="cls-29" x="12.13" y="43.2">o</tspan><tspan class="cls-5" x="22.06" y="43.2">b</tspan><tspan class="cls-9" x="32.8" y="43.2">r</tspan><tspan x="38.63" y="43.2">e as </tspan><tspan class="cls-25" x="75.51" y="43.2">de</tspan><tspan x="96.26" y="43.2">s</tspan><tspan class="cls-27" x="103.99" y="43.2">p</tspan><tspan class="cls-25" x="114.63" y="43.2">es</tspan><tspan x="132.29" y="43.2">as </tspan><tspan class="cls-25" x="154.8" y="43.2">d</tspan><tspan x="165.56" y="43.2">o </tspan><tspan class="cls-25" x="179.96" y="43.2">s</tspan><tspan class="cls-17" x="187.63" y="43.2">e</tspan><tspan class="cls-3" x="197.5" y="43.2">g</tspan><tspan x="207.96" y="43.2">u</tspan><tspan class="cls-13" x="217.25" y="43.2">r</tspan><tspan class="cls-27" x="223.08" y="43.2">a</tspan><tspan class="cls-4" x="233.36" y="43.2">d</tspan><tspan x="244.12" y="43.2">o </tspan></tspan><tspan class="cls-30"><tspan class="cls-9" x="0" y="64.8">r</tspan><tspan class="cls-29" x="5.83" y="64.8">e</tspan><tspan class="cls-25" x="15.73" y="64.8">l</tspan><tspan class="cls-17" x="19.09" y="64.8">a</tspan><tspan class="cls-2" x="29.37" y="64.8">c</tspan><tspan class="cls-5" x="38.38" y="64.8">io</tspan><tspan class="cls-27" x="51.71" y="64.8">na</tspan><tspan class="cls-25" x="71.45" y="64.8">d</tspan><tspan x="82.22" y="64.8">a</tspan><tspan class="cls-25" x="92.67" y="64.8">s</tspan><tspan x="100.34" y="64.8">a </tspan><tspan class="cls-17" x="115.12" y="64.8">a</tspan><tspan x="125.4" y="64.8">o </tspan><tspan class="cls-26" x="139.8" y="64.8">f</tspan><tspan x="146.04" y="64.8">u</tspan><tspan class="cls-27" x="155.33" y="64.8">n</tspan><tspan class="cls-5" x="164.8" y="64.8">e</tspan><tspan class="cls-13" x="174.76" y="64.8">r</tspan><tspan class="cls-10" x="180.59" y="64.8">a</tspan><tspan x="191.17" y="64.8">l. </tspan><tspan class="cls-23" x="202.15" y="64.8">C</tspan><tspan x="214.28" y="64.8">a</tspan><tspan class="cls-25" x="224.74" y="64.8">s</tspan><tspan x="232.41" y="64.8">o o </tspan></tspan><tspan class="cls-30"><tspan class="cls-28" x="0" y="86.4">c</tspan><tspan class="cls-5" x="9.05" y="86.4">o</tspan><tspan x="19.04" y="86.4">nt</tspan><tspan class="cls-9" x="34.9" y="86.4">r</tspan><tspan x="40.73" y="86.4">a</tspan><tspan class="cls-24" x="51.19" y="86.4">t</tspan><tspan x="57.16" y="86.4">o </tspan><tspan class="cls-25" x="71.56" y="86.4">s</tspan><tspan class="cls-17" x="79.23" y="86.4">e</tspan><tspan class="cls-5" x="89.1" y="86.4">j</tspan><tspan x="92.98" y="86.4">a o </tspan><tspan class="cls-29" x="122.16" y="86.4">p</tspan><tspan class="cls-25" x="132.82" y="86.4">l</tspan><tspan x="136.18" y="86.4">a</tspan><tspan class="cls-27" x="146.64" y="86.4">n</tspan><tspan x="156.1" y="86.4">o </tspan><tspan class="cls-8" x="170.5" y="86.4">f</tspan><tspan x="176.3" y="86.4">am</tspan><tspan class="cls-19" x="202.75" y="86.4">i</tspan><tspan x="206.23" y="86.4">l</tspan><tspan class="cls-5" x="209.65" y="86.4">i</tspan><tspan x="212.98" y="86.4">a</tspan><tspan class="cls-9" x="223.44" y="86.4">r</tspan><tspan x="229.27" y="86.4">, a </tspan></tspan><tspan class="cls-30"><tspan class="cls-28" x="0" y="108">c</tspan><tspan class="cls-29" x="9.05" y="108">o</tspan><tspan class="cls-27" x="18.98" y="108">b</tspan><tspan class="cls-5" x="29.63" y="108">e</tspan><tspan x="39.59" y="108">rtu</tspan><tspan class="cls-13" x="61.52" y="108">r</tspan><tspan x="67.36" y="108">a </tspan><tspan class="cls-5" x="82.13" y="108">g</tspan><tspan x="92.62" y="108">a</tspan><tspan class="cls-9" x="103.08" y="108">r</tspan><tspan x="108.91" y="108">an</tspan><tspan class="cls-24" x="129.02" y="108">t</tspan><tspan x="134.98" y="108">e </tspan><tspan class="cls-27" x="149.35" y="108">p</tspan><tspan x="159.99" y="108">a</tspan><tspan class="cls-13" x="170.45" y="108">r</tspan><tspan x="176.28" y="108">a </tspan><tspan class="cls-28" x="191.06" y="108">c</tspan><tspan class="cls-5" x="200.12" y="108">ô</tspan><tspan class="cls-10" x="210.11" y="108">n</tspan><tspan class="cls-28" x="219.87" y="108">j</tspan><tspan class="cls-25" x="223.72" y="108">u</tspan><tspan class="cls-5" x="232.95" y="108">g</tspan><tspan x="243.43" y="108">e e </tspan></tspan><tspan class="cls-30"><tspan class="cls-25" x="0" y="129.6">f</tspan><tspan class="cls-19" x="5.94" y="129.6">i</tspan><tspan x="9.42" y="129.6">l</tspan><tspan class="cls-17" x="12.84" y="129.6">h</tspan><tspan class="cls-25" x="22.31" y="129.6">o</tspan><tspan x="32.33" y="129.6">s </tspan><tspan class="cls-14" x="44.38" y="129.6">t</tspan><tspan x="50.35" y="129.6">a</tspan><tspan class="cls-6" x="60.8" y="129.6">m</tspan><tspan class="cls-27" x="76.91" y="129.6">b</tspan><tspan class="cls-5" x="87.56" y="129.6">é</tspan><tspan x="97.52" y="129.6">m.</tspan></tspan></text>
</svg>