<?xml version="1.0" encoding="UTF-8"?>
<svg id="Layer_1" data-name="Layer 1" xmlns="http://www.w3.org/2000/svg" viewBox="0 0 366.28 305.38">
  <defs>
    <style>
      .cls-1 {
        letter-spacing: -.04em;
      }

      .cls-2 {
        letter-spacing: 0em;
      }

      .cls-3 {
        letter-spacing: 0em;
      }

      .cls-4 {
        letter-spacing: 0em;
      }

      .cls-5 {
        letter-spacing: -.02em;
      }

      .cls-6 {
        font-family: UrbanistRoman-Bold, Urbanist;
        font-size: 23.99px;
        font-variation-settings: 'wght' 700;
        font-weight: 700;
      }

      .cls-6, .cls-7 {
        fill: #130044;
      }

      .cls-8 {
        letter-spacing: -.01em;
      }
    </style>
  </defs>
  <path class="cls-7" d="M337.15,8.99c11.1,0,20.14,9.03,20.14,20.14v247.12c0,11.1-9.03,20.14-20.14,20.14H29.13c-11.1,0-20.14-9.03-20.14-20.14V29.13c0-11.1,9.03-20.14,20.14-20.14h308.02M337.15,0H29.13C13.11,0,0,13.11,0,29.13v247.12C0,292.27,13.11,305.38,29.13,305.38h308.02c16.02,0,29.13-13.11,29.13-29.13V29.13C366.28,13.11,353.18,0,337.15,0h0Z"/>
  <text class="cls-6" transform="translate(27.59 274.19)"><tspan class="cls-1" x="0" y="0">R</tspan><tspan class="cls-5" x="13.54" y="0">o</tspan><tspan class="cls-2" x="26.42" y="0">u</tspan><tspan class="cls-3" x="39.39" y="0">b</tspan><tspan x="54.02" y="0">o e </tspan><tspan class="cls-4" x="92.38" y="0">f</tspan><tspan x="101.23" y="0">ur</tspan><tspan class="cls-8" x="123.37" y="0">t</tspan><tspan x="131.7" y="0">o</tspan></text>
  <polygon class="cls-7" points="338.69 262.6 330.04 262.6 330.04 253.95 324.38 253.95 324.38 262.6 315.73 262.6 315.73 268.27 324.38 268.27 324.38 276.92 330.04 276.92 330.04 268.27 338.69 268.27 338.69 262.6"/>
  <g>
    <path class="cls-7" d="M47.28,76.59h-15.5l-.06-.19c-.18-.38-.6-.58-1.01-.45-.41.14-.63.56-.54.98l.25.74c.11.33.42.56.77.56h16.09c.45,0,.82-.37.82-.82s-.37-.82-.82-.82Z"/>
    <path class="cls-7" d="M37.95,50.72c.35.24.81.16,1.08-.14l2.48-3.65v6.88c0,.45.37.82.82.82s.82-.37.82-.82v-9.53h0v-.49c0-.45-.37-.82-.82-.82s-.82.37-.82.82v.24l-3.84,5.66c-.16.37-.06.8.28,1.04Z"/>
    <path class="cls-7" d="M31.19,61.51h8.35c.45,0,.82-.37.82-.82s-.37-.82-.82-.82h-6.82l2.82-4.16c.22-.38.12-.86-.24-1.11-.35-.24-.81-.16-1.08.15l-3.72,5.47c-.17.25-.19.57-.05.84.14.27.42.43.72.43Z"/>
    <path class="cls-7" d="M46.09,60.11h8.76c.45,0,.82-.37.82-.82s-.37-.82-.82-.82h-7.37l.42-.76c.09-.36-.06-.76-.41-.94-.37-.2-.82-.08-1.07.25l-1.04,1.88c-.14.25-.14.56.01.81.15.25.41.4.7.4Z"/>
    <path class="cls-7" d="M49.47,53.17c.37.21.83.08,1.07-.26l6.19-11.2v4.11c.04.41.38.74.81.74.45,0,.82-.37.82-.82v-7.18h0v-1.78l3.07,4.47c.27.35.75.43,1.12.18.36-.24.45-.71.24-1.08l-4.43-6.46v-1.06c0-.45-.37-.82-.82-.82s-.82.37-.82.82v5.5l-7.61,13.77c-.17.39-.03.85.35,1.06Z"/>
    <path class="cls-7" d="M74.2,59.88h-5.33c-.37.09-.66.41-.66.81,0,.42.31.76.72.82h6.82c.3,0,.58-.17.72-.44.14-.27.12-.59-.05-.84l-9.67-14.1c-.28-.26-.71-.32-1.04-.09-.37.26-.46.75-.23,1.13l8.71,12.7Z"/>
    <path class="cls-7" d="M57.55,52.35c-.45,0-.82.37-.82.82v9.12c.02.43.37.78.81.78s.81-.36.82-.81v-.74h3.13c.45,0,.82-.37.82-.82s-.37-.82-.82-.82h-3.13v-6.71c0-.45-.37-.82-.82-.82Z"/>
    <path class="cls-7" d="M59.61,68.23h-1.24v-.54c0-.46-.37-.83-.83-.83-.41,0-.74.31-.8.7v.67h-1.66v-.4c0-2.85-2.32-5.17-5.17-5.17h-6.76v-1.25c-.02-.44-.37-.79-.81-.79s-.81.36-.82.81v1.23h-1.97c-.45,0-.82.37-.82.82v1.97h-4.75c-.45,0-.82.37-.82.82v1.97h-4.75c-.26,0-.51.13-.66.34-.15.21-.2.49-.11.74l.59,1.78c.18.37.6.57,1,.44.41-.13.63-.55.54-.97l-.23-.69h5.25v-2.79h4.75c.45,0,.82-.37.82-.82v-1.97h9.54c1.03,0,1.96.45,2.61,1.15h-9.49c-.45,0-.82.37-.82.82s.37.82.82.82h10.33c.05.24.08.49.08.75v1.22c0,.45.37.82.82.82.05,0,.09,0,.13-.01.04,0,.09.01.13.01h5.04c.45,0,.81-.37.81-.82s-.34-.78-.77-.81Z"/>
    <path class="cls-7" d="M79.26,68.66c-.14-.27-.42-.43-.72-.43h-11.61c-.45,0-.82.37-.82.82s.37.82.82.82h10.09l-4.48,6.72h-11.17c-.45,0-.82.37-.82.82s.37.82.82.82h11.6c.27,0,.53-.14.68-.36l5.57-8.35c.17-.25.18-.57.04-.84Z"/>
  </g>
</svg>