<?xml version="1.0" encoding="UTF-8"?>
<svg id="Layer_1" data-name="Layer 1" xmlns="http://www.w3.org/2000/svg" viewBox="0 0 366.28 305.38">
  <defs>
    <style>
      .cls-1 {
        letter-spacing: -.04em;
      }

      .cls-2 {
        letter-spacing: 0em;
      }

      .cls-3 {
        letter-spacing: 0em;
      }

      .cls-4 {
        letter-spacing: 0em;
      }

      .cls-5 {
        letter-spacing: -.04em;
      }

      .cls-6 {
        letter-spacing: .01em;
      }

      .cls-7 {
        letter-spacing: -.02em;
      }

      .cls-8 {
        letter-spacing: 0em;
      }

      .cls-9, .cls-10 {
        fill: #fff;
      }

      .cls-11 {
        letter-spacing: 0em;
      }

      .cls-12 {
        letter-spacing: -.01em;
      }

      .cls-13 {
        letter-spacing: -.02em;
      }

      .cls-14 {
        font-family: UrbanistRoman-Bold, Urbanist;
        font-variation-settings: 'wght' 700;
        font-weight: 700;
      }

      .cls-15 {
        letter-spacing: 0em;
      }

      .cls-16 {
        letter-spacing: -.02em;
      }

      .cls-17 {
        letter-spacing: -.01em;
      }

      .cls-18 {
        letter-spacing: 0em;
      }

      .cls-19 {
        letter-spacing: -.03em;
      }

      .cls-20 {
        letter-spacing: 0em;
      }

      .cls-21 {
        letter-spacing: -.03em;
      }

      .cls-22 {
        letter-spacing: 0em;
      }

      .cls-10 {
        font-size: 16px;
      }

      .cls-23 {
        letter-spacing: -.03em;
      }

      .cls-24 {
        letter-spacing: -.01em;
      }

      .cls-25 {
        letter-spacing: -.03em;
      }

      .cls-26 {
        letter-spacing: 0em;
      }

      .cls-27 {
        letter-spacing: 0em;
      }

      .cls-28 {
        letter-spacing: -.01em;
      }

      .cls-29 {
        letter-spacing: -.01em;
      }

      .cls-30 {
        letter-spacing: 0em;
      }

      .cls-31 {
        font-family: Urbanist-Regular, Urbanist;
        font-variation-settings: 'wght' 400;
      }

      .cls-32 {
        letter-spacing: 0em;
      }

      .cls-33 {
        fill: #130044;
      }
    </style>
  </defs>
  <rect class="cls-33" x="0" y="0" width="366.28" height="305.38" rx="29.13" ry="29.13"/>
  <g>
    <path class="cls-9" d="M76.65,78.23H29c-.78,0-1.41-.63-1.41-1.41v-43.37c0-.49.25-.94.66-1.2.41-.26.93-.28,1.37-.07l8.77,4.31c.39.19.66.54.75.96l1.52,6.95,8.42,3.96c.51.24.83.76.81,1.32l-.24,7.05,5.06,2.96c.33.19.56.51.66.88l.81,3.26,2.9-.07c.28,0,.57.08.81.23l17.53,11.64c.52.34.75.99.57,1.58-.18.59-.73,1-1.35,1ZM30.41,75.41h41.57l-13.27-8.81-3.59.08c-.68.03-1.24-.43-1.4-1.07l-.94-3.78-5.27-3.08c-.45-.26-.72-.75-.7-1.26l.24-6.96-8.21-3.86c-.4-.19-.68-.55-.78-.97l-1.53-6.96-6.13-3.02v39.7Z"/>
    <path class="cls-9" d="M56.89,45.53h-8.91c-.45,0-.86-.21-1.13-.57l-3.74-5.03c-.22-.3-.32-.68-.26-1.05.06-.37.25-.7.55-.93l4.65-3.44c.35-.26.79-.34,1.21-.23l8,2.19c.61.17,1.04.72,1.04,1.36v6.29c0,.78-.63,1.41-1.41,1.41ZM48.68,42.71h6.79v-3.8l-6.3-1.73-2.97,2.2,2.47,3.33Z"/>
    <path class="cls-9" d="M61.37,59.09c-.22,0-.44-.05-.64-.15l-6.57-3.36c-.68-.35-.96-1.17-.63-1.85l2.25-4.79c.18-.39.54-.68.96-.77.42-.1.86,0,1.2.28l4.46,3.61c.34.28.54.7.52,1.14l-.14,4.54c-.01.48-.28.92-.69,1.17-.22.13-.47.2-.72.2ZM56.65,53.69l3.38,1.73.05-1.62-2.52-2.04-.91,1.93Z"/>
    <path class="cls-9" d="M67.02,69.15s-.06,0-.09,0c-.37-.02-.72-.19-.96-.46l-3.26-3.15c-.28-.27-.44-.65-.43-1.04,0-.39.18-.76.47-1.02l2.23-1.99c.45-.4,1.09-.47,1.61-.18l3.62,1.99c.36.2.62.55.7.95.08.41-.02.83-.27,1.15l-2.52,3.22c-.27.34-.68.54-1.11.54ZM65.77,64.56l1.11,1.08.53-.68-1.29-.71-.35.31Z"/>
  </g>
  <text class="cls-10" transform="translate(27.59 113.71)"><tspan class="cls-14"><tspan class="cls-7" x="0" y="0">D</tspan><tspan class="cls-26" x="10.5" y="0">e</tspan><tspan x="19.34" y="0">s</tspan><tspan class="cls-22" x="26.29" y="0">m</tspan><tspan class="cls-17" x="40.34" y="0">o</tspan><tspan class="cls-1" x="49.12" y="0">r</tspan><tspan class="cls-12" x="54.68" y="0">o</tspan><tspan class="cls-29" x="63.46" y="0">n</tspan><tspan x="72.22" y="0">a</tspan><tspan class="cls-22" x="81.81" y="0">m</tspan><tspan class="cls-17" x="95.86" y="0">e</tspan><tspan x="104.63" y="0">n</tspan><tspan class="cls-28" x="113.56" y="0">t</tspan><tspan x="119.11" y="0">o </tspan><tspan class="cls-13" x="131.91" y="0">o</tspan><tspan x="140.5" y="0">u </tspan><tspan class="cls-16" x="152.95" y="0">q</tspan><tspan class="cls-15" x="162.61" y="0">u</tspan><tspan class="cls-29" x="171.1" y="0">e</tspan><tspan class="cls-26" x="179.89" y="0">d</tspan><tspan x="189.69" y="0">a </tspan><tspan class="cls-26" x="203.11" y="0">d</tspan><tspan x="212.91" y="0">e </tspan><tspan class="cls-28" x="225.7" y="0">t</tspan><tspan class="cls-17" x="231.26" y="0">er</tspan><tspan class="cls-5" x="246" y="0">r</tspan><tspan x="251.56" y="0">a</tspan></tspan><tspan class="cls-31"><tspan class="cls-23" x="0" y="38.4">C</tspan><tspan class="cls-3" x="10.78" y="38.4">o</tspan><tspan class="cls-30" x="19.61" y="38.4">b</tspan><tspan class="cls-25" x="29.15" y="38.4">r</tspan><tspan x="34.34" y="38.4">e </tspan><tspan class="cls-8" x="47.11" y="38.4">o</tspan><tspan x="56.02" y="38.4">s </tspan><tspan class="cls-2" x="66.73" y="38.4">p</tspan><tspan class="cls-25" x="76.26" y="38.4">r</tspan><tspan class="cls-22" x="81.45" y="38.4">e</tspan><tspan class="cls-4" x="90.22" y="38.4">j</tspan><tspan x="93.65" y="38.4">uí</tspan><tspan class="cls-30" x="104.94" y="38.4">z</tspan><tspan class="cls-8" x="112.97" y="38.4">o</tspan><tspan class="cls-18" x="121.88" y="38.4">s </tspan><tspan class="cls-4" x="132.59" y="38.4">q</tspan><tspan class="cls-8" x="142.1" y="38.4">u</tspan><tspan x="150.3" y="38.4">e </tspan><tspan class="cls-19" x="163.08" y="38.4">v</tspan><tspan class="cls-2" x="170.88" y="38.4">e</tspan><tspan class="cls-32" x="179.73" y="38.4">n</tspan><tspan class="cls-22" x="188.41" y="38.4">h</tspan><tspan x="196.83" y="38.4">a a </tspan><tspan class="cls-11" x="223.1" y="38.4">s</tspan><tspan x="229.92" y="38.4">o</tspan><tspan class="cls-6" x="238.88" y="38.4">f</tspan><tspan class="cls-21" x="244.43" y="38.4">r</tspan><tspan class="cls-30" x="249.61" y="38.4">e</tspan><tspan x="258.47" y="38.4">r </tspan></tspan><tspan class="cls-31"><tspan class="cls-2" x="0" y="57.6">e</tspan><tspan x="8.86" y="57.6">m </tspan><tspan class="cls-4" x="26.91" y="57.6">c</tspan><tspan class="cls-30" x="34.96" y="57.6">o</tspan><tspan class="cls-18" x="43.84" y="57.6">n</tspan><tspan class="cls-8" x="52.42" y="57.6">s</tspan><tspan class="cls-29" x="59.23" y="57.6">e</tspan><tspan class="cls-4" x="68.01" y="57.6">q</tspan><tspan class="cls-8" x="77.52" y="57.6">u</tspan><tspan class="cls-2" x="85.72" y="57.6">ê</tspan><tspan class="cls-29" x="94.58" y="57.6">n</tspan><tspan class="cls-20" x="102.99" y="57.6">c</tspan><tspan class="cls-2" x="111.01" y="57.6">i</tspan><tspan x="113.97" y="57.6">a </tspan><tspan class="cls-8" x="127.1" y="57.6">d</tspan><tspan x="136.67" y="57.6">e </tspan><tspan class="cls-29" x="149.45" y="57.6">p</tspan><tspan class="cls-30" x="158.9" y="57.6">e</tspan><tspan class="cls-21" x="167.76" y="57.6">r</tspan><tspan class="cls-11" x="172.94" y="57.6">d</tspan><tspan x="182.51" y="57.6">as e </tspan><tspan class="cls-11" x="215.29" y="57.6">d</tspan><tspan x="224.86" y="57.6">a</tspan><tspan class="cls-22" x="234.16" y="57.6">n</tspan><tspan class="cls-11" x="242.57" y="57.6">o</tspan><tspan x="251.48" y="57.6">s </tspan></tspan><tspan class="cls-31"><tspan class="cls-29" x="0" y="76.8">m</tspan><tspan x="14.06" y="76.8">a</tspan><tspan class="cls-24" x="23.35" y="76.8">t</tspan><tspan class="cls-30" x="28.66" y="76.8">e</tspan><tspan class="cls-27" x="37.51" y="76.8">r</tspan><tspan class="cls-30" x="43.13" y="76.8">i</tspan><tspan x="46.09" y="76.8">a</tspan><tspan class="cls-11" x="55.38" y="76.8">i</tspan><tspan x="58.37" y="76.8">s </tspan><tspan class="cls-4" x="69.08" y="76.8">c</tspan><tspan x="77.13" y="76.8">au</tspan><tspan class="cls-8" x="94.68" y="76.8">s</tspan><tspan class="cls-29" x="101.5" y="76.8">a</tspan><tspan class="cls-8" x="110.63" y="76.8">do</tspan><tspan x="129.1" y="76.8">s </tspan><tspan class="cls-22" x="139.81" y="76.8">a</tspan><tspan x="148.95" y="76.8">o </tspan><tspan class="cls-3" x="161.75" y="76.8">o</tspan><tspan class="cls-22" x="170.57" y="76.8">b</tspan><tspan class="cls-2" x="180.04" y="76.8">j</tspan><tspan class="cls-24" x="183.49" y="76.8">et</tspan><tspan x="197.51" y="76.8">o </tspan></tspan><tspan class="cls-31"><tspan class="cls-8" x="0" y="96">s</tspan><tspan class="cls-29" x="6.82" y="96">e</tspan><tspan class="cls-27" x="15.59" y="96">g</tspan><tspan x="24.89" y="96">u</tspan><tspan class="cls-21" x="33.14" y="96">r</tspan><tspan class="cls-29" x="38.33" y="96">a</tspan><tspan class="cls-8" x="47.46" y="96">d</tspan><tspan x="57.03" y="96">o </tspan><tspan class="cls-29" x="69.83" y="96">p</tspan><tspan class="cls-30" x="79.29" y="96">o</tspan><tspan x="88.17" y="96">r </tspan><tspan class="cls-11" x="97.73" y="96">de</tspan><tspan x="116.18" y="96">s</tspan><tspan class="cls-29" x="123.05" y="96">m</tspan><tspan class="cls-30" x="137.1" y="96">o</tspan><tspan class="cls-21" x="145.98" y="96">r</tspan><tspan class="cls-2" x="151.17" y="96">o</tspan><tspan class="cls-29" x="160.05" y="96">n</tspan><tspan x="168.46" y="96">a</tspan><tspan class="cls-22" x="177.76" y="96">m</tspan><tspan class="cls-30" x="191.82" y="96">e</tspan><tspan x="200.67" y="96">n</tspan><tspan class="cls-24" x="209.25" y="96">t</tspan><tspan x="214.55" y="96">o </tspan><tspan class="cls-29" x="227.35" y="96">o</tspan><tspan x="236.15" y="96">u </tspan></tspan><tspan class="cls-31"><tspan class="cls-4" x="0" y="115.2">q</tspan><tspan class="cls-11" x="9.51" y="115.2">u</tspan><tspan class="cls-22" x="17.71" y="115.2">e</tspan><tspan class="cls-11" x="26.49" y="115.2">d</tspan><tspan x="36.06" y="115.2">a </tspan><tspan class="cls-11" x="49.19" y="115.2">d</tspan><tspan x="58.76" y="115.2">e </tspan><tspan class="cls-24" x="71.54" y="115.2">t</tspan><tspan class="cls-30" x="76.84" y="115.2">er</tspan><tspan class="cls-25" x="91.33" y="115.2">r</tspan><tspan x="96.52" y="115.2">a</tspan></tspan></text>
</svg>