<?xml version="1.0" encoding="UTF-8"?>
<svg id="Layer_1" data-name="Layer 1" xmlns="http://www.w3.org/2000/svg" viewBox="0 0 366.28 305.38">
  <defs>
    <style>
      .cls-1 {
        letter-spacing: 0em;
      }

      .cls-2, .cls-3 {
        fill: #5b1112;
      }

      .cls-4 {
        letter-spacing: -.04em;
      }

      .cls-5 {
        letter-spacing: 0em;
      }

      .cls-3 {
        font-family: UrbanistRoman-Bold, Urbanist;
        font-size: 23.99px;
        font-variation-settings: 'wght' 700;
        font-weight: 700;
      }

      .cls-6 {
        letter-spacing: -.01em;
      }

      .cls-7 {
        letter-spacing: -.02em;
      }

      .cls-8 {
        letter-spacing: -.01em;
      }

      .cls-9 {
        fill: #130044;
      }

      .cls-10 {
        letter-spacing: -.01em;
      }

      .cls-11 {
        letter-spacing: -.02em;
      }
    </style>
  </defs>
  <path class="cls-9" d="M337.15,8.99c11.1,0,20.14,9.03,20.14,20.14v247.12c0,11.1-9.03,20.14-20.14,20.14H29.13c-11.1,0-20.14-9.03-20.14-20.14V29.13c0-11.1,9.03-20.14,20.14-20.14h308.02M337.15,0H29.13C13.11,0,0,13.11,0,29.13v247.12C0,292.27,13.11,305.38,29.13,305.38h308.02c16.02,0,29.13-13.11,29.13-29.13V29.13C366.28,13.11,353.18,0,337.15,0h0Z"/>
  <text class="cls-3" transform="translate(27.59 274.19)"><tspan class="cls-7" x="0" y="0">O</tspan><tspan class="cls-6" x="18.1" y="0">c</tspan><tspan class="cls-11" x="30.06" y="0">u</tspan><tspan class="cls-8" x="42.41" y="0">p</tspan><tspan x="57.02" y="0">an</tspan><tspan class="cls-10" x="84.77" y="0">t</tspan><tspan class="cls-1" x="93.09" y="0">e</tspan><tspan x="106.33" y="0">s </tspan><tspan class="cls-1" x="122.51" y="0">d</tspan><tspan x="137.2" y="0">o </tspan><tspan class="cls-4" x="156.39" y="0">v</tspan><tspan class="cls-11" x="169.49" y="0">e</tspan><tspan class="cls-6" x="182.36" y="0">íc</tspan><tspan class="cls-5" x="199.84" y="0">u</tspan><tspan class="cls-1" x="212.81" y="0">l</tspan><tspan x="218.43" y="0">o</tspan></text>
  <polygon class="cls-2" points="338.69 262.6 330.04 262.6 330.04 253.95 324.38 253.95 324.38 262.6 315.73 262.6 315.73 268.27 324.38 268.27 324.38 276.92 330.04 276.92 330.04 268.27 338.69 268.27 338.69 262.6"/>
  <g>
    <path class="cls-2" d="M48.66,54.72c2.79,0,5.33-1.03,7.31-2.7,1.98,1.68,4.54,2.7,7.33,2.7s5.35-1.02,7.33-2.7c1.98,1.68,4.52,2.7,7.31,2.7,6.25,0,11.34-5.09,11.34-11.34s-5.09-11.34-11.34-11.34c-2.79,0-5.33,1.03-7.31,2.7-1.98-1.68-4.54-2.7-7.33-2.7s-5.35,1.02-7.33,2.7c-1.98-1.68-4.52-2.7-7.31-2.7-6.25,0-11.34,5.09-11.34,11.34s5.09,11.34,11.34,11.34ZM85.59,43.38c0,4.22-3.44,7.66-7.66,7.66-1.88,0-3.6-.69-4.93-1.82,1.03-1.71,1.64-3.7,1.64-5.84s-.61-4.13-1.64-5.84c1.33-1.13,3.05-1.82,4.93-1.82,4.22,0,7.66,3.44,7.66,7.66ZM63.3,35.72c4.22,0,7.66,3.44,7.66,7.66s-3.44,7.66-7.66,7.66-7.66-3.44-7.66-7.66,3.44-7.66,7.66-7.66ZM48.66,35.72c1.88,0,3.6.69,4.93,1.82-1.03,1.71-1.64,3.7-1.64,5.84s.61,4.13,1.64,5.84c-1.33,1.13-3.05,1.82-4.93,1.82-4.22,0-7.66-3.44-7.66-7.66s3.44-7.66,7.66-7.66Z"/>
    <path class="cls-2" d="M77.93,55.32c-2.57,0-5.03.47-7.31,1.32-2.28-.85-4.75-1.32-7.33-1.32s-5.04.47-7.33,1.32c-2.28-.85-4.74-1.32-7.31-1.32-11.62,0-21.07,9.45-21.07,21.07,0,1.02.82,1.84,1.84,1.84h67.73c1.02,0,1.84-.82,1.84-1.84,0-11.62-9.45-21.07-21.07-21.07ZM80.59,74.55h-34.59c.92-8.73,8.33-15.55,17.29-15.55s16.37,6.82,17.29,15.55ZM48.66,59c.85,0,1.68.07,2.49.18-4.92,3.49-8.29,9.03-8.84,15.36h-10.94c.92-8.73,8.33-15.55,17.29-15.55ZM84.28,74.55c-.55-6.34-3.92-11.88-8.84-15.36.81-.12,1.65-.18,2.49-.18,8.97,0,16.37,6.82,17.29,15.55h-10.94Z"/>
  </g>
</svg>