<?xml version="1.0" encoding="UTF-8"?>
<svg id="Layer_1" data-name="Layer 1" xmlns="http://www.w3.org/2000/svg" viewBox="0 0 366.28 305.38">
  <defs>
    <style>
      .cls-1 {
        letter-spacing: -.01em;
      }

      .cls-2 {
        letter-spacing: 0em;
      }

      .cls-3 {
        letter-spacing: -.01em;
      }

      .cls-4 {
        letter-spacing: 0em;
      }

      .cls-5 {
        fill: #fff;
      }

      .cls-6 {
        letter-spacing: 0em;
      }

      .cls-7 {
        letter-spacing: -.03em;
      }

      .cls-8 {
        letter-spacing: 0em;
      }

      .cls-9 {
        letter-spacing: -.01em;
      }

      .cls-10 {
        font-family: UrbanistRoman-Bold, Urbanist;
        font-size: 23.99px;
        font-variation-settings: 'wght' 700;
        font-weight: 700;
      }

      .cls-11 {
        letter-spacing: -.03em;
      }

      .cls-12 {
        letter-spacing: -.02em;
      }

      .cls-13 {
        letter-spacing: 0em;
      }

      .cls-14 {
        letter-spacing: -.05em;
      }

      .cls-15 {
        letter-spacing: 0em;
      }

      .cls-16 {
        letter-spacing: -.02em;
      }

      .cls-17 {
        letter-spacing: -.01em;
      }

      .cls-18 {
        letter-spacing: 0em;
      }

      .cls-19 {
        letter-spacing: -.02em;
      }

      .cls-20 {
        letter-spacing: .01em;
      }

      .cls-21 {
        letter-spacing: -.01em;
      }

      .cls-22 {
        letter-spacing: 0em;
      }

      .cls-23 {
        letter-spacing: 0em;
      }

      .cls-24 {
        font-family: Urbanist-Regular, Urbanist;
        font-size: 18px;
        font-variation-settings: 'wght' 400;
      }

      .cls-25 {
        fill: #130044;
      }
    </style>
  </defs>
  <rect class="cls-25" x="0" y="0" width="366.28" height="305.38" rx="29.13" ry="29.13"/>
  <g>
    <path class="cls-5" d="M67.69,37.3c-.13-.12-.3-.2-.49-.2-.28,0-.53.17-.64.42h0c-.14.34-.33.62-.56.87h0c0-.07,0-.15,0-.23,0-1.01-.22-1.96-.63-2.82l.02.04c-.7-1.47-1.89-2.62-3.34-3.27l-.04-.02c-.08-.04-.18-.06-.27-.06-.38,0-.69.31-.69.69,0,.04,0,.08.01.12h0s0,.05,0,.08c0,1.11-.49,2.1-1.27,2.78h0c-.29.3-.59.57-.9.85-.73.6-1.36,1.28-1.89,2.03l-.02.03c-.61.98-.97,2.18-.97,3.45,0,.63.09,1.24.25,1.81v-.05c.41,1.74,1.48,3.18,2.92,4.07l.03.02c1.05.67,2.32,1.07,3.69,1.08h0c.29,0,.58-.02.86-.06h-.03c2.61-.38,4.73-2.16,5.59-4.54l.02-.05c.22-.65.34-1.39.34-2.17,0-1.9-.76-3.63-2-4.89h0s0,0,0,0ZM68.03,43.91c-.7,1.94-2.39,3.36-4.44,3.66h-.03c-.2.03-.42.04-.65.04-1.1,0-2.13-.32-2.99-.88h.02c-1.16-.71-2.01-1.85-2.34-3.2v-.04c-.13-.43-.2-.92-.2-1.43,0-1,.28-1.93.76-2.73v.02c.48-.68,1.03-1.26,1.65-1.77h.02c.33-.31.65-.6.96-.91.78-.74,1.35-1.69,1.62-2.76v-.04c1.36.95,2.24,2.51,2.24,4.27,0,.54-.08,1.07-.24,1.56v-.04c0,.06-.02.13-.02.2,0,.38.31.69.69.69.09,0,.18-.02.26-.05h0c.81-.33,1.47-.86,1.97-1.52h0c.62.88,1,1.98,1,3.18,0,.62-.1,1.21-.29,1.77v-.04s.01,0,.01,0Z"/>
    <g>
      <path class="cls-5" d="M65.84,61.69h-8.27v9.3h8.27v-9.3ZM63.78,68.93h-4.14v-5.17h4.14v5.17Z"/>
      <path class="cls-5" d="M64.74,34.81l.17,2.07h6.11v18.61h-1.89c-.11-.02-.23-.02-.34,0h-10.64l-7.8-12.26-7.8,12.26h-10.65c-.06,0-.12-.01-.18-.01-.05,0-.1,0-.15.01h-1.9v-18.61h29.98l1.63-1.56v-.51H27.59v22.74h3.1v20.68h39.29v-20.68h3.1v-22.74h-8.35ZM53.44,76.16h-6.2v-9.3c0-1.72,1.38-3.1,3.1-3.1s3.1,1.38,3.1,3.1v9.3ZM67.91,76.16h-12.41v-9.3c0-2.84-2.33-5.17-5.17-5.17s-5.17,2.33-5.17,5.17v9.3h-12.41v-18.61h10.91l6.67-10.48,6.67,10.48h10.91v18.61Z"/>
      <path class="cls-5" d="M34.83,62.72v8.27h8.27v-9.3h-8.27v1.03ZM36.9,63.76h4.14v5.17h-4.14v-5.17Z"/>
    </g>
  </g>
  <text class="cls-5" transform="translate(27.59 119.7)"><tspan class="cls-10"><tspan x="0" y="0">I</tspan><tspan class="cls-13" x="6.52" y="0">n</tspan><tspan class="cls-12" x="19.67" y="0">c</tspan><tspan class="cls-9" x="31.53" y="0">ê</tspan><tspan class="cls-13" x="44.67" y="0">n</tspan><tspan x="57.82" y="0">d</tspan><tspan class="cls-1" x="72.69" y="0">i</tspan><tspan x="78.22" y="0">o e </tspan><tspan class="cls-14" x="116.58" y="0">e</tspan><tspan class="cls-16" x="128.73" y="0">x</tspan><tspan class="cls-19" x="142.49" y="0">p</tspan><tspan class="cls-2" x="156.88" y="0">los</tspan><tspan class="cls-13" x="186" y="0">ã</tspan><tspan x="200.13" y="0">o</tspan></tspan><tspan class="cls-24"><tspan x="0" y="43.2">I</tspan><tspan class="cls-15" x="3.96" y="43.2">n</tspan><tspan class="cls-18" x="13.43" y="43.2">d</tspan><tspan class="cls-4" x="24.19" y="43.2">e</tspan><tspan x="34.15" y="43.2">ni</tspan><tspan class="cls-4" x="47.22" y="43.2">z</tspan><tspan class="cls-21" x="56.26" y="43.2">a</tspan><tspan class="cls-22" x="66.54" y="43.2">ç</tspan><tspan class="cls-15" x="75.59" y="43.2">ã</tspan><tspan x="85.87" y="43.2">o </tspan><tspan class="cls-15" x="100.27" y="43.2">p</tspan><tspan x="110.91" y="43.2">a</tspan><tspan class="cls-7" x="121.37" y="43.2">r</tspan><tspan x="127.2" y="43.2">a </tspan><tspan class="cls-21" x="141.98" y="43.2">a</tspan><tspan class="cls-23" x="152.25" y="43.2">c</tspan><tspan class="cls-4" x="161.27" y="43.2">i</tspan><tspan class="cls-18" x="164.6" y="43.2">d</tspan><tspan class="cls-4" x="175.36" y="43.2">e</tspan><tspan x="185.33" y="43.2">n</tspan><tspan class="cls-17" x="194.98" y="43.2">t</tspan><tspan x="200.94" y="43.2">e </tspan><tspan class="cls-15" x="215.32" y="43.2">p</tspan><tspan class="cls-4" x="225.95" y="43.2">o</tspan><tspan x="235.94" y="43.2">r </tspan></tspan><tspan class="cls-24"><tspan class="cls-3" x="0" y="64.8">f</tspan><tspan class="cls-15" x="5.8" y="64.8">o</tspan><tspan class="cls-4" x="15.7" y="64.8">g</tspan><tspan x="26.18" y="64.8">o </tspan><tspan class="cls-15" x="40.58" y="64.8">o</tspan><tspan x="50.48" y="64.8">u </tspan><tspan class="cls-20" x="64.09" y="64.8">f</tspan><tspan x="70.33" y="64.8">u</tspan><tspan class="cls-21" x="79.62" y="64.8">ma</tspan><tspan class="cls-22" x="105.71" y="64.8">ç</tspan><tspan x="114.77" y="64.8">a </tspan><tspan class="cls-22" x="129.55" y="64.8">q</tspan><tspan class="cls-18" x="140.25" y="64.8">u</tspan><tspan x="149.47" y="64.8">e </tspan><tspan class="cls-17" x="163.84" y="64.8">t</tspan><tspan class="cls-4" x="169.81" y="64.8">e</tspan><tspan class="cls-8" x="179.77" y="64.8">n</tspan><tspan class="cls-15" x="189.54" y="64.8">h</tspan><tspan x="199.01" y="64.8">a </tspan></tspan><tspan class="cls-24"><tspan class="cls-22" x="0" y="86.4">c</tspan><tspan class="cls-4" x="9.05" y="86.4">o</tspan><tspan class="cls-15" x="19.04" y="86.4">me</tspan><tspan class="cls-22" x="44.73" y="86.4">ç</tspan><tspan class="cls-15" x="53.78" y="86.4">a</tspan><tspan class="cls-18" x="64.06" y="86.4">d</tspan><tspan x="74.83" y="86.4">o </tspan><tspan class="cls-4" x="89.23" y="86.4">e</tspan><tspan x="99.19" y="86.4">m s</tspan><tspan class="cls-18" x="127.23" y="86.4">u</tspan><tspan x="136.46" y="86.4">a </tspan><tspan class="cls-22" x="151.24" y="86.4">c</tspan><tspan x="160.29" y="86.4">a</tspan><tspan class="cls-18" x="170.75" y="86.4">s</tspan><tspan x="178.42" y="86.4">a </tspan><tspan class="cls-15" x="193.19" y="86.4">o</tspan><tspan x="203.09" y="86.4">u </tspan><tspan class="cls-21" x="216.7" y="86.4">n</tspan><tspan x="226.17" y="86.4">o </tspan></tspan><tspan class="cls-24"><tspan class="cls-6" x="0" y="108">i</tspan><tspan class="cls-21" x="3.39" y="108">m</tspan><tspan class="cls-11" x="19.21" y="108">óv</tspan><tspan class="cls-23" x="37.58" y="108">e</tspan><tspan x="47.48" y="108">l </tspan><tspan class="cls-22" x="55.22" y="108">v</tspan><tspan x="64.36" y="108">iz</tspan><tspan class="cls-6" x="76.9" y="108">i</tspan><tspan class="cls-8" x="80.3" y="108">n</tspan><tspan class="cls-15" x="90.06" y="108">ho</tspan><tspan x="109.43" y="108">.</tspan></tspan></text>
</svg>