<?xml version="1.0" encoding="UTF-8"?>
<svg id="Layer_1" data-name="Layer 1" xmlns="http://www.w3.org/2000/svg" viewBox="0 0 366.28 305.38">
  <defs>
    <style>
      .cls-1 {
        letter-spacing: -.01em;
      }

      .cls-2 {
        letter-spacing: 0em;
      }

      .cls-3 {
        letter-spacing: 0em;
      }

      .cls-4 {
        fill: #fff;
      }

      .cls-5 {
        letter-spacing: -.05em;
      }

      .cls-6 {
        letter-spacing: 0em;
      }

      .cls-7 {
        letter-spacing: -.03em;
      }

      .cls-8 {
        letter-spacing: 0em;
      }

      .cls-9 {
        letter-spacing: -.01em;
      }

      .cls-10 {
        font-family: UrbanistRoman-Bold, Urbanist;
        font-size: 23.99px;
        font-variation-settings: 'wght' 700;
        font-weight: 700;
      }

      .cls-11 {
        letter-spacing: -.03em;
      }

      .cls-12 {
        letter-spacing: -.03em;
      }

      .cls-13 {
        letter-spacing: -.02em;
      }

      .cls-14 {
        letter-spacing: 0em;
      }

      .cls-15 {
        letter-spacing: -.03em;
      }

      .cls-16 {
        letter-spacing: -.01em;
      }

      .cls-17 {
        letter-spacing: 0em;
      }

      .cls-18 {
        letter-spacing: -.01em;
      }

      .cls-19 {
        letter-spacing: 0em;
      }

      .cls-20 {
        letter-spacing: 0em;
      }

      .cls-21 {
        letter-spacing: -.02em;
      }

      .cls-22 {
        letter-spacing: 0em;
      }

      .cls-23 {
        font-family: Urbanist-Regular, Urbanist;
        font-size: 18px;
        font-variation-settings: 'wght' 400;
      }

      .cls-24 {
        fill: #130044;
      }
    </style>
  </defs>
  <rect class="cls-24" x="0" y="0" width="366.28" height="305.38" rx="29.13" ry="29.13"/>
  <g>
    <path class="cls-4" d="M64.39,38.17c-3.67-3.95-8.77-6.13-14.37-6.13h-1.52c-11.27,0-20.48,8.97-20.89,20.14,0,.04-.02.07-.02.11v10.14s0,.04.01.05c.06,5.01,1.9,9.82,5.21,13.58.18.2.43.31.69.31.08,0,.16-.01.24-.03l33.61-9.18c.31-.09.56-.33.65-.64.38-1.36.62-2.76.73-4.15l.7-9.4c.42-5.59-1.37-10.84-5.04-14.8ZM29.44,53.07l19.2-3.21c1.56-.26,2.81.03,3.41.79.6.76.6,2.04-.02,3.5l-3.01,7.14-19.59.21v-8.43ZM67.59,52.83l-.7,9.4c-.08,1.1-.26,2.21-.53,3.29l-32.53,8.89c-2.6-3.13-4.11-7.01-4.34-11.07l20.16-.22c.37,0,.7-.23.84-.56l3.24-7.69c.9-2.13.81-4.03-.23-5.36-1.05-1.33-2.88-1.84-5.16-1.46l-18.81,3.14c.89-9.69,9.06-17.3,18.97-17.3h1.52c5.08,0,9.7,1.97,13.02,5.54,3.32,3.58,4.94,8.34,4.56,13.41Z"/>
    <path class="cls-4" d="M59.86,52.32c-2.03,0-3.69,1.65-3.69,3.69s1.65,3.69,3.69,3.69,3.69-1.65,3.69-3.69-1.65-3.69-3.69-3.69ZM59.86,57.86c-1.02,0-1.84-.83-1.84-1.84s.83-1.84,1.84-1.84,1.84.83,1.84,1.84-.83,1.84-1.84,1.84Z"/>
    <path class="cls-4" d="M50.37,51.67c-.36-.36-.94-.36-1.3,0l-2.77,2.77c-.36.36-.36.94,0,1.3.18.18.42.27.65.27s.47-.09.65-.27l2.77-2.77c.36-.36.36-.94,0-1.3Z"/>
    <path class="cls-4" d="M65.91,68.42l-29.31,8c-.49.13-.78.64-.65,1.13.11.41.48.68.89.68.08,0,.16-.01.24-.03l29.31-8c.49-.13.78-.64.65-1.13-.13-.49-.64-.78-1.13-.65Z"/>
  </g>
  <text class="cls-4" transform="translate(27.59 119.7)"><tspan class="cls-10"><tspan class="cls-5" x="0" y="0">A</tspan><tspan class="cls-21" x="16.29" y="0">c</tspan><tspan class="cls-2" x="28.15" y="0">e</tspan><tspan x="41.39" y="0">s</tspan><tspan class="cls-2" x="51.81" y="0">s</tspan><tspan class="cls-1" x="62.05" y="0">ó</tspan><tspan class="cls-13" x="75.21" y="0">r</tspan><tspan class="cls-9" x="84.07" y="0">i</tspan><tspan class="cls-2" x="89.6" y="0">o</tspan><tspan x="102.85" y="0">s</tspan></tspan><tspan class="cls-23"><tspan x="0" y="43.2">I</tspan><tspan class="cls-15" x="3.96" y="43.2">C</tspan><tspan class="cls-20" x="16.09" y="43.2">o</tspan><tspan class="cls-18" x="26.02" y="43.2">b</tspan><tspan class="cls-3" x="36.67" y="43.2">e</tspan><tspan class="cls-22" x="46.63" y="43.2">rtu</tspan><tspan class="cls-12" x="68.56" y="43.2">r</tspan><tspan x="74.39" y="43.2">a </tspan><tspan class="cls-3" x="89.17" y="43.2">o</tspan><tspan class="cls-18" x="99.16" y="43.2">p</tspan><tspan class="cls-20" x="109.8" y="43.2">c</tspan><tspan class="cls-3" x="118.82" y="43.2">io</tspan><tspan class="cls-14" x="132.14" y="43.2">n</tspan><tspan class="cls-8" x="141.61" y="43.2">a</tspan><tspan x="152.18" y="43.2">l </tspan><tspan class="cls-18" x="159.92" y="43.2">p</tspan><tspan x="170.56" y="43.2">a</tspan><tspan class="cls-12" x="181.02" y="43.2">r</tspan><tspan x="186.85" y="43.2">a </tspan></tspan><tspan class="cls-23"><tspan class="cls-19" x="0" y="64.8">c</tspan><tspan x="9.05" y="64.8">a</tspan><tspan class="cls-14" x="19.51" y="64.8">pa</tspan><tspan class="cls-19" x="40.43" y="64.8">c</tspan><tspan class="cls-16" x="49.48" y="64.8">et</tspan><tspan class="cls-18" x="65.26" y="64.8">e</tspan><tspan x="75.13" y="64.8">, </tspan><tspan class="cls-3" x="83.07" y="64.8">j</tspan><tspan class="cls-14" x="86.95" y="64.8">a</tspan><tspan class="cls-19" x="97.23" y="64.8">q</tspan><tspan class="cls-17" x="107.93" y="64.8">u</tspan><tspan class="cls-16" x="117.15" y="64.8">et</tspan><tspan x="132.93" y="64.8">a, </tspan><tspan class="cls-14" x="151.33" y="64.8">b</tspan><tspan class="cls-16" x="161.97" y="64.8">ot</tspan><tspan x="177.78" y="64.8">a</tspan><tspan class="cls-6" x="188.23" y="64.8">s</tspan><tspan x="195.94" y="64.8">, lu</tspan><tspan class="cls-11" x="216.58" y="64.8">v</tspan><tspan x="225.36" y="64.8">a</tspan><tspan class="cls-6" x="235.82" y="64.8">s</tspan><tspan x="243.52" y="64.8">, </tspan></tspan><tspan class="cls-23"><tspan class="cls-19" x="0" y="86.4">c</tspan><tspan class="cls-8" x="9.05" y="86.4">a</tspan><tspan class="cls-17" x="19.63" y="86.4">l</tspan><tspan class="cls-19" x="22.99" y="86.4">ç</tspan><tspan x="32.04" y="86.4">a e </tspan><tspan class="cls-6" x="61.19" y="86.4">i</tspan><tspan x="64.58" y="86.4">n</tspan><tspan class="cls-16" x="74.23" y="86.4">t</tspan><tspan class="cls-3" x="80.2" y="86.4">e</tspan><tspan class="cls-7" x="90.16" y="86.4">r</tspan><tspan class="cls-19" x="95.99" y="86.4">c</tspan><tspan class="cls-3" x="105.05" y="86.4">o</tspan><tspan x="115.04" y="86.4">mun</tspan><tspan class="cls-3" x="149.97" y="86.4">i</tspan><tspan class="cls-19" x="153.3" y="86.4">c</tspan><tspan class="cls-14" x="162.35" y="86.4">a</tspan><tspan class="cls-17" x="172.63" y="86.4">d</tspan><tspan class="cls-3" x="183.39" y="86.4">o</tspan><tspan class="cls-7" x="193.38" y="86.4">r</tspan><tspan x="199.21" y="86.4">.</tspan></tspan></text>
</svg>