<?xml version="1.0" encoding="UTF-8"?>
<svg id="Layer_1" data-name="Layer 1" xmlns="http://www.w3.org/2000/svg" viewBox="0 0 366.28 305.38">
  <defs>
    <style>
      .cls-1 {
        letter-spacing: 0em;
      }

      .cls-2 {
        letter-spacing: 0em;
      }

      .cls-3 {
        letter-spacing: -.01em;
      }

      .cls-4 {
        letter-spacing: 0em;
      }

      .cls-5 {
        letter-spacing: 0em;
      }

      .cls-6 {
        letter-spacing: 0em;
      }

      .cls-7 {
        fill: #fff;
      }

      .cls-8 {
        letter-spacing: -.01em;
      }

      .cls-9 {
        letter-spacing: 0em;
      }

      .cls-10 {
        letter-spacing: -.03em;
      }

      .cls-11 {
        letter-spacing: -.01em;
      }

      .cls-12 {
        font-family: UrbanistRoman-Bold, Urbanist;
        font-size: 23.99px;
        font-variation-settings: 'wght' 700;
        font-weight: 700;
      }

      .cls-13 {
        letter-spacing: -.02em;
      }

      .cls-14 {
        letter-spacing: 0em;
      }

      .cls-15 {
        letter-spacing: 0em;
      }

      .cls-16 {
        letter-spacing: -.01em;
      }

      .cls-17 {
        letter-spacing: -.04em;
      }

      .cls-18 {
        letter-spacing: 0em;
      }

      .cls-19 {
        letter-spacing: -.01em;
      }

      .cls-20 {
        letter-spacing: 0em;
      }

      .cls-21 {
        letter-spacing: 0em;
      }

      .cls-22 {
        font-family: Urbanist-Regular, Urbanist;
        font-size: 18px;
        font-variation-settings: 'wght' 400;
      }

      .cls-23 {
        letter-spacing: 0em;
      }

      .cls-24 {
        fill: #130044;
      }
    </style>
  </defs>
  <rect class="cls-24" x="0" y="0" width="366.28" height="305.38" rx="29.13" ry="29.13"/>
  <g>
    <path class="cls-7" d="M44.81,67.04h-2.02l-3.3-4.79s-.01-.02-.02-.02c-.01-.01-.02-.03-.03-.04-.01-.01-.02-.02-.03-.03,0,0-.02-.02-.02-.03-.01-.01-.03-.02-.04-.04,0,0-.01-.01-.02-.02-.01-.01-.03-.02-.04-.03,0,0-.02-.01-.03-.02-.01,0-.03-.02-.04-.03-.01,0-.02-.01-.03-.02-.01,0-.03-.01-.04-.02-.01,0-.03-.01-.04-.02-.01,0-.02,0-.03-.01-.01,0-.03-.01-.05-.02-.01,0-.02,0-.03,0-.02,0-.03,0-.05-.01-.01,0-.03,0-.04,0-.01,0-.03,0-.04,0-.02,0-.04,0-.06,0,0,0-.02,0-.03,0h-1.83s-.02,0-.03,0c-.02,0-.03,0-.05,0-.02,0-.04,0-.05,0,0,0-.02,0-.03,0,0,0,0,0,0,0-.02,0-.04,0-.06.01,0,0-.02,0-.02,0-.02,0-.04.01-.05.02,0,0-.02,0-.03.01-.01,0-.03.01-.04.02-.01,0-.03.01-.04.02,0,0-.01,0-.02.01-.02.01-.04.02-.05.03,0,0,0,0,0,0-.04.03-.09.07-.12.1,0,0,0,0,0,0-.02.02-.04.04-.05.06-.01.01-.02.03-.03.04,0,0-.01.02-.02.03-.01.02-.03.04-.04.06,0,0,0,0,0,0-.01.02-.02.04-.03.06,0,0,0,0,0,.01,0,.02-.01.03-.02.05,0,.01,0,.02-.01.03,0,.01,0,.02,0,.04,0,.02,0,.03-.01.05,0,0,0,.02,0,.02,0,.02,0,.04,0,.06,0,0,0,.01,0,.02,0,.02,0,.04,0,.07,0,0,0,0,0,0,0,0,0,.02,0,.03,0,.02,0,.04,0,.06,0,.02,0,.03,0,.05,0,0,0,.02,0,.03h0s0,.01,0,.01l.79,4.13h-2.07l-1.47-1.47s-.01-.01-.02-.02c-.01-.01-.03-.03-.04-.04-.01,0-.02-.02-.03-.03-.01,0-.02-.02-.03-.02-.01,0-.03-.02-.04-.02-.01,0-.02-.01-.03-.02-.01,0-.03-.01-.04-.02-.01,0-.02-.01-.04-.02-.01,0-.02,0-.04-.01-.01,0-.03-.01-.04-.02-.01,0-.02,0-.04,0-.02,0-.03,0-.05-.01-.01,0-.03,0-.04,0-.01,0-.03,0-.04,0-.02,0-.04,0-.07,0,0,0-.01,0-.02,0s-.01,0-.02,0c-.02,0-.04,0-.07,0-.01,0-.03,0-.04,0-.01,0-.03,0-.04,0-.02,0-.03,0-.05.01-.01,0-.02,0-.04,0-.01,0-.03,0-.04.02-.01,0-.02,0-.04.01-.01,0-.03.01-.04.02-.01,0-.03.01-.04.02-.01,0-.02.01-.03.02-.01,0-.03.02-.04.02-.01,0-.02.02-.03.02-.01,0-.02.02-.03.03-.02.01-.03.03-.04.04,0,0-.01.01-.02.02,0,0-.01.01-.02.02-.01.01-.03.03-.04.04,0,.01-.02.02-.03.04,0,.01-.02.02-.02.03,0,.01-.02.03-.03.04,0,.01-.01.02-.02.03,0,.01-.01.03-.02.04,0,.01-.01.02-.02.03,0,.01-.01.03-.02.04,0,.01,0,.03-.01.04,0,.01,0,.03-.01.04,0,.01,0,.03,0,.04,0,.02,0,.03,0,.05,0,.01,0,.02,0,.03,0,.03,0,.06,0,.09v3.44s0,.03,0,.05c-.02.24.07.48.25.66.17.17.39.25.61.25s.44-.08.61-.25l1.58-1.58h1.96l-.79,4.13s0,0,0,0h0s0,.03,0,.04c0,.02,0,.03,0,.05,0,.02,0,.04,0,.06,0,0,0,.02,0,.03,0,0,0,0,0,0,0,.02,0,.04,0,.07,0,0,0,.01,0,.02,0,.02,0,.04,0,.06,0,0,0,.02,0,.02,0,.02,0,.03.01.05,0,.01,0,.02,0,.04,0,.01,0,.02.01.03,0,.02.01.03.02.05,0,0,0,0,0,.01,0,.02.02.04.03.06,0,0,0,0,0,0,.01.02.02.04.04.06,0,0,.01.02.02.03,0,.01.02.03.03.04.02.02.03.04.05.06,0,0,0,0,0,0,.04.04.08.07.12.1,0,0,0,0,0,0,.02.01.03.02.05.03,0,0,.01,0,.02.01.01,0,.03.01.04.02.01,0,.03.01.04.02,0,0,.02,0,.03.01.02,0,.04.01.05.02,0,0,.02,0,.02,0,.02,0,.04.01.06.01,0,0,0,0,0,0,.01,0,.03,0,.04,0,.01,0,.03,0,.04,0,.03,0,.06,0,.09,0,0,0,0,0,0,0h1.82s0,0,0,0c0,0,0,0,0,0,.03,0,.06,0,.09,0,0,0,.02,0,.03,0,.02,0,.05,0,.07-.01,0,0,.02,0,.03,0,.02,0,.04-.01.07-.02,0,0,.02,0,.03-.01.02,0,.04-.02.06-.03,0,0,.02,0,.03-.01.03-.01.05-.03.08-.05,0,0,.01,0,.02-.01.02-.01.04-.03.06-.05,0,0,.02-.02.03-.02.02-.01.03-.03.04-.04,0,0,.02-.02.02-.03.02-.02.03-.04.05-.06,0,0,0,0,0-.01l3.3-4.79h2.02c.48,0,.86-.39.86-.86s-.39-.86-.86-.86ZM38,63.59h.34l2.37,3.44h-2.04l-.66-3.44ZM40.7,68.76l-2.37,3.44h-.34l.66-3.44h2.04Z"/>
    <path class="cls-7" d="M56.87,71.34h-6.89c-.48,0-.86.39-.86.86s.39.86.86.86h6.89c.48,0,.86-.39.86-.86s-.39-.86-.86-.86Z"/>
    <path class="cls-7" d="M56.87,67.04h-6.89c-.48,0-.86.39-.86.86s.39.86.86.86h6.89c.48,0,.86-.39.86-.86s-.39-.86-.86-.86Z"/>
    <path class="cls-7" d="M49.98,64.45h6.89c.48,0,.86-.39.86-.86s-.39-.86-.86-.86h-6.89c-.48,0-.86.39-.86.86s.39.86.86.86Z"/>
    <path class="cls-7" d="M66.34,66.18c-.48,0-.86.39-.86.86v6.03c0,.48.39.86.86.86s.86-.39.86-.86v-6.03c0-.48-.39-.86-.86-.86Z"/>
    <path class="cls-7" d="M66.34,61.87c-.48,0-.86.39-.86.86v.86c0,.48.39.86.86.86s.86-.39.86-.86v-.86c0-.48-.39-.86-.86-.86Z"/>
    <path class="cls-7" d="M71.51,48.09h-36.17c-2.37,0-4.31,1.93-4.31,4.31v5.25c-1.96.4-3.44,2.14-3.44,4.22v12.06c0,2.37,1.93,4.31,4.31,4.31h36.17c2.37,0,4.31-1.93,4.31-4.31v-5.25c1.96-.4,3.44-2.14,3.44-4.22v-12.06c0-2.37-1.93-4.31-4.31-4.31ZM29.31,73.93v-12.06c0-1.42,1.16-2.58,2.58-2.58h13.88s0,0,0,0c0,0,0,0,0,0h15.39v17.22h-29.28c-1.42,0-2.58-1.16-2.58-2.58ZM41.44,54.12h.34l2.37,3.44h-2.04l-.66-3.44ZM70.65,73.93c0,1.42-1.16,2.58-2.58,2.58h-5.17v-17.22h5.17c1.42,0,2.58,1.16,2.58,2.58v12.06ZM74.09,64.45c0,1.12-.72,2.08-1.72,2.44v-5.02c0-1.41-.68-2.66-1.72-3.44v-.86c0-.48-.39-.86-.86-.86s-.86.39-.86.86v.09c-.28-.06-.57-.09-.86-.09h-21.83l-3.3-4.79s-.01-.02-.02-.02c-.01-.01-.02-.03-.03-.04-.01-.01-.02-.02-.03-.03,0,0-.02-.02-.03-.03-.01-.01-.03-.02-.04-.03,0,0-.02-.01-.02-.02-.01-.01-.03-.02-.04-.03,0,0-.02-.01-.03-.02-.01,0-.03-.02-.04-.02-.01,0-.02-.01-.03-.02-.01,0-.02-.01-.04-.02-.01,0-.03-.01-.04-.02-.01,0-.02,0-.03-.01-.02,0-.03-.01-.05-.02-.01,0-.02,0-.03,0-.02,0-.03,0-.05-.01-.01,0-.03,0-.04,0-.01,0-.03,0-.04,0-.02,0-.04,0-.05,0,0,0-.02,0-.03,0h-1.83s-.02,0-.03,0c-.02,0-.03,0-.05,0-.02,0-.04,0-.05,0,0,0-.02,0-.03,0,0,0,0,0,0,0-.02,0-.04,0-.06.01,0,0-.02,0-.02,0-.02,0-.04.01-.05.02,0,0-.02,0-.03.01-.01,0-.03.01-.04.02-.01,0-.03.01-.04.02,0,0-.01,0-.02.01-.02.01-.04.02-.05.03,0,0,0,0,0,0-.04.03-.09.07-.12.1,0,0,0,0,0,0-.02.02-.04.04-.05.06-.01.01-.02.03-.03.04,0,0-.01.02-.02.03-.01.02-.03.04-.04.06,0,0,0,0,0,0-.01.02-.02.04-.03.06,0,0,0,0,0,.01,0,.02-.01.03-.02.05,0,.01,0,.02-.01.03,0,.01,0,.02,0,.04,0,.02,0,.03-.01.05,0,0,0,.02,0,.02,0,.02,0,.04,0,.06,0,0,0,.01,0,.02,0,.02,0,.04,0,.07,0,0,0,0,0,0,0,0,0,.02,0,.03,0,.02,0,.04,0,.06,0,.02,0,.03,0,.05,0,0,0,.02,0,.03h0s0,.01,0,.01l.79,4.13h-2.07l-1.47-1.47s-.01-.01-.02-.02c-.01-.01-.03-.03-.04-.04-.01,0-.02-.02-.03-.03-.01,0-.02-.02-.03-.02-.01,0-.03-.02-.04-.02-.01,0-.02-.01-.03-.02-.01,0-.03-.01-.04-.02-.01,0-.02-.01-.04-.02-.01,0-.02,0-.04-.01-.01,0-.03-.01-.04-.02-.01,0-.02,0-.04,0-.02,0-.03,0-.05-.01-.01,0-.03,0-.04,0-.01,0-.03,0-.04,0-.02,0-.04,0-.07,0,0,0-.01,0-.02,0s-.01,0-.02,0c-.02,0-.04,0-.07,0-.01,0-.03,0-.04,0-.01,0-.03,0-.04,0-.02,0-.03,0-.05.01-.01,0-.02,0-.04,0-.01,0-.03,0-.04.02-.01,0-.02,0-.04.01-.01,0-.03.01-.04.02-.01,0-.03.01-.04.02-.01,0-.02.01-.03.02-.01,0-.03.02-.04.02-.01,0-.02.02-.03.02-.01,0-.02.02-.03.03-.02.01-.03.03-.04.04,0,0-.01.01-.02.02,0,0-.01.01-.02.02-.01.01-.03.03-.04.04,0,.01-.02.02-.03.04,0,.01-.02.02-.02.03,0,.01-.02.03-.03.04,0,.01-.01.02-.02.03,0,.01-.01.03-.02.04,0,.01-.01.02-.02.03,0,.01-.01.03-.02.04,0,.01,0,.03-.01.04,0,.01,0,.03-.01.04,0,.01,0,.03,0,.04,0,.02,0,.03,0,.05,0,.01,0,.02,0,.03,0,.03,0,.06,0,.09v.86h-2.58v-5.17c0-1.42,1.16-2.58,2.58-2.58h29.28v5.17c0,.48.39.86.86.86s.86-.39.86-.86v-5.17h5.17c1.42,0,2.58,1.16,2.58,2.58v12.06Z"/>
    <path class="cls-7" d="M60.31,53.26h-6.89c-.48,0-.86.39-.86.86s.39.86.86.86h6.89c.48,0,.86-.39.86-.86s-.39-.86-.86-.86Z"/>
    <path class="cls-7" d="M69.79,52.4c-.48,0-.86.39-.86.86v.86c0,.48.39.86.86.86s.86-.39.86-.86v-.86c0-.48-.39-.86-.86-.86Z"/>
  </g>
  <text class="cls-7" transform="translate(27.59 119.7)"><tspan class="cls-12"><tspan class="cls-13" x="0" y="0">S</tspan><tspan class="cls-11" x="14.61" y="0">e</tspan><tspan x="27.75" y="0">r</tspan><tspan class="cls-13" x="36.99" y="0">v</tspan><tspan class="cls-11" x="50.56" y="0">i</tspan><tspan class="cls-13" x="56.09" y="0">ç</tspan><tspan class="cls-1" x="67.96" y="0">o</tspan><tspan x="81.21" y="0">s</tspan></tspan><tspan class="cls-22"><tspan class="cls-17" x="0" y="43.2">P</tspan><tspan class="cls-5" x="8.68" y="43.2">o</tspan><tspan class="cls-10" x="18.67" y="43.2">r</tspan><tspan class="cls-20" x="24.5" y="43.2">q</tspan><tspan class="cls-18" x="35.2" y="43.2">u</tspan><tspan x="44.42" y="43.2">e </tspan><tspan class="cls-18" x="58.8" y="43.2">o</tspan><tspan x="68.81" y="43.2">s </tspan><tspan class="cls-18" x="80.87" y="43.2">s</tspan><tspan class="cls-5" x="88.53" y="43.2">o</tspan><tspan class="cls-6" x="98.52" y="43.2">n</tspan><tspan class="cls-19" x="108.29" y="43.2">h</tspan><tspan class="cls-18" x="117.76" y="43.2">o</tspan><tspan x="127.77" y="43.2">s </tspan><tspan class="cls-15" x="139.82" y="43.2">nã</tspan><tspan x="159.57" y="43.2">o </tspan><tspan class="cls-4" x="173.97" y="43.2">s</tspan><tspan class="cls-19" x="181.64" y="43.2">ã</tspan><tspan x="191.92" y="43.2">o </tspan><tspan class="cls-8" x="206.32" y="43.2">f</tspan><tspan class="cls-19" x="212.11" y="43.2">e</tspan><tspan x="221.99" y="43.2">i</tspan><tspan class="cls-16" x="225.41" y="43.2">t</tspan><tspan class="cls-18" x="231.37" y="43.2">o</tspan><tspan x="241.39" y="43.2">s </tspan></tspan><tspan class="cls-22"><tspan class="cls-18" x="0" y="64.8">s</tspan><tspan class="cls-5" x="7.67" y="64.8">o</tspan><tspan class="cls-15" x="17.66" y="64.8">m</tspan><tspan class="cls-5" x="33.47" y="64.8">e</tspan><tspan x="43.43" y="64.8">n</tspan><tspan class="cls-16" x="53.08" y="64.8">t</tspan><tspan x="59.05" y="64.8">e </tspan><tspan class="cls-18" x="73.42" y="64.8">d</tspan><tspan x="84.19" y="64.8">e </tspan><tspan class="cls-20" x="98.56" y="64.8">c</tspan><tspan x="107.61" y="64.8">a</tspan><tspan class="cls-18" x="118.07" y="64.8">s</tspan><tspan x="125.74" y="64.8">as e </tspan><tspan class="cls-20" x="162.62" y="64.8">c</tspan><tspan x="171.67" y="64.8">a</tspan><tspan class="cls-5" x="182.13" y="64.8">r</tspan><tspan class="cls-10" x="188.48" y="64.8">r</tspan><tspan class="cls-18" x="194.31" y="64.8">o</tspan><tspan class="cls-9" x="204.33" y="64.8">s</tspan><tspan x="212.03" y="64.8">, </tspan><tspan class="cls-15" x="219.97" y="64.8">nã</tspan><tspan x="239.71" y="64.8">o é </tspan></tspan><tspan class="cls-22"><tspan class="cls-15" x="0" y="86.4">m</tspan><tspan class="cls-18" x="15.81" y="86.4">e</tspan><tspan x="25.8" y="86.4">s</tspan><tspan class="cls-19" x="33.53" y="86.4">m</tspan><tspan x="49.35" y="86.4">o? </tspan><tspan class="cls-20" x="72.77" y="86.4">U</tspan><tspan class="cls-15" x="84.59" y="86.4">m</tspan><tspan x="100.4" y="86.4">a </tspan><tspan class="cls-20" x="115.18" y="86.4">v</tspan><tspan class="cls-5" x="124.32" y="86.4">i</tspan><tspan class="cls-19" x="127.65" y="86.4">a</tspan><tspan class="cls-5" x="137.92" y="86.4">ge</tspan><tspan class="cls-21" x="158.37" y="86.4">m, o </tspan><tspan class="cls-4" x="196.7" y="86.4">s</tspan><tspan class="cls-19" x="204.37" y="86.4">e</tspan><tspan x="214.24" y="86.4">u </tspan></tspan><tspan class="cls-22"><tspan class="cls-20" x="0" y="108">c</tspan><tspan x="9.05" y="108">a</tspan><tspan class="cls-18" x="19.51" y="108">s</tspan><tspan x="27.18" y="108">a</tspan><tspan class="cls-15" x="37.64" y="108">m</tspan><tspan class="cls-5" x="53.45" y="108">e</tspan><tspan x="63.41" y="108">n</tspan><tspan class="cls-16" x="73.06" y="108">t</tspan><tspan class="cls-19" x="79.03" y="108">o</tspan><tspan x="88.93" y="108">, a </tspan><tspan class="cls-3" x="111.64" y="108">f</tspan><tspan class="cls-23" x="117.44" y="108">or</tspan><tspan class="cls-19" x="133.78" y="108">m</tspan><tspan x="149.59" y="108">atu</tspan><tspan class="cls-10" x="175.54" y="108">r</tspan><tspan x="181.38" y="108">a, </tspan><tspan class="cls-4" x="199.77" y="108">s</tspan><tspan class="cls-19" x="207.44" y="108">ã</tspan><tspan x="217.72" y="108">o </tspan></tspan><tspan class="cls-22"><tspan x="0" y="129.6">mui</tspan><tspan class="cls-16" x="28.7" y="129.6">t</tspan><tspan class="cls-18" x="34.67" y="129.6">o</tspan><tspan x="44.68" y="129.6">s </tspan><tspan class="cls-18" x="56.74" y="129.6">o</tspan><tspan x="66.75" y="129.6">s </tspan><tspan class="cls-18" x="78.8" y="129.6">s</tspan><tspan class="cls-5" x="86.47" y="129.6">e</tspan><tspan x="96.43" y="129.6">r</tspan><tspan class="cls-20" x="102.87" y="129.6">v</tspan><tspan class="cls-5" x="112" y="129.6">i</tspan><tspan class="cls-20" x="115.33" y="129.6">ç</tspan><tspan class="cls-4" x="124.39" y="129.6">o</tspan><tspan class="cls-14" x="134.41" y="129.6">s a </tspan><tspan class="cls-4" x="161.23" y="129.6">s</tspan><tspan x="168.9" y="129.6">e </tspan><tspan class="cls-2" x="183.28" y="129.6">p</tspan><tspan class="cls-4" x="193.94" y="129.6">l</tspan><tspan x="197.3" y="129.6">a</tspan><tspan class="cls-19" x="207.76" y="129.6">ne</tspan><tspan class="cls-5" x="227.1" y="129.6">j</tspan><tspan x="230.98" y="129.6">a</tspan><tspan class="cls-10" x="241.43" y="129.6">r</tspan><tspan x="247.27" y="129.6">.</tspan></tspan></text>
</svg>