<?xml version="1.0" encoding="UTF-8"?>
<svg id="Layer_1" data-name="Layer 1" xmlns="http://www.w3.org/2000/svg" viewBox="0 0 366.28 305.38">
  <defs>
    <style>
      .cls-1 {
        letter-spacing: -.01em;
      }

      .cls-2 {
        letter-spacing: 0em;
      }

      .cls-3 {
        letter-spacing: -.04em;
      }

      .cls-4 {
        letter-spacing: 0em;
      }

      .cls-5 {
        fill: #fff;
      }

      .cls-6 {
        letter-spacing: -.03em;
      }

      .cls-7 {
        letter-spacing: 0em;
      }

      .cls-8 {
        letter-spacing: 0em;
      }

      .cls-9 {
        font-family: UrbanistRoman-Bold, Urbanist;
        font-size: 23.99px;
        font-variation-settings: 'wght' 700;
        font-weight: 700;
      }

      .cls-10 {
        letter-spacing: -.03em;
      }

      .cls-11 {
        letter-spacing: -.03em;
      }

      .cls-12 {
        letter-spacing: -.01em;
      }

      .cls-13 {
        letter-spacing: 0em;
      }

      .cls-14 {
        letter-spacing: 0em;
      }

      .cls-15 {
        letter-spacing: -.03em;
      }

      .cls-16 {
        letter-spacing: -.02em;
      }

      .cls-17 {
        letter-spacing: -.01em;
      }

      .cls-18 {
        letter-spacing: 0em;
      }

      .cls-19 {
        letter-spacing: -.01em;
      }

      .cls-20 {
        letter-spacing: 0em;
      }

      .cls-21 {
        letter-spacing: 0em;
      }

      .cls-22 {
        letter-spacing: 0em;
      }

      .cls-23 {
        font-family: Urbanist-Regular, Urbanist;
        font-size: 18px;
        font-variation-settings: 'wght' 400;
      }

      .cls-24 {
        fill: #130044;
      }
    </style>
  </defs>
  <rect class="cls-24" x="0" y="0" width="366.28" height="305.38" rx="29.13" ry="29.13"/>
  <g>
    <path class="cls-5" d="M60.8,37.09c.55,0,1-.45,1-1,0-.51.42-.93.93-.93s.93.42.93.93c0,.33-.17.63-.46.8-1.22.72-1.47,1.57-1.47,2.16v1.29c0,.55.45,1,1,1s1-.45,1-1v-1.29s.11-.22.49-.44c.89-.53,1.44-1.49,1.44-2.53,0-1.62-1.32-2.93-2.93-2.93s-2.93,1.32-2.93,2.93c0,.55.45,1,1,1Z"/>
    <path class="cls-5" d="M62.73,42.41c-.57,0-1.03.46-1.03,1.03s.46,1.03,1.03,1.03,1.03-.46,1.03-1.03-.46-1.03-1.03-1.03Z"/>
    <path class="cls-5" d="M73.88,37.47c-.88-5.36-5.54-9.47-11.15-9.47-4.27,0-8,2.38-9.92,5.89h-25.22v23.23h3.17v21.11h40.12v-21.11h3.17v-19.87l-.16.22ZM62.73,30c5.13,0,9.31,4.18,9.31,9.31,0,.25-.02.49-.04.74l-.07.1v.53c-.66,4.49-4.53,7.95-9.2,7.95-5.13,0-9.31-4.18-9.31-9.31s4.18-9.31,9.31-9.31ZM53.99,76.12h-6.33v-9.5c0-1.76,1.41-3.17,3.17-3.17s3.17,1.41,3.17,3.17v9.5ZM68.77,76.12h-12.67v-9.5c0-2.9-2.38-5.28-5.28-5.28s-5.28,2.38-5.28,5.28v9.5h-12.67v-19h11.14l6.81-10.7,6.81,10.7h11.14v19ZM71.93,55h-1.93c-.11-.02-.23-.02-.34,0h-10.87l-7.97-12.52-7.97,12.52h-10.87c-.06-.01-.12-.01-.18-.01-.05,0-.1,0-.15.01h-1.94v-19h22.21c-.32,1.05-.5,2.16-.5,3.31,0,6.24,5.07,11.31,11.31,11.31,3.79,0,7.15-1.88,9.2-4.76v9.14Z"/>
    <path class="cls-5" d="M34.98,62.39v8.45h8.45v-9.5h-8.45v1.06ZM37.09,63.45h4.22v5.28h-4.22v-5.28Z"/>
    <path class="cls-5" d="M66.65,61.34h-8.45v9.5h8.45v-9.5ZM64.54,68.73h-4.22v-5.28h4.22v5.28Z"/>
  </g>
  <text class="cls-5" transform="translate(27.59 119.7)"><tspan class="cls-9"><tspan class="cls-3" x="0" y="0">R</tspan><tspan class="cls-16" x="13.54" y="0">o</tspan><tspan class="cls-7" x="26.42" y="0">u</tspan><tspan class="cls-13" x="39.39" y="0">b</tspan><tspan x="54.02" y="0">o </tspan><tspan class="cls-2" x="73.21" y="0">d</tspan><tspan x="87.9" y="0">e </tspan><tspan class="cls-13" x="107.07" y="0">b</tspan><tspan class="cls-1" x="121.71" y="0">e</tspan><tspan x="134.85" y="0">ns</tspan></tspan><tspan class="cls-23"><tspan class="cls-15" x="0" y="43.2">C</tspan><tspan class="cls-21" x="12.13" y="43.2">o</tspan><tspan class="cls-19" x="22.06" y="43.2">b</tspan><tspan class="cls-4" x="32.71" y="43.2">e</tspan><tspan class="cls-22" x="42.67" y="43.2">rtu</tspan><tspan class="cls-11" x="64.6" y="43.2">r</tspan><tspan x="70.43" y="43.2">a </tspan><tspan class="cls-19" x="85.21" y="43.2">p</tspan><tspan x="95.85" y="43.2">a</tspan><tspan class="cls-11" x="106.31" y="43.2">r</tspan><tspan x="112.14" y="43.2">a i</tspan><tspan class="cls-12" x="130.34" y="43.2">t</tspan><tspan class="cls-4" x="136.3" y="43.2">e</tspan><tspan class="cls-22" x="146.27" y="43.2">ns </tspan><tspan class="cls-18" x="167.97" y="43.2">d</tspan><tspan x="178.73" y="43.2">e s</tspan><tspan class="cls-18" x="200.83" y="43.2">u</tspan><tspan x="210.06" y="43.2">a </tspan><tspan class="cls-20" x="224.84" y="43.2">c</tspan><tspan x="233.89" y="43.2">a</tspan><tspan class="cls-18" x="244.35" y="43.2">s</tspan><tspan x="252.02" y="43.2">a </tspan></tspan><tspan class="cls-23"><tspan class="cls-20" x="0" y="64.8">q</tspan><tspan class="cls-18" x="10.7" y="64.8">u</tspan><tspan x="19.93" y="64.8">e </tspan><tspan class="cls-18" x="34.3" y="64.8">s</tspan><tspan class="cls-14" x="41.97" y="64.8">e</tspan><tspan class="cls-4" x="51.84" y="64.8">j</tspan><tspan x="55.72" y="64.8">am </tspan><tspan class="cls-18" x="86.49" y="64.8">l</tspan><tspan class="cls-10" x="89.85" y="64.8">ev</tspan><tspan class="cls-14" x="108.2" y="64.8">a</tspan><tspan class="cls-18" x="118.48" y="64.8">do</tspan><tspan x="139.26" y="64.8">s </tspan><tspan class="cls-14" x="151.31" y="64.8">o</tspan><tspan x="161.21" y="64.8">u </tspan><tspan class="cls-18" x="174.81" y="64.8">d</tspan><tspan x="185.58" y="64.8">ani</tspan><tspan class="cls-18" x="209.1" y="64.8">f</tspan><tspan class="cls-4" x="215.04" y="64.8">i</tspan><tspan class="cls-20" x="218.37" y="64.8">c</tspan><tspan class="cls-14" x="227.43" y="64.8">a</tspan><tspan class="cls-18" x="237.71" y="64.8">do</tspan><tspan x="258.49" y="64.8">s </tspan></tspan><tspan class="cls-23"><tspan x="0" y="86.4">du</tspan><tspan class="cls-6" x="20.11" y="86.4">r</tspan><tspan x="25.95" y="86.4">an</tspan><tspan class="cls-17" x="46.05" y="86.4">t</tspan><tspan x="52.02" y="86.4">e o </tspan><tspan class="cls-6" x="80.79" y="86.4">r</tspan><tspan class="cls-14" x="86.62" y="86.4">o</tspan><tspan class="cls-8" x="96.52" y="86.4">u</tspan><tspan class="cls-14" x="105.93" y="86.4">bo</tspan><tspan x="126.48" y="86.4">.</tspan></tspan></text>
</svg>