<?xml version="1.0" encoding="UTF-8"?>
<svg id="Layer_1" data-name="Layer 1" xmlns="http://www.w3.org/2000/svg" viewBox="0 0 366.28 305.38">
  <defs>
    <style>
      .cls-1 {
        letter-spacing: -.01em;
      }

      .cls-2 {
        letter-spacing: -.02em;
      }

      .cls-3 {
        font-family: UrbanistRoman-Bold, Urbanist;
        font-size: 19px;
        font-variation-settings: 'wght' 700;
        font-weight: 700;
      }

      .cls-3, .cls-4 {
        fill: #130044;
      }

      .cls-5 {
        letter-spacing: -.01em;
      }

      .cls-6 {
        letter-spacing: -.04em;
      }

      .cls-7 {
        letter-spacing: -.01em;
      }

      .cls-8 {
        letter-spacing: -.02em;
      }

      .cls-9 {
        letter-spacing: 0em;
      }

      .cls-10 {
        letter-spacing: 0em;
      }

      .cls-11 {
        letter-spacing: 0em;
      }

      .cls-12 {
        letter-spacing: -.02em;
      }

      .cls-13 {
        letter-spacing: -.08em;
      }
    </style>
  </defs>
  <path class="cls-4" d="M59.48,62.61s-.04-.05-.07-.08c-.82-.91-2-1.49-3.31-1.49h-4.59v-27.02c0-2.47-2.01-4.48-4.48-4.48h-14.96c-2.47,0-4.48,2.01-4.48,4.48v32.2h0v7.53c0,1.05.38,2,.98,2.77,0,.01,0,.03.02.04.07.1.14.18.23.26.82.87,1.97,1.41,3.25,1.41h24.03c2.47,0,4.48-2.01,4.48-4.48v-8.23c0-1.12-.42-2.12-1.1-2.91ZM56.71,63.64l-2.55,3.93-1.92-4.04h3.86c.21,0,.42.04.61.11ZM32.12,75.73l6.91-4.55s0,0,0,0l10.71-7.05,2.82,5.92-3.69,5.69h-16.75ZM36.57,34.77l10.62,3.95-17.09,8.88v-9.24l6.47-3.59ZM38.21,68.72l-8.12-3.35v-.68l18.92-12.69v9.61l-10.79,7.11ZM49.01,48.99l-9.68,6.49-9.24-2.55v-2.51l18.92-9.83v8.4ZM30.09,55.53l6.5,1.8-6.5,4.36v-6.15ZM30.09,73.75v-5.67l5.6,2.31-5.57,3.67c-.02-.1-.03-.2-.03-.3ZM49.01,34.02v2.72l-9.56-3.56,2.05-1.14h5.54c1.09,0,1.98.89,1.98,1.98ZM32.07,32.04h4.27l-6.25,3.47v-1.49c0-1.09.89-1.98,1.98-1.98ZM56.1,75.73h-4.25l6.23-9.61v7.63c0,1.09-.89,1.98-1.98,1.98Z"/>
  <path class="cls-4" d="M337.15,9c11.1,0,20.14,9.03,20.14,20.14v247.12c0,11.1-9.03,20.13-20.14,20.13H29.13c-11.1,0-20.14-9.03-20.14-20.13V29.13c0-11.1,9.03-20.14,20.14-20.14h308.02M337.15,0H29.13C13.11,0,0,13.11,0,29.13v247.12C0,292.27,13.11,305.38,29.13,305.38h308.02c16.02,0,29.13-13.11,29.13-29.13V29.13c0-16.02-13.11-29.13-29.13-29.13h0Z"/>
  <text class="cls-3" transform="translate(27.59 251.17)"><tspan class="cls-9" x="0" y="0">D</tspan><tspan class="cls-7" x="12.62" y="0">i</tspan><tspan x="17" y="0">á</tspan><tspan class="cls-12" x="28.39" y="0">r</tspan><tspan class="cls-7" x="35.41" y="0">i</tspan><tspan x="39.79" y="0">a </tspan><tspan class="cls-1" x="55.73" y="0">p</tspan><tspan class="cls-7" x="67.3" y="0">o</tspan><tspan x="77.72" y="0">r I</tspan><tspan class="cls-1" x="94.76" y="0">n</tspan><tspan class="cls-2" x="105.17" y="0">c</tspan><tspan x="114.57" y="0">a</tspan><tspan class="cls-10" x="125.95" y="0">pa</tspan><tspan class="cls-8" x="148.71" y="0">c</tspan><tspan class="cls-5" x="158.04" y="0">i</tspan><tspan class="cls-9" x="162.42" y="0">d</tspan><tspan class="cls-10" x="174.05" y="0">a</tspan><tspan class="cls-9" x="185.25" y="0">d</tspan><tspan x="196.88" y="0">e </tspan><tspan class="cls-13" x="0" y="22.8">T</tspan><tspan class="cls-5" x="10.53" y="22.8">e</tspan><tspan x="20.94" y="22.8">m</tspan><tspan class="cls-10" x="37.82" y="22.8">p</tspan><tspan class="cls-5" x="49.39" y="22.8">o</tspan><tspan class="cls-6" x="59.81" y="22.8">r</tspan><tspan x="66.41" y="22.8">á</tspan><tspan class="cls-12" x="77.79" y="22.8">r</tspan><tspan class="cls-7" x="84.81" y="22.8">i</tspan><tspan x="89.19" y="22.8">a (</tspan><tspan class="cls-11" x="112.34" y="22.8">D</tspan><tspan x="124.93" y="22.8">IT)</tspan></text>
  <polygon class="cls-4" points="338.69 262.6 330.04 262.6 330.04 253.95 324.38 253.95 324.38 262.6 315.73 262.6 315.73 268.27 324.38 268.27 324.38 276.92 330.04 276.92 330.04 268.27 338.69 268.27 338.69 262.6"/>
</svg>