<?xml version="1.0" encoding="UTF-8"?>
<svg id="Layer_1" data-name="Layer 1" xmlns="http://www.w3.org/2000/svg" viewBox="0 0 366.28 305.38">
  <defs>
    <style>
      .cls-1 {
        letter-spacing: -.01em;
      }

      .cls-2 {
        letter-spacing: 0em;
      }

      .cls-3 {
        letter-spacing: -.01em;
      }

      .cls-4 {
        letter-spacing: 0em;
      }

      .cls-5 {
        letter-spacing: 0em;
      }

      .cls-6 {
        letter-spacing: 0em;
      }

      .cls-7 {
        fill: #fff;
      }

      .cls-8 {
        letter-spacing: 0em;
      }

      .cls-9 {
        letter-spacing: -.03em;
      }

      .cls-10 {
        letter-spacing: 0em;
      }

      .cls-11 {
        letter-spacing: -.01em;
      }

      .cls-12 {
        font-family: UrbanistRoman-Bold, Urbanist;
        font-size: 23.99px;
        font-variation-settings: 'wght' 700;
        font-weight: 700;
      }

      .cls-13 {
        letter-spacing: -.02em;
      }

      .cls-14 {
        letter-spacing: 0em;
      }

      .cls-15 {
        letter-spacing: -.01em;
      }

      .cls-16 {
        letter-spacing: 0em;
      }

      .cls-17 {
        letter-spacing: 0em;
      }

      .cls-18 {
        letter-spacing: -.02em;
      }

      .cls-19 {
        letter-spacing: 0em;
      }

      .cls-20 {
        letter-spacing: 0em;
      }

      .cls-21 {
        letter-spacing: 0em;
      }

      .cls-22 {
        letter-spacing: -.01em;
      }

      .cls-23 {
        letter-spacing: 0em;
      }

      .cls-24 {
        letter-spacing: 0em;
      }

      .cls-25 {
        letter-spacing: 0em;
      }

      .cls-26 {
        font-family: Urbanist-Regular, Urbanist;
        font-size: 18px;
        font-variation-settings: 'wght' 400;
      }

      .cls-27 {
        letter-spacing: 0em;
      }

      .cls-28 {
        fill: #130044;
      }

      .cls-29 {
        letter-spacing: -.01em;
      }
    </style>
  </defs>
  <rect class="cls-28" x="0" y="0" width="366.28" height="305.38" rx="29.13" ry="29.13"/>
  <g id="Layer_22" data-name="Layer 22">
    <path class="cls-7" d="M78.41,50.66c.32-1.24.48-2.53.46-3.81,0-8.18-6.63-14.81-14.81-14.81h-.17c-3.92.03-7.66,1.6-10.42,4.39-2.85-2.71-6.64-4.21-10.57-4.18-8.34.1-15.02,6.95-14.92,15.28.01,1.08.14,2.16.39,3.22-.5.35-.8.92-.8,1.54,0,1.02.83,1.85,1.85,1.85h.09c.75,1.49,1.74,2.86,2.92,4.03l.8.72c.08.11.16.21.26.3l18.91,18.51c.34.34.81.53,1.3.54.49,0,.97-.2,1.31-.56l18.51-18.93c.2-.21.35-.45.44-.72l.59-.57c.97-.99,1.79-2.11,2.44-3.33h.52c1.02,0,1.85-.83,1.85-1.85,0-.68-.38-1.29-.98-1.61ZM34.98,39.39c4.4-4.49,11.6-4.57,16.09-.17,0,0,0,0,0,0,.32.31.63.65.91,1,.08.11.18.22.28.31.78.68,1.96.63,2.68-.11l.2-.24c.25-.37.55-.71.87-1.02,2.08-2.14,4.92-3.35,7.9-3.37h.11c6.13-.05,11.14,4.88,11.19,11.01,0,1.21-.18,2.41-.55,3.55l-17.01-.2h0c-.74,0-1.41.45-1.7,1.13l-.63-2.46c-.16-.57-.58-1.03-1.13-1.24-.56-.21-1.19-.13-1.68.2l-2.33,1.57-2.59-7.4c-.23-.65-.8-1.12-1.48-1.22-.71-.13-1.43.15-1.85.74l-6.38,8.68-5.77.15c-1.05-3.89.04-8.05,2.87-10.92ZM71.99,54.84c-.31.33-.65.63-1.02.91-.37.27-.63.66-.72,1.11l-16.53,16.88-17.19-16.82c-.12-.24-.29-.45-.5-.61-.34-.25-.65-.52-.94-.81-.46-.46-.87-.96-1.24-1.5l5.03-.13c.57-.02,1.11-.3,1.44-.76l4.87-6.64,2.22,6.38c.19.54.62.97,1.17,1.15.55.18,1.15.1,1.63-.22l2.18-1.48,1.46,5.37c.21.78.9,1.33,1.7,1.37h.09c.76,0,1.45-.47,1.72-1.18l1.54-3.98,13.71.17c-.19.28-.4.56-.63.81Z"/>
  </g>
  <text class="cls-7" transform="translate(27.59 119.7)"><tspan class="cls-12"><tspan class="cls-23" x="0" y="0">P</tspan><tspan class="cls-2" x="13.06" y="0">l</tspan><tspan x="18.69" y="0">a</tspan><tspan class="cls-5" x="33.05" y="0">n</tspan><tspan class="cls-20" x="46.2" y="0">o</tspan><tspan x="59.45" y="0">s </tspan><tspan class="cls-2" x="75.63" y="0">d</tspan><tspan x="90.32" y="0">e </tspan><tspan class="cls-2" x="109.5" y="0">s</tspan><tspan x="119.74" y="0">a</tspan><tspan class="cls-2" x="134.11" y="0">úd</tspan><tspan x="161.52" y="0">e e </tspan></tspan><tspan class="cls-12"><tspan class="cls-16" x="0" y="28.78">o</tspan><tspan class="cls-2" x="13.19" y="28.78">d</tspan><tspan class="cls-11" x="27.88" y="28.78">o</tspan><tspan x="41.04" y="28.78">n</tspan><tspan class="cls-29" x="54.43" y="28.78">t</tspan><tspan class="cls-18" x="62.75" y="28.78">o</tspan><tspan class="cls-2" x="75.73" y="28.78">l</tspan><tspan class="cls-16" x="81.35" y="28.78">ó</tspan><tspan class="cls-1" x="94.54" y="28.78">gi</tspan><tspan class="cls-13" x="114.5" y="28.78">c</tspan><tspan x="126.36" y="28.78">o</tspan></tspan><tspan class="cls-26"><tspan x="0" y="50.38">Os </tspan><tspan class="cls-24" x="25.91" y="50.38">c</tspan><tspan class="cls-25" x="34.96" y="50.38">o</tspan><tspan class="cls-21" x="44.89" y="50.38">l</tspan><tspan class="cls-10" x="48.25" y="50.38">a</tspan><tspan class="cls-22" x="58.82" y="50.38">b</tspan><tspan class="cls-27" x="69.47" y="50.38">o</tspan><tspan class="cls-9" x="79.46" y="50.38">r</tspan><tspan class="cls-22" x="85.29" y="50.38">a</tspan><tspan class="cls-4" x="95.57" y="50.38">d</tspan><tspan class="cls-6" x="106.33" y="50.38">o</tspan><tspan class="cls-9" x="116.33" y="50.38">r</tspan><tspan class="cls-21" x="122.16" y="50.38">e</tspan><tspan x="132.15" y="50.38">s </tspan><tspan class="cls-6" x="144.2" y="50.38">p</tspan><tspan class="cls-9" x="154.93" y="50.38">r</tspan><tspan class="cls-19" x="160.76" y="50.38">e</tspan><tspan class="cls-25" x="170.63" y="50.38">c</tspan><tspan class="cls-21" x="179.65" y="50.38">is</tspan><tspan x="190.67" y="50.38">am </tspan><tspan class="cls-6" x="221.44" y="50.38">c</tspan><tspan x="230.53" y="50.38">u</tspan><tspan class="cls-6" x="239.81" y="50.38">i</tspan><tspan class="cls-21" x="243.14" y="50.38">d</tspan><tspan x="253.91" y="50.38">ar </tspan></tspan><tspan class="cls-26"><tspan class="cls-21" x="0" y="71.98">d</tspan><tspan x="10.76" y="71.98">a </tspan><tspan class="cls-21" x="25.54" y="71.98">s</tspan><tspan x="33.21" y="71.98">a</tspan><tspan class="cls-4" x="43.67" y="71.98">úd</tspan><tspan x="63.66" y="71.98">e </tspan><tspan class="cls-21" x="78.03" y="71.98">d</tspan><tspan x="88.79" y="71.98">o </tspan><tspan class="cls-24" x="103.19" y="71.98">c</tspan><tspan class="cls-6" x="112.25" y="71.98">o</tspan><tspan class="cls-17" x="122.24" y="71.98">r</tspan><tspan class="cls-19" x="128.85" y="71.98">p</tspan><tspan x="139.49" y="71.98">o e </tspan><tspan class="cls-19" x="168.26" y="71.98">b</tspan><tspan class="cls-21" x="178.91" y="71.98">u</tspan><tspan class="cls-24" x="188.13" y="71.98">c</tspan><tspan class="cls-10" x="197.19" y="71.98">a</tspan><tspan x="207.76" y="71.98">l, a</tspan><tspan class="cls-21" x="229.58" y="71.98">f</tspan><tspan class="cls-8" x="235.52" y="71.98">i</tspan><tspan class="cls-22" x="238.91" y="71.98">n</tspan><tspan class="cls-10" x="248.38" y="71.98">a</tspan><tspan x="258.95" y="71.98">l </tspan></tspan><tspan class="cls-26"><tspan class="cls-25" x="0" y="93.58">e</tspan><tspan class="cls-21" x="9.9" y="93.58">le</tspan><tspan x="23.25" y="93.58">s </tspan><tspan class="cls-21" x="35.3" y="93.58">s</tspan><tspan class="cls-19" x="42.97" y="93.58">ã</tspan><tspan x="53.24" y="93.58">o a </tspan><tspan class="cls-24" x="82.42" y="93.58">c</tspan><tspan x="91.48" y="93.58">a</tspan><tspan class="cls-9" x="101.93" y="93.58">r</tspan><tspan x="107.77" y="93.58">a </tspan><tspan class="cls-21" x="122.54" y="93.58">d</tspan><tspan x="133.31" y="93.58">a s</tspan><tspan class="cls-21" x="155.82" y="93.58">u</tspan><tspan x="165.04" y="93.58">a </tspan><tspan class="cls-27" x="179.82" y="93.58">e</tspan><tspan class="cls-14" x="189.78" y="93.58">m</tspan><tspan class="cls-27" x="205.77" y="93.58">p</tspan><tspan class="cls-9" x="216.5" y="93.58">r</tspan><tspan class="cls-21" x="222.33" y="93.58">es</tspan><tspan x="239.99" y="93.58" xml:space="preserve">a.   </tspan></tspan><tspan class="cls-26"><tspan x="0" y="115.18">O</tspan><tspan class="cls-3" x="13.86" y="115.18">f</tspan><tspan class="cls-27" x="19.66" y="115.18">e</tspan><tspan class="cls-9" x="29.62" y="115.18">r</tspan><tspan class="cls-22" x="35.45" y="115.18">e</tspan><tspan class="cls-24" x="45.32" y="115.18">ç</tspan><tspan x="54.38" y="115.18">a a </tspan><tspan class="cls-25" x="83.93" y="115.18">e</tspan><tspan class="cls-21" x="93.83" y="115.18">le</tspan><tspan x="107.18" y="115.18">s </tspan><tspan class="cls-6" x="119.23" y="115.18">o</tspan><tspan class="cls-19" x="129.22" y="115.18">p</tspan><tspan class="cls-24" x="139.86" y="115.18">ç</tspan><tspan class="cls-22" x="148.91" y="115.18">õ</tspan><tspan class="cls-4" x="158.81" y="115.18">e</tspan><tspan x="168.8" y="115.18">s </tspan><tspan class="cls-21" x="180.85" y="115.18">d</tspan><tspan x="191.62" y="115.18">e </tspan><tspan class="cls-25" x="205.99" y="115.18">p</tspan><tspan class="cls-21" x="216.66" y="115.18">l</tspan><tspan x="220.01" y="115.18">a</tspan><tspan class="cls-22" x="230.47" y="115.18">n</tspan><tspan class="cls-4" x="239.94" y="115.18">o</tspan><tspan class="cls-14" x="249.96" y="115.18">s </tspan></tspan><tspan class="cls-26"><tspan class="cls-21" x="0" y="136.78">d</tspan><tspan x="10.76" y="136.78">e </tspan><tspan class="cls-21" x="25.14" y="136.78">s</tspan><tspan x="32.8" y="136.78">a</tspan><tspan class="cls-4" x="43.26" y="136.78">úd</tspan><tspan x="63.25" y="136.78">e e </tspan><tspan class="cls-22" x="92" y="136.78">o</tspan><tspan class="cls-4" x="101.9" y="136.78">d</tspan><tspan class="cls-6" x="112.66" y="136.78">o</tspan><tspan x="122.65" y="136.78">n</tspan><tspan class="cls-15" x="132.3" y="136.78">t</tspan><tspan class="cls-25" x="138.27" y="136.78">o</tspan><tspan class="cls-21" x="148.19" y="136.78">l</tspan><tspan class="cls-19" x="151.55" y="136.78">ó</tspan><tspan class="cls-6" x="161.45" y="136.78">gi</tspan><tspan class="cls-24" x="175.26" y="136.78">c</tspan><tspan class="cls-22" x="184.32" y="136.78">o</tspan><tspan x="194.22" y="136.78">.</tspan></tspan></text>
</svg>