<?xml version="1.0" encoding="UTF-8"?>
<svg id="Layer_1" data-name="Layer 1" xmlns="http://www.w3.org/2000/svg" viewBox="0 0 366.28 305.38">
  <defs>
    <style>
      .cls-1 {
        letter-spacing: -.01em;
      }

      .cls-2 {
        letter-spacing: 0em;
      }

      .cls-3 {
        letter-spacing: 0em;
      }

      .cls-4 {
        letter-spacing: 0em;
      }

      .cls-5 {
        letter-spacing: 0em;
      }

      .cls-6 {
        fill: #fff;
      }

      .cls-7 {
        letter-spacing: 0em;
      }

      .cls-8 {
        letter-spacing: -.03em;
      }

      .cls-9 {
        font-family: UrbanistRoman-Bold, Urbanist;
        font-size: 23.99px;
        font-variation-settings: 'wght' 700;
        font-weight: 700;
      }

      .cls-10 {
        letter-spacing: -.03em;
      }

      .cls-11 {
        letter-spacing: -.04em;
      }

      .cls-12 {
        letter-spacing: -.02em;
      }

      .cls-13 {
        letter-spacing: -.01em;
      }

      .cls-14 {
        letter-spacing: 0em;
      }

      .cls-15 {
        letter-spacing: -.02em;
      }

      .cls-16 {
        letter-spacing: -.05em;
      }

      .cls-17 {
        letter-spacing: -.04em;
      }

      .cls-18 {
        letter-spacing: 0em;
      }

      .cls-19 {
        letter-spacing: -.01em;
      }

      .cls-20 {
        letter-spacing: -.04em;
      }

      .cls-21 {
        letter-spacing: 0em;
      }

      .cls-22 {
        letter-spacing: 0em;
      }

      .cls-23 {
        letter-spacing: 0em;
      }

      .cls-24 {
        font-family: Urbanist-Regular, Urbanist;
        font-size: 18px;
        font-variation-settings: 'wght' 400;
      }

      .cls-25 {
        fill: #130044;
      }
    </style>
  </defs>
  <rect class="cls-25" x="0" y="0" width="366.28" height="305.38" rx="29.13" ry="29.13"/>
  <g>
    <path class="cls-6" d="M56.92,65.18c.3-.29.3-.77,0-1.06-.29-.3-.77-.3-1.06,0l-5.1,5-5.1-5c-.3-.29-.77-.29-1.06,0s-.29.77,0,1.06l5.4,5.3v6.24h-9.44v-8.72c0-1.7.87-3.23,2.32-4.12.36-.22.47-.68.25-1.03-.22-.36-.68-.47-1.03-.25-1.91,1.16-3.04,3.18-3.04,5.4v9.48c0,.42.34.75.75.75h16.15c.42,0,.75-.34.75-.75s-.34-.75-.75-.75h-4.45v-6.24l5.4-5.3Z"/>
    <path class="cls-6" d="M59.43,62.6c-.36-.22-.82-.1-1.03.25-.22.36-.1.82.25,1.03,1.45.88,2.32,2.42,2.32,4.12v8.72h-2.48c-.42,0-.75.34-.75.75s.34.75.75.75h3.23c.42,0,.75-.34.75-.75v-9.48c0-2.23-1.14-4.25-3.04-5.4Z"/>
    <path class="cls-6" d="M46.3,50.69c-.42,0-.75.34-.75.75v1.2c0,.42.34.75.75.75s.75-.34.75-.75v-1.2c0-.42-.34-.75-.75-.75Z"/>
    <path class="cls-6" d="M57.5,48.55c-1.24-1.24-3.27-1.24-4.51,0-.29.29-.29.77,0,1.06.29.29.77.29,1.06,0,.66-.66,1.72-.66,2.38,0,.15.15.34.22.53.22s.39-.07.53-.22c.29-.29.29-.77,0-1.06Z"/>
    <path class="cls-6" d="M55.24,50.69c-.42,0-.75.34-.75.75v1.2c0,.42.34.75.75.75s.75-.34.75-.75v-1.2c0-.42-.34-.75-.75-.75Z"/>
    <path class="cls-6" d="M67.2,54.37c-.39-.07-.76.17-.86.55-.11.43-.5.73-.94.73-.24,0-.48-.09-.66-.26-.18-.16-.29-.39-.31-.63l-.75-8.14c-.28-3.09-1.65-5.95-3.87-8.11l1.42-3.58c.15-.39-.04-.82-.42-.98-6.47-2.56-13.6-2.56-20.08,0-.19.07-.33.22-.41.4-.08.18-.08.39,0,.58l1.42,3.58c-2.22,2.16-3.59,5.02-3.87,8.11l-.75,8.14c-.05.5-.46.88-.97.88-.22,0-.42-.07-.6-.2-.17-.13-.29-.32-.35-.53-.1-.38-.47-.62-.86-.55-.39.07-.66.42-.62.81.01.17.39,4.18,3.28,6.04.94.61,2.02.91,3.23.91.9,0,1.86-.17,2.9-.5l1.21.88s.03.03.05.04l2.54,1.85c1.15.83,2.49,1.25,3.83,1.25s2.69-.42,3.83-1.25l2.55-1.85s.03-.02.04-.03l1.22-.89c1.04.33,2,.5,2.9.5,1.21,0,2.29-.3,3.23-.91,2.89-1.86,3.26-5.87,3.28-6.04.03-.39-.24-.74-.62-.81ZM59.55,35.09l-2.3,5.8c-4.21-1.48-8.76-1.48-12.97,0l-2.3-5.8c5.69-2.07,11.87-2.07,17.56,0ZM43.71,60.19s0,0,0,0h0c-1.95-1.42-3.02-3.8-2.79-6.2l.05-.54,2.74,1.65c0,1.74.08,3.5.22,5.25l-.21-.15ZM53.72,63.18c-1.76,1.28-4.13,1.28-5.89,0l-.19-.14c1.04.09,2.09.13,3.13.13s2.09-.05,3.13-.14l-.19.14ZM56.03,61.28c-3.49.53-7.02.53-10.52,0-.18-1.89-.28-3.8-.3-5.68,3.66.69,7.46.69,11.12,0-.02,1.89-.12,3.79-.3,5.68ZM56.81,53.96c-1.78.39-3.6.6-5.42.64.09-.12.14-.27.14-.43v-2.21c0-.42-.34-.75-.75-.75s-.75.34-.75.75v2.21c0,.16.05.31.14.43-1.83-.04-3.65-.25-5.42-.64l-3.61-2.18.08-.88c.15,0,.29,0,.43,0,4.28,0,7.4-1.46,9.32-2.74,1.37-.91,2.31-1.85,2.86-2.47.37.35.89.78,1.53,1.15,1.51.87,3.09,1.11,4.65.7l.41,4.24-3.61,2.18ZM57.84,60.19l-.22.16c.14-1.75.21-3.51.22-5.25l2.74-1.65.05.54c.23,2.4-.84,4.78-2.79,6.2ZM63.72,59.96c-1.03.66-2.34.83-3.9.49,1.68-1.74,2.55-4.16,2.31-6.61l-.71-7.4c-.02-.24-.16-.46-.37-.58-.21-.12-.46-.14-.69-.04-3.37,1.49-5.88-1.6-5.98-1.74-.15-.19-.38-.3-.62-.29-.24,0-.46.13-.6.32-.04.06-4.07,5.75-12.59,5.24-.41-.03-.76.28-.79.68l-.37,3.79c-.24,2.45.63,4.87,2.31,6.61-1.56.33-2.87.17-3.9-.49-1.08-.69-1.72-1.83-2.09-2.83.14.02.27.04.41.04,1.29,0,2.35-.97,2.47-2.25l.75-8.14c.23-2.52,1.28-4.87,2.98-6.71l.82,2.08c.12.3.4.48.7.48.09,0,.19-.02.28-.05,4.28-1.69,8.99-1.69,13.27,0,.19.07.39.07.58,0,.18-.08.33-.23.4-.41l.82-2.08c1.7,1.84,2.75,4.19,2.98,6.71l.75,8.14c.06.62.34,1.19.8,1.6.46.42,1.05.65,1.67.65.14,0,.28-.01.41-.03-.38,1.01-1.02,2.14-2.09,2.83Z"/>
    <path class="cls-6" d="M52.33,35.93h-.8v-.8c0-.42-.34-.75-.75-.75s-.75.34-.75.75v.8h-.8c-.42,0-.75.34-.75.75s.34.75.75.75h.8v.8c0,.42.34.75.75.75s.75-.34.75-.75v-.8h.8c.42,0,.75-.34.75-.75s-.34-.75-.75-.75Z"/>
    <path class="cls-6" d="M58.5,70.82h-3.92c-.42,0-.75.34-.75.75s.34.75.75.75h3.92c.42,0,.75-.34.75-.75,0-.42-.34-.75-.75-.75Z"/>
    <path class="cls-6" d="M36.02,49.39h-6.92v-8.18c0-.42-.34-.75-.75-.75s-.75.34-.75.75v8.94c0,.42.34.75.75.75h7.67c.42,0,.75-.34.75-.75s-.34-.75-.75-.75Z"/>
    <path class="cls-6" d="M39.43,35.57h-11.08c-.42,0-.75.34-.75.75v2.37c0,.42.34.75.75.75s.75-.34.75-.75v-1.62h9.57v2.15c0,.42.34.75.75.75s.75-.34.75-.75v-2.91c0-.42-.34-.75-.75-.75Z"/>
    <path class="cls-6" d="M35.34,39.22c-.28,0-.55.05-.81.15-.44.17-.94.17-1.37,0-.26-.1-.53-.15-.81-.15-1.4,0-2.54,1.3-2.54,2.91,0,.52.12,1.03.35,1.48.34.67.58,1.42.72,2.24v.04c.11.62.59,1.07,1.22,1.12.04,0,.08,0,.12,0,.57,0,1.07-.35,1.26-.91.15-.42.27-.68.36-.84.09.16.22.42.36.84.2.59.76.96,1.38.9.62-.05,1.11-.5,1.21-1.12v-.05c.14-.82.38-1.57.72-2.24.23-.45.35-.96.35-1.48,0-1.6-1.14-2.91-2.54-2.91ZM36.19,42.92c-.34.66-.59,1.38-.76,2.15-.32-.74-.8-1.49-1.58-1.49s-1.26.74-1.58,1.49c-.17-.77-.42-1.49-.76-2.15-.12-.23-.18-.51-.18-.79,0-.76.47-1.4,1.03-1.4.09,0,.18.02.27.05.79.3,1.66.3,2.45,0,.09-.03.18-.05.27-.05.56,0,1.03.64,1.03,1.4,0,.28-.06.56-.18.79Z"/>
    <path class="cls-6" d="M70.67,64.43h-1.2v-1.03c0-.42-.34-.75-.75-.75h-3.56c-.42,0-.75.34-.75.75v13.33h-.25c-.42,0-.75.34-.75.75s.34.75.75.75h1c.42,0,.75-.34.75-.75v-1.98h.07c1.18,0,2.14-.96,2.14-2.14v-5.64h.6c.42,0,.75-.34.75-.75v-1.03h1.2c.42,0,.75-.34.75-.75s-.34-.75-.75-.75ZM66.6,73.36c0,.35-.28.63-.63.63h-.07v-6.28h.7v5.64h0ZM67.96,66.21h-2.06v-2.06h2.06v2.06h0Z"/>
    <path class="cls-6" d="M37.64,72.49h-6.53c-.91,0-1.65-.74-1.65-1.65,0-.36.3-.66.66-.66h7.53c.42,0,.75-.34.75-.75s-.34-.75-.75-.75h-7.53c-1.19,0-2.16.97-2.16,2.16,0,1.74,1.42,3.16,3.16,3.16h6.53c.42,0,.75-.34.75-.75s-.34-.75-.75-.75Z"/>
  </g>
  <text class="cls-6" transform="translate(27.59 119.7)"><tspan class="cls-9"><tspan class="cls-15" x="0" y="0">C</tspan><tspan class="cls-3" x="16.55" y="0">i</tspan><tspan class="cls-14" x="22.26" y="0">r</tspan><tspan x="31.25" y="0">u</tspan><tspan class="cls-11" x="44.16" y="0">r</tspan><tspan class="cls-1" x="52.5" y="0">gi</tspan><tspan x="72.45" y="0">a (</tspan><tspan class="cls-16" x="101.67" y="0">e</tspan><tspan x="113.82" y="0">xt</tspan><tspan class="cls-17" x="136.71" y="0">r</tspan><tspan class="cls-14" x="145.05" y="0">a</tspan><tspan class="cls-12" x="159.17" y="0">ç</tspan><tspan class="cls-14" x="171.04" y="0">õ</tspan><tspan class="cls-2" x="184.23" y="0">e</tspan><tspan x="197.47" y="0">s)</tspan></tspan><tspan class="cls-24"><tspan class="cls-20" x="0" y="43.2">P</tspan><tspan x="8.68" y="43.2">a</tspan><tspan class="cls-8" x="19.13" y="43.2">r</tspan><tspan x="24.97" y="43.2">a t</tspan><tspan class="cls-8" x="45.95" y="43.2">r</tspan><tspan x="51.79" y="43.2">a</tspan><tspan class="cls-19" x="62.24" y="43.2">t</tspan><tspan x="68.21" y="43.2">a</tspan><tspan class="cls-18" x="78.67" y="43.2">m</tspan><tspan class="cls-5" x="94.48" y="43.2">e</tspan><tspan x="104.45" y="43.2">n</tspan><tspan class="cls-13" x="114.09" y="43.2">t</tspan><tspan class="cls-21" x="120.06" y="43.2">o</tspan><tspan class="cls-23" x="130.08" y="43.2">s d</tspan><tspan class="cls-4" x="152.96" y="43.2">i</tspan><tspan class="cls-10" x="156.26" y="43.2">v</tspan><tspan class="cls-5" x="165.03" y="43.2">e</tspan><tspan class="cls-22" x="175" y="43.2">r</tspan><tspan class="cls-21" x="181.31" y="43.2">so</tspan><tspan class="cls-7" x="199" y="43.2">s</tspan><tspan x="206.7" y="43.2">.</tspan></tspan></text>
</svg>