<?xml version="1.0" encoding="UTF-8"?>
<svg id="Layer_1" data-name="Layer 1" xmlns="http://www.w3.org/2000/svg" viewBox="0 0 366.28 305.38">
  <defs>
    <style>
      .cls-1 {
        letter-spacing: 0em;
      }

      .cls-2 {
        letter-spacing: -.01em;
      }

      .cls-3 {
        font-family: UrbanistRoman-Bold, Urbanist;
        font-size: 23.99px;
        font-variation-settings: 'wght' 700;
        font-weight: 700;
      }

      .cls-3, .cls-4 {
        fill: #130044;
      }

      .cls-5 {
        letter-spacing: -.04em;
      }

      .cls-6 {
        letter-spacing: -.02em;
      }

      .cls-7 {
        letter-spacing: -.02em;
      }
    </style>
  </defs>
  <path class="cls-4" d="M337.15,8.99c11.1,0,20.13,9.03,20.13,20.14v247.12c0,11.1-9.03,20.14-20.13,20.14H29.13c-11.1,0-20.13-9.03-20.13-20.14V29.13c0-11.1,9.03-20.14,20.13-20.14h308.02M337.15,0H29.13C13.11,0,0,13.11,0,29.13v247.12c0,16.02,13.11,29.13,29.13,29.13h308.02c16.02,0,29.13-13.11,29.13-29.13V29.13C366.28,13.11,353.18,0,337.15,0h0Z"/>
  <text class="cls-3" transform="translate(27.59 274.19)"><tspan class="cls-6" x="0" y="0">Q</tspan><tspan class="cls-1" x="18.49" y="0">u</tspan><tspan class="cls-7" x="31.22" y="0">e</tspan><tspan class="cls-2" x="44.18" y="0">b</tspan><tspan class="cls-5" x="58.78" y="0">r</tspan><tspan x="67.12" y="0">a</tspan></text>
  <polygon class="cls-4" points="338.69 262.6 330.04 262.6 330.04 253.95 324.38 253.95 324.38 262.6 315.73 262.6 315.73 268.27 324.38 268.27 324.38 276.92 330.04 276.92 330.04 268.27 338.69 268.27 338.69 262.6"/>
  <g>
    <path class="cls-4" d="M57,61.45v-19.84c0-.14-.03-.28-.09-.41l-.97-2.14v-4.18c0-1.57-1.27-2.84-2.84-2.84h-22.68c-1.56,0-2.84,1.27-2.84,2.84v40.51c0,1.57,1.27,2.84,2.84,2.84h22.68s.09,0,.13,0h3.39c1.15,0,2.08-.93,2.08-2.08v-12.65c0-1.02-.74-1.87-1.7-2.05ZM51.22,76.27h-20.8c-.23,0-.45-.09-.61-.26-.17-.17-.26-.39-.26-.62v-40.51c0-.48.39-.88.87-.88h5.38c.43,1.49,1.79,2.54,3.38,2.54h5.51c1.59,0,2.95-1.04,3.38-2.54h5.03c.48,0,.87.39.87.88v4.19l-.97,2.14c-.06.13-.09.26-.09.4v19.84c-.97.18-1.7,1.03-1.7,2.05v12.65s0,.08,0,.12ZM54.89,61.41v-19.6l.08-.17.08.17v19.6h-.16ZM53.31,63.38h3.32c.07,0,.12.05.12.12v.61h-3.56v-.61c0-.07.06-.12.12-.12ZM56.74,66.07v.17h-3.56v-.17h3.56ZM54.88,71.44v-3.23h.17v3.23h-.17ZM56.74,73.4v.17h-3.56v-.17h3.56ZM44.7,34.58h-5.51c-.48,0-.92-.22-1.21-.57h7.93c-.29.35-.73.57-1.21.57ZM53.18,75.54h3.55l-.02.69s-.04.04-.09.04h-3.32c-.07,0-.12-.06-.12-.12v-.61Z"/>
    <path class="cls-4" d="M49.82,54.22c-.24-.1-.51-.09-.75,0l-3.62,1.55-4.3-1.19,2.66-3.38c.13-.16.2-.35.21-.56l.16-3.22,4.56-3.3c.44-.32.53-.93.22-1.37-.32-.44-.93-.53-1.37-.22l-2.22,1.61-1.23-2.59,1.2-2.4c.24-.48.04-1.07-.44-1.32-.24-.12-.5-.14-.75-.05-.25.08-.45.26-.57.49l-1.41,2.83c-.14.27-.14.59,0,.86l1.59,3.35-1.1.8c-.24.18-.39.45-.4.74l-.17,3.38-2.09,2.65-1.48-6.87c-.08-.35-.33-.63-.68-.73l-2.47-.75-1.24-2.97c-.1-.24-.29-.43-.53-.53-.24-.1-.51-.1-.75,0-.24.1-.43.29-.53.53-.1.24-.1.51,0,.75l1.41,3.4c.11.27.34.48.62.56l2.36.71.56,2.63h-4.12c-.28,0-.55.12-.73.33l-2.34,2.63c-.17.2-.26.45-.25.71.02.26.13.5.33.67.39.35,1.04.31,1.39-.08l2.04-2.3h4.1l.72,3.36-2.25,3.52-1.35-1.93c-.17-.24-.43-.39-.72-.42-.27-.03-.57.08-.77.27l-2.58,2.5c-.19.18-.3.43-.3.69s.09.51.28.7c.18.19.43.3.69.3.25.01.51-.09.7-.28l1.75-1.7,1.18,1.69-2.01,3.58c-.08.15-.12.31-.12.48v3.87c0,.54.44.98.98.98s.98-.44.98-.98v-3.62l2.17-3.86,2.4-3.77,1.58,2.57-1.26,3.46c-.18.51.08,1.07.59,1.26.51.19,1.08-.09,1.26-.58l.29-.8.16,1.45c0,.11.04.21.08.31l2.3,5.1c.16.35.51.58.89.58.14,0,.28-.03.4-.09.24-.11.42-.3.52-.55.09-.24.09-.51-.02-.75l-2.23-4.96-.41-3.84c-.02-.14-.06-.29-.14-.41l-1.83-2.97,3.65,1.01c.22.06.45.04.64-.04l.4-.17,1.96,2.11c.35.38,1,.4,1.39.05.19-.18.3-.42.31-.68,0-.26-.09-.51-.26-.7l-1.48-1.59,1.62-.69c.24-.1.43-.29.53-.54s.09-.51,0-.75c-.1-.24-.29-.43-.54-.53Z"/>
  </g>
</svg>