<?xml version="1.0" encoding="UTF-8"?>
<svg id="Layer_1" data-name="Layer 1" xmlns="http://www.w3.org/2000/svg" viewBox="0 0 366.28 305.38">
  <defs>
    <style>
      .cls-1 {
        letter-spacing: 0em;
      }

      .cls-2 {
        letter-spacing: 0em;
      }

      .cls-3 {
        letter-spacing: 0em;
      }

      .cls-4 {
        letter-spacing: 0em;
      }

      .cls-5 {
        letter-spacing: -.02em;
      }

      .cls-6 {
        letter-spacing: 0em;
      }

      .cls-7 {
        fill-rule: evenodd;
      }

      .cls-7, .cls-8 {
        fill: #fff;
      }

      .cls-9 {
        letter-spacing: 0em;
      }

      .cls-10 {
        letter-spacing: -.01em;
      }

      .cls-11 {
        font-family: UrbanistRoman-Bold, Urbanist;
        font-variation-settings: 'wght' 700;
        font-weight: 700;
      }

      .cls-12 {
        letter-spacing: 0em;
      }

      .cls-13 {
        letter-spacing: 0em;
      }

      .cls-14 {
        letter-spacing: 0em;
      }

      .cls-15 {
        letter-spacing: 0em;
      }

      .cls-16 {
        letter-spacing: -.03em;
      }

      .cls-17 {
        letter-spacing: 0em;
      }

      .cls-8 {
        font-size: 16px;
      }

      .cls-18 {
        letter-spacing: -.03em;
      }

      .cls-19 {
        letter-spacing: -.01em;
      }

      .cls-20 {
        letter-spacing: -.03em;
      }

      .cls-21 {
        letter-spacing: -.02em;
      }

      .cls-22 {
        letter-spacing: 0em;
      }

      .cls-23 {
        letter-spacing: 0em;
      }

      .cls-24 {
        letter-spacing: 0em;
      }

      .cls-25 {
        letter-spacing: -.01em;
      }

      .cls-26 {
        letter-spacing: -.01em;
      }

      .cls-27 {
        letter-spacing: 0em;
      }

      .cls-28 {
        font-family: Urbanist-Regular, Urbanist;
        font-variation-settings: 'wght' 400;
      }

      .cls-29 {
        letter-spacing: 0em;
      }

      .cls-30 {
        fill: #130044;
      }
    </style>
  </defs>
  <rect class="cls-30" x="0" y="0" width="366.28" height="305.38" rx="29.13" ry="29.13"/>
  <path class="cls-7" d="M44.94,32.11c.92.25,1.55,1.08,1.55,2.03v14.7h12.6c.75,0,1.45.4,1.82,1.05.37.65.37,1.45,0,2.1l-14.7,25.2c-.48.82-1.45,1.22-2.36.97-.92-.25-1.55-1.08-1.55-2.03v-14.7h-12.6c-.75,0-1.45-.4-1.82-1.05-.37-.65-.37-1.45,0-2.1l14.7-25.2c.48-.82,1.45-1.22,2.36-.97ZM33.35,57.23h11.04c1.16,0,2.1.94,2.1,2.1v9.03l8.94-15.33h-11.04c-1.16,0-2.1-.94-2.1-2.1v-9.03l-8.94,15.33Z"/>
  <text class="cls-8" transform="translate(27.59 113.71)"><tspan class="cls-11"><tspan class="cls-5" x="0" y="0">D</tspan><tspan x="10.5" y="0">a</tspan><tspan class="cls-17" x="20.09" y="0">n</tspan><tspan class="cls-23" x="28.86" y="0">o</tspan><tspan x="37.7" y="0">s </tspan><tspan class="cls-21" x="48.49" y="0">e</tspan><tspan class="cls-23" x="57.14" y="0">l</tspan><tspan class="cls-25" x="60.89" y="0">é</tspan><tspan x="69.67" y="0">t</tspan><tspan class="cls-5" x="75.39" y="0">r</tspan><tspan class="cls-10" x="81.3" y="0">i</tspan><tspan class="cls-5" x="84.99" y="0">c</tspan><tspan class="cls-13" x="92.91" y="0">o</tspan><tspan x="101.75" y="0">s</tspan></tspan><tspan class="cls-28"><tspan class="cls-18" x="0" y="38.4">C</tspan><tspan class="cls-2" x="10.78" y="38.4">o</tspan><tspan class="cls-17" x="19.61" y="38.4">b</tspan><tspan class="cls-1" x="29.07" y="38.4">e</tspan><tspan x="37.93" y="38.4">rtu</tspan><tspan class="cls-20" x="57.42" y="38.4">r</tspan><tspan x="62.61" y="38.4">a </tspan><tspan class="cls-17" x="75.74" y="38.4">a</tspan><tspan x="84.88" y="38.4">d</tspan><tspan class="cls-27" x="94.5" y="38.4">i</tspan><tspan class="cls-2" x="97.46" y="38.4">c</tspan><tspan class="cls-27" x="105.48" y="38.4">io</tspan><tspan class="cls-26" x="117.32" y="38.4">n</tspan><tspan class="cls-12" x="125.73" y="38.4">a</tspan><tspan x="135.13" y="38.4">l, </tspan><tspan class="cls-1" x="145.23" y="38.4">g</tspan><tspan x="154.55" y="38.4">a</tspan><tspan class="cls-16" x="163.85" y="38.4">r</tspan><tspan x="169.03" y="38.4">an</tspan><tspan class="cls-19" x="186.9" y="38.4">t</tspan><tspan x="192.21" y="38.4">e </tspan><tspan class="cls-6" x="204.98" y="38.4">d</tspan><tspan x="214.55" y="38.4">a</tspan><tspan class="cls-26" x="223.85" y="38.4">n</tspan><tspan class="cls-6" x="232.26" y="38.4">o</tspan><tspan x="241.17" y="38.4">s </tspan><tspan class="cls-1" x="251.88" y="38.4">e</tspan><tspan x="260.73" y="38.4">m </tspan></tspan><tspan class="cls-28"><tspan x="0" y="57.6">a</tspan><tspan class="cls-26" x="9.3" y="57.6">p</tspan><tspan x="18.75" y="57.6">a</tspan><tspan class="cls-16" x="28.05" y="57.6">r</tspan><tspan class="cls-2" x="33.23" y="57.6">e</tspan><tspan x="42.03" y="57.6">l</tspan><tspan class="cls-17" x="45.07" y="57.6">h</tspan><tspan class="cls-9" x="53.49" y="57.6">o</tspan><tspan class="cls-22" x="62.39" y="57.6">s</tspan><tspan x="69.24" y="57.6">, </tspan><tspan class="cls-3" x="76.3" y="57.6">i</tspan><tspan x="79.31" y="57.6">ns</tspan><tspan class="cls-19" x="94.76" y="57.6">t</tspan><tspan class="cls-12" x="100.06" y="57.6">a</tspan><tspan class="cls-9" x="109.46" y="57.6">l</tspan><tspan class="cls-17" x="112.45" y="57.6">a</tspan><tspan class="cls-4" x="121.58" y="57.6">ç</tspan><tspan class="cls-26" x="129.63" y="57.6">õ</tspan><tspan class="cls-9" x="138.43" y="57.6">e</tspan><tspan x="147.31" y="57.6">s </tspan><tspan class="cls-15" x="158.02" y="57.6">e</tspan><tspan class="cls-6" x="166.82" y="57.6">l</tspan><tspan class="cls-19" x="169.81" y="57.6">é</tspan><tspan x="178.53" y="57.6">t</tspan><tspan class="cls-24" x="184.05" y="57.6">r</tspan><tspan class="cls-27" x="189.66" y="57.6">i</tspan><tspan class="cls-24" x="192.62" y="57.6">c</tspan><tspan x="200.67" y="57.6">as e </tspan></tspan><tspan class="cls-28"><tspan class="cls-15" x="0" y="76.8">e</tspan><tspan class="cls-9" x="8.8" y="76.8">l</tspan><tspan class="cls-19" x="11.78" y="76.8">e</tspan><tspan x="20.5" y="76.8">t</tspan><tspan class="cls-16" x="26.02" y="76.8">r</tspan><tspan class="cls-1" x="31.21" y="76.8">ô</tspan><tspan x="40.09" y="76.8">n</tspan><tspan class="cls-1" x="48.66" y="76.8">i</tspan><tspan class="cls-4" x="51.62" y="76.8">c</tspan><tspan x="59.67" y="76.8">as </tspan><tspan class="cls-6" x="79.68" y="76.8">d</tspan><tspan x="89.25" y="76.8">o </tspan><tspan class="cls-24" x="102.05" y="76.8">c</tspan><tspan class="cls-1" x="110.09" y="76.8">o</tspan><tspan class="cls-17" x="118.97" y="76.8">n</tspan><tspan class="cls-6" x="127.39" y="76.8">d</tspan><tspan class="cls-1" x="136.96" y="76.8">o</tspan><tspan x="145.84" y="76.8">m</tspan><tspan class="cls-14" x="160.05" y="76.8">í</tspan><tspan x="163.07" y="76.8">n</tspan><tspan class="cls-27" x="171.65" y="76.8">i</tspan><tspan class="cls-26" x="174.61" y="76.8">o</tspan><tspan x="183.41" y="76.8">, </tspan><tspan class="cls-24" x="190.46" y="76.8">c</tspan><tspan x="198.51" y="76.8">au</tspan><tspan class="cls-6" x="216.06" y="76.8">s</tspan><tspan class="cls-17" x="222.88" y="76.8">a</tspan><tspan class="cls-9" x="232.01" y="76.8">d</tspan><tspan x="241.58" y="76.8">as </tspan></tspan><tspan class="cls-28"><tspan class="cls-26" x="0" y="96">p</tspan><tspan class="cls-27" x="9.46" y="96">o</tspan><tspan x="18.34" y="96">r </tspan><tspan class="cls-1" x="27.9" y="96">c</tspan><tspan x="35.97" y="96">ur</tspan><tspan class="cls-19" x="49.94" y="96">t</tspan><tspan x="55.25" y="96">o </tspan><tspan class="cls-2" x="68.05" y="96">c</tspan><tspan class="cls-14" x="76.06" y="96">i</tspan><tspan class="cls-20" x="79.08" y="96">r</tspan><tspan class="cls-27" x="84.26" y="96">c</tspan><tspan x="92.33" y="96">ui</tspan><tspan class="cls-19" x="103.63" y="96">t</tspan><tspan x="108.93" y="96">o </tspan><tspan class="cls-17" x="121.73" y="96">o</tspan><tspan x="130.53" y="96">u </tspan><tspan class="cls-9" x="142.63" y="96">os</tspan><tspan class="cls-15" x="158.35" y="96">c</tspan><tspan class="cls-29" x="166.37" y="96">i</tspan><tspan class="cls-6" x="169.46" y="96">l</tspan><tspan class="cls-26" x="172.45" y="96">a</tspan><tspan class="cls-4" x="181.58" y="96">ç</tspan><tspan class="cls-17" x="189.63" y="96">ã</tspan><tspan x="198.77" y="96">o </tspan><tspan class="cls-9" x="211.57" y="96">d</tspan><tspan x="221.13" y="96">e </tspan></tspan><tspan class="cls-28"><tspan class="cls-1" x="0" y="115.2">e</tspan><tspan class="cls-17" x="8.86" y="115.2">n</tspan><tspan class="cls-27" x="17.27" y="115.2">e</tspan><tspan class="cls-20" x="26.13" y="115.2">r</tspan><tspan class="cls-27" x="31.31" y="115.2">gi</tspan><tspan x="43.59" y="115.2">a..</tspan></tspan></text>
</svg>