<?xml version="1.0" encoding="UTF-8"?>
<svg id="Layer_1" data-name="Layer 1" xmlns="http://www.w3.org/2000/svg" viewBox="0 0 366.28 305.38">
  <defs>
    <style>
      .cls-1 {
        letter-spacing: -.01em;
      }

      .cls-2 {
        letter-spacing: 0em;
      }

      .cls-3 {
        letter-spacing: 0em;
      }

      .cls-4 {
        letter-spacing: -.05em;
      }

      .cls-5 {
        fill: #fff;
      }

      .cls-6 {
        letter-spacing: -.01em;
      }

      .cls-7 {
        letter-spacing: 0em;
      }

      .cls-8 {
        letter-spacing: -.03em;
      }

      .cls-9 {
        letter-spacing: 0em;
      }

      .cls-10 {
        letter-spacing: 0em;
      }

      .cls-11 {
        letter-spacing: -.03em;
      }

      .cls-12 {
        letter-spacing: -.04em;
      }

      .cls-13 {
        letter-spacing: -.02em;
      }

      .cls-14 {
        font-family: UrbanistRoman-Bold, Urbanist;
        font-size: 19px;
        font-variation-settings: 'wght' 700;
        font-weight: 700;
      }

      .cls-15 {
        letter-spacing: 0em;
      }

      .cls-16 {
        letter-spacing: -.02em;
      }

      .cls-17 {
        letter-spacing: 0em;
      }

      .cls-18 {
        letter-spacing: 0em;
      }

      .cls-19 {
        letter-spacing: -.01em;
      }

      .cls-20 {
        letter-spacing: 0em;
      }

      .cls-21 {
        letter-spacing: 0em;
      }

      .cls-22 {
        letter-spacing: -.01em;
      }

      .cls-23 {
        letter-spacing: 0em;
      }

      .cls-24 {
        letter-spacing: 0em;
      }

      .cls-25 {
        font-family: Urbanist-Regular, Urbanist;
        font-size: 18px;
        font-variation-settings: 'wght' 400;
      }

      .cls-26 {
        letter-spacing: -.01em;
      }

      .cls-27 {
        fill: #130044;
      }
    </style>
  </defs>
  <rect class="cls-27" x="0" width="366.28" height="305.38" rx="29.13" ry="29.13"/>
  <path class="cls-5" d="M44.42,48.25c2.36-1.59,3.91-4.29,3.91-7.35,0-4.89-3.97-8.86-8.86-8.86s-8.86,3.97-8.86,8.86c0,3.06,1.55,5.76,3.91,7.35-4.09,1.88-6.93,6.01-6.93,10.8v13.36h0v2.99c3.57,1.8,7.6,2.83,11.88,2.83s8.31-1.02,11.88-2.83v-16.36c0-4.79-2.84-8.92-6.93-10.8ZM33.25,40.9c0-3.44,2.79-6.22,6.22-6.22s6.22,2.79,6.22,6.22-2.79,6.22-6.22,6.22-6.22-2.79-6.22-6.22ZM48.71,73.73c-2.84,1.2-5.96,1.86-9.24,1.86s-6.4-.66-9.24-1.86v-14.68c0-5.1,4.14-9.24,9.24-9.24s9.24,4.14,9.24,9.24v14.68Z"/>
  <text class="cls-5" transform="translate(27.59 115.96)"><tspan class="cls-14"><tspan class="cls-4" x="0" y="0">M</tspan><tspan class="cls-26" x="16.76" y="0">o</tspan><tspan x="27.18" y="0">r</tspan><tspan class="cls-6" x="34.5" y="0">t</tspan><tspan x="41.09" y="0">e (</tspan><tspan class="cls-9" x="63.48" y="0">n</tspan><tspan x="73.89" y="0">atu</tspan><tspan class="cls-12" x="102.3" y="0">r</tspan><tspan class="cls-20" x="108.9" y="0">a</tspan><tspan x="120.33" y="0">l </tspan><tspan class="cls-16" x="129.48" y="0">o</tspan><tspan x="139.69" y="0">u </tspan><tspan class="cls-9" x="154.47" y="0">a</tspan><tspan class="cls-13" x="165.66" y="0">c</tspan><tspan class="cls-26" x="174.99" y="0">i</tspan><tspan class="cls-10" x="179.37" y="0">d</tspan><tspan class="cls-26" x="191.01" y="0">e</tspan><tspan x="201.42" y="0">n</tspan><tspan class="cls-6" x="212.02" y="0">t</tspan><tspan class="cls-18" x="218.61" y="0">a</tspan><tspan x="230.04" y="0">l)</tspan></tspan><tspan class="cls-25"><tspan class="cls-23" x="0" y="43.2">G</tspan><tspan x="13.71" y="43.2">a</tspan><tspan class="cls-8" x="24.17" y="43.2">r</tspan><tspan x="30" y="43.2">an</tspan><tspan class="cls-19" x="50.1" y="43.2">t</tspan><tspan x="56.07" y="43.2">e </tspan><tspan class="cls-7" x="70.44" y="43.2">i</tspan><tspan class="cls-22" x="73.84" y="43.2">n</tspan><tspan class="cls-2" x="83.3" y="43.2">d</tspan><tspan class="cls-3" x="94.07" y="43.2">e</tspan><tspan x="104.03" y="43.2">ni</tspan><tspan class="cls-3" x="117.1" y="43.2">z</tspan><tspan class="cls-22" x="126.13" y="43.2">a</tspan><tspan class="cls-23" x="136.41" y="43.2">ç</tspan><tspan class="cls-15" x="145.47" y="43.2">ã</tspan><tspan x="155.75" y="43.2">o </tspan><tspan class="cls-22" x="170.15" y="43.2">p</tspan><tspan x="180.78" y="43.2">a</tspan><tspan class="cls-11" x="191.24" y="43.2">r</tspan><tspan x="197.07" y="43.2">a a </tspan></tspan><tspan class="cls-25"><tspan class="cls-1" x="0" y="64.8">f</tspan><tspan x="5.8" y="64.8">am</tspan><tspan class="cls-17" x="32.25" y="64.8">í</tspan><tspan x="35.73" y="64.8">l</tspan><tspan class="cls-3" x="39.15" y="64.8">i</tspan><tspan x="42.48" y="64.8">a </tspan><tspan class="cls-15" x="57.26" y="64.8">o</tspan><tspan x="67.16" y="64.8">u </tspan><tspan class="cls-21" x="80.77" y="64.8">d</tspan><tspan class="cls-3" x="91.53" y="64.8">e</tspan><tspan class="cls-15" x="101.49" y="64.8">m</tspan><tspan x="117.31" y="64.8">a</tspan><tspan class="cls-21" x="127.76" y="64.8">i</tspan><tspan x="131.12" y="64.8">s </tspan><tspan class="cls-22" x="143.17" y="64.8">b</tspan><tspan class="cls-3" x="153.82" y="64.8">e</tspan><tspan class="cls-15" x="163.78" y="64.8">n</tspan><tspan x="173.25" y="64.8">e</tspan><tspan class="cls-21" x="183.3" y="64.8">f</tspan><tspan class="cls-3" x="189.24" y="64.8">i</tspan><tspan class="cls-24" x="192.57" y="64.8">c</tspan><tspan class="cls-3" x="201.59" y="64.8">i</tspan><tspan x="204.92" y="64.8">á</tspan><tspan class="cls-23" x="215.38" y="64.8">r</tspan><tspan class="cls-3" x="221.7" y="64.8">i</tspan><tspan class="cls-21" x="225.03" y="64.8">o</tspan><tspan x="235.04" y="64.8">s </tspan><tspan class="cls-3" x="247.09" y="64.8">e</tspan><tspan x="257.06" y="64.8">m </tspan></tspan><tspan class="cls-25"><tspan class="cls-23" x="0" y="86.4">c</tspan><tspan x="9.05" y="86.4">a</tspan><tspan class="cls-21" x="19.51" y="86.4">s</tspan><tspan x="27.18" y="86.4">o </tspan><tspan class="cls-21" x="41.58" y="86.4">d</tspan><tspan x="52.34" y="86.4">e </tspan><tspan class="cls-15" x="66.72" y="86.4">m</tspan><tspan class="cls-3" x="82.53" y="86.4">o</tspan><tspan x="92.52" y="86.4">r</tspan><tspan class="cls-19" x="98.95" y="86.4">t</tspan><tspan x="104.92" y="86.4">e </tspan><tspan class="cls-21" x="119.29" y="86.4">d</tspan><tspan x="130.06" y="86.4">o </tspan><tspan class="cls-21" x="144.46" y="86.4">s</tspan><tspan class="cls-15" x="152.13" y="86.4">e</tspan><tspan class="cls-23" x="162" y="86.4">g</tspan><tspan x="172.46" y="86.4">u</tspan><tspan class="cls-8" x="181.74" y="86.4">r</tspan><tspan class="cls-22" x="187.58" y="86.4">a</tspan><tspan class="cls-2" x="197.85" y="86.4">d</tspan><tspan class="cls-22" x="208.62" y="86.4">o</tspan><tspan x="218.52" y="86.4">.</tspan></tspan></text>
</svg>