<?xml version="1.0" encoding="UTF-8"?>
<svg id="Layer_1" data-name="Layer 1" xmlns="http://www.w3.org/2000/svg" viewBox="0 0 366.28 305.38">
  <defs>
    <style>
      .cls-1 {
        letter-spacing: 0em;
      }

      .cls-2 {
        letter-spacing: 0em;
      }

      .cls-3 {
        letter-spacing: 0em;
      }

      .cls-4 {
        letter-spacing: 0em;
      }

      .cls-5 {
        letter-spacing: -.04em;
      }

      .cls-6 {
        letter-spacing: 0em;
      }

      .cls-7 {
        fill: #fff;
      }

      .cls-8 {
        letter-spacing: -.01em;
      }

      .cls-9 {
        letter-spacing: 0em;
      }

      .cls-10 {
        font-family: UrbanistRoman-Bold, Urbanist;
        font-size: 20px;
        font-variation-settings: 'wght' 700;
        font-weight: 700;
      }

      .cls-11 {
        letter-spacing: -.03em;
      }

      .cls-12 {
        letter-spacing: -.04em;
      }

      .cls-13 {
        letter-spacing: -.03em;
      }

      .cls-14 {
        letter-spacing: -.01em;
      }

      .cls-15 {
        letter-spacing: 0em;
      }

      .cls-16 {
        letter-spacing: 0em;
      }

      .cls-17 {
        letter-spacing: -.01em;
      }

      .cls-18 {
        letter-spacing: -.01em;
      }

      .cls-19 {
        letter-spacing: -.05em;
      }

      .cls-20 {
        letter-spacing: 0em;
      }

      .cls-21 {
        letter-spacing: 0em;
      }

      .cls-22 {
        letter-spacing: -.01em;
      }

      .cls-23 {
        letter-spacing: 0em;
      }

      .cls-24 {
        letter-spacing: 0em;
      }

      .cls-25 {
        letter-spacing: 0em;
      }

      .cls-26 {
        font-family: Urbanist-Regular, Urbanist;
        font-size: 18px;
        font-variation-settings: 'wght' 400;
      }

      .cls-27 {
        letter-spacing: 0em;
      }

      .cls-28 {
        fill: #130044;
      }
    </style>
  </defs>
  <rect class="cls-28" x="0" y="0" width="366.28" height="305.38" rx="29.13" ry="29.13"/>
  <g>
    <path class="cls-7" d="M61.36,50.63c.05-.55.08-1.11.08-1.66,0-9.33-7.59-16.92-16.92-16.92s-16.92,7.59-16.92,16.92,7.59,16.92,16.92,16.92c.55,0,1.11-.03,1.66-.08.71,6.97,6.61,12.43,13.77,12.43,7.63,0,13.84-6.21,13.84-13.84,0-7.15-5.46-13.06-12.43-13.77ZM46.11,64.36c-.53.05-1.06.08-1.59.08-8.53,0-15.48-6.94-15.48-15.48s6.94-15.48,15.48-15.48,15.48,6.94,15.48,15.48c0,.53-.03,1.06-.08,1.59-7.6.02-13.79,6.2-13.8,13.8ZM59.95,76.78c-6.83,0-12.39-5.56-12.39-12.39s5.56-12.39,12.39-12.39,12.39,5.56,12.39,12.39-5.56,12.39-12.39,12.39Z"/>
    <path class="cls-7" d="M59.95,53.64c-5.93,0-10.75,4.82-10.75,10.75s4.82,10.75,10.75,10.75,10.75-4.82,10.75-10.75-4.82-10.75-10.75-10.75ZM59.95,73.7c-5.13,0-9.31-4.17-9.31-9.31s4.17-9.31,9.31-9.31,9.31,4.17,9.31,9.31-4.17,9.31-9.31,9.31Z"/>
    <path class="cls-7" d="M62.31,61.79c0,.4.32.72.72.72s.72-.32.72-.72c0-1.36-1.31-2.46-3.09-2.7v-.87c0-.4-.32-.72-.72-.72s-.72.32-.72.72v.87c-1.78.24-3.09,1.34-3.09,2.7,0,1.93,1.7,2.68,3.09,3.13v3.31c-.99-.19-1.64-.73-1.64-1.24,0-.4-.32-.72-.72-.72s-.72.32-.72.72c0,1.36,1.31,2.46,3.09,2.7v.87c0,.4.32.72.72.72s.72-.32.72-.72v-.87c1.78-.24,3.09-1.34,3.09-2.7,0-1.93-1.7-2.68-3.09-3.13v-3.31c.99.19,1.64.73,1.64,1.24ZM59.22,63.38c-1.23-.47-1.64-.9-1.64-1.59,0-.5.65-1.05,1.64-1.24v2.83ZM62.31,67c0,.5-.65,1.05-1.64,1.24v-2.83c1.23.47,1.64.9,1.64,1.59Z"/>
    <path class="cls-7" d="M51.9,44.13c.32-.25.37-.7.13-1.01-.25-.32-.7-.37-1.01-.13l-5.25,4.08c-.36-.24-.79-.38-1.25-.38-.36,0-.7.09-1.01.24l-6.2-6.2c-.28-.28-.74-.28-1.02,0-.28.28-.28.74,0,1.02l6.2,6.2c-.15.3-.24.65-.24,1.01,0,1.25,1.02,2.27,2.27,2.27s2.27-1.02,2.27-2.27c0-.26-.05-.51-.13-.75l5.25-4.08ZM44.52,49.78c-.45,0-.82-.37-.82-.82s.37-.82.82-.82.82.37.82.82-.37.82-.82.82Z"/>
    <path class="cls-7" d="M44.52,38.11c.4,0,.72-.32.72-.72v-1.54c0-.4-.32-.72-.72-.72s-.72.32-.72.72v1.54c0,.4.32.72.72.72Z"/>
    <path class="cls-7" d="M44.52,59.81c-.4,0-.72.32-.72.72v1.54c0,.4.32.72.72.72s.72-.32.72-.72v-1.54c0-.4-.32-.72-.72-.72Z"/>
    <path class="cls-7" d="M55.36,48.96c0,.4.32.72.72.72h1.54c.4,0,.72-.32.72-.72s-.32-.72-.72-.72h-1.54c-.4,0-.72.32-.72.72Z"/>
    <path class="cls-7" d="M33.67,48.96c0-.4-.32-.72-.72-.72h-1.54c-.4,0-.72.32-.72.72s.32.72.72.72h1.54c.4,0,.72-.32.72-.72Z"/>
    <path class="cls-7" d="M50.33,38.9c.11.07.24.1.36.1.25,0,.49-.13.63-.36l.39-.67c.2-.35.08-.79-.26-.99-.35-.2-.79-.08-.99.26l-.39.67c-.2.35-.08.79.27.99Z"/>
    <path class="cls-7" d="M38.71,59.03c-.35-.2-.79-.08-.99.26l-.39.67c-.2.35-.08.79.26.99.11.07.24.1.36.1.25,0,.49-.13.63-.36l.39-.67c.2-.35.08-.79-.27-.99Z"/>
    <path class="cls-7" d="M37.72,38.64c.13.23.38.36.63.36.12,0,.25-.03.36-.1.35-.2.46-.64.27-.99l-.39-.67c-.2-.35-.64-.46-.99-.26-.35.2-.46.64-.26.99l.39.67Z"/>
    <path class="cls-7" d="M34.19,42.17l-.67-.39c-.35-.2-.79-.08-.99.26s-.08.79.27.99l.67.39c.11.07.24.1.36.1.25,0,.49-.13.63-.36.2-.35.08-.79-.26-.99Z"/>
    <path class="cls-7" d="M55.21,43.52c.12,0,.25-.03.36-.1l.67-.39c.35-.2.46-.64.26-.99s-.64-.46-.99-.26l-.67.39c-.35.2-.46.64-.26.99.13.23.38.36.63.36Z"/>
    <path class="cls-7" d="M33.46,54.51l-.67.39c-.35.2-.46.64-.27.99.13.23.38.36.63.36.12,0,.25-.03.36-.1l.67-.39c.35-.2.46-.64.26-.99s-.64-.46-.99-.26Z"/>
  </g>
  <text class="cls-7" transform="translate(27.59 116.71)"><tspan class="cls-10"><tspan class="cls-19" x="0" y="0">A</tspan><tspan class="cls-4" x="13.58" y="0">d</tspan><tspan class="cls-8" x="25.98" y="0">i</tspan><tspan x="30.59" y="0">an</tspan><tspan class="cls-18" x="53.73" y="0">t</tspan><tspan x="60.67" y="0">a</tspan><tspan class="cls-22" x="72.65" y="0">m</tspan><tspan class="cls-8" x="90.22" y="0">e</tspan><tspan x="101.18" y="0">n</tspan><tspan class="cls-18" x="112.34" y="0">t</tspan><tspan x="119.28" y="0">o </tspan><tspan class="cls-20" x="135.28" y="0">d</tspan><tspan x="147.53" y="0">e </tspan><tspan class="cls-16" x="163.52" y="0">pa</tspan><tspan class="cls-8" x="187.48" y="0">g</tspan><tspan x="199.51" y="0">a</tspan><tspan class="cls-22" x="211.49" y="0">m</tspan><tspan class="cls-8" x="229.06" y="0">e</tspan><tspan x="240.02" y="0">n</tspan><tspan class="cls-18" x="251.18" y="0">t</tspan><tspan x="258.12" y="0">o</tspan></tspan><tspan class="cls-26"><tspan class="cls-23" x="0" y="21.6">G</tspan><tspan x="13.71" y="21.6">a</tspan><tspan class="cls-11" x="24.17" y="21.6">r</tspan><tspan x="30" y="21.6">an</tspan><tspan class="cls-17" x="50.1" y="21.6">t</tspan><tspan x="56.07" y="21.6">e a </tspan><tspan class="cls-9" x="85.22" y="21.6">i</tspan><tspan class="cls-22" x="88.61" y="21.6">n</tspan><tspan class="cls-3" x="98.08" y="21.6">d</tspan><tspan class="cls-6" x="108.85" y="21.6">e</tspan><tspan x="118.81" y="21.6">ni</tspan><tspan class="cls-6" x="131.88" y="21.6">z</tspan><tspan class="cls-22" x="140.91" y="21.6">a</tspan><tspan class="cls-23" x="151.19" y="21.6">ç</tspan><tspan class="cls-15" x="160.24" y="21.6">ã</tspan><tspan x="170.52" y="21.6">o </tspan><tspan class="cls-22" x="184.92" y="21.6">p</tspan><tspan class="cls-24" x="195.56" y="21.6">e</tspan><tspan class="cls-21" x="205.46" y="21.6">lo</tspan><tspan x="218.83" y="21.6">s </tspan></tspan><tspan class="cls-26"><tspan class="cls-6" x="0" y="43.2">p</tspan><tspan class="cls-11" x="10.73" y="43.2">r</tspan><tspan class="cls-15" x="16.56" y="43.2">e</tspan><tspan class="cls-23" x="26.43" y="43.2">j</tspan><tspan x="30.29" y="43.2">uí</tspan><tspan class="cls-6" x="42.99" y="43.2">z</tspan><tspan class="cls-21" x="52.03" y="43.2">o</tspan><tspan x="62.05" y="43.2">s </tspan><tspan class="cls-21" x="74.1" y="43.2">d</tspan><tspan class="cls-15" x="84.86" y="43.2">e</tspan><tspan class="cls-23" x="94.73" y="43.2">c</tspan><tspan class="cls-6" x="103.79" y="43.2">or</tspan><tspan class="cls-11" x="120.12" y="43.2">r</tspan><tspan class="cls-6" x="125.96" y="43.2">e</tspan><tspan x="135.92" y="43.2">n</tspan><tspan class="cls-17" x="145.57" y="43.2">t</tspan><tspan class="cls-21" x="151.53" y="43.2">e</tspan><tspan x="161.52" y="43.2">s </tspan><tspan class="cls-21" x="173.57" y="43.2">d</tspan><tspan x="184.34" y="43.2">o </tspan></tspan><tspan class="cls-26"><tspan class="cls-9" x="0" y="64.8">i</tspan><tspan class="cls-22" x="3.39" y="64.8">na</tspan><tspan x="23.14" y="64.8">d</tspan><tspan class="cls-9" x="33.97" y="64.8">i</tspan><tspan x="37.36" y="64.8">m</tspan><tspan class="cls-24" x="53.35" y="64.8">p</tspan><tspan class="cls-21" x="64.02" y="64.8">l</tspan><tspan class="cls-6" x="67.37" y="64.8">e</tspan><tspan class="cls-22" x="77.34" y="64.8">m</tspan><tspan class="cls-6" x="93.15" y="64.8">e</tspan><tspan x="103.11" y="64.8">n</tspan><tspan class="cls-17" x="112.76" y="64.8">t</tspan><tspan x="118.73" y="64.8">o </tspan><tspan class="cls-21" x="133.13" y="64.8">d</tspan><tspan x="143.89" y="64.8">as </tspan><tspan class="cls-24" x="166.4" y="64.8">o</tspan><tspan class="cls-6" x="176.33" y="64.8">b</tspan><tspan class="cls-23" x="187.06" y="64.8">r</tspan><tspan class="cls-6" x="193.38" y="64.8">ig</tspan><tspan class="cls-15" x="207.2" y="64.8">a</tspan><tspan class="cls-23" x="217.48" y="64.8">ç</tspan><tspan class="cls-22" x="226.53" y="64.8">õ</tspan><tspan class="cls-21" x="236.43" y="64.8">e</tspan><tspan x="246.42" y="64.8">s </tspan></tspan><tspan class="cls-26"><tspan x="0" y="86.4">assum</tspan><tspan class="cls-6" x="51.2" y="86.4">i</tspan><tspan class="cls-21" x="54.53" y="86.4">d</tspan><tspan x="65.29" y="86.4">as </tspan><tspan class="cls-15" x="87.8" y="86.4">p</tspan><tspan class="cls-1" x="98.44" y="86.4">e</tspan><tspan class="cls-3" x="108.34" y="86.4">l</tspan><tspan x="111.7" y="86.4">o </tspan><tspan class="cls-14" x="126.1" y="86.4">t</tspan><tspan class="cls-27" x="132.06" y="86.4">o</tspan><tspan class="cls-22" x="142.06" y="86.4">ma</tspan><tspan class="cls-21" x="168.15" y="86.4">d</tspan><tspan class="cls-6" x="178.91" y="86.4">o</tspan><tspan x="188.9" y="86.4">r </tspan><tspan class="cls-6" x="199.66" y="86.4">e</tspan><tspan x="209.62" y="86.4">m </tspan></tspan><tspan class="cls-26"><tspan class="cls-11" x="0" y="108">r</tspan><tspan class="cls-24" x="5.83" y="108">e</tspan><tspan class="cls-21" x="15.73" y="108">l</tspan><tspan class="cls-15" x="19.09" y="108">a</tspan><tspan class="cls-23" x="29.37" y="108">ç</tspan><tspan class="cls-22" x="38.42" y="108">ã</tspan><tspan x="48.7" y="108">o </tspan><tspan class="cls-5" x="63.1" y="108">e</tspan><tspan class="cls-12" x="72.43" y="108">x</tspan><tspan class="cls-23" x="81.36" y="108">c</tspan><tspan x="90.41" y="108">lu</tspan><tspan class="cls-6" x="103.12" y="108">s</tspan><tspan class="cls-23" x="110.76" y="108">i</tspan><tspan class="cls-13" x="114.07" y="108">v</tspan><tspan x="122.84" y="108">a </tspan><tspan class="cls-22" x="137.62" y="108">a</tspan><tspan class="cls-3" x="147.9" y="108">o</tspan><tspan x="157.92" y="108">s </tspan></tspan><tspan class="cls-26"><tspan class="cls-15" x="0" y="129.6">a</tspan><tspan x="10.28" y="129.6">d</tspan><tspan class="cls-6" x="21.1" y="129.6">i</tspan><tspan x="24.44" y="129.6">an</tspan><tspan class="cls-14" x="44.54" y="129.6">t</tspan><tspan x="50.51" y="129.6">a</tspan><tspan class="cls-15" x="60.97" y="129.6">m</tspan><tspan class="cls-6" x="76.78" y="129.6">e</tspan><tspan x="86.74" y="129.6">n</tspan><tspan class="cls-17" x="96.39" y="129.6">t</tspan><tspan class="cls-21" x="102.36" y="129.6">o</tspan><tspan x="112.37" y="129.6">s </tspan><tspan class="cls-21" x="124.42" y="129.6">d</tspan><tspan x="135.19" y="129.6">e </tspan><tspan class="cls-15" x="149.56" y="129.6">pa</tspan><tspan class="cls-6" x="170.48" y="129.6">g</tspan><tspan x="180.96" y="129.6">a</tspan><tspan class="cls-15" x="191.42" y="129.6">m</tspan><tspan class="cls-6" x="207.23" y="129.6">e</tspan><tspan x="217.2" y="129.6">n</tspan><tspan class="cls-17" x="226.84" y="129.6">t</tspan><tspan class="cls-21" x="232.81" y="129.6">o</tspan><tspan class="cls-9" x="242.83" y="129.6">s</tspan><tspan x="250.53" y="129.6">, </tspan></tspan><tspan class="cls-26"><tspan class="cls-23" x="0" y="151.2">c</tspan><tspan class="cls-6" x="9.05" y="151.2">o</tspan><tspan class="cls-15" x="19.04" y="151.2">n</tspan><tspan class="cls-2" x="28.51" y="151.2">c</tspan><tspan class="cls-15" x="37.57" y="151.2">e</tspan><tspan x="47.44" y="151.2">d</tspan><tspan class="cls-6" x="58.27" y="151.2">i</tspan><tspan class="cls-21" x="61.6" y="151.2">do</tspan><tspan class="cls-25" x="82.38" y="151.2">s </tspan><tspan class="cls-15" x="94.43" y="151.2">p</tspan><tspan class="cls-24" x="105.07" y="151.2">e</tspan><tspan class="cls-21" x="114.97" y="151.2">l</tspan><tspan x="118.32" y="151.2">o </tspan><tspan class="cls-21" x="132.72" y="151.2">s</tspan><tspan class="cls-15" x="140.39" y="151.2">e</tspan><tspan class="cls-23" x="150.26" y="151.2">g</tspan><tspan x="160.72" y="151.2">u</tspan><tspan class="cls-11" x="170.01" y="151.2">r</tspan><tspan class="cls-22" x="175.84" y="151.2">a</tspan><tspan class="cls-3" x="186.12" y="151.2">d</tspan><tspan class="cls-22" x="196.88" y="151.2">o</tspan><tspan x="206.78" y="151.2">.</tspan></tspan></text>
</svg>