<?xml version="1.0" encoding="UTF-8"?>
<svg id="Layer_1" data-name="Layer 1" xmlns="http://www.w3.org/2000/svg" viewBox="0 0 366.28 305.38">
  <defs>
    <style>
      .cls-1 {
        letter-spacing: 0em;
      }

      .cls-2 {
        letter-spacing: -.01em;
      }

      .cls-3 {
        letter-spacing: 0em;
      }

      .cls-4 {
        letter-spacing: 0em;
      }

      .cls-5 {
        fill: #fff;
      }

      .cls-6 {
        letter-spacing: 0em;
      }

      .cls-7 {
        letter-spacing: -.01em;
      }

      .cls-8 {
        letter-spacing: -.03em;
      }

      .cls-9 {
        letter-spacing: -.04em;
      }

      .cls-10 {
        letter-spacing: -.04em;
      }

      .cls-11 {
        letter-spacing: 0em;
      }

      .cls-12 {
        letter-spacing: -.01em;
      }

      .cls-13 {
        letter-spacing: 0em;
      }

      .cls-14 {
        font-family: UrbanistRoman-Bold, Urbanist;
        font-size: 23.99px;
        font-variation-settings: 'wght' 700;
        font-weight: 700;
      }

      .cls-15 {
        letter-spacing: 0em;
      }

      .cls-16 {
        letter-spacing: -.01em;
      }

      .cls-17 {
        letter-spacing: 0em;
      }

      .cls-18 {
        letter-spacing: -.01em;
      }

      .cls-19 {
        letter-spacing: 0em;
      }

      .cls-20 {
        letter-spacing: 0em;
      }

      .cls-21 {
        font-family: Urbanist-Regular, Urbanist;
        font-size: 18px;
        font-variation-settings: 'wght' 400;
      }

      .cls-22 {
        letter-spacing: -.02em;
      }

      .cls-23 {
        fill: #130044;
      }
    </style>
  </defs>
  <rect class="cls-23" x="0" y="0" width="366.28" height="305.38" rx="29.13" ry="29.13"/>
  <path class="cls-5" d="M59.61,32.04l-1.17,1.28c-2.61,2.88-4.77,4.16-6.56,5-1.79.84-3.3,1.09-4.78,2.22-1.58,1.21-3.87,3.53-4.84,7.67-2.07.45-3.59,1.24-4.78,2.28-1.18,1.02-2.07,2.18-3.17,3.45,0,.01,0,.04,0,.06-1.57,1.81-2.95,3.75-5.61,4.78l-1.11.44v19.01h33.91c1.95-.1,3.29-1.45,4.11-2.78s1.27-2.77,1.5-3.95c.59-3.01,1.67-11.67,1.67-11.67l.06-.17v-.17c-.06-1.2-.55-2.22-1.17-3.17l2-5.95,3.17-4.78.89-1.28-1.17-1.06-11.67-10.12-1.28-1.11ZM59.72,36.93l9.28,8.06-2.45,3.61-.17.17-.06.28-1.61,4.78c-.84-.35-1.71-.59-2.67-.56h-.11l-11.23.06h-1.78v6.89c-.25,1.94-1.33,2.69-2.67,3.22-.44.18-.5.08-.89.17v-10.34c-.29-6.59,2.06-8.49,3.89-9.89.51-.39,1.99-.84,4.11-1.83,1.77-.83,3.97-2.33,6.34-4.61ZM41.93,52.22c0,.4-.13.69-.11,1.11v14.23h1.78s1.9-.02,3.95-.83c2.04-.81,4.51-2.72,4.95-6.06v-3.78l9.56-.06h.06c1.64-.09,3,1.15,3.11,2.78,0,.03-.09.69-.11.83h-7.28v3.56h6.84c-.19,1.38-.36,2.24-.56,3.56h-6.28v3.56h5.73c-.19.79-.56,1.74-1,2.45-.49.79-.9,1.09-1.28,1.11h-30.13v-13.29c2.88-1.53,4.68-3.73,5.84-5.06,1.2-1.38,2.03-2.42,2.83-3.11.53-.45,1.35-.71,2.11-1Z"/>
  <text class="cls-5" transform="translate(27.59 119.7)"><tspan class="cls-14"><tspan class="cls-9" x="0" y="0">A</tspan><tspan x="16.45" y="0">s</tspan><tspan class="cls-7" x="26.88" y="0">s</tspan><tspan class="cls-1" x="37.02" y="0">i</tspan><tspan x="42.65" y="0">s</tspan><tspan class="cls-12" x="53.07" y="0">t</tspan><tspan class="cls-7" x="61.39" y="0">ê</tspan><tspan class="cls-11" x="74.54" y="0">n</tspan><tspan class="cls-22" x="87.68" y="0">c</tspan><tspan class="cls-2" x="99.46" y="0">i</tspan><tspan x="104.99" y="0">a </tspan><tspan class="cls-6" x="125.11" y="0">f</tspan><tspan x="133.96" y="0">u</tspan><tspan class="cls-11" x="146.87" y="0">n</tspan><tspan class="cls-2" x="160.01" y="0">e</tspan><tspan class="cls-10" x="173.16" y="0">r</tspan><tspan class="cls-4" x="181.49" y="0">a</tspan><tspan x="195.92" y="0">l</tspan></tspan><tspan class="cls-21"><tspan x="0" y="43.2">A </tspan><tspan class="cls-17" x="16.5" y="43.2">s</tspan><tspan class="cls-13" x="24.16" y="43.2">e</tspan><tspan class="cls-19" x="34.04" y="43.2">g</tspan><tspan x="44.5" y="43.2">u</tspan><tspan class="cls-8" x="53.78" y="43.2">r</tspan><tspan class="cls-13" x="59.62" y="43.2">a</tspan><tspan class="cls-17" x="69.89" y="43.2">d</tspan><tspan class="cls-3" x="80.66" y="43.2">o</tspan><tspan class="cls-8" x="90.65" y="43.2">r</tspan><tspan x="96.48" y="43.2">a </tspan><tspan class="cls-16" x="111.26" y="43.2">t</tspan><tspan x="117.22" y="43.2">e a</tspan><tspan class="cls-18" x="142.06" y="43.2">po</tspan><tspan class="cls-3" x="162.59" y="43.2">i</tspan><tspan x="165.92" y="43.2">a </tspan><tspan class="cls-13" x="180.7" y="43.2">n</tspan><tspan class="cls-17" x="190.17" y="43.2">e</tspan><tspan x="200.16" y="43.2">s</tspan><tspan class="cls-17" x="207.89" y="43.2">s</tspan><tspan x="215.56" y="43.2">e </tspan></tspan><tspan class="cls-21"><tspan class="cls-13" x="0" y="64.8">m</tspan><tspan class="cls-3" x="15.81" y="64.8">o</tspan><tspan class="cls-18" x="25.8" y="64.8">m</tspan><tspan class="cls-3" x="41.62" y="64.8">e</tspan><tspan x="51.58" y="64.8">n</tspan><tspan class="cls-16" x="61.23" y="64.8">t</tspan><tspan x="67.19" y="64.8">o di</tspan><tspan class="cls-17" x="95.84" y="64.8">f</tspan><tspan class="cls-3" x="101.78" y="64.8">í</tspan><tspan class="cls-20" x="105.11" y="64.8">c</tspan><tspan class="cls-15" x="114.13" y="64.8">i</tspan><tspan x="117.61" y="64.8">l.</tspan></tspan></text>
</svg>