<?xml version="1.0" encoding="UTF-8"?>
<svg id="Layer_1" data-name="Layer 1" xmlns="http://www.w3.org/2000/svg" viewBox="0 0 366.28 305.38">
  <defs>
    <style>
      .cls-1 {
        letter-spacing: -.01em;
      }

      .cls-2 {
        letter-spacing: 0em;
      }

      .cls-3 {
        letter-spacing: 0em;
      }

      .cls-4 {
        letter-spacing: 0em;
      }

      .cls-5 {
        letter-spacing: -.05em;
      }

      .cls-6 {
        letter-spacing: 0em;
      }

      .cls-7, .cls-8 {
        fill: #fff;
      }

      .cls-8 {
        fill-rule: evenodd;
      }

      .cls-9 {
        letter-spacing: -.03em;
      }

      .cls-10 {
        letter-spacing: 0em;
      }

      .cls-11 {
        letter-spacing: 0em;
      }

      .cls-12 {
        letter-spacing: -.01em;
      }

      .cls-13 {
        font-family: UrbanistRoman-Bold, Urbanist;
        font-size: 23.99px;
        font-variation-settings: 'wght' 700;
        font-weight: 700;
      }

      .cls-14 {
        letter-spacing: -.03em;
      }

      .cls-15 {
        letter-spacing: -.03em;
      }

      .cls-16 {
        letter-spacing: -.02em;
      }

      .cls-17 {
        letter-spacing: 0em;
      }

      .cls-18 {
        letter-spacing: -.01em;
      }

      .cls-19 {
        letter-spacing: 0em;
      }

      .cls-20 {
        letter-spacing: -.01em;
      }

      .cls-21 {
        letter-spacing: -.04em;
      }

      .cls-22 {
        letter-spacing: 0em;
      }

      .cls-23 {
        letter-spacing: 0em;
      }

      .cls-24 {
        letter-spacing: -.04em;
      }

      .cls-25 {
        letter-spacing: -.01em;
      }

      .cls-26 {
        letter-spacing: 0em;
      }

      .cls-27 {
        letter-spacing: -.01em;
      }

      .cls-28 {
        letter-spacing: 0em;
      }

      .cls-29 {
        font-family: Urbanist-Regular, Urbanist;
        font-size: 18px;
        font-variation-settings: 'wght' 400;
      }

      .cls-30 {
        fill: #130044;
      }
    </style>
  </defs>
  <rect class="cls-30" x="0" y="0" width="366.28" height="305.38" rx="29.13" ry="29.13"/>
  <path class="cls-8" d="M44.94,32.11c.92.25,1.55,1.08,1.55,2.03v14.7h12.6c.75,0,1.45.4,1.82,1.05.37.65.37,1.45,0,2.1l-14.7,25.2c-.48.82-1.45,1.22-2.36.97-.92-.25-1.55-1.08-1.55-2.03v-14.7h-12.6c-.75,0-1.45-.4-1.82-1.05-.37-.65-.37-1.45,0-2.1l14.7-25.2c.48-.82,1.45-1.22,2.36-.97ZM33.35,57.23h11.04c1.16,0,2.1.94,2.1,2.1v9.03l8.94-15.33h-11.04c-1.16,0-2.1-.94-2.1-2.1v-9.03l-8.94,15.33Z"/>
  <text class="cls-7" transform="translate(27.59 119.7)"><tspan class="cls-13"><tspan class="cls-24" x="0" y="0">C</tspan><tspan class="cls-10" x="16.01" y="0">a</tspan><tspan class="cls-19" x="30.44" y="0">b</tspan><tspan class="cls-2" x="45.07" y="0">o</tspan><tspan x="58.32" y="0">s </tspan><tspan class="cls-2" x="74.5" y="0">d</tspan><tspan x="89.19" y="0">e </tspan><tspan class="cls-16" x="108.37" y="0">c</tspan><tspan x="120.23" y="0">a</tspan><tspan class="cls-12" x="134.6" y="0">r</tspan><tspan class="cls-21" x="143.56" y="0">r</tspan><tspan class="cls-19" x="151.89" y="0">e</tspan><tspan class="cls-12" x="165.07" y="0">g</tspan><tspan x="179.5" y="0">a</tspan><tspan class="cls-19" x="193.87" y="0">m</tspan><tspan class="cls-1" x="214.94" y="0">e</tspan><tspan x="228.09" y="0">n</tspan><tspan class="cls-20" x="241.47" y="0">t</tspan><tspan x="249.79" y="0">o</tspan></tspan><tspan class="cls-29"><tspan class="cls-5" x="0" y="43.2">V</tspan><tspan class="cls-22" x="10.65" y="43.2">e</tspan><tspan class="cls-6" x="20.52" y="43.2">íc</tspan><tspan class="cls-11" x="32.93" y="43.2">u</tspan><tspan class="cls-26" x="42.34" y="43.2">lo</tspan><tspan class="cls-17" x="55.71" y="43.2">s h</tspan><tspan class="cls-23" x="77.41" y="43.2">í</tspan><tspan class="cls-6" x="80.89" y="43.2">b</tspan><tspan class="cls-28" x="91.63" y="43.2">r</tspan><tspan class="cls-6" x="97.95" y="43.2">i</tspan><tspan class="cls-4" x="101.28" y="43.2">do</tspan><tspan x="122.06" y="43.2">s e </tspan><tspan class="cls-3" x="148.48" y="43.2">e</tspan><tspan class="cls-4" x="158.38" y="43.2">l</tspan><tspan class="cls-18" x="161.74" y="43.2">é</tspan><tspan x="171.55" y="43.2">t</tspan><tspan class="cls-28" x="177.76" y="43.2">r</tspan><tspan class="cls-6" x="184.08" y="43.2">i</tspan><tspan class="cls-28" x="187.41" y="43.2">c</tspan><tspan class="cls-4" x="196.46" y="43.2">o</tspan><tspan class="cls-17" x="206.48" y="43.2">s </tspan></tspan><tspan class="cls-29"><tspan class="cls-28" x="0" y="64.8">c</tspan><tspan class="cls-6" x="9.05" y="64.8">o</tspan><tspan x="19.04" y="64.8">n</tspan><tspan class="cls-25" x="28.69" y="64.8">t</tspan><tspan x="34.66" y="64.8">am </tspan><tspan class="cls-28" x="65.43" y="64.8">c</tspan><tspan class="cls-6" x="74.48" y="64.8">o</tspan><tspan x="84.47" y="64.8">m </tspan><tspan class="cls-6" x="104.79" y="64.8">p</tspan><tspan class="cls-9" x="115.52" y="64.8">r</tspan><tspan class="cls-25" x="121.35" y="64.8">ot</tspan><tspan class="cls-27" x="137.15" y="64.8">e</tspan><tspan class="cls-28" x="147.02" y="64.8">ç</tspan><tspan class="cls-22" x="156.08" y="64.8">ã</tspan><tspan x="166.36" y="64.8">o </tspan><tspan class="cls-27" x="180.76" y="64.8">p</tspan><tspan x="191.39" y="64.8">a</tspan><tspan class="cls-15" x="201.85" y="64.8">r</tspan><tspan x="207.69" y="64.8">a o </tspan></tspan><tspan class="cls-29"><tspan class="cls-28" x="0" y="86.4">c</tspan><tspan class="cls-11" x="9.05" y="86.4">a</tspan><tspan class="cls-22" x="19.63" y="86.4">b</tspan><tspan x="30.28" y="86.4">o </tspan><tspan class="cls-26" x="44.68" y="86.4">d</tspan><tspan x="55.44" y="86.4">e </tspan><tspan class="cls-28" x="69.81" y="86.4">c</tspan><tspan x="78.87" y="86.4">a</tspan><tspan class="cls-6" x="89.32" y="86.4">r</tspan><tspan class="cls-9" x="95.67" y="86.4">r</tspan><tspan class="cls-22" x="101.5" y="86.4">e</tspan><tspan class="cls-6" x="111.37" y="86.4">g</tspan><tspan x="121.86" y="86.4">a</tspan><tspan class="cls-27" x="132.32" y="86.4">m</tspan><tspan class="cls-6" x="148.13" y="86.4">e</tspan><tspan x="158.09" y="86.4">n</tspan><tspan class="cls-25" x="167.74" y="86.4">t</tspan><tspan x="173.71" y="86.4">o </tspan><tspan class="cls-26" x="188.11" y="86.4">d</tspan><tspan x="198.87" y="86.4">o </tspan><tspan class="cls-14" x="213.27" y="86.4">v</tspan><tspan class="cls-27" x="222.05" y="86.4">e</tspan><tspan class="cls-6" x="231.92" y="86.4">íc</tspan><tspan class="cls-11" x="244.33" y="86.4">u</tspan><tspan class="cls-4" x="253.74" y="86.4">l</tspan><tspan class="cls-27" x="257.09" y="86.4">o</tspan><tspan x="266.99" y="86.4">.</tspan></tspan></text>
</svg>