<?xml version="1.0" encoding="UTF-8"?>
<svg id="Layer_1" data-name="Layer 1" xmlns="http://www.w3.org/2000/svg" viewBox="0 0 366.28 305.38">
  <defs>
    <style>
      .cls-1 {
        letter-spacing: 0em;
      }

      .cls-2 {
        letter-spacing: 0em;
      }

      .cls-3 {
        letter-spacing: -.01em;
      }

      .cls-4 {
        letter-spacing: 0em;
      }

      .cls-5 {
        letter-spacing: -.02em;
      }

      .cls-6 {
        letter-spacing: -.05em;
      }

      .cls-7 {
        font-family: UrbanistRoman-Bold, Urbanist;
        font-size: 20px;
        font-variation-settings: 'wght' 700;
        font-weight: 700;
      }

      .cls-7, .cls-8 {
        fill: #130044;
      }

      .cls-9 {
        letter-spacing: -.04em;
      }

      .cls-10 {
        letter-spacing: 0em;
      }

      .cls-11 {
        letter-spacing: -.02em;
      }

      .cls-12 {
        letter-spacing: -.04em;
      }

      .cls-13 {
        letter-spacing: -.01em;
      }

      .cls-14 {
        letter-spacing: 0em;
      }

      .cls-15 {
        letter-spacing: -.02em;
      }
    </style>
  </defs>
  <path class="cls-8" d="M337.15,8.99c11.1,0,20.14,9.03,20.14,20.14v247.12c0,11.1-9.03,20.13-20.14,20.13H29.13c-11.1,0-20.14-9.03-20.14-20.13V29.13c0-11.1,9.03-20.14,20.14-20.14h308.02M337.15,0H29.13C13.11,0,0,13.11,0,29.13v247.12C0,292.27,13.11,305.38,29.13,305.38h308.02c16.02,0,29.13-13.11,29.13-29.13V29.13C366.28,13.11,353.18,0,337.15,0h0Z"/>
  <text class="cls-7" transform="translate(27.59 250.42)"><tspan class="cls-6" x="0" y="0">A</tspan><tspan x="13.58" y="0">dm</tspan><tspan class="cls-4" x="43.75" y="0">i</tspan><tspan x="48.51" y="0">n</tspan><tspan class="cls-14" x="59.67" y="0">i</tspan><tspan x="64.36" y="0">st</tspan><tspan class="cls-12" x="80.21" y="0">r</tspan><tspan x="87.16" y="0">a</tspan><tspan class="cls-14" x="99.14" y="0">t</tspan><tspan class="cls-15" x="106.15" y="0">i</tspan><tspan class="cls-9" x="110.68" y="0">v</tspan><tspan x="121.6" y="0">o </tspan><tspan class="cls-2" x="137.6" y="0">d</tspan><tspan x="149.85" y="0">e c</tspan><tspan class="cls-12" x="176.04" y="0">r</tspan><tspan class="cls-10" x="182.99" y="0">é</tspan><tspan x="193.98" y="0">di</tspan><tspan class="cls-13" x="211.22" y="0">t</tspan><tspan class="cls-2" x="218.16" y="0">o</tspan><tspan x="229.21" y="0">s </tspan><tspan x="0" y="24">t</tspan><tspan class="cls-11" x="7.16" y="24">r</tspan><tspan class="cls-1" x="14.55" y="24">i</tspan><tspan class="cls-5" x="19.41" y="24">b</tspan><tspan x="31.35" y="24">u</tspan><tspan class="cls-13" x="42.11" y="24">t</tspan><tspan x="49.05" y="24">á</tspan><tspan class="cls-11" x="61.03" y="24">r</tspan><tspan class="cls-3" x="68.42" y="24">i</tspan><tspan class="cls-2" x="73.03" y="24">o</tspan><tspan x="84.08" y="24">s</tspan></text>
  <polygon class="cls-8" points="338.69 262.6 330.04 262.6 330.04 253.95 324.38 253.95 324.38 262.6 315.73 262.6 315.73 268.27 324.38 268.27 324.38 276.92 330.04 276.92 330.04 268.27 338.69 268.27 338.69 262.6"/>
  <path class="cls-8" d="M41.07,61.87c0,.09.01.18.01.28-7.6-1.59-12.47-9.03-10.88-16.63,1.59-7.6,9.03-12.47,16.63-10.88,5.47,1.14,9.74,5.41,10.88,10.88-.09,0-.18-.01-.28-.01-.56,0-1.13.03-1.69.09-1.54-6.51-8.07-10.54-14.59-9-6.51,1.54-10.54,8.07-9,14.59,1.06,4.46,4.54,7.94,9,9-.06.56-.09,1.12-.09,1.69ZM42.96,40.18l-.23-1.91c-5.17.62-9.03,5.04-8.98,10.24,0,.29.02.58.05.87l1.92-.18c-.02-.23-.03-.47-.04-.71-.05-4.22,3.09-7.8,7.28-8.31h0ZM71.47,61.87c0,7.76-6.29,14.05-14.05,14.05s-14.05-6.29-14.05-14.05,6.29-14.05,14.05-14.05c7.76,0,14.04,6.29,14.05,14.05ZM69.55,61.87c0-6.7-5.43-12.13-12.13-12.13-6.7,0-12.13,5.43-12.13,12.13,0,6.7,5.43,12.13,12.13,12.13h0c6.69,0,12.12-5.43,12.13-12.13h0ZM49.19,62.67c-.02-.23-.04-.47-.04-.71-.05-4.22,3.09-7.8,7.28-8.31l-.23-1.91c-5.17.62-9.03,5.04-8.98,10.24,0,.29.02.58.05.87l1.92-.18ZM64.64,54.66l-1.36,1.36c3.23,3.23,3.23,8.47,0,11.71s-8.47,3.23-11.71,0h0l-1.36,1.36c3.98,3.98,10.44,3.98,14.43,0s3.98-10.44,0-14.43h0Z"/>
</svg>