<?xml version="1.0" encoding="UTF-8"?>
<svg id="Layer_1" data-name="Layer 1" xmlns="http://www.w3.org/2000/svg" viewBox="0 0 366.28 305.38">
  <defs>
    <style>
      .cls-1 {
        letter-spacing: -.01em;
      }

      .cls-2 {
        letter-spacing: 0em;
      }

      .cls-3 {
        letter-spacing: 0em;
      }

      .cls-4 {
        letter-spacing: -.04em;
      }

      .cls-5 {
        letter-spacing: 0em;
      }

      .cls-6 {
        fill: #fff;
      }

      .cls-7 {
        letter-spacing: 0em;
      }

      .cls-8 {
        letter-spacing: -.03em;
      }

      .cls-9 {
        letter-spacing: -.01em;
      }

      .cls-10 {
        font-family: UrbanistRoman-Bold, Urbanist;
        font-size: 23.99px;
        font-variation-settings: 'wght' 700;
        font-weight: 700;
      }

      .cls-11 {
        letter-spacing: -.03em;
      }

      .cls-12 {
        letter-spacing: -.01em;
      }

      .cls-13 {
        letter-spacing: 0em;
      }

      .cls-14 {
        letter-spacing: -.02em;
      }

      .cls-15 {
        letter-spacing: 0em;
      }

      .cls-16 {
        letter-spacing: -.01em;
      }

      .cls-17 {
        letter-spacing: -.04em;
      }

      .cls-18 {
        letter-spacing: 0em;
      }

      .cls-19 {
        letter-spacing: 0em;
      }

      .cls-20 {
        letter-spacing: 0em;
      }

      .cls-21 {
        font-family: Urbanist-Regular, Urbanist;
        font-size: 18px;
        font-variation-settings: 'wght' 400;
      }

      .cls-22 {
        fill: #130044;
      }
    </style>
  </defs>
  <rect class="cls-22" x="0" y="0" width="366.28" height="305.38" rx="29.13" ry="29.13"/>
  <path class="cls-6" d="M69.57,46.32c-1.28-.47-4.09-.86-5.66.49-3.29-1.82-5.91-1.55-8.08.77-3.5,3.77-1.88,7.57-.37,9.23.91,1,1.18,1.56,1.32,2.21.03.11.1.5.11.63.26,6.24,2.47,7.04,3.27,7.12.18.05.35.07.52.07.35,0,.69-.09.99-.28,1.24-.75,1.57-2.84,1.87-4.68.02-.14.05-.28.07-.42.17,2.01.51,5.05,2.91,5.31.25.05.74.07,1.29-.27,1.14-.69,1.92-2.46,2.4-5.42l.07-.44c.15-1.03.35-2.44,1.15-3.27,1.35-1.41,2.44-4.51,1.85-7.04-.44-1.9-1.72-3.29-3.69-4.01ZM69.99,56.03c-1.22,1.28-1.49,3.12-1.66,4.34l-.06.4c-.55,3.34-1.34,3.96-1.5,4.06-.01,0-.02,0-.04,0-.92-.08-1.12-2.6-1.21-3.8-.04-.41-.06-.78-.11-1.06-.07-.47-.59-1.79-1.66-1.88-.86-.05-1.42.51-1.8,1.72-.14.45-.24,1.05-.36,1.75-.13.85-.5,3.07-.99,3.31-.09-.03-.11-.04-.19-.04h-.03s-1.36-.46-1.56-5.26c0-.18-.11-.81-.16-.98-.24-1.09-.74-1.95-1.78-3.09-.3-.32-2.76-3.24.36-6.59.86-.92,2.58-2.77,7.3.63l-1.88.95c-.31.16-.52.46-.54.82-.02.35.15.68.44.88l1.94,1.27-1.62,1.77c-.36.4-.34,1.01.06,1.37.4.37,1.01.34,1.38-.05l2.4-2.61c.2-.21.29-.5.25-.78-.04-.28-.19-.54-.43-.69l-1.48-.97,1.76-.88c.3-.15.5-.44.53-.76.04-.33-.09-.65-.35-.86-.43-.35-.85-.67-1.25-.97.95-.3,2.4-.12,3.15.16,1.35.5,2.18,1.38,2.46,2.63.47,1.97-.51,4.35-1.36,5.25ZM41.13,72.38h44.88c.54,0,.98-.44.98-.97v-28.64c0-.54-.44-.98-.98-.98h-44.88c-.54,0-.98.44-.98.98v28.64c0,.53.44.97.98.97ZM42.11,43.75h42.94v26.68h-42.94v-26.68ZM98.58,35.7H28.57c-.54,0-.98.44-.98.97s.44.98.98.98h5.73v36.63c0,2.18,1.78,3.96,3.96,3.96h50.64c2.18,0,3.95-1.78,3.95-3.96v-36.63h5.73c.54,0,.98-.44.98-.98,0-.53-.44-.97-.98-.97ZM90.9,74.28c0,1.11-.9,2.01-2.01,2.01h-50.64c-1.11,0-2-.9-2-2.01v-36.63h54.65v36.63h0ZM27.59,33.01c0-.54.44-.97.98-.97h70.02c.54,0,.97.44.97.97s-.44.97-.97.97H28.57c-.54,0-.98-.43-.98-.97Z"/>
  <text class="cls-6" transform="translate(27.59 119.7)"><tspan class="cls-10"><tspan class="cls-4" x="0" y="0">R</tspan><tspan class="cls-13" x="13.54" y="0">a</tspan><tspan x="27.67" y="0">d</tspan><tspan class="cls-9" x="42.54" y="0">i</tspan><tspan class="cls-14" x="48.07" y="0">o</tspan><tspan class="cls-2" x="61.05" y="0">l</tspan><tspan class="cls-13" x="66.67" y="0">o</tspan><tspan class="cls-1" x="79.86" y="0">gi</tspan><tspan x="99.82" y="0">a</tspan></tspan><tspan class="cls-21"><tspan class="cls-17" x="0" y="43.2">P</tspan><tspan x="8.68" y="43.2">a</tspan><tspan class="cls-8" x="19.13" y="43.2">r</tspan><tspan x="24.97" y="43.2">a t</tspan><tspan class="cls-8" x="45.95" y="43.2">r</tspan><tspan x="51.79" y="43.2">a</tspan><tspan class="cls-16" x="62.24" y="43.2">t</tspan><tspan x="68.21" y="43.2">a</tspan><tspan class="cls-15" x="78.67" y="43.2">m</tspan><tspan class="cls-5" x="94.48" y="43.2">e</tspan><tspan x="104.45" y="43.2">n</tspan><tspan class="cls-12" x="114.09" y="43.2">t</tspan><tspan class="cls-18" x="120.06" y="43.2">o</tspan><tspan class="cls-20" x="130.08" y="43.2">s d</tspan><tspan class="cls-3" x="152.96" y="43.2">i</tspan><tspan class="cls-11" x="156.26" y="43.2">v</tspan><tspan class="cls-5" x="165.03" y="43.2">e</tspan><tspan class="cls-19" x="175" y="43.2">r</tspan><tspan class="cls-18" x="181.31" y="43.2">so</tspan><tspan class="cls-7" x="199" y="43.2">s</tspan><tspan x="206.7" y="43.2">.</tspan></tspan></text>
</svg>