<?xml version="1.0" encoding="UTF-8"?>
<svg id="Layer_1" data-name="Layer 1" xmlns="http://www.w3.org/2000/svg" viewBox="0 0 366.28 305.38">
  <defs>
    <style>
      .cls-1 {
        letter-spacing: 0em;
      }

      .cls-2 {
        letter-spacing: -.02em;
      }

      .cls-3 {
        letter-spacing: 0em;
      }

      .cls-4 {
        letter-spacing: 0em;
      }

      .cls-5 {
        letter-spacing: -.05em;
      }

      .cls-6 {
        fill: #fff;
      }

      .cls-7 {
        letter-spacing: -.02em;
      }

      .cls-8 {
        letter-spacing: -.01em;
      }

      .cls-9 {
        letter-spacing: 0em;
      }

      .cls-10 {
        letter-spacing: -.03em;
      }

      .cls-11 {
        letter-spacing: 0em;
      }

      .cls-12 {
        letter-spacing: 0em;
      }

      .cls-13 {
        letter-spacing: -.01em;
      }

      .cls-14 {
        letter-spacing: -.03em;
      }

      .cls-15 {
        letter-spacing: 0em;
      }

      .cls-16 {
        letter-spacing: -.03em;
      }

      .cls-17 {
        letter-spacing: -.02em;
      }

      .cls-18 {
        letter-spacing: -.01em;
      }

      .cls-19 {
        letter-spacing: -.02em;
      }

      .cls-20 {
        font-family: UrbanistRoman-Bold, Urbanist;
        font-size: 19px;
        font-variation-settings: 'wght' 700;
        font-weight: 700;
      }

      .cls-21 {
        letter-spacing: 0em;
      }

      .cls-22 {
        letter-spacing: 0em;
      }

      .cls-23 {
        letter-spacing: 0em;
      }

      .cls-24 {
        letter-spacing: -.01em;
      }

      .cls-25 {
        letter-spacing: -.04em;
      }

      .cls-26 {
        letter-spacing: -.02em;
      }

      .cls-27 {
        letter-spacing: -.01em;
      }

      .cls-28 {
        letter-spacing: 0em;
      }

      .cls-29 {
        letter-spacing: 0em;
      }

      .cls-30 {
        letter-spacing: -.01em;
      }

      .cls-31 {
        letter-spacing: 0em;
      }

      .cls-32 {
        letter-spacing: 0em;
      }

      .cls-33 {
        font-family: Urbanist-Regular, Urbanist;
        font-size: 18px;
        font-variation-settings: 'wght' 400;
      }

      .cls-34 {
        letter-spacing: 0em;
      }

      .cls-35 {
        letter-spacing: -.01em;
      }

      .cls-36 {
        fill: #130044;
      }
    </style>
  </defs>
  <rect class="cls-36" x="0" y="0" width="366.28" height="305.38" rx="29.13" ry="29.13"/>
  <path class="cls-6" d="M58.05,78.23h-11.72c-1.84,0-3.34-1.5-3.34-3.34v-12.06h-12.06c-1.84,0-3.34-1.5-3.34-3.34v-11.72c0-1.84,1.5-3.34,3.34-3.34h12.06v-12.06c0-1.84,1.5-3.34,3.34-3.34h11.72c1.84,0,3.34,1.5,3.34,3.34v12.06h12.06c1.84,0,3.34,1.5,3.34,3.34v11.72c0,1.84-1.5,3.34-3.34,3.34h-12.06v12.06c0,1.84-1.5,3.34-3.34,3.34ZM30.93,47.44c-.19,0-.34.15-.34.34v11.72c0,.19.15.34.34.34h13.56c.83,0,1.5.67,1.5,1.5v13.56c0,.19.15.34.34.34h11.72c.19,0,.34-.15.34-.34v-13.56c0-.83.67-1.5,1.5-1.5h13.56c.19,0,.34-.15.34-.34v-11.72c0-.19-.15-.34-.34-.34h-13.56c-.83,0-1.5-.67-1.5-1.5v-13.56c0-.19-.15-.34-.34-.34h-11.72c-.19,0-.34.15-.34.34v13.56c0,.83-.67,1.5-1.5,1.5h-13.56Z"/>
  <text class="cls-6" transform="translate(27.59 115.96)"><tspan class="cls-20"><tspan class="cls-26" x="0" y="0">D</tspan><tspan class="cls-15" x="12.47" y="0">e</tspan><tspan x="22.96" y="0">s</tspan><tspan class="cls-12" x="31.22" y="0">p</tspan><tspan class="cls-22" x="42.79" y="0">es</tspan><tspan x="61.39" y="0">as </tspan><tspan class="cls-5" x="85.58" y="0">M</tspan><tspan class="cls-12" x="102.34" y="0">é</tspan><tspan x="112.78" y="0">d</tspan><tspan class="cls-35" x="124.56" y="0">i</tspan><tspan class="cls-26" x="128.94" y="0">c</tspan><tspan x="138.34" y="0">o-</tspan><tspan class="cls-15" x="157.34" y="0">Ho</tspan><tspan x="180.12" y="0">s</tspan><tspan class="cls-19" x="188.38" y="0">p</tspan><tspan x="199.7" y="0">i</tspan><tspan class="cls-24" x="204.3" y="0">t</tspan><tspan class="cls-23" x="210.89" y="0">a</tspan><tspan class="cls-22" x="222.32" y="0">l</tspan><tspan x="226.77" y="0">a</tspan><tspan class="cls-25" x="238.15" y="0">r</tspan><tspan class="cls-15" x="244.76" y="0">e</tspan><tspan x="255.24" y="0">s </tspan></tspan><tspan class="cls-20"><tspan x="0" y="22.8">e </tspan><tspan class="cls-26" x="15.19" y="22.8">O</tspan><tspan class="cls-15" x="29.53" y="22.8">d</tspan><tspan class="cls-35" x="41.16" y="22.8">o</tspan><tspan x="51.59" y="22.8">n</tspan><tspan class="cls-8" x="62.19" y="22.8">t</tspan><tspan class="cls-17" x="68.78" y="22.8">o</tspan><tspan class="cls-22" x="79.06" y="22.8">l</tspan><tspan class="cls-28" x="83.51" y="22.8">ó</tspan><tspan class="cls-13" x="93.97" y="22.8">gi</tspan><tspan class="cls-2" x="109.77" y="22.8">c</tspan><tspan x="119.17" y="22.8">as</tspan></tspan><tspan class="cls-33"><tspan class="cls-7" x="0" y="66">R</tspan><tspan class="cls-21" x="9.7" y="66">e</tspan><tspan class="cls-4" x="19.58" y="66">e</tspan><tspan class="cls-11" x="29.54" y="66">m</tspan><tspan class="cls-30" x="45.65" y="66">b</tspan><tspan class="cls-32" x="56.29" y="66">o</tspan><tspan x="66.22" y="66">l</tspan><tspan class="cls-29" x="69.64" y="66">s</tspan><tspan x="77.31" y="66">a </tspan><tspan class="cls-3" x="92.09" y="66">de</tspan><tspan x="112.84" y="66">s</tspan><tspan class="cls-30" x="120.57" y="66">p</tspan><tspan class="cls-29" x="131.21" y="66">es</tspan><tspan x="148.87" y="66">as </tspan><tspan class="cls-29" x="171.38" y="66">d</tspan><tspan x="182.14" y="66">e </tspan></tspan><tspan class="cls-33"><tspan x="0" y="87.6">t</tspan><tspan class="cls-10" x="6.21" y="87.6">r</tspan><tspan x="12.04" y="87.6">a</tspan><tspan class="cls-27" x="22.5" y="87.6">t</tspan><tspan x="28.47" y="87.6">a</tspan><tspan class="cls-21" x="38.93" y="87.6">m</tspan><tspan class="cls-4" x="54.74" y="87.6">e</tspan><tspan x="64.7" y="87.6">n</tspan><tspan class="cls-18" x="74.35" y="87.6">t</tspan><tspan class="cls-3" x="80.32" y="87.6">o</tspan><tspan x="90.33" y="87.6">s </tspan><tspan class="cls-30" x="102.38" y="87.6">mé</tspan><tspan x="128.07" y="87.6">d</tspan><tspan class="cls-4" x="138.9" y="87.6">i</tspan><tspan class="cls-31" x="142.23" y="87.6">c</tspan><tspan class="cls-29" x="151.28" y="87.6">o</tspan><tspan class="cls-9" x="161.3" y="87.6">s</tspan><tspan x="169" y="87.6">, </tspan><tspan class="cls-29" x="176.94" y="87.6">d</tspan><tspan x="187.7" y="87.6">e </tspan><tspan class="cls-21" x="202.08" y="87.6">h</tspan><tspan class="cls-29" x="211.54" y="87.6">o</tspan><tspan x="221.56" y="87.6">s</tspan><tspan class="cls-30" x="229.29" y="87.6">p</tspan><tspan x="239.93" y="87.6">i</tspan><tspan class="cls-27" x="243.35" y="87.6">t</tspan><tspan class="cls-11" x="249.32" y="87.6">a</tspan><tspan x="259.89" y="87.6">l </tspan></tspan><tspan class="cls-33"><tspan class="cls-21" x="0" y="109.2">o</tspan><tspan x="9.9" y="109.2">u </tspan><tspan class="cls-29" x="23.51" y="109.2">d</tspan><tspan class="cls-4" x="34.27" y="109.2">e</tspan><tspan x="44.23" y="109.2">n</tspan><tspan class="cls-29" x="53.88" y="109.2">ti</tspan><tspan x="63.39" y="109.2">s</tspan><tspan class="cls-27" x="71.12" y="109.2">t</tspan><tspan x="77.08" y="109.2">a, </tspan><tspan class="cls-29" x="95.48" y="109.2">d</tspan><tspan class="cls-21" x="106.24" y="109.2">e</tspan><tspan class="cls-31" x="116.12" y="109.2">c</tspan><tspan class="cls-4" x="125.17" y="109.2">or</tspan><tspan class="cls-10" x="141.51" y="109.2">r</tspan><tspan class="cls-4" x="147.34" y="109.2">e</tspan><tspan x="157.3" y="109.2">n</tspan><tspan class="cls-27" x="166.95" y="109.2">t</tspan><tspan class="cls-29" x="172.92" y="109.2">e</tspan><tspan x="182.91" y="109.2">s </tspan><tspan class="cls-29" x="194.96" y="109.2">d</tspan><tspan x="205.72" y="109.2">e um </tspan></tspan><tspan class="cls-33"><tspan class="cls-21" x="0" y="130.8">a</tspan><tspan class="cls-1" x="10.28" y="130.8">c</tspan><tspan class="cls-4" x="19.3" y="130.8">i</tspan><tspan class="cls-29" x="22.63" y="130.8">d</tspan><tspan class="cls-34" x="33.39" y="130.8">e</tspan><tspan x="43.35" y="130.8">n</tspan><tspan class="cls-18" x="53" y="130.8">t</tspan><tspan x="58.97" y="130.8">e </tspan><tspan class="cls-4" x="73.34" y="130.8">p</tspan><tspan class="cls-16" x="84.07" y="130.8">r</tspan><tspan class="cls-14" x="89.9" y="130.8">e</tspan><tspan class="cls-31" x="99.48" y="130.8">v</tspan><tspan class="cls-29" x="108.61" y="130.8">i</tspan><tspan x="111.97" y="130.8">s</tspan><tspan class="cls-27" x="119.7" y="130.8">t</tspan><tspan x="125.67" y="130.8">o </tspan><tspan class="cls-21" x="140.07" y="130.8">n</tspan><tspan x="149.54" y="130.8">a </tspan><tspan class="cls-31" x="164.31" y="130.8">c</tspan><tspan class="cls-1" x="173.37" y="130.8">o</tspan><tspan class="cls-21" x="183.29" y="130.8">b</tspan><tspan class="cls-4" x="193.94" y="130.8">e</tspan><tspan x="203.9" y="130.8">rtu</tspan><tspan class="cls-10" x="225.84" y="130.8">r</tspan><tspan x="231.67" y="130.8">a.</tspan></tspan></text>
</svg>