<?xml version="1.0" encoding="UTF-8"?>
<svg id="Layer_1" data-name="Layer 1" xmlns="http://www.w3.org/2000/svg" viewBox="0 0 366.28 305.38">
  <defs>
    <style>
      .cls-1 {
        letter-spacing: 0em;
      }

      .cls-2 {
        letter-spacing: 0em;
      }

      .cls-3 {
        letter-spacing: -.04em;
      }

      .cls-4 {
        letter-spacing: 0em;
      }

      .cls-5 {
        letter-spacing: -.01em;
      }

      .cls-6 {
        letter-spacing: -.02em;
      }

      .cls-7 {
        letter-spacing: 0em;
      }

      .cls-8 {
        letter-spacing: -.04em;
      }

      .cls-9 {
        font-family: UrbanistRoman-Bold, Urbanist;
        font-size: 23.99px;
        font-variation-settings: 'wght' 700;
        font-weight: 700;
      }

      .cls-9, .cls-10 {
        fill: #130044;
      }

      .cls-11 {
        letter-spacing: -.01em;
      }
    </style>
  </defs>
  <path class="cls-10" d="M337.15,8.99c11.1,0,20.14,9.03,20.14,20.14v247.12c0,11.1-9.03,20.14-20.14,20.14H29.13c-11.1,0-20.13-9.03-20.13-20.14V29.13c0-11.1,9.03-20.14,20.13-20.14h308.02M337.15,0H29.13C13.11,0,0,13.11,0,29.13v247.12c0,16.02,13.11,29.13,29.13,29.13h308.02c16.02,0,29.13-13.11,29.13-29.13V29.13c0-16.02-13.11-29.13-29.13-29.13h0Z"/>
  <text class="cls-9" transform="translate(27.59 274.23)"><tspan class="cls-3" x="0" y="0">P</tspan><tspan class="cls-5" x="12.22" y="0">o</tspan><tspan x="25.38" y="0">r</tspan><tspan class="cls-11" x="34.61" y="0">t</tspan><tspan class="cls-4" x="42.94" y="0">a</tspan><tspan class="cls-6" x="57.36" y="0">b</tspan><tspan class="cls-1" x="71.68" y="0">i</tspan><tspan x="77.51" y="0">l</tspan><tspan class="cls-5" x="83.32" y="0">i</tspan><tspan class="cls-2" x="88.85" y="0">d</tspan><tspan class="cls-7" x="103.54" y="0">a</tspan><tspan class="cls-2" x="117.67" y="0">d</tspan><tspan x="132.36" y="0">e g</tspan><tspan class="cls-8" x="166.24" y="0">r</tspan><tspan x="174.57" y="0">atui</tspan><tspan class="cls-11" x="216.24" y="0">t</tspan><tspan x="224.56" y="0">a</tspan></text>
  <polygon class="cls-10" points="338.69 262.6 330.04 262.6 330.04 253.95 324.38 253.95 324.38 262.6 315.73 262.6 315.73 268.27 324.38 268.27 324.38 276.92 330.04 276.92 330.04 268.27 338.69 268.27 338.69 262.6"/>
  <g>
    <path class="cls-10" d="M52.71,56.34v-.8c0-.45-.36-.81-.81-.81s-.81.36-.81.81v.8c-.89.18-1.69.66-2.28,1.35-1.05,1.24-.81,3.13.48,4.13l1.81,1.41v4.42c-.94-.33-1.62-1.23-1.62-2.29,0-.45-.36-.81-.81-.81s-.81.36-.81.81c0,1.96,1.39,3.6,3.24,3.97v.71c0,.45.36.81.81.81s.81-.36.81-.81v-.71c.89-.18,1.69-.66,2.28-1.35,1.05-1.24.81-3.13-.48-4.13l-1.81-1.41v-4.42c.94.33,1.62,1.23,1.62,2.29,0,.45.36.81.81.81s.81-.36.81-.81c0-1.96-1.39-3.6-3.24-3.97ZM53.53,65.12c.57.45.68,1.28.24,1.8-.28.33-.64.58-1.05.72v-3.16l.81.63ZM50.28,60.55c-.57-.45-.68-1.28-.24-1.8.28-.33.64-.58,1.05-.72v3.16l-.81-.63Z"/>
    <path class="cls-10" d="M73.78,48.25h-5.88c-1.03-1.47-2.73-2.43-4.65-2.43s-3.63.96-4.65,2.43h-2.64v-6.48h3.24c.7,0,1.07-.83.6-1.35l-7.29-8.1c-.32-.36-.88-.36-1.2,0l-7.29,8.1c-.47.52-.1,1.35.6,1.35h3.24v6.48h-19.45c-.45,0-.81.36-.81.81v28.36c0,.45.36.81.81.81h45.38c.45,0,.81-.36.81-.81v-28.36c0-.45-.36-.81-.81-.81ZM40.49,70.03s0,.04-.01.06c-.03.15-.07.31-.12.46,0,.01,0,.02-.01.04-.02.06-.04.12-.07.18,0,.02-.01.04-.02.05-.02.06-.05.11-.07.17,0,.02-.01.03-.02.05-.07.14-.14.28-.22.41,0,.01-.02.03-.02.04-.03.05-.07.1-.1.15-.01.02-.02.03-.03.05-.04.05-.07.1-.11.15,0,.01-.02.02-.02.03-.1.12-.21.24-.32.35,0,0,0,0-.01.01-.06.05-.11.11-.17.16,0,0,0,0,0,0-.13.11-.26.21-.4.3,0,0,0,0-.01,0-.64.42-1.4.67-2.23.67-2.24,0-4.05-1.81-4.05-4.05,0-.82.25-1.59.67-2.23,0,0,0,0,0,0,.09-.14.19-.27.3-.4,0,0,0,0,0,0,.05-.06.1-.12.16-.17,0,0,0,0,.01-.01.11-.11.23-.22.35-.32.01,0,.02-.02.03-.03.05-.04.1-.07.15-.11.02-.01.03-.02.05-.04.05-.03.1-.07.15-.1.02,0,.03-.02.05-.03.07-.04.13-.08.2-.12,0,0,0,0,0,0,.06-.03.13-.07.19-.1.02,0,.04-.02.06-.03.05-.02.1-.05.16-.07.02,0,.04-.02.06-.02.06-.02.11-.04.17-.06.01,0,.03-.01.04-.01.08-.02.15-.05.23-.07,0,0,0,0,0,0,.07-.02.15-.03.22-.05.02,0,.04,0,.06-.01.06,0,.11-.02.17-.03.02,0,.05,0,.07,0,.06,0,.11-.01.17-.02.02,0,.05,0,.07,0,.08,0,.16,0,.24,0,2.24,0,4.05,1.81,4.05,4.05,0,.08,0,.16,0,.24,0,.02,0,.05,0,.07,0,.06,0,.11-.02.17,0,.02,0,.05,0,.07,0,.06-.02.11-.03.17ZM41.18,72.53s.04-.06.06-.1c.02-.04.05-.07.07-.11.02-.03.04-.07.06-.1.02-.04.05-.08.07-.12.03-.06.06-.11.09-.17.02-.04.04-.08.06-.12.02-.04.04-.08.06-.12.02-.03.03-.07.05-.1.02-.04.04-.08.05-.12.01-.03.03-.07.04-.1.02-.04.03-.08.05-.13.02-.07.05-.14.07-.2.01-.04.03-.08.04-.13.01-.04.02-.08.03-.11.01-.04.02-.08.03-.13.01-.04.02-.08.03-.12,0-.04.02-.08.03-.12.01-.07.03-.14.04-.21,0-.03,0-.06.01-.09,0-.06.02-.12.02-.18,0-.03,0-.06,0-.1,0-.06,0-.12.01-.18,0-.03,0-.06,0-.08,0-.09,0-.17,0-.26,0-3.13-2.54-5.67-5.67-5.67-.09,0-.18,0-.26,0-.03,0-.06,0-.08,0-.06,0-.12,0-.18.01-.03,0-.06,0-.09,0-.06,0-.12.01-.19.02-.03,0-.05,0-.08.01-.08.01-.15.03-.23.04-.04,0-.07.02-.11.02-.04,0-.09.02-.13.03-.04,0-.08.02-.12.03-.04.01-.08.02-.12.04-.04.01-.08.02-.12.03-.07.02-.14.05-.21.07-.04.01-.08.03-.11.04-.04.01-.08.03-.12.05-.04.02-.08.03-.12.05-.04.02-.08.03-.11.05-.04.02-.07.03-.11.05-.05.02-.1.05-.15.08-.04.02-.09.05-.13.07-.05.03-.09.05-.14.08-.03.02-.06.04-.09.06-.04.02-.08.05-.12.08-.03.02-.06.04-.09.06-.01,0-.02.01-.03.02v-6.71c2.59-.2,4.65-2.26,4.85-4.85h19.7c.3,1,.87,1.89,1.62,2.58.44.4.94.72,1.48.97.09.04.18.08.27.11.01,0,.03.01.04.01.06.02.11.04.17.06.02,0,.04.01.07.02.05.02.11.04.16.05.03,0,.05.01.08.02.05.02.11.03.16.04.02,0,.03,0,.05.01.1.02.19.04.29.06.05,0,.09.02.14.02.04,0,.08.01.12.02.05,0,.1.01.15.02.04,0,.07,0,.11.01.06,0,.12,0,.17.01.03,0,.06,0,.09,0,.09,0,.18,0,.27,0h0c.11,0,.21,0,.31,0,.03,0,.05,0,.08,0,.08,0,.16-.01.23-.02.03,0,.06,0,.09-.01.08,0,.16-.02.23-.03.02,0,.05,0,.07-.01.08-.02.17-.03.25-.05.02,0,.03,0,.05-.01.42-.1.82-.24,1.19-.43.86.8,1.97,1.29,3.16,1.38v9.76c-2.59.2-4.65,2.26-4.85,4.85h-22.91s.01-.02.02-.03ZM63.25,47.44c1.48,0,2.78.79,3.48,1.98,0,.02.01.03.02.05.26.45.44.95.51,1.47,0,.02,0,.04,0,.06,0,.06.01.12.02.18,0,.03,0,.05,0,.08,0,.07,0,.13,0,.2,0,.01,0,.03,0,.04,0,1.4-.71,2.64-1.8,3.37-.02,0-.03.02-.05.03-.29.19-.59.34-.91.45,0,0,0,0,0,0-.12.04-.25.08-.37.11-.02,0-.05.01-.07.02-.03,0-.06.01-.09.02-.03,0-.07.01-.1.02-.02,0-.05,0-.07.01-.06,0-.11.02-.17.02-.02,0-.04,0-.05,0-.05,0-.09,0-.14.01-.02,0-.04,0-.06,0-.06,0-.12,0-.18,0-.07,0-.13,0-.2,0-.02,0-.05,0-.07,0-.04,0-.08,0-.12,0-.03,0-.06,0-.09-.01-.03,0-.07,0-.1-.01-.03,0-.07-.01-.1-.02-.03,0-.05,0-.08-.01-.04,0-.07-.01-.11-.02-.02,0-.04,0-.06-.01-.04,0-.08-.02-.12-.03-.01,0-.03,0-.04-.01-.05-.01-.09-.03-.14-.04,0,0,0,0,0,0-1.41-.46-2.49-1.67-2.74-3.18,0-.03-.01-.05-.02-.08-.03-.2-.04-.4-.04-.6,0-.08,0-.17,0-.25,0-.01,0-.03,0-.04,0-.07.01-.15.02-.22,0,0,0-.02,0-.03.07-.52.24-1.02.51-1.48,0-.01.01-.03.02-.04.71-1.19,2-1.98,3.48-1.98ZM48.66,40.14h-2.23l5.47-6.08,5.47,6.08h-2.23c-.45,0-.81.36-.81.81v7.29h-4.86v-7.29c0-.45-.36-.81-.81-.81ZM72.97,76.61H29.21v-26.74h28.6c-.06.19-.1.38-.14.58,0,.01,0,.03,0,.04-.02.1-.03.2-.05.31,0,.02,0,.05,0,.07,0,.04,0,.08-.01.12,0,.05,0,.09-.01.14,0,.04,0,.07,0,.11,0,.07,0,.13,0,.2,0,.02,0,.03,0,.05h-20.28c-.48,0-.85.41-.81.88.01.12.02.23.02.33,0,2.01-1.63,3.65-3.65,3.65-.1,0-.2,0-.34-.02-.47-.04-.88.33-.88.81v9.25c-.51.85-.81,1.85-.81,2.92,0,3.13,2.54,5.67,5.67,5.67,1.07,0,2.07-.3,2.92-.81h25.46c.47,0,.85-.41.81-.88-.01-.14-.02-.24-.02-.34,0-2.01,1.63-3.65,3.65-3.65.1,0,.2,0,.34.02.47.04.88-.33.88-.81v-11.39c0-.47-.41-.85-.88-.81-.14.01-.24.02-.34.02-.81,0-1.57-.26-2.19-.73,1.1-1.03,1.79-2.5,1.79-4.13,0-.09,0-.18,0-.27,0-.02,0-.04,0-.06,0-.07,0-.14-.02-.21,0-.02,0-.05,0-.07,0-.08-.02-.15-.03-.23,0-.04-.01-.09-.02-.13,0-.03-.01-.06-.02-.09-.01-.06-.02-.11-.03-.17,0,0,0,0,0,0-.03-.13-.06-.26-.1-.39h4.29v26.74h0Z"/>
  </g>
</svg>