<?xml version="1.0" encoding="UTF-8"?>
<svg id="Layer_1" data-name="Layer 1" xmlns="http://www.w3.org/2000/svg" viewBox="0 0 366.28 305.38">
  <defs>
    <style>
      .cls-1 {
        letter-spacing: 0em;
      }

      .cls-2 {
        letter-spacing: 0em;
      }

      .cls-3 {
        letter-spacing: -.01em;
      }

      .cls-4 {
        letter-spacing: 0em;
      }

      .cls-5 {
        letter-spacing: -.02em;
      }

      .cls-6 {
        letter-spacing: 0em;
      }

      .cls-7 {
        fill: #fff;
      }

      .cls-8 {
        letter-spacing: -.01em;
      }

      .cls-9 {
        letter-spacing: 0em;
      }

      .cls-10 {
        letter-spacing: -.03em;
      }

      .cls-11 {
        letter-spacing: 0em;
      }

      .cls-12 {
        letter-spacing: -.03em;
      }

      .cls-13 {
        letter-spacing: -.02em;
      }

      .cls-14 {
        letter-spacing: 0em;
      }

      .cls-15 {
        letter-spacing: 0em;
      }

      .cls-16 {
        letter-spacing: -.01em;
      }

      .cls-17 {
        letter-spacing: 0em;
      }

      .cls-18 {
        font-family: UrbanistRoman-Bold, Urbanist;
        font-size: 23.99px;
        font-variation-settings: 'wght' 700;
        font-weight: 700;
      }

      .cls-19 {
        letter-spacing: -.01em;
      }

      .cls-20 {
        letter-spacing: -.02em;
      }

      .cls-21 {
        letter-spacing: 0em;
      }

      .cls-22 {
        letter-spacing: -.01em;
      }

      .cls-23 {
        letter-spacing: 0em;
      }

      .cls-24 {
        letter-spacing: 0em;
      }

      .cls-25 {
        font-family: Urbanist-Regular, Urbanist;
        font-size: 18px;
        font-variation-settings: 'wght' 400;
      }

      .cls-26 {
        letter-spacing: 0em;
      }

      .cls-27 {
        letter-spacing: -.02em;
      }

      .cls-28 {
        fill: #130044;
      }
    </style>
  </defs>
  <rect class="cls-28" x="0" y="0" width="366.28" height="305.38" rx="29.13" ry="29.13"/>
  <path id="farm--02" class="cls-7" d="M44.47,78.23h-1.17c0-2.12,1.72-3.84,3.84-3.84h26.06v1.17h-26.06c-1.47,0-2.67,1.2-2.67,2.67ZM41.21,78.23h-1.17c0-3.92,3.19-7.1,7.1-7.1h26.06v1.17h-26.06c-3.27,0-5.93,2.66-5.93,5.93ZM37.95,78.23h-1.17c0-5.71,4.65-10.36,10.36-10.36h26.06v1.17h-26.06c-5.07,0-9.19,4.12-9.19,9.18ZM34.69,78.23h-1.17c0-2.12.49-4.14,1.36-5.93h-7.29v-1.17h7.93c.46-.74.98-1.44,1.57-2.08h-9.5v-1.17h10.72c.99-.84,2.1-1.55,3.3-2.08h-14.02v-1.17h1.04v-11.64c0-1.45.37-2.88,1.07-4.11.77-1.36,2.11-2.16,3.58-2.16s2.81.81,3.58,2.16c.7,1.23,1.07,2.66,1.07,4.11v1.68c.91-.56,2.01-.83,3.12-.75,1.54.11,2.9.87,3.73,2.1h0c.85,1.25,1.29,2.68,1.29,4.15v4.51c.34-.03.69-.04,1.04-.04h7.56v-8.59l-2.26,2.26-.83-.83,10.59-10.59c.23-.23.6-.23.83,0l10.59,10.59-.83.83-2.26-2.26v8.59h2.67v1.17h-26.06c-6.86,0-12.44,5.58-12.44,12.44ZM65.64,64.61h3.71v-9.76l-6.74-6.74-6.74,6.74v9.76h3.71v-5.11c0-.32.26-.59.59-.59h4.89c.32,0,.59.26.59.59v5.11h0ZM60.75,64.61h3.71v-4.53h-3.71v4.53ZM41.21,64.61h3.71v-4.47c0-1.23-.38-2.44-1.09-3.49h0c-.63-.92-1.67-1.5-2.85-1.59-1.21-.09-2.41.37-3.18,1.22-.16.18-.42.24-.64.15-.22-.09-.37-.3-.37-.55v-2.91c0-1.25-.32-2.47-.92-3.53-.56-.99-1.52-1.57-2.56-1.57s-2,.59-2.56,1.57c-.6,1.06-.92,2.28-.92,3.53v11.64h2.08v-12.44h1.17v12.44h6.97v-5.93h1.17s0,5.93,0,5.93ZM63.43,55.2h-1.63c-.32,0-.59-.26-.59-.59v-3.26c0-.32.26-.59.59-.59h1.63c.32,0,.59.26.59.59v3.26c0,.32-.26.59-.59.59ZM62.38,54.03h.45v-2.08h-.45v2.08ZM68.08,44.03h-1.17v-1.63h1.17v1.63h0ZM71.11,42.77l-1.15-1.15.83-.83,1.15,1.15-.83.83ZM63.88,42.77l-.83-.83,1.15-1.15.83.83-1.15,1.15ZM67.5,41.36c-1.67,0-3.03-1.36-3.03-3.03s1.36-3.03,3.03-3.03,3.03,1.36,3.03,3.03-1.36,3.03-3.03,3.03ZM67.5,36.47c-1.02,0-1.86.83-1.86,1.86s.83,1.86,1.86,1.86,1.86-.83,1.86-1.86-.83-1.86-1.86-1.86ZM73.2,38.91h-1.63v-1.17h1.63v1.17ZM63.43,38.91h-1.63v-1.17h1.63v1.17ZM47.14,36.47h-4.89v-1.17h4.89v1.17ZM38.99,36.47h-11.4v-1.17h11.4v1.17ZM70.79,35.86l-.83-.83,1.15-1.15.83.83-1.15,1.15ZM64.2,35.86l-1.15-1.15.83-.83,1.15,1.15-.83.83ZM68.08,34.25h-1.17v-1.63h1.17v1.63h0ZM48.77,33.21h-21.17v-1.17h21.17v1.17Z"/>
  <text class="cls-7" transform="translate(27.59 119.7)"><tspan class="cls-18"><tspan class="cls-5" x="0" y="0">E</tspan><tspan class="cls-20" x="12.73" y="0">q</tspan><tspan x="27.2" y="0">u</tspan><tspan class="cls-1" x="40.11" y="0">i</tspan><tspan class="cls-15" x="45.73" y="0">p</tspan><tspan x="60.34" y="0">a</tspan><tspan class="cls-15" x="74.71" y="0">m</tspan><tspan class="cls-8" x="95.78" y="0">e</tspan><tspan x="108.92" y="0">n</tspan><tspan class="cls-16" x="122.31" y="0">t</tspan><tspan class="cls-1" x="130.63" y="0">o</tspan><tspan x="143.88" y="0">s </tspan><tspan class="cls-15" x="160.06" y="0">a</tspan><tspan x="174.19" y="0">g</tspan><tspan class="cls-20" x="188.89" y="0">r</tspan><tspan class="cls-8" x="197.76" y="0">í</tspan><tspan class="cls-13" x="203.28" y="0">c</tspan><tspan class="cls-27" x="215.15" y="0">o</tspan><tspan class="cls-1" x="228.12" y="0">l</tspan><tspan x="233.75" y="0">as</tspan></tspan><tspan class="cls-25"><tspan x="0" y="43.2">O</tspan><tspan class="cls-3" x="13.86" y="43.2">f</tspan><tspan class="cls-26" x="19.66" y="43.2">e</tspan><tspan class="cls-10" x="29.62" y="43.2">r</tspan><tspan class="cls-22" x="35.45" y="43.2">e</tspan><tspan class="cls-23" x="45.32" y="43.2">c</tspan><tspan x="54.38" y="43.2">e a </tspan><tspan class="cls-21" x="83.53" y="43.2">s</tspan><tspan class="cls-17" x="91.2" y="43.2">e</tspan><tspan class="cls-23" x="101.07" y="43.2">g</tspan><tspan x="111.53" y="43.2">u</tspan><tspan class="cls-10" x="120.82" y="43.2">r</tspan><tspan x="126.65" y="43.2">a</tspan><tspan class="cls-17" x="137.11" y="43.2">n</tspan><tspan class="cls-23" x="146.57" y="43.2">ç</tspan><tspan x="155.63" y="43.2">a </tspan><tspan class="cls-23" x="170.41" y="43.2">q</tspan><tspan class="cls-21" x="181.11" y="43.2">u</tspan><tspan x="190.33" y="43.2">e </tspan><tspan class="cls-12" x="204.7" y="43.2">v</tspan><tspan class="cls-17" x="213.48" y="43.2">o</tspan><tspan class="cls-23" x="223.38" y="43.2">c</tspan><tspan x="232.43" y="43.2">ê </tspan></tspan><tspan class="cls-25"><tspan class="cls-6" x="0" y="64.8">p</tspan><tspan class="cls-10" x="10.73" y="64.8">r</tspan><tspan class="cls-17" x="16.56" y="64.8">e</tspan><tspan class="cls-24" x="26.43" y="64.8">c</tspan><tspan class="cls-21" x="35.45" y="64.8">is</tspan><tspan x="46.48" y="64.8">a </tspan><tspan class="cls-17" x="61.25" y="64.8">p</tspan><tspan x="71.89" y="64.8">a</tspan><tspan class="cls-10" x="82.35" y="64.8">r</tspan><tspan x="88.18" y="64.8">a s</tspan><tspan class="cls-21" x="110.69" y="64.8">u</tspan><tspan x="119.92" y="64.8">as </tspan><tspan class="cls-9" x="142.42" y="64.8">i</tspan><tspan x="145.82" y="64.8">ns</tspan><tspan class="cls-19" x="163.2" y="64.8">t</tspan><tspan class="cls-11" x="169.16" y="64.8">a</tspan><tspan class="cls-21" x="179.74" y="64.8">l</tspan><tspan class="cls-17" x="183.1" y="64.8">a</tspan><tspan class="cls-2" x="193.37" y="64.8">ç</tspan><tspan class="cls-17" x="202.43" y="64.8">õ</tspan><tspan class="cls-21" x="212.33" y="64.8">e</tspan><tspan class="cls-9" x="222.32" y="64.8">s</tspan><tspan x="230.02" y="64.8">, </tspan></tspan><tspan class="cls-25"><tspan class="cls-17" x="0" y="86.4">e</tspan><tspan x="9.87" y="86.4">di</tspan><tspan class="cls-21" x="24.12" y="86.4">f</tspan><tspan class="cls-6" x="30.06" y="86.4">i</tspan><tspan class="cls-23" x="33.39" y="86.4">c</tspan><tspan class="cls-22" x="42.44" y="86.4">a</tspan><tspan class="cls-23" x="52.72" y="86.4">ç</tspan><tspan class="cls-17" x="61.78" y="86.4">õ</tspan><tspan class="cls-21" x="71.68" y="86.4">e</tspan><tspan x="81.67" y="86.4">s e </tspan><tspan class="cls-23" x="108.09" y="86.4">c</tspan><tspan class="cls-6" x="117.14" y="86.4">o</tspan><tspan x="127.13" y="86.4">nst</tspan><tspan class="cls-17" x="150.72" y="86.4">r</tspan><tspan class="cls-21" x="156.98" y="86.4">u</tspan><tspan class="cls-23" x="166.2" y="86.4">ç</tspan><tspan class="cls-22" x="175.26" y="86.4">õ</tspan><tspan class="cls-21" x="185.16" y="86.4">e</tspan><tspan x="195.15" y="86.4">s </tspan><tspan class="cls-17" x="207.2" y="86.4">r</tspan><tspan x="213.45" y="86.4">u</tspan><tspan class="cls-10" x="222.74" y="86.4">r</tspan><tspan x="228.57" y="86.4">a</tspan><tspan class="cls-4" x="239.03" y="86.4">i</tspan><tspan class="cls-14" x="242.39" y="86.4">s</tspan><tspan x="250.09" y="86.4">. </tspan></tspan></text>
</svg>