<?xml version="1.0" encoding="UTF-8"?>
<svg id="Layer_1" data-name="Layer 1" xmlns="http://www.w3.org/2000/svg" viewBox="0 0 366.28 305.38">
  <defs>
    <style>
      .cls-1 {
        letter-spacing: -.04em;
      }

      .cls-2 {
        letter-spacing: 0em;
      }

      .cls-3 {
        letter-spacing: 0em;
      }

      .cls-4 {
        letter-spacing: 0em;
      }

      .cls-5 {
        letter-spacing: -.04em;
      }

      .cls-6 {
        letter-spacing: .01em;
      }

      .cls-7 {
        letter-spacing: -.02em;
      }

      .cls-8 {
        letter-spacing: 0em;
      }

      .cls-9, .cls-10 {
        fill: #fff;
      }

      .cls-11 {
        letter-spacing: -.01em;
      }

      .cls-12 {
        letter-spacing: -.02em;
      }

      .cls-13 {
        letter-spacing: 0em;
      }

      .cls-14 {
        letter-spacing: -.01em;
      }

      .cls-15 {
        letter-spacing: -.02em;
      }

      .cls-16 {
        font-family: UrbanistRoman-Bold, Urbanist;
        font-variation-settings: 'wght' 700;
        font-weight: 700;
      }

      .cls-17 {
        letter-spacing: 0em;
      }

      .cls-18 {
        letter-spacing: -.02em;
      }

      .cls-19 {
        letter-spacing: -.01em;
      }

      .cls-20 {
        letter-spacing: 0em;
      }

      .cls-21 {
        letter-spacing: -.03em;
      }

      .cls-22 {
        letter-spacing: 0em;
      }

      .cls-23 {
        letter-spacing: -.03em;
      }

      .cls-24 {
        letter-spacing: 0em;
      }

      .cls-25 {
        letter-spacing: -.04em;
      }

      .cls-10 {
        font-size: 16px;
      }

      .cls-26 {
        letter-spacing: -.02em;
      }

      .cls-27 {
        letter-spacing: -.03em;
      }

      .cls-28 {
        letter-spacing: -.01em;
      }

      .cls-29 {
        letter-spacing: -.03em;
      }

      .cls-30 {
        letter-spacing: 0em;
      }

      .cls-31 {
        letter-spacing: 0em;
      }

      .cls-32 {
        letter-spacing: -.01em;
      }

      .cls-33 {
        letter-spacing: -.01em;
      }

      .cls-34 {
        letter-spacing: 0em;
      }

      .cls-35 {
        letter-spacing: -.04em;
      }

      .cls-36 {
        font-family: Urbanist-Regular, Urbanist;
        font-variation-settings: 'wght' 400;
      }

      .cls-37 {
        letter-spacing: 0em;
      }

      .cls-38 {
        fill: #130044;
      }
    </style>
  </defs>
  <rect class="cls-38" x="0" y="0" width="366.28" height="305.38" rx="29.13" ry="29.13"/>
  <path class="cls-9" d="M84.79,77.21c0,.56-.46,1.02-1.02,1.02h-36.77c-.56,0-1.02-.46-1.02-1.02s.46-1.02,1.02-1.02h36.77c.56,0,1.02.46,1.02,1.02ZM79.41,70.02l-45.1-12.63c-3.96-1.12-6.7-4.73-6.71-8.85v-13.44c0-1.69,1.37-3.06,3.06-3.06.33,0,.66.05.97.16l3.44,1.15c.25.08.46.26.58.49l3.89,7.29,6.45,2.01v-8.03c0-1.69,1.37-3.06,3.06-3.06.33,0,.66.05.97.16l3.44,1.15c.24.08.44.24.56.46l7.96,13.93,12,3.33c3.97,1.11,6.72,4.73,6.73,8.86v9.11c0,.56-.46,1.02-1.02,1.02-.09,0-.19-.01-.28-.04ZM78.66,59.93c0-3.21-2.15-6.02-5.24-6.89l-12.4-3.44c-.26-.07-.48-.24-.61-.48l-7.98-13.96-3.07-1.02c-.54-.18-1.11.11-1.29.65-.03.1-.05.21-.05.32v9.42c0,.56-.46,1.02-1.02,1.02-.1,0-.21-.02-.3-.05l-8.17-2.55c-.26-.08-.47-.26-.6-.49l-3.89-7.3-3.05-1.02c-.11-.04-.22-.05-.33-.05-.56,0-1.02.46-1.02,1.02v13.44c0,3.2,2.14,6.01,5.22,6.88l43.8,12.27v-7.76Z"/>
  <text class="cls-10" transform="translate(27.59 113.71)"><tspan class="cls-16"><tspan class="cls-25" x="0" y="0">C</tspan><tspan class="cls-26" x="10.68" y="0">o</tspan><tspan x="19.34" y="0">l</tspan><tspan class="cls-17" x="23.21" y="0">is</tspan><tspan class="cls-24" x="33.79" y="0">ão</tspan><tspan x="52.02" y="0">, </tspan><tspan class="cls-18" x="59.9" y="0">q</tspan><tspan class="cls-17" x="69.56" y="0">u</tspan><tspan class="cls-24" x="78.05" y="0">e</tspan><tspan class="cls-17" x="86.84" y="0">d</tspan><tspan x="96.64" y="0">a e/</tspan><tspan class="cls-15" x="125.5" y="0">o</tspan><tspan class="cls-20" x="134.09" y="0">u a</tspan><tspan class="cls-32" x="156.12" y="0">t</tspan><tspan class="cls-14" x="161.67" y="0">er</tspan><tspan class="cls-7" x="176.42" y="0">r</tspan><tspan class="cls-17" x="182.33" y="0">i</tspan><tspan x="186.08" y="0">s</tspan><tspan class="cls-30" x="193.03" y="0">s</tspan><tspan class="cls-24" x="199.87" y="0">a</tspan><tspan class="cls-19" x="209.29" y="0">ge</tspan><tspan x="227.68" y="0">m </tspan></tspan><tspan class="cls-16"><tspan class="cls-11" x="0" y="19.2">f</tspan><tspan class="cls-19" x="5.61" y="19.2">o</tspan><tspan class="cls-1" x="14.38" y="19.2">r</tspan><tspan class="cls-18" x="19.94" y="19.2">ç</tspan><tspan class="cls-24" x="27.86" y="19.2">a</tspan><tspan class="cls-17" x="37.28" y="19.2">d</tspan><tspan x="47.08" y="19.2">a </tspan><tspan class="cls-17" x="60.5" y="19.2">d</tspan><tspan x="70.3" y="19.2">e </tspan><tspan class="cls-24" x="83.1" y="19.2">a</tspan><tspan class="cls-19" x="92.52" y="19.2">e</tspan><tspan class="cls-5" x="101.29" y="19.2">r</tspan><tspan class="cls-14" x="106.85" y="19.2">o</tspan><tspan class="cls-33" x="115.63" y="19.2">n</tspan><tspan class="cls-12" x="124.39" y="19.2">a</tspan><tspan class="cls-35" x="133.61" y="19.2">v</tspan><tspan x="142.35" y="19.2">e </tspan><tspan class="cls-7" x="155.14" y="19.2">c</tspan><tspan class="cls-14" x="163.05" y="19.2">o</tspan><tspan x="171.83" y="19.2">m</tspan><tspan class="cls-19" x="186.04" y="19.2">p</tspan><tspan class="cls-1" x="195.76" y="19.2">r</tspan><tspan class="cls-35" x="201.32" y="19.2">ov</tspan><tspan class="cls-24" x="218.45" y="19.2">a</tspan><tspan class="cls-30" x="227.87" y="19.2">d</tspan><tspan x="237.67" y="19.2">a</tspan></tspan><tspan class="cls-36"><tspan class="cls-27" x="0" y="57.6">C</tspan><tspan class="cls-3" x="10.78" y="57.6">o</tspan><tspan class="cls-34" x="19.61" y="57.6">b</tspan><tspan class="cls-29" x="29.15" y="57.6">r</tspan><tspan x="34.34" y="57.6">e </tspan><tspan class="cls-8" x="47.11" y="57.6">o</tspan><tspan x="56.02" y="57.6">s </tspan><tspan class="cls-2" x="66.73" y="57.6">p</tspan><tspan class="cls-29" x="76.26" y="57.6">r</tspan><tspan class="cls-24" x="81.45" y="57.6">e</tspan><tspan class="cls-4" x="90.22" y="57.6">j</tspan><tspan x="93.65" y="57.6">uí</tspan><tspan class="cls-34" x="104.94" y="57.6">z</tspan><tspan class="cls-8" x="112.97" y="57.6">o</tspan><tspan class="cls-20" x="121.88" y="57.6">s </tspan><tspan class="cls-4" x="132.59" y="57.6">q</tspan><tspan class="cls-8" x="142.1" y="57.6">u</tspan><tspan x="150.3" y="57.6">e </tspan><tspan class="cls-21" x="163.08" y="57.6">v</tspan><tspan class="cls-2" x="170.88" y="57.6">e</tspan><tspan class="cls-37" x="179.73" y="57.6">n</tspan><tspan class="cls-24" x="188.41" y="57.6">h</tspan><tspan x="196.83" y="57.6">a a </tspan><tspan class="cls-13" x="223.1" y="57.6">s</tspan><tspan x="229.92" y="57.6">o</tspan><tspan class="cls-6" x="238.88" y="57.6">f</tspan><tspan class="cls-23" x="244.43" y="57.6">r</tspan><tspan class="cls-34" x="249.61" y="57.6">e</tspan><tspan x="258.47" y="57.6">r </tspan></tspan><tspan class="cls-36"><tspan class="cls-2" x="0" y="76.8">e</tspan><tspan x="8.86" y="76.8">m </tspan><tspan class="cls-4" x="26.91" y="76.8">c</tspan><tspan class="cls-34" x="34.96" y="76.8">o</tspan><tspan class="cls-20" x="43.84" y="76.8">n</tspan><tspan class="cls-8" x="52.42" y="76.8">s</tspan><tspan class="cls-33" x="59.23" y="76.8">e</tspan><tspan class="cls-4" x="68.01" y="76.8">q</tspan><tspan class="cls-8" x="77.52" y="76.8">u</tspan><tspan class="cls-2" x="85.72" y="76.8">ê</tspan><tspan class="cls-33" x="94.58" y="76.8">n</tspan><tspan class="cls-22" x="102.99" y="76.8">c</tspan><tspan class="cls-2" x="111.01" y="76.8">i</tspan><tspan x="113.97" y="76.8">a </tspan><tspan class="cls-8" x="127.1" y="76.8">d</tspan><tspan x="136.67" y="76.8">e </tspan><tspan class="cls-33" x="149.45" y="76.8">p</tspan><tspan class="cls-34" x="158.9" y="76.8">e</tspan><tspan class="cls-23" x="167.76" y="76.8">r</tspan><tspan class="cls-13" x="172.94" y="76.8">d</tspan><tspan x="182.51" y="76.8">as e </tspan><tspan class="cls-13" x="215.29" y="76.8">d</tspan><tspan x="224.86" y="76.8">a</tspan><tspan class="cls-24" x="234.16" y="76.8">n</tspan><tspan class="cls-13" x="242.57" y="76.8">o</tspan><tspan x="251.48" y="76.8">s </tspan></tspan><tspan class="cls-36"><tspan class="cls-33" x="0" y="96">m</tspan><tspan x="14.06" y="96">a</tspan><tspan class="cls-28" x="23.35" y="96">t</tspan><tspan class="cls-34" x="28.66" y="96">e</tspan><tspan class="cls-31" x="37.51" y="96">r</tspan><tspan class="cls-34" x="43.13" y="96">i</tspan><tspan x="46.09" y="96">a</tspan><tspan class="cls-13" x="55.38" y="96">i</tspan><tspan x="58.37" y="96">s </tspan><tspan class="cls-4" x="69.08" y="96">c</tspan><tspan x="77.13" y="96">au</tspan><tspan class="cls-8" x="94.68" y="96">s</tspan><tspan class="cls-33" x="101.5" y="96">a</tspan><tspan class="cls-8" x="110.63" y="96">do</tspan><tspan x="129.1" y="96">s </tspan><tspan class="cls-24" x="139.81" y="96">a</tspan><tspan x="148.95" y="96">o </tspan><tspan class="cls-3" x="161.75" y="96">o</tspan><tspan class="cls-24" x="170.57" y="96">b</tspan><tspan class="cls-2" x="180.04" y="96">j</tspan><tspan class="cls-28" x="183.49" y="96">et</tspan><tspan x="197.51" y="96">o </tspan></tspan><tspan class="cls-36"><tspan class="cls-8" x="0" y="115.2">s</tspan><tspan class="cls-33" x="6.82" y="115.2">e</tspan><tspan class="cls-31" x="15.59" y="115.2">g</tspan><tspan x="24.89" y="115.2">u</tspan><tspan class="cls-23" x="33.14" y="115.2">r</tspan><tspan class="cls-33" x="38.33" y="115.2">a</tspan><tspan class="cls-8" x="47.46" y="115.2">d</tspan><tspan x="57.03" y="115.2">o </tspan><tspan class="cls-33" x="69.83" y="115.2">p</tspan><tspan class="cls-34" x="79.29" y="115.2">o</tspan><tspan x="88.17" y="115.2">r </tspan><tspan class="cls-4" x="97.73" y="115.2">c</tspan><tspan class="cls-3" x="105.78" y="115.2">o</tspan><tspan x="114.6" y="115.2">l</tspan><tspan class="cls-8" x="117.64" y="115.2">is</tspan><tspan class="cls-24" x="127.44" y="115.2">ão</tspan><tspan x="145.38" y="115.2">, </tspan><tspan class="cls-4" x="152.43" y="115.2">q</tspan><tspan class="cls-13" x="161.94" y="115.2">u</tspan><tspan class="cls-24" x="170.14" y="115.2">e</tspan><tspan class="cls-13" x="178.92" y="115.2">d</tspan><tspan x="188.49" y="115.2">a e/</tspan><tspan class="cls-24" x="216.2" y="115.2">o</tspan><tspan x="225" y="115.2">u </tspan></tspan><tspan class="cls-36"><tspan x="0" y="134.4">a</tspan><tspan class="cls-28" x="9.3" y="134.4">t</tspan><tspan class="cls-2" x="14.6" y="134.4">er</tspan><tspan class="cls-31" x="29.1" y="134.4">r</tspan><tspan class="cls-8" x="34.71" y="134.4">i</tspan><tspan x="37.7" y="134.4">s</tspan><tspan class="cls-8" x="44.57" y="134.4">s</tspan><tspan class="cls-33" x="51.38" y="134.4">a</tspan><tspan class="cls-34" x="60.52" y="134.4">ge</tspan><tspan x="78.7" y="134.4">m </tspan><tspan class="cls-19" x="96.75" y="134.4">f</tspan><tspan class="cls-34" x="101.9" y="134.4">o</tspan><tspan class="cls-23" x="110.78" y="134.4">r</tspan><tspan class="cls-31" x="115.97" y="134.4">ç</tspan><tspan class="cls-33" x="124.02" y="134.4">a</tspan><tspan class="cls-8" x="133.15" y="134.4">d</tspan><tspan x="142.72" y="134.4">a </tspan><tspan class="cls-13" x="155.85" y="134.4">d</tspan><tspan x="165.42" y="134.4">e </tspan><tspan class="cls-24" x="178.2" y="134.4">a</tspan><tspan class="cls-34" x="187.33" y="134.4">e</tspan><tspan class="cls-29" x="196.19" y="134.4">r</tspan><tspan class="cls-2" x="201.37" y="134.4">o</tspan><tspan class="cls-24" x="210.25" y="134.4">na</tspan><tspan class="cls-21" x="227.81" y="134.4">v</tspan><tspan x="235.61" y="134.4">e </tspan></tspan><tspan class="cls-36"><tspan class="cls-31" x="0" y="153.6">c</tspan><tspan class="cls-34" x="8.05" y="153.6">o</tspan><tspan x="16.93" y="153.6">m</tspan><tspan class="cls-2" x="31.14" y="153.6">p</tspan><tspan class="cls-23" x="40.68" y="153.6">r</tspan><tspan class="cls-21" x="45.86" y="153.6">ov</tspan><tspan class="cls-24" x="62.2" y="153.6">a</tspan><tspan class="cls-13" x="71.34" y="153.6">d</tspan><tspan x="80.9" y="153.6">a</tspan></tspan></text>
</svg>