<?xml version="1.0" encoding="UTF-8"?>
<svg id="Layer_1" data-name="Layer 1" xmlns="http://www.w3.org/2000/svg" viewBox="0 0 366.28 305.38">
  <defs>
    <style>
      .cls-1 {
        letter-spacing: 0em;
      }

      .cls-2 {
        letter-spacing: 0em;
      }

      .cls-3 {
        letter-spacing: -.04em;
      }

      .cls-4 {
        letter-spacing: 0em;
      }

      .cls-5 {
        fill: #fff;
      }

      .cls-6 {
        letter-spacing: 0em;
      }

      .cls-7 {
        letter-spacing: 0em;
      }

      .cls-8 {
        letter-spacing: -.03em;
      }

      .cls-9 {
        letter-spacing: 0em;
      }

      .cls-10 {
        font-family: UrbanistRoman-Bold, Urbanist;
        font-size: 23.99px;
        font-variation-settings: 'wght' 700;
        font-weight: 700;
      }

      .cls-11 {
        letter-spacing: -.02em;
      }

      .cls-12 {
        letter-spacing: 0em;
      }

      .cls-13 {
        letter-spacing: -.01em;
      }

      .cls-14 {
        letter-spacing: -.04em;
      }

      .cls-15 {
        letter-spacing: 0em;
      }

      .cls-16 {
        letter-spacing: 0em;
      }

      .cls-17 {
        letter-spacing: -.01em;
      }

      .cls-18 {
        letter-spacing: 0em;
      }

      .cls-19 {
        letter-spacing: -.02em;
      }

      .cls-20 {
        letter-spacing: -.01em;
      }

      .cls-21 {
        letter-spacing: 0em;
      }

      .cls-22 {
        letter-spacing: 0em;
      }

      .cls-23 {
        letter-spacing: -.02em;
      }

      .cls-24 {
        font-family: Urbanist-Regular, Urbanist;
        font-size: 18px;
        font-variation-settings: 'wght' 400;
      }

      .cls-25 {
        fill: #130044;
      }
    </style>
  </defs>
  <rect class="cls-25" x="0" y="0" width="366.28" height="305.38" rx="29.13" ry="29.13"/>
  <path class="cls-5" d="M32.33,39.86c-.2.03-.38.13-.52.28l-.98.98c-.36.36-.38.93-.06,1.32l.77.92v11.25c0,.54.44.98.98.98s.98.43.98.98-.43.98-.98.98-.98-.43-.98-.98h-1.97c0,1.62,1.33,2.95,2.95,2.95s2.95-1.33,2.95-2.95c0-1.24-.88-2.12-1.97-2.55v-8.27l10.82,13.16v4.55h-16.73v6.89c0,1.62,1.33,2.95,2.95,2.95h4.03c.47,2.79,2.89,4.92,5.81,4.92s5.34-2.13,5.81-4.92h13.96c.47,2.79,2.89,4.92,5.81,4.92s5.34-2.13,5.81-4.92h2.06c1.62,0,2.95-1.33,2.95-2.95v-9.47c0-2.25-1.57-4.24-1.57-4.24h-.03l-4.06-5.41v-.03l-.03-.03c-.91-1.1-2.27-2.46-4.15-2.46h-7.87c-1.62,0-2.95,1.33-2.95,2.95v11.81h-1.97v-4.92c0-.28-.12-.55-.34-.74l-20.66-17.71c-.2-.18-.47-.27-.74-.25h-.09ZM34.36,43.73l17.83,15.28v4.46h-5.9v-4.92c0-.22-.08-.44-.22-.61l-11.71-14.2ZM59.08,50.68h7.87c.77,0,1.86.83,2.61,1.72,0,.01.02.02.03.03l.15.22h-4.77c-1.57,0-2.95,1.27-2.95,2.95v3.94c0,.82.37,1.54.89,2.06s1.24.89,2.06.89h9.84v7.87c0,.55-.44.98-.98.98h-2.06c-.47-2.79-2.89-4.92-5.81-4.92s-5.34,2.13-5.81,4.92h-2.06v-19.68c0-.55.44-.98.98-.98ZM64.98,54.62h6.24l2.4,3.2s.89,1.53,1.08,2.71h-9.72c-.17,0-.43-.12-.65-.34s-.34-.48-.34-.65v-3.94c0-.5.58-.98.98-.98ZM29.56,65.44h26.56v5.9h-9.93c-.47-2.79-2.89-4.92-5.81-4.92s-5.34,2.13-5.81,4.92h-4.03c-.54,0-.98-.44-.98-.98v-4.92ZM40.38,68.39c2.19,0,3.94,1.75,3.94,3.94s-1.75,3.94-3.94,3.94-3.94-1.75-3.94-3.94,1.75-3.94,3.94-3.94ZM65.96,68.39c2.19,0,3.94,1.75,3.94,3.94s-1.75,3.94-3.94,3.94-3.94-1.75-3.94-3.94,1.75-3.94,3.94-3.94Z"/>
  <text class="cls-5" transform="translate(27.59 119.7)"><tspan class="cls-10"><tspan class="cls-3" x="0" y="0">R</tspan><tspan class="cls-13" x="13.54" y="0">e</tspan><tspan class="cls-16" x="26.7" y="0">t</tspan><tspan class="cls-6" x="35.1" y="0">i</tspan><tspan class="cls-14" x="40.81" y="0">r</tspan><tspan class="cls-12" x="49.15" y="0">a</tspan><tspan class="cls-1" x="63.28" y="0">d</tspan><tspan x="77.97" y="0">a e </tspan><tspan class="cls-23" x="117.27" y="0">c</tspan><tspan class="cls-19" x="129.13" y="0">o</tspan><tspan class="cls-1" x="142.11" y="0">l</tspan><tspan class="cls-12" x="147.73" y="0">o</tspan><tspan class="cls-23" x="160.92" y="0">c</tspan><tspan class="cls-12" x="172.79" y="0">a</tspan><tspan class="cls-11" x="186.91" y="0">ç</tspan><tspan class="cls-12" x="198.78" y="0">ã</tspan><tspan x="212.9" y="0">o </tspan><tspan class="cls-12" x="232.09" y="0">n</tspan><tspan x="245.24" y="0">a </tspan></tspan><tspan class="cls-10"><tspan class="cls-12" x="0" y="28.78">á</tspan><tspan class="cls-11" x="14.13" y="28.78">g</tspan><tspan class="cls-1" x="28.46" y="28.78">u</tspan><tspan x="41.19" y="28.78">a</tspan></tspan><tspan class="cls-24"><tspan class="cls-21" x="0" y="71.98">G</tspan><tspan x="13.71" y="71.98">a</tspan><tspan class="cls-8" x="24.17" y="71.98">r</tspan><tspan x="30" y="71.98">an</tspan><tspan class="cls-17" x="50.1" y="71.98">t</tspan><tspan x="56.07" y="71.98">e </tspan><tspan class="cls-7" x="70.44" y="71.98">i</tspan><tspan class="cls-20" x="73.84" y="71.98">n</tspan><tspan class="cls-2" x="83.3" y="71.98">d</tspan><tspan class="cls-4" x="94.07" y="71.98">e</tspan><tspan x="104.03" y="71.98">ni</tspan><tspan class="cls-4" x="117.1" y="71.98">z</tspan><tspan class="cls-20" x="126.13" y="71.98">a</tspan><tspan class="cls-21" x="136.41" y="71.98">ç</tspan><tspan class="cls-15" x="145.47" y="71.98">ã</tspan><tspan x="155.75" y="71.98">o </tspan><tspan class="cls-4" x="170.15" y="71.98">e</tspan><tspan x="180.11" y="71.98">m </tspan><tspan class="cls-4" x="200.42" y="71.98">p</tspan><tspan class="cls-8" x="211.15" y="71.98">r</tspan><tspan class="cls-15" x="216.98" y="71.98">e</tspan><tspan class="cls-21" x="226.85" y="71.98">j</tspan><tspan x="230.71" y="71.98">uí</tspan><tspan class="cls-4" x="243.41" y="71.98">z</tspan><tspan class="cls-18" x="252.45" y="71.98">o</tspan><tspan x="262.47" y="71.98">s </tspan></tspan><tspan class="cls-24"><tspan class="cls-21" x="0" y="93.58">c</tspan><tspan x="9.05" y="93.58">au</tspan><tspan class="cls-18" x="28.8" y="93.58">s</tspan><tspan class="cls-15" x="36.47" y="93.58">a</tspan><tspan class="cls-18" x="46.75" y="93.58">do</tspan><tspan x="67.53" y="93.58">s </tspan><tspan class="cls-15" x="79.58" y="93.58">p</tspan><tspan class="cls-4" x="90.22" y="93.58">o</tspan><tspan x="100.21" y="93.58">r </tspan><tspan class="cls-8" x="110.96" y="93.58">r</tspan><tspan class="cls-17" x="116.79" y="93.58">e</tspan><tspan class="cls-18" x="126.6" y="93.58">t</tspan><tspan class="cls-7" x="132.75" y="93.58">i</tspan><tspan class="cls-8" x="136.14" y="93.58">r</tspan><tspan class="cls-15" x="141.98" y="93.58">a</tspan><tspan class="cls-18" x="152.25" y="93.58">d</tspan><tspan x="163.02" y="93.58">a e </tspan><tspan class="cls-21" x="192.17" y="93.58">c</tspan><tspan class="cls-22" x="201.22" y="93.58">o</tspan><tspan class="cls-18" x="211.15" y="93.58">l</tspan><tspan class="cls-20" x="214.51" y="93.58">o</tspan><tspan class="cls-21" x="224.41" y="93.58">c</tspan><tspan class="cls-15" x="233.46" y="93.58">a</tspan><tspan class="cls-21" x="243.74" y="93.58">ç</tspan><tspan class="cls-20" x="252.79" y="93.58">ã</tspan><tspan x="263.07" y="93.58">o </tspan></tspan><tspan class="cls-24"><tspan class="cls-18" x="0" y="115.18">d</tspan><tspan x="10.76" y="115.18">a </tspan><tspan class="cls-4" x="25.54" y="115.18">e</tspan><tspan class="cls-9" x="35.5" y="115.18">m</tspan><tspan class="cls-15" x="51.61" y="115.18">b</tspan><tspan x="62.26" y="115.18">a</tspan><tspan class="cls-8" x="72.72" y="115.18">r</tspan><tspan class="cls-21" x="78.55" y="115.18">c</tspan><tspan class="cls-15" x="87.6" y="115.18">a</tspan><tspan class="cls-21" x="97.88" y="115.18">ç</tspan><tspan class="cls-20" x="106.94" y="115.18">ã</tspan><tspan x="117.22" y="115.18">o </tspan><tspan class="cls-15" x="131.62" y="115.18">n</tspan><tspan x="141.08" y="115.18">a </tspan><tspan class="cls-20" x="155.86" y="115.18">á</tspan><tspan class="cls-21" x="166.14" y="115.18">g</tspan><tspan class="cls-18" x="176.6" y="115.18">u</tspan><tspan x="185.82" y="115.18">a.</tspan></tspan></text>
</svg>