<?xml version="1.0" encoding="UTF-8"?>
<svg id="Layer_1" data-name="Layer 1" xmlns="http://www.w3.org/2000/svg" viewBox="0 0 366.28 305.38">
  <defs>
    <style>
      .cls-1 {
        letter-spacing: -.04em;
      }

      .cls-2 {
        letter-spacing: -.04em;
      }

      .cls-3 {
        letter-spacing: -.02em;
      }

      .cls-4 {
        letter-spacing: -.01em;
      }

      .cls-5 {
        letter-spacing: -.02em;
      }

      .cls-6 {
        letter-spacing: -.01em;
      }

      .cls-7 {
        letter-spacing: -.02em;
      }

      .cls-8 {
        letter-spacing: -.04em;
      }

      .cls-9 {
        letter-spacing: 0em;
      }

      .cls-10 {
        letter-spacing: 0em;
      }

      .cls-11 {
        letter-spacing: -.02em;
      }

      .cls-12 {
        letter-spacing: -.01em;
      }

      .cls-13 {
        letter-spacing: 0em;
      }

      .cls-14 {
        letter-spacing: 0em;
      }

      .cls-15 {
        letter-spacing: 0em;
      }

      .cls-16 {
        letter-spacing: 0em;
      }

      .cls-17 {
        letter-spacing: -.02em;
      }

      .cls-18 {
        font-family: UrbanistRoman-Bold, Urbanist;
        font-size: 16px;
        font-variation-settings: 'wght' 700;
        font-weight: 700;
      }

      .cls-18, .cls-19 {
        fill: #130044;
      }

      .cls-20 {
        letter-spacing: -.02em;
      }

      .cls-21 {
        letter-spacing: 0em;
      }

      .cls-22 {
        letter-spacing: -.05em;
      }

      .cls-23 {
        letter-spacing: 0em;
      }

      .cls-24 {
        letter-spacing: -.01em;
      }

      .cls-25 {
        letter-spacing: 0em;
      }

      .cls-26 {
        letter-spacing: -.01em;
      }

      .cls-27 {
        letter-spacing: -.04em;
      }

      .cls-28 {
        letter-spacing: 0em;
      }
    </style>
  </defs>
  <path class="cls-19" d="M337.15,9c11.1,0,20.14,9.03,20.14,20.14v247.12c0,11.1-9.03,20.13-20.14,20.13H29.13c-11.1,0-20.14-9.03-20.14-20.13V29.13c0-11.1,9.03-20.14,20.14-20.14h308.02M337.15,0H29.13C13.11,0,0,13.11,0,29.13v247.12C0,292.27,13.11,305.38,29.13,305.38h308.02c16.02,0,29.13-13.11,29.13-29.13V29.13c0-16.02-13.11-29.13-29.13-29.13h0Z"/>
  <text class="cls-18" transform="translate(27.59 119.73)"><tspan x="0" y="0">I</tspan><tspan class="cls-26" x="4.35" y="0">n</tspan><tspan class="cls-11" x="13.12" y="0">c</tspan><tspan class="cls-12" x="21.03" y="0">ê</tspan><tspan class="cls-15" x="29.8" y="0">n</tspan><tspan x="38.57" y="0">d</tspan><tspan class="cls-12" x="48.49" y="0">i</tspan><tspan class="cls-15" x="52.18" y="0">o</tspan><tspan x="60.98" y="0">, </tspan><tspan class="cls-22" x="68.86" y="0">e</tspan><tspan class="cls-7" x="76.97" y="0">x</tspan><tspan class="cls-17" x="86.14" y="0">p</tspan><tspan class="cls-9" x="95.74" y="0">los</tspan><tspan class="cls-26" x="115.17" y="0">ão</tspan><tspan x="133.39" y="0">, </tspan><tspan class="cls-10" x="141.28" y="0">f</tspan><tspan x="147.18" y="0">u</tspan><tspan class="cls-15" x="155.79" y="0">ma</tspan><tspan class="cls-11" x="179.27" y="0">ç</tspan><tspan x="187.18" y="0">a, </tspan><tspan class="cls-3" x="204.66" y="0">q</tspan><tspan class="cls-9" x="214.31" y="0">u</tspan><tspan class="cls-15" x="222.8" y="0">e</tspan><tspan class="cls-21" x="231.59" y="0">d</tspan><tspan x="241.39" y="0">a </tspan><tspan class="cls-9" x="254.82" y="0">d</tspan><tspan x="264.62" y="0">e </tspan><tspan class="cls-15" x="0" y="19.2">a</tspan><tspan class="cls-12" x="9.42" y="19.2">e</tspan><tspan class="cls-2" x="18.19" y="19.2">r</tspan><tspan class="cls-12" x="23.75" y="19.2">o</tspan><tspan class="cls-15" x="32.53" y="19.2">n</tspan><tspan class="cls-5" x="41.3" y="19.2">a</tspan><tspan class="cls-8" x="50.51" y="19.2">v</tspan><tspan class="cls-21" x="59.25" y="19.2">e</tspan><tspan class="cls-28" x="68.08" y="19.2">s</tspan><tspan x="74.97" y="19.2">, </tspan><tspan class="cls-27" x="82.86" y="19.2">v</tspan><tspan class="cls-12" x="91.59" y="19.2">e</tspan><tspan class="cls-15" x="100.36" y="19.2">n</tspan><tspan class="cls-9" x="109.13" y="19.2">d</tspan><tspan class="cls-5" x="118.93" y="19.2">a</tspan><tspan class="cls-27" x="128.14" y="19.2">v</tspan><tspan class="cls-16" x="136.88" y="19.2">a</tspan><tspan x="146.5" y="19.2">l, </tspan><tspan class="cls-10" x="158.26" y="19.2">f</tspan><tspan x="164.17" y="19.2">u</tspan><tspan class="cls-2" x="172.78" y="19.2">r</tspan><tspan class="cls-26" x="178.34" y="19.2">a</tspan><tspan class="cls-3" x="187.76" y="19.2">c</tspan><tspan class="cls-15" x="195.67" y="19.2">ão</tspan><tspan x="213.9" y="19.2">, </tspan><tspan class="cls-20" x="221.78" y="19.2">c</tspan><tspan class="cls-12" x="229.64" y="19.2">i</tspan><tspan class="cls-11" x="233.33" y="19.2">c</tspan><tspan class="cls-21" x="241.24" y="19.2">l</tspan><tspan class="cls-12" x="244.99" y="19.2">o</tspan><tspan class="cls-15" x="253.77" y="19.2">ne</tspan><tspan x="271.33" y="19.2">, </tspan><tspan class="cls-24" x="0" y="38.4">t</tspan><tspan class="cls-6" x="5.55" y="38.4">or</tspan><tspan class="cls-15" x="20.3" y="38.4">n</tspan><tspan x="29.07" y="38.4">a</tspan><tspan class="cls-1" x="38.66" y="38.4">r</tspan><tspan class="cls-21" x="44.22" y="38.4">d</tspan><tspan class="cls-26" x="54.02" y="38.4">o</tspan><tspan x="62.82" y="38.4">, </tspan><tspan class="cls-11" x="70.7" y="38.4">q</tspan><tspan class="cls-9" x="80.36" y="38.4">u</tspan><tspan class="cls-15" x="88.85" y="38.4">e</tspan><tspan class="cls-9" x="97.64" y="38.4">d</tspan><tspan x="107.44" y="38.4">a </tspan><tspan class="cls-9" x="120.86" y="38.4">d</tspan><tspan x="130.66" y="38.4">e g</tspan><tspan class="cls-2" x="153.26" y="38.4">r</tspan><tspan x="158.82" y="38.4">ani</tspan><tspan class="cls-12" x="181.21" y="38.4">z</tspan><tspan class="cls-15" x="189.14" y="38.4">o</tspan><tspan x="197.94" y="38.4">, </tspan><tspan class="cls-14" x="205.82" y="38.4">i</tspan><tspan x="209.63" y="38.4">m</tspan><tspan class="cls-26" x="223.85" y="38.4">pa</tspan><tspan x="243.02" y="38.4">c</tspan><tspan class="cls-24" x="251.18" y="38.4">t</tspan><tspan x="256.73" y="38.4">o </tspan><tspan class="cls-21" x="0" y="57.6">d</tspan><tspan class="cls-13" x="9.8" y="57.6">e </tspan><tspan class="cls-27" x="22.59" y="57.6">v</tspan><tspan class="cls-5" x="31.33" y="57.6">e</tspan><tspan class="cls-6" x="39.91" y="57.6">íc</tspan><tspan class="cls-25" x="51.58" y="57.6">u</tspan><tspan class="cls-9" x="60.22" y="57.6">lo</tspan><tspan class="cls-28" x="72.82" y="57.6">s</tspan><tspan x="79.7" y="57.6">, </tspan><tspan class="cls-21" x="87.59" y="57.6">d</tspan><tspan x="97.39" y="57.6">a</tspan><tspan class="cls-15" x="106.98" y="57.6">n</tspan><tspan class="cls-9" x="115.74" y="57.6">o</tspan><tspan x="124.58" y="57.6">s </tspan><tspan class="cls-17" x="135.38" y="57.6">e</tspan><tspan class="cls-9" x="144.02" y="57.6">l</tspan><tspan class="cls-24" x="147.78" y="57.6">é</tspan><tspan x="156.55" y="57.6">t</tspan><tspan class="cls-3" x="162.28" y="57.6">r</tspan><tspan class="cls-6" x="168.19" y="57.6">i</tspan><tspan class="cls-3" x="171.88" y="57.6">c</tspan><tspan class="cls-21" x="179.79" y="57.6">o</tspan><tspan class="cls-14" x="188.63" y="57.6">s</tspan><tspan x="195.52" y="57.6">, </tspan><tspan class="cls-11" x="203.41" y="57.6">q</tspan><tspan class="cls-9" x="213.06" y="57.6">u</tspan><tspan class="cls-20" x="221.55" y="57.6">e</tspan><tspan class="cls-6" x="230.2" y="57.6">b</tspan><tspan class="cls-2" x="239.94" y="57.6">r</tspan><tspan x="245.5" y="57.6">a </tspan><tspan class="cls-21" x="0" y="76.8">d</tspan><tspan class="cls-13" x="9.8" y="76.8">e </tspan><tspan class="cls-11" x="22.59" y="76.8">v</tspan><tspan class="cls-12" x="31.65" y="76.8">i</tspan><tspan x="35.34" y="76.8">d</tspan><tspan class="cls-2" x="45.26" y="76.8">r</tspan><tspan class="cls-9" x="50.82" y="76.8">o</tspan><tspan class="cls-23" x="59.66" y="76.8">s</tspan><tspan x="66.54" y="76.8">, </tspan><tspan class="cls-3" x="74.43" y="76.8">c</tspan><tspan x="82.34" y="76.8">hu</tspan><tspan class="cls-8" x="99.88" y="76.8">v</tspan><tspan class="cls-7" x="108.62" y="76.8">e</tspan><tspan class="cls-28" x="117.2" y="76.8">i</tspan><tspan class="cls-2" x="121.01" y="76.8">r</tspan><tspan class="cls-9" x="126.57" y="76.8">o</tspan><tspan x="135.41" y="76.8">s au</tspan><tspan class="cls-4" x="164.39" y="76.8">t</tspan><tspan class="cls-6" x="169.94" y="76.8">o</tspan><tspan class="cls-26" x="178.72" y="76.8">m</tspan><tspan x="192.78" y="76.8">á</tspan><tspan class="cls-21" x="202.36" y="76.8">t</tspan><tspan class="cls-12" x="207.97" y="76.8">i</tspan><tspan class="cls-11" x="211.66" y="76.8">c</tspan><tspan class="cls-21" x="219.57" y="76.8">o</tspan><tspan class="cls-28" x="228.41" y="76.8">s</tspan><tspan x="235.3" y="76.8">, </tspan><tspan x="0" y="96">tum</tspan><tspan class="cls-25" x="28.55" y="96">u</tspan><tspan x="37.2" y="96">l</tspan><tspan class="cls-24" x="41.07" y="96">t</tspan><tspan class="cls-9" x="46.62" y="96">o</tspan><tspan class="cls-14" x="55.46" y="96">s</tspan><tspan x="62.35" y="96">, g</tspan><tspan class="cls-1" x="80.05" y="96">r</tspan><tspan class="cls-27" x="85.61" y="96">ev</tspan><tspan class="cls-21" x="102.73" y="96">e</tspan><tspan x="111.56" y="96">s e </tspan><tspan class="cls-21" x="135.14" y="96">l</tspan><tspan class="cls-26" x="138.9" y="96">o</tspan><tspan class="cls-3" x="147.7" y="96">c</tspan><tspan x="155.61" y="96">k </tspan><tspan class="cls-7" x="168.01" y="96">o</tspan><tspan x="176.6" y="96">u</tspan><tspan class="cls-15" x="185.21" y="96">t</tspan><tspan x="190.78" y="96">, </tspan><tspan class="cls-16" x="0" y="115.2">a</tspan><tspan class="cls-21" x="9.62" y="115.2">l</tspan><tspan class="cls-26" x="13.38" y="115.2">a</tspan><tspan class="cls-6" x="22.8" y="115.2">g</tspan><tspan x="32.42" y="115.2">a</tspan><tspan class="cls-26" x="42.01" y="115.2">m</tspan><tspan class="cls-6" x="56.06" y="115.2">e</tspan><tspan x="64.83" y="115.2">n</tspan><tspan class="cls-24" x="73.76" y="115.2">t</tspan><tspan class="cls-26" x="79.31" y="115.2">o</tspan><tspan x="88.11" y="115.2">, </tspan><tspan class="cls-21" x="96" y="115.2">de</tspan><tspan x="114.63" y="115.2">s</tspan><tspan class="cls-26" x="121.58" y="115.2">m</tspan><tspan class="cls-6" x="135.64" y="115.2">o</tspan><tspan class="cls-1" x="144.42" y="115.2">r</tspan><tspan class="cls-12" x="149.98" y="115.2">o</tspan><tspan class="cls-15" x="158.75" y="115.2">n</tspan><tspan x="167.52" y="115.2">a</tspan><tspan class="cls-15" x="177.1" y="115.2">m</tspan><tspan class="cls-12" x="191.16" y="115.2">e</tspan><tspan x="199.93" y="115.2">n</tspan><tspan class="cls-24" x="208.86" y="115.2">t</tspan><tspan class="cls-15" x="214.41" y="115.2">o</tspan><tspan x="223.21" y="115.2">, </tspan><tspan class="cls-8" x="0" y="134.4">v</tspan><tspan x="8.74" y="134.4">a</tspan><tspan class="cls-6" x="18.32" y="134.4">z</tspan><tspan x="26.25" y="134.4">a</tspan><tspan class="cls-26" x="35.83" y="134.4">m</tspan><tspan class="cls-12" x="49.89" y="134.4">e</tspan><tspan x="58.66" y="134.4">n</tspan><tspan class="cls-24" x="67.58" y="134.4">t</tspan><tspan x="73.14" y="134.4">o </tspan><tspan class="cls-21" x="85.94" y="134.4">d</tspan><tspan x="95.74" y="134.4">e </tspan><tspan class="cls-24" x="108.53" y="134.4">t</tspan><tspan x="114.08" y="134.4">a</tspan><tspan class="cls-15" x="123.66" y="134.4">n</tspan><tspan class="cls-3" x="132.43" y="134.4">q</tspan><tspan class="cls-9" x="142.09" y="134.4">ue</tspan><tspan x="159.41" y="134.4">s </tspan><tspan class="cls-7" x="170.2" y="134.4">o</tspan><tspan class="cls-13" x="178.79" y="134.4">u t</tspan><tspan class="cls-16" x="196.97" y="134.4">u</tspan><tspan class="cls-5" x="205.61" y="134.4">b</tspan><tspan class="cls-25" x="215.17" y="134.4">u</tspan><tspan class="cls-21" x="223.81" y="134.4">l</tspan><tspan class="cls-26" x="227.57" y="134.4">a</tspan><tspan class="cls-3" x="236.99" y="134.4">ç</tspan><tspan class="cls-15" x="244.9" y="134.4">õ</tspan><tspan class="cls-21" x="253.7" y="134.4">e</tspan><tspan x="262.54" y="134.4">s </tspan><tspan x="0" y="153.6">e t</tspan><tspan class="cls-2" x="18.52" y="153.6">r</tspan><tspan class="cls-12" x="24.08" y="153.6">e</tspan><tspan class="cls-15" x="32.85" y="153.6">m</tspan><tspan class="cls-12" x="46.9" y="153.6">o</tspan><tspan x="55.68" y="153.6">r </tspan><tspan class="cls-21" x="65.68" y="153.6">d</tspan><tspan x="75.48" y="153.6">e </tspan><tspan class="cls-24" x="88.27" y="153.6">t</tspan><tspan class="cls-12" x="93.82" y="153.6">er</tspan><tspan class="cls-2" x="108.57" y="153.6">r</tspan><tspan x="114.13" y="153.6">a e </tspan><tspan class="cls-24" x="140.34" y="153.6">t</tspan><tspan class="cls-6" x="145.9" y="153.6">er</tspan><tspan class="cls-1" x="160.64" y="153.6">r</tspan><tspan class="cls-6" x="166.2" y="153.6">e</tspan><tspan class="cls-26" x="174.97" y="153.6">m</tspan><tspan class="cls-24" x="189.02" y="153.6">ot</tspan><tspan x="203.36" y="153.6">o</tspan></text>
  <polygon class="cls-19" points="338.69 262.6 330.04 262.6 330.04 253.95 324.38 253.95 324.38 262.6 315.73 262.6 315.73 268.27 324.38 268.27 324.38 276.92 330.04 276.92 330.04 268.27 338.69 268.27 338.69 262.6"/>
  <path class="cls-19" d="M50.69,78.22c-.55,0-1.07-.3-1.34-.78l-4.6-7.97-8.89,2.38c-.54.14-1.11,0-1.5-.4-.39-.39-.55-.96-.4-1.5l2.38-8.89-7.97-4.6c-.48-.28-.78-.79-.78-1.34s.3-1.07.78-1.34l7.97-4.6-2.38-8.89c-.14-.54,0-1.11.4-1.5.39-.39.96-.54,1.5-.4l8.89,2.38,4.6-7.97c.28-.48.79-.78,1.34-.78s1.07.3,1.34.78l4.6,7.97,8.89-2.38c.54-.14,1.11,0,1.5.4.39.39.55.96.4,1.5l-2.38,8.89,7.97,4.6c.48.28.78.79.78,1.34s-.3,1.07-.78,1.34l-7.97,4.6,2.38,8.89c.14.54,0,1.11-.4,1.5s-.96.55-1.5.4l-8.89-2.38-4.6,7.97c-.28.48-.79.78-1.34.78ZM45.49,66.11c.54,0,1.06.29,1.34.78l3.85,6.67,3.85-6.67c.35-.61,1.07-.9,1.75-.72l7.44,1.99-1.99-7.44c-.18-.68.11-1.39.72-1.75l6.67-3.85-6.67-3.85c-.61-.35-.91-1.07-.72-1.75l1.99-7.44-7.44,1.99c-.68.18-1.39-.12-1.75-.72l-3.85-6.67-3.85,6.67c-.35.61-1.07.9-1.75.72l-7.44-1.99,1.99,7.44c.18.68-.11,1.39-.72,1.75l-6.67,3.85,6.67,3.85c.61.35.91,1.07.72,1.75l-1.99,7.44,7.44-1.99c.13-.04.27-.05.4-.05Z"/>
</svg>