<?xml version="1.0" encoding="UTF-8"?>
<svg id="Layer_1" data-name="Layer 1" xmlns="http://www.w3.org/2000/svg" viewBox="0 0 366.28 305.38">
  <defs>
    <style>
      .cls-1 {
        letter-spacing: 0em;
      }

      .cls-2 {
        letter-spacing: -.04em;
      }

      .cls-3 {
        letter-spacing: -.02em;
      }

      .cls-4 {
        letter-spacing: 0em;
      }

      .cls-5 {
        font-family: UrbanistRoman-Bold, Urbanist;
        font-size: 23.99px;
        font-variation-settings: 'wght' 700;
        font-weight: 700;
      }

      .cls-5, .cls-6 {
        fill: #130044;
      }
    </style>
  </defs>
  <path class="cls-6" d="M337.15,8.99c11.1,0,20.13,9.03,20.13,20.14v247.12c0,11.1-9.03,20.14-20.13,20.14H29.13c-11.1,0-20.14-9.03-20.14-20.14V29.13c0-11.1,9.03-20.14,20.14-20.14h308.02M337.15,0H29.13C13.11,0,0,13.11,0,29.13v247.12c0,16.02,13.11,29.13,29.13,29.13h308.02c16.02,0,29.13-13.11,29.13-29.13V29.13C366.28,13.11,353.18,0,337.15,0h0Z"/>
  <text class="cls-5" transform="translate(27.59 274.19)"><tspan class="cls-3" x="0" y="0">S</tspan><tspan class="cls-4" x="14.61" y="0">e</tspan><tspan class="cls-3" x="27.79" y="0">g</tspan><tspan x="42.12" y="0">u</tspan><tspan class="cls-2" x="55.03" y="0">r</tspan><tspan class="cls-1" x="63.36" y="0">o</tspan><tspan x="76.61" y="0">s</tspan></text>
  <polygon class="cls-6" points="338.69 262.6 330.04 262.6 330.04 253.95 324.38 253.95 324.38 262.6 315.73 262.6 315.73 268.27 324.38 268.27 324.38 276.92 330.04 276.92 330.04 268.27 338.69 268.27 338.69 262.6"/>
  <g>
    <path class="cls-6" d="M68.35,39.27c-1.01-1.45-4.02-2.48-11.29-4.96l-1.27-.43c-3.56-1.22-5.35-1.83-7.31-1.83s-3.75.61-7.31,1.83l-1.27.43c-7.27,2.49-10.28,3.52-11.29,4.96-1.01,1.44-1.01,4.64-1.01,12.36v3.49c0,13.11,9.93,19.4,15.85,21.99,1.66.73,2.58,1.13,5.03,1.13s3.37-.4,5.04-1.13c5.92-2.59,15.85-8.88,15.85-21.99v-3.49c0-7.72,0-10.92-1.01-12.36ZM67.44,55.12c0,12.02-9.21,17.83-14.7,20.23-1.56.68-2.21.97-4.27.97s-2.7-.28-4.27-.97c-5.49-2.4-14.7-8.22-14.7-20.23v-3.49c0-6.21,0-10.32.66-11.26.66-.94,4.51-2.25,10.34-4.25l1.27-.43c3.36-1.15,5.05-1.73,6.69-1.73s3.33.58,6.69,1.73l1.27.43c5.83,2,9.69,3.32,10.35,4.25.66.94.66,5.05.66,11.26v3.49Z"/>
    <path class="cls-6" d="M48.48,56.09c.53,0,.96-.43.96-.96v-8.85c0-.53-.43-.96-.96-.96s-.96.43-.96.96v8.85c0,.53.43.96.96.96Z"/>
    <circle class="cls-6" cx="48.48" cy="61.78" r="2.21"/>
  </g>
</svg>