<?xml version="1.0" encoding="UTF-8"?>
<svg id="Layer_1" data-name="Layer 1" xmlns="http://www.w3.org/2000/svg" viewBox="0 0 366.28 305.38">
  <defs>
    <style>
      .cls-1 {
        letter-spacing: -.04em;
      }

      .cls-2 {
        fill: #5b1112;
      }

      .cls-3 {
        letter-spacing: -.02em;
      }

      .cls-4 {
        letter-spacing: -.01em;
      }

      .cls-5 {
        letter-spacing: 0em;
      }

      .cls-6 {
        letter-spacing: 0em;
      }

      .cls-7 {
        letter-spacing: -.02em;
      }

      .cls-8 {
        letter-spacing: -.01em;
      }

      .cls-9 {
        letter-spacing: 0em;
      }

      .cls-10 {
        letter-spacing: -.02em;
      }

      .cls-11 {
        font-family: UrbanistRoman-Bold, Urbanist;
        font-size: 16px;
        font-variation-settings: 'wght' 700;
        font-weight: 700;
      }

      .cls-11, .cls-12 {
        fill: #130044;
      }

      .cls-13 {
        letter-spacing: -.05em;
      }

      .cls-14 {
        letter-spacing: -.01em;
      }
    </style>
  </defs>
  <path class="cls-12" d="M337.15,8.99c11.1,0,20.13,9.03,20.13,20.14v247.12c0,11.1-9.03,20.14-20.13,20.14H29.13c-11.1,0-20.13-9.03-20.13-20.14V29.13c0-11.1,9.03-20.14,20.13-20.14h308.02M337.15,0H29.13C13.11,0,0,13.11,0,29.13v247.12c0,16.02,13.11,29.13,29.13,29.13h308.02c16.02,0,29.13-13.11,29.13-29.13V29.13c0-16.02-13.11-29.13-29.13-29.13h0Z"/>
  <text class="cls-11" transform="translate(27.59 269.21)"><tspan x="0" y="0">I</tspan><tspan class="cls-14" x="4.35" y="0">n</tspan><tspan class="cls-7" x="13.12" y="0">c</tspan><tspan class="cls-8" x="21.03" y="0">ê</tspan><tspan class="cls-9" x="29.8" y="0">n</tspan><tspan x="38.57" y="0">d</tspan><tspan class="cls-8" x="48.49" y="0">i</tspan><tspan class="cls-9" x="52.18" y="0">o</tspan><tspan x="60.98" y="0">, </tspan><tspan class="cls-1" x="68.86" y="0">r</tspan><tspan x="74.42" y="0">a</tspan><tspan class="cls-4" x="84.01" y="0">i</tspan><tspan x="87.7" y="0">o </tspan><tspan class="cls-3" x="100.5" y="0">o</tspan><tspan class="cls-5" x="109.09" y="0">u </tspan><tspan class="cls-13" x="121.54" y="0">e</tspan><tspan class="cls-3" x="129.64" y="0">x</tspan><tspan class="cls-10" x="138.82" y="0">p</tspan><tspan class="cls-6" x="148.42" y="0">los</tspan><tspan class="cls-14" x="167.84" y="0">ã</tspan><tspan x="177.26" y="0">o</tspan></text>
  <polygon class="cls-12" points="338.69 262.6 330.04 262.6 330.04 253.95 324.38 253.95 324.38 262.6 315.73 262.6 315.73 268.27 324.38 268.27 324.38 276.92 330.04 276.92 330.04 268.27 338.69 268.27 338.69 262.6"/>
  <g>
    <path class="cls-12" d="M51.92,67.53c-2.95,0-5.35,2.4-5.35,5.35s2.4,5.35,5.35,5.35,5.35-2.4,5.35-5.35-2.4-5.35-5.35-5.35ZM51.92,75c-1.17,0-2.12-.95-2.12-2.12s.95-2.12,2.12-2.12,2.12.95,2.12,2.12-.95,2.12-2.12,2.12Z"/>
    <path class="cls-12" d="M89.64,67.53c-2.95,0-5.35,2.4-5.35,5.35s2.4,5.35,5.35,5.35,5.35-2.4,5.35-5.35c0-2.95-2.4-5.35-5.35-5.35ZM89.64,75c-1.17,0-2.12-.95-2.12-2.12s.95-2.12,2.12-2.12,2.12.95,2.12,2.12-.95,2.12-2.12,2.12Z"/>
    <path class="cls-12" d="M96.24,40.36h-15.02v-3.14c0-2.85-2.32-5.17-5.17-5.17h-43.29c-2.85,0-5.17,2.32-5.17,5.17v35.7c0,.89.72,1.62,1.62,1.62h9s5.77,0,5.77,0c.89,0,1.61-.72,1.61-1.62,0-3.49,2.84-6.32,6.32-6.32s6.32,2.84,6.32,6.32c0,.89.72,1.62,1.62,1.62h21.85c.89,0,1.62-.72,1.62-1.62,0-3.49,2.84-6.32,6.32-6.32s6.32,2.84,6.32,6.32c0,.89.72,1.61,1.61,1.62h4.49s3.07,0,3.07,0c.89,0,1.61-.73,1.61-1.62v-22.05c0-5.79-4.71-10.51-10.51-10.51ZM77.99,71.29h-16.66c-.77-4.5-4.7-7.94-9.42-7.94s-8.65,3.44-9.42,7.94h-4.28s-3.03,0-3.03,0h-4.36v-27.77h35.6c.89,0,1.62-.72,1.62-1.62s-.72-1.62-1.62-1.62H30.82v-3.09c0-1.07.87-1.94,1.94-1.94h43.29c1.07,0,1.94.87,1.94,1.94v34.08h0ZM103.52,71.3h-1.45s-3.01,0-3.01,0c-.77-4.5-4.7-7.94-9.42-7.94-3.64,0-6.8,2.04-8.42,5.04v-24.81h15.02c4.01,0,7.28,3.26,7.28,7.28v20.44h0Z"/>
    <path class="cls-12" d="M93.14,46.16h-7.23c-.89,0-1.62.72-1.62,1.62v11.26c0,.89.72,1.62,1.62,1.62h14.45c.89,0,1.62-.72,1.62-1.62v-4.04c0-4.87-3.96-8.84-8.84-8.84ZM98.74,57.42h-11.22v-8.03h5.61c3.09,0,5.61,2.51,5.61,5.61v2.42Z"/>
  </g>
  <path class="cls-12" d="M109.28,46.18s-.03,0-.04,0c0,0-.01,0-.02,0h.06Z"/>
  <polygon class="cls-2" points="116.43 24.95 116.43 24.95 116.43 24.95 116.43 24.95"/>
  <path class="cls-12" d="M110.43,29.37s.01-.04.02-.06c0,0,0,0,0,0l-.02.07Z"/>
  <polygon class="cls-12" points="112.14 30.83 112.13 30.84 112.13 30.84 112.14 30.83"/>
  <path class="cls-12" d="M126.38,24.95h0c-.23-.23-.54-.37-.89-.37-.52,0-.97.31-1.16.76h0c-.26.61-.6,1.13-1.01,1.59,0-.12,0-.27,0-.41,0-1.81-.4-3.53-1.11-5.08-1.29-2.68-3.44-4.77-6.08-5.95l-.08-.03c-.15-.07-.32-.1-.5-.1-.7,0-1.26.57-1.26,1.26,0,.08,0,.15.02.22h0s0,.09,0,.14c0,2.02-.9,3.84-2.32,5.06h0c-.53.54-1.08,1.04-1.64,1.54-1.32,1.1-2.47,2.33-3.45,3.7l-.04.06c-1.11,1.79-1.76,3.97-1.76,6.3,0,1.15.16,2.25.46,3.3l-.02-.09c.77,3.17,2.72,5.79,5.34,7.43l.05.03c1.91,1.22,4.23,1.95,6.73,1.96h.01c.52,0,1.03-.04,1.53-.1,4.75-.7,8.61-3.94,10.18-8.28l.03-.09c.4-1.18.63-2.54.63-3.95,0-3.47-1.39-6.62-3.64-8.91ZM127,37.01h0c-1.27,3.54-4.36,6.13-8.1,6.67h-.06c-.36.05-.77.08-1.19.08-2,0-3.86-.58-5.42-1.58-2.11-1.33-3.65-3.4-4.25-5.85v-.07c-.24-.78-.37-1.68-.37-2.61,0-1.8.5-3.49,1.36-4.93.89-1.23,1.9-2.3,3.03-3.22l.03-.02c.6-.54,1.19-1.07,1.75-1.64,1.42-1.34,2.47-3.07,2.96-5.02l.02-.07c2.47,1.73,4.07,4.57,4.07,7.78,0,.97-.15,1.9-.42,2.78-.03.11-.05.24-.05.37,0,.7.56,1.26,1.26,1.26.17,0,.33-.03.48-.09,1.47-.61,2.68-1.57,3.58-2.78l.02-.02c1.14,1.62,1.82,3.64,1.82,5.82,0,1.1-.18,2.16-.5,3.16Z"/>
  <path class="cls-2" d="M112.24,21.39s.02.04.03.07c0,0,0,0,0,0l-.03-.07Z"/>
</svg>