<?xml version="1.0" encoding="UTF-8"?>
<svg id="Layer_1" data-name="Layer 1" xmlns="http://www.w3.org/2000/svg" viewBox="0 0 366.28 305.38">
  <defs>
    <style>
      .cls-1 {
        letter-spacing: -.02em;
      }

      .cls-2 {
        font-family: UrbanistRoman-Bold, Urbanist;
        font-size: 20px;
        font-variation-settings: 'wght' 700;
        font-weight: 700;
      }

      .cls-2, .cls-3 {
        fill: #130044;
      }

      .cls-4 {
        letter-spacing: -.01em;
      }

      .cls-5 {
        letter-spacing: -.02em;
      }

      .cls-6 {
        letter-spacing: -.04em;
      }

      .cls-7 {
        letter-spacing: -.01em;
      }

      .cls-8 {
        letter-spacing: 0em;
      }

      .cls-9 {
        letter-spacing: 0em;
      }
    </style>
  </defs>
  <path class="cls-3" d="M337.15,9c11.1,0,20.14,9.03,20.14,20.14v247.12c0,11.1-9.03,20.13-20.14,20.13H29.13c-11.1,0-20.13-9.03-20.13-20.13V29.13c0-11.1,9.03-20.14,20.13-20.14h308.02M337.15,0H29.13C13.11,0,0,13.11,0,29.13v247.12C0,292.27,13.11,305.38,29.13,305.38h308.02c16.02,0,29.13-13.11,29.13-29.13V29.13C366.28,13.11,353.18,0,337.15,0h0Z"/>
  <text class="cls-2" transform="translate(27.59 269.26)"><tspan class="cls-5" x="0" y="0">G</tspan><tspan x="15.06" y="0">a</tspan><tspan class="cls-6" x="27.04" y="0">r</tspan><tspan x="33.99" y="0">an</tspan><tspan class="cls-8" x="57.13" y="0">t</tspan><tspan class="cls-4" x="64.14" y="0">i</tspan><tspan class="cls-9" x="68.75" y="0">a </tspan><tspan class="cls-8" x="85.53" y="0">d</tspan><tspan x="97.78" y="0">o l</tspan><tspan class="cls-4" x="118.62" y="0">i</tspan><tspan class="cls-1" x="123.23" y="0">c</tspan><tspan x="133.05" y="0">i</tspan><tspan class="cls-7" x="137.89" y="0">t</tspan><tspan x="144.83" y="0">an</tspan><tspan class="cls-7" x="167.97" y="0">t</tspan><tspan x="174.91" y="0">e</tspan></text>
  <polygon class="cls-3" points="338.69 262.6 330.04 262.6 330.04 253.95 324.38 253.95 324.38 262.6 315.73 262.6 315.73 268.27 324.38 268.27 324.38 276.92 330.04 276.92 330.04 268.27 338.69 268.27 338.69 262.6"/>
  <g>
    <path class="cls-3" d="M35.29,59.99c0,.4.32.72.72.72h0c.4,0,.72-.32.72-.72,0-5.85,0-12.17,0-17.25h22.43c1.54,0,2.93-.65,3.91-1.7v3.29c0,.4.32.72.72.72s.72-.32.72-.72v-6.94c0-2.95-2.4-5.35-5.35-5.35h-26.23c-2.95,0-5.35,2.4-5.35,5.35s2.4,5.35,5.35,5.35h2.36c0,5.08,0,11.4,0,17.25ZM59.17,33.49c2.15,0,3.91,1.75,3.91,3.91s-1.75,3.91-3.91,3.91-3.91-1.75-3.91-3.91,1.75-3.91,3.91-3.91ZM32.94,41.3c-2.15,0-3.91-1.75-3.91-3.91s1.75-3.91,3.91-3.91h22.58c-1.04.98-1.7,2.37-1.7,3.91s.65,2.93,1.7,3.91h-22.58Z"/>
    <path class="cls-3" d="M59.17,40.43c1.67,0,3.04-1.36,3.04-3.04s-1.36-3.04-3.04-3.04-3.04,1.36-3.04,3.04,1.36,3.04,3.04,3.04ZM59.17,35.8c.88,0,1.59.71,1.59,1.59s-.71,1.59-1.59,1.59-1.59-.71-1.59-1.59.71-1.59,1.59-1.59Z"/>
    <path class="cls-3" d="M68.43,67.53c-1.54,0-2.93.65-3.91,1.7v-21.8c0-.4-.32-.72-.72-.72s-.72.32-.72.72v25.46c0,1.14.37,2.27,1.06,3.19.19.26.4.5.64.72h-24.13c-2.15,0-3.9-1.75-3.91-3.9,0-2.68,0-6.3,0-10.28,0-.4-.32-.72-.72-.72h0c-.4,0-.72.32-.72.72,0,3.98,0,7.6,0,10.28,0,2.95,2.4,5.35,5.35,5.35h27.79c2.95,0,5.35-2.4,5.35-5.35s-2.4-5.35-5.35-5.35ZM68.43,76.78c-2.15,0-3.91-1.75-3.91-3.91s1.75-3.91,3.91-3.91,3.91,1.75,3.91,3.91-1.75,3.91-3.91,3.91Z"/>
    <path class="cls-3" d="M68.43,69.84c-1.68,0-3.04,1.36-3.04,3.04s1.36,3.04,3.04,3.04,3.04-1.36,3.04-3.04-1.36-3.04-3.04-3.04ZM68.43,74.47c-.88,0-1.59-.71-1.59-1.59s.71-1.59,1.59-1.59,1.59.71,1.59,1.59-.71,1.59-1.59,1.59Z"/>
    <path class="cls-3" d="M50.64,52.05c0-3.38-2.75-6.12-6.12-6.12s-6.12,2.75-6.12,6.12,2.75,6.12,6.12,6.12,6.12-2.75,6.12-6.12ZM44.52,56.73c-2.58,0-4.68-2.1-4.68-4.68s2.1-4.68,4.68-4.68,4.68,2.1,4.68,4.68-2.1,4.68-4.68,4.68Z"/>
    <path class="cls-3" d="M46.32,49.99l-2.57,2.57-1.03-1.03c-.28-.28-.74-.28-1.02,0-.28.28-.28.74,0,1.02l1.54,1.54c.28.28.74.28,1.02,0l3.09-3.09c.28-.28.28-.74,0-1.02-.28-.28-.74-.28-1.02,0Z"/>
    <path class="cls-3" d="M55.32,73.6c3.38,0,6.12-2.75,6.12-6.12s-2.75-6.12-6.12-6.12-6.12,2.75-6.12,6.12,2.75,6.12,6.12,6.12ZM55.32,62.8c2.58,0,4.68,2.1,4.68,4.68s-2.1,4.68-4.68,4.68-4.68-2.1-4.68-4.68,2.1-4.68,4.68-4.68Z"/>
    <path class="cls-3" d="M52.49,70.3c.28.28.74.28,1.02,0l1.8-1.8,1.8,1.8c.29.29.79.27,1.06-.04.24-.28.23-.72-.04-.98l-1.8-1.8,1.8-1.8c.28-.28.28-.74,0-1.02-.28-.28-.74-.28-1.02,0l-1.8,1.8-1.8-1.8c-.28-.28-.74-.28-1.02,0-.28.28-.28.74,0,1.02l1.8,1.8-1.8,1.8c-.28.28-.28.74,0,1.02Z"/>
    <path class="cls-3" d="M59.17,49.69c.4,0,.72-.32.72-.72s-.32-.72-.72-.72h-6.17c-.4,0-.72.32-.72.72s.32.72.72.72h6.17Z"/>
    <path class="cls-3" d="M53,52.77h6.17c.4,0,.72-.32.72-.72s-.32-.72-.72-.72h-6.17c-.4,0-.72.32-.72.72s.32.72.72.72Z"/>
    <path class="cls-3" d="M53,55.86h6.17c.4,0,.72-.32.72-.72s-.32-.72-.72-.72h-6.17c-.4,0-.72.32-.72.72s.32.72.72.72Z"/>
    <path class="cls-3" d="M46.83,64.44h-6.17c-.4,0-.72.32-.72.72s.32.72.72.72h6.17c.4,0,.72-.32.72-.72s-.32-.72-.72-.72Z"/>
    <path class="cls-3" d="M46.83,67.53h-6.17c-.4,0-.72.32-.72.72s.32.72.72.72h6.17c.4,0,.72-.32.72-.72s-.32-.72-.72-.72Z"/>
    <path class="cls-3" d="M46.83,70.61h-6.17c-.4,0-.72.32-.72.72s.32.72.72.72h6.17c.4,0,.72-.32.72-.72s-.32-.72-.72-.72Z"/>
  </g>
</svg>