<?xml version="1.0" encoding="UTF-8"?>
<svg id="Layer_1" data-name="Layer 1" xmlns="http://www.w3.org/2000/svg" viewBox="0 0 366.28 305.38">
  <defs>
    <style>
      .cls-1 {
        letter-spacing: 0em;
      }

      .cls-2 {
        letter-spacing: -.01em;
      }

      .cls-3 {
        letter-spacing: -.02em;
      }

      .cls-4 {
        letter-spacing: 0em;
      }

      .cls-5 {
        letter-spacing: -.05em;
      }

      .cls-6 {
        letter-spacing: -.04em;
      }

      .cls-7 {
        letter-spacing: 0em;
      }

      .cls-8 {
        font-family: UrbanistRoman-Bold, Urbanist;
        font-size: 23.99px;
        font-variation-settings: 'wght' 700;
        font-weight: 700;
      }

      .cls-8, .cls-9 {
        fill: #130044;
      }

      .cls-10 {
        letter-spacing: -.01em;
      }
    </style>
  </defs>
  <path class="cls-9" d="M337.15,8.99c11.1,0,20.13,9.03,20.13,20.14v247.12c0,11.1-9.03,20.14-20.13,20.14H29.13c-11.1,0-20.14-9.03-20.14-20.14V29.13c0-11.1,9.03-20.14,20.14-20.14h308.02M337.15,0H29.13C13.11,0,0,13.11,0,29.13v247.12c0,16.02,13.11,29.13,29.13,29.13h308.02c16.02,0,29.13-13.11,29.13-29.13V29.13C366.28,13.11,353.18,0,337.15,0h0Z"/>
  <text class="cls-8" transform="translate(27.59 244.18)"><tspan class="cls-3" x="0" y="0">P</tspan><tspan class="cls-1" x="12.72" y="0">i</tspan><tspan x="18.43" y="0">ntu</tspan><tspan class="cls-6" x="53.31" y="0">r</tspan><tspan x="61.65" y="0">as </tspan><tspan class="cls-1" x="92.19" y="0">i</tspan><tspan x="97.9" y="0">n</tspan><tspan class="cls-10" x="111.28" y="0">t</tspan><tspan class="cls-2" x="119.61" y="0">er</tspan><tspan class="cls-4" x="141.71" y="0">n</tspan><tspan class="cls-7" x="154.86" y="0">as e </tspan><tspan class="cls-5" x="0" y="28.78">e</tspan><tspan x="12.15" y="28.78">x</tspan><tspan class="cls-10" x="26.46" y="28.78">t</tspan><tspan class="cls-2" x="34.78" y="28.78">er</tspan><tspan class="cls-4" x="56.88" y="28.78">n</tspan><tspan x="70.03" y="28.78">as</tspan></text>
  <polygon class="cls-9" points="338.69 262.6 330.04 262.6 330.04 253.95 324.38 253.95 324.38 262.6 315.73 262.6 315.73 268.27 324.38 268.27 324.38 276.92 330.04 276.92 330.04 268.27 338.69 268.27 338.69 262.6"/>
  <path class="cls-9" d="M67.49,36.24h-2.49c-.89-2.51-3.25-4.19-5.91-4.2h-25.2c-3.48,0-6.3,2.82-6.3,6.3s2.82,6.3,6.3,6.3h25.2c2.66-.01,5.03-1.69,5.91-4.2h2.49c1.16,0,2.1.94,2.1,2.1v6.3c0,1.16-.94,2.1-2.1,2.1h-12.6c-3.48,0-6.3,2.82-6.3,6.3h-2.1c-1.16,0-2.1.94-2.1,2.1v16.8c0,1.16.94,2.1,2.1,2.1h8.4c1.16,0,2.1-.94,2.1-2.1v-16.8c0-1.16-.94-2.1-2.1-2.1h-2.1c0-1.16.94-2.1,2.1-2.1h12.6c3.48,0,6.3-2.82,6.3-6.3v-6.3c0-3.48-2.82-6.3-6.3-6.3ZM59.1,40.44h-25.2c-1.16,0-2.1-.94-2.1-2.1s.94-2.1,2.1-2.1h25.2c1.16,0,2.1.94,2.1,2.1s-.94,2.1-2.1,2.1ZM52.8,74.03h-4.2v-12.6h4.2v12.6ZM35.7,47.75c-.69-.99-2.05-1.24-3.04-.55-.22.15-.4.34-.55.55l-3.52,5.81c-.65,1.09-.99,2.34-.99,3.61-.18,3.32,2.35,6.17,5.67,6.38h1.26c3.32-.21,5.85-3.06,5.67-6.38,0-1.27-.33-2.52-.98-3.61l-3.52-5.81ZM34.53,59.33h-1.26c-.69,0-1.47-.89-1.47-2.18s.66-1.68,2.1-4.27c1.44,2.57,2.1,2.96,2.1,4.27s-.77,2.18-1.47,2.18Z"/>
</svg>