<?xml version="1.0" encoding="UTF-8"?>
<svg id="Layer_1" data-name="Layer 1" xmlns="http://www.w3.org/2000/svg" viewBox="0 0 366.28 305.38">
  <defs>
    <style>
      .cls-1 {
        letter-spacing: 0em;
      }

      .cls-2 {
        letter-spacing: -.04em;
      }

      .cls-3 {
        letter-spacing: 0em;
      }

      .cls-4 {
        letter-spacing: -.02em;
      }

      .cls-5 {
        letter-spacing: 0em;
      }

      .cls-6 {
        letter-spacing: -.04em;
      }

      .cls-7 {
        font-family: UrbanistRoman-Bold, Urbanist;
        font-size: 23.99px;
        font-variation-settings: 'wght' 700;
        font-weight: 700;
      }

      .cls-7, .cls-8 {
        fill: #130044;
      }

      .cls-9 {
        letter-spacing: -.02em;
      }

      .cls-10 {
        letter-spacing: -.02em;
      }

      .cls-11 {
        letter-spacing: -.01em;
      }
    </style>
  </defs>
  <path class="cls-8" d="M337.15,9c11.1,0,20.14,9.03,20.14,20.14v247.12c0,11.1-9.03,20.13-20.14,20.13H29.13c-11.1,0-20.14-9.03-20.14-20.13V29.13c0-11.1,9.03-20.14,20.14-20.14h308.02M337.15,0H29.13C13.11,0,0,13.11,0,29.13v247.12C0,292.27,13.11,305.38,29.13,305.38h308.02c16.02,0,29.13-13.11,29.13-29.13V29.13C366.28,13.11,353.18,0,337.15,0h0Z"/>
  <text class="cls-7" transform="translate(27.59 243.03)"><tspan class="cls-2" x="0" y="0">R</tspan><tspan class="cls-11" x="13.54" y="0">e</tspan><tspan class="cls-1" x="26.7" y="0">t</tspan><tspan class="cls-3" x="35.1" y="0">i</tspan><tspan class="cls-6" x="40.81" y="0">r</tspan><tspan class="cls-5" x="49.15" y="0">a</tspan><tspan class="cls-1" x="63.28" y="0">d</tspan><tspan x="77.97" y="0">a e </tspan><tspan class="cls-10" x="117.27" y="0">c</tspan><tspan class="cls-9" x="129.13" y="0">o</tspan><tspan class="cls-1" x="142.11" y="0">l</tspan><tspan class="cls-5" x="147.73" y="0">o</tspan><tspan class="cls-10" x="160.92" y="0">c</tspan><tspan class="cls-5" x="172.79" y="0">a</tspan><tspan class="cls-4" x="186.91" y="0">ç</tspan><tspan class="cls-5" x="198.78" y="0">ã</tspan><tspan x="212.9" y="0">o </tspan><tspan class="cls-5" x="232.09" y="0">n</tspan><tspan x="245.24" y="0">a </tspan><tspan class="cls-5" x="0" y="28.78">á</tspan><tspan class="cls-4" x="14.13" y="28.78">g</tspan><tspan class="cls-1" x="28.46" y="28.78">u</tspan><tspan x="41.19" y="28.78">a</tspan></text>
  <polygon class="cls-8" points="338.69 262.6 330.04 262.6 330.04 253.95 324.38 253.95 324.38 262.6 315.73 262.6 315.73 268.27 324.38 268.27 324.38 276.92 330.04 276.92 330.04 268.27 338.69 268.27 338.69 262.6"/>
  <path class="cls-8" d="M32.33,39.86c-.2.03-.38.13-.52.28l-.98.98c-.36.36-.38.93-.06,1.32l.77.92v11.25c0,.54.44.98.98.98s.98.43.98.98-.43.98-.98.98-.98-.43-.98-.98h-1.97c0,1.62,1.33,2.95,2.95,2.95s2.95-1.33,2.95-2.95c0-1.24-.88-2.12-1.97-2.55v-8.27l10.82,13.16v4.55h-16.73v6.89c0,1.62,1.33,2.95,2.95,2.95h4.03c.47,2.79,2.89,4.92,5.81,4.92s5.34-2.13,5.81-4.92h13.96c.47,2.79,2.89,4.92,5.81,4.92s5.34-2.13,5.81-4.92h2.06c1.62,0,2.95-1.33,2.95-2.95v-9.47c0-2.25-1.57-4.24-1.57-4.24h-.03l-4.06-5.41v-.03l-.03-.03c-.91-1.1-2.27-2.46-4.15-2.46h-7.87c-1.62,0-2.95,1.33-2.95,2.95v11.81h-1.97v-4.92c0-.28-.12-.55-.34-.74l-20.66-17.71c-.2-.18-.47-.27-.74-.25h-.09ZM34.36,43.73l17.83,15.28v4.46h-5.9v-4.92c0-.22-.08-.44-.22-.61l-11.71-14.2ZM59.08,50.68h7.87c.77,0,1.86.83,2.61,1.72,0,.01.02.02.03.03l.15.22h-4.77c-1.57,0-2.95,1.27-2.95,2.95v3.94c0,.82.37,1.54.89,2.06s1.24.89,2.06.89h9.84v7.87c0,.55-.44.98-.98.98h-2.06c-.47-2.79-2.89-4.92-5.81-4.92s-5.34,2.13-5.81,4.92h-2.06v-19.68c0-.55.44-.98.98-.98ZM64.98,54.62h6.24l2.4,3.2s.89,1.53,1.08,2.71h-9.72c-.17,0-.43-.12-.65-.34s-.34-.48-.34-.65v-3.94c0-.5.58-.98.98-.98ZM29.56,65.44h26.56v5.9h-9.93c-.47-2.79-2.89-4.92-5.81-4.92s-5.34,2.13-5.81,4.92h-4.03c-.54,0-.98-.44-.98-.98v-4.92ZM40.38,68.39c2.19,0,3.94,1.75,3.94,3.94s-1.75,3.94-3.94,3.94-3.94-1.75-3.94-3.94,1.75-3.94,3.94-3.94ZM65.96,68.39c2.19,0,3.94,1.75,3.94,3.94s-1.75,3.94-3.94,3.94-3.94-1.75-3.94-3.94,1.75-3.94,3.94-3.94Z"/>
</svg>