<?xml version="1.0" encoding="UTF-8"?>
<svg id="Layer_1" data-name="Layer 1" xmlns="http://www.w3.org/2000/svg" viewBox="0 0 366.28 305.38">
  <defs>
    <style>
      .cls-1 {
        letter-spacing: -.01em;
      }

      .cls-2 {
        letter-spacing: 0em;
      }

      .cls-3 {
        letter-spacing: 0em;
      }

      .cls-4 {
        letter-spacing: 0em;
      }

      .cls-5 {
        letter-spacing: 0em;
      }

      .cls-6 {
        letter-spacing: -.03em;
      }

      .cls-7 {
        fill: #fff;
      }

      .cls-8 {
        letter-spacing: 0em;
      }

      .cls-9 {
        letter-spacing: -.03em;
      }

      .cls-10 {
        letter-spacing: 0em;
      }

      .cls-11 {
        letter-spacing: 0em;
      }

      .cls-12 {
        letter-spacing: -.01em;
      }

      .cls-13 {
        font-family: UrbanistRoman-Bold, Urbanist;
        font-size: 23.99px;
        font-variation-settings: 'wght' 700;
        font-weight: 700;
      }

      .cls-14 {
        letter-spacing: 0em;
      }

      .cls-15 {
        letter-spacing: -.04em;
      }

      .cls-16 {
        letter-spacing: -.03em;
      }

      .cls-17 {
        letter-spacing: -.02em;
      }

      .cls-18 {
        letter-spacing: -.02em;
      }

      .cls-19 {
        letter-spacing: -.01em;
      }

      .cls-20 {
        letter-spacing: 0em;
      }

      .cls-21 {
        letter-spacing: 0em;
      }

      .cls-22 {
        letter-spacing: -.04em;
      }

      .cls-23 {
        letter-spacing: 0em;
      }

      .cls-24 {
        letter-spacing: -.03em;
      }

      .cls-25 {
        letter-spacing: -.02em;
      }

      .cls-26 {
        letter-spacing: -.01em;
      }

      .cls-27 {
        letter-spacing: 0em;
      }

      .cls-28 {
        letter-spacing: -.01em;
      }

      .cls-29 {
        letter-spacing: 0em;
      }

      .cls-30 {
        letter-spacing: 0em;
      }

      .cls-31 {
        font-family: Urbanist-Regular, Urbanist;
        font-size: 18px;
        font-variation-settings: 'wght' 400;
      }

      .cls-32 {
        fill: #130044;
      }

      .cls-33 {
        letter-spacing: -.01em;
      }
    </style>
  </defs>
  <rect class="cls-32" x="0" y="0" width="366.28" height="305.38" rx="29.13" ry="29.13"/>
  <g>
    <path class="cls-7" d="M42.81,55.62c.27,0,.48-.22.48-.48s-.22-.48-.49-.48-.48.22-.48.48.22.48.49.48Z"/>
    <path class="cls-7" d="M42.79,56.69s0,0,.01,0c-.14.15-.18.37-.08.55,0,0,.52,1.05.08,1.49-.57.57-.31,1.36-.12,1.93.15.47.25.81.12.94-.95.95-.13,2.64-.09,2.71.08.16.25.27.43.27.08,0,.15-.02.21-.05.12-.06.2-.16.24-.28.04-.12.03-.25-.03-.37-.18-.37-.45-1.24-.09-1.6.57-.57.31-1.36.12-1.93-.15-.47-.25-.8-.12-.94.96-.96.12-2.57.08-2.63-.05-.1-.14-.16-.23-.2.59-.22,1.01-.79,1.01-1.45,0-.86-.7-1.56-1.56-1.56s-1.56.7-1.56,1.56.7,1.56,1.56,1.56ZM42.2,55.13c0-.33.27-.59.59-.59s.59.27.59.59-.27.59-.59.59-.59-.27-.59-.59Z"/>
    <path class="cls-7" d="M57.51,49.27h-2.46c.04-.07.07-.15.07-.24v-12.92s-.01-.05-.01-.07c0-.04,0-.08-.02-.11-.03-.06-.06-.11-.11-.16l-3.59-3.59s-.02-.01-.03-.02c-.08-.07-.19-.12-.31-.12h-18.66c-.07,0-.13.01-.19.04-.02,0-.04.03-.06.04-.03.02-.07.04-.1.06-.03.03-.05.07-.08.11,0,.01-.02.02-.03.04-.02.06-.04.12-.04.19v15.79c0,.27.22.48.48.48s.48-.22.48-.48v-15.31h17.98l3.31,3.31v12.72c0,.09.03.16.07.23h-26.15c-.27,0-.48.22-.48.48v25.84c0,1.45,1.18,2.64,2.64,2.64h25.12c1.45,0,2.64-1.18,2.64-2.64v-25.84c0-.27-.22-.48-.48-.48ZM55.35,77.26h-25.12c-.92,0-1.67-.75-1.67-1.67v-25.36h28.47v25.36c0,.92-.75,1.67-1.67,1.67Z"/>
    <path class="cls-7" d="M50.33,33.47c-.27,0-.48.22-.48.48v2.87c0,.27.22.48.48.48h2.87c.27,0,.48-.22.48-.48,0-.27-.22-.48-.48-.48h-2.39v-2.39c0-.27-.22-.48-.48-.48Z"/>
    <path class="cls-7" d="M30.95,48.8h0c.13,0,.25-.05.34-.14.09-.09.14-.21.14-.34v-14.72c0-.27-.22-.48-.48-.48s-.48.22-.48.48v14.72c0,.27.22.48.48.48Z"/>
    <path class="cls-7" d="M36.33,46.29h14.36c.27,0,.48-.22.48-.48s-.22-.48-.48-.48h-14.36c-.27,0-.48.22-.48.48s.22.48.48.48Z"/>
    <path class="cls-7" d="M35.85,42.93c0,.27.22.48.48.48h14.36c.27,0,.48-.22.48-.48s-.22-.48-.48-.48h-14.36c-.27,0-.48.22-.48.48Z"/>
    <path class="cls-7" d="M57.11,48.58c.09.14.24.22.4.22.08,0,.16-.02.24-.06h.02s0-.02.01-.02l.03-.02h0c.09-.07.15-.17.18-.29.03-.13,0-.25-.07-.36l-1.44-2.15c-.14-.21-.42-.27-.64-.15h-.01s-.01.02-.02.02l-.06.04h0c-.18.16-.21.43-.08.63l1.44,2.15Z"/>
    <path class="cls-7" d="M28.08,48.8c.16,0,.31-.08.4-.22l1.44-2.15c.07-.11.1-.24.07-.36-.02-.11-.09-.22-.18-.29l-.02-.04h-.04c-.1-.06-.21-.07-.33-.05-.13.03-.24.1-.31.21l-1.44,2.15c-.05.08-.08.17-.08.27,0,.27.22.48.48.48Z"/>
    <path class="cls-7" d="M53.2,68.65h-20.82c-.27,0-.48.22-.48.48v4.31c0,.27.22.48.48.48h20.82c.13,0,.25-.05.34-.14.09-.09.14-.21.14-.34v-4.31c0-.27-.22-.48-.48-.48ZM52.72,69.62v3.34h-19.85v-3.34h19.85Z"/>
    <path class="cls-7" d="M34.54,71.77h16.51c.27,0,.48-.22.48-.48s-.22-.48-.48-.48h-16.51c-.27,0-.48.22-.48.48s.22.48.48.48Z"/>
  </g>
  <text class="cls-7" transform="translate(27.59 119.7)"><tspan class="cls-13"><tspan class="cls-6" x="0" y="0">E</tspan><tspan x="12.47" y="0">xt</tspan><tspan class="cls-22" x="35.37" y="0">r</tspan><tspan class="cls-25" x="43.7" y="0">a</tspan><tspan class="cls-17" x="57.52" y="0">v</tspan><tspan class="cls-1" x="71.1" y="0">i</tspan><tspan class="cls-20" x="76.62" y="0">o</tspan><tspan x="89.82" y="0">, </tspan><tspan class="cls-15" x="101.64" y="0">r</tspan><tspan class="cls-18" x="109.98" y="0">o</tspan><tspan class="cls-10" x="122.86" y="0">u</tspan><tspan class="cls-20" x="135.82" y="0">b</tspan><tspan x="150.45" y="0">o </tspan><tspan class="cls-25" x="169.64" y="0">o</tspan><tspan x="182.52" y="0">u </tspan><tspan class="cls-21" x="201.19" y="0">f</tspan><tspan x="210.04" y="0">ur</tspan><tspan class="cls-33" x="232.17" y="0">t</tspan><tspan x="240.5" y="0">o </tspan></tspan><tspan class="cls-13"><tspan class="cls-2" x="0" y="28.78">d</tspan><tspan x="14.69" y="28.78">e </tspan><tspan class="cls-2" x="33.87" y="28.78">d</tspan><tspan class="cls-20" x="48.56" y="28.78">o</tspan><tspan class="cls-12" x="61.75" y="28.78">c</tspan><tspan x="73.71" y="28.78">u</tspan><tspan class="cls-20" x="86.62" y="28.78">m</tspan><tspan class="cls-1" x="107.69" y="28.78">e</tspan><tspan x="120.83" y="28.78">n</tspan><tspan class="cls-33" x="134.22" y="28.78">t</tspan><tspan class="cls-2" x="142.54" y="28.78">o</tspan><tspan x="155.79" y="28.78">s</tspan></tspan><tspan class="cls-31"><tspan class="cls-24" x="0" y="50.38">C</tspan><tspan class="cls-30" x="12.13" y="50.38">o</tspan><tspan class="cls-5" x="22.06" y="50.38">b</tspan><tspan class="cls-9" x="32.8" y="50.38">r</tspan><tspan x="38.63" y="50.38">e o </tspan><tspan class="cls-27" x="67.4" y="50.38">s</tspan><tspan class="cls-23" x="75.07" y="50.38">e</tspan><tspan class="cls-29" x="84.94" y="50.38">g</tspan><tspan x="95.4" y="50.38">u</tspan><tspan class="cls-9" x="104.69" y="50.38">r</tspan><tspan class="cls-23" x="110.52" y="50.38">a</tspan><tspan class="cls-27" x="120.8" y="50.38">d</tspan><tspan x="131.56" y="50.38">o </tspan><tspan class="cls-23" x="145.96" y="50.38">p</tspan><tspan class="cls-5" x="156.6" y="50.38">o</tspan><tspan x="166.59" y="50.38">r </tspan><tspan class="cls-27" x="177.34" y="50.38">d</tspan><tspan x="188.11" y="50.38">a</tspan><tspan class="cls-28" x="198.57" y="50.38">n</tspan><tspan class="cls-4" x="208.03" y="50.38">o</tspan><tspan class="cls-14" x="218.05" y="50.38">s</tspan><tspan x="225.76" y="50.38">, </tspan></tspan><tspan class="cls-31"><tspan class="cls-23" x="0" y="71.98">p</tspan><tspan class="cls-5" x="10.64" y="71.98">e</tspan><tspan class="cls-9" x="20.6" y="71.98">r</tspan><tspan class="cls-27" x="26.43" y="71.98">d</tspan><tspan x="37.2" y="71.98">a, </tspan><tspan class="cls-11" x="55.59" y="71.98">a</tspan><tspan x="66.17" y="71.98">l</tspan><tspan class="cls-26" x="69.59" y="71.98">t</tspan><tspan class="cls-5" x="75.55" y="71.98">e</tspan><tspan class="cls-9" x="85.52" y="71.98">r</tspan><tspan class="cls-23" x="91.35" y="71.98">a</tspan><tspan class="cls-29" x="101.63" y="71.98">ç</tspan><tspan class="cls-28" x="110.68" y="71.98">ã</tspan><tspan x="120.96" y="71.98">o </tspan><tspan class="cls-23" x="135.36" y="71.98">o</tspan><tspan x="145.26" y="71.98">u </tspan><tspan class="cls-9" x="158.87" y="71.98">r</tspan><tspan class="cls-23" x="164.7" y="71.98">o</tspan><tspan class="cls-11" x="174.6" y="71.98">u</tspan><tspan class="cls-28" x="184" y="71.98">b</tspan><tspan x="194.65" y="71.98">o a </tspan></tspan><tspan class="cls-31"><tspan class="cls-27" x="0" y="93.58">d</tspan><tspan class="cls-23" x="10.76" y="93.58">o</tspan><tspan class="cls-5" x="20.66" y="93.58">c</tspan><tspan x="29.75" y="93.58">u</tspan><tspan class="cls-28" x="39.03" y="93.58">m</tspan><tspan class="cls-5" x="54.85" y="93.58">e</tspan><tspan x="64.81" y="93.58">n</tspan><tspan class="cls-26" x="74.46" y="93.58">t</tspan><tspan class="cls-27" x="80.42" y="93.58">o</tspan><tspan x="90.44" y="93.58">s </tspan><tspan class="cls-4" x="102.49" y="93.58">d</tspan><tspan x="113.26" y="93.58">e </tspan><tspan class="cls-19" x="127.63" y="93.58">t</tspan><tspan class="cls-5" x="133.59" y="93.58">e</tspan><tspan class="cls-16" x="143.56" y="93.58">r</tspan><tspan class="cls-29" x="149.39" y="93.58">c</tspan><tspan class="cls-28" x="158.44" y="93.58">e</tspan><tspan class="cls-8" x="168.32" y="93.58">i</tspan><tspan class="cls-9" x="171.71" y="93.58">r</tspan><tspan x="177.54" y="93.58">o </tspan><tspan class="cls-29" x="191.94" y="93.58">q</tspan><tspan class="cls-27" x="202.64" y="93.58">u</tspan><tspan x="211.87" y="93.58">e </tspan><tspan class="cls-27" x="226.24" y="93.58">e</tspan><tspan x="236.23" y="93.58">s</tspan><tspan class="cls-19" x="243.96" y="93.58">t</tspan><tspan class="cls-23" x="249.93" y="93.58">ã</tspan><tspan x="260.21" y="93.58">o </tspan></tspan><tspan class="cls-31"><tspan class="cls-5" x="0" y="115.18">e</tspan><tspan x="9.96" y="115.18">m s</tspan><tspan class="cls-27" x="38.01" y="115.18">u</tspan><tspan x="47.23" y="115.18">a </tspan><tspan class="cls-23" x="62.01" y="115.18">p</tspan><tspan class="cls-27" x="72.65" y="115.18">o</tspan><tspan x="82.66" y="115.18">s</tspan><tspan class="cls-27" x="90.4" y="115.18">s</tspan><tspan x="98.06" y="115.18">e </tspan><tspan class="cls-5" x="112.44" y="115.18">e</tspan><tspan x="122.4" y="115.18">m </tspan><tspan class="cls-29" x="142.71" y="115.18">c</tspan><tspan class="cls-5" x="151.77" y="115.18">o</tspan><tspan x="161.76" y="115.18">n</tspan><tspan class="cls-27" x="171.4" y="115.18">s</tspan><tspan class="cls-23" x="179.07" y="115.18">e</tspan><tspan class="cls-29" x="188.94" y="115.18">q</tspan><tspan class="cls-27" x="199.65" y="115.18">u</tspan><tspan class="cls-5" x="208.87" y="115.18">ê</tspan><tspan class="cls-23" x="218.83" y="115.18">n</tspan><tspan class="cls-3" x="228.3" y="115.18">c</tspan><tspan class="cls-5" x="237.32" y="115.18">i</tspan><tspan x="240.65" y="115.18">a </tspan></tspan><tspan class="cls-31"><tspan class="cls-27" x="0" y="136.78">d</tspan><tspan x="10.76" y="136.78">a a</tspan><tspan class="cls-27" x="36" y="136.78">t</tspan><tspan class="cls-29" x="42.15" y="136.78">iv</tspan><tspan class="cls-5" x="54.58" y="136.78">i</tspan><tspan class="cls-27" x="57.92" y="136.78">d</tspan><tspan class="cls-23" x="68.68" y="136.78">a</tspan><tspan class="cls-27" x="78.96" y="136.78">d</tspan><tspan x="89.72" y="136.78">e </tspan><tspan class="cls-5" x="104.09" y="136.78">p</tspan><tspan class="cls-16" x="114.82" y="136.78">r</tspan><tspan x="120.65" y="136.78">o</tspan><tspan class="cls-27" x="130.73" y="136.78">fi</tspan><tspan x="140.03" y="136.78">s</tspan><tspan class="cls-5" x="147.76" y="136.78">sio</tspan><tspan class="cls-23" x="168.72" y="136.78">n</tspan><tspan class="cls-11" x="178.19" y="136.78">a</tspan><tspan x="188.77" y="136.78">l.</tspan></tspan></text>
</svg>