<?xml version="1.0" encoding="UTF-8"?>
<svg id="Layer_1" data-name="Layer 1" xmlns="http://www.w3.org/2000/svg" viewBox="0 0 366.28 305.38">
  <defs>
    <style>
      .cls-1 {
        letter-spacing: 0em;
      }

      .cls-2 {
        letter-spacing: -.04em;
      }

      .cls-3 {
        letter-spacing: -.01em;
      }

      .cls-4 {
        letter-spacing: -.01em;
      }

      .cls-5 {
        font-family: UrbanistRoman-Bold, Urbanist;
        font-size: 23.99px;
        font-variation-settings: 'wght' 700;
        font-weight: 700;
      }

      .cls-5, .cls-6 {
        fill: #130044;
      }

      .cls-7 {
        letter-spacing: 0em;
      }

      .cls-8 {
        letter-spacing: -.02em;
      }
    </style>
  </defs>
  <path class="cls-6" d="M337.15,9c11.1,0,20.13,9.03,20.13,20.13v247.12c0,11.1-9.03,20.14-20.13,20.14H29.13c-11.1,0-20.14-9.03-20.14-20.14V29.13c0-11.1,9.03-20.13,20.14-20.13h308.02M337.15,0H29.13C13.11,0,0,13.11,0,29.13v247.12c0,16.02,13.11,29.13,29.13,29.13h308.02c16.02,0,29.13-13.11,29.13-29.13V29.13C366.28,13.11,353.18,0,337.15,0h0Z"/>
  <text class="cls-5" transform="translate(27.59 274.19)"><tspan class="cls-8" x="0" y="0">S</tspan><tspan class="cls-3" x="14.61" y="0">e</tspan><tspan x="27.75" y="0">r</tspan><tspan class="cls-8" x="36.99" y="0">v</tspan><tspan class="cls-3" x="50.56" y="0">i</tspan><tspan class="cls-8" x="56.09" y="0">ç</tspan><tspan class="cls-1" x="67.96" y="0">o</tspan><tspan x="81.21" y="0">s </tspan><tspan class="cls-4" x="97.39" y="0">p</tspan><tspan class="cls-2" x="111.96" y="0">r</tspan><tspan x="120.29" y="0">o</tspan><tspan class="cls-1" x="133.73" y="0">fi</tspan><tspan x="147.91" y="0">s</tspan><tspan class="cls-4" x="158.34" y="0">sio</tspan><tspan class="cls-7" x="187.17" y="0">n</tspan><tspan x="200.31" y="0">a</tspan><tspan class="cls-1" x="214.68" y="0">i</tspan><tspan x="220.31" y="0">s</tspan></text>
  <polygon class="cls-6" points="338.69 262.6 330.04 262.6 330.04 253.95 324.38 253.95 324.38 262.6 315.73 262.6 315.73 268.27 324.38 268.27 324.38 276.92 330.04 276.92 330.04 268.27 338.69 268.27 338.69 262.6"/>
  <g>
    <path class="cls-6" d="M74.52,52.5c-5.64,0-10.23-4.59-10.23-10.23s4.59-10.23,10.23-10.23,10.23,4.59,10.23,10.23-4.59,10.23-10.23,10.23ZM74.52,33.96c-4.58,0-8.31,3.73-8.31,8.31s3.73,8.31,8.31,8.31,8.31-3.73,8.31-8.31-3.73-8.31-8.31-8.31Z"/>
    <path class="cls-6" d="M94.24,78.23h-39.44v-.96c0-10.87,8.84-19.72,19.72-19.72,10.86,0,19.71,8.85,19.72,19.72v.96ZM56.75,76.31h35.55c-.51-9.36-8.29-16.83-17.78-16.84-9.49,0-17.27,7.47-17.77,16.84Z"/>
    <path class="cls-6" d="M102.1,52.5c-5.64,0-10.23-4.59-10.23-10.23s4.59-10.23,10.23-10.23,10.23,4.59,10.23,10.23-4.59,10.23-10.23,10.23ZM102.1,33.96c-4.58,0-8.31,3.73-8.31,8.31s3.73,8.31,8.31,8.31,8.31-3.73,8.31-8.31-3.73-8.31-8.31-8.31Z"/>
    <path class="cls-6" d="M121.82,78.23h-22.36v-1.92h20.42c-.5-9.37-8.28-16.84-17.78-16.84h-.01c-2.9,0-5.78.72-8.34,2.08l-.9-1.69c2.84-1.51,6.03-2.31,9.24-2.31h.01c10.87,0,19.72,8.84,19.72,19.72v.96Z"/>
    <path class="cls-6" d="M47.31,52.5c-5.64,0-10.23-4.59-10.23-10.23s4.59-10.23,10.23-10.23,10.23,4.59,10.23,10.23-4.59,10.23-10.23,10.23ZM47.31,33.96c-4.58,0-8.31,3.73-8.31,8.31s3.73,8.31,8.31,8.31,8.31-3.73,8.31-8.31-3.73-8.31-8.31-8.31Z"/>
    <path class="cls-6" d="M49.96,78.23h-22.36v-.96c0-10.87,8.85-19.72,19.72-19.72h.01c3.21,0,6.41.8,9.24,2.31l-.9,1.69c-2.56-1.36-5.44-2.08-8.34-2.08h-.01c-9.49,0-17.28,7.47-17.78,16.84h20.42v1.92Z"/>
  </g>
</svg>