<?xml version="1.0" encoding="UTF-8"?>
<svg id="Layer_1" data-name="Layer 1" xmlns="http://www.w3.org/2000/svg" viewBox="0 0 366.28 305.38">
  <defs>
    <style>
      .cls-1 {
        letter-spacing: 0em;
      }

      .cls-2 {
        letter-spacing: 0em;
      }

      .cls-3 {
        letter-spacing: 0em;
      }

      .cls-4 {
        letter-spacing: -.04em;
      }

      .cls-5 {
        letter-spacing: 0em;
      }

      .cls-6 {
        fill: #fff;
      }

      .cls-7 {
        letter-spacing: -.02em;
      }

      .cls-8 {
        letter-spacing: -.03em;
      }

      .cls-9 {
        letter-spacing: 0em;
      }

      .cls-10 {
        letter-spacing: 0em;
      }

      .cls-11 {
        font-family: UrbanistRoman-Bold, Urbanist;
        font-size: 23.99px;
        font-variation-settings: 'wght' 700;
        font-weight: 700;
      }

      .cls-12 {
        letter-spacing: -.03em;
      }

      .cls-13 {
        letter-spacing: 0em;
      }

      .cls-14 {
        letter-spacing: -.01em;
      }

      .cls-15 {
        letter-spacing: 0em;
      }

      .cls-16 {
        letter-spacing: 0em;
      }

      .cls-17 {
        letter-spacing: 0em;
      }

      .cls-18 {
        letter-spacing: -.02em;
      }

      .cls-19 {
        letter-spacing: -.01em;
      }

      .cls-20 {
        letter-spacing: 0em;
      }

      .cls-21 {
        letter-spacing: .01em;
      }

      .cls-22 {
        letter-spacing: -.01em;
      }

      .cls-23 {
        letter-spacing: 0em;
      }

      .cls-24 {
        letter-spacing: 0em;
      }

      .cls-25 {
        font-family: Urbanist-Regular, Urbanist;
        font-size: 18px;
        font-variation-settings: 'wght' 400;
      }

      .cls-26 {
        fill: #130044;
      }

      .cls-27 {
        letter-spacing: -.01em;
      }
    </style>
  </defs>
  <rect class="cls-26" x="0" y="0" width="366.28" height="305.38" rx="29.13" ry="29.13"/>
  <g>
    <path class="cls-6" d="M33.15,44.79c0,.5.4.9.9.9s.9-.4.9-.9v-2.43h0v-8.52h3.13s.26,0,.26,0c.5,0,.9-.4.9-.9s-.4-.9-.9-.9h-5.19v12.37h0v.38Z"/>
    <path class="cls-6" d="M45.47,33.84h.11s21.99,0,21.99,0h0s.32,0,.32,0c.5,0,.9-.4.9-.9s-.4-.9-.9-.9h-22.41c-.5,0-.9.4-.9.9s.4.9.9.9Z"/>
    <path class="cls-6" d="M76.51,33.84h.67s2.19,0,2.19,0v7.36h0v1.7c0,.5.4.9.9.9s.9-.4.9-.9v-10.87h-4.67c-.5,0-.9.4-.9.9s.4.9.9.9Z"/>
    <path class="cls-6" d="M78.42,34.84h-18.68c-.5,0-.9.4-.9.9s.4.9.9.9h16.87v.65h-.02v2.43c0,.5.4.9.9.9s.9-.4.9-.9v-1.5h.02v-3.38Z"/>
    <path class="cls-6" d="M38.67,74.59h2.43c.5,0,.9-.4.9-.9s-.4-.9-.9-.9h-3.05c-.5,0-.9.4-.9.9s.4.9.9.9h.62Z"/>
    <path class="cls-6" d="M54.74,36.64c.5,0,.9-.4.9-.9s-.4-.9-.9-.9h-18.83v14.7c0,.5.4.9.9.9s.9-.4.9-.9v-12.9h17.03Z"/>
    <path class="cls-6" d="M37.71,56.42v-2.02c0-.5-.4-.9-.9-.9s-.9.4-.9.9v4.46h7.2c.5,0,.9-.4.9-.9s-.4-.9-.9-.9h-1.45s-3.95,0-3.95,0v-.64Z"/>
    <path class="cls-6" d="M51.02,58.86h16.49c.5,0,.9-.4.9-.9s-.4-.9-.9-.9h-1.26s-14.39,0-14.39,0h0s-.84,0-.84,0c-.5,0-.9.4-.9.9s.4.9.9.9Z"/>
    <path class="cls-6" d="M77.52,44.67c-.5,0-.9.4-.9.9v11.48h-1.68s-1.65,0-1.65,0c-.5,0-.9.4-.9.9s.4.9.9.9h5.13v-13.28c0-.5-.4-.9-.9-.9Z"/>
    <path class="cls-6" d="M50.05,76.43h-11.6c-.5,0-.9.4-.9.9s.4.9.9.9h11.6c.5,0,.9-.4.9-.9s-.4-.9-.9-.9Z"/>
    <path class="cls-6" d="M74.62,76.43h-16.1c-.5,0-.9.4-.9.9s.4.9.9.9h16.1c.5,0,.9-.4.9-.9s-.4-.9-.9-.9Z"/>
    <path class="cls-6" d="M70.97,74.59c.5,0,.9-.4.9-.9s-.4-.9-.9-.9h-1.44s-8.29,0-8.29,0h0s-1.33,0-1.33,0c-.5,0-.9.4-.9.9s.4.9.9.9h2.43s6.21,0,6.21,0h0s2.43,0,2.43,0Z"/>
    <path class="cls-6" d="M53.67,72.79h-1.66s-5.9,0-5.9,0h0s-.1,0-.1,0c-.5,0-.9.4-.9.9s.4.9.9.9h2.43s2.81,0,2.81,0h2.43c.5,0,.9-.4.9-.9s-.4-.9-.9-.9Z"/>
    <path class="cls-6" d="M33.27,72.79h-.12s-3.31,0-3.31,0l.84-1.96.58-1.36s0,0,0,0v-.02s0,0,0,0c.18-.45-.03-.97-.48-1.16-.46-.2-.99.01-1.18.47l-.3.69h0l-.4.93-.26.61h0s-1.05,2.46-1.05,2.46v4.78h4.72c.5,0,.9-.4.9-.9s-.4-.9-.9-.9h-2.92v-1.84h1.45s2.43,0,2.43,0c.5,0,.9-.4.9-.9s-.4-.9-.9-.9Z"/>
    <path class="cls-6" d="M79.7,61.62l.32.76h0l.63,1.47c.2.46.72.67,1.18.47.46-.2.67-.72.47-1.18l-.95-2.23h0s-.18-.41-.18-.41v-11.26c0-.5-.4-.9-.9-.9s-.9.4-.9.9v2.23h0v8.34h-1.58s-2.43,0-2.43,0c-.5,0-.9.4-.9.9s.4.9.9.9h.28s4.05,0,4.05,0Z"/>
    <path class="cls-6" d="M85.18,69.83h0s-.95-2.23-.95-2.23c-.2-.46-.72-.67-1.18-.47-.46.2-.67.72-.47,1.18l.21.49h0l1.71,4h-6.85s-.3,0-.3,0c-.5,0-.9.4-.9.9s.4.9.9.9h2.43s5.16,0,5.16,0v1.84h-3.83c-.5,0-.9.4-.9.9s.4.9.9.9h5.64v-4.78l-1.55-3.62Z"/>
    <path class="cls-6" d="M44.62,61.62h2.43c.5,0,.9-.4.9-.9s-.4-.9-.9-.9h-1.76s-10.35,0-10.35,0v-8.96h-.01c-.03-.47-.41-.85-.89-.85s-.86.38-.89.85h-.01v9.64l-.73,1.7h0s-.23.53-.23.53l-.35.82h0l-.38.89c-.2.46.02.99.47,1.18s.99-.02,1.18-.47l.68-1.59h0l.82-1.92h10Z"/>
    <path class="cls-6" d="M67.87,61.62h2.43c.5,0,.9-.4.9-.9s-.4-.9-.9-.9h-.83s-14.67,0-14.67,0h0s-.13,0-.13,0c-.5,0-.9.4-.9.9s.4.9.9.9h2.43s10.78,0,10.78,0h0Z"/>
  </g>
  <text class="cls-6" transform="translate(27.59 119.7)"><tspan class="cls-11"><tspan class="cls-4" x="0" y="0">R</tspan><tspan class="cls-18" x="13.54" y="0">o</tspan><tspan class="cls-9" x="26.42" y="0">u</tspan><tspan class="cls-15" x="39.39" y="0">b</tspan><tspan x="54.02" y="0">o e </tspan><tspan class="cls-16" x="92.38" y="0">f</tspan><tspan x="101.23" y="0">ur</tspan><tspan class="cls-27" x="123.37" y="0">t</tspan><tspan x="131.7" y="0">o</tspan></tspan><tspan class="cls-25"><tspan class="cls-7" x="0" y="43.2">R</tspan><tspan class="cls-17" x="9.7" y="43.2">o</tspan><tspan class="cls-10" x="19.6" y="43.2">u</tspan><tspan class="cls-22" x="29.01" y="43.2">b</tspan><tspan x="39.65" y="43.2">o (</tspan><tspan class="cls-3" x="59.84" y="43.2">l</tspan><tspan class="cls-22" x="63.2" y="43.2">a</tspan><tspan x="73.48" y="43.2">d</tspan><tspan class="cls-12" x="84.3" y="43.2">r</tspan><tspan class="cls-22" x="90.13" y="43.2">ã</tspan><tspan x="100.41" y="43.2">o </tspan><tspan class="cls-19" x="114.81" y="43.2">t</tspan><tspan class="cls-5" x="120.78" y="43.2">o</tspan><tspan class="cls-22" x="130.77" y="43.2">m</tspan><tspan x="146.58" y="43.2">a </tspan><tspan class="cls-3" x="161.36" y="43.2">s</tspan><tspan class="cls-22" x="169.03" y="43.2">e</tspan><tspan x="178.9" y="43.2">u </tspan></tspan><tspan class="cls-25"><tspan class="cls-17" x="0" y="64.8">e</tspan><tspan class="cls-23" x="9.87" y="64.8">q</tspan><tspan class="cls-13" x="20.57" y="64.8">u</tspan><tspan class="cls-3" x="29.86" y="64.8">i</tspan><tspan class="cls-22" x="33.22" y="64.8">p</tspan><tspan x="43.86" y="64.8">a</tspan><tspan class="cls-17" x="54.31" y="64.8">m</tspan><tspan class="cls-5" x="70.13" y="64.8">e</tspan><tspan x="80.09" y="64.8">n</tspan><tspan class="cls-19" x="89.74" y="64.8">t</tspan><tspan x="95.71" y="64.8">o e </tspan><tspan class="cls-22" x="124.48" y="64.8">h</tspan><tspan x="133.95" y="64.8">á </tspan><tspan class="cls-23" x="148.72" y="64.8">c</tspan><tspan class="cls-5" x="157.78" y="64.8">o</tspan><tspan x="167.77" y="64.8">n</tspan><tspan class="cls-19" x="177.42" y="64.8">t</tspan><tspan x="183.38" y="64.8">a</tspan><tspan class="cls-19" x="193.84" y="64.8">t</tspan><tspan class="cls-22" x="199.81" y="64.8">o</tspan><tspan x="209.71" y="64.8">, </tspan></tspan><tspan class="cls-25"><tspan class="cls-23" x="0" y="86.4">v</tspan><tspan class="cls-5" x="9.14" y="86.4">i</tspan><tspan class="cls-24" x="12.47" y="86.4">o</tspan><tspan class="cls-20" x="22.39" y="86.4">l</tspan><tspan class="cls-5" x="25.75" y="86.4">ê</tspan><tspan class="cls-17" x="35.71" y="86.4">n</tspan><tspan class="cls-1" x="45.18" y="86.4">c</tspan><tspan class="cls-5" x="54.2" y="86.4">i</tspan><tspan x="57.53" y="86.4">a </tspan><tspan class="cls-17" x="72.31" y="86.4">o</tspan><tspan x="82.21" y="86.4">u a</tspan><tspan class="cls-22" x="106.27" y="86.4">mea</tspan><tspan class="cls-2" x="142.24" y="86.4">ç</tspan><tspan x="151.29" y="86.4">a) </tspan><tspan class="cls-17" x="171.85" y="86.4">o</tspan><tspan x="181.75" y="86.4">u </tspan><tspan class="cls-21" x="195.36" y="86.4">f</tspan><tspan x="201.61" y="86.4">ur</tspan><tspan class="cls-19" x="217.33" y="86.4">t</tspan><tspan x="223.3" y="86.4">o </tspan></tspan><tspan class="cls-25"><tspan x="0" y="108">(</tspan><tspan class="cls-20" x="5.79" y="108">l</tspan><tspan class="cls-17" x="9.14" y="108">a</tspan><tspan x="19.42" y="108">d</tspan><tspan class="cls-8" x="30.25" y="108">r</tspan><tspan class="cls-17" x="36.08" y="108">ã</tspan><tspan x="46.36" y="108">o </tspan><tspan class="cls-14" x="60.76" y="108">t</tspan><tspan class="cls-5" x="66.73" y="108">o</tspan><tspan class="cls-17" x="76.72" y="108">m</tspan><tspan x="92.53" y="108">a </tspan><tspan class="cls-20" x="107.31" y="108">s</tspan><tspan class="cls-17" x="114.97" y="108">e</tspan><tspan x="124.85" y="108">u </tspan><tspan class="cls-22" x="138.46" y="108">e</tspan><tspan class="cls-23" x="148.33" y="108">q</tspan><tspan x="159.03" y="108">u</tspan><tspan class="cls-20" x="168.32" y="108">i</tspan><tspan class="cls-17" x="171.67" y="108">p</tspan><tspan x="182.31" y="108">a</tspan><tspan class="cls-17" x="192.77" y="108">m</tspan><tspan class="cls-5" x="208.58" y="108">e</tspan><tspan x="218.55" y="108">n</tspan><tspan class="cls-14" x="228.19" y="108">t</tspan><tspan x="234.16" y="108">o </tspan></tspan><tspan class="cls-25"><tspan class="cls-20" x="0" y="129.6">s</tspan><tspan class="cls-5" x="7.67" y="129.6">e</tspan><tspan x="17.63" y="129.6">m </tspan><tspan class="cls-20" x="37.94" y="129.6">e</tspan><tspan x="47.93" y="129.6">s</tspan><tspan class="cls-19" x="55.66" y="129.6">t</tspan><tspan class="cls-10" x="61.63" y="129.6">a</tspan><tspan class="cls-17" x="72.21" y="129.6">b</tspan><tspan class="cls-24" x="82.85" y="129.6">e</tspan><tspan class="cls-20" x="92.75" y="129.6">l</tspan><tspan class="cls-22" x="96.11" y="129.6">e</tspan><tspan class="cls-23" x="105.98" y="129.6">c</tspan><tspan class="cls-5" x="115.04" y="129.6">e</tspan><tspan x="125" y="129.6">r </tspan><tspan class="cls-23" x="135.75" y="129.6">c</tspan><tspan class="cls-5" x="144.81" y="129.6">o</tspan><tspan x="154.8" y="129.6">n</tspan><tspan class="cls-19" x="164.45" y="129.6">t</tspan><tspan x="170.41" y="129.6">a</tspan><tspan class="cls-19" x="180.87" y="129.6">t</tspan><tspan x="186.84" y="129.6">o) </tspan></tspan><tspan class="cls-25"><tspan class="cls-17" x="0" y="151.2">me</tspan><tspan x="25.69" y="151.2">d</tspan><tspan class="cls-5" x="36.51" y="151.2">i</tspan><tspan x="39.84" y="151.2">an</tspan><tspan class="cls-19" x="59.95" y="151.2">t</tspan><tspan x="65.92" y="151.2">e a</tspan><tspan class="cls-5" x="90.75" y="151.2">r</tspan><tspan class="cls-8" x="97.09" y="151.2">r</tspan><tspan class="cls-5" x="102.92" y="151.2">o</tspan><tspan class="cls-10" x="112.91" y="151.2">m</tspan><tspan class="cls-17" x="129.02" y="151.2">b</tspan><tspan x="139.67" y="151.2">a</tspan><tspan class="cls-17" x="150.13" y="151.2">m</tspan><tspan class="cls-5" x="165.94" y="151.2">e</tspan><tspan x="175.9" y="151.2">n</tspan><tspan class="cls-14" x="185.55" y="151.2">t</tspan><tspan class="cls-17" x="191.52" y="151.2">o</tspan><tspan x="201.42" y="151.2">.</tspan></tspan></text>
</svg>