<?xml version="1.0" encoding="UTF-8"?>
<svg id="Layer_1" data-name="Layer 1" xmlns="http://www.w3.org/2000/svg" viewBox="0 0 366.28 305.38">
  <defs>
    <style>
      .cls-1 {
        letter-spacing: 0em;
      }

      .cls-2 {
        letter-spacing: 0em;
      }

      .cls-3 {
        letter-spacing: 0em;
      }

      .cls-4 {
        letter-spacing: 0em;
      }

      .cls-5 {
        fill: #fff;
      }

      .cls-6 {
        letter-spacing: -.01em;
      }

      .cls-7 {
        letter-spacing: 0em;
      }

      .cls-8 {
        letter-spacing: -.03em;
      }

      .cls-9 {
        letter-spacing: 0em;
      }

      .cls-10 {
        letter-spacing: -.02em;
      }

      .cls-11 {
        letter-spacing: -.03em;
      }

      .cls-12 {
        letter-spacing: -.04em;
      }

      .cls-13 {
        letter-spacing: 0em;
      }

      .cls-14 {
        letter-spacing: 0em;
      }

      .cls-15 {
        font-family: UrbanistRoman-Bold, Urbanist;
        font-size: 23.99px;
        font-variation-settings: 'wght' 700;
        font-weight: 700;
      }

      .cls-16 {
        letter-spacing: -.03em;
      }

      .cls-17 {
        letter-spacing: -.03em;
      }

      .cls-18 {
        letter-spacing: -.01em;
      }

      .cls-19 {
        letter-spacing: -.02em;
      }

      .cls-20 {
        letter-spacing: 0em;
      }

      .cls-21 {
        letter-spacing: -.01em;
      }

      .cls-22 {
        letter-spacing: 0em;
      }

      .cls-23 {
        letter-spacing: 0em;
      }

      .cls-24 {
        font-family: Urbanist-Regular, Urbanist;
        font-size: 18px;
        font-variation-settings: 'wght' 400;
      }

      .cls-25 {
        letter-spacing: 0em;
      }

      .cls-26 {
        letter-spacing: -.02em;
      }

      .cls-27 {
        letter-spacing: 0em;
      }

      .cls-28 {
        fill: #130044;
      }
    </style>
  </defs>
  <rect class="cls-28" x="0" y="0" width="366.28" height="305.38" rx="29.13" ry="29.13"/>
  <g id="_6" data-name="6">
    <path class="cls-5" d="M54.87,73.13c-.3,0-.59-.12-.83-.36l-18.74-18.74c-.47-.47-.47-1.19,0-1.66l12.63-12.63c.47-.47,1.19-.47,1.66,0l3.2,3.2c.24.24.36.53.36.83s-.12.59-.36.83l-3.26,3.26c-.24.24-.36.53-.36.89h0c0,.3.12.65.36.89.24.24.53.36.89.36h0c.36,0,.65-.12.89-.36l3.26-3.26c.47-.47,1.19-.47,1.66,0l4.92,4.92c.47.47.47,1.19,0,1.66l-3.26,3.26c-.24.24-.36.53-.36.89s.12.65.36.89c.47.47,1.25.47,1.78,0l3.26-3.26c.24-.24.53-.36.83-.36h0c.3,0,.59.12.83.36l3.79,3.79c.3.3.42.65.36,1.07l-1.6,8.89c-.3,1.54-1.54,2.85-3.08,3.08l-8.89,1.6c-.18-.06-.24-.06-.3-.06ZM37.79,53.21l17.49,17.49,8.3-1.48c.59-.12,1.07-.59,1.19-1.19l1.48-8.3-2.55-2.55-2.43,2.43c-1.42,1.42-3.68,1.42-5.1,0-.71-.71-1.07-1.6-1.07-2.55s.36-1.84,1.07-2.55l2.43-2.43-3.2-3.2-2.43,2.43c-.65.71-1.6,1.07-2.55,1.07h0c-.95,0-1.9-.36-2.55-1.07-.71-.71-1.07-1.6-1.07-2.55s.36-1.9,1.07-2.55l2.43-2.43-1.48-1.48-11.03,10.91ZM40.28,50.24h0c-.3,0-.59-.12-.83-.36l-3.85-3.85c-.47-.47-.47-1.19,0-1.66l4.33-4.33c.47-.47,1.19-.47,1.66,0l3.79,3.79c.47.47.47,1.19,0,1.66l-4.33,4.33c-.18.3-.47.42-.77.42ZM38.15,45.2l2.13,2.13,2.61-2.61-2.13-2.13-2.61,2.61ZM70.11,78.23c-.95,0-1.9-.36-2.61-1.07l-5.69-5.69c-.3-.3-.42-.77-.3-1.19s.47-.71.95-.83l1.07-.18c.59-.12,1.07-.59,1.19-1.19l.24-1.3c.06-.42.42-.77.83-.95.42-.12.89,0,1.19.3l5.81,5.81c1.42,1.42,1.42,3.79,0,5.22-.77.71-1.72,1.07-2.67,1.07ZM64.95,71.23l4.27,4.27c.53.53,1.36.53,1.84,0,.53-.53.53-1.36,0-1.84l-4.27-4.27c-.42.77-1.07,1.42-1.84,1.84ZM31.98,50.9h0c-.3,0-.59-.12-.83-.36l-3.2-3.2c-.47-.47-.47-1.19,0-1.66l13.28-13.28c.47-.47,1.19-.47,1.66,0l3.2,3.2c.47.47.47,1.19,0,1.66l-13.28,13.28c-.24.24-.53.36-.83.36ZM30.5,46.51l1.48,1.48,11.56-11.56-1.48-1.48-11.56,11.56ZM50.36,52.38c-.95,0-1.9-.36-2.55-1.07-.71-.71-1.07-1.6-1.07-2.55s.36-1.84,1.07-2.55l3.26-3.26c.24-.24.53-.36.83-.36h0c.3,0,.59.12.83.36l3.44,3.44c.47.47.47,1.19,0,1.66l-3.26,3.26c-.65.65-1.54,1.07-2.55,1.07h0ZM51.96,45.44l-2.43,2.43c-.24.24-.36.53-.36.89s.12.65.36.89c.24.24.53.36.89.36h0c.36,0,.65-.12.89-.36l2.43-2.43-1.78-1.78ZM58.72,60.68c-.95,0-1.84-.36-2.55-1.07-.71-.71-1.07-1.6-1.07-2.55s.36-1.84,1.07-2.55l3.26-3.26c.47-.47,1.19-.47,1.66,0l3.44,3.44c.24.24.36.53.36.83s-.12.59-.36.83l-3.26,3.26c-.71.71-1.66,1.07-2.55,1.07ZM60.26,53.74l-2.43,2.43c-.24.24-.36.53-.36.89s.12.65.36.89c.47.47,1.25.47,1.78,0l2.43-2.43-1.78-1.78Z"/>
  </g>
  <text class="cls-5" transform="translate(27.59 119.7)"><tspan class="cls-15"><tspan class="cls-16" x="0" y="0">A</tspan><tspan class="cls-26" x="16.66" y="0">p</tspan><tspan x="31.05" y="0">l</tspan><tspan class="cls-6" x="36.85" y="0">i</tspan><tspan class="cls-10" x="42.38" y="0">c</tspan><tspan class="cls-13" x="54.25" y="0">a</tspan><tspan class="cls-19" x="68.37" y="0">ç</tspan><tspan class="cls-13" x="80.23" y="0">ã</tspan><tspan x="94.36" y="0">o </tspan><tspan class="cls-1" x="113.55" y="0">d</tspan><tspan x="128.24" y="0">e </tspan><tspan class="cls-12" x="147.42" y="0">v</tspan><tspan class="cls-13" x="160.52" y="0">a</tspan><tspan class="cls-26" x="174.65" y="0">c</tspan><tspan class="cls-27" x="186.42" y="0">i</tspan><tspan class="cls-13" x="192.13" y="0">n</tspan><tspan x="205.28" y="0">as</tspan></tspan><tspan class="cls-24"><tspan class="cls-17" x="0" y="43.2">C</tspan><tspan class="cls-23" x="12.13" y="43.2">o</tspan><tspan class="cls-4" x="22.06" y="43.2">b</tspan><tspan class="cls-8" x="32.8" y="43.2">r</tspan><tspan x="38.63" y="43.2">e o </tspan><tspan class="cls-14" x="67.4" y="43.2">pa</tspan><tspan class="cls-4" x="88.32" y="43.2">g</tspan><tspan x="98.8" y="43.2">a</tspan><tspan class="cls-14" x="109.26" y="43.2">m</tspan><tspan class="cls-4" x="125.07" y="43.2">e</tspan><tspan x="135.04" y="43.2">n</tspan><tspan class="cls-18" x="144.68" y="43.2">t</tspan><tspan class="cls-21" x="150.65" y="43.2">o</tspan><tspan x="160.55" y="43.2">, a</tspan><tspan class="cls-18" x="178.95" y="43.2">t</tspan><tspan x="184.91" y="43.2">é o </tspan><tspan class="cls-11" x="213.69" y="43.2">v</tspan><tspan class="cls-9" x="222.46" y="43.2">a</tspan><tspan class="cls-20" x="233.04" y="43.2">l</tspan><tspan class="cls-4" x="236.39" y="43.2">o</tspan><tspan x="246.38" y="43.2">r </tspan></tspan><tspan class="cls-24"><tspan class="cls-20" x="0" y="64.8">e</tspan><tspan x="9.99" y="64.8">s</tspan><tspan class="cls-20" x="17.72" y="64.8">ti</tspan><tspan class="cls-21" x="27.23" y="64.8">p</tspan><tspan class="cls-9" x="37.86" y="64.8">u</tspan><tspan class="cls-20" x="47.27" y="64.8">l</tspan><tspan class="cls-14" x="50.62" y="64.8">a</tspan><tspan class="cls-20" x="60.9" y="64.8">d</tspan><tspan x="71.67" y="64.8">o </tspan><tspan class="cls-4" x="86.07" y="64.8">e</tspan><tspan x="96.03" y="64.8">m a</tspan><tspan class="cls-14" x="126.8" y="64.8">p</tspan><tspan class="cls-2" x="137.44" y="64.8">ó</tspan><tspan x="147.36" y="64.8">l</tspan><tspan class="cls-25" x="150.78" y="64.8">i</tspan><tspan class="cls-3" x="154.12" y="64.8">c</tspan><tspan class="cls-14" x="163.17" y="64.8">e</tspan><tspan x="173.04" y="64.8">, </tspan><tspan class="cls-20" x="180.98" y="64.8">do</tspan><tspan x="201.76" y="64.8">s </tspan><tspan class="cls-4" x="213.81" y="64.8">c</tspan><tspan x="222.89" y="64.8">us</tspan><tspan class="cls-18" x="239.91" y="64.8">t</tspan><tspan class="cls-20" x="245.88" y="64.8">o</tspan><tspan x="255.9" y="64.8">s </tspan></tspan><tspan class="cls-24"><tspan class="cls-20" x="0" y="86.4">d</tspan><tspan x="10.76" y="86.4">e a</tspan><tspan class="cls-23" x="35.59" y="86.4">p</tspan><tspan x="46.26" y="86.4">l</tspan><tspan class="cls-4" x="49.68" y="86.4">i</tspan><tspan class="cls-22" x="53.01" y="86.4">c</tspan><tspan class="cls-21" x="62.06" y="86.4">a</tspan><tspan class="cls-22" x="72.34" y="86.4">ç</tspan><tspan class="cls-14" x="81.4" y="86.4">ã</tspan><tspan x="91.67" y="86.4">o </tspan><tspan class="cls-20" x="106.07" y="86.4">d</tspan><tspan x="116.84" y="86.4">e </tspan><tspan class="cls-11" x="131.21" y="86.4">v</tspan><tspan class="cls-21" x="139.99" y="86.4">a</tspan><tspan class="cls-23" x="150.26" y="86.4">c</tspan><tspan class="cls-7" x="159.28" y="86.4">i</tspan><tspan class="cls-21" x="162.67" y="86.4">n</tspan><tspan x="172.14" y="86.4">a </tspan><tspan class="cls-20" x="186.92" y="86.4">d</tspan><tspan x="197.68" y="86.4">o </tspan><tspan class="cls-20" x="212.08" y="86.4">s</tspan><tspan class="cls-21" x="219.75" y="86.4">e</tspan><tspan x="229.62" y="86.4">u </tspan><tspan class="cls-14" x="243.23" y="86.4">p</tspan><tspan class="cls-18" x="253.87" y="86.4">e</tspan><tspan class="cls-21" x="263.68" y="86.4">t</tspan><tspan x="269.71" y="86.4">.</tspan></tspan></text>
</svg>