<?xml version="1.0" encoding="UTF-8"?>
<svg id="Layer_1" data-name="Layer 1" xmlns="http://www.w3.org/2000/svg" viewBox="0 0 366.28 305.38">
  <defs>
    <style>
      .cls-1 {
        letter-spacing: 0em;
      }

      .cls-2 {
        letter-spacing: -.01em;
      }

      .cls-3 {
        letter-spacing: -.04em;
      }

      .cls-4 {
        letter-spacing: 0em;
      }

      .cls-5 {
        letter-spacing: 0em;
      }

      .cls-6 {
        letter-spacing: -.01em;
      }

      .cls-7 {
        letter-spacing: -.04em;
      }

      .cls-8 {
        letter-spacing: 0em;
      }

      .cls-9 {
        fill: #fff;
      }

      .cls-10 {
        letter-spacing: -.01em;
      }

      .cls-11 {
        letter-spacing: 0em;
      }

      .cls-12 {
        letter-spacing: -.03em;
      }

      .cls-13 {
        letter-spacing: 0em;
      }

      .cls-14 {
        letter-spacing: -.03em;
      }

      .cls-15 {
        letter-spacing: -.01em;
      }

      .cls-16 {
        letter-spacing: -.01em;
      }

      .cls-17 {
        letter-spacing: 0em;
      }

      .cls-18 {
        letter-spacing: 0em;
      }

      .cls-19 {
        font-family: UrbanistRoman-Bold, Urbanist;
        font-size: 23.99px;
        font-variation-settings: 'wght' 700;
        font-weight: 700;
      }

      .cls-20 {
        letter-spacing: -.01em;
      }

      .cls-21 {
        letter-spacing: -.02em;
      }

      .cls-22 {
        letter-spacing: 0em;
      }

      .cls-23 {
        letter-spacing: -.01em;
      }

      .cls-24 {
        letter-spacing: 0em;
      }

      .cls-25 {
        letter-spacing: 0em;
      }

      .cls-26 {
        letter-spacing: 0em;
      }

      .cls-27 {
        font-family: Urbanist-Regular, Urbanist;
        font-size: 18px;
        font-variation-settings: 'wght' 400;
      }

      .cls-28 {
        fill: #130044;
      }
    </style>
  </defs>
  <rect class="cls-28" x="0" y="0" width="366.28" height="305.38" rx="29.13" ry="29.13"/>
  <path class="cls-9" d="M75.62,35.87c-2.63-2.63-6.26-4.02-9.98-3.81-3.71.21-7.17,1.99-9.49,4.89l-2.62,3.28-2.63-3.28c-2.32-2.9-5.78-4.68-9.49-4.89-3.73-.21-7.35,1.18-9.97,3.81-4.95,4.95-5.14,12.88-.43,18.05l21.81,23.99c.18.2.44.31.71.31s.53-.11.71-.31l21.81-23.99c4.71-5.18,4.52-13.11-.43-18.05ZM74.63,52.63l-21.1,23.21-21.1-23.21c-4.02-4.42-3.86-11.18.37-15.41,2.1-2.1,4.95-3.27,7.9-3.27.2,0,.41,0,.61.02,3.17.18,6.12,1.7,8.1,4.17l3.37,4.22c.37.45,1.13.45,1.5,0l3.37-4.22c1.98-2.48,4.93-4,8.1-4.17,3.17-.18,6.27,1.01,8.51,3.25,4.22,4.22,4.38,10.99.37,15.41Z"/>
  <text class="cls-9" transform="translate(27.59 119.7)"><tspan class="cls-19"><tspan class="cls-3" x="0" y="0">A</tspan><tspan class="cls-15" x="16.54" y="0">t</tspan><tspan x="24.86" y="0">o </tspan><tspan class="cls-1" x="44.05" y="0">d</tspan><tspan x="58.74" y="0">o </tspan><tspan class="cls-17" x="77.93" y="0">b</tspan><tspan class="cls-6" x="92.56" y="0">o</tspan><tspan x="105.72" y="0">m </tspan><tspan class="cls-1" x="132.79" y="0">s</tspan><tspan x="143.03" y="0">a</tspan><tspan class="cls-17" x="157.4" y="0">m</tspan><tspan x="178.47" y="0">a</tspan><tspan class="cls-21" x="192.84" y="0">r</tspan><tspan x="201.7" y="0">i</tspan><tspan class="cls-15" x="207.51" y="0">t</tspan><tspan class="cls-4" x="215.83" y="0">a</tspan><tspan class="cls-17" x="230.2" y="0">n</tspan><tspan x="243.34" y="0">o</tspan></tspan><tspan class="cls-27"><tspan class="cls-18" x="0" y="21.6">A</tspan><tspan x="12" y="21.6">m</tspan><tspan class="cls-23" x="27.99" y="21.6">p</tspan><tspan x="38.63" y="21.6">a</tspan><tspan class="cls-12" x="49.09" y="21.6">r</tspan><tspan x="54.92" y="21.6">a a </tspan><tspan class="cls-18" x="84.47" y="21.6">p</tspan><tspan class="cls-22" x="95.11" y="21.6">e</tspan><tspan x="105.1" y="21.6">s</tspan><tspan class="cls-22" x="112.83" y="21.6">s</tspan><tspan class="cls-18" x="120.5" y="21.6">o</tspan><tspan x="130.4" y="21.6">a </tspan><tspan class="cls-22" x="145.18" y="21.6">s</tspan><tspan class="cls-18" x="152.85" y="21.6">e</tspan><tspan class="cls-24" x="162.72" y="21.6">g</tspan><tspan x="173.18" y="21.6">u</tspan><tspan class="cls-12" x="182.46" y="21.6">r</tspan><tspan class="cls-18" x="188.3" y="21.6">a</tspan><tspan class="cls-22" x="198.58" y="21.6">d</tspan><tspan x="209.34" y="21.6">a </tspan><tspan class="cls-8" x="224.12" y="21.6">e</tspan><tspan x="234.08" y="21.6">m </tspan></tspan><tspan class="cls-27"><tspan class="cls-24" x="0" y="43.2">c</tspan><tspan x="9.05" y="43.2">a</tspan><tspan class="cls-22" x="19.51" y="43.2">s</tspan><tspan x="27.18" y="43.2">o </tspan><tspan class="cls-22" x="41.58" y="43.2">d</tspan><tspan x="52.34" y="43.2">e </tspan><tspan class="cls-14" x="66.72" y="43.2">r</tspan><tspan class="cls-23" x="72.55" y="43.2">e</tspan><tspan class="cls-24" x="82.42" y="43.2">c</tspan><tspan class="cls-22" x="91.48" y="43.2">l</tspan><tspan x="94.83" y="43.2">a</tspan><tspan class="cls-18" x="105.29" y="43.2">ma</tspan><tspan class="cls-24" x="131.38" y="43.2">ç</tspan><tspan class="cls-18" x="140.44" y="43.2">õ</tspan><tspan class="cls-22" x="150.34" y="43.2">e</tspan><tspan x="160.33" y="43.2">s </tspan><tspan class="cls-22" x="172.38" y="43.2">d</tspan><tspan x="183.14" y="43.2">e </tspan><tspan class="cls-20" x="197.51" y="43.2">t</tspan><tspan class="cls-8" x="203.48" y="43.2">e</tspan><tspan class="cls-12" x="213.44" y="43.2">r</tspan><tspan class="cls-24" x="219.27" y="43.2">c</tspan><tspan class="cls-18" x="228.33" y="43.2">e</tspan><tspan class="cls-11" x="238.2" y="43.2">i</tspan><tspan class="cls-12" x="241.6" y="43.2">r</tspan><tspan class="cls-22" x="247.43" y="43.2">o</tspan><tspan x="257.44" y="43.2">s </tspan></tspan><tspan class="cls-27"><tspan class="cls-18" x="0" y="64.8">p</tspan><tspan class="cls-8" x="10.64" y="64.8">o</tspan><tspan x="20.63" y="64.8">r </tspan><tspan class="cls-2" x="31.38" y="64.8">f</tspan><tspan class="cls-13" x="37.18" y="64.8">a</tspan><tspan x="47.75" y="64.8">l</tspan><tspan class="cls-18" x="51.17" y="64.8">h</tspan><tspan x="60.64" y="64.8">a du</tspan><tspan class="cls-12" x="95.53" y="64.8">r</tspan><tspan x="101.37" y="64.8">an</tspan><tspan class="cls-20" x="121.47" y="64.8">t</tspan><tspan x="127.44" y="64.8">e </tspan><tspan class="cls-22" x="141.81" y="64.8">o</tspan><tspan x="151.83" y="64.8">s </tspan><tspan class="cls-8" x="163.88" y="64.8">p</tspan><tspan class="cls-24" x="174.61" y="64.8">r</tspan><tspan class="cls-11" x="180.93" y="64.8">i</tspan><tspan class="cls-23" x="184.32" y="64.8">me</tspan><tspan class="cls-11" x="210.01" y="64.8">i</tspan><tspan class="cls-12" x="213.4" y="64.8">r</tspan><tspan class="cls-22" x="219.23" y="64.8">o</tspan><tspan x="229.25" y="64.8">s </tspan></tspan><tspan class="cls-27"><tspan class="cls-22" x="0" y="86.4">s</tspan><tspan class="cls-18" x="7.67" y="86.4">o</tspan><tspan class="cls-24" x="17.57" y="86.4">c</tspan><tspan class="cls-8" x="26.62" y="86.4">or</tspan><tspan class="cls-12" x="42.96" y="86.4">r</tspan><tspan class="cls-22" x="48.79" y="86.4">o</tspan><tspan class="cls-11" x="58.81" y="86.4">s</tspan><tspan x="66.51" y="86.4">, as</tspan><tspan class="cls-8" x="92.64" y="86.4">s</tspan><tspan class="cls-22" x="100.28" y="86.4">i</tspan><tspan x="103.64" y="86.4">s</tspan><tspan class="cls-20" x="111.37" y="86.4">t</tspan><tspan class="cls-8" x="117.33" y="86.4">ê</tspan><tspan class="cls-18" x="127.3" y="86.4">n</tspan><tspan class="cls-25" x="136.77" y="86.4">c</tspan><tspan class="cls-8" x="145.78" y="86.4">i</tspan><tspan x="149.11" y="86.4">as </tspan><tspan class="cls-23" x="171.62" y="86.4">o</tspan><tspan x="181.52" y="86.4">u </tspan></tspan><tspan class="cls-27"><tspan x="0" y="108">t</tspan><tspan class="cls-12" x="6.21" y="108">r</tspan><tspan x="12.04" y="108">a</tspan><tspan class="cls-20" x="22.5" y="108">t</tspan><tspan x="28.47" y="108">a</tspan><tspan class="cls-18" x="38.93" y="108">m</tspan><tspan class="cls-8" x="54.74" y="108">e</tspan><tspan x="64.7" y="108">n</tspan><tspan class="cls-16" x="74.35" y="108">t</tspan><tspan class="cls-5" x="80.32" y="108">o</tspan><tspan x="90.33" y="108">s </tspan><tspan class="cls-8" x="102.38" y="108">e</tspan><tspan class="cls-23" x="112.35" y="108">m</tspan><tspan class="cls-8" x="128.16" y="108">e</tspan><tspan class="cls-14" x="138.12" y="108">r</tspan><tspan class="cls-8" x="143.96" y="108">ge</tspan><tspan class="cls-23" x="164.4" y="108">n</tspan><tspan class="cls-25" x="173.87" y="108">c</tspan><tspan class="cls-8" x="182.89" y="108">i</tspan><tspan x="186.22" y="108">a</tspan><tspan class="cls-22" x="196.68" y="108">i</tspan><tspan x="200.03" y="108">s </tspan></tspan><tspan class="cls-27"><tspan class="cls-8" x="0" y="129.6">p</tspan><tspan class="cls-12" x="10.73" y="129.6">r</tspan><tspan class="cls-5" x="16.56" y="129.6">e</tspan><tspan x="26.55" y="129.6">s</tspan><tspan class="cls-16" x="34.28" y="129.6">t</tspan><tspan class="cls-18" x="40.25" y="129.6">a</tspan><tspan class="cls-22" x="50.53" y="129.6">do</tspan><tspan x="71.31" y="129.6">s </tspan><tspan class="cls-10" x="83.36" y="129.6">f</tspan><tspan class="cls-8" x="89.15" y="129.6">o</tspan><tspan class="cls-12" x="99.14" y="129.6">r</tspan><tspan x="104.98" y="129.6">a </tspan><tspan class="cls-22" x="119.75" y="129.6">d</tspan><tspan x="130.52" y="129.6">e </tspan><tspan class="cls-22" x="144.89" y="129.6">s</tspan><tspan class="cls-18" x="152.56" y="129.6">e</tspan><tspan x="162.43" y="129.6">u </tspan><tspan class="cls-7" x="176.04" y="129.6">e</tspan><tspan class="cls-23" x="185.37" y="129.6">xpe</tspan><tspan x="215.29" y="129.6">d</tspan><tspan class="cls-8" x="226.11" y="129.6">ie</tspan><tspan class="cls-26" x="239.41" y="129.6">n</tspan><tspan class="cls-16" x="249.06" y="129.6">t</tspan><tspan x="255.02" y="129.6">e </tspan></tspan><tspan class="cls-27"><tspan class="cls-12" x="0" y="151.2">r</tspan><tspan class="cls-18" x="5.83" y="151.2">e</tspan><tspan class="cls-24" x="15.71" y="151.2">g</tspan><tspan class="cls-13" x="26.16" y="151.2">u</tspan><tspan class="cls-22" x="35.57" y="151.2">l</tspan><tspan x="38.92" y="151.2">ar e </tspan><tspan class="cls-18" x="74.51" y="151.2">o</tspan><tspan x="84.41" y="151.2">ut</tspan><tspan class="cls-12" x="99.91" y="151.2">r</tspan><tspan class="cls-22" x="105.74" y="151.2">o</tspan><tspan x="115.76" y="151.2">s </tspan><tspan class="cls-24" x="127.81" y="151.2">c</tspan><tspan x="136.86" y="151.2">a</tspan><tspan class="cls-22" x="147.32" y="151.2">so</tspan><tspan class="cls-11" x="165.01" y="151.2">s</tspan><tspan x="172.71" y="151.2">.</tspan></tspan></text>
</svg>