<?xml version="1.0" encoding="UTF-8"?>
<svg id="Layer_1" data-name="Layer 1" xmlns="http://www.w3.org/2000/svg" viewBox="0 0 366.28 305.38">
  <defs>
    <style>
      .cls-1 {
        letter-spacing: -.01em;
      }

      .cls-2 {
        letter-spacing: 0em;
      }

      .cls-3 {
        letter-spacing: 0em;
      }

      .cls-4 {
        letter-spacing: 0em;
      }

      .cls-5 {
        letter-spacing: -.04em;
      }

      .cls-6 {
        letter-spacing: 0em;
      }

      .cls-7 {
        fill: #fff;
      }

      .cls-8 {
        letter-spacing: -.02em;
      }

      .cls-9 {
        letter-spacing: 0em;
      }

      .cls-10 {
        letter-spacing: -.03em;
      }

      .cls-11 {
        letter-spacing: -.01em;
      }

      .cls-12 {
        letter-spacing: -.03em;
      }

      .cls-13 {
        font-family: UrbanistRoman-Bold, Urbanist;
        font-size: 23.99px;
        font-variation-settings: 'wght' 700;
        font-weight: 700;
      }

      .cls-14 {
        letter-spacing: -.03em;
      }

      .cls-15 {
        letter-spacing: -.02em;
      }

      .cls-16 {
        letter-spacing: -.01em;
      }

      .cls-17 {
        letter-spacing: 0em;
      }

      .cls-18 {
        letter-spacing: 0em;
      }

      .cls-19 {
        letter-spacing: -.01em;
      }

      .cls-20 {
        letter-spacing: 0em;
      }

      .cls-21 {
        letter-spacing: -.02em;
      }

      .cls-22 {
        letter-spacing: -.01em;
      }

      .cls-23 {
        letter-spacing: 0em;
      }

      .cls-24 {
        letter-spacing: 0em;
      }

      .cls-25 {
        letter-spacing: -.02em;
      }

      .cls-26 {
        font-family: Urbanist-Regular, Urbanist;
        font-size: 18px;
        font-variation-settings: 'wght' 400;
      }

      .cls-27 {
        letter-spacing: 0em;
      }

      .cls-28 {
        fill: #130044;
      }

      .cls-29 {
        letter-spacing: -.01em;
      }
    </style>
  </defs>
  <rect class="cls-28" x="0" y="0" width="366.28" height="305.38" rx="29.13" ry="29.13"/>
  <path class="cls-7" d="M76.11,69.71l-9.26-9.26-.7.7-9.88-9.88h0l-6.97-6.97h0l-9.22-9.22.04-.04-4.26-4.26c-.74-.74-2.05-.74-2.79,0l-.66.66c-.33.33-.57.82-.57,1.39s.16,1.07.57,1.39l.54.55c-1.41,1.5-4.75,5.53-4.55,11.25.08,1.97.57,4.02,1.64,5.98.25.57.66,1.15,1.07,1.8,2.09,3.21,3.31,5.72.97,8.05-.13-.01-.26-.02-.4-.02-2.29,0-4.1,1.8-4.1,4.1,0,2.01,1.39,3.65,3.28,4.02v1.72h-1.64c-.49,0-.82.33-.82.82s.33.82.82.82h1.64v2.46c0,.49-.33.82-.82.82s-.82-.33-.82-.82-.33-.82-.82-.82-.82.33-.82.82c0,1.39,1.07,2.46,2.46,2.46s2.46-1.07,2.46-2.46v-2.46h1.64c.49,0,.82-.33.82-.82s-.33-.82-.82-.82h-1.64v-1.72c1.89-.37,3.28-2.01,3.28-4.02,0-1.51-.78-2.8-1.96-3.51,2.63-3.32.27-6.94-1.32-9.44-.33-.66-.74-1.23-.98-1.72-.98-1.72-1.48-3.52-1.48-5.25-.13-5,2.83-8.72,4.06-10.08l1.36,1.38h-.01s.13.14.13.14c-1.2,2.12-.1,5.63,2.82,8.56,2.13,2.13,4.59,3.28,6.64,3.28.2,0,.4-.01.6-.04-.21,1.52.03,3.21.14,3.89.43,2.44,1.36,4.69,2.52,6.15-1.02,1.62-.85,3.8.51,5.16l2.29,2.29-1.39,1.99c-.51-.23-1.07-.34-1.63-.34-1.07,0-2.05.49-2.87,1.23-.82.74-1.23,1.8-1.23,2.87s.49,2.05,1.23,2.87c.74.82,1.8,1.23,2.87,1.23s2.05-.49,2.87-1.23c.82-.74,1.23-1.8,1.23-2.87s-.46-2.05-1.15-2.78l1.25-1.79,1.21,1.21c.74.82,1.8,1.23,2.87,1.23s2.05-.41,2.95-1.23c1.56-1.64,1.56-4.26,0-5.82l1.1-1.1,2.34,2.33-.57.57,9.18,9.26c.49.41,1.07.66,1.64.66s1.15-.25,1.72-.66l1.39-1.39c.9-.9.9-2.38,0-3.28ZM31.69,68.4c-1.39,0-2.46-1.07-2.46-2.46s1.07-2.46,2.46-2.46,2.46,1.07,2.46,2.46-1.07,2.46-2.46,2.46ZM50.54,72.49c0,.66-.25,1.23-.74,1.72-.9.9-2.54.9-3.44,0-.49-.41-.74-1.07-.74-1.72s.25-1.31.74-1.72c.41-.49,1.07-.74,1.72-.74.22,0,.45.03.66.09l-1.32,1.88c-.33.41-.25.9.16,1.15.16.08.33.16.49.16.25,0,.49-.08.66-.33l1.34-1.92c.31.4.46.91.46,1.43ZM48.25,47.74l1.15-1.15,2.27,2.27,2.4,2.4-1.15,1.15-4.67-4.67ZM47.06,46.55l-9.22-9.22,1.15-1.15,9.22,9.22-1.15,1.15ZM33.58,33.07c-.08-.08-.08-.16-.08-.25s0-.16.08-.25l.66-.66c.08-.08.16-.08.25-.08s.16,0,.25.08l3.03,3.11-1.15,1.15-3.03-3.11ZM39.56,44.87c-2.2-2.2-3.04-4.72-2.71-6.16l8.91,8.88c-1.45.4-3.96-.49-6.19-2.72ZM47.27,49.15l5.56,5.56.03-.03,2.87,2.86-1.09,1.09c-1.43-1.36-3.55-1.53-5.15-.52-1-1.23-1.79-3.17-2.14-5.3-.27-1.57-.26-2.85-.07-3.68ZM58.08,68.07c-.9.98-2.46.98-3.44,0l-1.45-1.45,1.28-1.83c.33-.41.25-.82-.16-1.15s-.9-.25-1.15.16l-1.15,1.64-2.05-2.05c-.98-.9-.98-2.46,0-3.44.49-.49,1.07-.74,1.72-.74s1.31.25,1.72.74l4.67,4.67c.98.9.98,2.46,0,3.44ZM58.12,62.13l-2.29-2.29,1.1-1.1,2.3,2.29-1.1,1.1ZM54.02,53.52l1.15-1.15,9.88,9.88-1.15,1.15-9.88-9.88ZM74.88,71.84l-1.39,1.39c-.25.25-.66.25-.9,0l-8.11-8.11,2.29-2.29,8.11,8.11c.25.25.25.66,0,.9Z"/>
  <text class="cls-7" transform="translate(27.59 119.7)"><tspan class="cls-13"><tspan class="cls-5" x="0" y="0">P</tspan><tspan x="12.22" y="0">ar</tspan><tspan class="cls-2" x="35.82" y="0">t</tspan><tspan class="cls-11" x="44.23" y="0">i</tspan><tspan class="cls-21" x="49.76" y="0">c</tspan><tspan class="cls-2" x="61.54" y="0">i</tspan><tspan class="cls-17" x="67.16" y="0">pa</tspan><tspan class="cls-25" x="95.9" y="0">ç</tspan><tspan class="cls-17" x="107.76" y="0">ã</tspan><tspan x="121.89" y="0">o </tspan><tspan class="cls-1" x="141.08" y="0">e</tspan><tspan x="154.22" y="0">m </tspan></tspan><tspan class="cls-13"><tspan class="cls-15" x="0" y="28.78">c</tspan><tspan class="cls-11" x="11.86" y="28.78">o</tspan><tspan x="25.02" y="28.78">m</tspan><tspan class="cls-17" x="46.33" y="28.78">p</tspan><tspan class="cls-29" x="60.94" y="28.78">e</tspan><tspan class="cls-2" x="74.09" y="28.78">t</tspan><tspan class="cls-11" x="82.5" y="28.78">i</tspan><tspan class="cls-15" x="88.03" y="28.78">ç</tspan><tspan class="cls-17" x="99.89" y="28.78">ã</tspan><tspan x="114.02" y="28.78">o </tspan><tspan class="cls-2" x="133.21" y="28.78">d</tspan><tspan x="147.9" y="28.78">e </tspan><tspan class="cls-17" x="167.08" y="28.78">p</tspan><tspan class="cls-2" x="181.68" y="28.78">es</tspan><tspan class="cls-15" x="205.17" y="28.78">c</tspan><tspan x="217.03" y="28.78">a</tspan></tspan><tspan class="cls-26"><tspan class="cls-8" x="0" y="71.98">R</tspan><tspan class="cls-6" x="9.7" y="71.98">e</tspan><tspan x="19.67" y="71.98">mu</tspan><tspan class="cls-18" x="44.95" y="71.98">n</tspan><tspan class="cls-6" x="54.41" y="71.98">e</tspan><tspan class="cls-10" x="64.38" y="71.98">r</tspan><tspan class="cls-18" x="70.21" y="71.98">a</tspan><tspan class="cls-23" x="80.49" y="71.98">ç</tspan><tspan class="cls-22" x="89.54" y="71.98">ã</tspan><tspan x="99.82" y="71.98">o </tspan><tspan class="cls-20" x="114.22" y="71.98">d</tspan><tspan x="124.98" y="71.98">e </tspan><tspan class="cls-20" x="139.36" y="71.98">d</tspan><tspan x="150.12" y="71.98">a</tspan><tspan class="cls-22" x="160.58" y="71.98">n</tspan><tspan class="cls-20" x="170.04" y="71.98">o</tspan><tspan x="180.06" y="71.98">s </tspan><tspan class="cls-18" x="192.11" y="71.98">o</tspan><tspan class="cls-23" x="202.01" y="71.98">c</tspan><tspan class="cls-6" x="211.07" y="71.98">or</tspan><tspan class="cls-23" x="227.4" y="71.98">r</tspan><tspan class="cls-6" x="233.72" y="71.98">i</tspan><tspan class="cls-20" x="237.05" y="71.98">do</tspan><tspan x="257.83" y="71.98">s </tspan></tspan><tspan class="cls-26"><tspan class="cls-6" x="0" y="93.58">e</tspan><tspan x="9.96" y="93.58">m </tspan><tspan class="cls-18" x="30.28" y="93.58">p</tspan><tspan x="40.91" y="93.58">ar</tspan><tspan class="cls-20" x="57.81" y="93.58">t</tspan><tspan class="cls-6" x="63.95" y="93.58">i</tspan><tspan class="cls-24" x="67.28" y="93.58">c</tspan><tspan class="cls-20" x="76.3" y="93.58">i</tspan><tspan class="cls-22" x="79.66" y="93.58">pa</tspan><tspan class="cls-23" x="100.57" y="93.58">ç</tspan><tspan class="cls-22" x="109.63" y="93.58">ã</tspan><tspan x="119.91" y="93.58">o </tspan><tspan class="cls-4" x="134.31" y="93.58">d</tspan><tspan x="145.07" y="93.58">e </tspan><tspan class="cls-3" x="159.44" y="93.58">c</tspan><tspan class="cls-27" x="168.5" y="93.58">o</tspan><tspan x="178.49" y="93.58">m</tspan><tspan class="cls-22" x="194.48" y="93.58">p</tspan><tspan class="cls-19" x="205.12" y="93.58">e</tspan><tspan class="cls-20" x="214.93" y="93.58">t</tspan><tspan class="cls-6" x="221.08" y="93.58">i</tspan><tspan class="cls-23" x="224.41" y="93.58">ç</tspan><tspan class="cls-18" x="233.46" y="93.58">ã</tspan><tspan x="243.74" y="93.58">o </tspan></tspan><tspan class="cls-26"><tspan class="cls-20" x="0" y="115.18">d</tspan><tspan x="10.76" y="115.18">e </tspan><tspan class="cls-18" x="25.14" y="115.18">p</tspan><tspan class="cls-20" x="35.77" y="115.18">es</tspan><tspan class="cls-23" x="53.43" y="115.18">c</tspan><tspan x="62.49" y="115.18">a, </tspan><tspan class="cls-10" x="80.88" y="115.18">r</tspan><tspan class="cls-4" x="86.71" y="115.18">e</tspan><tspan x="96.7" y="115.18">s</tspan><tspan class="cls-22" x="104.44" y="115.18">pe</tspan><tspan x="124.95" y="115.18">i</tspan><tspan class="cls-16" x="128.37" y="115.18">t</tspan><tspan x="134.33" y="115.18">a</tspan><tspan class="cls-18" x="144.79" y="115.18">n</tspan><tspan class="cls-20" x="154.26" y="115.18">d</tspan><tspan x="165.02" y="115.18">o o </tspan><tspan class="cls-18" x="193.82" y="115.18">a</tspan><tspan class="cls-23" x="204.1" y="115.18">c</tspan><tspan class="cls-6" x="213.15" y="115.18">o</tspan><tspan class="cls-10" x="223.15" y="115.18">r</tspan><tspan class="cls-20" x="228.98" y="115.18">d</tspan><tspan class="cls-18" x="239.74" y="115.18">a</tspan><tspan class="cls-20" x="250.02" y="115.18">d</tspan><tspan x="260.78" y="115.18">o </tspan></tspan><tspan class="cls-26"><tspan class="cls-6" x="0" y="136.78">e</tspan><tspan x="9.96" y="136.78">m </tspan><tspan class="cls-6" x="30.28" y="136.78">s</tspan><tspan class="cls-9" x="37.92" y="136.78">i</tspan><tspan x="41.31" y="136.78">n</tspan><tspan class="cls-20" x="50.96" y="136.78">i</tspan><tspan x="54.31" y="136.78">st</tspan><tspan class="cls-14" x="68.26" y="136.78">r</tspan><tspan x="74.09" y="136.78">o e </tspan><tspan class="cls-10" x="102.86" y="136.78">r</tspan><tspan class="cls-22" x="108.69" y="136.78">e</tspan><tspan x="118.56" y="136.78">g</tspan><tspan class="cls-14" x="129.14" y="136.78">r</tspan><tspan x="134.97" y="136.78">as </tspan><tspan class="cls-20" x="157.48" y="136.78">d</tspan><tspan x="168.24" y="136.78">o </tspan><tspan class="cls-12" x="182.64" y="136.78">ev</tspan><tspan class="cls-6" x="201" y="136.78">e</tspan><tspan x="210.96" y="136.78">n</tspan><tspan class="cls-19" x="220.61" y="136.78">t</tspan><tspan class="cls-22" x="226.57" y="136.78">o</tspan><tspan x="236.47" y="136.78">.</tspan></tspan></text>
</svg>