<?xml version="1.0" encoding="UTF-8"?>
<svg id="Layer_1" data-name="Layer 1" xmlns="http://www.w3.org/2000/svg" viewBox="0 0 366.28 305.38">
  <defs>
    <style>
      .cls-1 {
        letter-spacing: 0em;
      }

      .cls-2 {
        letter-spacing: 0em;
      }

      .cls-3 {
        letter-spacing: 0em;
      }

      .cls-4 {
        letter-spacing: -.01em;
      }

      .cls-5 {
        letter-spacing: -.04em;
      }

      .cls-6 {
        letter-spacing: -.02em;
      }

      .cls-7 {
        font-family: UrbanistRoman-Bold, Urbanist;
        font-size: 23.99px;
        font-variation-settings: 'wght' 700;
        font-weight: 700;
      }

      .cls-7, .cls-8 {
        fill: #130044;
      }

      .cls-9 {
        letter-spacing: -.01em;
      }
    </style>
  </defs>
  <path class="cls-8" d="M337.15,8.99c11.1,0,20.14,9.03,20.14,20.14v247.12c0,11.1-9.03,20.14-20.14,20.14H29.13c-11.1,0-20.14-9.03-20.14-20.14V29.13c0-11.1,9.03-20.14,20.14-20.14h308.02M337.15,0H29.13C13.11,0,0,13.11,0,29.13v247.12C0,292.27,13.11,305.38,29.13,305.38h308.02c16.02,0,29.13-13.11,29.13-29.13V29.13c0-16.02-13.11-29.13-29.13-29.13h0Z"/>
  <text class="cls-7" transform="translate(27.59 274.19)"><tspan class="cls-5" x="0" y="0">R</tspan><tspan class="cls-6" x="13.54" y="0">o</tspan><tspan class="cls-3" x="26.42" y="0">u</tspan><tspan class="cls-9" x="39.39" y="0">b</tspan><tspan x="54.02" y="0">o </tspan><tspan class="cls-1" x="73.21" y="0">d</tspan><tspan x="87.9" y="0">e </tspan><tspan class="cls-2" x="107.07" y="0">b</tspan><tspan class="cls-4" x="121.71" y="0">e</tspan><tspan x="134.85" y="0">ns</tspan></text>
  <polygon class="cls-8" points="338.69 262.6 330.04 262.6 330.04 253.95 324.38 253.95 324.38 262.6 315.73 262.6 315.73 268.27 324.38 268.27 324.38 276.92 330.04 276.92 330.04 268.27 338.69 268.27 338.69 262.6"/>
  <g>
    <path class="cls-8" d="M60.8,37.09c.55,0,1-.45,1-1,0-.51.42-.93.93-.93s.93.42.93.93c0,.33-.17.63-.46.8-1.22.72-1.47,1.57-1.47,2.16v1.29c0,.55.45,1,1,1s1-.45,1-1v-1.29s.11-.22.49-.44c.89-.53,1.44-1.49,1.44-2.53,0-1.62-1.32-2.93-2.93-2.93s-2.93,1.32-2.93,2.93c0,.55.45,1,1,1Z"/>
    <path class="cls-8" d="M62.73,42.41c-.57,0-1.03.46-1.03,1.03s.46,1.03,1.03,1.03,1.03-.46,1.03-1.03-.46-1.03-1.03-1.03Z"/>
    <path class="cls-8" d="M73.88,37.47c-.88-5.36-5.54-9.47-11.15-9.47-4.27,0-8,2.38-9.92,5.89h-25.22v23.23h3.17v21.11h40.12v-21.11h3.17v-19.87l-.16.22ZM62.73,30c5.13,0,9.31,4.18,9.31,9.31,0,.25-.02.49-.04.74l-.07.1v.53c-.66,4.49-4.53,7.95-9.2,7.95-5.13,0-9.31-4.18-9.31-9.31s4.18-9.31,9.31-9.31ZM53.99,76.12h-6.33v-9.5c0-1.76,1.41-3.17,3.17-3.17s3.17,1.41,3.17,3.17v9.5ZM68.77,76.12h-12.67v-9.5c0-2.9-2.38-5.28-5.28-5.28s-5.28,2.38-5.28,5.28v9.5h-12.67v-19h11.14l6.81-10.7,6.81,10.7h11.14v19ZM71.93,55h-1.93c-.11-.02-.23-.02-.34,0h-10.87l-7.97-12.52-7.97,12.52h-10.87c-.06-.01-.12-.01-.18-.01-.05,0-.1,0-.15.01h-1.94v-19h22.21c-.32,1.05-.5,2.16-.5,3.31,0,6.24,5.07,11.31,11.31,11.31,3.79,0,7.15-1.88,9.2-4.76v9.14Z"/>
    <path class="cls-8" d="M34.98,62.39v8.45h8.45v-9.5h-8.45v1.06ZM37.09,63.45h4.22v5.28h-4.22v-5.28Z"/>
    <path class="cls-8" d="M66.65,61.34h-8.45v9.5h8.45v-9.5ZM64.54,68.73h-4.22v-5.28h4.22v5.28Z"/>
  </g>
</svg>