<?xml version="1.0" encoding="UTF-8"?>
<svg id="Layer_1" data-name="Layer 1" xmlns="http://www.w3.org/2000/svg" viewBox="0 0 366.28 305.38">
  <defs>
    <style>
      .cls-1 {
        letter-spacing: 0em;
      }

      .cls-2 {
        letter-spacing: 0em;
      }

      .cls-3 {
        letter-spacing: 0em;
      }

      .cls-4 {
        letter-spacing: -.04em;
      }

      .cls-5 {
        letter-spacing: 0em;
      }

      .cls-6 {
        fill: #fff;
      }

      .cls-7 {
        letter-spacing: 0em;
      }

      .cls-8 {
        letter-spacing: -.03em;
      }

      .cls-9 {
        letter-spacing: 0em;
      }

      .cls-10 {
        letter-spacing: 0em;
      }

      .cls-11 {
        letter-spacing: -.01em;
      }

      .cls-12 {
        font-family: UrbanistRoman-Bold, Urbanist;
        font-size: 23.99px;
        font-variation-settings: 'wght' 700;
        font-weight: 700;
      }

      .cls-13 {
        letter-spacing: -.01em;
      }

      .cls-14 {
        letter-spacing: -.04em;
      }

      .cls-15 {
        letter-spacing: 0em;
      }

      .cls-16 {
        letter-spacing: -.03em;
      }

      .cls-17 {
        letter-spacing: -.01em;
      }

      .cls-18 {
        letter-spacing: 0em;
      }

      .cls-19 {
        letter-spacing: -.01em;
      }

      .cls-20 {
        letter-spacing: 0em;
      }

      .cls-21 {
        font-family: Urbanist-Regular, Urbanist;
        font-size: 18px;
        font-variation-settings: 'wght' 400;
      }

      .cls-22 {
        fill: #130044;
      }

      .cls-23 {
        letter-spacing: -.01em;
      }
    </style>
  </defs>
  <rect class="cls-22" x="0" y="0" width="366.28" height="305.38" rx="29.13" ry="29.13"/>
  <g>
    <path class="cls-6" d="M45.38,59.71c.15.25.41.4.7.4h1.03v2.55h-3.97v-18.38h0v-.49c0-.45-.37-.82-.82-.82s-.82.37-.82.82v.24l-11,16.21c-.17.25-.19.57-.05.84.14.27.42.43.72.43h8.35c.45,0,.82-.37.82-.82s-.37-.82-.82-.82h-6.81l8.78-12.94v15.73h-1.97c-.45,0-.82.37-.82.82v1.97h-4.75c-.45,0-.82.37-.82.82v1.97h-4.75c-.26,0-.51.13-.66.34-.15.21-.2.49-.11.74l2.79,8.36c.11.33.42.56.77.56h17.55v-25.42l-3.38,6.11c-.14.25-.14.56.01.81ZM47.12,76.59h-15.33l-2.24-6.72h17.57v6.72ZM43.03,67.08h4.09v1.15h-12.32v-1.15h4.75c.45,0,.82-.37.82-.82v-1.97h6.75v1.15h-4.09c-.45,0-.82.37-.82.82s.37.82.82.82Z"/>
    <path class="cls-6" d="M79.26,68.66c-.14-.27-.42-.43-.72-.43h-20.17v-6.72h17.38c.3,0,.58-.17.72-.44.14-.27.12-.59-.05-.84l-18.06-26.33v-1.06c0-.45-.37-.82-.82-.82s-.82.37-.82.82v5.5l-.8,1.44v38.43h17.03c.27,0,.53-.14.68-.36l5.57-8.35c.17-.25.18-.57.04-.84ZM58.37,38.57h0v-1.78l15.84,23.09h-15.84v-21.31ZM72.53,76.59h-14.96v-6.72h19.44l-4.48,6.72Z"/>
  </g>
  <text class="cls-6" transform="translate(27.59 119.7)"><tspan class="cls-12"><tspan class="cls-4" x="0" y="0">P</tspan><tspan class="cls-11" x="12.22" y="0">e</tspan><tspan class="cls-14" x="25.37" y="0">r</tspan><tspan class="cls-1" x="33.7" y="0">d</tspan><tspan x="48.39" y="0">a </tspan><tspan class="cls-23" x="68.52" y="0">tot</tspan><tspan class="cls-9" x="98.33" y="0">a</tspan><tspan x="112.76" y="0">l</tspan></tspan><tspan class="cls-21"><tspan class="cls-16" x="0" y="43.2">C</tspan><tspan class="cls-5" x="12.13" y="43.2">o</tspan><tspan x="22.12" y="43.2">n</tspan><tspan class="cls-17" x="31.77" y="43.2">t</tspan><tspan x="37.74" y="43.2">e </tspan><tspan class="cls-20" x="52.11" y="43.2">c</tspan><tspan class="cls-5" x="61.16" y="43.2">o</tspan><tspan x="71.15" y="43.2">m </tspan><tspan class="cls-7" x="91.47" y="43.2">i</tspan><tspan class="cls-19" x="94.86" y="43.2">n</tspan><tspan class="cls-3" x="104.33" y="43.2">d</tspan><tspan class="cls-5" x="115.09" y="43.2">e</tspan><tspan x="125.06" y="43.2">ni</tspan><tspan class="cls-5" x="138.12" y="43.2">z</tspan><tspan class="cls-19" x="147.16" y="43.2">a</tspan><tspan class="cls-20" x="157.44" y="43.2">ç</tspan><tspan class="cls-15" x="166.49" y="43.2">ã</tspan><tspan x="176.77" y="43.2">o </tspan><tspan class="cls-7" x="191.17" y="43.2">i</tspan><tspan x="194.56" y="43.2">n</tspan><tspan class="cls-13" x="204.21" y="43.2">t</tspan><tspan class="cls-15" x="210.18" y="43.2">e</tspan><tspan x="220.05" y="43.2">g</tspan><tspan class="cls-8" x="230.62" y="43.2">r</tspan><tspan class="cls-10" x="236.46" y="43.2">a</tspan><tspan x="247.03" y="43.2">l </tspan></tspan><tspan class="cls-21"><tspan class="cls-5" x="0" y="64.8">e</tspan><tspan x="9.96" y="64.8">m </tspan><tspan class="cls-20" x="30.28" y="64.8">c</tspan><tspan x="39.33" y="64.8">a</tspan><tspan class="cls-18" x="49.79" y="64.8">s</tspan><tspan x="57.46" y="64.8">o </tspan><tspan class="cls-18" x="71.86" y="64.8">d</tspan><tspan x="82.62" y="64.8">e </tspan><tspan class="cls-15" x="96.99" y="64.8">p</tspan><tspan class="cls-5" x="107.63" y="64.8">e</tspan><tspan class="cls-8" x="117.59" y="64.8">r</tspan><tspan class="cls-18" x="123.42" y="64.8">d</tspan><tspan x="134.19" y="64.8">a </tspan><tspan class="cls-13" x="148.97" y="64.8">tot</tspan><tspan class="cls-10" x="170.74" y="64.8">a</tspan><tspan x="181.31" y="64.8">l </tspan><tspan class="cls-18" x="189.05" y="64.8">d</tspan><tspan x="199.82" y="64.8">a </tspan></tspan><tspan class="cls-21"><tspan class="cls-5" x="0" y="86.4">e</tspan><tspan class="cls-10" x="9.96" y="86.4">m</tspan><tspan class="cls-15" x="26.07" y="86.4">b</tspan><tspan x="36.72" y="86.4">a</tspan><tspan class="cls-8" x="47.18" y="86.4">r</tspan><tspan class="cls-20" x="53.01" y="86.4">c</tspan><tspan class="cls-15" x="62.06" y="86.4">a</tspan><tspan class="cls-2" x="72.34" y="86.4">ç</tspan><tspan class="cls-15" x="81.4" y="86.4">ão</tspan><tspan x="101.57" y="86.4">.</tspan></tspan></text>
</svg>