<?xml version="1.0" encoding="UTF-8"?>
<svg id="Layer_1" data-name="Layer 1" xmlns="http://www.w3.org/2000/svg" viewBox="0 0 366.28 305.38">
  <defs>
    <style>
      .cls-1 {
        letter-spacing: 0em;
      }

      .cls-2 {
        letter-spacing: 0em;
      }

      .cls-3 {
        letter-spacing: -.02em;
      }

      .cls-4 {
        letter-spacing: -.02em;
      }

      .cls-5 {
        letter-spacing: 0em;
      }

      .cls-6 {
        letter-spacing: -.05em;
      }

      .cls-7 {
        letter-spacing: 0em;
      }

      .cls-8 {
        letter-spacing: -.04em;
      }

      .cls-9 {
        font-family: UrbanistRoman-Bold, Urbanist;
        font-size: 23.99px;
        font-variation-settings: 'wght' 700;
        font-weight: 700;
      }

      .cls-9, .cls-10 {
        fill: #130044;
      }

      .cls-11 {
        letter-spacing: -.07em;
      }

      .cls-12 {
        letter-spacing: -.02em;
      }

      .cls-13 {
        letter-spacing: -.02em;
      }

      .cls-14 {
        letter-spacing: -.01em;
      }
    </style>
  </defs>
  <path class="cls-10" d="M337.15,8.99c11.1,0,20.14,9.03,20.14,20.14v247.12c0,11.1-9.03,20.14-20.14,20.14H29.13c-11.1,0-20.13-9.03-20.13-20.14V29.13c0-11.1,9.03-20.14,20.13-20.14h308.02M337.15,0H29.13C13.11,0,0,13.11,0,29.13v247.12c0,16.02,13.11,29.13,29.13,29.13h308.02c16.02,0,29.13-13.11,29.13-29.13V29.13c0-16.02-13.11-29.13-29.13-29.13h0Z"/>
  <text class="cls-9" transform="translate(27.59 272.78)"><tspan class="cls-11" x="0" y="0">T</tspan><tspan class="cls-3" x="13.54" y="0">r</tspan><tspan class="cls-1" x="22.4" y="0">i</tspan><tspan class="cls-4" x="28.23" y="0">b</tspan><tspan x="42.55" y="0">u</tspan><tspan class="cls-14" x="55.46" y="0">t</tspan><tspan class="cls-5" x="63.78" y="0">a</tspan><tspan class="cls-13" x="77.91" y="0">ç</tspan><tspan class="cls-5" x="89.77" y="0">ã</tspan><tspan x="103.9" y="0">o </tspan><tspan class="cls-7" x="123.09" y="0">f</tspan><tspan class="cls-2" x="131.95" y="0">l</tspan><tspan class="cls-6" x="137.57" y="0">e</tspan><tspan class="cls-4" x="149.72" y="0">x</tspan><tspan class="cls-3" x="163.48" y="0">í</tspan><tspan class="cls-8" x="168.91" y="0">v</tspan><tspan class="cls-12" x="182.01" y="0">e</tspan><tspan x="194.97" y="0">l</tspan></text>
  <polygon class="cls-10" points="338.69 262.6 330.04 262.6 330.04 253.95 324.38 253.95 324.38 262.6 315.73 262.6 315.73 268.27 324.38 268.27 324.38 276.92 330.04 276.92 330.04 268.27 338.69 268.27 338.69 262.6"/>
  <g id="growth">
    <path class="cls-10" d="M72.61,75.92h-3.46v-26.55c0-.64-.52-1.15-1.15-1.15h-6.92c-.64,0-1.15.52-1.15,1.15v26.55h-4.62v-17.31c0-.64-.52-1.15-1.15-1.15h-6.92c-.64,0-1.15.52-1.15,1.15v17.31h-4.62v-15c0-.64-.52-1.15-1.15-1.15h-6.92c-.64,0-1.15.52-1.15,1.15v15h-3.46c-.64,0-1.15.52-1.15,1.15s.52,1.15,1.15,1.15h43.86c.64,0,1.15-.52,1.15-1.15s-.52-1.15-1.15-1.15ZM39.14,75.92h-4.62v-13.85h4.62v13.85ZM52.99,75.92h-4.62v-16.16h4.62v16.16ZM66.84,75.92h-4.62v-25.39h4.62v25.39Z"/>
    <path class="cls-10" d="M28.75,57.46c.31,0,.6-.12.81-.35l10.85-10.83,8.43,6.32c.46.35,1.1.3,1.5-.12l16.5-16.48v4.13c0,.64.52,1.15,1.15,1.15s1.15-.52,1.15-1.15v-6.92c.03-.14.03-.29,0-.44-.12-.33-.38-.6-.72-.72-.14-.03-.29-.03-.44,0h-6.92c-.64,0-1.15.52-1.15,1.15s.52,1.15,1.15,1.15h4.13l-15.79,15.79-8.43-6.32c-.46-.35-1.1-.3-1.5.12l-11.54,11.54c-.45.42-.47,1.12-.05,1.57.02.02.03.03.05.05.21.22.5.35.81.35Z"/>
  </g>
</svg>