<?xml version="1.0" encoding="UTF-8"?>
<svg id="Layer_1" data-name="Layer 1" xmlns="http://www.w3.org/2000/svg" viewBox="0 0 366.28 305.38">
  <defs>
    <style>
      .cls-1 {
        letter-spacing: -.04em;
      }

      .cls-2 {
        letter-spacing: -.01em;
      }

      .cls-3 {
        letter-spacing: 0em;
      }

      .cls-4 {
        letter-spacing: 0em;
      }

      .cls-5 {
        letter-spacing: 0em;
      }

      .cls-6 {
        letter-spacing: 0em;
      }

      .cls-7 {
        fill: #fff;
      }

      .cls-8 {
        letter-spacing: 0em;
      }

      .cls-9 {
        font-family: UrbanistRoman-Bold, Urbanist;
        font-size: 20px;
        font-variation-settings: 'wght' 700;
        font-weight: 700;
      }

      .cls-10 {
        letter-spacing: -.03em;
      }

      .cls-11 {
        letter-spacing: -.03em;
      }

      .cls-12 {
        letter-spacing: -.03em;
      }

      .cls-13 {
        letter-spacing: 0em;
      }

      .cls-14 {
        letter-spacing: -.03em;
      }

      .cls-15 {
        letter-spacing: -.02em;
      }

      .cls-16 {
        letter-spacing: -.01em;
      }

      .cls-17 {
        letter-spacing: -.01em;
      }

      .cls-18 {
        letter-spacing: 0em;
      }

      .cls-19 {
        letter-spacing: 0em;
      }

      .cls-20 {
        letter-spacing: -.03em;
      }

      .cls-21 {
        letter-spacing: -.02em;
      }

      .cls-22 {
        letter-spacing: -.04em;
      }

      .cls-23 {
        letter-spacing: -.01em;
      }

      .cls-24 {
        letter-spacing: -.01em;
      }

      .cls-25 {
        letter-spacing: -.05em;
      }

      .cls-26 {
        letter-spacing: 0em;
      }

      .cls-27 {
        letter-spacing: 0em;
      }

      .cls-28 {
        letter-spacing: 0em;
      }

      .cls-29 {
        letter-spacing: -.01em;
      }

      .cls-30 {
        letter-spacing: 0em;
      }

      .cls-31 {
        letter-spacing: 0em;
      }

      .cls-32 {
        font-family: Urbanist-Regular, Urbanist;
        font-size: 18px;
        font-variation-settings: 'wght' 400;
      }

      .cls-33 {
        letter-spacing: -.04em;
      }

      .cls-34 {
        fill: #130044;
      }
    </style>
  </defs>
  <rect class="cls-34" x="0" y="0" width="366.28" height="305.38" rx="29.13" ry="29.13"/>
  <text class="cls-7" transform="translate(27.59 116.71)"><tspan class="cls-9"><tspan class="cls-25" x="0" y="0">A</tspan><tspan class="cls-5" x="13.58" y="0">dm</tspan><tspan class="cls-8" x="43.75" y="0">i</tspan><tspan x="48.51" y="0">n</tspan><tspan class="cls-26" x="59.67" y="0">i</tspan><tspan x="64.36" y="0">st</tspan><tspan class="cls-22" x="80.21" y="0">r</tspan><tspan x="87.16" y="0">a</tspan><tspan class="cls-26" x="99.14" y="0">t</tspan><tspan class="cls-21" x="106.15" y="0">i</tspan><tspan class="cls-33" x="110.68" y="0">v</tspan><tspan x="121.6" y="0">o </tspan><tspan class="cls-26" x="137.6" y="0">d</tspan><tspan x="149.85" y="0">e c</tspan><tspan class="cls-1" x="176.04" y="0">r</tspan><tspan class="cls-29" x="182.99" y="0">é</tspan><tspan x="193.98" y="0">di</tspan><tspan class="cls-24" x="211.22" y="0">t</tspan><tspan class="cls-26" x="218.16" y="0">o</tspan><tspan class="cls-28" x="229.21" y="0">s </tspan></tspan><tspan class="cls-9"><tspan x="0" y="24">t</tspan><tspan class="cls-21" x="7.16" y="24">r</tspan><tspan class="cls-4" x="14.55" y="24">i</tspan><tspan class="cls-15" x="19.41" y="24">b</tspan><tspan x="31.35" y="24">u</tspan><tspan class="cls-24" x="42.11" y="24">t</tspan><tspan x="49.05" y="24">á</tspan><tspan class="cls-21" x="61.03" y="24">r</tspan><tspan class="cls-17" x="68.42" y="24">i</tspan><tspan class="cls-26" x="73.03" y="24">o</tspan><tspan class="cls-28" x="84.08" y="24">s</tspan></tspan><tspan class="cls-32"><tspan class="cls-20" x="0" y="45.6">C</tspan><tspan class="cls-6" x="12.13" y="45.6">o</tspan><tspan x="22.12" y="45.6">ns</tspan><tspan class="cls-27" x="39.5" y="45.6">t</tspan><tspan x="45.65" y="45.6">itui u</tspan><tspan class="cls-18" x="81.59" y="45.6">m</tspan><tspan x="97.41" y="45.6">a </tspan><tspan class="cls-6" x="112.18" y="45.6">p</tspan><tspan class="cls-10" x="122.91" y="45.6">r</tspan><tspan class="cls-3" x="128.74" y="45.6">e</tspan><tspan x="138.73" y="45.6">s</tspan><tspan class="cls-16" x="146.47" y="45.6">t</tspan><tspan class="cls-18" x="152.43" y="45.6">a</tspan><tspan class="cls-30" x="162.71" y="45.6">ç</tspan><tspan class="cls-29" x="171.76" y="45.6">ã</tspan><tspan x="182.04" y="45.6">o </tspan><tspan class="cls-3" x="196.44" y="45.6">d</tspan><tspan x="207.21" y="45.6">e </tspan></tspan><tspan class="cls-32"><tspan class="cls-6" x="0" y="67.2">g</tspan><tspan x="10.48" y="67.2">a</tspan><tspan class="cls-10" x="20.94" y="67.2">r</tspan><tspan x="26.77" y="67.2">an</tspan><tspan class="cls-3" x="46.88" y="67.2">t</tspan><tspan class="cls-6" x="53.03" y="67.2">i</tspan><tspan x="56.36" y="67.2">a </tspan><tspan class="cls-29" x="71.14" y="67.2">p</tspan><tspan class="cls-31" x="81.77" y="67.2">e</tspan><tspan class="cls-27" x="91.67" y="67.2">l</tspan><tspan x="95.03" y="67.2">o </tspan><tspan class="cls-23" x="109.43" y="67.2">t</tspan><tspan class="cls-6" x="115.4" y="67.2">o</tspan><tspan class="cls-29" x="125.39" y="67.2">ma</tspan><tspan class="cls-27" x="151.48" y="67.2">d</tspan><tspan class="cls-6" x="162.24" y="67.2">o</tspan><tspan x="172.23" y="67.2">r </tspan><tspan class="cls-18" x="182.99" y="67.2">p</tspan><tspan x="193.63" y="67.2">a</tspan><tspan class="cls-10" x="204.08" y="67.2">r</tspan><tspan x="209.92" y="67.2">a </tspan></tspan><tspan class="cls-32"><tspan x="0" y="88.8">a</tspan><tspan class="cls-23" x="10.46" y="88.8">t</tspan><tspan class="cls-27" x="16.43" y="88.8">e</tspan><tspan x="26.42" y="88.8">s</tspan><tspan class="cls-23" x="34.15" y="88.8">t</tspan><tspan x="40.11" y="88.8">ar a </tspan><tspan class="cls-11" x="76.1" y="88.8">v</tspan><tspan class="cls-6" x="84.88" y="88.8">e</tspan><tspan class="cls-14" x="94.84" y="88.8">r</tspan><tspan class="cls-29" x="100.67" y="88.8">a</tspan><tspan class="cls-31" x="110.95" y="88.8">c</tspan><tspan class="cls-6" x="119.97" y="88.8">i</tspan><tspan class="cls-27" x="123.3" y="88.8">d</tspan><tspan class="cls-18" x="134.06" y="88.8">a</tspan><tspan class="cls-27" x="144.34" y="88.8">d</tspan><tspan x="155.11" y="88.8">e </tspan><tspan class="cls-27" x="169.48" y="88.8">d</tspan><tspan x="180.24" y="88.8">e c</tspan><tspan class="cls-10" x="203.79" y="88.8">r</tspan><tspan class="cls-18" x="209.62" y="88.8">é</tspan><tspan x="219.49" y="88.8">di</tspan><tspan class="cls-23" x="233.74" y="88.8">t</tspan><tspan class="cls-27" x="239.7" y="88.8">o</tspan><tspan x="249.72" y="88.8">s </tspan></tspan><tspan class="cls-32"><tspan x="0" y="110.4">t</tspan><tspan class="cls-30" x="6.21" y="110.4">r</tspan><tspan class="cls-19" x="12.53" y="110.4">i</tspan><tspan class="cls-29" x="16.01" y="110.4">b</tspan><tspan x="26.66" y="110.4">u</tspan><tspan class="cls-23" x="35.95" y="110.4">t</tspan><tspan x="41.91" y="110.4">á</tspan><tspan class="cls-30" x="52.37" y="110.4">r</tspan><tspan class="cls-6" x="58.69" y="110.4">i</tspan><tspan class="cls-27" x="62.02" y="110.4">o</tspan><tspan x="72.04" y="110.4">s </tspan><tspan class="cls-6" x="84.09" y="110.4">e</tspan><tspan x="94.05" y="110.4">m </tspan><tspan class="cls-6" x="114.36" y="110.4">p</tspan><tspan class="cls-14" x="125.09" y="110.4">r</tspan><tspan class="cls-29" x="130.92" y="110.4">o</tspan><tspan class="cls-30" x="140.82" y="110.4">c</tspan><tspan class="cls-27" x="149.88" y="110.4">e</tspan><tspan x="159.87" y="110.4">s</tspan><tspan class="cls-3" x="167.6" y="110.4">s</tspan><tspan x="175.27" y="110.4">o </tspan></tspan><tspan class="cls-32"><tspan class="cls-18" x="0" y="132">a</tspan><tspan x="10.28" y="132">dm</tspan><tspan class="cls-13" x="37.1" y="132">i</tspan><tspan x="40.49" y="132">n</tspan><tspan class="cls-3" x="50.14" y="132">i</tspan><tspan x="53.5" y="132">st</tspan><tspan class="cls-10" x="67.44" y="132">r</tspan><tspan x="73.27" y="132">a</tspan><tspan class="cls-27" x="83.73" y="132">t</tspan><tspan class="cls-30" x="89.87" y="132">i</tspan><tspan class="cls-12" x="93.18" y="132">v</tspan><tspan class="cls-29" x="101.95" y="132">o</tspan><tspan x="111.85" y="132">, </tspan><tspan class="cls-18" x="119.79" y="132">n</tspan><tspan x="129.26" y="132">a </tspan><tspan class="cls-2" x="144.04" y="132">f</tspan><tspan class="cls-6" x="149.83" y="132">or</tspan><tspan class="cls-18" x="166.17" y="132">m</tspan><tspan x="181.98" y="132">a </tspan><tspan class="cls-27" x="196.76" y="132">d</tspan><tspan x="207.52" y="132">a </tspan></tspan><tspan class="cls-32"><tspan class="cls-27" x="0" y="153.6">l</tspan><tspan class="cls-18" x="3.36" y="153.6">e</tspan><tspan class="cls-6" x="13.23" y="153.6">g</tspan><tspan class="cls-27" x="23.71" y="153.6">i</tspan><tspan x="27.07" y="153.6">s</tspan><tspan class="cls-27" x="34.8" y="153.6">l</tspan><tspan class="cls-18" x="38.16" y="153.6">a</tspan><tspan class="cls-30" x="48.44" y="153.6">ç</tspan><tspan class="cls-29" x="57.49" y="153.6">ã</tspan><tspan x="67.77" y="153.6">o </tspan><tspan class="cls-6" x="82.17" y="153.6">e</tspan><tspan x="92.13" y="153.6">m </tspan><tspan class="cls-30" x="112.45" y="153.6">v</tspan><tspan class="cls-6" x="121.58" y="153.6">igo</tspan><tspan class="cls-14" x="145.39" y="153.6">r</tspan><tspan x="151.22" y="153.6">.</tspan></tspan></text>
  <path class="cls-7" d="M41.07,61.87c0,.09.01.18.01.28-7.6-1.59-12.47-9.03-10.88-16.63,1.59-7.6,9.03-12.47,16.63-10.88,5.47,1.14,9.74,5.41,10.88,10.88-.09,0-.18-.01-.28-.01-.56,0-1.13.03-1.69.09-1.54-6.51-8.07-10.54-14.59-9-6.51,1.54-10.54,8.07-9,14.59,1.06,4.46,4.54,7.94,9,9-.06.56-.09,1.12-.09,1.69ZM42.96,40.18l-.23-1.91c-5.17.62-9.03,5.04-8.98,10.24,0,.29.02.58.05.87l1.92-.18c-.02-.23-.03-.47-.04-.71-.05-4.22,3.09-7.8,7.28-8.31h0ZM71.47,61.87c0,7.76-6.29,14.05-14.05,14.05s-14.05-6.29-14.05-14.05,6.29-14.05,14.05-14.05c7.76,0,14.04,6.29,14.05,14.05ZM69.55,61.87c0-6.7-5.43-12.13-12.13-12.13-6.7,0-12.13,5.43-12.13,12.13,0,6.7,5.43,12.13,12.13,12.13h0c6.69,0,12.12-5.43,12.13-12.13h0ZM49.19,62.67c-.02-.23-.04-.47-.04-.71-.05-4.22,3.09-7.8,7.28-8.31l-.23-1.91c-5.17.62-9.03,5.04-8.98,10.24,0,.29.02.58.05.87l1.92-.18ZM64.64,54.66l-1.36,1.36c3.23,3.23,3.23,8.47,0,11.71s-8.47,3.23-11.71,0h0l-1.36,1.36c3.98,3.98,10.44,3.98,14.43,0s3.98-10.44,0-14.43h0Z"/>
</svg>