<?xml version="1.0" encoding="UTF-8"?>
<svg id="Layer_1" data-name="Layer 1" xmlns="http://www.w3.org/2000/svg" viewBox="0 0 366.28 305.38">
  <defs>
    <style>
      .cls-1 {
        letter-spacing: 0em;
      }

      .cls-2 {
        letter-spacing: 0em;
      }

      .cls-3 {
        letter-spacing: 0em;
      }

      .cls-4 {
        fill: #fff;
      }

      .cls-5 {
        letter-spacing: 0em;
      }

      .cls-6 {
        letter-spacing: 0em;
      }

      .cls-7 {
        letter-spacing: -.03em;
      }

      .cls-8 {
        letter-spacing: -.01em;
      }

      .cls-9 {
        font-family: UrbanistRoman-Bold, Urbanist;
        font-size: 23.99px;
        font-variation-settings: 'wght' 700;
        font-weight: 700;
      }

      .cls-10 {
        letter-spacing: 0em;
      }

      .cls-11 {
        letter-spacing: -.03em;
      }

      .cls-12 {
        letter-spacing: 0em;
      }

      .cls-13 {
        letter-spacing: -.01em;
      }

      .cls-14 {
        letter-spacing: 0em;
      }

      .cls-15 {
        letter-spacing: -.04em;
      }

      .cls-16 {
        font-family: Urbanist-Regular, Urbanist;
        font-size: 18px;
        font-variation-settings: 'wght' 400;
      }

      .cls-17 {
        fill: #130044;
      }

      .cls-18 {
        letter-spacing: -.01em;
      }
    </style>
  </defs>
  <rect class="cls-17" x="0" y="0" width="366.28" height="305.38" rx="29.13" ry="29.13"/>
  <g>
    <path class="cls-4" d="M34.87,48.67c.71,1.03,1.36,1.53,1.97,1.53.25,0,.86-.09,1.16-.94.22-.62.42-1.32.63-2.07.44-1.55,1.18-4.15,2.04-4.15h.07c.35,0,.7.37,1.05,1.1.4.84.71,1.97,1.01,3.07.2.74.39,1.43.61,2.04.3.84.9.93,1.15.93.62,0,1.25-.49,1.97-1.55.56-.81,1.14-1.9,1.69-3.17,1.23-2.83,1.96-5.71,1.96-7.71,0-1.49-.53-2.89-1.48-3.97-1.01-1.13-2.41-1.76-3.92-1.76-1.2,0-2.44.69-3.35,1.19-.15.08-.55.31-.72.37-.16-.07-.57-.3-.72-.38-.91-.5-2.15-1.19-3.35-1.19-1.52,0-2.91.62-3.92,1.76-.96,1.07-1.48,2.48-1.48,3.97,0,2.05.73,4.95,1.95,7.76.55,1.25,1.13,2.34,1.68,3.14ZM36.64,33.45c.64,0,1.5.3,2.3.81.11.07.29.21.44.33.07.05.14.1.2.15.21.15.48.36.81.55.18.1.33.2.52.27.72.31,1.48.46,2.27.46s3.15-.65,3.15-.74c0-.22-3.01-.2-4.01-.47-.15-.04-.47-.11-.47-.17,0-.04.17-.12.27-.18.77-.43,1.83-1.01,2.66-1.01,2.5,0,4,2.19,4,4.31,0,1.78-.71,4.52-1.85,7.14-.51,1.17-1.06,2.21-1.56,2.93-.31.45-.53.81-.67.81-.27,0-.35-1.16-.53-1.82-.31-1.15-.64-2.35-1.09-3.29-.61-1.28-1.37-1.91-2.33-1.91h-.07c-.92,0-1.67.62-2.28,1.89-.45.94-.79,2.13-1.12,3.29-.19.67-.47,1.79-.56,1.86-.09.06-.37-.35-.69-.81-.5-.72-1.05-1.74-1.55-2.9-1.13-2.6-1.84-5.36-1.84-7.2,0-2.12,1.49-4.31,4-4.31Z"/>
    <path class="cls-4" d="M52.17,50.88h-22.92c-.91,0-1.66.74-1.66,1.66v24.03c0,.91.74,1.66,1.66,1.66h6.62c.91,0,1.66-.74,1.66-1.66v-4.35c0-.4.36-.39.36-.39h5.58s.43.05.43.44v4.3c0,.91.74,1.66,1.66,1.66h6.62c.91,0,1.66-.74,1.66-1.66v-24.03c0-.91-.74-1.66-1.66-1.66ZM51.55,76.54h-5.59c-.38,0-.38-.4-.38-.4v-4.34c0-.91-.74-1.66-1.66-1.66h-6.43c-.91,0-1.66.74-1.66,1.66v4.38c0,.35-.14.37-.45.37h-5.67s-.44.05-.44-.44v-23.11c0-.43.44-.42.44-.42h21.89s.53.06.53.55v22.83c0,.38-.04.58-.59.58Z"/>
    <path class="cls-4" d="M32.01,60.39h5.56c.73,0,1.33-.6,1.33-1.33v-3.73c0-.73-.6-1.33-1.33-1.33h-5.56c-.73,0-1.33.6-1.33,1.33v3.73c0,.73.6,1.33,1.33,1.33ZM32.37,55.99c0-.31.13-.3.32-.3h4.19c.21,0,.33,0,.33.33v2.29c0,.3-.07.4-.32.4h-4.21c-.19,0-.31,0-.31-.25,0-.61,0-1.78,0-2.46Z"/>
    <path class="cls-4" d="M43.86,60.39h5.56c.73,0,1.33-.6,1.33-1.33v-3.73c0-.73-.6-1.33-1.33-1.33h-5.56c-.73,0-1.33.6-1.33,1.33v3.73c0,.73.6,1.33,1.33,1.33ZM44.21,55.9c0-.19.04-.21.28-.21h4.39c.11,0,.18.05.18.21v2.64c0,.14-.06.17-.16.17h-4.41c-.2,0-.27-.02-.27-.27,0-.6,0-1.86,0-2.53Z"/>
    <path class="cls-4" d="M43.86,68.61h5.56c.73,0,1.33-.6,1.33-1.33v-3.73c0-.73-.6-1.33-1.33-1.33h-5.56c-.73,0-1.33.6-1.33,1.33v3.73c0,.73.6,1.33,1.33,1.33ZM44.21,64.15c0-.23.09-.24.23-.24h4.51c.11,0,.1.11.1.11v2.74c0,.15-.07.16-.19.16h-4.5c-.15,0-.16-.07-.16-.17,0-.65,0-1.91,0-2.6Z"/>
    <path class="cls-4" d="M37.91,62.22h-5.56c-.73,0-1.33.6-1.33,1.33v3.73c0,.73.6,1.33,1.33,1.33h5.56c.73,0,1.33-.6,1.33-1.33v-3.73c0-.73-.6-1.33-1.33-1.33ZM37.55,66.76c0,.1-.06.16-.16.16h-4.44c-.08,0-.24-.03-.24-.22v-2.54c0-.23.03-.25.32-.25h4.35c.19,0,.17.1.17.16,0,.78,0,2.02,0,2.69Z"/>
  </g>
  <text class="cls-4" transform="translate(27.59 119.7)"><tspan class="cls-9"><tspan class="cls-15" x="0" y="0">C</tspan><tspan class="cls-8" x="16.01" y="0">o</tspan><tspan class="cls-5" x="29.17" y="0">ns</tspan><tspan class="cls-12" x="52.97" y="0">u</tspan><tspan x="65.94" y="0">l</tspan><tspan class="cls-18" x="71.74" y="0">t</tspan><tspan x="80.07" y="0">a</tspan></tspan><tspan class="cls-16"><tspan x="0" y="43.2">E</tspan><tspan class="cls-14" x="9.65" y="43.2">m</tspan><tspan class="cls-3" x="25.46" y="43.2">e</tspan><tspan class="cls-7" x="35.42" y="43.2">r</tspan><tspan class="cls-3" x="41.26" y="43.2">gê</tspan><tspan class="cls-14" x="61.7" y="43.2">n</tspan><tspan class="cls-1" x="71.17" y="43.2">c</tspan><tspan class="cls-3" x="80.19" y="43.2">i</tspan><tspan x="83.52" y="43.2">as e </tspan><tspan class="cls-11" x="120.4" y="43.2">r</tspan><tspan class="cls-13" x="126.23" y="43.2">o</tspan><tspan class="cls-2" x="136.07" y="43.2">t</tspan><tspan class="cls-10" x="142.22" y="43.2">i</tspan><tspan class="cls-14" x="145.61" y="43.2">n</tspan><tspan x="155.08" y="43.2">a</tspan><tspan class="cls-6" x="165.54" y="43.2">s</tspan><tspan x="173.24" y="43.2">.</tspan></tspan></text>
</svg>