<?xml version="1.0" encoding="UTF-8"?>
<svg id="Layer_1" data-name="Layer 1" xmlns="http://www.w3.org/2000/svg" viewBox="0 0 366.28 305.38">
  <defs>
    <style>
      .cls-1 {
        letter-spacing: -.02em;
      }

      .cls-2 {
        letter-spacing: -.05em;
      }

      .cls-3 {
        letter-spacing: -.01em;
      }

      .cls-4 {
        letter-spacing: 0em;
      }

      .cls-5 {
        font-family: UrbanistRoman-Bold, Urbanist;
        font-size: 19px;
        font-variation-settings: 'wght' 700;
        font-weight: 700;
      }

      .cls-5, .cls-6 {
        fill: #130044;
      }

      .cls-7 {
        letter-spacing: -.01em;
      }

      .cls-8 {
        letter-spacing: 0em;
      }

      .cls-9 {
        letter-spacing: -.02em;
      }

      .cls-10 {
        letter-spacing: -.02em;
      }

      .cls-11 {
        letter-spacing: 0em;
      }

      .cls-12 {
        letter-spacing: 0em;
      }

      .cls-13 {
        letter-spacing: -.01em;
      }

      .cls-14 {
        letter-spacing: -.04em;
      }

      .cls-15 {
        letter-spacing: -.02em;
      }

      .cls-16 {
        letter-spacing: 0em;
      }

      .cls-17 {
        letter-spacing: -.01em;
      }
    </style>
  </defs>
  <path class="cls-6" d="M337.15,9c11.1,0,20.14,9.03,20.14,20.13v247.12c0,11.1-9.03,20.13-20.14,20.13H29.13c-11.1,0-20.14-9.03-20.14-20.13V29.13c0-11.1,9.03-20.13,20.14-20.13h308.02M337.15,0H29.13C13.11,0,0,13.11,0,29.13v247.12C0,292.27,13.11,305.38,29.13,305.38h308.02c16.02,0,29.13-13.11,29.13-29.13V29.13c0-16.02-13.11-29.13-29.13-29.13h0Z"/>
  <text class="cls-5" transform="translate(27.59 249.04)"><tspan class="cls-15" x="0" y="0">D</tspan><tspan class="cls-8" x="12.47" y="0">e</tspan><tspan x="22.96" y="0">s</tspan><tspan class="cls-4" x="31.22" y="0">p</tspan><tspan class="cls-11" x="42.79" y="0">es</tspan><tspan x="61.39" y="0">as </tspan><tspan class="cls-2" x="85.58" y="0">M</tspan><tspan class="cls-4" x="102.34" y="0">é</tspan><tspan x="112.78" y="0">d</tspan><tspan class="cls-17" x="124.56" y="0">i</tspan><tspan class="cls-15" x="128.94" y="0">c</tspan><tspan x="138.34" y="0">o-</tspan><tspan class="cls-8" x="157.34" y="0">Ho</tspan><tspan x="180.12" y="0">s</tspan><tspan class="cls-10" x="188.38" y="0">p</tspan><tspan x="199.7" y="0">i</tspan><tspan class="cls-13" x="204.3" y="0">t</tspan><tspan class="cls-12" x="210.89" y="0">a</tspan><tspan class="cls-11" x="222.32" y="0">l</tspan><tspan x="226.77" y="0">a</tspan><tspan class="cls-14" x="238.15" y="0">r</tspan><tspan class="cls-8" x="244.76" y="0">e</tspan><tspan x="255.24" y="0">s </tspan><tspan x="0" y="22.8">e </tspan><tspan class="cls-15" x="15.19" y="22.8">O</tspan><tspan class="cls-8" x="29.53" y="22.8">d</tspan><tspan class="cls-17" x="41.16" y="22.8">o</tspan><tspan x="51.59" y="22.8">n</tspan><tspan class="cls-3" x="62.19" y="22.8">t</tspan><tspan class="cls-9" x="68.78" y="22.8">o</tspan><tspan class="cls-11" x="79.06" y="22.8">l</tspan><tspan class="cls-16" x="83.51" y="22.8">ó</tspan><tspan class="cls-7" x="93.97" y="22.8">gi</tspan><tspan class="cls-1" x="109.77" y="22.8">c</tspan><tspan x="119.17" y="22.8">as</tspan></text>
  <polygon class="cls-6" points="338.69 262.6 330.04 262.6 330.04 253.95 324.38 253.95 324.38 262.6 315.73 262.6 315.73 268.27 324.38 268.27 324.38 276.92 330.04 276.92 330.04 268.27 338.69 268.27 338.69 262.6"/>
  <path class="cls-6" d="M58.05,78.23h-11.72c-1.84,0-3.34-1.5-3.34-3.34v-12.06h-12.06c-1.84,0-3.34-1.5-3.34-3.34v-11.72c0-1.84,1.5-3.34,3.34-3.34h12.06v-12.06c0-1.84,1.5-3.34,3.34-3.34h11.72c1.84,0,3.34,1.5,3.34,3.34v12.06h12.06c1.84,0,3.34,1.5,3.34,3.34v11.72c0,1.84-1.5,3.34-3.34,3.34h-12.06v12.06c0,1.84-1.5,3.34-3.34,3.34ZM30.93,47.44c-.19,0-.34.15-.34.34v11.72c0,.19.15.34.34.34h13.56c.83,0,1.5.67,1.5,1.5v13.56c0,.19.15.34.34.34h11.72c.19,0,.34-.15.34-.34v-13.56c0-.83.67-1.5,1.5-1.5h13.56c.19,0,.34-.15.34-.34v-11.72c0-.19-.15-.34-.34-.34h-13.56c-.83,0-1.5-.67-1.5-1.5v-13.56c0-.19-.15-.34-.34-.34h-11.72c-.19,0-.34.15-.34.34v13.56c0,.83-.67,1.5-1.5,1.5h-13.56Z"/>
</svg>