<?xml version="1.0" encoding="UTF-8"?>
<svg id="Layer_1" data-name="Layer 1" xmlns="http://www.w3.org/2000/svg" viewBox="0 0 366.28 305.38">
  <defs>
    <style>
      .cls-1 {
        letter-spacing: -.04em;
      }

      .cls-2 {
        letter-spacing: -.02em;
      }

      .cls-3 {
        letter-spacing: -.01em;
      }

      .cls-4 {
        letter-spacing: -.02em;
      }

      .cls-5 {
        letter-spacing: 0em;
      }

      .cls-6 {
        letter-spacing: -.01em;
      }

      .cls-7 {
        letter-spacing: 0em;
      }

      .cls-8 {
        letter-spacing: 0em;
      }

      .cls-9 {
        letter-spacing: 0em;
      }

      .cls-10 {
        letter-spacing: -.02em;
      }

      .cls-11 {
        font-family: UrbanistRoman-Bold, Urbanist;
        font-size: 16px;
        font-variation-settings: 'wght' 700;
        font-weight: 700;
      }

      .cls-11, .cls-12 {
        fill: #130044;
      }

      .cls-13 {
        letter-spacing: 0em;
      }

      .cls-14 {
        letter-spacing: 0em;
      }

      .cls-15 {
        letter-spacing: -.01em;
      }

      .cls-16 {
        letter-spacing: -.04em;
      }
    </style>
  </defs>
  <path class="cls-12" d="M337.15,8.99c11.1,0,20.14,9.03,20.14,20.14v247.12c0,11.1-9.03,20.13-20.14,20.13H29.13c-11.1,0-20.14-9.03-20.14-20.13V29.13c0-11.1,9.03-20.14,20.14-20.14h308.02M337.15,0H29.13C13.11,0,0,13.11,0,29.13v247.12c0,16.02,13.11,29.13,29.13,29.13h308.02c16.02,0,29.13-13.11,29.13-29.13V29.13C366.28,13.11,353.18,0,337.15,0h0Z"/>
  <text class="cls-11" transform="translate(27.59 273.5)"><tspan class="cls-16" x="0" y="0">R</tspan><tspan class="cls-5" x="9.03" y="0">e</tspan><tspan x="17.86" y="0">s</tspan><tspan class="cls-8" x="24.82" y="0">p</tspan><tspan class="cls-3" x="34.56" y="0">o</tspan><tspan class="cls-7" x="43.34" y="0">n</tspan><tspan class="cls-13" x="52.26" y="0">s</tspan><tspan class="cls-9" x="59.1" y="0">a</tspan><tspan class="cls-4" x="68.72" y="0">b</tspan><tspan class="cls-14" x="78.27" y="0">i</tspan><tspan x="82.16" y="0">l</tspan><tspan class="cls-6" x="86.03" y="0">i</tspan><tspan class="cls-13" x="89.72" y="0">d</tspan><tspan class="cls-15" x="99.52" y="0">a</tspan><tspan class="cls-5" x="108.94" y="0">d</tspan><tspan x="118.74" y="0">e </tspan><tspan class="cls-10" x="131.54" y="0">c</tspan><tspan class="cls-2" x="139.39" y="0">iv</tspan><tspan class="cls-14" x="152.07" y="0">i</tspan><tspan x="155.96" y="0">l </tspan><tspan class="cls-5" x="163.67" y="0">d</tspan><tspan x="173.47" y="0">a</tspan><tspan class="cls-15" x="183.06" y="0">n</tspan><tspan class="cls-13" x="191.82" y="0">o</tspan><tspan x="200.67" y="0">s </tspan><tspan class="cls-8" x="211.46" y="0">m</tspan><tspan class="cls-6" x="225.51" y="0">o</tspan><tspan class="cls-1" x="234.29" y="0">r</tspan><tspan x="239.85" y="0">a</tspan><tspan class="cls-13" x="249.43" y="0">i</tspan><tspan x="253.19" y="0">s</tspan></text>
  <polygon class="cls-12" points="338.69 262.6 330.04 262.6 330.04 253.95 324.38 253.95 324.38 262.6 315.73 262.6 315.73 268.27 324.38 268.27 324.38 276.92 330.04 276.92 330.04 268.27 338.69 268.27 338.69 262.6"/>
  <g>
    <path class="cls-12" d="M40.12,36.63c-2.75.76-5.48,1.58-8.19,2.47-.5.16-.87.6-.95,1.13-1.6,12,2.1,20.76,6.5,26.53,1.87,2.47,4.09,4.64,6.6,6.45,1,.7,1.88,1.21,2.58,1.54.35.16.63.27.85.34.09.03.19.06.29.07.1-.02.19-.04.29-.07.22-.07.5-.18.85-.34.69-.33,1.58-.84,2.58-1.54,2.51-1.81,4.74-3.98,6.6-6.45,4.41-5.77,8.1-14.52,6.5-26.53-.07-.53-.44-.96-.95-1.13-1.88-.61-5.05-1.62-8.19-2.47-3.2-.87-6.15-1.51-7.69-1.51s-4.48.64-7.69,1.51h0ZM39.35,33.66c3.13-.85,6.46-1.62,8.45-1.62s5.32.77,8.45,1.62c3.2.87,6.44,1.89,8.33,2.51,1.62.54,2.79,1.95,3.01,3.64,1.72,12.93-2.27,22.5-7.12,28.84-2.05,2.71-4.5,5.1-7.27,7.08-.96.69-1.97,1.29-3.03,1.8-.81.38-1.68.69-2.39.69s-1.58-.31-2.39-.69c-1.06-.51-2.07-1.12-3.03-1.8-2.76-1.98-5.21-4.37-7.27-7.08-4.84-6.34-8.84-15.92-7.12-28.84.22-1.69,1.39-3.11,3.01-3.64,2.76-.9,5.54-1.74,8.33-2.51Z"/>
    <path class="cls-12" d="M47.8,45.03c.8,0,1.44.65,1.44,1.44v4.33h4.33c.8,0,1.44.65,1.44,1.44s-.65,1.44-1.44,1.44h-4.33v4.33c0,.8-.65,1.44-1.44,1.44s-1.44-.65-1.44-1.44v-4.33h-4.33c-.8,0-1.44-.65-1.44-1.44s.65-1.44,1.44-1.44h4.33v-4.33c0-.8.65-1.44,1.44-1.44Z"/>
  </g>
</svg>