<?xml version="1.0" encoding="UTF-8"?>
<svg id="Layer_1" data-name="Layer 1" xmlns="http://www.w3.org/2000/svg" viewBox="0 0 366.28 305.38">
  <defs>
    <style>
      .cls-1 {
        letter-spacing: 0em;
      }

      .cls-2 {
        letter-spacing: 0em;
      }

      .cls-3 {
        letter-spacing: 0em;
      }

      .cls-4 {
        fill: #fff;
      }

      .cls-5 {
        letter-spacing: -.01em;
      }

      .cls-6 {
        letter-spacing: -.04em;
      }

      .cls-7 {
        letter-spacing: 0em;
      }

      .cls-8 {
        letter-spacing: -.03em;
      }

      .cls-9 {
        letter-spacing: -.02em;
      }

      .cls-10 {
        letter-spacing: 0em;
      }

      .cls-11 {
        letter-spacing: 0em;
      }

      .cls-12 {
        letter-spacing: -.03em;
      }

      .cls-13 {
        letter-spacing: -.03em;
      }

      .cls-14 {
        letter-spacing: -.02em;
      }

      .cls-15 {
        letter-spacing: -.03em;
      }

      .cls-16 {
        letter-spacing: -.02em;
      }

      .cls-17 {
        letter-spacing: -.01em;
      }

      .cls-18 {
        letter-spacing: -.04em;
      }

      .cls-19 {
        letter-spacing: -.02em;
      }

      .cls-20 {
        font-family: UrbanistRoman-Bold, Urbanist;
        font-size: 19px;
        font-variation-settings: 'wght' 700;
        font-weight: 700;
      }

      .cls-21 {
        letter-spacing: 0em;
      }

      .cls-22 {
        letter-spacing: 0em;
      }

      .cls-23 {
        letter-spacing: -.05em;
      }

      .cls-24 {
        letter-spacing: 0em;
      }

      .cls-25 {
        letter-spacing: -.01em;
      }

      .cls-26 {
        letter-spacing: -.08em;
      }

      .cls-27 {
        letter-spacing: -.01em;
      }

      .cls-28 {
        letter-spacing: 0em;
      }

      .cls-29 {
        letter-spacing: -.01em;
      }

      .cls-30 {
        letter-spacing: 0em;
      }

      .cls-31 {
        font-family: Urbanist-Regular, Urbanist;
        font-size: 18px;
        font-variation-settings: 'wght' 400;
      }

      .cls-32 {
        letter-spacing: 0em;
      }

      .cls-33 {
        letter-spacing: -.01em;
      }

      .cls-34 {
        fill: #130044;
      }
    </style>
  </defs>
  <rect class="cls-34" x="0" y="0" width="366.28" height="305.38" rx="29.13" ry="29.13"/>
  <path class="cls-4" d="M30.35,37.12c-.17-.57-.06-1.18.3-1.65s.9-.75,1.5-.75c.83,0,1.55.53,1.79,1.33l5.46,17.88c.17.56.69.95,1.28.95h20.48c1.24,0,2.26,1.01,2.26,2.26v4.13s0,1.34,0,1.34h-10.11c-1.76-3.74-5.55-6.33-9.95-6.33-6.06,0-10.99,4.93-10.99,10.99s4.93,10.99,10.99,10.99c6.06,0,10.99-4.93,10.99-10.99,0-.68-.06-1.34-.18-1.98h9.25v6.2c-.02.21-.03.42-.03.63,0,3.38,2.75,6.14,6.14,6.14s6.14-2.75,6.14-6.14c0-3.38-2.75-6.14-6.14-6.14-1.27,0-2.45.39-3.43,1.05v-5.76h0v-4.13c0-2.72-2.21-4.93-4.93-4.93h-19.49s-1.99-6.5-1.99-6.5h12.61c1.63,0,2.96,1.33,2.96,2.96,0,.74.6,1.34,1.34,1.34s1.34-.6,1.34-1.34c0-3.11-2.53-5.63-5.63-5.63h-13.43s-2.37-7.76-2.37-7.76c-.59-1.93-2.34-3.22-4.35-3.22-1.45,0-2.78.67-3.65,1.83-.87,1.16-1.13,2.62-.72,4.01l5.46,18.4c.21.71.95,1.11,1.66.9.71-.21,1.11-.95.9-1.66l-5.46-18.4ZM51.67,67.24c0,4.58-3.73,8.31-8.31,8.31-4.58,0-8.31-3.73-8.31-8.31,0-4.58,3.73-8.31,8.31-8.31,4.58,0,8.31,3.73,8.31,8.31ZM66.06,72.16c.02-.09.03-.18.03-.28v-.24c.22-1.7,1.67-3.01,3.43-3.01,1.91,0,3.46,1.55,3.46,3.46,0,1.91-1.55,3.46-3.46,3.46-1.89,0-3.43-1.52-3.46-3.4Z"/>
  <text class="cls-4" transform="translate(27.59 115.96)"><tspan class="cls-20"><tspan x="0" y="0">I</tspan><tspan class="cls-19" x="5.17" y="0">n</tspan><tspan class="cls-6" x="15.33" y="0">v</tspan><tspan class="cls-24" x="25.71" y="0">a</tspan><tspan x="37.14" y="0">l</tspan><tspan class="cls-33" x="41.73" y="0">i</tspan><tspan class="cls-22" x="46.11" y="0">d</tspan><tspan class="cls-14" x="57.75" y="0">e</tspan><tspan x="68.08" y="0">z </tspan><tspan class="cls-18" x="82.27" y="0">P</tspan><tspan class="cls-33" x="91.95" y="0">er</tspan><tspan class="cls-11" x="109.46" y="0">m</tspan><tspan x="126.15" y="0">a</tspan><tspan class="cls-11" x="137.53" y="0">n</tspan><tspan class="cls-33" x="147.94" y="0">e</tspan><tspan x="158.35" y="0">n</tspan><tspan class="cls-25" x="168.96" y="0">t</tspan><tspan x="175.55" y="0">e </tspan><tspan class="cls-26" x="190.74" y="0">T</tspan><tspan class="cls-5" x="201.27" y="0">ot</tspan><tspan class="cls-24" x="218.29" y="0">a</tspan><tspan x="229.72" y="0">l </tspan><tspan class="cls-11" x="238.88" y="0">p</tspan><tspan class="cls-33" x="250.45" y="0">o</tspan><tspan x="260.87" y="0">r </tspan></tspan><tspan class="cls-20"><tspan class="cls-23" x="0" y="22.8">A</tspan><tspan class="cls-16" x="12.9" y="22.8">c</tspan><tspan class="cls-33" x="22.23" y="22.8">i</tspan><tspan class="cls-22" x="26.61" y="22.8">d</tspan><tspan class="cls-33" x="38.25" y="22.8">e</tspan><tspan x="48.66" y="22.8">n</tspan><tspan class="cls-5" x="59.26" y="22.8">t</tspan><tspan x="65.85" y="22.8">e</tspan></tspan><tspan class="cls-31"><tspan class="cls-30" x="0" y="66">G</tspan><tspan x="13.71" y="66">a</tspan><tspan class="cls-8" x="24.17" y="66">r</tspan><tspan x="30" y="66">an</tspan><tspan class="cls-27" x="50.1" y="66">t</tspan><tspan x="56.07" y="66">e </tspan><tspan class="cls-7" x="70.44" y="66">i</tspan><tspan class="cls-29" x="73.84" y="66">n</tspan><tspan class="cls-2" x="83.3" y="66">d</tspan><tspan class="cls-3" x="94.07" y="66">e</tspan><tspan x="104.03" y="66">ni</tspan><tspan class="cls-3" x="117.1" y="66">z</tspan><tspan class="cls-29" x="126.13" y="66">a</tspan><tspan class="cls-30" x="136.41" y="66">ç</tspan><tspan class="cls-21" x="145.47" y="66">ã</tspan><tspan x="155.75" y="66">o </tspan><tspan class="cls-29" x="170.15" y="66">p</tspan><tspan x="180.78" y="66">a</tspan><tspan class="cls-15" x="191.24" y="66">r</tspan><tspan x="197.07" y="66">a o </tspan></tspan><tspan class="cls-31"><tspan class="cls-28" x="0" y="87.6">s</tspan><tspan class="cls-21" x="7.67" y="87.6">e</tspan><tspan class="cls-30" x="17.54" y="87.6">g</tspan><tspan x="28" y="87.6">u</tspan><tspan class="cls-8" x="37.29" y="87.6">r</tspan><tspan class="cls-21" x="43.12" y="87.6">a</tspan><tspan class="cls-28" x="53.4" y="87.6">d</tspan><tspan x="64.16" y="87.6">o </tspan><tspan class="cls-3" x="78.56" y="87.6">e</tspan><tspan x="88.52" y="87.6">m </tspan><tspan class="cls-30" x="108.84" y="87.6">c</tspan><tspan x="117.89" y="87.6">a</tspan><tspan class="cls-28" x="128.35" y="87.6">s</tspan><tspan x="136.02" y="87.6">o </tspan><tspan class="cls-28" x="150.42" y="87.6">d</tspan><tspan x="161.18" y="87.6">e </tspan><tspan class="cls-7" x="175.55" y="87.6">i</tspan><tspan class="cls-21" x="178.95" y="87.6">n</tspan><tspan class="cls-12" x="188.41" y="87.6">v</tspan><tspan class="cls-10" x="197.19" y="87.6">a</tspan><tspan x="207.76" y="87.6">l</tspan><tspan class="cls-3" x="211.18" y="87.6">i</tspan><tspan class="cls-28" x="214.51" y="87.6">d</tspan><tspan class="cls-9" x="225.28" y="87.6">e</tspan><tspan x="235" y="87.6">z </tspan></tspan><tspan class="cls-31"><tspan class="cls-21" x="0" y="109.2">p</tspan><tspan class="cls-3" x="10.64" y="109.2">er</tspan><tspan class="cls-29" x="26.95" y="109.2">m</tspan><tspan x="42.76" y="109.2">a</tspan><tspan class="cls-21" x="53.22" y="109.2">n</tspan><tspan class="cls-3" x="62.69" y="109.2">e</tspan><tspan x="72.65" y="109.2">n</tspan><tspan class="cls-27" x="82.3" y="109.2">t</tspan><tspan x="88.26" y="109.2">e </tspan><tspan class="cls-17" x="102.64" y="109.2">tot</tspan><tspan class="cls-10" x="124.41" y="109.2">a</tspan><tspan x="134.98" y="109.2">l </tspan><tspan class="cls-29" x="142.72" y="109.2">p</tspan><tspan class="cls-32" x="153.36" y="109.2">o</tspan><tspan x="163.35" y="109.2">r </tspan><tspan class="cls-29" x="174.1" y="109.2">m</tspan><tspan class="cls-27" x="189.92" y="109.2">o</tspan><tspan class="cls-28" x="199.75" y="109.2">t</tspan><tspan class="cls-30" x="205.9" y="109.2">i</tspan><tspan class="cls-13" x="209.21" y="109.2">v</tspan><tspan x="217.98" y="109.2">o </tspan><tspan class="cls-2" x="232.38" y="109.2">d</tspan><tspan x="243.14" y="109.2">e </tspan></tspan><tspan class="cls-31"><tspan class="cls-21" x="0" y="130.8">a</tspan><tspan class="cls-1" x="10.28" y="130.8">c</tspan><tspan class="cls-3" x="19.3" y="130.8">i</tspan><tspan class="cls-28" x="22.63" y="130.8">d</tspan><tspan class="cls-32" x="33.39" y="130.8">e</tspan><tspan x="43.35" y="130.8">n</tspan><tspan class="cls-17" x="53" y="130.8">t</tspan><tspan x="58.97" y="130.8">e</tspan></tspan></text>
</svg>