<?xml version="1.0" encoding="UTF-8"?>
<svg id="Layer_1" data-name="Layer 1" xmlns="http://www.w3.org/2000/svg" viewBox="0 0 366.28 305.38">
  <defs>
    <style>
      .cls-1 {
        letter-spacing: 0em;
      }

      .cls-2 {
        letter-spacing: -.04em;
      }

      .cls-3 {
        letter-spacing: 0em;
      }

      .cls-4 {
        font-family: UrbanistRoman-Bold, Urbanist;
        font-size: 23.99px;
        font-variation-settings: 'wght' 700;
        font-weight: 700;
      }

      .cls-4, .cls-5 {
        fill: #130044;
      }

      .cls-6 {
        letter-spacing: -.02em;
      }

      .cls-7 {
        letter-spacing: -.02em;
      }
    </style>
  </defs>
  <path class="cls-5" d="M337.15,8.99c11.1,0,20.13,9.03,20.13,20.14v247.12c0,11.1-9.03,20.13-20.13,20.13H29.13c-11.1,0-20.14-9.03-20.14-20.13V29.13c0-11.1,9.03-20.14,20.14-20.14h308.02M337.15,0H29.13C13.11,0,0,13.11,0,29.13v247.12c0,16.02,13.11,29.13,29.13,29.13h308.02c16.02,0,29.13-13.11,29.13-29.13V29.13C366.28,13.11,353.18,0,337.15,0h0Z"/>
  <text class="cls-4" transform="translate(27.6 274.19)"><tspan class="cls-7" x="0" y="0">C</tspan><tspan class="cls-3" x="16.55" y="0">u</tspan><tspan x="29.52" y="0">l</tspan><tspan class="cls-1" x="35.32" y="0">t</tspan><tspan class="cls-6" x="43.73" y="0">i</tspan><tspan class="cls-2" x="49.16" y="0">v</tspan><tspan x="62.26" y="0">o</tspan></text>
  <polygon class="cls-5" points="338.69 262.6 330.04 262.6 330.04 253.95 324.38 253.95 324.38 262.6 315.73 262.6 315.73 268.27 324.38 268.27 324.38 276.92 330.04 276.92 330.04 268.27 338.69 268.27 338.69 262.6"/>
  <g>
    <path class="cls-5" d="M71.74,58.59c-1.57-.46-3.33-.46-5,.09l-5.74,1.85c-.09-.37-.37-.83-.83-1.3-.93-1.02-2.41-1.67-3.89-1.67h-4.91c-.28,0-.65-.09-.83-.28-3.61-3.06-7.78-1.67-8.98-1.11-.28.09-.56.28-.74.46l-5.65,4.72c-.46-.46-1.11-.83-1.76-.93-.83-.09-1.67.09-2.41.65l-2.13,1.57c-1.39,1.11-1.67,3.06-.65,4.54l7.41,9.82c.56.65,1.3,1.11,2.13,1.2h.46c.65,0,1.39-.19,1.95-.65l2.13-1.57c1.11-.83,1.57-2.41,1.02-3.61l1.11-.83c.28-.19.56-.28.83-.28l10.47-.19c1.85,0,3.7-.56,5.37-1.48l10.74-6.21c.56-.28,2.22-1.39,2.04-2.87-.09-.93-.83-1.57-2.13-1.95ZM41.08,74.53l-2.13,1.57c-.28.28-.65.37-.93.37-.37-.09-.65-.28-.93-.56l-7.41-9.82c-.46-.56-.37-1.48.28-1.95l2.13-1.57c.28-.19.56-.28.83-.28h.19c.37.09.65.19.83.46l5.19,6.85,2.32,2.96c.37.65.28,1.57-.37,1.95ZM70.9,61.74l-10.74,6.21c-1.39.74-2.87,1.2-4.45,1.2l-10.56.19c-.74,0-1.39.28-1.95.65l-.93.74-2.13-2.78-3.89-5.19,5.65-4.72c.09-.09.19-.09.28-.19.93-.37,4.26-1.57,7.04.83.56.46,1.3.74,2.04.74h4.91c1.02,0,1.95.37,2.59,1.02.19.28.46.65.46.93,0,.19-.28.74-1.76,1.39h-7.04c-.56,0-.93.37-.93.93s.37.93.93.93h7.5l.19-.09c1.39-.65,2.22-1.3,2.69-2.04l6.58-2.04c1.3-.46,2.69-.46,3.89-.09.56.19.74.28.83.37-.19.28-.74.74-1.2,1.02Z"/>
    <path class="cls-5" d="M33.21,64.52l-1.67,1.2c-.37.28-.46.93-.19,1.3.19.28.46.37.74.37.19,0,.37-.09.56-.19l1.67-1.2c.37-.28.46-.93.19-1.3-.37-.46-.93-.56-1.3-.19Z"/>
    <path class="cls-5" d="M49.97,42.2c1.57,1.3,3.7,1.57,5.46,1.57,1.02,0,2.04-.09,2.69-.28v5.74c-3.43.46-6.11,3.15-6.11,6.3v.93h14.54v-.93c0-3.33-2.96-6.02-6.67-6.3v-6.67c1.3.56,3.33,1.2,5.37,1.2.93,0,1.85-.09,2.69-.46,3.89-1.57,5.19-7.04,5.28-7.32.09-.37-.09-.74-.37-1.02-.19-.09-5-3.06-8.89-1.48-2.04.83-3.61,2.78-4.54,4.45-.37-1.48-1.2-3.15-2.69-4.26-3.43-2.78-9.08-1.2-9.36-1.11-.37.09-.65.46-.65.83,0,.28-.28,6.11,3.24,8.8ZM64.61,54.7h-10.65c.56-2.04,2.69-3.61,5.28-3.61s4.91,1.57,5.37,3.61ZM64.7,35.35c2.32-.93,5.37.37,6.58,1.02-.46,1.39-1.67,4.35-3.98,5.37h0c-1.85.74-4.17.19-5.84-.46l6.67-2.59c.37-.19.56-.46.56-.83,0-.09,0-.19-.09-.37-.19-.46-.74-.74-1.2-.56l-6.67,2.59c.83-1.57,2.13-3.43,3.98-4.17ZM55.62,35.07c1.67,1.3,2.22,3.7,2.41,5.37l-5.84-4.63c-.37-.28-1.02-.28-1.3.19-.09.19-.19.37-.19.56,0,.28.09.56.37.74l5.84,4.63c-1.67.19-4.08.19-5.74-1.11-2.13-1.67-2.41-5.09-2.5-6.58,1.39-.37,4.82-.83,6.95.83Z"/>
  </g>
</svg>