<?xml version="1.0" encoding="UTF-8"?>
<svg id="Layer_1" data-name="Layer 1" xmlns="http://www.w3.org/2000/svg" viewBox="0 0 366.28 305.38">
  <defs>
    <style>
      .cls-1 {
        letter-spacing: -.04em;
      }

      .cls-2 {
        letter-spacing: -.04em;
      }

      .cls-3 {
        letter-spacing: -.02em;
      }

      .cls-4 {
        letter-spacing: 0em;
      }

      .cls-5 {
        letter-spacing: 0em;
      }

      .cls-6 {
        letter-spacing: -.02em;
      }

      .cls-7 {
        letter-spacing: -.01em;
      }

      .cls-8 {
        letter-spacing: 0em;
      }

      .cls-9 {
        letter-spacing: 0em;
      }

      .cls-10 {
        font-family: UrbanistRoman-Bold, Urbanist;
        font-size: 16px;
        font-variation-settings: 'wght' 700;
        font-weight: 700;
      }

      .cls-10, .cls-11 {
        fill: #130044;
      }

      .cls-12 {
        letter-spacing: -.02em;
      }

      .cls-13 {
        letter-spacing: 0em;
      }

      .cls-14 {
        letter-spacing: -.01em;
      }

      .cls-15 {
        letter-spacing: -.01em;
      }
    </style>
  </defs>
  <path class="cls-11" d="M337.15,9c11.1,0,20.13,9.03,20.13,20.13v247.12c0,11.1-9.03,20.14-20.13,20.14H29.13c-11.1,0-20.13-9.03-20.13-20.14V29.13c0-11.1,9.03-20.13,20.13-20.13h308.02M337.15,0H29.13C13.11,0,0,13.11,0,29.13v247.12C0,292.27,13.11,305.38,29.13,305.38h308.02c16.02,0,29.13-13.11,29.13-29.13V29.13C366.28,13.11,353.18,0,337.15,0h0Z"/>
  <text class="cls-10" transform="translate(27.59 271.08)"><tspan class="cls-2" x="0" y="0">P</tspan><tspan class="cls-7" x="8.15" y="0">e</tspan><tspan class="cls-1" x="16.92" y="0">r</tspan><tspan class="cls-5" x="22.48" y="0">d</tspan><tspan x="32.28" y="0">a </tspan><tspan class="cls-3" x="45.7" y="0">o</tspan><tspan class="cls-4" x="54.3" y="0">u </tspan><tspan class="cls-15" x="66.74" y="0">pa</tspan><tspan class="cls-7" x="85.91" y="0">g</tspan><tspan x="95.54" y="0">a</tspan><tspan class="cls-8" x="105.12" y="0">m</tspan><tspan class="cls-7" x="119.18" y="0">e</tspan><tspan x="127.94" y="0">n</tspan><tspan class="cls-14" x="136.87" y="0">t</tspan><tspan x="142.42" y="0">o </tspan><tspan class="cls-13" x="155.22" y="0">d</tspan><tspan x="165.02" y="0">e </tspan><tspan class="cls-9" x="177.82" y="0">a</tspan><tspan x="187.44" y="0">l</tspan><tspan class="cls-5" x="191.31" y="0">u</tspan><tspan class="cls-6" x="199.8" y="0">g</tspan><tspan class="cls-13" x="209.36" y="0">u</tspan><tspan class="cls-12" x="217.85" y="0">e</tspan><tspan x="226.5" y="0">l</tspan></text>
  <polygon class="cls-11" points="338.69 262.6 330.04 262.6 330.04 253.95 324.38 253.95 324.38 262.6 315.73 262.6 315.73 268.27 324.38 268.27 324.38 276.92 330.04 276.92 330.04 268.27 338.69 268.27 338.69 262.6"/>
  <g>
    <path class="cls-11" d="M50.58,78.23c-7.53,0-14.51-3.63-18.85-9.85-.47-.68-.31-1.62.37-2.09.68-.47,1.62-.31,2.09.37,3.94,5.65,10.39,8.86,17.28,8.55,5.34-.23,10.26-2.53,13.87-6.47s5.47-9.04,5.23-14.38c-.04-.83.61-1.53,1.43-1.56.85-.05,1.53.61,1.56,1.43.27,6.14-1.87,12.01-6.02,16.54-4.15,4.53-9.81,7.17-15.95,7.44-.34.01-.68.02-1.02.02Z"/>
    <path class="cls-11" d="M29.1,57.26c-.81,0-1.48-.65-1.5-1.47-.03-1.63.1-3.28.41-4.88,2.39-12.45,14.47-20.64,26.91-18.26,5.87,1.13,11,4.43,14.45,9.31.48.68.32,1.61-.36,2.09-.68.48-1.61.32-2.09-.36-3-4.24-7.46-7.12-12.57-8.1-10.82-2.08-21.33,5.04-23.4,15.87-.27,1.4-.39,2.83-.36,4.26.02.83-.64,1.51-1.47,1.53h-.03Z"/>
    <path class="cls-11" d="M69.74,44.75l-11.43-1.34c-.82-.1-1.41-.84-1.32-1.67.1-.82.85-1.41,1.67-1.32l8.41.99.83-7.8c.09-.83.83-1.43,1.65-1.33.82.09,1.42.83,1.33,1.65l-1.15,10.82Z"/>
    <path class="cls-11" d="M31.53,77.83c-.05,0-.11,0-.16,0-.82-.09-1.42-.83-1.33-1.65l1.16-10.81,11.42,1.34c.82.1,1.41.84,1.32,1.67-.1.82-.84,1.41-1.67,1.32l-8.41-.99-.84,7.8c-.08.77-.73,1.34-1.49,1.34Z"/>
    <path class="cls-11" d="M50.78,65.86c-4.73,0-7.2-4.04-7.86-6.25l2.88-.85c.05.17,1.34,4.31,5.26,4.09,3.92-.2,4.46-3.08,4.48-3.21.02-.1.21-1.12-.47-2.01-.68-.89-2.08-1.43-4.04-1.58-2.79-.22-4.83-1.14-6.08-2.73-1.4-1.79-1.25-3.76-1.18-4.26.13-1.87,1.78-5.27,7.17-5.27,3.22-.07,6.17,1.83,7.46,4.83l-2.76,1.19c-.8-1.87-2.65-3.04-4.67-3.02-4.04,0-4.2,2.39-4.21,2.5l-.02.18s-.15,1.11.6,2.04c.7.87,2.06,1.41,3.92,1.56,2.92.22,5.03,1.17,6.25,2.82,1.46,1.97,1.03,4.1.98,4.34-.3,1.78-2.23,5.36-7.27,5.62-.15,0-.29.01-.44.01Z"/>
    <rect class="cls-11" x="49.42" y="41.81" width="3" height="26.55"/>
  </g>
</svg>