<?xml version="1.0" encoding="UTF-8"?>
<svg id="Layer_1" data-name="Layer 1" xmlns="http://www.w3.org/2000/svg" viewBox="0 0 366.28 305.38">
  <defs>
    <style>
      .cls-1 {
        letter-spacing: 0em;
      }

      .cls-2 {
        letter-spacing: 0em;
      }

      .cls-3 {
        letter-spacing: -.01em;
      }

      .cls-4 {
        font-family: UrbanistRoman-Bold, Urbanist;
        font-size: 23.99px;
        font-variation-settings: 'wght' 700;
        font-weight: 700;
      }

      .cls-4, .cls-5 {
        fill: #130044;
      }

      .cls-6 {
        letter-spacing: -.02em;
      }

      .cls-7 {
        letter-spacing: -.01em;
      }
    </style>
  </defs>
  <path class="cls-5" d="M337.15,9c11.1,0,20.14,9.03,20.14,20.13v247.12c0,11.1-9.03,20.14-20.14,20.14H29.13c-11.1,0-20.14-9.03-20.14-20.14V29.13c0-11.1,9.03-20.13,20.14-20.13h308.02M337.15,0H29.13C13.11,0,0,13.11,0,29.13v247.12c0,16.02,13.11,29.13,29.13,29.13h308.02c16.02,0,29.13-13.11,29.13-29.13V29.13c0-16.02-13.11-29.13-29.13-29.13h0Z"/>
  <text class="cls-4" transform="translate(27.59 274.19)"><tspan class="cls-6" x="0" y="0">C</tspan><tspan class="cls-7" x="16.64" y="0">h</tspan><tspan x="29.78" y="0">e</tspan><tspan class="cls-3" x="43.2" y="0">f</tspan><tspan x="51.61" y="0">e </tspan><tspan class="cls-1" x="70.78" y="0">d</tspan><tspan x="85.48" y="0">e </tspan><tspan class="cls-2" x="104.65" y="0">e</tspan><tspan class="cls-6" x="117.83" y="0">q</tspan><tspan x="132.31" y="0">u</tspan><tspan class="cls-1" x="145.21" y="0">i</tspan><tspan class="cls-7" x="150.84" y="0">p</tspan><tspan x="165.45" y="0">e</tspan></text>
  <polygon class="cls-5" points="338.69 262.6 330.04 262.6 330.04 253.95 324.38 253.95 324.38 262.6 315.73 262.6 315.73 268.27 324.38 268.27 324.38 276.92 330.04 276.92 330.04 268.27 338.69 268.27 338.69 262.6"/>
  <g>
    <path class="cls-5" d="M54.41,35.76c0-2.05-1.67-3.73-3.73-3.73s-3.73,1.67-3.73,3.73,1.67,3.73,3.73,3.73,3.73-1.67,3.73-3.73ZM50.69,38c-1.23,0-2.24-1-2.24-2.24s1-2.24,2.24-2.24,2.24,1,2.24,2.24-1,2.24-2.24,2.24Z"/>
    <path class="cls-5" d="M71.55,72.38v-4.58h-3.73v-3.73h2.98v-7.45h-2.98v-5.22h-16.39v-4.47h3.73v-3.73c0-2.05-1.67-3.73-3.73-3.73h-1.49c-2.05,0-3.73,1.67-3.73,3.73v3.73h3.73v4.47h-16.39v5.22h-2.98v7.45h2.98v3.73h-3.73v4.58c-1.28.33-2.24,1.49-2.24,2.87,0,1.64,1.34,2.98,2.98,2.98s2.98-1.34,2.98-2.98c0-1.39-.95-2.54-2.24-2.87v-3.09h5.96v3.09c-1.28.33-2.24,1.49-2.24,2.87,0,1.64,1.34,2.98,2.98,2.98s2.98-1.34,2.98-2.98c0-1.39-.95-2.54-2.24-2.87v-4.58h-3.73v-3.73h2.98v-7.45h-2.98v-3.73h14.9v3.73h-2.98v7.45h2.98v3.73h-3.73v4.58c-1.28.33-2.24,1.49-2.24,2.87,0,1.64,1.34,2.98,2.98,2.98s2.98-1.34,2.98-2.98c0-1.39-.95-2.54-2.24-2.87v-3.09h5.96v3.09c-1.28.33-2.24,1.49-2.24,2.87,0,1.64,1.34,2.98,2.98,2.98s2.98-1.34,2.98-2.98c0-1.39-.95-2.54-2.24-2.87v-4.58h-3.73v-3.73h2.98v-7.45h-2.98v-3.73h14.9v3.73h-2.98v7.45h2.98v3.73h-3.73v4.58c-1.28.33-2.24,1.49-2.24,2.87,0,1.64,1.34,2.98,2.98,2.98s2.98-1.34,2.98-2.98c0-1.39-.95-2.54-2.24-2.87v-3.09h5.96v3.09c-1.28.33-2.24,1.49-2.24,2.87,0,1.64,1.34,2.98,2.98,2.98s2.98-1.34,2.98-2.98c0-1.39-.95-2.54-2.24-2.87ZM32.06,75.25c0,.82-.67,1.49-1.49,1.49s-1.49-.67-1.49-1.49.67-1.49,1.49-1.49,1.49.67,1.49,1.49ZM39.51,75.25c0,.82-.67,1.49-1.49,1.49s-1.49-.67-1.49-1.49.67-1.49,1.49-1.49,1.49.67,1.49,1.49ZM36.53,58.12v4.47h-4.47v-4.47h4.47ZM48.45,75.25c0,.82-.67,1.49-1.49,1.49s-1.49-.67-1.49-1.49.67-1.49,1.49-1.49,1.49.67,1.49,1.49ZM55.9,75.25c0,.82-.67,1.49-1.49,1.49s-1.49-.67-1.49-1.49.67-1.49,1.49-1.49,1.49.67,1.49,1.49ZM52.92,58.12v4.47h-4.47v-4.47h4.47ZM47.71,45.45v-2.24c0-1.23,1-2.24,2.24-2.24v1.49h1.49v-1.49c1.23,0,2.24,1,2.24,2.24v2.24h-5.96ZM64.84,75.25c0,.82-.67,1.49-1.49,1.49s-1.49-.67-1.49-1.49.67-1.49,1.49-1.49,1.49.67,1.49,1.49ZM64.84,62.59v-4.47h4.47v4.47h-4.47ZM70.8,76.74c-.82,0-1.49-.67-1.49-1.49s.67-1.49,1.49-1.49,1.49.67,1.49,1.49-.67,1.49-1.49,1.49Z"/>
  </g>
</svg>