<?xml version="1.0" encoding="UTF-8"?>
<svg id="Layer_1" data-name="Layer 1" xmlns="http://www.w3.org/2000/svg" viewBox="0 0 366.28 305.38">
  <defs>
    <style>
      .cls-1 {
        letter-spacing: 0em;
      }

      .cls-2 {
        letter-spacing: 0em;
      }

      .cls-3 {
        letter-spacing: 0em;
      }

      .cls-4 {
        fill: #fff;
      }

      .cls-5 {
        letter-spacing: -.03em;
      }

      .cls-6 {
        letter-spacing: 0em;
      }

      .cls-7 {
        letter-spacing: -.01em;
      }

      .cls-8 {
        font-family: UrbanistRoman-Bold, Urbanist;
        font-size: 23.99px;
        font-variation-settings: 'wght' 700;
        font-weight: 700;
      }

      .cls-9 {
        letter-spacing: -.02em;
      }

      .cls-10 {
        letter-spacing: 0em;
      }

      .cls-11 {
        letter-spacing: 0em;
      }

      .cls-12 {
        letter-spacing: -.03em;
      }

      .cls-13 {
        letter-spacing: 0em;
      }

      .cls-14 {
        letter-spacing: -.01em;
      }

      .cls-15 {
        letter-spacing: 0em;
      }

      .cls-16 {
        letter-spacing: 0em;
      }

      .cls-17 {
        font-family: Urbanist-Regular, Urbanist;
        font-size: 18px;
        font-variation-settings: 'wght' 400;
      }

      .cls-18 {
        fill: #130044;
      }
    </style>
  </defs>
  <rect class="cls-18" x="0" y="0" width="366.28" height="305.38" rx="29.13" ry="29.13"/>
  <path class="cls-4" d="M37.07,41c2.22-1.6,2.72-4.69,1.12-6.91-1.6-2.22-4.69-2.72-6.91-1.12-2.22,1.6-2.72,4.69-1.12,6.91.31.43.69.81,1.12,1.12-2.25,1.1-3.69,3.39-3.69,5.9v29.68c0,.91.74,1.65,1.65,1.65h9.89c.91,0,1.65-.74,1.65-1.65v-29.68c-.01-2.51-1.45-4.8-3.71-5.9ZM34.19,35.36c.91,0,1.65.74,1.65,1.65s-.74,1.65-1.65,1.65-1.65-.74-1.65-1.65.74-1.65,1.65-1.65ZM37.49,74.93h-1.65v-8.24c0-.91-.74-1.65-1.65-1.65s-1.65.74-1.65,1.65v8.24h-1.65v-13.19h6.6v13.19ZM37.49,58.44h-6.6v-11.54c0-1.82,1.48-3.3,3.3-3.3s3.3,1.48,3.3,3.3v11.54Z"/>
  <text class="cls-4" transform="translate(27.59 119.7)"><tspan class="cls-8"><tspan x="0" y="0">I</tspan><tspan class="cls-10" x="6.52" y="0">n</tspan><tspan x="19.67" y="0">d</tspan><tspan class="cls-9" x="34.54" y="0">iv</tspan><tspan class="cls-7" x="53.55" y="0">i</tspan><tspan x="59.08" y="0">d</tspan><tspan class="cls-1" x="73.95" y="0">u</tspan><tspan class="cls-6" x="86.68" y="0">a</tspan><tspan x="101.1" y="0">l</tspan></tspan><tspan class="cls-17"><tspan class="cls-12" x="0" y="43.2">C</tspan><tspan class="cls-16" x="12.13" y="43.2">o</tspan><tspan class="cls-3" x="22.06" y="43.2">b</tspan><tspan class="cls-5" x="32.8" y="43.2">r</tspan><tspan x="38.63" y="43.2">e u</tspan><tspan class="cls-11" x="62.29" y="43.2">m</tspan><tspan x="78.1" y="43.2">a ún</tspan><tspan class="cls-3" x="111.82" y="43.2">i</tspan><tspan class="cls-15" x="115.15" y="43.2">c</tspan><tspan x="124.2" y="43.2">a </tspan><tspan class="cls-14" x="138.98" y="43.2">p</tspan><tspan class="cls-2" x="149.62" y="43.2">e</tspan><tspan x="159.61" y="43.2">s</tspan><tspan class="cls-13" x="167.34" y="43.2">s</tspan><tspan class="cls-14" x="175" y="43.2">o</tspan><tspan x="184.9" y="43.2">a.</tspan></tspan></text>
</svg>