<?xml version="1.0" encoding="UTF-8"?>
<svg id="Layer_1" data-name="Layer 1" xmlns="http://www.w3.org/2000/svg" viewBox="0 0 366.28 305.38">
  <defs>
    <style>
      .cls-1 {
        letter-spacing: 0em;
      }

      .cls-2 {
        letter-spacing: 0em;
      }

      .cls-3 {
        letter-spacing: 0em;
      }

      .cls-4 {
        letter-spacing: 0em;
      }

      .cls-5 {
        letter-spacing: -.04em;
      }

      .cls-6 {
        letter-spacing: -.04em;
      }

      .cls-7 {
        letter-spacing: 0em;
      }

      .cls-8, .cls-9 {
        fill: #fff;
      }

      .cls-10 {
        letter-spacing: -.02em;
      }

      .cls-11 {
        letter-spacing: 0em;
      }

      .cls-12 {
        letter-spacing: 0em;
      }

      .cls-13 {
        font-family: UrbanistRoman-Bold, Urbanist;
        font-variation-settings: 'wght' 700;
        font-weight: 700;
      }

      .cls-14 {
        letter-spacing: 0em;
      }

      .cls-15 {
        letter-spacing: 0em;
      }

      .cls-16 {
        letter-spacing: -.02em;
      }

      .cls-17 {
        letter-spacing: -.01em;
      }

      .cls-18 {
        letter-spacing: -.03em;
      }

      .cls-19 {
        letter-spacing: 0em;
      }

      .cls-20 {
        letter-spacing: 0em;
      }

      .cls-21 {
        letter-spacing: -.03em;
      }

      .cls-22 {
        letter-spacing: 0em;
      }

      .cls-9 {
        font-size: 16px;
      }

      .cls-23 {
        letter-spacing: 0em;
      }

      .cls-24 {
        letter-spacing: -.03em;
      }

      .cls-25 {
        letter-spacing: -.01em;
      }

      .cls-26 {
        letter-spacing: -.03em;
      }

      .cls-27 {
        letter-spacing: -.02em;
      }

      .cls-28 {
        letter-spacing: 0em;
      }

      .cls-29 {
        letter-spacing: 0em;
      }

      .cls-30 {
        letter-spacing: 0em;
      }

      .cls-31 {
        letter-spacing: 0em;
      }

      .cls-32 {
        letter-spacing: -.01em;
      }

      .cls-33 {
        letter-spacing: -.01em;
      }

      .cls-34 {
        letter-spacing: 0em;
      }

      .cls-35 {
        font-family: Urbanist-Regular, Urbanist;
        font-variation-settings: 'wght' 400;
      }

      .cls-36 {
        letter-spacing: 0em;
      }

      .cls-37 {
        letter-spacing: 0em;
      }

      .cls-38 {
        fill: #130044;
      }
    </style>
  </defs>
  <rect class="cls-38" x="0" y="0" width="366.28" height="305.38" rx="29.13" ry="29.13"/>
  <g>
    <path class="cls-8" d="M50.58,78.23c-7.53,0-14.51-3.63-18.85-9.85-.47-.68-.31-1.62.37-2.09.68-.47,1.62-.31,2.09.37,3.94,5.65,10.39,8.86,17.28,8.55,5.34-.23,10.26-2.53,13.87-6.47s5.47-9.04,5.23-14.38c-.04-.83.61-1.53,1.43-1.56.85-.05,1.53.61,1.56,1.43.27,6.14-1.87,12.01-6.02,16.54-4.15,4.53-9.81,7.17-15.95,7.44-.34.01-.68.02-1.02.02Z"/>
    <path class="cls-8" d="M29.1,57.26c-.81,0-1.48-.65-1.5-1.47-.03-1.63.1-3.28.41-4.88,2.39-12.45,14.47-20.64,26.91-18.26,5.87,1.13,11,4.43,14.45,9.31.48.68.32,1.61-.36,2.09-.68.48-1.61.32-2.09-.36-3-4.24-7.46-7.12-12.57-8.1-10.82-2.08-21.33,5.04-23.4,15.87-.27,1.4-.39,2.83-.36,4.26.02.83-.64,1.51-1.47,1.53h-.03Z"/>
    <path class="cls-8" d="M69.74,44.75l-11.43-1.34c-.82-.1-1.41-.84-1.32-1.67.1-.82.85-1.41,1.67-1.32l8.41.99.83-7.8c.09-.83.83-1.43,1.65-1.33.82.09,1.42.83,1.33,1.65l-1.15,10.82Z"/>
    <path class="cls-8" d="M31.53,77.83c-.05,0-.11,0-.16,0-.82-.09-1.42-.83-1.33-1.65l1.16-10.81,11.42,1.34c.82.1,1.41.84,1.32,1.67-.1.82-.84,1.41-1.67,1.32l-8.41-.99-.84,7.8c-.08.77-.73,1.34-1.49,1.34Z"/>
    <path class="cls-8" d="M50.78,65.86c-4.73,0-7.2-4.04-7.86-6.25l2.88-.85c.05.17,1.34,4.31,5.26,4.09,3.92-.2,4.46-3.08,4.48-3.21.02-.1.21-1.12-.47-2.01-.68-.89-2.08-1.43-4.04-1.58-2.79-.22-4.83-1.14-6.08-2.73-1.4-1.79-1.25-3.76-1.18-4.26.13-1.87,1.78-5.27,7.17-5.27,3.22-.07,6.17,1.83,7.46,4.83l-2.76,1.19c-.8-1.87-2.65-3.04-4.67-3.02-4.04,0-4.2,2.39-4.21,2.5l-.02.18s-.15,1.11.6,2.04c.7.87,2.06,1.41,3.92,1.56,2.92.22,5.03,1.17,6.25,2.82,1.46,1.97,1.03,4.1.98,4.34-.3,1.78-2.23,5.36-7.27,5.62-.15,0-.29.01-.44.01Z"/>
    <rect class="cls-8" x="49.42" y="41.81" width="3" height="26.55"/>
  </g>
  <text class="cls-9" transform="translate(27.59 113.71)"><tspan class="cls-13"><tspan class="cls-6" x="0" y="0">P</tspan><tspan class="cls-17" x="8.15" y="0">e</tspan><tspan class="cls-5" x="16.92" y="0">r</tspan><tspan class="cls-15" x="22.48" y="0">d</tspan><tspan x="32.28" y="0">a </tspan><tspan class="cls-10" x="45.7" y="0">o</tspan><tspan class="cls-12" x="54.3" y="0">u </tspan><tspan class="cls-33" x="66.74" y="0">pa</tspan><tspan class="cls-17" x="85.91" y="0">g</tspan><tspan x="95.54" y="0">a</tspan><tspan class="cls-22" x="105.12" y="0">m</tspan><tspan class="cls-17" x="119.18" y="0">e</tspan><tspan x="127.94" y="0">n</tspan><tspan class="cls-32" x="136.87" y="0">t</tspan><tspan x="142.42" y="0">o </tspan><tspan class="cls-30" x="155.22" y="0">d</tspan><tspan x="165.02" y="0">e </tspan><tspan class="cls-23" x="177.82" y="0">a</tspan><tspan x="187.44" y="0">l</tspan><tspan class="cls-15" x="191.31" y="0">u</tspan><tspan class="cls-16" x="199.8" y="0">g</tspan><tspan class="cls-30" x="209.36" y="0">u</tspan><tspan class="cls-27" x="217.85" y="0">e</tspan><tspan x="226.5" y="0">l</tspan></tspan><tspan class="cls-35"><tspan class="cls-24" x="0" y="38.4">C</tspan><tspan class="cls-2" x="10.78" y="38.4">o</tspan><tspan class="cls-22" x="19.61" y="38.4">b</tspan><tspan class="cls-1" x="29.07" y="38.4">e</tspan><tspan x="37.93" y="38.4">rtu</tspan><tspan class="cls-26" x="57.42" y="38.4">r</tspan><tspan x="62.61" y="38.4">a </tspan><tspan class="cls-22" x="75.74" y="38.4">a</tspan><tspan x="84.88" y="38.4">d</tspan><tspan class="cls-34" x="94.5" y="38.4">i</tspan><tspan class="cls-2" x="97.46" y="38.4">c</tspan><tspan class="cls-34" x="105.48" y="38.4">io</tspan><tspan class="cls-33" x="117.32" y="38.4">n</tspan><tspan class="cls-14" x="125.73" y="38.4">a</tspan><tspan x="135.13" y="38.4">l, </tspan><tspan class="cls-1" x="145.23" y="38.4">g</tspan><tspan x="154.55" y="38.4">a</tspan><tspan class="cls-21" x="163.85" y="38.4">r</tspan><tspan x="169.03" y="38.4">an</tspan><tspan class="cls-25" x="186.9" y="38.4">t</tspan><tspan x="192.21" y="38.4">e o </tspan><tspan class="cls-18" x="217.78" y="38.4">v</tspan><tspan class="cls-37" x="225.58" y="38.4">a</tspan><tspan class="cls-7" x="234.98" y="38.4">l</tspan><tspan class="cls-1" x="237.96" y="38.4">o</tspan><tspan x="246.84" y="38.4">r </tspan><tspan class="cls-7" x="256.4" y="38.4">d</tspan><tspan x="265.97" y="38.4">o </tspan></tspan><tspan class="cls-35"><tspan class="cls-37" x="0" y="57.6">a</tspan><tspan x="9.4" y="57.6">l</tspan><tspan class="cls-7" x="12.44" y="57.6">u</tspan><tspan class="cls-31" x="20.64" y="57.6">g</tspan><tspan class="cls-7" x="29.94" y="57.6">u</tspan><tspan class="cls-2" x="38.14" y="57.6">e</tspan><tspan x="46.94" y="57.6">l </tspan><tspan class="cls-22" x="53.82" y="57.6">m</tspan><tspan class="cls-34" x="67.87" y="57.6">e</tspan><tspan x="76.73" y="57.6">n</tspan><tspan class="cls-11" x="85.3" y="57.6">s</tspan><tspan class="cls-14" x="92.12" y="57.6">a</tspan><tspan x="101.52" y="57.6">l </tspan><tspan class="cls-33" x="108.4" y="57.6">a</tspan><tspan x="117.54" y="57.6">o </tspan><tspan class="cls-1" x="130.33" y="57.6">p</tspan><tspan class="cls-21" x="139.87" y="57.6">r</tspan><tspan class="cls-34" x="145.06" y="57.6">op</tspan><tspan class="cls-4" x="163.47" y="57.6">r</tspan><tspan class="cls-1" x="169.09" y="57.6">i</tspan><tspan class="cls-25" x="172.05" y="57.6">et</tspan><tspan x="186.07" y="57.6">á</tspan><tspan class="cls-4" x="195.37" y="57.6">r</tspan><tspan class="cls-1" x="200.98" y="57.6">i</tspan><tspan x="203.94" y="57.6">o </tspan><tspan class="cls-7" x="216.74" y="57.6">d</tspan><tspan x="226.31" y="57.6">o </tspan></tspan><tspan class="cls-35"><tspan class="cls-19" x="0" y="76.8">i</tspan><tspan class="cls-22" x="3.02" y="76.8">m</tspan><tspan class="cls-18" x="17.07" y="76.8">óv</tspan><tspan class="cls-2" x="33.41" y="76.8">e</tspan><tspan x="42.21" y="76.8">l </tspan><tspan class="cls-22" x="49.09" y="76.8">o</tspan><tspan x="57.89" y="76.8">u </tspan><tspan class="cls-33" x="69.98" y="76.8">a</tspan><tspan x="79.12" y="76.8">o </tspan><tspan class="cls-19" x="91.92" y="76.8">i</tspan><tspan class="cls-22" x="94.94" y="76.8">n</tspan><tspan class="cls-31" x="103.35" y="76.8">q</tspan><tspan x="112.86" y="76.8">u</tspan><tspan class="cls-29" x="121.12" y="76.8">i</tspan><tspan x="124.22" y="76.8">l</tspan><tspan class="cls-3" x="127.26" y="76.8">i</tspan><tspan class="cls-22" x="130.27" y="76.8">no</tspan><tspan x="147.49" y="76.8">, </tspan><tspan class="cls-33" x="154.54" y="76.8">n</tspan><tspan x="162.96" y="76.8">a </tspan></tspan><tspan class="cls-35"><tspan class="cls-19" x="0" y="96">i</tspan><tspan x="3.02" y="96">m</tspan><tspan class="cls-22" x="17.23" y="96">p</tspan><tspan class="cls-11" x="26.69" y="96">o</tspan><tspan x="35.59" y="96">s</tspan><tspan class="cls-34" x="42.46" y="96">s</tspan><tspan class="cls-36" x="49.26" y="96">i</tspan><tspan class="cls-33" x="52.35" y="96">b</tspan><tspan class="cls-29" x="61.82" y="96">i</tspan><tspan x="64.91" y="96">l</tspan><tspan class="cls-34" x="67.95" y="96">i</tspan><tspan class="cls-11" x="70.91" y="96">d</tspan><tspan class="cls-22" x="80.48" y="96">a</tspan><tspan class="cls-11" x="89.62" y="96">d</tspan><tspan x="99.19" y="96">e </tspan><tspan class="cls-11" x="111.96" y="96">d</tspan><tspan x="121.53" y="96">o </tspan><tspan class="cls-28" x="134.33" y="96">i</tspan><tspan class="cls-33" x="137.34" y="96">m</tspan><tspan class="cls-18" x="151.4" y="96">óv</tspan><tspan class="cls-20" x="167.74" y="96">e</tspan><tspan x="176.54" y="96">l </tspan><tspan class="cls-11" x="183.42" y="96">s</tspan><tspan class="cls-34" x="190.23" y="96">e</tspan><tspan x="199.09" y="96">r </tspan><tspan class="cls-33" x="208.65" y="96">h</tspan><tspan class="cls-37" x="217.06" y="96">a</tspan><tspan class="cls-22" x="226.46" y="96">b</tspan><tspan x="235.93" y="96">i</tspan><tspan class="cls-25" x="238.97" y="96">t</tspan><tspan class="cls-22" x="244.27" y="96">a</tspan><tspan class="cls-11" x="253.41" y="96">d</tspan><tspan x="262.98" y="96">o </tspan></tspan><tspan class="cls-35"><tspan class="cls-1" x="0" y="115.2">e</tspan><tspan x="8.86" y="115.2">m </tspan><tspan class="cls-7" x="26.91" y="115.2">d</tspan><tspan class="cls-33" x="36.48" y="115.2">e</tspan><tspan class="cls-4" x="45.25" y="115.2">c</tspan><tspan class="cls-34" x="53.3" y="115.2">or</tspan><tspan class="cls-21" x="67.82" y="115.2">r</tspan><tspan class="cls-1" x="73.01" y="115.2">ê</tspan><tspan class="cls-33" x="81.86" y="115.2">n</tspan><tspan class="cls-20" x="90.28" y="115.2">c</tspan><tspan class="cls-1" x="98.3" y="115.2">i</tspan><tspan x="101.25" y="115.2">a </tspan><tspan class="cls-7" x="114.39" y="115.2">d</tspan><tspan x="123.96" y="115.2">e </tspan><tspan class="cls-19" x="136.73" y="115.2">i</tspan><tspan class="cls-22" x="139.75" y="115.2">n</tspan><tspan class="cls-31" x="148.17" y="115.2">c</tspan><tspan class="cls-34" x="156.21" y="115.2">ê</tspan><tspan class="cls-33" x="165.07" y="115.2">n</tspan><tspan x="173.49" y="115.2">d</tspan><tspan class="cls-1" x="183.11" y="115.2">i</tspan><tspan class="cls-22" x="186.07" y="115.2">o</tspan><tspan x="194.87" y="115.2">, </tspan><tspan class="cls-18" x="201.93" y="115.2">v</tspan><tspan class="cls-34" x="209.73" y="115.2">e</tspan><tspan class="cls-33" x="218.58" y="115.2">n</tspan><tspan class="cls-7" x="227" y="115.2">d</tspan><tspan class="cls-33" x="236.57" y="115.2">a</tspan><tspan class="cls-18" x="245.7" y="115.2">v</tspan><tspan class="cls-37" x="253.5" y="115.2">a</tspan><tspan x="262.9" y="115.2">l </tspan></tspan><tspan class="cls-35"><tspan class="cls-33" x="0" y="134.4">o</tspan><tspan x="8.8" y="134.4">u t</tspan><tspan class="cls-21" x="26.42" y="134.4">r</tspan><tspan class="cls-34" x="31.6" y="134.4">e</tspan><tspan class="cls-33" x="40.46" y="134.4">m</tspan><tspan class="cls-1" x="54.51" y="134.4">o</tspan><tspan x="63.39" y="134.4">r </tspan><tspan class="cls-7" x="72.95" y="134.4">d</tspan><tspan x="82.52" y="134.4">e </tspan><tspan class="cls-25" x="95.29" y="134.4">t</tspan><tspan class="cls-1" x="100.6" y="134.4">er</tspan><tspan class="cls-21" x="115.09" y="134.4">r</tspan><tspan x="120.28" y="134.4">a.</tspan></tspan></text>
</svg>