<?xml version="1.0" encoding="UTF-8"?>
<svg id="Layer_1" data-name="Layer 1" xmlns="http://www.w3.org/2000/svg" viewBox="0 0 366.28 305.38">
  <defs>
    <style>
      .cls-1 {
        letter-spacing: 0em;
      }

      .cls-2 {
        letter-spacing: 0em;
      }

      .cls-3 {
        letter-spacing: 0em;
      }

      .cls-4 {
        fill: #fff;
      }

      .cls-5 {
        letter-spacing: 0em;
      }

      .cls-6 {
        letter-spacing: -.03em;
      }

      .cls-7 {
        letter-spacing: 0em;
      }

      .cls-8 {
        letter-spacing: 0em;
      }

      .cls-9 {
        letter-spacing: -.01em;
      }

      .cls-10 {
        letter-spacing: 0em;
      }

      .cls-11 {
        letter-spacing: -.02em;
      }

      .cls-12 {
        letter-spacing: -.01em;
      }

      .cls-13 {
        letter-spacing: -.02em;
      }

      .cls-14 {
        font-family: UrbanistRoman-Bold, Urbanist;
        font-size: 19px;
        font-variation-settings: 'wght' 700;
        font-weight: 700;
      }

      .cls-15 {
        letter-spacing: 0em;
      }

      .cls-16 {
        letter-spacing: 0em;
      }

      .cls-17 {
        letter-spacing: 0em;
      }

      .cls-18 {
        letter-spacing: -.01em;
      }

      .cls-19 {
        letter-spacing: -.04em;
      }

      .cls-20 {
        letter-spacing: -.03em;
      }

      .cls-21 {
        letter-spacing: 0em;
      }

      .cls-22 {
        letter-spacing: -.02em;
      }

      .cls-23 {
        letter-spacing: -.01em;
      }

      .cls-24 {
        letter-spacing: 0em;
      }

      .cls-25 {
        letter-spacing: 0em;
      }

      .cls-26 {
        letter-spacing: -.01em;
      }

      .cls-27 {
        letter-spacing: 0em;
      }

      .cls-28 {
        letter-spacing: 0em;
      }

      .cls-29 {
        font-family: Urbanist-Regular, Urbanist;
        font-size: 18px;
        font-variation-settings: 'wght' 400;
      }

      .cls-30 {
        letter-spacing: -.01em;
      }

      .cls-31 {
        fill: #130044;
      }
    </style>
  </defs>
  <rect class="cls-31" x="0" y="0" width="366.28" height="305.38" rx="29.13" ry="29.13"/>
  <path class="cls-4" d="M58.05,78.23h-11.72c-1.84,0-3.34-1.5-3.34-3.34v-12.06h-12.06c-1.84,0-3.34-1.5-3.34-3.34v-11.72c0-1.84,1.5-3.34,3.34-3.34h12.06v-12.06c0-1.84,1.5-3.34,3.34-3.34h11.72c1.84,0,3.34,1.5,3.34,3.34v12.06h12.06c1.84,0,3.34,1.5,3.34,3.34v11.72c0,1.84-1.5,3.34-3.34,3.34h-12.06v12.06c0,1.84-1.5,3.34-3.34,3.34ZM30.93,47.44c-.19,0-.34.15-.34.34v11.72c0,.19.15.34.34.34h13.56c.83,0,1.5.67,1.5,1.5v13.56c0,.19.15.34.34.34h11.72c.19,0,.34-.15.34-.34v-13.56c0-.83.67-1.5,1.5-1.5h13.56c.19,0,.34-.15.34-.34v-11.72c0-.19-.15-.34-.34-.34h-13.56c-.83,0-1.5-.67-1.5-1.5v-13.56c0-.19-.15-.34-.34-.34h-11.72c-.19,0-.34.15-.34.34v13.56c0,.83-.67,1.5-1.5,1.5h-13.56Z"/>
  <text class="cls-4" transform="translate(27.59 115.96)"><tspan class="cls-14"><tspan class="cls-22" x="0" y="0">D</tspan><tspan class="cls-10" x="12.47" y="0">e</tspan><tspan x="22.96" y="0">s</tspan><tspan class="cls-8" x="31.22" y="0">p</tspan><tspan class="cls-16" x="42.79" y="0">es</tspan><tspan x="61.39" y="0">as </tspan><tspan class="cls-8" x="85.58" y="0">mé</tspan><tspan x="112.72" y="0">d</tspan><tspan class="cls-30" x="124.5" y="0">i</tspan><tspan class="cls-22" x="128.88" y="0">c</tspan><tspan x="138.27" y="0">a</tspan><tspan class="cls-21" x="149.65" y="0">s</tspan><tspan x="157.83" y="0">, </tspan></tspan><tspan class="cls-14"><tspan class="cls-8" x="0" y="22.8">o</tspan><tspan class="cls-10" x="10.45" y="22.8">d</tspan><tspan class="cls-9" x="22.09" y="22.8">o</tspan><tspan x="32.51" y="22.8">n</tspan><tspan class="cls-18" x="43.11" y="22.8">t</tspan><tspan class="cls-11" x="49.7" y="22.8">o</tspan><tspan class="cls-16" x="59.98" y="22.8">l</tspan><tspan class="cls-8" x="64.44" y="22.8">ó</tspan><tspan class="cls-30" x="74.89" y="22.8">gi</tspan><tspan class="cls-22" x="90.7" y="22.8">c</tspan><tspan x="100.09" y="22.8">as e </tspan><tspan class="cls-24" x="139.48" y="22.8">h</tspan><tspan class="cls-16" x="149.89" y="22.8">o</tspan><tspan x="160.39" y="22.8">s</tspan><tspan class="cls-13" x="168.65" y="22.8">p</tspan><tspan x="179.97" y="22.8">i</tspan><tspan class="cls-18" x="184.57" y="22.8">t</tspan><tspan class="cls-17" x="191.16" y="22.8">a</tspan><tspan class="cls-16" x="202.59" y="22.8">l</tspan><tspan x="207.04" y="22.8">a</tspan><tspan class="cls-19" x="218.42" y="22.8">r</tspan><tspan class="cls-10" x="225.03" y="22.8">e</tspan><tspan x="235.51" y="22.8">s</tspan></tspan><tspan class="cls-29"><tspan class="cls-20" x="0" y="66">C</tspan><tspan class="cls-28" x="12.13" y="66">o</tspan><tspan class="cls-3" x="22.06" y="66">b</tspan><tspan class="cls-6" x="32.8" y="66">r</tspan><tspan x="38.63" y="66">e as </tspan><tspan class="cls-25" x="75.51" y="66">de</tspan><tspan x="96.26" y="66">s</tspan><tspan class="cls-26" x="103.99" y="66">p</tspan><tspan class="cls-25" x="114.63" y="66">es</tspan><tspan x="132.29" y="66">as </tspan><tspan class="cls-26" x="154.8" y="66">p</tspan><tspan x="165.44" y="66">a</tspan><tspan class="cls-6" x="175.9" y="66">r</tspan><tspan x="181.73" y="66">a </tspan></tspan><tspan class="cls-29"><tspan x="0" y="87.6">a</tspan><tspan class="cls-23" x="10.46" y="87.6">t</tspan><tspan class="cls-3" x="16.43" y="87.6">e</tspan><tspan class="cls-26" x="26.39" y="87.6">n</tspan><tspan x="35.86" y="87.6">d</tspan><tspan class="cls-5" x="46.68" y="87.6">i</tspan><tspan class="cls-15" x="50.08" y="87.6">m</tspan><tspan class="cls-3" x="65.89" y="87.6">e</tspan><tspan x="75.85" y="87.6">n</tspan><tspan class="cls-23" x="85.5" y="87.6">t</tspan><tspan x="91.47" y="87.6">o </tspan><tspan class="cls-26" x="105.87" y="87.6">mé</tspan><tspan x="131.55" y="87.6">d</tspan><tspan class="cls-3" x="142.38" y="87.6">i</tspan><tspan class="cls-27" x="145.71" y="87.6">c</tspan><tspan class="cls-26" x="154.76" y="87.6">o</tspan><tspan x="164.66" y="87.6">, </tspan><tspan class="cls-15" x="172.6" y="87.6">h</tspan><tspan class="cls-25" x="182.07" y="87.6">o</tspan><tspan x="192.09" y="87.6">s</tspan><tspan class="cls-15" x="199.82" y="87.6">p</tspan><tspan x="210.46" y="87.6">i</tspan><tspan class="cls-12" x="213.88" y="87.6">t</tspan><tspan class="cls-7" x="219.84" y="87.6">a</tspan><tspan class="cls-2" x="230.42" y="87.6">l</tspan><tspan x="233.77" y="87.6">ar e </tspan></tspan><tspan class="cls-29"><tspan class="cls-15" x="0" y="109.2">o</tspan><tspan class="cls-25" x="9.9" y="109.2">d</tspan><tspan class="cls-3" x="20.66" y="109.2">o</tspan><tspan x="30.65" y="109.2">n</tspan><tspan class="cls-23" x="40.3" y="109.2">t</tspan><tspan class="cls-1" x="46.27" y="109.2">o</tspan><tspan class="cls-25" x="56.2" y="109.2">l</tspan><tspan class="cls-15" x="59.55" y="109.2">ó</tspan><tspan class="cls-3" x="69.45" y="109.2">gi</tspan><tspan class="cls-27" x="83.27" y="109.2">c</tspan><tspan x="92.32" y="109.2">o </tspan><tspan class="cls-3" x="106.72" y="109.2">e</tspan><tspan x="116.69" y="109.2">m </tspan><tspan class="cls-27" x="137" y="109.2">c</tspan><tspan x="146.05" y="109.2">a</tspan><tspan class="cls-25" x="156.51" y="109.2">s</tspan><tspan x="164.18" y="109.2">o </tspan><tspan class="cls-25" x="178.58" y="109.2">d</tspan><tspan x="189.34" y="109.2">e </tspan></tspan><tspan class="cls-29"><tspan class="cls-15" x="0" y="130.8">ne</tspan><tspan class="cls-27" x="19.34" y="130.8">c</tspan><tspan class="cls-25" x="28.4" y="130.8">e</tspan><tspan x="38.38" y="130.8">s</tspan><tspan class="cls-3" x="46.12" y="130.8">si</tspan><tspan class="cls-2" x="57.09" y="130.8">d</tspan><tspan class="cls-26" x="67.85" y="130.8">a</tspan><tspan class="cls-25" x="78.13" y="130.8">d</tspan><tspan class="cls-15" x="88.89" y="130.8">e</tspan><tspan x="98.77" y="130.8">.</tspan></tspan></text>
</svg>