<?xml version="1.0" encoding="UTF-8"?>
<svg id="Layer_1" data-name="Layer 1" xmlns="http://www.w3.org/2000/svg" viewBox="0 0 366.28 305.38">
  <defs>
    <style>
      .cls-1 {
        letter-spacing: -.01em;
      }

      .cls-2 {
        letter-spacing: 0em;
      }

      .cls-3 {
        letter-spacing: 0em;
      }

      .cls-4 {
        letter-spacing: 0em;
      }

      .cls-5 {
        fill: #fff;
      }

      .cls-6 {
        letter-spacing: 0em;
      }

      .cls-7 {
        letter-spacing: 0em;
      }

      .cls-8 {
        letter-spacing: -.03em;
      }

      .cls-9 {
        letter-spacing: 0em;
      }

      .cls-10 {
        font-family: UrbanistRoman-Bold, Urbanist;
        font-size: 23.99px;
        font-variation-settings: 'wght' 700;
        font-weight: 700;
      }

      .cls-11 {
        letter-spacing: -.03em;
      }

      .cls-12 {
        letter-spacing: 0em;
      }

      .cls-13 {
        letter-spacing: -.03em;
      }

      .cls-14 {
        letter-spacing: -.02em;
      }

      .cls-15 {
        letter-spacing: -.02em;
      }

      .cls-16 {
        letter-spacing: -.01em;
      }

      .cls-17 {
        letter-spacing: 0em;
      }

      .cls-18 {
        letter-spacing: -.01em;
      }

      .cls-19 {
        letter-spacing: 0em;
      }

      .cls-20 {
        letter-spacing: -.04em;
      }

      .cls-21 {
        letter-spacing: 0em;
      }

      .cls-22 {
        letter-spacing: -.03em;
      }

      .cls-23 {
        letter-spacing: -.01em;
      }

      .cls-24 {
        letter-spacing: 0em;
      }

      .cls-25 {
        letter-spacing: -.01em;
      }

      .cls-26 {
        letter-spacing: 0em;
      }

      .cls-27 {
        letter-spacing: 0em;
      }

      .cls-28 {
        letter-spacing: -.02em;
      }

      .cls-29 {
        font-family: Urbanist-Regular, Urbanist;
        font-size: 18px;
        font-variation-settings: 'wght' 400;
      }

      .cls-30 {
        fill: #130044;
      }
    </style>
  </defs>
  <rect class="cls-30" x="0" y="0" width="366.28" height="305.38" rx="29.13" ry="29.13"/>
  <path class="cls-5" d="M44.42,48.25c2.36-1.59,3.91-4.29,3.91-7.35,0-4.89-3.97-8.86-8.86-8.86s-8.86,3.97-8.86,8.86c0,3.06,1.55,5.76,3.91,7.35-4.09,1.88-6.93,6.01-6.93,10.8v16.36c3.57,1.8,7.61,2.82,11.88,2.82s8.31-1.02,11.88-2.82v-16.36c0-4.79-2.84-8.92-6.93-10.8ZM33.25,40.9c0-3.44,2.79-6.22,6.22-6.22s6.22,2.79,6.22,6.22-2.79,6.22-6.22,6.22-6.22-2.79-6.22-6.22ZM35.09,59.16l3.57,11.42h-3.57v-11.42ZM32.39,53.11v10.15h-2.16v-4.21c0-2.26.81-4.33,2.16-5.94ZM32.39,65.95v4.63h-2.1v-4.63h2.1ZM48.71,73.73c-2.84,1.2-5.96,1.86-9.24,1.86s-6.4-.66-9.24-1.86v-.46h10.68c2.75,0,4.99-2.24,4.99-4.99v-.03c0-2.75-2.24-4.99-4.99-4.99h-1.72l-3.9-12.45c1.25-.64,2.67-1,4.18-1,5.1,0,9.24,4.14,9.24,9.24v14.68ZM40.03,65.95h.88c1.27,0,2.3,1.03,2.3,2.3v.03c0,1.08-.74,1.98-1.75,2.23l-1.43-4.56Z"/>
  <text class="cls-5" transform="translate(27.59 119.7)"><tspan class="cls-10"><tspan class="cls-14" x="0" y="0">D</tspan><tspan x="15.75" y="0">a</tspan><tspan class="cls-17" x="30.11" y="0">n</tspan><tspan class="cls-2" x="43.26" y="0">o</tspan><tspan x="56.51" y="0">s a </tspan><tspan class="cls-18" x="92.81" y="0">t</tspan><tspan class="cls-1" x="101.14" y="0">e</tspan><tspan class="cls-20" x="114.28" y="0">r</tspan><tspan class="cls-28" x="122.62" y="0">c</tspan><tspan class="cls-15" x="134.48" y="0">e</tspan><tspan class="cls-6" x="147.35" y="0">i</tspan><tspan class="cls-20" x="153.06" y="0">r</tspan><tspan class="cls-2" x="161.39" y="0">o</tspan><tspan x="174.65" y="0">s</tspan></tspan><tspan class="cls-29"><tspan class="cls-22" x="0" y="43.2">C</tspan><tspan class="cls-27" x="12.13" y="43.2">o</tspan><tspan class="cls-4" x="22.06" y="43.2">b</tspan><tspan class="cls-8" x="32.8" y="43.2">r</tspan><tspan x="38.63" y="43.2">e </tspan><tspan class="cls-24" x="53" y="43.2">d</tspan><tspan x="63.76" y="43.2">a</tspan><tspan class="cls-21" x="74.22" y="43.2">n</tspan><tspan class="cls-24" x="83.69" y="43.2">o</tspan><tspan x="93.71" y="43.2">s </tspan><tspan class="cls-21" x="105.76" y="43.2">m</tspan><tspan x="121.57" y="43.2">a</tspan><tspan class="cls-23" x="132.03" y="43.2">t</tspan><tspan class="cls-4" x="138" y="43.2">e</tspan><tspan class="cls-26" x="147.96" y="43.2">r</tspan><tspan class="cls-4" x="154.28" y="43.2">i</tspan><tspan x="157.61" y="43.2">a</tspan><tspan class="cls-24" x="168.07" y="43.2">i</tspan><tspan x="171.42" y="43.2">s </tspan><tspan class="cls-25" x="183.47" y="43.2">o</tspan><tspan x="193.37" y="43.2">u </tspan></tspan><tspan class="cls-29"><tspan class="cls-26" x="0" y="64.8">c</tspan><tspan class="cls-4" x="9.05" y="64.8">o</tspan><tspan class="cls-19" x="19.04" y="64.8">r</tspan><tspan class="cls-21" x="25.66" y="64.8">p</tspan><tspan class="cls-4" x="36.3" y="64.8">o</tspan><tspan class="cls-8" x="46.29" y="64.8">r</tspan><tspan x="52.12" y="64.8">a</tspan><tspan class="cls-3" x="62.58" y="64.8">i</tspan><tspan x="65.94" y="64.8">s a </tspan><tspan class="cls-16" x="92.76" y="64.8">t</tspan><tspan class="cls-4" x="98.73" y="64.8">e</tspan><tspan class="cls-13" x="108.69" y="64.8">r</tspan><tspan class="cls-26" x="114.53" y="64.8">c</tspan><tspan class="cls-25" x="123.58" y="64.8">e</tspan><tspan class="cls-7" x="133.45" y="64.8">i</tspan><tspan class="cls-8" x="136.85" y="64.8">r</tspan><tspan class="cls-3" x="142.68" y="64.8">o</tspan><tspan class="cls-12" x="152.7" y="64.8">s</tspan><tspan x="160.4" y="64.8">, </tspan><tspan class="cls-26" x="168.34" y="64.8">c</tspan><tspan class="cls-4" x="177.39" y="64.8">o</tspan><tspan class="cls-21" x="187.38" y="64.8">m</tspan><tspan x="203.19" y="64.8">o </tspan></tspan><tspan class="cls-29"><tspan class="cls-11" x="0" y="86.4">v</tspan><tspan x="8.78" y="86.4">a</tspan><tspan class="cls-4" x="19.23" y="86.4">z</tspan><tspan x="28.27" y="86.4">a</tspan><tspan class="cls-25" x="38.73" y="86.4">m</tspan><tspan class="cls-4" x="54.54" y="86.4">e</tspan><tspan x="64.5" y="86.4">n</tspan><tspan class="cls-23" x="74.15" y="86.4">t</tspan><tspan x="80.12" y="86.4">o </tspan><tspan class="cls-24" x="94.52" y="86.4">d</tspan><tspan x="105.28" y="86.4">e s</tspan><tspan class="cls-24" x="127.39" y="86.4">u</tspan><tspan x="136.61" y="86.4">a </tspan><tspan class="cls-26" x="151.39" y="86.4">c</tspan><tspan x="160.44" y="86.4">a</tspan><tspan class="cls-24" x="170.9" y="86.4">s</tspan><tspan x="178.57" y="86.4">a </tspan><tspan class="cls-26" x="193.35" y="86.4">q</tspan><tspan class="cls-3" x="204.05" y="86.4">u</tspan><tspan x="213.27" y="86.4">e a</tspan><tspan class="cls-24" x="238.1" y="86.4">t</tspan><tspan class="cls-7" x="244.25" y="86.4">i</tspan><tspan class="cls-9" x="247.64" y="86.4">n</tspan><tspan class="cls-4" x="257.41" y="86.4">j</tspan><tspan x="261.29" y="86.4">a </tspan></tspan><tspan class="cls-29"><tspan x="0" y="108">o </tspan><tspan class="cls-26" x="14.4" y="108">v</tspan><tspan x="23.54" y="108">iz</tspan><tspan class="cls-7" x="36.08" y="108">i</tspan><tspan class="cls-9" x="39.47" y="108">n</tspan><tspan class="cls-25" x="49.24" y="108">ho</tspan><tspan x="68.61" y="108">, </tspan><tspan class="cls-21" x="76.54" y="108">o</tspan><tspan x="86.44" y="108">u </tspan><tspan class="cls-24" x="100.05" y="108">s</tspan><tspan class="cls-25" x="107.72" y="108">e</tspan><tspan x="117.59" y="108">u </tspan><tspan class="cls-26" x="131.2" y="108">c</tspan><tspan class="cls-21" x="140.25" y="108">a</tspan><tspan class="cls-26" x="150.53" y="108">c</tspan><tspan class="cls-25" x="159.59" y="108">h</tspan><tspan class="cls-4" x="169.06" y="108">or</tspan><tspan class="cls-13" x="185.39" y="108">r</tspan><tspan x="191.22" y="108">o </tspan><tspan class="cls-25" x="205.62" y="108">m</tspan><tspan class="cls-4" x="221.44" y="108">o</tspan><tspan class="cls-13" x="231.43" y="108">r</tspan><tspan class="cls-24" x="237.26" y="108">d</tspan><tspan class="cls-4" x="248.02" y="108">e</tspan><tspan x="257.98" y="108">r </tspan></tspan><tspan class="cls-29"><tspan class="cls-9" x="0" y="129.6">a</tspan><tspan class="cls-24" x="10.57" y="129.6">l</tspan><tspan class="cls-26" x="13.93" y="129.6">g</tspan><tspan class="cls-24" x="24.39" y="129.6">u</tspan><tspan class="cls-4" x="33.61" y="129.6">é</tspan><tspan x="43.58" y="129.6">m.</tspan></tspan></text>
</svg>