<?xml version="1.0" encoding="UTF-8"?>
<svg id="Layer_1" data-name="Layer 1" xmlns="http://www.w3.org/2000/svg" viewBox="0 0 366.28 305.38">
  <defs>
    <style>
      .cls-1 {
        letter-spacing: -.04em;
      }

      .cls-2 {
        letter-spacing: 0em;
      }

      .cls-3 {
        letter-spacing: 0em;
      }

      .cls-4 {
        letter-spacing: 0em;
      }

      .cls-5 {
        letter-spacing: .01em;
      }

      .cls-6 {
        letter-spacing: -.02em;
      }

      .cls-7 {
        letter-spacing: 0em;
      }

      .cls-8, .cls-9 {
        fill: #fff;
      }

      .cls-10 {
        letter-spacing: 0em;
      }

      .cls-11 {
        letter-spacing: -.01em;
      }

      .cls-12 {
        letter-spacing: -.02em;
      }

      .cls-13 {
        font-family: UrbanistRoman-Bold, Urbanist;
        font-variation-settings: 'wght' 700;
        font-weight: 700;
      }

      .cls-14 {
        letter-spacing: 0em;
      }

      .cls-15 {
        letter-spacing: 0em;
      }

      .cls-16 {
        letter-spacing: -.01em;
      }

      .cls-17 {
        letter-spacing: 0em;
      }

      .cls-18 {
        letter-spacing: -.03em;
      }

      .cls-19 {
        letter-spacing: 0em;
      }

      .cls-20 {
        letter-spacing: 0em;
      }

      .cls-21 {
        letter-spacing: -.03em;
      }

      .cls-22 {
        letter-spacing: 0em;
      }

      .cls-23 {
        letter-spacing: 0em;
      }

      .cls-9 {
        font-size: 16px;
      }

      .cls-24 {
        letter-spacing: 0em;
      }

      .cls-25 {
        letter-spacing: -.02em;
      }

      .cls-26 {
        letter-spacing: -.03em;
      }

      .cls-27 {
        letter-spacing: -.01em;
      }

      .cls-28 {
        letter-spacing: -.03em;
      }

      .cls-29 {
        letter-spacing: 0em;
      }

      .cls-30 {
        letter-spacing: 0em;
      }

      .cls-31 {
        letter-spacing: 0em;
      }

      .cls-32 {
        letter-spacing: 0em;
      }

      .cls-33 {
        letter-spacing: 0em;
      }

      .cls-34 {
        letter-spacing: -.01em;
      }

      .cls-35 {
        letter-spacing: 0em;
      }

      .cls-36 {
        letter-spacing: -.04em;
      }

      .cls-37 {
        font-family: Urbanist-Regular, Urbanist;
        font-variation-settings: 'wght' 400;
      }

      .cls-38 {
        letter-spacing: 0em;
      }

      .cls-39 {
        fill: #130044;
      }
    </style>
  </defs>
  <rect class="cls-39" x="0" y="0" width="366.28" height="305.38" rx="29.13" ry="29.13"/>
  <g>
    <path class="cls-8" d="M40.12,36.63c-2.75.76-5.48,1.58-8.19,2.47-.5.16-.87.6-.95,1.13-1.6,12,2.1,20.76,6.5,26.53,1.87,2.47,4.09,4.64,6.6,6.45,1,.7,1.88,1.21,2.58,1.54.35.16.63.27.85.34.09.03.19.06.29.07.1-.02.19-.04.29-.07.22-.07.5-.18.85-.34.69-.33,1.58-.84,2.58-1.54,2.51-1.81,4.74-3.98,6.6-6.45,4.41-5.77,8.1-14.52,6.5-26.53-.07-.53-.44-.96-.95-1.13-1.88-.61-5.05-1.62-8.19-2.47-3.2-.87-6.15-1.51-7.69-1.51s-4.48.64-7.69,1.51h0ZM39.35,33.66c3.13-.85,6.46-1.62,8.45-1.62s5.32.77,8.45,1.62c3.2.87,6.44,1.89,8.33,2.51,1.62.54,2.79,1.95,3.01,3.64,1.72,12.93-2.27,22.5-7.12,28.84-2.05,2.71-4.5,5.1-7.27,7.08-.96.69-1.97,1.29-3.03,1.8-.81.38-1.68.69-2.39.69s-1.58-.31-2.39-.69c-1.06-.51-2.07-1.12-3.03-1.8-2.76-1.98-5.21-4.37-7.27-7.08-4.84-6.34-8.84-15.92-7.12-28.84.22-1.69,1.39-3.11,3.01-3.64,2.76-.9,5.54-1.74,8.33-2.51Z"/>
    <path class="cls-8" d="M47.8,45.03c.8,0,1.44.65,1.44,1.44v4.33h4.33c.8,0,1.44.65,1.44,1.44s-.65,1.44-1.44,1.44h-4.33v4.33c0,.8-.65,1.44-1.44,1.44s-1.44-.65-1.44-1.44v-4.33h-4.33c-.8,0-1.44-.65-1.44-1.44s.65-1.44,1.44-1.44h4.33v-4.33c0-.8.65-1.44,1.44-1.44Z"/>
  </g>
  <text class="cls-9" transform="translate(27.59 113.71)"><tspan class="cls-13"><tspan class="cls-36" x="0" y="0">R</tspan><tspan class="cls-15" x="9.03" y="0">e</tspan><tspan x="17.86" y="0">s</tspan><tspan class="cls-22" x="24.82" y="0">p</tspan><tspan class="cls-11" x="34.56" y="0">o</tspan><tspan class="cls-17" x="43.34" y="0">n</tspan><tspan class="cls-31" x="52.26" y="0">s</tspan><tspan class="cls-24" x="59.1" y="0">a</tspan><tspan class="cls-12" x="68.72" y="0">b</tspan><tspan class="cls-33" x="78.27" y="0">i</tspan><tspan x="82.16" y="0">l</tspan><tspan class="cls-16" x="86.03" y="0">i</tspan><tspan class="cls-31" x="89.72" y="0">d</tspan><tspan class="cls-34" x="99.52" y="0">a</tspan><tspan class="cls-15" x="108.95" y="0">d</tspan><tspan x="118.75" y="0">e </tspan><tspan class="cls-25" x="131.54" y="0">c</tspan><tspan class="cls-6" x="139.39" y="0">iv</tspan><tspan class="cls-33" x="152.07" y="0">i</tspan><tspan x="155.96" y="0">l </tspan><tspan class="cls-15" x="163.67" y="0">d</tspan><tspan x="173.47" y="0">a</tspan><tspan class="cls-34" x="183.06" y="0">n</tspan><tspan class="cls-31" x="191.83" y="0">o</tspan><tspan x="200.67" y="0">s </tspan><tspan class="cls-22" x="211.46" y="0">m</tspan><tspan class="cls-16" x="225.51" y="0">o</tspan><tspan class="cls-1" x="234.29" y="0">r</tspan><tspan x="239.85" y="0">a</tspan><tspan class="cls-31" x="249.43" y="0">i</tspan><tspan x="253.19" y="0">s</tspan></tspan><tspan class="cls-37"><tspan class="cls-26" x="0" y="38.4">C</tspan><tspan class="cls-3" x="10.78" y="38.4">o</tspan><tspan class="cls-22" x="19.61" y="38.4">b</tspan><tspan class="cls-2" x="29.07" y="38.4">e</tspan><tspan x="37.93" y="38.4">rtu</tspan><tspan class="cls-28" x="57.42" y="38.4">r</tspan><tspan x="62.61" y="38.4">a </tspan><tspan class="cls-22" x="75.74" y="38.4">a</tspan><tspan x="84.88" y="38.4">d</tspan><tspan class="cls-35" x="94.5" y="38.4">i</tspan><tspan class="cls-3" x="97.46" y="38.4">c</tspan><tspan class="cls-35" x="105.48" y="38.4">io</tspan><tspan class="cls-34" x="117.32" y="38.4">n</tspan><tspan class="cls-14" x="125.73" y="38.4">a</tspan><tspan x="135.13" y="38.4">l, am</tspan><tspan class="cls-22" x="168.74" y="38.4">p</tspan><tspan x="178.2" y="38.4">a</tspan><tspan class="cls-28" x="187.49" y="38.4">r</tspan><tspan x="192.68" y="38.4">a </tspan><tspan class="cls-34" x="205.81" y="38.4">p</tspan><tspan class="cls-7" x="215.27" y="38.4">o</tspan><tspan x="224.17" y="38.4">s</tspan><tspan class="cls-2" x="231.05" y="38.4">s</tspan><tspan class="cls-4" x="237.84" y="38.4">í</tspan><tspan class="cls-18" x="240.77" y="38.4">v</tspan><tspan class="cls-34" x="248.57" y="38.4">e</tspan><tspan class="cls-7" x="257.35" y="38.4">i</tspan><tspan x="260.33" y="38.4">s </tspan></tspan><tspan class="cls-37"><tspan class="cls-2" x="0" y="57.6">p</tspan><tspan class="cls-21" x="9.54" y="57.6">r</tspan><tspan class="cls-22" x="14.72" y="57.6">o</tspan><tspan class="cls-32" x="23.52" y="57.6">c</tspan><tspan class="cls-10" x="31.57" y="57.6">e</tspan><tspan x="40.45" y="57.6">s</tspan><tspan class="cls-7" x="47.32" y="57.6">so</tspan><tspan x="63.04" y="57.6">s </tspan><tspan class="cls-34" x="73.75" y="57.6">p</tspan><tspan class="cls-2" x="83.21" y="57.6">o</tspan><tspan x="92.09" y="57.6">r </tspan><tspan class="cls-7" x="101.65" y="57.6">d</tspan><tspan x="111.22" y="57.6">a</tspan><tspan class="cls-34" x="120.51" y="57.6">n</tspan><tspan class="cls-7" x="128.93" y="57.6">o</tspan><tspan x="137.83" y="57.6">s </tspan><tspan class="cls-34" x="148.54" y="57.6">m</tspan><tspan class="cls-35" x="162.6" y="57.6">o</tspan><tspan class="cls-21" x="171.48" y="57.6">r</tspan><tspan x="176.67" y="57.6">a</tspan><tspan class="cls-10" x="185.96" y="57.6">i</tspan><tspan x="188.94" y="57.6">s </tspan><tspan class="cls-32" x="199.66" y="57.6">q</tspan><tspan class="cls-7" x="209.17" y="57.6">u</tspan><tspan x="217.37" y="57.6">e o </tspan></tspan><tspan class="cls-37"><tspan class="cls-32" x="0" y="76.8">c</tspan><tspan class="cls-35" x="8.05" y="76.8">o</tspan><tspan class="cls-34" x="16.93" y="76.8">n</tspan><tspan class="cls-7" x="25.34" y="76.8">d</tspan><tspan class="cls-2" x="34.91" y="76.8">o</tspan><tspan x="43.79" y="76.8">m</tspan><tspan class="cls-29" x="58.01" y="76.8">í</tspan><tspan x="61.02" y="76.8">n</tspan><tspan class="cls-2" x="69.6" y="76.8">i</tspan><tspan x="72.56" y="76.8">o </tspan><tspan class="cls-7" x="85.36" y="76.8">s</tspan><tspan x="92.18" y="76.8">o</tspan><tspan class="cls-5" x="101.14" y="76.8">f</tspan><tspan class="cls-28" x="106.69" y="76.8">r</tspan><tspan x="111.87" y="76.8">a, </tspan><tspan class="cls-7" x="128.22" y="76.8">d</tspan><tspan class="cls-34" x="137.79" y="76.8">e</tspan><tspan class="cls-32" x="146.57" y="76.8">c</tspan><tspan class="cls-35" x="154.62" y="76.8">or</tspan><tspan class="cls-21" x="169.14" y="76.8">r</tspan><tspan class="cls-35" x="174.32" y="76.8">e</tspan><tspan x="183.18" y="76.8">n</tspan><tspan class="cls-27" x="191.75" y="76.8">t</tspan><tspan class="cls-10" x="197.06" y="76.8">e</tspan><tspan x="205.94" y="76.8">s </tspan><tspan class="cls-10" x="216.65" y="76.8">d</tspan><tspan x="226.21" y="76.8">e </tspan></tspan><tspan class="cls-37"><tspan class="cls-7" x="0" y="96">d</tspan><tspan x="9.57" y="96">a</tspan><tspan class="cls-34" x="18.86" y="96">n</tspan><tspan class="cls-7" x="27.28" y="96">o</tspan><tspan x="36.18" y="96">s </tspan><tspan class="cls-34" x="46.9" y="96">m</tspan><tspan x="60.95" y="96">a</tspan><tspan class="cls-27" x="70.25" y="96">t</tspan><tspan class="cls-2" x="75.55" y="96">e</tspan><tspan class="cls-4" x="84.41" y="96">r</tspan><tspan class="cls-2" x="90.02" y="96">i</tspan><tspan x="92.98" y="96">a</tspan><tspan class="cls-7" x="102.28" y="96">i</tspan><tspan x="105.26" y="96">s </tspan><tspan class="cls-34" x="115.98" y="96">o</tspan><tspan x="124.78" y="96">u </tspan><tspan class="cls-4" x="136.87" y="96">c</tspan><tspan class="cls-35" x="144.92" y="96">o</tspan><tspan class="cls-23" x="153.8" y="96">r</tspan><tspan class="cls-34" x="159.68" y="96">p</tspan><tspan class="cls-35" x="169.14" y="96">o</tspan><tspan class="cls-21" x="178.02" y="96">r</tspan><tspan x="183.2" y="96">a</tspan><tspan class="cls-10" x="192.5" y="96">i</tspan><tspan x="195.48" y="96">s </tspan><tspan class="cls-4" x="206.19" y="96">c</tspan><tspan x="214.24" y="96">au</tspan><tspan class="cls-10" x="231.79" y="96">s</tspan><tspan class="cls-34" x="238.61" y="96">a</tspan><tspan class="cls-7" x="247.74" y="96">do</tspan><tspan x="266.22" y="96">s </tspan></tspan><tspan class="cls-37"><tspan x="0" y="115.2">a </tspan><tspan class="cls-27" x="13.14" y="115.2">t</tspan><tspan class="cls-2" x="18.44" y="115.2">e</tspan><tspan class="cls-21" x="27.29" y="115.2">r</tspan><tspan class="cls-4" x="32.48" y="115.2">c</tspan><tspan class="cls-34" x="40.53" y="115.2">e</tspan><tspan class="cls-19" x="49.3" y="115.2">i</tspan><tspan class="cls-28" x="52.32" y="115.2">r</tspan><tspan class="cls-7" x="57.5" y="115.2">o</tspan><tspan class="cls-19" x="66.41" y="115.2">s</tspan><tspan x="73.26" y="115.2">, </tspan><tspan class="cls-10" x="80.31" y="115.2">desd</tspan><tspan x="115.14" y="115.2">e </tspan><tspan class="cls-32" x="127.92" y="115.2">q</tspan><tspan class="cls-7" x="137.43" y="115.2">u</tspan><tspan x="145.63" y="115.2">e </tspan><tspan class="cls-20" x="158.41" y="115.2">e</tspan><tspan class="cls-10" x="167.21" y="115.2">le</tspan><tspan x="179.07" y="115.2">s </tspan><tspan class="cls-7" x="189.78" y="115.2">s</tspan><tspan class="cls-34" x="196.6" y="115.2">e</tspan><tspan class="cls-35" x="205.37" y="115.2">j</tspan><tspan x="208.82" y="115.2">am </tspan></tspan><tspan class="cls-37"><tspan class="cls-19" x="0" y="134.4">i</tspan><tspan class="cls-22" x="3.02" y="134.4">n</tspan><tspan class="cls-10" x="11.43" y="134.4">d</tspan><tspan class="cls-35" x="21" y="134.4">e</tspan><tspan x="29.86" y="134.4">ni</tspan><tspan class="cls-2" x="41.47" y="134.4">z</tspan><tspan class="cls-22" x="49.5" y="134.4">a</tspan><tspan class="cls-10" x="58.64" y="134.4">do</tspan><tspan x="77.11" y="134.4">s </tspan><tspan class="cls-34" x="87.82" y="134.4">n</tspan><tspan x="96.24" y="134.4">a </tspan><tspan class="cls-32" x="109.38" y="134.4">c</tspan><tspan class="cls-20" x="117.42" y="134.4">o</tspan><tspan class="cls-22" x="126.25" y="134.4">b</tspan><tspan class="cls-2" x="135.71" y="134.4">e</tspan><tspan x="144.57" y="134.4">rtu</tspan><tspan class="cls-28" x="164.06" y="134.4">r</tspan><tspan x="169.25" y="134.4">a </tspan><tspan class="cls-7" x="182.38" y="134.4">d</tspan><tspan x="191.95" y="134.4">e </tspan></tspan><tspan class="cls-37"><tspan class="cls-28" x="0" y="153.6">r</tspan><tspan class="cls-7" x="5.18" y="153.6">e</tspan><tspan x="14.06" y="153.6">s</tspan><tspan class="cls-34" x="20.94" y="153.6">p</tspan><tspan class="cls-35" x="30.39" y="153.6">o</tspan><tspan x="39.27" y="153.6">n</tspan><tspan class="cls-10" x="47.85" y="153.6">s</tspan><tspan class="cls-14" x="54.66" y="153.6">a</tspan><tspan class="cls-22" x="64.06" y="153.6">b</tspan><tspan class="cls-38" x="73.53" y="153.6">i</tspan><tspan x="76.62" y="153.6">l</tspan><tspan class="cls-2" x="79.66" y="153.6">i</tspan><tspan class="cls-7" x="82.62" y="153.6">d</tspan><tspan class="cls-34" x="92.19" y="153.6">a</tspan><tspan class="cls-7" x="101.33" y="153.6">d</tspan><tspan x="110.9" y="153.6">e </tspan><tspan class="cls-3" x="123.67" y="153.6">c</tspan><tspan class="cls-4" x="131.69" y="153.6">iv</tspan><tspan class="cls-30" x="142.74" y="153.6">i</tspan><tspan x="145.84" y="153.6">l </tspan><tspan class="cls-10" x="152.72" y="153.6">d</tspan><tspan x="162.29" y="153.6">o </tspan><tspan class="cls-4" x="175.09" y="153.6">c</tspan><tspan class="cls-35" x="183.14" y="153.6">o</tspan><tspan class="cls-34" x="192.02" y="153.6">n</tspan><tspan class="cls-10" x="200.43" y="153.6">d</tspan><tspan class="cls-35" x="210" y="153.6">o</tspan><tspan x="218.88" y="153.6">m</tspan><tspan class="cls-19" x="233.1" y="153.6">í</tspan><tspan x="236.11" y="153.6">n</tspan><tspan class="cls-2" x="244.69" y="153.6">i</tspan><tspan class="cls-22" x="247.65" y="153.6">o</tspan><tspan x="256.45" y="153.6">.</tspan></tspan></text>
</svg>