<?xml version="1.0" encoding="UTF-8"?>
<svg id="Layer_1" data-name="Layer 1" xmlns="http://www.w3.org/2000/svg" viewBox="0 0 366.28 305.38">
  <defs>
    <style>
      .cls-1 {
        letter-spacing: -.02em;
      }

      .cls-2 {
        letter-spacing: 0em;
      }

      .cls-3 {
        letter-spacing: 0em;
      }

      .cls-4 {
        fill: #fff;
      }

      .cls-5 {
        letter-spacing: -.02em;
      }

      .cls-6 {
        letter-spacing: 0em;
      }

      .cls-7 {
        letter-spacing: 0em;
      }

      .cls-8 {
        letter-spacing: 0em;
      }

      .cls-9 {
        letter-spacing: -.03em;
      }

      .cls-10 {
        letter-spacing: -.01em;
      }

      .cls-11 {
        letter-spacing: -.02em;
      }

      .cls-12 {
        font-family: UrbanistRoman-Bold, Urbanist;
        font-size: 19px;
        font-variation-settings: 'wght' 700;
        font-weight: 700;
      }

      .cls-13 {
        letter-spacing: 0em;
      }

      .cls-14 {
        letter-spacing: 0em;
      }

      .cls-15 {
        letter-spacing: -.01em;
      }

      .cls-16 {
        letter-spacing: -.02em;
      }

      .cls-17 {
        letter-spacing: 0em;
      }

      .cls-18 {
        letter-spacing: -.01em;
      }

      .cls-19 {
        letter-spacing: 0em;
      }

      .cls-20 {
        letter-spacing: 0em;
      }

      .cls-21 {
        font-family: Urbanist-Regular, Urbanist;
        font-size: 18px;
        font-variation-settings: 'wght' 400;
      }

      .cls-22 {
        letter-spacing: -.01em;
      }

      .cls-23 {
        fill: #130044;
      }
    </style>
  </defs>
  <rect class="cls-23" x="0" y="0" width="366.28" height="305.38" rx="29.13" ry="29.13"/>
  <g id="_13" data-name="13">
    <g>
      <path class="cls-4" d="M73.45,60.86c-1.77-1.91-4.18-3.07-6.77-3.27h-.07s-29.26-.03-29.26-.03c-5.7,0-10.34,4.64-10.34,10.34s4.64,10.34,10.34,10.34h0l29.19-.03h.13c2.59-.21,4.99-1.37,6.77-3.27,1.78-1.92,2.77-4.42,2.77-7.04,0-2.62-.98-5.12-2.77-7.04ZM51.92,74.71h-14.56c-3.77.01-6.83-3.05-6.83-6.82s3.06-6.83,6.83-6.83h14.56v13.65h0Z"/>
      <path class="cls-4" d="M31.6,54.25c1.76,1.29,3.93,1.99,6.1,1.99h0c.74,0,1.49-.08,2.22-.24h.07s28-8.47,28-8.47c5.46-1.65,8.55-7.44,6.89-12.89-.66-2.17-1.97-4.01-3.79-5.35-1.76-1.29-3.93-2-6.1-2-1.01,0-2.02.15-3,.45l-27.92,8.5-.13.04c-2.42.94-4.38,2.75-5.53,5.09-1.15,2.35-1.37,5.03-.61,7.54.66,2.17,1.97,4.01,3.79,5.34ZM63.01,31.1c.65-.2,1.32-.3,1.98-.3,2.98,0,5.67,1.99,6.53,4.85,1.09,3.6-.95,7.43-4.55,8.52l-13.94,4.21-3.95-13.04,13.93-4.24Z"/>
    </g>
  </g>
  <text class="cls-4" transform="translate(27.59 115.96)"><tspan class="cls-12"><tspan class="cls-16" x="0" y="0">D</tspan><tspan class="cls-8" x="12.47" y="0">e</tspan><tspan x="22.96" y="0">s</tspan><tspan class="cls-7" x="31.22" y="0">p</tspan><tspan class="cls-14" x="42.79" y="0">es</tspan><tspan x="61.39" y="0">as </tspan><tspan class="cls-15" x="85.58" y="0">f</tspan><tspan x="92.24" y="0">a</tspan><tspan class="cls-22" x="103.62" y="0">r</tspan><tspan class="cls-7" x="110.72" y="0">ma</tspan><tspan class="cls-1" x="138.6" y="0">c</tspan><tspan class="cls-11" x="148" y="0">ê</tspan><tspan x="158.19" y="0">u</tspan><tspan class="cls-14" x="168.42" y="0">t</tspan><tspan class="cls-22" x="175.07" y="0">i</tspan><tspan class="cls-1" x="179.45" y="0">c</tspan><tspan x="188.85" y="0">as</tspan></tspan><tspan class="cls-21"><tspan class="cls-5" x="0" y="43.2">R</tspan><tspan class="cls-13" x="9.7" y="43.2">e</tspan><tspan class="cls-3" x="19.58" y="43.2">e</tspan><tspan class="cls-6" x="29.54" y="43.2">m</tspan><tspan class="cls-18" x="45.65" y="43.2">b</tspan><tspan class="cls-20" x="56.29" y="43.2">o</tspan><tspan x="66.22" y="43.2">l</tspan><tspan class="cls-17" x="69.64" y="43.2">s</tspan><tspan x="77.31" y="43.2">o </tspan><tspan class="cls-3" x="91.71" y="43.2">e</tspan><tspan x="101.67" y="43.2">m </tspan><tspan class="cls-19" x="121.98" y="43.2">c</tspan><tspan x="131.04" y="43.2">a</tspan><tspan class="cls-2" x="141.5" y="43.2">so</tspan><tspan x="159.18" y="43.2">s </tspan><tspan class="cls-17" x="171.23" y="43.2">d</tspan><tspan x="182" y="43.2">e </tspan></tspan><tspan class="cls-21"><tspan class="cls-13" x="0" y="64.8">me</tspan><tspan x="25.69" y="64.8">d</tspan><tspan class="cls-3" x="36.51" y="64.8">i</tspan><tspan class="cls-19" x="39.84" y="64.8">c</tspan><tspan class="cls-13" x="48.9" y="64.8">a</tspan><tspan class="cls-19" x="59.17" y="64.8">ç</tspan><tspan class="cls-18" x="68.23" y="64.8">õ</tspan><tspan class="cls-17" x="78.13" y="64.8">e</tspan><tspan x="88.12" y="64.8">s </tspan><tspan class="cls-9" x="100.17" y="64.8">r</tspan><tspan class="cls-18" x="106" y="64.8">e</tspan><tspan class="cls-19" x="115.87" y="64.8">c</tspan><tspan class="cls-13" x="124.93" y="64.8">e</tspan><tspan x="134.8" y="64.8">i</tspan><tspan class="cls-10" x="138.22" y="64.8">t</tspan><tspan class="cls-13" x="144.19" y="64.8">a</tspan><tspan class="cls-17" x="154.47" y="64.8">d</tspan><tspan x="165.23" y="64.8">as du</tspan><tspan class="cls-9" x="207.85" y="64.8">r</tspan><tspan x="213.69" y="64.8">an</tspan><tspan class="cls-10" x="233.79" y="64.8">t</tspan><tspan x="239.76" y="64.8">e o </tspan></tspan><tspan class="cls-21"><tspan class="cls-13" x="0" y="86.4">p</tspan><tspan class="cls-3" x="10.64" y="86.4">e</tspan><tspan class="cls-19" x="20.6" y="86.4">r</tspan><tspan class="cls-3" x="26.92" y="86.4">í</tspan><tspan class="cls-18" x="30.25" y="86.4">o</tspan><tspan class="cls-17" x="40.15" y="86.4">d</tspan><tspan x="50.91" y="86.4">o </tspan><tspan class="cls-2" x="65.31" y="86.4">d</tspan><tspan x="76.08" y="86.4">a </tspan><tspan class="cls-19" x="90.85" y="86.4">v</tspan><tspan class="cls-3" x="99.99" y="86.4">i</tspan><tspan class="cls-18" x="103.32" y="86.4">a</tspan><tspan class="cls-3" x="113.6" y="86.4">ge</tspan><tspan x="134.05" y="86.4">m.</tspan></tspan></text>
</svg>