<?xml version="1.0" encoding="UTF-8"?>
<svg id="Layer_1" data-name="Layer 1" xmlns="http://www.w3.org/2000/svg" viewBox="0 0 366.28 305.38">
  <defs>
    <style>
      .cls-1 {
        letter-spacing: -.04em;
      }

      .cls-2 {
        letter-spacing: -.04em;
      }

      .cls-3 {
        letter-spacing: -.02em;
      }

      .cls-4 {
        letter-spacing: -.01em;
      }

      .cls-5 {
        letter-spacing: -.02em;
      }

      .cls-6 {
        letter-spacing: -.01em;
      }

      .cls-7 {
        letter-spacing: -.02em;
      }

      .cls-8 {
        letter-spacing: 0em;
      }

      .cls-9 {
        letter-spacing: -.02em;
      }

      .cls-10 {
        letter-spacing: -.01em;
      }

      .cls-11 {
        letter-spacing: 0em;
      }

      .cls-12 {
        letter-spacing: 0em;
      }

      .cls-13 {
        letter-spacing: -.04em;
      }

      .cls-14 {
        letter-spacing: -.02em;
      }

      .cls-15 {
        font-family: UrbanistRoman-Bold, Urbanist;
        font-size: 16px;
        font-variation-settings: 'wght' 700;
        font-weight: 700;
      }

      .cls-15, .cls-16 {
        fill: #130044;
      }

      .cls-17 {
        letter-spacing: 0em;
      }

      .cls-18 {
        letter-spacing: -.01em;
      }

      .cls-19 {
        letter-spacing: -.01em;
      }

      .cls-20 {
        letter-spacing: -.04em;
      }
    </style>
  </defs>
  <path class="cls-16" d="M337.15,8.99c11.1,0,20.14,9.03,20.14,20.14v247.12c0,11.1-9.03,20.14-20.14,20.14H29.13c-11.1,0-20.14-9.03-20.14-20.14V29.13c0-11.1,9.03-20.14,20.14-20.14h308.02M337.15,0H29.13C13.11,0,0,13.11,0,29.13v247.12C0,292.27,13.11,305.38,29.13,305.38h308.02c16.02,0,29.13-13.11,29.13-29.13V29.13c0-16.02-13.11-29.13-29.13-29.13h0Z"/>
  <text class="cls-15" transform="translate(27.59 254.01)"><tspan class="cls-13" x="0" y="0">C</tspan><tspan class="cls-14" x="10.68" y="0">o</tspan><tspan x="19.34" y="0">l</tspan><tspan class="cls-8" x="23.21" y="0">is</tspan><tspan class="cls-12" x="33.79" y="0">ão</tspan><tspan x="52.02" y="0">, </tspan><tspan class="cls-9" x="59.9" y="0">q</tspan><tspan class="cls-8" x="69.56" y="0">u</tspan><tspan class="cls-12" x="78.05" y="0">e</tspan><tspan class="cls-8" x="86.84" y="0">d</tspan><tspan x="96.64" y="0">a e/</tspan><tspan class="cls-7" x="125.5" y="0">o</tspan><tspan class="cls-11" x="134.09" y="0">u a</tspan><tspan class="cls-18" x="156.12" y="0">t</tspan><tspan class="cls-6" x="161.67" y="0">er</tspan><tspan class="cls-3" x="176.42" y="0">r</tspan><tspan class="cls-8" x="182.33" y="0">i</tspan><tspan x="186.08" y="0">s</tspan><tspan class="cls-17" x="193.03" y="0">s</tspan><tspan class="cls-12" x="199.87" y="0">a</tspan><tspan class="cls-10" x="209.29" y="0">ge</tspan><tspan x="227.68" y="0">m </tspan><tspan class="cls-4" x="0" y="19.2">f</tspan><tspan class="cls-10" x="5.61" y="19.2">o</tspan><tspan class="cls-1" x="14.38" y="19.2">r</tspan><tspan class="cls-9" x="19.94" y="19.2">ç</tspan><tspan class="cls-12" x="27.86" y="19.2">a</tspan><tspan class="cls-8" x="37.28" y="19.2">d</tspan><tspan x="47.08" y="19.2">a </tspan><tspan class="cls-8" x="60.5" y="19.2">d</tspan><tspan x="70.3" y="19.2">e </tspan><tspan class="cls-12" x="83.1" y="19.2">a</tspan><tspan class="cls-10" x="92.52" y="19.2">e</tspan><tspan class="cls-2" x="101.29" y="19.2">r</tspan><tspan class="cls-6" x="106.85" y="19.2">o</tspan><tspan class="cls-19" x="115.63" y="19.2">n</tspan><tspan class="cls-5" x="124.39" y="19.2">a</tspan><tspan class="cls-20" x="133.61" y="19.2">v</tspan><tspan x="142.35" y="19.2">e </tspan><tspan class="cls-3" x="155.14" y="19.2">c</tspan><tspan class="cls-6" x="163.05" y="19.2">o</tspan><tspan x="171.83" y="19.2">m</tspan><tspan class="cls-10" x="186.04" y="19.2">p</tspan><tspan class="cls-1" x="195.76" y="19.2">r</tspan><tspan class="cls-20" x="201.32" y="19.2">ov</tspan><tspan class="cls-12" x="218.45" y="19.2">a</tspan><tspan class="cls-17" x="227.87" y="19.2">d</tspan><tspan x="237.67" y="19.2">a</tspan></text>
  <polygon class="cls-16" points="338.69 262.6 330.04 262.6 330.04 253.95 324.38 253.95 324.38 262.6 315.73 262.6 315.73 268.27 324.38 268.27 324.38 276.92 330.04 276.92 330.04 268.27 338.69 268.27 338.69 262.6"/>
  <path class="cls-16" d="M84.79,77.21c0,.56-.46,1.02-1.02,1.02h-36.77c-.56,0-1.02-.46-1.02-1.02s.46-1.02,1.02-1.02h36.77c.56,0,1.02.46,1.02,1.02ZM79.41,70.02l-45.1-12.63c-3.96-1.12-6.7-4.73-6.71-8.85v-13.44c0-1.69,1.37-3.06,3.06-3.06.33,0,.66.05.97.16l3.44,1.15c.25.08.46.26.58.49l3.89,7.29,6.45,2.01v-8.03c0-1.69,1.37-3.06,3.06-3.06.33,0,.66.05.97.16l3.44,1.15c.24.08.44.24.56.46l7.96,13.93,12,3.33c3.97,1.11,6.72,4.73,6.73,8.86v9.11c0,.56-.46,1.02-1.02,1.02-.09,0-.19-.01-.28-.04ZM78.66,59.93c0-3.21-2.15-6.02-5.24-6.89l-12.4-3.44c-.26-.07-.48-.24-.61-.48l-7.98-13.96-3.07-1.02c-.54-.18-1.11.11-1.29.65-.03.1-.05.21-.05.32v9.42c0,.56-.46,1.02-1.02,1.02-.1,0-.21-.02-.3-.05l-8.17-2.55c-.26-.08-.47-.26-.6-.49l-3.89-7.3-3.05-1.02c-.11-.04-.22-.05-.33-.05-.56,0-1.02.46-1.02,1.02v13.44c0,3.2,2.14,6.01,5.22,6.88l43.8,12.27v-7.76Z"/>
</svg>