<?xml version="1.0" encoding="UTF-8"?>
<svg id="Layer_1" data-name="Layer 1" xmlns="http://www.w3.org/2000/svg" viewBox="0 0 366.28 305.38">
  <defs>
    <style>
      .cls-1 {
        letter-spacing: 0em;
      }

      .cls-2 {
        letter-spacing: 0em;
      }

      .cls-3 {
        letter-spacing: -.03em;
      }

      .cls-4 {
        letter-spacing: 0em;
      }

      .cls-5 {
        letter-spacing: 0em;
      }

      .cls-6 {
        letter-spacing: -.01em;
      }

      .cls-7 {
        letter-spacing: -.02em;
      }

      .cls-8 {
        letter-spacing: -.04em;
      }

      .cls-9 {
        font-family: UrbanistRoman-Bold, Urbanist;
        font-size: 23.99px;
        font-variation-settings: 'wght' 700;
        font-weight: 700;
      }

      .cls-9, .cls-10 {
        fill: #130044;
      }

      .cls-11 {
        letter-spacing: -.02em;
      }

      .cls-12 {
        letter-spacing: -.01em;
      }

      .cls-13 {
        letter-spacing: -.01em;
      }

      .cls-14 {
        letter-spacing: -.02em;
      }
    </style>
  </defs>
  <path class="cls-10" d="M337.15,9c11.1,0,20.14,9.03,20.14,20.13v247.12c0,11.1-9.03,20.14-20.14,20.14H29.13c-11.1,0-20.14-9.03-20.14-20.14V29.13c0-11.1,9.03-20.13,20.14-20.13h308.02M337.15,0H29.13C13.11,0,0,13.11,0,29.13v247.12c0,16.02,13.11,29.13,29.13,29.13h308.02c16.02,0,29.13-13.11,29.13-29.13V29.13c0-16.02-13.11-29.13-29.13-29.13h0Z"/>
  <text class="cls-9" transform="translate(27.59 245)"><tspan class="cls-3" x="0" y="0">E</tspan><tspan x="12.47" y="0">xt</tspan><tspan class="cls-8" x="35.37" y="0">r</tspan><tspan class="cls-7" x="43.7" y="0">a</tspan><tspan class="cls-11" x="57.52" y="0">v</tspan><tspan class="cls-6" x="71.1" y="0">i</tspan><tspan class="cls-12" x="76.63" y="0">o</tspan><tspan x="89.82" y="0">, </tspan><tspan class="cls-8" x="101.64" y="0">r</tspan><tspan class="cls-14" x="109.98" y="0">o</tspan><tspan class="cls-5" x="122.86" y="0">u</tspan><tspan class="cls-12" x="135.82" y="0">b</tspan><tspan x="150.46" y="0">o </tspan><tspan class="cls-7" x="169.64" y="0">o</tspan><tspan x="182.53" y="0">u </tspan><tspan class="cls-4" x="201.19" y="0">f</tspan><tspan x="210.04" y="0">ur</tspan><tspan class="cls-13" x="232.18" y="0">t</tspan><tspan x="240.5" y="0">o </tspan><tspan class="cls-1" x="0" y="28.78">d</tspan><tspan x="14.69" y="28.78">e </tspan><tspan class="cls-1" x="33.87" y="28.78">d</tspan><tspan class="cls-12" x="48.56" y="28.78">o</tspan><tspan class="cls-6" x="61.75" y="28.78">c</tspan><tspan x="73.71" y="28.78">u</tspan><tspan class="cls-2" x="86.61" y="28.78">m</tspan><tspan class="cls-6" x="107.69" y="28.78">e</tspan><tspan x="120.83" y="28.78">n</tspan><tspan class="cls-13" x="134.22" y="28.78">t</tspan><tspan class="cls-1" x="142.54" y="28.78">o</tspan><tspan x="155.79" y="28.78">s</tspan></text>
  <polygon class="cls-10" points="338.69 262.6 330.04 262.6 330.04 253.95 324.38 253.95 324.38 262.6 315.73 262.6 315.73 268.27 324.38 268.27 324.38 276.92 330.04 276.92 330.04 268.27 338.69 268.27 338.69 262.6"/>
  <g>
    <path class="cls-10" d="M42.81,55.62c.27,0,.48-.22.48-.48s-.22-.48-.49-.48-.48.22-.48.48.22.48.49.48Z"/>
    <path class="cls-10" d="M42.79,56.69s0,0,.01,0c-.14.15-.18.37-.08.55,0,0,.52,1.05.08,1.49-.57.57-.31,1.36-.12,1.93.15.47.25.81.12.94-.95.95-.13,2.64-.09,2.71.08.16.25.27.43.27.08,0,.15-.02.21-.05.12-.06.2-.16.24-.28.04-.12.03-.25-.03-.37-.18-.37-.45-1.24-.09-1.6.57-.57.31-1.36.12-1.93-.15-.47-.25-.8-.12-.94.96-.96.12-2.57.08-2.63-.05-.1-.14-.16-.23-.2.59-.22,1.01-.79,1.01-1.45,0-.86-.7-1.56-1.56-1.56s-1.56.7-1.56,1.56.7,1.56,1.56,1.56ZM42.2,55.13c0-.33.27-.59.59-.59s.59.27.59.59-.27.59-.59.59-.59-.27-.59-.59Z"/>
    <path class="cls-10" d="M57.51,49.27h-2.46c.04-.07.07-.15.07-.24v-12.92s-.01-.05-.01-.07c0-.04,0-.08-.02-.11-.03-.06-.06-.11-.11-.16l-3.59-3.59s-.02-.01-.03-.02c-.08-.07-.19-.12-.31-.12h-18.66c-.07,0-.13.01-.19.04-.02,0-.04.03-.06.04-.03.02-.07.04-.1.06-.03.03-.05.07-.08.11,0,.01-.02.02-.03.04-.02.06-.04.12-.04.19v15.79c0,.27.22.48.48.48s.48-.22.48-.48v-15.31h17.98l3.31,3.31v12.72c0,.09.03.16.07.23h-26.15c-.27,0-.48.22-.48.48v25.84c0,1.45,1.18,2.64,2.64,2.64h25.12c1.45,0,2.64-1.18,2.64-2.64v-25.84c0-.27-.22-.48-.48-.48ZM55.35,77.26h-25.12c-.92,0-1.67-.75-1.67-1.67v-25.36h28.47v25.36c0,.92-.75,1.67-1.67,1.67Z"/>
    <path class="cls-10" d="M50.33,33.47c-.27,0-.48.22-.48.48v2.87c0,.27.22.48.48.48h2.87c.27,0,.48-.22.48-.48,0-.27-.22-.48-.48-.48h-2.39v-2.39c0-.27-.22-.48-.48-.48Z"/>
    <path class="cls-10" d="M30.95,48.8h0c.13,0,.25-.05.34-.14.09-.09.14-.21.14-.34v-14.72c0-.27-.22-.48-.48-.48s-.48.22-.48.48v14.72c0,.27.22.48.48.48Z"/>
    <path class="cls-10" d="M36.33,46.29h14.36c.27,0,.48-.22.48-.48s-.22-.48-.48-.48h-14.36c-.27,0-.48.22-.48.48s.22.48.48.48Z"/>
    <path class="cls-10" d="M35.85,42.93c0,.27.22.48.48.48h14.36c.27,0,.48-.22.48-.48s-.22-.48-.48-.48h-14.36c-.27,0-.48.22-.48.48Z"/>
    <path class="cls-10" d="M57.11,48.58c.09.14.24.22.4.22.08,0,.16-.02.24-.06h.02s0-.02.01-.02l.03-.02h0c.09-.07.15-.17.18-.29.03-.13,0-.25-.07-.36l-1.44-2.15c-.14-.21-.42-.27-.64-.15h-.01s-.01.02-.02.02l-.06.04h0c-.18.16-.21.43-.08.63l1.44,2.15Z"/>
    <path class="cls-10" d="M28.08,48.8c.16,0,.31-.08.4-.22l1.44-2.15c.07-.11.1-.24.07-.36-.02-.11-.09-.22-.18-.29l-.02-.04h-.04c-.1-.06-.21-.07-.33-.05-.13.03-.24.1-.31.21l-1.44,2.15c-.05.08-.08.17-.08.27,0,.27.22.48.48.48Z"/>
    <path class="cls-10" d="M53.2,68.65h-20.82c-.27,0-.48.22-.48.48v4.31c0,.27.22.48.48.48h20.82c.13,0,.25-.05.34-.14.09-.09.14-.21.14-.34v-4.31c0-.27-.22-.48-.48-.48ZM52.72,69.62v3.34h-19.85v-3.34h19.85Z"/>
    <path class="cls-10" d="M34.54,71.77h16.51c.27,0,.48-.22.48-.48s-.22-.48-.48-.48h-16.51c-.27,0-.48.22-.48.48s.22.48.48.48Z"/>
  </g>
</svg>