<?xml version="1.0" encoding="UTF-8"?>
<svg id="Layer_1" data-name="Layer 1" xmlns="http://www.w3.org/2000/svg" viewBox="0 0 366.28 305.38">
  <defs>
    <style>
      .cls-1 {
        letter-spacing: 0em;
      }

      .cls-2 {
        letter-spacing: -.04em;
      }

      .cls-3 {
        letter-spacing: -.01em;
      }

      .cls-4 {
        letter-spacing: -.04em;
      }

      .cls-5 {
        letter-spacing: -.02em;
      }

      .cls-6 {
        letter-spacing: -.02em;
      }

      .cls-7 {
        letter-spacing: 0em;
      }

      .cls-8 {
        font-family: UrbanistRoman-Bold, Urbanist;
        font-size: 23.99px;
        font-variation-settings: 'wght' 700;
        font-weight: 700;
      }

      .cls-8, .cls-9 {
        fill: #130044;
      }

      .cls-10 {
        letter-spacing: -.02em;
      }
    </style>
  </defs>
  <path class="cls-9" d="M337.15,8.99c11.1,0,20.14,9.03,20.14,20.14v247.12c0,11.1-9.03,20.14-20.14,20.14H29.13c-11.1,0-20.13-9.03-20.13-20.14V29.13c0-11.1,9.03-20.14,20.13-20.14h308.02M337.15,0H29.13C13.11,0,0,13.11,0,29.13v247.12c0,16.02,13.11,29.13,29.13,29.13h308.02c16.02,0,29.13-13.11,29.13-29.13V29.13C366.28,13.11,353.18,0,337.15,0h0Z"/>
  <text class="cls-8" transform="translate(27.6 274.19)"><tspan class="cls-6" x="0" y="0">P</tspan><tspan class="cls-4" x="12.72" y="0">r</tspan><tspan class="cls-2" x="21.06" y="0">e</tspan><tspan class="cls-5" x="33.63" y="0">v</tspan><tspan class="cls-3" x="47.21" y="0">i</tspan><tspan class="cls-1" x="52.74" y="0">d</tspan><tspan class="cls-3" x="67.43" y="0">ê</tspan><tspan class="cls-7" x="80.57" y="0">n</tspan><tspan class="cls-10" x="93.72" y="0">c</tspan><tspan class="cls-3" x="105.49" y="0">i</tspan><tspan x="111.02" y="0">a </tspan><tspan class="cls-3" x="131.15" y="0">p</tspan><tspan class="cls-5" x="145.72" y="0">ri</tspan><tspan class="cls-2" x="160.02" y="0">v</tspan><tspan class="cls-7" x="173.11" y="0">a</tspan><tspan class="cls-1" x="187.24" y="0">d</tspan><tspan x="201.93" y="0">a</tspan></text>
  <polygon class="cls-9" points="338.69 262.6 330.04 262.6 330.04 253.95 324.38 253.95 324.38 262.6 315.73 262.6 315.73 268.27 324.38 268.27 324.38 276.92 330.04 276.92 330.04 268.27 338.69 268.27 338.69 262.6"/>
  <path class="cls-9" d="M36.82,77.6v-7.4c-2.82-2.91-4.36-6.58-4.36-10.36,0-.05,0-.09,0-.14-.61-.21-1.69-.68-2.81-1.69-1.7-1.53-2.03-3.33-2.04-3.4-.06-.35.17-.67.52-.73.35-.06.67.17.73.52,0,.01.26,1.44,1.64,2.67.77.69,1.52,1.09,2.04,1.3.87-8.3,9.08-14.83,19.05-14.83,4.33,0,8.12,1.02,11.27,3.05l3.59-1.91c.22-.12.49-.09.69.06.2.15.29.41.23.65l-.97,4.12c2.33,2.14,3.51,4.39,4.07,7.78h3.09c.1-.01.21-.02.31-.01h0s0,0,0,0c.05,0,.09,0,.14.01h.05c.1,0,.19.03.28.07.56.18,1.04.62,1.39,1.28.39.74.58,1.69.53,2.68-.11,2.2-1.32,3.87-2.76,3.79-.03,0-.06,0-.09,0-.04,0-.07,0-.11,0h-3.62c-.6,1.5-1.46,2.92-2.54,4.2v8.28c0,.35-.28.64-.64.64h-8.14c-.35,0-.64-.28-.64-.64v-2.32c-1.98.57-4.04.86-6.14.86-1.55,0-3.09-.16-4.59-.48v1.93c0,.35-.28.64-.64.64h-8.9c-.35,0-.64-.28-.64-.64ZM42.28,76.96v-3.28c0-.22.11-.42.29-.53.18-.12.41-.13.61-.05,2.57,1.16,5.47,1.77,8.4,1.77,2.26,0,4.47-.36,6.57-1.06.19-.07.41-.03.57.09.17.12.26.31.26.52v2.55s4.19,0,4.19,0v-5.39c0-.2.09-.39.25-.51,2.18-1.63,3.84-3.67,4.86-5.95h-1.7c-.18,0-1.41,0-2.5-.84l-.22.22c-.25.25-.65.25-.9,0-.25-.25-.25-.65,0-.9l.65-.65c.12-.12.29-.2.47-.19.17,0,.34.08.46.21.81.91,1.95.88,1.99.87.01,0,.02,0,.03,0h5.11c-.41-.73-.64-1.7-.58-2.77.05-.97.31-1.85.72-2.51h-1.9c-.32,0-.58-.23-.63-.55-.51-3.55-1.6-5.67-4.02-7.81l-2.84-2.38c-3-2.01-6.65-3.02-10.86-3.02-9.84,0-17.85,6.74-17.85,15.03,0,3.52,1.48,6.95,4.18,9.65.12.12.19.28.19.45v7.02s4.19,0,4.19,0h0ZM45.72,75.35c-.74-.2-1.46-.44-2.17-.72v2.33s2.17,0,2.17,0v-1.61ZM65.86,70.67c-.44.42-.91.83-1.41,1.21v5.07s1.41,0,1.41,0v-6.29ZM74.39,61.19c0-.37.23-.69.56-.81-.06-.43-.18-.83-.35-1.15-.19-.36-.43-.6-.66-.67-.01,0-.02,0-.03,0-.02,0-.04,0-.05,0h0s-.03,0-.05,0c-.02,0-.05,0-.07,0,0,0-.02,0-.02,0-.02,0-.04,0-.07.01-.23.06-.47.27-.68.59-.21.32-.37.73-.47,1.18.43.05.77.42.77.86s-.37.84-.83.87c.14.93.55,1.6.97,1.75.02,0,.03.01.05.02,0,0,.01,0,.02,0,.03,0,.06,0,.09.01.52.02,1.11-.73,1.34-1.86-.3-.14-.51-.44-.51-.79ZM72.38,61.13c0,.16,0,.32,0,.47h0c.22,0,.4-.18.4-.4s-.17-.39-.38-.4c-.01.11-.02.23-.03.34ZM74.85,61.19c0,.11.05.21.12.29,0-.07.01-.15.02-.22,0-.12,0-.25,0-.37-.08.07-.14.18-.14.3ZM63.95,47.44l1.36,1.14.5-2.12-1.85.98ZM61.44,55.28c0-1.09.89-1.99,1.99-1.99s1.99.89,1.99,1.99-.89,1.99-1.99,1.99-1.99-.89-1.99-1.99ZM62.71,55.28c0,.39.32.71.71.71s.71-.32.71-.71-.32-.71-.71-.71-.71.32-.71.71ZM55.2,54.03c0-.1,0-2.52.5-4.71.45-1.99.86-2.61.93-2.72.14-.19.37-.28.6-.25.08.01,1.94.28,3.27,1.59.88.87,1.38,1.94,1.4,1.99.14.32,0,.7-.32.84-.32.14-.7,0-.84-.31,0,0-.42-.91-1.13-1.61-.68-.67-1.59-1-2.12-1.14-.13.33-.34.92-.56,1.89-.46,2.05-.47,4.4-.47,4.43,0,.35-.28.64-.64.64h0c-.35,0-.64-.28-.64-.64ZM46.84,47.24c-.14-.32,0-.7.33-.84.07-.03,1.71-.73,4.01-.73,2.29,0,4.18.69,4.26.72.33.12.5.49.38.82-.12.33-.49.5-.82.38-.02,0-1.77-.64-3.82-.64s-3.49.62-3.51.63h0c-.08.04-.17.05-.25.05-.25,0-.48-.14-.58-.38ZM46.8,36.57c0-2.5,2.03-4.53,4.53-4.53,2.5,0,4.53,2.03,4.53,4.53s-2.03,4.53-4.53,4.53c-2.5,0-4.53-2.03-4.53-4.53ZM48.07,36.57c0,1.8,1.46,3.26,3.26,3.26s3.26-1.46,3.26-3.26-1.46-3.26-3.26-3.26-3.26,1.46-3.26,3.26Z"/>
</svg>