<?xml version="1.0" encoding="UTF-8"?>
<svg id="Layer_1" data-name="Layer 1" xmlns="http://www.w3.org/2000/svg" viewBox="0 0 366.28 305.38">
  <defs>
    <style>
      .cls-1 {
        letter-spacing: 0em;
      }

      .cls-2 {
        letter-spacing: 0em;
      }

      .cls-3 {
        letter-spacing: -.01em;
      }

      .cls-4 {
        letter-spacing: -.04em;
      }

      .cls-5 {
        letter-spacing: 0em;
      }

      .cls-6 {
        fill: #fff;
      }

      .cls-7 {
        letter-spacing: -.05em;
      }

      .cls-8 {
        letter-spacing: -.01em;
      }

      .cls-9 {
        letter-spacing: 0em;
      }

      .cls-10 {
        letter-spacing: -.03em;
      }

      .cls-11 {
        letter-spacing: 0em;
      }

      .cls-12 {
        letter-spacing: -.03em;
      }

      .cls-13 {
        letter-spacing: 0em;
      }

      .cls-14 {
        letter-spacing: -.03em;
      }

      .cls-15 {
        letter-spacing: -.01em;
      }

      .cls-16 {
        letter-spacing: 0em;
      }

      .cls-17 {
        letter-spacing: -.01em;
      }

      .cls-18 {
        letter-spacing: 0em;
      }

      .cls-19 {
        font-family: UrbanistRoman-Bold, Urbanist;
        font-size: 23.99px;
        font-variation-settings: 'wght' 700;
        font-weight: 700;
      }

      .cls-20 {
        letter-spacing: -.03em;
      }

      .cls-21 {
        letter-spacing: -.01em;
      }

      .cls-22 {
        letter-spacing: -.02em;
      }

      .cls-23 {
        letter-spacing: 0em;
      }

      .cls-24 {
        letter-spacing: -.01em;
      }

      .cls-25 {
        letter-spacing: -.05em;
      }

      .cls-26 {
        letter-spacing: 0em;
      }

      .cls-27 {
        letter-spacing: 0em;
      }

      .cls-28 {
        letter-spacing: 0em;
      }

      .cls-29 {
        font-family: Urbanist-Regular, Urbanist;
        font-size: 18px;
        font-variation-settings: 'wght' 400;
      }

      .cls-30 {
        letter-spacing: 0em;
      }

      .cls-31 {
        letter-spacing: -.02em;
      }

      .cls-32 {
        fill: #130044;
      }
    </style>
  </defs>
  <rect class="cls-32" x="0" y="0" width="366.28" height="305.38" rx="29.13" ry="29.13"/>
  <path class="cls-6" d="M73.79,72.35v-28.19c0-.65-.53-1.17-1.17-1.17h-11.81l-2.8-5.61c-.2-.39-.59-.65-1.05-.65h-12.53c-.46,0-.85.26-1.05.64h0s-2.81,5.62-2.81,5.62h-.35l-10.62-10.62c-.21-.21-.5-.33-.82-.33-.65,0-1.17.53-1.17,1.17,0,.32.13.61.33.82l43.85,43.85c.21.21.51.34.83.34.65,0,1.18-.53,1.18-1.18,0-.32-.13-.62-.34-.83l-2.69-2.69h1.86c.65,0,1.17-.53,1.17-1.17h0ZM55.75,58.53l-5.33-5.33c.09,0,.18-.03.27-.03,2.81,0,5.09,2.28,5.09,5.09h0c0,.09-.02.18-.03.27ZM71.44,71.18h-3.04l-10.67-10.67c.25-.7.39-1.52.39-2.36,0-4.05-3.28-7.33-7.33-7.33-.85,0-1.66.14-2.42.41l.05-.02-6.3-6.3c.08-.07.15-.14.2-.22h0s2.81-5.62,2.81-5.62h11.07l2.8,5.61c.2.39.59.65,1.05.65h11.36v25.84ZM60.09,71.18h-30.15v-25.84h1.96c.65,0,1.17-.53,1.17-1.17s-.53-1.17-1.17-1.17h-3.13c-.65,0-1.17.53-1.17,1.17h0v28.19c0,.65.53,1.17,1.17,1.17h31.32c.65,0,1.17-.53,1.17-1.17s-.53-1.17-1.17-1.17h0ZM44.92,55.55c-.08-.02-.18-.03-.28-.03-.55,0-1.01.37-1.14.87h0c-.15.56-.23,1.2-.23,1.86,0,4.11,3.33,7.44,7.44,7.45h.02c.66,0,1.29-.09,1.9-.25h-.05c.51-.12.88-.58.88-1.12,0-.65-.52-1.17-1.17-1.17-.11,0-.21.01-.31.04h0c-.38.1-.81.16-1.26.16-2.81,0-5.09-2.28-5.09-5.09,0-.45.06-.89.17-1.3v.04c.02-.09.03-.19.03-.29,0-.55-.37-1-.87-1.14h0s0,0,0,0Z"/>
  <text class="cls-6" transform="translate(27.59 119.7)"><tspan class="cls-19"><tspan class="cls-25" x="0" y="0">A</tspan><tspan class="cls-31" x="16.29" y="0">c</tspan><tspan class="cls-3" x="28.06" y="0">i</tspan><tspan class="cls-1" x="33.59" y="0">d</tspan><tspan class="cls-8" x="48.29" y="0">e</tspan><tspan x="61.43" y="0">n</tspan><tspan class="cls-17" x="74.81" y="0">t</tspan><tspan class="cls-1" x="83.14" y="0">e</tspan><tspan x="96.38" y="0">s </tspan><tspan class="cls-1" x="112.56" y="0">d</tspan><tspan x="127.25" y="0">e </tspan><tspan class="cls-8" x="146.43" y="0">o</tspan><tspan class="cls-22" x="159.58" y="0">r</tspan><tspan class="cls-3" x="168.45" y="0">ige</tspan><tspan x="201.55" y="0">m </tspan></tspan><tspan class="cls-19"><tspan class="cls-7" x="0" y="28.78">e</tspan><tspan x="12.15" y="28.78">x</tspan><tspan class="cls-15" x="26.46" y="28.78">t</tspan><tspan class="cls-3" x="34.78" y="28.78">er</tspan><tspan class="cls-16" x="56.88" y="28.78">n</tspan><tspan x="70.03" y="28.78">a</tspan></tspan><tspan class="cls-29"><tspan class="cls-20" x="0" y="50.38">C</tspan><tspan class="cls-27" x="12.13" y="50.38">o</tspan><tspan class="cls-24" x="22.06" y="50.38">b</tspan><tspan class="cls-5" x="32.71" y="50.38">e</tspan><tspan class="cls-28" x="42.67" y="50.38">rtu</tspan><tspan class="cls-14" x="64.6" y="50.38">r</tspan><tspan x="70.43" y="50.38">a </tspan><tspan class="cls-24" x="85.21" y="50.38">a</tspan><tspan x="95.49" y="50.38">d</tspan><tspan class="cls-5" x="106.32" y="50.38">i</tspan><tspan class="cls-27" x="109.65" y="50.38">c</tspan><tspan class="cls-5" x="118.66" y="50.38">io</tspan><tspan class="cls-18" x="131.98" y="50.38">n</tspan><tspan class="cls-11" x="141.45" y="50.38">a</tspan><tspan x="152.03" y="50.38">l: </tspan><tspan class="cls-9" x="163.01" y="50.38">i</tspan><tspan class="cls-24" x="166.4" y="50.38">n</tspan><tspan class="cls-23" x="175.87" y="50.38">d</tspan><tspan class="cls-30" x="186.63" y="50.38">e</tspan><tspan x="196.6" y="50.38">ni</tspan><tspan class="cls-5" x="209.66" y="50.38">z</tspan><tspan class="cls-24" x="218.7" y="50.38">a</tspan><tspan class="cls-26" x="228.98" y="50.38">ç</tspan><tspan class="cls-18" x="238.03" y="50.38">ã</tspan><tspan x="248.31" y="50.38">o </tspan></tspan><tspan class="cls-29"><tspan class="cls-23" x="0" y="71.98">d</tspan><tspan x="10.76" y="71.98">e </tspan><tspan class="cls-14" x="25.14" y="71.98">r</tspan><tspan class="cls-5" x="30.97" y="71.98">e</tspan><tspan class="cls-24" x="40.93" y="71.98">p</tspan><tspan x="51.57" y="71.98">a</tspan><tspan class="cls-10" x="62.03" y="71.98">r</tspan><tspan x="67.86" y="71.98">o </tspan><tspan class="cls-18" x="82.26" y="71.98">p</tspan><tspan x="92.9" y="71.98">a</tspan><tspan class="cls-10" x="103.36" y="71.98">r</tspan><tspan x="109.19" y="71.98">a </tspan><tspan class="cls-2" x="123.97" y="71.98">d</tspan><tspan x="134.73" y="71.98">a</tspan><tspan class="cls-24" x="145.19" y="71.98">n</tspan><tspan class="cls-23" x="154.66" y="71.98">o</tspan><tspan x="164.67" y="71.98">s </tspan><tspan class="cls-18" x="176.72" y="71.98">o</tspan><tspan class="cls-26" x="186.62" y="71.98">c</tspan><tspan x="195.68" y="71.98">a</tspan><tspan class="cls-5" x="206.14" y="71.98">sio</tspan><tspan class="cls-18" x="227.1" y="71.98">na</tspan><tspan class="cls-23" x="246.84" y="71.98">do</tspan><tspan x="267.62" y="71.98">s </tspan></tspan><tspan class="cls-29"><tspan class="cls-18" x="0" y="93.58">p</tspan><tspan class="cls-5" x="10.64" y="93.58">o</tspan><tspan x="20.63" y="93.58">r </tspan><tspan class="cls-24" x="31.38" y="93.58">a</tspan><tspan class="cls-27" x="41.66" y="93.58">c</tspan><tspan class="cls-5" x="50.68" y="93.58">i</tspan><tspan class="cls-23" x="54.01" y="93.58">d</tspan><tspan class="cls-5" x="64.77" y="93.58">e</tspan><tspan x="74.74" y="93.58">n</tspan><tspan class="cls-21" x="84.38" y="93.58">t</tspan><tspan x="90.35" y="93.58">e </tspan><tspan class="cls-23" x="104.72" y="93.58">d</tspan><tspan x="115.49" y="93.58">e </tspan><tspan class="cls-5" x="129.86" y="93.58">o</tspan><tspan class="cls-26" x="139.85" y="93.58">r</tspan><tspan class="cls-5" x="146.17" y="93.58">ige</tspan><tspan x="169.95" y="93.58">m </tspan><tspan class="cls-4" x="190.26" y="93.58">e</tspan><tspan x="199.59" y="93.58">x</tspan><tspan class="cls-21" x="209.18" y="93.58">t</tspan><tspan class="cls-5" x="215.14" y="93.58">er</tspan><tspan class="cls-24" x="231.45" y="93.58">n</tspan><tspan x="240.92" y="93.58">a </tspan></tspan><tspan class="cls-29"><tspan class="cls-26" x="0" y="115.18">c</tspan><tspan class="cls-5" x="9.05" y="115.18">o</tspan><tspan class="cls-18" x="19.04" y="115.18">m</tspan><tspan x="34.86" y="115.18">o </tspan><tspan class="cls-13" x="49.26" y="115.18">i</tspan><tspan class="cls-18" x="52.65" y="115.18">n</tspan><tspan class="cls-26" x="62.12" y="115.18">c</tspan><tspan class="cls-5" x="71.17" y="115.18">ê</tspan><tspan class="cls-18" x="81.14" y="115.18">n</tspan><tspan x="90.6" y="115.18">d</tspan><tspan class="cls-5" x="101.43" y="115.18">i</tspan><tspan class="cls-24" x="104.76" y="115.18">o</tspan><tspan x="114.66" y="115.18">, </tspan><tspan class="cls-10" x="122.6" y="115.18">r</tspan><tspan x="128.43" y="115.18">a</tspan><tspan class="cls-30" x="138.89" y="115.18">i</tspan><tspan x="142.22" y="115.18">o e/</tspan><tspan class="cls-24" x="173.02" y="115.18">o</tspan><tspan x="182.92" y="115.18">u </tspan><tspan class="cls-4" x="196.52" y="115.18">e</tspan><tspan class="cls-24" x="205.86" y="115.18">x</tspan><tspan class="cls-27" x="215.26" y="115.18">p</tspan><tspan class="cls-23" x="225.93" y="115.18">los</tspan><tspan class="cls-24" x="246.97" y="115.18">ã</tspan><tspan x="257.25" y="115.18">o </tspan></tspan><tspan class="cls-29"><tspan x="0" y="136.78">e </tspan><tspan class="cls-9" x="14.37" y="136.78">i</tspan><tspan x="17.77" y="136.78">m</tspan><tspan class="cls-24" x="33.76" y="136.78">pa</tspan><tspan x="54.67" y="136.78">c</tspan><tspan class="cls-21" x="63.85" y="136.78">t</tspan><tspan x="69.81" y="136.78">o </tspan><tspan class="cls-23" x="84.21" y="136.78">d</tspan><tspan x="94.98" y="136.78">e </tspan><tspan class="cls-12" x="109.35" y="136.78">v</tspan><tspan class="cls-18" x="118.12" y="136.78">e</tspan><tspan class="cls-5" x="128" y="136.78">íc</tspan><tspan class="cls-11" x="140.41" y="136.78">u</tspan><tspan class="cls-23" x="149.81" y="136.78">lo</tspan><tspan class="cls-13" x="163.19" y="136.78">s</tspan><tspan x="170.89" y="136.78">.</tspan></tspan></text>
</svg>