<?xml version="1.0" encoding="UTF-8"?>
<svg id="Layer_1" data-name="Layer 1" xmlns="http://www.w3.org/2000/svg" viewBox="0 0 366.28 305.38">
  <defs>
    <style>
      .cls-1 {
        letter-spacing: -.01em;
      }

      .cls-2 {
        letter-spacing: 0em;
      }

      .cls-3 {
        letter-spacing: 0em;
      }

      .cls-4 {
        letter-spacing: 0em;
      }

      .cls-5 {
        letter-spacing: -.04em;
      }

      .cls-6 {
        letter-spacing: -.01em;
      }

      .cls-7 {
        letter-spacing: -.08em;
      }

      .cls-8 {
        letter-spacing: -.02em;
      }

      .cls-9 {
        letter-spacing: 0em;
      }

      .cls-10 {
        letter-spacing: -.02em;
      }

      .cls-11 {
        font-family: UrbanistRoman-Bold, Urbanist;
        font-size: 23.99px;
        font-variation-settings: 'wght' 700;
        font-weight: 700;
      }

      .cls-11, .cls-12 {
        fill: #130044;
      }

      .cls-13 {
        letter-spacing: -.01em;
      }
    </style>
  </defs>
  <path class="cls-12" d="M337.15,8.99c11.1,0,20.13,9.03,20.13,20.14v247.12c0,11.1-9.03,20.14-20.13,20.14H29.13c-11.1,0-20.14-9.03-20.14-20.14V29.13c0-11.1,9.03-20.14,20.14-20.14h308.02M337.15,0H29.13C13.11,0,0,13.11,0,29.13v247.12C0,292.27,13.11,305.38,29.13,305.38h308.02c16.02,0,29.13-13.11,29.13-29.13V29.13C366.28,13.11,353.18,0,337.15,0h0Z"/>
  <text class="cls-11" transform="translate(27.59 274.19)"><tspan class="cls-7" x="0" y="0">T</tspan><tspan class="cls-10" x="13.29" y="0">e</tspan><tspan class="cls-2" x="26.25" y="0">l</tspan><tspan class="cls-1" x="31.88" y="0">e</tspan><tspan class="cls-3" x="45.02" y="0">me</tspan><tspan x="79.28" y="0">d</tspan><tspan class="cls-1" x="94.15" y="0">i</tspan><tspan class="cls-10" x="99.68" y="0">c</tspan><tspan class="cls-4" x="111.45" y="0">i</tspan><tspan class="cls-9" x="117.16" y="0">n</tspan><tspan x="130.31" y="0">a </tspan><tspan class="cls-5" x="150.43" y="0">v</tspan><tspan class="cls-13" x="163.53" y="0">et</tspan><tspan class="cls-1" x="185.01" y="0">e</tspan><tspan class="cls-8" x="198.15" y="0">r</tspan><tspan class="cls-4" x="207.02" y="0">i</tspan><tspan class="cls-9" x="212.73" y="0">n</tspan><tspan x="225.87" y="0">á</tspan><tspan class="cls-8" x="240.24" y="0">r</tspan><tspan class="cls-6" x="249.1" y="0">i</tspan><tspan x="254.63" y="0">a</tspan></text>
  <polygon class="cls-12" points="338.69 262.6 330.04 262.6 330.04 253.95 324.38 253.95 324.38 262.6 315.73 262.6 315.73 268.27 324.38 268.27 324.38 276.92 330.04 276.92 330.04 268.27 338.69 268.27 338.69 262.6"/>
  <g>
    <path class="cls-12" d="M81.18,60.5v-28.46h-48.04v28.46l-5.55,12.95v4.78h59.14v-4.78l-5.55-12.95ZM29.39,76.43v-1.84h3.75v-1.8h-3.31l4.79-11.17h39.23v-1.8h-38.91v-25.98h44.44v25.98h-3.73v1.8h4.05l4.79,11.17h-38.38v1.8h38.82v1.84H29.39Z"/>
    <rect class="cls-12" x="34.95" y="72.79" width="1.92" height="1.8"/>
    <rect class="cls-12" x="38.67" y="72.79" width="1.8" height="1.8"/>
    <rect class="cls-12" x="42.39" y="72.79" width="1.8" height="1.8"/>
    <rect class="cls-12" x="35.91" y="63.54" width="1.8" height="1.8"/>
    <rect class="cls-12" x="38.67" y="63.54" width="1.8" height="1.8"/>
    <rect class="cls-12" x="41.43" y="63.54" width="1.8" height="1.8"/>
    <rect class="cls-12" x="44.19" y="63.54" width="1.92" height="1.8"/>
    <rect class="cls-12" x="46.95" y="63.54" width="1.92" height="1.8"/>
    <rect class="cls-12" x="49.72" y="63.54" width="1.92" height="1.8"/>
    <rect class="cls-12" x="52.48" y="63.54" width="1.92" height="1.8"/>
    <rect class="cls-12" x="55.36" y="63.54" width="1.8" height="1.8"/>
    <rect class="cls-12" x="58.12" y="63.54" width="1.8" height="1.8"/>
    <rect class="cls-12" x="60.89" y="63.54" width="1.8" height="1.8"/>
    <rect class="cls-12" x="63.65" y="63.54" width="1.8" height="1.8"/>
    <rect class="cls-12" x="66.41" y="63.54" width="1.8" height="1.8"/>
    <rect class="cls-12" x="33.99" y="66.3" width="1.92" height="1.8"/>
    <rect class="cls-12" x="36.87" y="66.3" width="1.8" height="1.8"/>
    <rect class="cls-12" x="39.63" y="66.3" width="1.8" height="1.8"/>
    <rect class="cls-12" x="42.39" y="66.3" width="1.8" height="1.8"/>
    <rect class="cls-12" x="45.15" y="66.3" width="1.8" height="1.8"/>
    <rect class="cls-12" x="47.92" y="66.3" width="1.8" height="1.8"/>
    <rect class="cls-12" x="50.68" y="66.3" width="1.8" height="1.8"/>
    <rect class="cls-12" x="53.44" y="66.3" width="1.92" height="1.8"/>
    <rect class="cls-12" x="56.2" y="66.3" width="1.92" height="1.8"/>
    <rect class="cls-12" x="58.96" y="66.3" width="1.92" height="1.8"/>
    <rect class="cls-12" x="61.85" y="66.3" width="1.8" height="1.8"/>
    <rect class="cls-12" x="64.61" y="66.3" width="1.8" height="1.8"/>
    <rect class="cls-12" x="67.37" y="66.3" width="1.8" height="1.8"/>
    <rect class="cls-12" x="71.09" y="63.54" width="1.8" height="1.8"/>
    <rect class="cls-12" x="73.85" y="63.54" width="1.8" height="1.8"/>
    <rect class="cls-12" x="76.62" y="63.54" width="1.8" height="1.8"/>
    <rect class="cls-12" x="72.89" y="66.3" width="1.8" height="1.8"/>
    <rect class="cls-12" x="75.66" y="66.3" width="1.8" height="1.8"/>
    <rect class="cls-12" x="78.42" y="66.3" width="1.92" height="1.8"/>
    <rect class="cls-12" x="74.7" y="69.07" width="1.92" height="1.8"/>
    <rect class="cls-12" x="77.46" y="69.07" width="1.92" height="1.8"/>
    <rect class="cls-12" x="80.34" y="69.07" width="1.8" height="1.8"/>
    <rect class="cls-12" x="42.39" y="69.07" width="18.49" height="1.8"/>
    <rect class="cls-12" x="61.85" y="69.07" width="3.6" height="1.8"/>
    <rect class="cls-12" x="66.41" y="69.07" width="3.72" height="1.8"/>
    <rect class="cls-12" x="33.14" y="69.07" width="3.72" height="1.8"/>
    <rect class="cls-12" x="37.71" y="69.07" width="3.72" height="1.8"/>
    <rect class="cls-12" x="56.2" y="34.84" width="1.92" height="1.8"/>
    <polygon class="cls-12" points="78.42 34.84 59.92 34.84 59.92 36.64 76.62 36.64 76.62 57.06 37.71 57.06 37.71 36.64 54.4 36.64 54.4 34.84 35.91 34.84 35.91 58.86 78.42 58.86 78.42 34.84"/>
    <polygon class="cls-12" points="38.67 49.61 38.67 56.1 43.23 56.1 43.23 54.29 40.47 54.29 40.47 49.61 38.67 49.61"/>
    <rect class="cls-12" x="45.15" y="54.29" width="1.8" height="1.8"/>
    <path class="cls-12" d="M53.44,50.35c-1.12-.12-1.68-.66-1.8-.86-.2-.33-.11-.95.25-1.69.35-.72.42-1.07.25-1.31-.1-.13-.25-.19-.42-.17-.22.03-.49.24-.8.61-.28.34-.5.72-.62,1.04-.22.64-.25,1.27-.06,1.83.22.67.72,1.21,1.49,1.6,1.6.82,3.11.94,4.38.94h.71c.22.31.57.49.95.49h3.27c.11,0,.22-.06.29-.15.03-.04.05-.08.06-.13.22.18.49.28.78.28h.8c.19,0,.35-.16.35-.35,0-.57-.39-1.07-.94-1.2l-.58-3.72c.1-.39.33-.82.69-1.27.2-.26.34-.56.42-.87.32-.1.8-.41.99-1.29,0-.03,0-.06,0-.08-.04-1.64.18-3.03.27-3.56.03-.18.02-.36-.03-.54l-.14-.47c-.06-.2-.2-.37-.38-.46-.18-.09-.4-.11-.6-.04-.25.09-.44.31-.49.57l-.62,3.23-.92-1.04.17-.46c.14-.36.11-.77-.07-1.11-.18-.33-.51-.55-.88-.58l-.51-.04c-.33-.02-.65.07-.91.24l-.62.41-1.05-.35c-.12-.04-.26,0-.35.08-.09.09-.13.22-.1.34l.5,1.88c.09.36.23.71.4,1.03l.35.66c-1.89.9-3.19,2.74-3.41,4.82l-.1.93c-.02.22-.14.42-.32.56-.18.14-.41.2-.65.17ZM63.23,39.68s.02-.04.04-.04c.02,0,.03,0,.05,0,.01,0,.02.02.03.04l.14.47c.02.07.02.15.01.22-.1.54-.32,1.96-.28,3.64-.06.27-.16.45-.25.56-.05-.41-.21-.79-.46-1.12l.73-3.76ZM60.44,51.55c-.86-.19-1.28-.35-1.47-.44.34-.46.55-.96.61-1.46l.33-.28.99,2.38c-.14-.09-.29-.16-.46-.2ZM54.51,50.73c.33-.25.54-.62.59-1.04l.1-.93c.2-1.86,1.36-3.48,3.04-4.28l.12.23c.09.17.3.24.47.15.08-.04.14-.12.17-.21.03-.09.02-.18-.02-.27l-.79-1.51c-.15-.28-.26-.58-.34-.89l-.33-1.25.6.2c.1.04.22.02.31-.04l.76-.51c.14-.09.3-.14.48-.13l.51.04c.13,0,.25.08.32.21.09.17.1.36.03.54l-.09.24c-.05.14-.18.25-.33.27l-1.04.19c-.09.02-.17.07-.23.15-.05.08-.07.17-.06.26.03.17.17.29.34.29.02,0,.05,0,.06,0l1.04-.19c.08-.01.15-.04.23-.07l1.42,1.61c.52.59.55,1.47.07,2.09-.04.04-.07.09-.1.13v-.19c0-.09-.03-.18-.09-.25-.06-.07-.15-.11-.25-.11-.18,0-.35.15-.36.34-.04,1.79-.04,1.8-.04,1.81l.63,4.04c.02.15.14.27.29.29l.14.02c.13.02.25.08.33.18h-.33c-.21,0-.41-.13-.49-.33l-2.29-5.47c-.04-.09-.1-.15-.19-.19-.04-.02-.09-.03-.13-.03s-.09,0-.13.03c-.18.07-.26.28-.19.46l.87,2.08-.1.08c-.14-.59-.49-1.08-.98-1.39-1.12-.7-2.77.36-2.84.41-.08.05-.13.13-.15.22-.02.09,0,.19.05.26.05.08.13.13.22.15.09.02.18,0,.26-.05.35-.22,1.48-.78,2.09-.4.38.24.64.64.7,1.12.09.6-.14,1.24-.65,1.8-.07.08-.1.2-.08.3.06.29.33.49.94.7.25.09.53.17.79.23h-2.1c-.22,0-.41-.16-.45-.38l-.24-1.27c-.04-.19-.21-.32-.41-.28-.09.02-.17.07-.22.15s-.07.17-.06.26l.19,1.02h-.47c-1.24,0-2.59-.1-4.06-.86-.6-.31-.99-.71-1.15-1.2-.13-.41-.11-.88.06-1.38.02-.05.04-.1.06-.15-.21.6-.3,1.27.02,1.79.21.35.97,1.05,2.32,1.19.42.05.82-.07,1.15-.31Z"/>
  </g>
</svg>