<?xml version="1.0" encoding="UTF-8"?>
<svg id="Layer_1" data-name="Layer 1" xmlns="http://www.w3.org/2000/svg" viewBox="0 0 366.28 305.38">
  <defs>
    <style>
      .cls-1 {
        letter-spacing: -.04em;
      }

      .cls-2 {
        letter-spacing: -.02em;
      }

      .cls-3 {
        letter-spacing: -.01em;
      }

      .cls-4 {
        letter-spacing: 0em;
      }

      .cls-5 {
        font-family: UrbanistRoman-Bold, Urbanist;
        font-size: 16px;
        font-variation-settings: 'wght' 700;
        font-weight: 700;
      }

      .cls-5, .cls-6 {
        fill: #130044;
      }

      .cls-7 {
        letter-spacing: 0em;
      }

      .cls-8 {
        letter-spacing: -.01em;
      }
    </style>
  </defs>
  <path class="cls-6" d="M337.15,8.99c11.1,0,20.13,9.03,20.13,20.14v247.12c0,11.1-9.03,20.13-20.13,20.13H29.13c-11.1,0-20.13-9.03-20.13-20.13V29.13c0-11.1,9.03-20.14,20.13-20.14h308.02M337.15,0H29.13C13.11,0,0,13.11,0,29.13v247.12C0,292.27,13.11,305.38,29.13,305.38h308.02c16.02,0,29.13-13.11,29.13-29.13V29.13C366.28,13.11,353.18,0,337.15,0h0Z"/>
  <text class="cls-5" transform="translate(27.59 273.49)"><tspan class="cls-2" x="0" y="0">D</tspan><tspan x="10.5" y="0">a</tspan><tspan class="cls-8" x="20.09" y="0">n</tspan><tspan class="cls-7" x="28.86" y="0">o</tspan><tspan x="37.7" y="0">s </tspan><tspan class="cls-8" x="48.49" y="0">a</tspan><tspan x="57.91" y="0">o </tspan><tspan class="cls-3" x="70.71" y="0">j</tspan><tspan x="74.42" y="0">a</tspan><tspan class="cls-1" x="84.01" y="0">r</tspan><tspan x="89.57" y="0">d</tspan><tspan class="cls-4" x="99.49" y="0">i</tspan><tspan x="103.3" y="0">m</tspan></text>
  <polygon class="cls-6" points="338.69 262.6 330.04 262.6 330.04 253.95 324.38 253.95 324.38 262.6 315.73 262.6 315.73 268.27 324.38 268.27 324.38 276.92 330.04 276.92 330.04 268.27 338.69 268.27 338.69 262.6"/>
  <g id="garden">
    <path class="cls-6" d="M79.89,68.88c-1.06-.19-2.12-.06-3.12.25-.31-.56-.62-1.06-1.06-1.56v-6.49l2.74-2.18h.25c1,0,3.49-.25,4.99-2.74,1.75-2.93,1.37-7.8,1.37-7.98s-.12-.37-.31-.5-.37-.12-.56-.06c-.19.06-4.68,2-6.42,4.93-1.37,2.31-.69,4.49-.25,5.49l-1.81,1.43v-12.79c.94,1,2.06,1.93,2.25,2.12.12.12.25.12.37.12.06,0,.19,0,.25-.06.19-.06.37-.31.37-.5,0-.31.19-2.43,0-3.99.44.06.94.06,1.43.06,1.19,0,2.31-.12,2.56-.12s.44-.19.5-.37c.06-.19.06-.44-.12-.62-.19-.25-1.62-1.87-2.81-2.81,1.19-1,2.62-2.62,2.81-2.87.12-.19.19-.44.12-.62-.06-.19-.31-.37-.5-.37-.31,0-2.49-.19-3.99,0,.12-1.5,0-3.68-.06-3.99,0-.25-.19-.44-.37-.5-.19-.06-.44-.06-.62.12-.25.19-1.87,1.62-2.87,2.81-1-1.19-2.62-2.56-2.87-2.74-.19-.12-.44-.19-.62-.12s-.37.31-.37.5c0,.31-.19,2.43,0,3.99-1.56-.12-3.68,0-3.99.06-.25,0-.44.19-.5.37s-.06.44.12.62c.19.25,1.62,1.87,2.81,2.81-1.19,1-2.62,2.62-2.81,2.87-.12.19-.19.44-.12.62s.31.37.5.37,1.25.12,2.37.12c.56,0,1.12,0,1.62-.06-.12,1.5,0,3.68.06,3.99,0,.25.19.44.37.5.06.06.19.06.25.06.12,0,.31-.06.37-.12.19-.12,1.25-1.06,2.18-2.06v15.34l-1.81-1.43c.5-1,1.19-3.18-.25-5.49-1.56-2.56-5.24-4.43-6.17-4.86v-.25c0-.19-.12-.37-.31-.5s-.37-.12-.56-.06c-.19.06-4.62,2-6.36,4.93h0c-1.37,2.31-.69,4.49-.19,5.49l-1.75,1.31v-14.66c.94,1,2.06,1.93,2.25,2.06.12.12.25.12.37.12.06,0,.19,0,.25-.06.19-.06.37-.31.37-.5,0-.31.19-2.43,0-3.99.44.06.94.06,1.43.06,1.19,0,2.31-.12,2.49-.12.25,0,.44-.19.5-.37.06-.19.06-.44-.12-.62-.19-.25-1.62-1.87-2.81-2.81,1.19-1,2.56-2.62,2.74-2.87.12-.19.19-.44.12-.62s-.31-.37-.5-.37c-.31,0-2.43-.19-3.99,0,.12-1.5,0-3.68-.06-3.99,0-.25-.19-.44-.37-.5s-.44-.06-.62.12c-.25.19-1.87,1.62-2.81,2.81-1-1.19-2.62-2.56-2.87-2.74-.19-.12-.44-.19-.62-.12s-.37.31-.37.5c0,.31-.19,2.43,0,3.99-1.5-.12-3.68,0-3.99.06-.25,0-.44.19-.5.37-.06.19-.06.44.12.62.19.25,1.62,1.87,2.81,2.81-1.19,1-2.56,2.62-2.74,2.87-.12.19-.19.44-.12.62.06.19.31.37.5.37s1.25.12,2.37.12c.56,0,1.12,0,1.62-.06-.12,1.5,0,3.68.06,3.99,0,.25.19.44.37.5.06.06.19.06.25.06.12,0,.31-.06.37-.12.19-.12,1.25-1.06,2.18-2.06v18.34l-1.81-1.43c.44-1,1.12-3.18-.19-5.49h0c-1.56-2.62-5.36-4.49-6.17-4.86.19-1.75.06-3.18.06-3.31,0-.19-.12-.37-.31-.5s-.37-.12-.56-.06c-.19.06-4.68,2-6.42,4.93-1.37,2.31-.69,4.49-.25,5.49l-1.75,1.43v-14.66c.94,1,2.06,1.93,2.25,2.12.12.12.25.12.37.12.06,0,.19,0,.25-.06.19-.06.37-.31.37-.5,0-.31.19-2.43,0-3.99.44.06.94.06,1.43.06,1.19,0,2.31-.12,2.56-.12s.44-.19.5-.37.06-.44-.12-.62c-.19-.25-1.62-1.87-2.81-2.81,1.19-1,2.62-2.62,2.81-2.87.12-.19.19-.44.12-.62s-.31-.37-.5-.37c-.31,0-2.49-.19-3.99,0,.12-1.5,0-3.68-.06-3.99,0-.25-.19-.44-.37-.5-.19-.06-.44-.06-.62.12-.25.19-1.87,1.62-2.87,2.81-1-1.19-2.62-2.56-2.87-2.74-.19-.12-.44-.19-.62-.12s-.37.31-.37.5c0,.31-.19,2.43,0,3.99-1.56-.12-3.68,0-3.99.06-.25,0-.44.19-.5.37s-.06.44.12.62c.19.25,1.62,1.87,2.81,2.81-1.19,1-2.62,2.62-2.81,2.87-.12.19-.19.44-.12.62s.31.37.5.37,1.25.12,2.37.12c.56,0,1.12,0,1.62-.06-.12,1.5,0,3.68.06,3.99,0,.25.19.44.37.5.06.06.19.06.25.06.12,0,.31-.06.37-.12.19-.12,1.25-1.06,2.18-2.06v18.34l-1.81-1.43c.5-1,1.19-3.18-.25-5.49-1.75-2.93-6.24-4.86-6.42-4.93-.19-.06-.37-.06-.56.06-.19.12-.31.31-.31.5s-.37,5.05,1.37,7.98c1.5,2.49,3.99,2.74,4.99,2.74h.25l2.74,2.18v2.68c-.44.44-.75,1-1.06,1.56-1-.37-2.06-.44-3.12-.25-2.93.44-5.11,3.06-5.11,6.17v.62c0,.37.25.62.62.62h56.13c.37,0,.62-.25.62-.62v-2.43c0-3.12-2.18-5.8-5.18-6.3ZM78.83,53.22c1.12-1.87,3.68-3.37,4.99-4.05,0,1.5-.06,4.43-1.19,6.3-1.19,1.93-3.12,2.18-3.87,2.18-.37-.62-1.12-2.49.06-4.43ZM30.12,61.14c-1.12-1.87-1.25-4.86-1.19-6.3,1.31.69,3.87,2.18,4.99,4.05,1.19,1.93.44,3.8.06,4.43-.75-.06-2.68-.25-3.87-2.18ZM73.97,41.68h0q-.06,0,0,0l-.06-.06c-.12-.12-.25-.31-.31-.5s-.12-.37-.12-.56v-.06h0v-.06c0-.37.19-.75.44-1.06v-.06h0c.12-.12.31-.25.5-.31s.37-.12.56-.12h.19c.37,0,.81.19,1.06.44h0c.12.12.25.31.31.5s.12.37.12.56v.06h0v.06c0,.37-.19.75-.44,1.06v.06h0c-.12.12-.31.25-.5.31s-.37.12-.56.12h-.12c-.37.06-.75-.06-1.06-.37ZM77.83,46.98c-.81-.75-1.87-1.75-2.18-2.37,0,0,0-.06-.06-.06-.06-.12-.06-.25-.12-.37v-.12c0-.06,0-.19-.06-.25v-.44h0l.75-.19c.25-.12.44-.25.62-.37h0c.06.06.19.12.25.25l.06.06c.06.06.19.19.25.31h0c.06.12.12.25.19.37v.06c.37.56.37,2,.31,3.12ZM81.64,43.18c-1,.06-2.25.06-2.93-.06,0,0,0-.06-.06-.06-.06-.06-.06-.12-.12-.25,0-.06-.06-.06-.06-.12-.06-.06-.12-.19-.19-.25,0,0,0-.06-.06-.06-.06-.12-.19-.19-.25-.25l-.06-.06c-.06-.06-.12-.12-.19-.19l-.06-.06c.06-.12.12-.31.19-.44h.5c.19,0,.37,0,.56-.06h.12c.19-.06.31-.06.5-.12.56.44,1.43,1.25,2.12,2ZM81.64,37.81c-.75.81-1.75,1.81-2.37,2.12,0,0-.06,0-.06.06h0c-.12.06-.25.06-.37.12h-.12c-.06,0-.19,0-.25.06h-.44c-.06-.25-.12-.5-.19-.69-.12-.25-.25-.44-.37-.62h0c.06-.12.12-.19.25-.25l.06-.06c.06-.06.19-.19.31-.25h0c.12-.06.25-.12.37-.19h.06c.56-.37,2-.37,3.12-.31ZM77.77,34.01c.06,1,.06,2.18-.06,2.93,0,0-.06,0-.06.06-.06.06-.19.06-.25.12-.06,0-.06.06-.12.06-.06.06-.19.12-.25.19l-.06.06c-.12.06-.19.19-.25.25l-.06.06c-.06.06-.12.12-.19.19l-.06.06c-.12-.06-.31-.12-.5-.19v-.5c0-.19,0-.37-.06-.56v-.06c-.06-.12-.06-.31-.12-.44.44-.69,1.31-1.56,2.06-2.25ZM72.35,34.01c.81.75,1.87,1.75,2.18,2.37,0,0,0,.06.06.06.06.12.06.25.12.37v.12c0,.06,0,.19.06.25v.44h0l-.75.19c-.25.12-.44.25-.62.37h0c-.06-.06-.19-.12-.25-.19l-.06-.06c-.06-.06-.19-.19-.25-.31h0c-.06-.12-.12-.25-.19-.37v-.06c-.37-.62-.37-2.06-.31-3.18ZM68.54,37.88c1-.06,2.25-.06,2.93.06,0,0,0,.06.06.06.06.06.06.12.12.25,0,.06.06.06.06.12.06.06.12.19.19.25,0,0,0,.06.06.06.06.12.19.19.25.25l.06.06c.06.06.12.12.19.19l.06.06c-.06.12-.12.31-.19.44h-.5c-.19,0-.37,0-.56.06h-.06c-.19.06-.31.06-.5.12-.62-.44-1.5-1.31-2.18-2ZM68.54,43.24c.75-.81,1.75-1.81,2.37-2.12,0,0,.06,0,.06-.06h0c.12-.06.25-.06.37-.12h.87c.06.25.12.5.19.69.12.25.25.44.37.62h0c-.06.06-.12.19-.19.25l-.06.06c-.06.06-.12.12-.19.19l-.06.06c-.12.06-.25.12-.37.19h-.06c-.75.25-2.12.25-3.31.25ZM72.41,47.05c-.06-1-.06-2.18.06-2.93,0,0,.06,0,.06-.06.06-.06.19-.06.25-.12.06,0,.06-.06.12-.06.12-.06.19-.12.25-.19h.06c.12-.06.19-.19.25-.25l.06-.06c.06-.06.12-.12.19-.19l.06-.06c.12.06.31.12.5.19v.5c0,.19,0,.37.06.56v.12c.06.12.06.31.12.44-.44.56-1.31,1.43-2.06,2.12ZM66.36,51.79c1.31.69,3.87,2.18,4.99,4.05,1.19,1.93.44,3.8.06,4.43-.75,0-2.68-.19-3.87-2.18-1.12-1.87-1.19-4.86-1.19-6.3ZM60.12,55.09h0c1.12-1.87,3.62-3.37,4.93-4.05,0,1.5-.06,4.43-1.19,6.3-1.19,2-3.12,2.18-3.87,2.18-.31-.62-1.06-2.49.12-4.43ZM59.75,60.77h.25c.94,0,3.43-.25,4.93-2.74.31-.5.5-1,.69-1.62.19.81.5,1.62.94,2.31,1.5,2.49,3.99,2.74,4.99,2.74h.25l2.74,2.18v2.87c-1.25-.87-2.74-1.37-4.37-1.37-3.62,0-6.67,2.56-7.36,5.93-.75-.31-1.56-.44-2.37-.44-1.37.12-2.56.75-3.43,1.75v-9.42l2.74-2.18ZM55.26,41.68h0l-.06-.06c-.12-.12-.25-.31-.31-.5s-.12-.37-.12-.56v-.06h0v-.06c0-.37.19-.75.44-1.06v-.06h0c.12-.12.31-.25.5-.31s.37-.12.56-.12h.12c.37,0,.75.19,1.06.44h0c.12.12.25.31.31.5s.12.37.12.56v.06h0v.06c0,.37-.19.75-.44,1.06v.06h0c-.12.12-.31.25-.5.31s-.37.12-.56.12h-.12c-.31.06-.69-.06-1-.37ZM59.12,46.98c-.81-.75-1.81-1.75-2.12-2.37,0,0,0-.06-.06-.06-.06-.12-.06-.25-.12-.37v-.12c0-.06,0-.19-.06-.25v-.44h0c.25-.06.5-.12.69-.19.25-.12.44-.25.62-.37h0c.06.06.19.12.25.25,0,0,0,.06.06.06.06.06.19.19.25.31h0c.06.12.12.25.19.37v.06c.31.56.31,2,.31,3.12ZM62.87,43.18c-1,.06-2.18.06-2.93-.06,0,0,0-.06-.06-.06-.06-.06-.06-.12-.12-.25,0-.06-.06-.06-.06-.12-.06-.06-.12-.19-.19-.25l-.06-.06c-.06-.12-.19-.19-.25-.25l-.06-.06c-.06-.06-.12-.12-.19-.19l-.06-.06c.06-.12.12-.31.19-.44h.5c.19,0,.37,0,.56-.06h.12c.12-.06.31-.06.44-.12.62.44,1.5,1.25,2.18,2ZM62.87,37.81c-.75.81-1.75,1.81-2.37,2.12,0,0-.06,0-.06.06h0c-.12.06-.25.06-.37.12h-.12c-.06,0-.19,0-.25.06h-.44c-.06-.25-.12-.5-.19-.69-.12-.25-.25-.44-.37-.62h0c.06-.06.12-.19.25-.25l.06-.06c.06-.06.19-.19.31-.25h0l.37-.19h.06c.56-.37,2-.37,3.12-.31ZM59.06,34.01c.06,1,.06,2.18-.06,2.93,0,0-.06,0-.06.06-.06.06-.12.06-.25.12-.06,0-.06.06-.12.06-.06.06-.19.12-.25.19l-.06.06c-.12.06-.19.19-.25.25l-.06.06c-.06.06-.12.12-.19.19l-.06.06c-.12-.06-.31-.12-.44-.19v-.5c0-.19,0-.37-.06-.56v-.12c-.06-.12-.06-.31-.12-.44.37-.62,1.25-1.5,2-2.18ZM53.63,34.07c.81.75,1.81,1.75,2.12,2.37,0,0,0,.06.06.06.06.12.06.25.12.37v.12c0,.06,0,.19.06.25v.44h0c-.25.06-.5.12-.69.19-.25.12-.44.25-.62.37h0c-.06-.06-.19-.12-.25-.25l-.06-.06c-.06-.06-.19-.19-.25-.31h0c-.06-.12-.12-.25-.19-.37v-.06c-.31-.62-.31-2-.31-3.12ZM49.89,37.88c1-.06,2.18-.06,2.93.06,0,0,0,.06.06.06.06.06.06.12.12.25,0,.06.06.06.06.12.06.06.12.19.19.25l.06.06c.06.12.19.19.25.25l.06.06c.06.06.12.12.19.19l.06.06c-.06.12-.12.31-.19.44h-.5c-.19,0-.37,0-.56.06h-.06c-.12.06-.31.06-.44.12-.69-.44-1.56-1.31-2.25-2ZM49.89,43.24c.75-.81,1.75-1.81,2.37-2.12,0,0,.06,0,.06-.06.12-.06.25-.06.37-.12h.12c.06,0,.19,0,.25-.06h.44c.06.25.12.5.19.69.12.25.25.44.37.62h0c-.06.06-.12.19-.19.25l-.06.06c-.06.06-.12.12-.19.19l-.06.06c-.12.06-.19.12-.31.19h-.06c-.75.31-2.18.31-3.31.31ZM53.7,46.98c-.06-1-.06-2.18.06-2.93,0,0,.06,0,.06-.06.06-.06.12-.06.25-.12.06,0,.06-.06.12-.06.06-.06.19-.12.25-.19,0,0,.06,0,.06-.06.12-.06.19-.19.25-.25l.06-.06c.06-.06.12-.12.19-.19l.06-.06c.12.06.31.12.44.19v.5c0,.19,0,.37.06.56v.06c.06.12.06.31.12.44-.37.75-1.25,1.62-2,2.25ZM47.71,54.78c1.31.69,3.8,2.18,4.93,4.05,1.19,1.93.44,3.8.06,4.43-.75,0-2.68-.25-3.8-2.18-1.06-1.81-1.19-4.8-1.19-6.3ZM41.41,55.09c1.12-1.87,3.68-3.37,4.99-4.05,0,1.5-.06,4.43-1.19,6.3-1.19,1.93-3.12,2.18-3.87,2.18-.37-.62-1.12-2.49.06-4.43ZM41.04,60.77h.25c1,0,3.49-.25,4.99-2.74.12-.19.25-.44.31-.62.19,1.5.5,3.12,1.25,4.37,1.5,2.49,3.99,2.74,4.93,2.74h.25l2.74,2.18v7.55c-.87-1-2.06-1.62-3.43-1.75-.81-.06-1.62.06-2.37.44-.62-3.43-3.68-5.93-7.3-5.93-1.62,0-3.12.5-4.37,1.37v-5.43l2.74-2.18ZM36.55,41.68h0q-.06,0,0,0l-.06-.06c-.12-.12-.25-.31-.31-.5s-.12-.37-.12-.56v-.06h0v-.06c0-.37.19-.75.44-1.06v-.06h0c.12-.12.31-.25.5-.31s.37-.12.56-.12h.19c.37,0,.81.19,1.06.44h0c.12.12.25.31.31.5s.12.37.12.56v.06h0v.06c0,.37-.19.75-.44,1.06v.06h0c-.12.12-.31.25-.5.31s-.37.12-.56.12h-.12c-.37.06-.75-.06-1.06-.37ZM40.41,46.98c-.81-.75-1.87-1.75-2.18-2.37,0,0,0-.06-.06-.06-.06-.12-.06-.25-.12-.37v-.12c0-.06,0-.19-.06-.25v-.44h0c.25-.06.5-.12.75-.19.25-.12.44-.25.62-.37h0c.06.06.19.12.25.25l.06.06c.06.06.19.19.25.31h0c.06.12.12.25.19.37v.06c.37.56.37,2,.31,3.12ZM44.22,43.18c-1,.06-2.25.06-2.93-.06,0,0,0-.06-.06-.06-.06-.06-.06-.12-.12-.25,0-.06-.06-.06-.06-.12-.06-.06-.12-.19-.19-.25,0,0,0-.06-.06-.06-.06-.12-.19-.19-.25-.25l-.06-.06-.19-.19-.06-.06c.06-.12.12-.31.19-.44h.5c.19,0,.37,0,.56-.06h.12c.19-.06.31-.06.5-.12.56.44,1.43,1.25,2.12,2ZM44.22,37.81c-.75.81-1.75,1.81-2.37,2.12,0,0-.06,0-.06.06h0c-.12.06-.25.06-.37.12h-.12c-.06,0-.19,0-.25.06h-.44c-.06-.25-.12-.5-.19-.69-.12-.25-.25-.44-.37-.62h0c.06-.12.12-.19.25-.25l.06-.06c.06-.06.19-.19.31-.25h0c.12-.06.25-.12.37-.19h.06c.56-.37,1.93-.37,3.12-.31ZM40.35,34.01c.06,1,.06,2.18-.06,2.93,0,0-.06,0-.06.06-.06.06-.19.06-.25.12-.06,0-.06.06-.12.06-.06.06-.19.12-.25.19l-.06.06c-.12.06-.19.19-.25.25l-.06.06-.19.19-.06.06c-.12-.06-.31-.12-.5-.19v-.5c0-.19,0-.37-.06-.56v-.06c-.06-.12-.06-.31-.12-.44.44-.69,1.31-1.56,2.06-2.25ZM34.92,34.01c.81.75,1.87,1.75,2.18,2.37,0,0,0,.06.06.06.06.12.06.25.12.37v.12c0,.06,0,.19.06.25v.44h0c-.25.06-.5.12-.75.19-.25.12-.44.25-.62.37h0c-.06-.06-.19-.12-.25-.19l-.06-.06c-.06-.06-.19-.19-.25-.31h0c-.06-.12-.12-.25-.19-.37v-.06c-.37-.62-.37-2.06-.31-3.18ZM31.12,37.88c1-.06,2.25-.06,2.93.06,0,0,0,.06.06.06.06.06.06.12.12.25,0,.06.06.06.06.12.06.06.12.19.19.25,0,0,0,.06.06.06.06.12.19.19.25.25l.06.06c.06.06.12.12.19.19l.06.06c-.06.12-.12.31-.19.44h-.5c-.19,0-.37,0-.56.06h-.06c-.19.06-.31.06-.5.12-.62-.44-1.5-1.31-2.18-2ZM31.12,43.24c.75-.81,1.75-1.81,2.37-2.12,0,0,.06,0,.06-.06h0c.12-.06.25-.06.37-.12h.87c.06.25.12.5.19.69.12.25.25.44.37.62h0c-.06.06-.12.19-.19.25l-.06.06c-.06.06-.12.12-.19.19l-.06.06c-.12.06-.25.12-.37.19h-.06c-.75.25-2.12.25-3.31.25ZM34.99,47.05c-.06-1-.06-2.18.06-2.93,0,0,.06,0,.06-.06.06-.06.19-.06.25-.12.06,0,.06-.06.12-.06.12-.06.19-.12.25-.19h.06c.12-.06.19-.19.25-.25l.06-.06.19-.19.06-.06c.12.06.31.12.5.19v.5c0,.19,0,.37.06.56v.12c.06.12.06.31.12.44-.44.56-1.31,1.43-2.06,2.12ZM28.94,76.98c0-2.43,1.75-4.62,4.12-4.99,1-.19,2.06-.06,2.99.37.12.06.31.06.5,0s.31-.19.37-.31c.94-2.31,3.24-3.8,5.8-3.8,3.31,0,5.99,2.49,6.24,5.74,0,.25.12.44.37.5.19.12.44.06.62-.06.69-.5,1.56-.75,2.43-.69,1.75.12,3.18,1.5,3.43,3.24h-26.88ZM83.82,76.98h-26.82v-1.25c0-2.06,1.56-3.74,3.49-3.87.87-.06,1.68.19,2.43.69.19.12.44.12.62.06s.31-.31.37-.5c.19-3.24,2.87-5.74,6.17-5.74,2.56,0,4.8,1.5,5.8,3.8.06.19.19.31.37.31.19.06.31.06.5,0,.94-.44,2-.56,2.99-.37,2.37.37,4.12,2.56,4.12,5.05v1.81h-.06Z"/>
  </g>
</svg>