<?xml version="1.0" encoding="UTF-8"?>
<svg id="Layer_1" data-name="Layer 1" xmlns="http://www.w3.org/2000/svg" viewBox="0 0 366.28 305.38">
  <defs>
    <style>
      .cls-1 {
        letter-spacing: 0em;
      }

      .cls-2 {
        letter-spacing: -.02em;
      }

      .cls-3 {
        letter-spacing: 0em;
      }

      .cls-4 {
        letter-spacing: 0em;
      }

      .cls-5 {
        fill: #fff;
      }

      .cls-6 {
        letter-spacing: -.01em;
      }

      .cls-7 {
        letter-spacing: 0em;
      }

      .cls-8 {
        font-family: UrbanistRoman-Bold, Urbanist;
        font-size: 20px;
        font-variation-settings: 'wght' 700;
        font-weight: 700;
      }

      .cls-9 {
        letter-spacing: -.03em;
      }

      .cls-10 {
        letter-spacing: -.02em;
      }

      .cls-11 {
        letter-spacing: 0em;
      }

      .cls-12 {
        letter-spacing: 0em;
      }

      .cls-13 {
        letter-spacing: -.02em;
      }

      .cls-14 {
        letter-spacing: -.03em;
      }

      .cls-15 {
        letter-spacing: -.03em;
      }

      .cls-16 {
        letter-spacing: -.02em;
      }

      .cls-17 {
        letter-spacing: -.01em;
      }

      .cls-18 {
        letter-spacing: -.01em;
      }

      .cls-19 {
        letter-spacing: 0em;
      }

      .cls-20 {
        letter-spacing: -.01em;
      }

      .cls-21 {
        letter-spacing: -.01em;
      }

      .cls-22 {
        letter-spacing: 0em;
      }

      .cls-23 {
        letter-spacing: 0em;
      }

      .cls-24 {
        letter-spacing: -.01em;
      }

      .cls-25 {
        letter-spacing: 0em;
      }

      .cls-26 {
        letter-spacing: 0em;
      }

      .cls-27 {
        font-family: Urbanist-Regular, Urbanist;
        font-size: 18px;
        font-variation-settings: 'wght' 400;
      }

      .cls-28 {
        letter-spacing: 0em;
      }

      .cls-29 {
        letter-spacing: -.04em;
      }

      .cls-30 {
        fill: #130044;
      }
    </style>
  </defs>
  <rect class="cls-30" x="0" y="0" width="366.28" height="305.38" rx="29.13" ry="29.13"/>
  <path class="cls-5" d="M30.35,37.12c-.17-.57-.06-1.18.3-1.65s.9-.75,1.5-.75c.83,0,1.55.53,1.79,1.33l5.46,17.88c.17.56.69.95,1.28.95h20.48c1.24,0,2.26,1.01,2.26,2.26v4.13s0,1.34,0,1.34h-10.11c-1.76-3.74-5.55-6.33-9.95-6.33-6.06,0-10.99,4.93-10.99,10.99s4.93,10.99,10.99,10.99c6.06,0,10.99-4.93,10.99-10.99,0-.68-.06-1.34-.18-1.98h9.25v6.2c-.02.21-.03.42-.03.63,0,3.38,2.75,6.14,6.14,6.14s6.14-2.75,6.14-6.14c0-3.38-2.75-6.14-6.14-6.14-1.27,0-2.45.39-3.43,1.05v-5.76h0v-4.13c0-2.72-2.21-4.93-4.93-4.93h-19.49s-1.99-6.5-1.99-6.5h12.61c1.63,0,2.96,1.33,2.96,2.96,0,.74.6,1.34,1.34,1.34s1.34-.6,1.34-1.34c0-3.11-2.53-5.63-5.63-5.63h-13.43s-2.37-7.76-2.37-7.76c-.59-1.93-2.34-3.22-4.35-3.22-1.45,0-2.78.67-3.65,1.83-.87,1.16-1.13,2.62-.72,4.01l5.46,18.4c.21.71.95,1.11,1.66.9.71-.21,1.11-.95.9-1.66l-5.46-18.4ZM51.67,67.24c0,4.58-3.73,8.31-8.31,8.31-4.58,0-8.31-3.73-8.31-8.31,0-4.58,3.73-8.31,8.31-8.31,4.58,0,8.31,3.73,8.31,8.31ZM66.06,72.16c.02-.09.03-.18.03-.28v-.24c.22-1.7,1.67-3.01,3.43-3.01,1.91,0,3.46,1.55,3.46,3.46,0,1.91-1.55,3.46-3.46,3.46-1.89,0-3.43-1.52-3.46-3.4Z"/>
  <text class="cls-5" transform="translate(27.59 116.71)"><tspan class="cls-8"><tspan x="0" y="0">I</tspan><tspan class="cls-16" x="5.44" y="0">n</tspan><tspan class="cls-29" x="16.14" y="0">v</tspan><tspan class="cls-11" x="27.06" y="0">a</tspan><tspan x="39.09" y="0">l</tspan><tspan class="cls-6" x="43.93" y="0">i</tspan><tspan class="cls-22" x="48.54" y="0">d</tspan><tspan class="cls-13" x="60.79" y="0">e</tspan><tspan x="71.66" y="0">z </tspan><tspan class="cls-24" x="86.6" y="0">p</tspan><tspan class="cls-6" x="98.78" y="0">o</tspan><tspan x="109.75" y="0">r </tspan><tspan class="cls-24" x="122.25" y="0">a</tspan><tspan class="cls-2" x="134.03" y="0">c</tspan><tspan class="cls-6" x="143.85" y="0">i</tspan><tspan class="cls-22" x="148.46" y="0">d</tspan><tspan class="cls-18" x="160.71" y="0">e</tspan><tspan x="171.67" y="0">n</tspan><tspan class="cls-21" x="182.83" y="0">t</tspan><tspan x="189.77" y="0">e</tspan></tspan><tspan class="cls-27"><tspan class="cls-25" x="0" y="43.2">G</tspan><tspan x="13.71" y="43.2">a</tspan><tspan class="cls-9" x="24.17" y="43.2">r</tspan><tspan x="30" y="43.2">an</tspan><tspan class="cls-20" x="50.1" y="43.2">t</tspan><tspan x="56.07" y="43.2">e o </tspan><tspan class="cls-19" x="84.84" y="43.2">pa</tspan><tspan class="cls-4" x="105.76" y="43.2">g</tspan><tspan x="116.24" y="43.2">a</tspan><tspan class="cls-19" x="126.7" y="43.2">m</tspan><tspan class="cls-4" x="142.51" y="43.2">e</tspan><tspan x="152.48" y="43.2">n</tspan><tspan class="cls-20" x="162.13" y="43.2">t</tspan><tspan x="168.09" y="43.2">o </tspan><tspan class="cls-23" x="182.49" y="43.2">d</tspan><tspan x="193.26" y="43.2">e u</tspan><tspan class="cls-24" x="216.92" y="43.2">m</tspan><tspan x="232.73" y="43.2">a </tspan></tspan><tspan class="cls-27"><tspan class="cls-7" x="0" y="64.8">i</tspan><tspan class="cls-24" x="3.39" y="64.8">n</tspan><tspan class="cls-3" x="12.86" y="64.8">d</tspan><tspan class="cls-4" x="23.62" y="64.8">e</tspan><tspan x="33.59" y="64.8">ni</tspan><tspan class="cls-4" x="46.66" y="64.8">z</tspan><tspan class="cls-24" x="55.69" y="64.8">a</tspan><tspan class="cls-25" x="65.97" y="64.8">ç</tspan><tspan class="cls-19" x="75.02" y="64.8">ã</tspan><tspan x="85.3" y="64.8">o </tspan><tspan class="cls-4" x="99.7" y="64.8">p</tspan><tspan class="cls-9" x="110.43" y="64.8">r</tspan><tspan class="cls-4" x="116.26" y="64.8">o</tspan><tspan class="cls-19" x="126.25" y="64.8">p</tspan><tspan class="cls-4" x="136.89" y="64.8">o</tspan><tspan class="cls-9" x="146.88" y="64.8">r</tspan><tspan class="cls-26" x="152.71" y="64.8">c</tspan><tspan class="cls-4" x="161.73" y="64.8">io</tspan><tspan class="cls-19" x="175.05" y="64.8">n</tspan><tspan class="cls-12" x="184.52" y="64.8">a</tspan><tspan x="195.09" y="64.8">l </tspan><tspan class="cls-24" x="202.83" y="64.8">a</tspan><tspan x="213.11" y="64.8">o g</tspan><tspan class="cls-15" x="238.09" y="64.8">r</tspan><tspan x="243.92" y="64.8">au </tspan></tspan><tspan class="cls-27"><tspan class="cls-23" x="0" y="86.4">d</tspan><tspan x="10.76" y="86.4">e </tspan><tspan class="cls-7" x="25.14" y="86.4">i</tspan><tspan class="cls-19" x="28.53" y="86.4">n</tspan><tspan class="cls-14" x="38" y="86.4">v</tspan><tspan class="cls-12" x="46.77" y="86.4">a</tspan><tspan x="57.35" y="86.4">l</tspan><tspan class="cls-4" x="60.77" y="86.4">i</tspan><tspan class="cls-23" x="64.1" y="86.4">d</tspan><tspan class="cls-10" x="74.86" y="86.4">e</tspan><tspan x="84.58" y="86.4">z </tspan><tspan class="cls-23" x="98.03" y="86.4">d</tspan><tspan class="cls-24" x="108.79" y="86.4">e</tspan><tspan class="cls-25" x="118.66" y="86.4">c</tspan><tspan class="cls-4" x="127.72" y="86.4">or</tspan><tspan class="cls-15" x="144.05" y="86.4">r</tspan><tspan class="cls-4" x="149.89" y="86.4">e</tspan><tspan x="159.85" y="86.4">n</tspan><tspan class="cls-20" x="169.5" y="86.4">t</tspan><tspan x="175.46" y="86.4">e </tspan><tspan class="cls-23" x="189.84" y="86.4">d</tspan><tspan x="200.6" y="86.4">e </tspan></tspan><tspan class="cls-27"><tspan class="cls-19" x="0" y="108">a</tspan><tspan class="cls-1" x="10.28" y="108">c</tspan><tspan class="cls-4" x="19.3" y="108">i</tspan><tspan class="cls-23" x="22.63" y="108">d</tspan><tspan class="cls-28" x="33.39" y="108">e</tspan><tspan x="43.35" y="108">n</tspan><tspan class="cls-17" x="53" y="108">t</tspan><tspan x="58.97" y="108">e </tspan><tspan class="cls-19" x="73.34" y="108">n</tspan><tspan x="82.81" y="108">o </tspan><tspan class="cls-25" x="97.21" y="108">c</tspan><tspan x="106.26" y="108">a</tspan><tspan class="cls-23" x="116.72" y="108">s</tspan><tspan x="124.39" y="108">o </tspan><tspan class="cls-25" x="138.79" y="108">c</tspan><tspan class="cls-26" x="147.84" y="108">o</tspan><tspan class="cls-24" x="157.77" y="108">b</tspan><tspan class="cls-4" x="168.42" y="108">e</tspan><tspan x="178.38" y="108">r</tspan><tspan class="cls-20" x="184.81" y="108">t</tspan><tspan x="190.78" y="108">o </tspan><tspan class="cls-19" x="205.18" y="108">p</tspan><tspan class="cls-1" x="215.82" y="108">e</tspan><tspan class="cls-23" x="225.72" y="108">l</tspan><tspan x="229.08" y="108">o </tspan></tspan><tspan class="cls-27"><tspan class="cls-23" x="0" y="129.6">s</tspan><tspan class="cls-19" x="7.67" y="129.6">e</tspan><tspan class="cls-25" x="17.54" y="129.6">g</tspan><tspan x="28" y="129.6">u</tspan><tspan class="cls-9" x="37.29" y="129.6">r</tspan><tspan class="cls-19" x="43.12" y="129.6">o</tspan><tspan x="53.02" y="129.6">.</tspan></tspan></text>
</svg>