<?xml version="1.0" encoding="UTF-8"?>
<svg id="Layer_1" data-name="Layer 1" xmlns="http://www.w3.org/2000/svg" viewBox="0 0 366.28 305.38">
  <defs>
    <style>
      .cls-1 {
        letter-spacing: 0em;
      }

      .cls-2 {
        letter-spacing: -.04em;
      }

      .cls-3 {
        letter-spacing: 0em;
      }

      .cls-4 {
        letter-spacing: -.01em;
      }

      .cls-5 {
        letter-spacing: -.04em;
      }

      .cls-6 {
        font-family: UrbanistRoman-Bold, Urbanist;
        font-size: 23.99px;
        font-variation-settings: 'wght' 700;
        font-weight: 700;
      }

      .cls-6, .cls-7 {
        fill: #130044;
      }

      .cls-8 {
        letter-spacing: -.01em;
      }
    </style>
  </defs>
  <path class="cls-7" d="M337.15,8.99c11.1,0,20.13,9.03,20.13,20.14v247.12c0,11.1-9.03,20.14-20.13,20.14H29.13c-11.1,0-20.13-9.03-20.13-20.14V29.13c0-11.1,9.03-20.14,20.13-20.14h308.02M337.15,0H29.13C13.11,0,0,13.11,0,29.13v247.12c0,16.02,13.11,29.13,29.13,29.13h308.02c16.02,0,29.13-13.11,29.13-29.13V29.13C366.28,13.11,353.18,0,337.15,0h0Z"/>
  <text class="cls-6" transform="translate(27.59 274.19)"><tspan class="cls-2" x="0" y="0">P</tspan><tspan class="cls-4" x="12.22" y="0">e</tspan><tspan class="cls-5" x="25.37" y="0">r</tspan><tspan class="cls-1" x="33.7" y="0">d</tspan><tspan x="48.39" y="0">a </tspan><tspan class="cls-8" x="68.52" y="0">tot</tspan><tspan class="cls-3" x="98.33" y="0">a</tspan><tspan x="112.76" y="0">l</tspan></text>
  <polygon class="cls-7" points="338.69 262.6 330.04 262.6 330.04 253.95 324.38 253.95 324.38 262.6 315.73 262.6 315.73 268.27 324.38 268.27 324.38 276.92 330.04 276.92 330.04 268.27 338.69 268.27 338.69 262.6"/>
  <g>
    <path class="cls-7" d="M45.38,59.71c.15.25.41.4.7.4h1.03v2.55h-3.97v-18.38h0v-.49c0-.45-.37-.82-.82-.82s-.82.37-.82.82v.24l-11,16.21c-.17.25-.19.57-.05.84.14.27.42.43.72.43h8.35c.45,0,.82-.37.82-.82s-.37-.82-.82-.82h-6.81l8.78-12.94v15.73h-1.97c-.45,0-.82.37-.82.82v1.97h-4.75c-.45,0-.82.37-.82.82v1.97h-4.75c-.26,0-.51.13-.66.34-.15.21-.2.49-.11.74l2.79,8.36c.11.33.42.56.77.56h17.55v-25.42l-3.38,6.11c-.14.25-.14.56.01.81ZM47.12,76.59h-15.33l-2.24-6.72h17.57v6.72ZM43.03,67.08h4.09v1.15h-12.32v-1.15h4.75c.45,0,.82-.37.82-.82v-1.97h6.75v1.15h-4.09c-.45,0-.82.37-.82.82s.37.82.82.82Z"/>
    <path class="cls-7" d="M79.26,68.66c-.14-.27-.42-.43-.72-.43h-20.17v-6.72h17.38c.3,0,.58-.17.72-.44.14-.27.12-.59-.05-.84l-18.06-26.33v-1.06c0-.45-.37-.82-.82-.82s-.82.37-.82.82v5.5l-.8,1.44v38.43h17.03c.27,0,.53-.14.68-.36l5.57-8.35c.17-.25.18-.57.04-.84ZM58.37,38.57h0v-1.78l15.84,23.09h-15.84v-21.31ZM72.53,76.59h-14.96v-6.72h19.44l-4.48,6.72Z"/>
  </g>
</svg>