<?xml version="1.0" encoding="UTF-8"?>
<svg id="Layer_1" data-name="Layer 1" xmlns="http://www.w3.org/2000/svg" viewBox="0 0 366.28 305.38">
  <defs>
    <style>
      .cls-1 {
        letter-spacing: -.01em;
      }

      .cls-2 {
        letter-spacing: 0em;
      }

      .cls-3 {
        letter-spacing: 0em;
      }

      .cls-4 {
        letter-spacing: 0em;
      }

      .cls-5 {
        letter-spacing: -.01em;
      }

      .cls-6 {
        letter-spacing: -.02em;
      }

      .cls-7 {
        letter-spacing: 0em;
      }

      .cls-8 {
        letter-spacing: 0em;
      }

      .cls-9 {
        letter-spacing: -.01em;
      }

      .cls-10 {
        letter-spacing: -.04em;
      }

      .cls-11 {
        letter-spacing: -.02em;
      }

      .cls-12 {
        font-family: UrbanistRoman-Bold, Urbanist;
        font-size: 23.99px;
        font-variation-settings: 'wght' 700;
        font-weight: 700;
      }

      .cls-12, .cls-13 {
        fill: #130044;
      }

      .cls-14 {
        letter-spacing: -.01em;
      }
    </style>
  </defs>
  <path class="cls-13" d="M337.15,8.99c11.1,0,20.13,9.03,20.13,20.14v247.12c0,11.1-9.03,20.14-20.13,20.14H29.13c-11.1,0-20.13-9.03-20.13-20.14V29.13c0-11.1,9.03-20.14,20.13-20.14h308.02M337.15,0H29.13C13.11,0,0,13.11,0,29.13v247.12c0,16.02,13.11,29.13,29.13,29.13h308.02c16.02,0,29.13-13.11,29.13-29.13V29.13C366.28,13.11,353.18,0,337.15,0h0Z"/>
  <text class="cls-12" transform="translate(27.59 244.25)"><tspan class="cls-10" x="0" y="0">A</tspan><tspan class="cls-14" x="16.54" y="0">t</tspan><tspan class="cls-5" x="24.86" y="0">e</tspan><tspan class="cls-8" x="38.01" y="0">n</tspan><tspan x="51.15" y="0">d</tspan><tspan class="cls-3" x="66.02" y="0">i</tspan><tspan class="cls-8" x="71.73" y="0">m</tspan><tspan class="cls-1" x="92.8" y="0">e</tspan><tspan x="105.95" y="0">n</tspan><tspan class="cls-9" x="119.33" y="0">t</tspan><tspan x="127.66" y="0">o </tspan><tspan x="0" y="28.78">a</tspan><tspan class="cls-4" x="14.37" y="28.78">m</tspan><tspan class="cls-11" x="35.74" y="28.78">b</tspan><tspan class="cls-4" x="50.06" y="28.78">u</tspan><tspan class="cls-2" x="63.02" y="28.78">l</tspan><tspan x="68.65" y="28.78">a</tspan><tspan class="cls-14" x="83.02" y="28.78">t</tspan><tspan class="cls-5" x="91.34" y="28.78">o</tspan><tspan class="cls-6" x="104.5" y="28.78">r</tspan><tspan class="cls-1" x="113.36" y="28.78">i</tspan><tspan class="cls-7" x="118.89" y="28.78">a</tspan><tspan x="133.32" y="28.78">l</tspan></text>
  <polygon class="cls-13" points="338.69 262.6 330.04 262.6 330.04 253.95 324.38 253.95 324.38 262.6 315.73 262.6 315.73 268.27 324.38 268.27 324.38 276.92 330.04 276.92 330.04 268.27 338.69 268.27 338.69 262.6"/>
  <g>
    <path class="cls-13" d="M58.67,57.06c-.31-.31-.8-.31-1.11,0-1.11,1.11-2.93,1.11-4.04,0-.31-.31-.8-.31-1.11,0-.31.31-.31.8,0,1.11.86.86,2,1.3,3.13,1.3s2.27-.43,3.13-1.3c.31-.31.31-.8,0-1.11Z"/>
    <path class="cls-13" d="M50.87,50.06c-.43,0-.79.35-.79.79v1.26c0,.43.35.79.79.79s.79-.35.79-.79v-1.26c0-.43-.35-.79-.79-.79Z"/>
    <path class="cls-13" d="M62.55,47.25c-1.3-1.3-3.41-1.3-4.71,0-.31.31-.31.8,0,1.11.31.31.8.31,1.11,0,.33-.33.77-.51,1.24-.51s.91.18,1.24.51c.15.15.35.23.56.23s.4-.08.56-.23c.31-.31.31-.8,0-1.11Z"/>
    <path class="cls-13" d="M53.22,47.25c-1.3-1.3-3.41-1.3-4.71,0-.31.31-.31.8,0,1.11s.8.31,1.11,0c.33-.33.77-.51,1.24-.51s.91.18,1.24.51c.15.15.35.23.56.23s.4-.08.56-.23c.31-.31.31-.8,0-1.11Z"/>
    <path class="cls-13" d="M60.2,50.06c-.43,0-.79.35-.79.79v1.26c0,.43.35.79.79.79s.79-.35.79-.79v-1.26c0-.43-.35-.79-.79-.79Z"/>
    <path class="cls-13" d="M47.61,76.66h-2.71v-9.11c0-1.77.9-3.38,2.42-4.3.37-.23.49-.71.26-1.08-.23-.37-.71-.49-1.08-.26-1.99,1.21-3.18,3.32-3.18,5.64v9.89c0,.43.35.79.79.79h3.5c.43,0,.79-.35.79-.79,0-.43-.35-.79-.79-.79Z"/>
    <path class="cls-13" d="M66.96,76.66h-10.64v-10.06c0-.43-.35-.79-.79-.79s-.79.35-.79.79v10.06h-4.52c-.43,0-.79.35-.79.79s.35.79.79.79h16.73c.43,0,.79-.35.79-.79,0-.43-.35-.79-.79-.79Z"/>
    <path class="cls-13" d="M65.87,62.95c-.39-.4-.83-.74-1.3-1.03-.37-.23-.85-.11-1.08.26-.23.37-.11.85.26,1.08.36.22.69.48.99.79.15.16.36.24.56.24s.4-.07.55-.22c.31-.3.32-.8.01-1.11Z"/>
    <path class="cls-13" d="M56.74,48.91c-.43,0-.79.35-.79.79v3.72c0,.23-.19.42-.42.42s-.42-.19-.42-.42v-3.72c0-.43-.35-.79-.79-.79s-.79.35-.79.79v3.72c0,1.1.89,1.99,1.99,1.99s1.99-.89,1.99-1.99v-3.72c0-.43-.35-.79-.79-.79Z"/>
    <path class="cls-13" d="M49.91,67.57v-3.78c0-.43-.35-.79-.79-.79s-.79.35-.79.79v3.78c-1.24.34-2.15,1.48-2.15,2.83v3.62c0,.43.35.79.79.79h.89c.43,0,.79-.35.79-.79s-.35-.79-.79-.79h-.1v-2.83c0-.75.61-1.36,1.36-1.36s1.36.61,1.36,1.36v2.83c-.41.03-.73.37-.73.78s.35.79.79.79h.73c.43,0,.79-.35.79-.79v-3.62c0-1.35-.91-2.48-2.15-2.83Z"/>
    <path class="cls-13" d="M57.14,36.18h-.82v-.82c0-.43-.35-.79-.79-.79s-.79.35-.79.79v.82h-.82c-.43,0-.79.35-.79.79s.35.79.79.79h.82v.82c0,.43.35.79.79.79s.79-.35.79-.79v-.82h.82c.43,0,.79-.35.79-.79s-.35-.79-.79-.79Z"/>
    <path class="cls-13" d="M69.7,50.15c0-1.66-1.26-3.03-2.88-3.21l-.18-1.88c-.14-1.48-.57-2.88-1.26-4.17v-8.06c0-.43-.35-.79-.79-.79h-18.12c-.43,0-.79.35-.79.79v1.19c0,.43.35.79.79.79s.79-.35.79-.79v-.4h16.55v6.71h-9.88c-.43,0-.79.35-.79.79s.35.79.79.79h10.2c.51,1.04.83,2.15.94,3.32l.75,7.72c.24,2.51-.87,4.99-2.91,6.47l-4.3,3.13c-1.84,1.34-4.31,1.34-6.15,0l-4.3-3.13c-2.04-1.48-3.15-3.96-2.91-6.47l.58-5.99c.04-.43-.27-.82-.71-.86-.43-.04-.82.27-.86.71v.15c-1.63.18-2.89,1.55-2.89,3.21,0,1.45.95,2.69,2.28,3.09-.12,2.9,1.22,5.71,3.58,7.43l4.3,3.13c1.2.87,2.6,1.3,4,1.3s2.8-.43,4-1.3l4.3-3.13c2.36-1.72,3.71-4.53,3.58-7.43,1.33-.4,2.28-1.64,2.28-3.09ZM43.8,51.6c-.51-.28-.85-.83-.85-1.45,0-.74.48-1.36,1.15-1.58l-.29,3.03ZM67.27,51.6l-.29-3.03c.67.22,1.15.84,1.15,1.58,0,.62-.34,1.17-.86,1.45Z"/>
    <path class="cls-13" d="M47.25,35.29c-2.95,0-5.34,2.4-5.34,5.34s2.4,5.34,5.34,5.34,5.34-2.4,5.34-5.34-2.4-5.34-5.34-5.34ZM47.25,44.41c-2.08,0-3.77-1.69-3.77-3.77s1.69-3.77,3.77-3.77,3.77,1.69,3.77,3.77-1.69,3.77-3.77,3.77Z"/>
    <path class="cls-13" d="M42.09,53.02c-1.24-.51-2.64-.47-3.85.11-1.3.62-2.25,1.78-2.58,3.19l-.36,1.48h-4.86c-1.57,0-2.85,1.28-2.85,2.85v1.11c0,3.53,2.87,6.41,6.41,6.41h7.17c.43,0,.79-.35.79-.79s-.35-.79-.79-.79h-7.17c-2.4,0-4.39-1.76-4.77-4.05h.44c1.63,0,2.95-1.32,2.95-2.95v-.23h3.3c.36,0,.68-.25.76-.6l.5-2.08c.23-.94.86-1.72,1.73-2.14.81-.39,1.75-.41,2.58-.07.4.16.86-.03,1.02-.43.16-.4-.03-.86-.43-1.02ZM29.67,60.98h-.51v-.33c0-.71.58-1.28,1.28-1.28h.6v.23h0c0,.76-.62,1.38-1.38,1.38Z"/>
    <path class="cls-13" d="M39.22,56.23c-.43,0-.79.35-.79.79v1.73c0,.43.35.79.79.79s.79-.35.79-.79v-1.73c0-.43-.35-.79-.79-.79Z"/>
    <path class="cls-13" d="M75.66,64.89c-.21-.21-.52-.29-.8-.2l-3,.97c-.67-.28-1.38-.42-2.11-.42s-1.44.14-2.11.42l-3-.97c-.28-.09-.59-.02-.8.2-.21.21-.28.52-.18.81l.56,1.64c.26.75.31,1.53.16,2.24-.1.46-.14.93-.12,1.41.12,2.85,2.44,5.16,5.29,5.27.07,0,.14,0,.21,0,1.43,0,2.78-.54,3.81-1.54,1.09-1.05,1.68-2.45,1.68-3.96,0-.36-.04-.72-.11-1.08-.16-.8-.11-1.61.14-2.34l.56-1.64c.1-.28.03-.59-.18-.81ZM73.79,66.83c-.34.99-.41,2.08-.19,3.15.05.25.08.51.08.77,0,1.08-.43,2.08-1.2,2.83-.78.75-1.8,1.14-2.88,1.1-2.03-.07-3.69-1.73-3.78-3.76-.01-.34.01-.68.09-1.01.22-.99.15-2.06-.21-3.08l-.05-.15,1.79.58c.19.06.4.05.59-.04.54-.26,1.12-.4,1.72-.4s1.18.13,1.72.4c.18.09.39.1.59.04l1.79-.58-.05.15Z"/>
    <path class="cls-13" d="M68.05,68.7c-.43,0-.79.35-.79.79v1.12c0,.43.35.79.79.79s.79-.35.79-.79v-1.12c0-.43-.35-.79-.79-.79Z"/>
    <path class="cls-13" d="M71.61,68.7c-.43,0-.79.35-.79.79v1.12c0,.43.35.79.79.79s.79-.35.79-.79v-1.12c0-.43-.35-.79-.79-.79Z"/>
    <path class="cls-13" d="M74.05,58.88c-.43,0-.79.35-.79.79,0,.38-.31.68-.68.68-1.24,0-2.25,1.01-2.25,2.25v1.36c0,.43.35.79.79.79s.79-.35.79-.79v-1.36c0-.38.31-.68.68-.68,1.24,0,2.25-1.01,2.25-2.25,0-.43-.35-.79-.79-.79Z"/>
    <circle class="cls-13" cx="58.02" cy="67.63" r=".79"/>
    <circle class="cls-13" cx="58.02" cy="71.2" r=".79"/>
    <circle class="cls-13" cx="58.02" cy="74.76" r=".79"/>
    <circle class="cls-13" cx="47.25" cy="40.64" r=".79"/>
    <circle class="cls-13" cx="69.74" cy="72.07" r=".79"/>
  </g>
</svg>