<?xml version="1.0" encoding="UTF-8"?>
<svg id="Layer_1" data-name="Layer 1" xmlns="http://www.w3.org/2000/svg" viewBox="0 0 366.28 305.38">
  <defs>
    <style>
      .cls-1 {
        letter-spacing: 0em;
      }

      .cls-2 {
        letter-spacing: -.01em;
      }

      .cls-3 {
        letter-spacing: -.02em;
      }

      .cls-4 {
        font-family: UrbanistRoman-Bold, Urbanist;
        font-size: 23.99px;
        font-variation-settings: 'wght' 700;
        font-weight: 700;
      }

      .cls-4, .cls-5 {
        fill: #130044;
      }

      .cls-6 {
        letter-spacing: -.01em;
      }

      .cls-7 {
        letter-spacing: -.01em;
      }
    </style>
  </defs>
  <path class="cls-5" d="M337.15,8.99c11.1,0,20.14,9.03,20.14,20.14v247.12c0,11.1-9.03,20.14-20.14,20.14H29.13c-11.1,0-20.14-9.03-20.14-20.14V29.13c0-11.1,9.03-20.14,20.14-20.14h308.02M337.15,0H29.13C13.11,0,0,13.11,0,29.13v247.12C0,292.27,13.11,305.38,29.13,305.38h308.02c16.02,0,29.13-13.11,29.13-29.13V29.13C366.28,13.11,353.18,0,337.15,0h0Z"/>
  <text class="cls-4" transform="translate(27.59 271.94)"><tspan x="0" y="0">In</tspan><tspan class="cls-7" x="19.91" y="0">t</tspan><tspan class="cls-2" x="28.23" y="0">er</tspan><tspan class="cls-6" x="50.34" y="0">na</tspan><tspan class="cls-3" x="77.61" y="0">ç</tspan><tspan class="cls-1" x="89.47" y="0">ã</tspan><tspan x="103.6" y="0">o</tspan></text>
  <polygon class="cls-5" points="338.69 262.6 330.04 262.6 330.04 253.95 324.38 253.95 324.38 262.6 315.73 262.6 315.73 268.27 324.38 268.27 324.38 276.92 330.04 276.92 330.04 268.27 338.69 268.27 338.69 262.6"/>
  <path class="cls-5" d="M44.73,32.04c-2.09,0-3.8,1.71-3.8,3.8v10.98c0,2.09,1.71,3.8,3.8,3.8h10.98c2.09,0,3.8-1.71,3.8-3.8v-10.98s0-.05,0-.07c-.14-2.05-1.81-3.73-3.9-3.73h-10.88ZM44.73,34.09h10.88c.99,0,1.78.78,1.85,1.81v10.92c0,.99-.75,1.74-1.74,1.74h-10.98c-.99,0-1.74-.75-1.74-1.74v-10.98c0-.99.75-1.74,1.74-1.74ZM49.15,37.17v3.08h-3.08v2.05h3.08v3.08h2.05v-3.08h3.08v-2.05h-3.08v-3.08h-2.05ZM31.39,40.25c-2.09,0-3.8,1.71-3.8,3.8v34.18h46.19v-34.18c0-2.09-1.71-3.8-3.8-3.8h-8.52v2.05h8.52c.99,0,1.74.75,1.74,1.74v32.13h-16.42v-11.29h-10.26v11.29h-15.4v-32.13c0-.99.75-1.74,1.74-1.74h7.49v-2.05h-7.49ZM31.66,53.55v8.3h9.32v-8.3h-9.32ZM45,53.55v8.3h10.35v-8.3h-10.35ZM59.37,53.55v8.3h9.32v-8.3h-9.32ZM33.79,55.69h5.05v4.02h-5.05v-4.02ZM47.14,55.69h6.07v4.02h-6.07v-4.02ZM61.51,55.69h5.05v4.02h-5.05v-4.02ZM31.66,64.84v8.3h9.32v-8.3h-9.32ZM59.37,64.84v8.3h9.32v-8.3h-9.32ZM47.1,66.94h6.16v9.24h-6.16v-9.24ZM33.79,66.98h5.05v4.02h-5.05v-4.02ZM61.51,66.98h5.05v4.02h-5.05v-4.02Z"/>
</svg>