<?xml version="1.0" encoding="UTF-8"?>
<svg id="Layer_1" data-name="Layer 1" xmlns="http://www.w3.org/2000/svg" viewBox="0 0 366.28 305.38">
  <defs>
    <style>
      .cls-1 {
        letter-spacing: 0em;
      }

      .cls-2 {
        letter-spacing: 0em;
      }

      .cls-3 {
        letter-spacing: -.01em;
      }

      .cls-4 {
        letter-spacing: -.02em;
      }

      .cls-5 {
        letter-spacing: -.02em;
      }

      .cls-6 {
        letter-spacing: 0em;
      }

      .cls-7 {
        letter-spacing: -.04em;
      }

      .cls-8 {
        font-family: UrbanistRoman-Bold, Urbanist;
        font-size: 23.99px;
        font-variation-settings: 'wght' 700;
        font-weight: 700;
      }

      .cls-8, .cls-9 {
        fill: #130044;
      }

      .cls-10 {
        letter-spacing: -.02em;
      }

      .cls-11 {
        letter-spacing: -.01em;
      }
    </style>
  </defs>
  <path class="cls-9" d="M337.15,8.99c11.1,0,20.14,9.03,20.14,20.14v247.12c0,11.1-9.03,20.13-20.14,20.13H29.13c-11.1,0-20.14-9.03-20.14-20.13V29.13c0-11.1,9.03-20.14,20.14-20.14h308.02M337.15,0H29.13C13.11,0,0,13.11,0,29.13v247.12c0,16.02,13.11,29.13,29.13,29.13h308.02c16.02,0,29.13-13.11,29.13-29.13V29.13C366.28,13.11,353.18,0,337.15,0h0Z"/>
  <text class="cls-8" transform="translate(27.59 274.19)"><tspan class="cls-4" x="0" y="0">D</tspan><tspan x="15.75" y="0">a</tspan><tspan class="cls-6" x="30.11" y="0">n</tspan><tspan class="cls-1" x="43.26" y="0">o</tspan><tspan x="56.51" y="0">s a </tspan><tspan class="cls-11" x="92.81" y="0">t</tspan><tspan class="cls-3" x="101.14" y="0">e</tspan><tspan class="cls-7" x="114.28" y="0">r</tspan><tspan class="cls-10" x="122.62" y="0">c</tspan><tspan class="cls-5" x="134.48" y="0">e</tspan><tspan class="cls-2" x="147.35" y="0">i</tspan><tspan class="cls-7" x="153.06" y="0">r</tspan><tspan class="cls-1" x="161.39" y="0">o</tspan><tspan x="174.65" y="0">s</tspan></text>
  <polygon class="cls-9" points="338.69 262.6 330.04 262.6 330.04 253.95 324.38 253.95 324.38 262.6 315.73 262.6 315.73 268.27 324.38 268.27 324.38 276.92 330.04 276.92 330.04 268.27 338.69 268.27 338.69 262.6"/>
  <path class="cls-9" d="M44.42,48.25c2.36-1.59,3.91-4.29,3.91-7.35,0-4.89-3.97-8.86-8.86-8.86s-8.86,3.97-8.86,8.86c0,3.06,1.55,5.76,3.91,7.35-4.09,1.88-6.93,6.01-6.93,10.8v16.36c3.57,1.8,7.61,2.82,11.88,2.82s8.31-1.02,11.88-2.82v-16.36c0-4.79-2.84-8.92-6.93-10.8ZM33.25,40.9c0-3.44,2.79-6.22,6.22-6.22s6.22,2.79,6.22,6.22-2.79,6.22-6.22,6.22-6.22-2.79-6.22-6.22ZM35.09,59.16l3.57,11.42h-3.57v-11.42ZM32.39,53.11v10.15h-2.16v-4.21c0-2.26.81-4.33,2.16-5.94ZM32.39,65.95v4.63h-2.1v-4.63h2.1ZM48.71,73.73c-2.84,1.2-5.96,1.86-9.24,1.86s-6.4-.66-9.24-1.86v-.46h10.68c2.75,0,4.99-2.24,4.99-4.99v-.03c0-2.75-2.24-4.99-4.99-4.99h-1.72l-3.9-12.45c1.25-.64,2.67-1,4.18-1,5.1,0,9.24,4.14,9.24,9.24v14.68ZM40.03,65.95h.88c1.27,0,2.3,1.03,2.3,2.3v.03c0,1.08-.74,1.98-1.75,2.23l-1.43-4.56Z"/>
</svg>