<?xml version="1.0" encoding="UTF-8"?>
<svg id="Layer_1" data-name="Layer 1" xmlns="http://www.w3.org/2000/svg" viewBox="0 0 366.28 305.38">
  <defs>
    <style>
      .cls-1 {
        letter-spacing: 0em;
      }

      .cls-2 {
        letter-spacing: 0em;
      }

      .cls-3 {
        letter-spacing: -.01em;
      }

      .cls-4 {
        letter-spacing: 0em;
      }

      .cls-5 {
        fill: #fff;
      }

      .cls-6 {
        letter-spacing: 0em;
      }

      .cls-7 {
        letter-spacing: -.03em;
      }

      .cls-8 {
        letter-spacing: 0em;
      }

      .cls-9 {
        letter-spacing: -.03em;
      }

      .cls-10 {
        letter-spacing: -.01em;
      }

      .cls-11 {
        letter-spacing: 0em;
      }

      .cls-12 {
        letter-spacing: 0em;
      }

      .cls-13 {
        letter-spacing: 0em;
      }

      .cls-14 {
        font-family: UrbanistRoman-Bold, Urbanist;
        font-size: 23.99px;
        font-variation-settings: 'wght' 700;
        font-weight: 700;
      }

      .cls-15 {
        letter-spacing: -.03em;
      }

      .cls-16 {
        letter-spacing: -.01em;
      }

      .cls-17 {
        letter-spacing: -.02em;
      }

      .cls-18 {
        letter-spacing: 0em;
      }

      .cls-19 {
        letter-spacing: -.01em;
      }

      .cls-20 {
        letter-spacing: 0em;
      }

      .cls-21 {
        letter-spacing: 0em;
      }

      .cls-22 {
        font-family: Urbanist-Regular, Urbanist;
        font-size: 18px;
        font-variation-settings: 'wght' 400;
      }

      .cls-23 {
        letter-spacing: 0em;
      }

      .cls-24 {
        fill: #130044;
      }
    </style>
  </defs>
  <rect class="cls-24" x="0" y="0" width="366.28" height="305.38" rx="29.13" ry="29.13"/>
  <path class="cls-5" d="M44.73,32.04c-2.09,0-3.8,1.71-3.8,3.8v10.98c0,2.09,1.71,3.8,3.8,3.8h10.98c2.09,0,3.8-1.71,3.8-3.8v-10.98s0-.05,0-.07c-.14-2.05-1.81-3.73-3.9-3.73h-10.88ZM44.73,34.09h10.88c.99,0,1.78.78,1.85,1.81v10.92c0,.99-.75,1.74-1.74,1.74h-10.98c-.99,0-1.74-.75-1.74-1.74v-10.98c0-.99.75-1.74,1.74-1.74ZM49.15,37.17v3.08h-3.08v2.05h3.08v3.08h2.05v-3.08h3.08v-2.05h-3.08v-3.08h-2.05ZM31.39,40.25c-2.09,0-3.8,1.71-3.8,3.8v34.18h46.19v-34.18c0-2.09-1.71-3.8-3.8-3.8h-8.52v2.05h8.52c.99,0,1.74.75,1.74,1.74v32.13h-16.42v-11.29h-10.26v11.29h-15.4v-32.13c0-.99.75-1.74,1.74-1.74h7.49v-2.05h-7.49ZM31.66,53.55v8.3h9.32v-8.3h-9.32ZM45,53.55v8.3h10.35v-8.3h-10.35ZM59.37,53.55v8.3h9.32v-8.3h-9.32ZM33.79,55.69h5.05v4.02h-5.05v-4.02ZM47.14,55.69h6.07v4.02h-6.07v-4.02ZM61.51,55.69h5.05v4.02h-5.05v-4.02ZM31.66,64.84v8.3h9.32v-8.3h-9.32ZM59.37,64.84v8.3h9.32v-8.3h-9.32ZM47.1,66.94h6.16v9.24h-6.16v-9.24ZM33.79,66.98h5.05v4.02h-5.05v-4.02ZM61.51,66.98h5.05v4.02h-5.05v-4.02Z"/>
  <text class="cls-5" transform="translate(27.59 119.7)"><tspan class="cls-14"><tspan x="0" y="0">In</tspan><tspan class="cls-10" x="19.91" y="0">t</tspan><tspan class="cls-3" x="28.23" y="0">er</tspan><tspan class="cls-12" x="50.34" y="0">na</tspan><tspan class="cls-17" x="77.61" y="0">ç</tspan><tspan class="cls-12" x="89.47" y="0">ã</tspan><tspan x="103.6" y="0">o</tspan></tspan><tspan class="cls-22"><tspan class="cls-15" x="0" y="43.2">C</tspan><tspan class="cls-21" x="12.13" y="43.2">o</tspan><tspan class="cls-4" x="22.06" y="43.2">b</tspan><tspan class="cls-7" x="32.8" y="43.2">r</tspan><tspan x="38.63" y="43.2">e o </tspan><tspan class="cls-13" x="67.4" y="43.2">pa</tspan><tspan class="cls-4" x="88.32" y="43.2">g</tspan><tspan x="98.8" y="43.2">a</tspan><tspan class="cls-13" x="109.26" y="43.2">m</tspan><tspan class="cls-4" x="125.07" y="43.2">e</tspan><tspan x="135.04" y="43.2">n</tspan><tspan class="cls-16" x="144.68" y="43.2">t</tspan><tspan class="cls-19" x="150.65" y="43.2">o</tspan><tspan x="160.55" y="43.2">, a</tspan><tspan class="cls-16" x="178.95" y="43.2">t</tspan><tspan x="184.91" y="43.2">é o </tspan><tspan class="cls-9" x="213.69" y="43.2">v</tspan><tspan class="cls-8" x="222.46" y="43.2">a</tspan><tspan class="cls-18" x="233.04" y="43.2">l</tspan><tspan class="cls-4" x="236.39" y="43.2">o</tspan><tspan x="246.38" y="43.2">r </tspan></tspan><tspan class="cls-22"><tspan class="cls-18" x="0" y="64.8">e</tspan><tspan x="9.99" y="64.8">s</tspan><tspan class="cls-18" x="17.72" y="64.8">ti</tspan><tspan class="cls-19" x="27.23" y="64.8">p</tspan><tspan class="cls-8" x="37.86" y="64.8">u</tspan><tspan class="cls-18" x="47.27" y="64.8">l</tspan><tspan class="cls-13" x="50.62" y="64.8">a</tspan><tspan class="cls-18" x="60.9" y="64.8">d</tspan><tspan x="71.67" y="64.8">o </tspan><tspan class="cls-4" x="86.07" y="64.8">e</tspan><tspan x="96.03" y="64.8">m a</tspan><tspan class="cls-13" x="126.8" y="64.8">p</tspan><tspan class="cls-1" x="137.44" y="64.8">ó</tspan><tspan x="147.36" y="64.8">l</tspan><tspan class="cls-23" x="150.78" y="64.8">i</tspan><tspan class="cls-2" x="154.12" y="64.8">c</tspan><tspan class="cls-13" x="163.17" y="64.8">e</tspan><tspan x="173.04" y="64.8">, </tspan><tspan class="cls-18" x="180.98" y="64.8">do</tspan><tspan x="201.76" y="64.8">s </tspan><tspan class="cls-4" x="213.81" y="64.8">c</tspan><tspan x="222.89" y="64.8">us</tspan><tspan class="cls-16" x="239.91" y="64.8">t</tspan><tspan class="cls-18" x="245.88" y="64.8">o</tspan><tspan x="255.9" y="64.8">s </tspan></tspan><tspan class="cls-22"><tspan class="cls-18" x="0" y="86.4">d</tspan><tspan x="10.76" y="86.4">e </tspan><tspan class="cls-6" x="25.14" y="86.4">i</tspan><tspan x="28.53" y="86.4">n</tspan><tspan class="cls-16" x="38.18" y="86.4">t</tspan><tspan class="cls-4" x="44.14" y="86.4">er</tspan><tspan class="cls-13" x="60.45" y="86.4">na</tspan><tspan class="cls-20" x="80.2" y="86.4">ç</tspan><tspan class="cls-13" x="89.25" y="86.4">ã</tspan><tspan x="99.53" y="86.4">o </tspan><tspan class="cls-18" x="113.93" y="86.4">d</tspan><tspan x="124.69" y="86.4">o </tspan><tspan class="cls-18" x="139.09" y="86.4">s</tspan><tspan class="cls-13" x="146.76" y="86.4">e</tspan><tspan class="cls-11" x="156.64" y="86.4">u </tspan><tspan class="cls-19" x="170.24" y="86.4">p</tspan><tspan class="cls-16" x="180.88" y="86.4">e</tspan><tspan class="cls-19" x="190.69" y="86.4">t</tspan><tspan x="196.72" y="86.4">.</tspan></tspan></text>
</svg>