<?xml version="1.0" encoding="UTF-8"?>
<svg id="Layer_1" data-name="Layer 1" xmlns="http://www.w3.org/2000/svg" viewBox="0 0 366.28 305.38">
  <defs>
    <style>
      .cls-1 {
        letter-spacing: 0em;
      }

      .cls-2 {
        letter-spacing: 0em;
      }

      .cls-3 {
        letter-spacing: 0em;
      }

      .cls-4 {
        letter-spacing: .01em;
      }

      .cls-5 {
        letter-spacing: -.02em;
      }

      .cls-6 {
        letter-spacing: 0em;
      }

      .cls-7, .cls-8 {
        fill: #fff;
      }

      .cls-9 {
        letter-spacing: 0em;
      }

      .cls-10 {
        font-family: UrbanistRoman-Bold, Urbanist;
        font-variation-settings: 'wght' 700;
        font-weight: 700;
      }

      .cls-11 {
        letter-spacing: 0em;
      }

      .cls-12 {
        letter-spacing: -.01em;
      }

      .cls-13 {
        letter-spacing: -.03em;
      }

      .cls-14 {
        letter-spacing: 0em;
      }

      .cls-15 {
        letter-spacing: 0em;
      }

      .cls-16 {
        letter-spacing: -.03em;
      }

      .cls-17 {
        letter-spacing: 0em;
      }

      .cls-8 {
        font-size: 16px;
      }

      .cls-18 {
        letter-spacing: -.03em;
      }

      .cls-19 {
        letter-spacing: -.01em;
      }

      .cls-20 {
        letter-spacing: -.03em;
      }

      .cls-21 {
        letter-spacing: 0em;
      }

      .cls-22 {
        letter-spacing: 0em;
      }

      .cls-23 {
        letter-spacing: 0em;
      }

      .cls-24 {
        letter-spacing: -.01em;
      }

      .cls-25 {
        letter-spacing: -.01em;
      }

      .cls-26 {
        letter-spacing: 0em;
      }

      .cls-27 {
        font-family: Urbanist-Regular, Urbanist;
        font-variation-settings: 'wght' 400;
      }

      .cls-28 {
        fill: #130044;
      }
    </style>
  </defs>
  <rect class="cls-28" x="0" y="0" width="366.28" height="305.38" rx="29.13" ry="29.13"/>
  <path class="cls-7" d="M37.7,71.2h-2.59l2.19-4.69h2.59l-2.19,4.69ZM42.54,75.89l4.38-9.37h-2.59l-4.38,9.37h2.59ZM50.66,73.54l3.29-7.03h-2.59l-3.29,7.03h2.59ZM58.39,66.52l-5.48,11.71h2.59l5.48-11.71h-2.59ZM63.23,71.2h2.59l2.19-4.69h-2.59l-2.19,4.69ZM76.79,52.9c0-4.63-2.84-8.78-7.15-10.47-2.12-6.44-8.93-10.08-15.46-8.24.03.05.07.08.09.13.35.65.58,1.35.67,2.09,5.3-1.39,10.77,1.59,12.48,6.79l.35,1.02,1.01.4c4.59,1.8,6.84,6.98,5.05,11.56-1.34,3.42-4.64,5.67-8.31,5.66h-29.87c-3.15,0-5.71-2.53-5.72-5.68,0-2.56,1.69-4.8,4.15-5.5l.15-2.44c-4.37.78-7.28,4.97-6.5,9.34.69,3.83,4.02,6.62,7.92,6.62h29.87c6.23,0,11.28-5.05,11.28-11.28ZM39.23,43.09h-9.44l5.45-18.74h14.26l-7.26,11.71h8.99l-12.93,22.2.93-15.17ZM41.72,40.74l-.48,7.81,5.91-10.15h-9.12l7.26-11.71h-8.29l-4.09,14.06h8.81Z"/>
  <text class="cls-8" transform="translate(27.59 113.71)"><tspan class="cls-10"><tspan class="cls-5" x="0" y="0">A</tspan><tspan class="cls-22" x="11.42" y="0">l</tspan><tspan class="cls-17" x="15.17" y="0">a</tspan><tspan class="cls-12" x="24.59" y="0">g</tspan><tspan x="34.22" y="0">a</tspan><tspan class="cls-17" x="43.8" y="0">m</tspan><tspan class="cls-12" x="57.86" y="0">e</tspan><tspan x="66.62" y="0">n</tspan><tspan class="cls-24" x="75.55" y="0">t</tspan><tspan x="81.1" y="0">o</tspan></tspan><tspan class="cls-27"><tspan class="cls-18" x="0" y="38.4">C</tspan><tspan class="cls-2" x="10.78" y="38.4">o</tspan><tspan class="cls-17" x="19.61" y="38.4">b</tspan><tspan class="cls-1" x="29.07" y="38.4">e</tspan><tspan x="37.93" y="38.4">rtu</tspan><tspan class="cls-20" x="57.42" y="38.4">r</tspan><tspan x="62.61" y="38.4">a </tspan><tspan class="cls-17" x="75.74" y="38.4">a</tspan><tspan x="84.88" y="38.4">d</tspan><tspan class="cls-26" x="94.5" y="38.4">i</tspan><tspan class="cls-2" x="97.46" y="38.4">c</tspan><tspan class="cls-26" x="105.48" y="38.4">io</tspan><tspan class="cls-25" x="117.32" y="38.4">n</tspan><tspan class="cls-11" x="125.73" y="38.4">a</tspan><tspan x="135.13" y="38.4">l, </tspan><tspan class="cls-1" x="145.23" y="38.4">g</tspan><tspan x="154.55" y="38.4">a</tspan><tspan class="cls-16" x="163.85" y="38.4">r</tspan><tspan x="169.03" y="38.4">an</tspan><tspan class="cls-19" x="186.9" y="38.4">t</tspan><tspan x="192.21" y="38.4">e </tspan><tspan class="cls-6" x="204.98" y="38.4">o</tspan><tspan x="213.89" y="38.4">s </tspan><tspan class="cls-9" x="224.6" y="38.4">d</tspan><tspan x="234.17" y="38.4">a</tspan><tspan class="cls-17" x="243.46" y="38.4">n</tspan><tspan class="cls-9" x="251.88" y="38.4">o</tspan><tspan x="260.78" y="38.4">s </tspan></tspan><tspan class="cls-27"><tspan class="cls-25" x="0" y="57.6">m</tspan><tspan x="14.06" y="57.6">a</tspan><tspan class="cls-19" x="23.35" y="57.6">t</tspan><tspan class="cls-26" x="28.66" y="57.6">e</tspan><tspan class="cls-23" x="37.51" y="57.6">r</tspan><tspan class="cls-26" x="43.13" y="57.6">i</tspan><tspan x="46.09" y="57.6">a</tspan><tspan class="cls-9" x="55.38" y="57.6">i</tspan><tspan x="58.37" y="57.6">s </tspan><tspan class="cls-3" x="69.08" y="57.6">q</tspan><tspan class="cls-6" x="78.59" y="57.6">u</tspan><tspan x="86.79" y="57.6">e o </tspan><tspan class="cls-23" x="112.37" y="57.6">c</tspan><tspan class="cls-1" x="120.42" y="57.6">o</tspan><tspan class="cls-17" x="129.29" y="57.6">n</tspan><tspan class="cls-6" x="137.71" y="57.6">d</tspan><tspan class="cls-1" x="147.28" y="57.6">o</tspan><tspan x="156.16" y="57.6">m</tspan><tspan class="cls-14" x="170.38" y="57.6">í</tspan><tspan x="173.39" y="57.6">n</tspan><tspan class="cls-26" x="181.97" y="57.6">i</tspan><tspan x="184.93" y="57.6">o </tspan><tspan class="cls-9" x="197.73" y="57.6">s</tspan><tspan x="204.54" y="57.6">o</tspan><tspan class="cls-4" x="213.5" y="57.6">f</tspan><tspan class="cls-16" x="219.06" y="57.6">r</tspan><tspan x="224.24" y="57.6">a </tspan><tspan class="cls-25" x="237.38" y="57.6">p</tspan><tspan class="cls-15" x="246.83" y="57.6">e</tspan><tspan class="cls-9" x="255.63" y="57.6">l</tspan><tspan x="258.61" y="57.6">a </tspan></tspan><tspan class="cls-27"><tspan class="cls-1" x="0" y="76.8">e</tspan><tspan x="8.86" y="76.8">nt</tspan><tspan class="cls-16" x="22.95" y="76.8">r</tspan><tspan class="cls-17" x="28.14" y="76.8">a</tspan><tspan class="cls-9" x="37.27" y="76.8">d</tspan><tspan x="46.84" y="76.8">a </tspan><tspan class="cls-9" x="59.98" y="76.8">d</tspan><tspan x="69.54" y="76.8">e </tspan><tspan class="cls-17" x="82.32" y="76.8">á</tspan><tspan class="cls-3" x="91.45" y="76.8">g</tspan><tspan class="cls-9" x="100.75" y="76.8">u</tspan><tspan x="108.95" y="76.8">a </tspan><tspan class="cls-1" x="122.09" y="76.8">p</tspan><tspan class="cls-16" x="131.62" y="76.8">r</tspan><tspan class="cls-13" x="136.81" y="76.8">ov</tspan><tspan class="cls-26" x="153.14" y="76.8">e</tspan><tspan x="162" y="76.8">n</tspan><tspan class="cls-1" x="170.57" y="76.8">ie</tspan><tspan x="182.39" y="76.8">n</tspan><tspan class="cls-19" x="190.97" y="76.8">t</tspan><tspan x="196.27" y="76.8">e </tspan><tspan class="cls-6" x="209.04" y="76.8">d</tspan><tspan x="218.61" y="76.8">e </tspan></tspan><tspan class="cls-27"><tspan class="cls-1" x="0" y="96">e</tspan><tspan class="cls-17" x="8.86" y="96">n</tspan><tspan class="cls-3" x="17.27" y="96">c</tspan><tspan class="cls-25" x="25.32" y="96">h</tspan><tspan class="cls-26" x="33.74" y="96">e</tspan><tspan x="42.59" y="96">n</tspan><tspan class="cls-19" x="51.17" y="96">t</tspan><tspan class="cls-9" x="56.47" y="96">e</tspan><tspan x="65.35" y="96">s </tspan><tspan class="cls-17" x="76.06" y="96">o</tspan><tspan x="84.86" y="96">u </tspan><tspan class="cls-23" x="96.96" y="96">c</tspan><tspan x="105.01" y="96">hu</tspan><tspan class="cls-13" x="121.84" y="96">v</tspan><tspan x="129.64" y="96">as </tspan><tspan class="cls-12" x="149.65" y="96">f</tspan><tspan class="cls-26" x="154.8" y="96">o</tspan><tspan x="163.68" y="96">r</tspan><tspan class="cls-19" x="169.4" y="96">t</tspan><tspan class="cls-9" x="174.7" y="96">e</tspan><tspan class="cls-21" x="183.58" y="96">s</tspan><tspan x="190.43" y="96">.</tspan></tspan></text>
</svg>