<?xml version="1.0" encoding="UTF-8"?>
<svg id="Layer_1" data-name="Layer 1" xmlns="http://www.w3.org/2000/svg" viewBox="0 0 366.28 305.38">
  <defs>
    <style>
      .cls-1 {
        letter-spacing: -.01em;
      }

      .cls-2 {
        letter-spacing: 0em;
      }

      .cls-3 {
        letter-spacing: 0em;
      }

      .cls-4 {
        fill: #fff;
      }

      .cls-5 {
        letter-spacing: 0em;
      }

      .cls-6 {
        letter-spacing: -.03em;
      }

      .cls-7 {
        letter-spacing: 0em;
      }

      .cls-8 {
        letter-spacing: -.01em;
      }

      .cls-9 {
        font-family: UrbanistRoman-Bold, Urbanist;
        font-size: 23.99px;
        font-variation-settings: 'wght' 700;
        font-weight: 700;
      }

      .cls-10 {
        letter-spacing: -.03em;
      }

      .cls-11 {
        letter-spacing: 0em;
      }

      .cls-12 {
        letter-spacing: -.03em;
      }

      .cls-13 {
        letter-spacing: -.02em;
      }

      .cls-14 {
        letter-spacing: 0em;
      }

      .cls-15 {
        letter-spacing: 0em;
      }

      .cls-16 {
        letter-spacing: -.01em;
      }

      .cls-17 {
        letter-spacing: 0em;
      }

      .cls-18 {
        letter-spacing: -.01em;
      }

      .cls-19 {
        letter-spacing: 0em;
      }

      .cls-20 {
        letter-spacing: 0em;
      }

      .cls-21 {
        font-family: Urbanist-Regular, Urbanist;
        font-size: 18px;
        font-variation-settings: 'wght' 400;
      }

      .cls-22 {
        fill: #130044;
      }
    </style>
  </defs>
  <rect class="cls-22" x="0" y="0" width="366.28" height="305.38" rx="29.13" ry="29.13"/>
  <g>
    <path class="cls-4" d="M116.43,24.95c-.23-.23-.54-.37-.89-.37-.52,0-.97.31-1.16.76h0c-.26.62-.6,1.14-1.01,1.6h0c0-.13,0-.27,0-.42,0-1.84-.41-3.58-1.14-5.14l.03.07c-1.29-2.68-3.44-4.78-6.09-5.96l-.08-.03c-.15-.07-.32-.1-.5-.1-.7,0-1.26.56-1.26,1.26,0,.08,0,.15.02.22h0s0,.09,0,.14c0,2.02-.9,3.84-2.32,5.06h0c-.53.54-1.08,1.04-1.64,1.54-1.32,1.1-2.47,2.33-3.45,3.7l-.04.06c-1.11,1.79-1.76,3.97-1.76,6.3,0,1.15.16,2.25.46,3.3l-.02-.09c.77,3.17,2.72,5.79,5.34,7.43l.05.03c1.91,1.22,4.23,1.95,6.73,1.96h.01c.53,0,1.06-.04,1.58-.1h-.06c4.76-.69,8.62-3.94,10.19-8.28l.03-.09c.4-1.18.63-2.54.63-3.95,0-3.47-1.39-6.62-3.64-8.92h0s0,0,0,0ZM117.05,37.01c-1.27,3.54-4.36,6.13-8.1,6.67h-.06c-.36.05-.77.08-1.19.08-2.01,0-3.88-.59-5.45-1.6l.04.02c-2.12-1.33-3.67-3.41-4.27-5.86v-.07c-.24-.78-.37-1.68-.37-2.61,0-1.82.5-3.52,1.38-4.97l-.02.04c.9-1.23,1.9-2.3,3.03-3.23l.03-.02c.6-.54,1.19-1.07,1.75-1.64,1.42-1.34,2.47-3.07,2.96-5.02l.02-.07c2.47,1.73,4.07,4.57,4.07,7.78,0,.99-.15,1.95-.43,2.85l.02-.07c-.04.11-.05.24-.05.37,0,.7.56,1.26,1.26,1.26.17,0,.33-.03.48-.09h0c1.47-.6,2.69-1.57,3.59-2.78l.02-.02c1.14,1.62,1.82,3.64,1.82,5.82,0,1.13-.18,2.21-.52,3.23l.02-.07h0Z"/>
    <g>
      <path class="cls-4" d="M44.75,64.67c-2.49,0-4.51,2.02-4.51,4.51s2.02,4.51,4.51,4.51,4.51-2.02,4.51-4.51-2.02-4.51-4.51-4.51ZM44.75,70.99c-1,0-1.81-.81-1.81-1.81s.81-1.81,1.81-1.81,1.81.81,1.81,1.81-.81,1.81-1.81,1.81Z"/>
      <path class="cls-4" d="M91.9,64.67c-2.49,0-4.51,2.02-4.51,4.51s2.02,4.51,4.51,4.51,4.51-2.02,4.51-4.51-2.02-4.51-4.51-4.51ZM91.9,70.99c-1,0-1.81-.81-1.81-1.81s.81-1.81,1.81-1.81,1.81.81,1.81,1.81-.81,1.81-1.81,1.81Z"/>
      <path class="cls-4" d="M101.31,49.05l-12.05-1.38-6.43-10.46c-1.96-3.19-5.51-5.18-9.26-5.18h-21.89c-6.29,0-11.85,4.24-13.52,10.3l-.17.62c-.83,3.01-3.21,5.41-6.22,6.26-2.45.69-4.16,2.95-4.16,5.5v14.95c0,.75.6,1.35,1.35,1.35h6.95c.86,4.11,4.5,7.2,8.86,7.2s8-3.09,8.86-7.2h29.43c.86,4.11,4.5,7.2,8.86,7.2s8-3.09,8.86-7.2h7.29c.69,0,1.26-.52,1.34-1.2l1.06-9.27c.65-5.69-3.45-10.85-9.15-11.51ZM35.74,68.33h-5.44v-1.64h5.76c-.15.53-.26,1.08-.31,1.64ZM44.75,75.53c-3.5,0-6.35-2.85-6.35-6.35s2.85-6.35,6.35-6.35,6.35,2.85,6.35,6.35-2.85,6.35-6.35,6.35ZM91.9,75.53c-3.5,0-6.35-2.85-6.35-6.35s2.85-6.35,6.35-6.35,6.35,2.85,6.35,6.35-2.85,6.35-6.35,6.35ZM106.85,68.33h-5.94c-.05-.56-.16-1.11-.31-1.64h6.43l-.19,1.64ZM107.77,60.25l-.43,3.73h-8.04c-1.64-2.33-4.35-3.86-7.41-3.86s-5.77,1.53-7.41,3.86h-24.04c-.75,0-1.35.6-1.35,1.35s.6,1.35,1.35,1.35h22.75c-.15.53-.26,1.08-.31,1.64h-29.13c-.43-4.59-4.31-8.2-9.01-8.2-3.06,0-5.77,1.53-7.41,3.86h-7.05v-9.26c0-1.34.9-2.54,2.2-2.9,3.91-1.1,7.02-4.22,8.1-8.15l.17-.62c1.35-4.9,5.84-8.32,10.92-8.32h21.89c2.82,0,5.49,1.49,6.96,3.89l6.78,11.02c.22.35.59.59,1,.63l12.71,1.45c2.88.33,5.21,2.22,6.25,4.73h-4.22c-.75,0-1.35.6-1.35,1.35s.6,1.35,1.35,1.35h4.79c0,.36,0,.72-.05,1.08Z"/>
      <path class="cls-4" d="M73.63,52.44h-2.84c-.75,0-1.35.6-1.35,1.35s.6,1.35,1.35,1.35h2.84c.75,0,1.35-.6,1.35-1.35s-.6-1.35-1.35-1.35Z"/>
      <path class="cls-4" d="M55.49,53.79c0-.75-.6-1.35-1.35-1.35h-2.84c-.75,0-1.35.6-1.35,1.35s.6,1.35,1.35,1.35h2.84c.75,0,1.35-.6,1.35-1.35Z"/>
      <path class="cls-4" d="M57.16,64.82s0-.02,0,0c-.24-.56-.84-.91-1.44-.81-.55.09-.99.5-1.12,1.04-.27,1.17,1.09,2.08,2.08,1.41.52-.35.73-1.04.49-1.63,0,.02.01.03,0,0Z"/>
      <path class="cls-4" d="M79.11,39.5c-1.18-1.92-3.31-3.11-5.56-3.11h-21.89c-4.34,0-8.17,2.92-9.32,7.11l-.17.62c-.44,1.61-1.13,4.38-1.16,4.5-.1.4,0,.83.25,1.16.26.33.65.52,1.06.52h41.01c.49,0,.94-.26,1.18-.69.24-.43.23-.95-.03-1.37l-5.37-8.74ZM48.36,47.59h-4.3c.23-.9.51-1.98.72-2.76l.17-.62c.52-1.87,1.78-3.39,3.41-4.28v7.66ZM63.5,39.09v8.5h-12.44v-8.47c.2-.02.4-.03.61-.03h11.83ZM66.21,47.59v-8.5h7.35c1.32,0,2.56.7,3.25,1.82l4.11,6.68h-14.72Z"/>
    </g>
  </g>
  <text class="cls-4" transform="translate(27.59 119.7)"><tspan class="cls-9"><tspan x="0" y="0">I</tspan><tspan class="cls-14" x="6.52" y="0">n</tspan><tspan class="cls-13" x="19.67" y="0">c</tspan><tspan class="cls-8" x="31.53" y="0">ê</tspan><tspan class="cls-14" x="44.67" y="0">n</tspan><tspan x="57.82" y="0">d</tspan><tspan class="cls-1" x="72.69" y="0">i</tspan><tspan x="78.22" y="0">o</tspan></tspan><tspan class="cls-21"><tspan class="cls-19" x="0" y="43.2">S</tspan><tspan x="10.86" y="43.2">e </tspan><tspan class="cls-18" x="25.24" y="43.2">ho</tspan><tspan x="44.6" y="43.2">u</tspan><tspan class="cls-10" x="53.89" y="43.2">v</tspan><tspan class="cls-3" x="62.67" y="43.2">e</tspan><tspan x="72.63" y="43.2">r um </tspan><tspan class="cls-11" x="112.99" y="43.2">i</tspan><tspan class="cls-15" x="116.38" y="43.2">n</tspan><tspan class="cls-19" x="125.85" y="43.2">c</tspan><tspan class="cls-3" x="134.9" y="43.2">ê</tspan><tspan class="cls-15" x="144.86" y="43.2">n</tspan><tspan x="154.33" y="43.2">d</tspan><tspan class="cls-3" x="165.16" y="43.2">i</tspan><tspan x="168.49" y="43.2">o </tspan><tspan class="cls-18" x="182.89" y="43.2">n</tspan><tspan x="192.36" y="43.2">o </tspan><tspan class="cls-10" x="206.76" y="43.2">v</tspan><tspan class="cls-18" x="215.53" y="43.2">e</tspan><tspan class="cls-3" x="225.4" y="43.2">íc</tspan><tspan class="cls-7" x="237.81" y="43.2">u</tspan><tspan class="cls-2" x="247.22" y="43.2">l</tspan><tspan class="cls-18" x="250.58" y="43.2">o</tspan><tspan x="260.48" y="43.2">, </tspan></tspan><tspan class="cls-21"><tspan class="cls-19" x="0" y="64.8">c</tspan><tspan class="cls-3" x="9.05" y="64.8">o</tspan><tspan x="19.04" y="64.8">n</tspan><tspan class="cls-16" x="28.69" y="64.8">t</tspan><tspan x="34.66" y="64.8">e </tspan><tspan class="cls-19" x="49.03" y="64.8">c</tspan><tspan class="cls-3" x="58.09" y="64.8">o</tspan><tspan x="68.08" y="64.8">m a </tspan><tspan class="cls-5" x="103.17" y="64.8">i</tspan><tspan class="cls-18" x="106.56" y="64.8">n</tspan><tspan class="cls-17" x="116.03" y="64.8">d</tspan><tspan class="cls-3" x="126.79" y="64.8">e</tspan><tspan x="136.75" y="64.8">ni</tspan><tspan class="cls-3" x="149.82" y="64.8">z</tspan><tspan class="cls-15" x="158.86" y="64.8">a</tspan><tspan class="cls-19" x="169.14" y="64.8">ç</tspan><tspan class="cls-15" x="178.19" y="64.8">ã</tspan><tspan x="188.47" y="64.8">o </tspan><tspan class="cls-11" x="202.87" y="64.8">i</tspan><tspan x="206.26" y="64.8">n</tspan><tspan class="cls-16" x="215.91" y="64.8">t</tspan><tspan class="cls-15" x="221.88" y="64.8">e</tspan><tspan x="231.75" y="64.8">g</tspan><tspan class="cls-6" x="242.32" y="64.8">r</tspan><tspan class="cls-7" x="248.16" y="64.8">a</tspan><tspan x="258.73" y="64.8">l </tspan></tspan><tspan class="cls-21"><tspan class="cls-15" x="0" y="86.4">o</tspan><tspan x="9.9" y="86.4">u </tspan><tspan class="cls-18" x="23.51" y="86.4">p</tspan><tspan x="34.15" y="86.4">a</tspan><tspan class="cls-6" x="44.6" y="86.4">r</tspan><tspan class="cls-20" x="50.44" y="86.4">c</tspan><tspan class="cls-3" x="59.45" y="86.4">i</tspan><tspan class="cls-7" x="62.78" y="86.4">a</tspan><tspan x="73.36" y="86.4">l </tspan><tspan class="cls-17" x="81.1" y="86.4">d</tspan><tspan x="91.86" y="86.4">o </tspan><tspan class="cls-3" x="106.26" y="86.4">p</tspan><tspan class="cls-12" x="116.99" y="86.4">r</tspan><tspan class="cls-18" x="122.82" y="86.4">e</tspan><tspan class="cls-19" x="132.7" y="86.4">j</tspan><tspan x="136.55" y="86.4">uí</tspan><tspan class="cls-3" x="149.26" y="86.4">z</tspan><tspan class="cls-15" x="158.29" y="86.4">o</tspan><tspan x="168.19" y="86.4">.</tspan></tspan></text>
</svg>