<?xml version="1.0" encoding="UTF-8"?>
<svg id="Layer_1" data-name="Layer 1" xmlns="http://www.w3.org/2000/svg" viewBox="0 0 366.28 305.38">
  <defs>
    <style>
      .cls-1 {
        letter-spacing: -.04em;
      }

      .cls-2 {
        letter-spacing: -.02em;
      }

      .cls-3 {
        letter-spacing: 0em;
      }

      .cls-4 {
        letter-spacing: -.02em;
      }

      .cls-5 {
        letter-spacing: -.01em;
      }

      .cls-6 {
        letter-spacing: -.02em;
      }

      .cls-7 {
        letter-spacing: 0em;
      }

      .cls-8 {
        letter-spacing: -.02em;
      }

      .cls-9 {
        letter-spacing: -.01em;
      }

      .cls-10 {
        letter-spacing: 0em;
      }

      .cls-11 {
        letter-spacing: -.04em;
      }

      .cls-12 {
        letter-spacing: 0em;
      }

      .cls-13 {
        font-family: UrbanistRoman-Bold, Urbanist;
        font-size: 16px;
        font-variation-settings: 'wght' 700;
        font-weight: 700;
      }

      .cls-13, .cls-14 {
        fill: #130044;
      }

      .cls-15 {
        letter-spacing: -.02em;
      }

      .cls-16 {
        letter-spacing: 0em;
      }

      .cls-17 {
        letter-spacing: -.01em;
      }

      .cls-18 {
        letter-spacing: -.04em;
      }

      .cls-19 {
        letter-spacing: 0em;
      }

      .cls-20 {
        letter-spacing: -.01em;
      }
    </style>
  </defs>
  <path class="cls-14" d="M337.15,8.99c11.1,0,20.14,9.03,20.14,20.14v247.12c0,11.1-9.03,20.14-20.14,20.14H29.13c-11.1,0-20.14-9.03-20.14-20.14V29.13c0-11.1,9.03-20.14,20.14-20.14h308.02M337.15,0H29.13C13.11,0,0,13.11,0,29.13v247.12C0,292.27,13.11,305.38,29.13,305.38h308.02c16.02,0,29.13-13.11,29.13-29.13V29.13c0-16.02-13.11-29.13-29.13-29.13h0Z"/>
  <text class="cls-13" transform="translate(27.59 253)"><tspan class="cls-11" x="0" y="0">C</tspan><tspan x="10.68" y="0">a</tspan><tspan class="cls-10" x="20.26" y="0">p</tspan><tspan class="cls-17" x="30.01" y="0">ot</tspan><tspan class="cls-10" x="44.34" y="0">a</tspan><tspan class="cls-9" x="53.77" y="0">ge</tspan><tspan x="72.16" y="0">m, </tspan><tspan class="cls-8" x="94.26" y="0">c</tspan><tspan class="cls-15" x="102.18" y="0">o</tspan><tspan x="110.83" y="0">l</tspan><tspan class="cls-16" x="114.7" y="0">is</tspan><tspan class="cls-20" x="125.29" y="0">ão</tspan><tspan x="143.51" y="0">, </tspan><tspan class="cls-17" x="151.4" y="0">t</tspan><tspan class="cls-5" x="156.95" y="0">o</tspan><tspan class="cls-19" x="165.73" y="0">m</tspan><tspan class="cls-20" x="179.98" y="0">b</tspan><tspan x="189.74" y="0">a</tspan><tspan class="cls-20" x="199.33" y="0">m</tspan><tspan class="cls-5" x="213.38" y="0">e</tspan><tspan x="222.15" y="0">n</tspan><tspan class="cls-17" x="231.08" y="0">t</tspan><tspan x="236.63" y="0">o </tspan><tspan class="cls-4" x="249.43" y="0">o</tspan><tspan x="258.02" y="0">u </tspan><tspan class="cls-7" x="0" y="19.2">des</tspan><tspan class="cls-2" x="25.46" y="19.2">c</tspan><tspan x="33.38" y="19.2">a</tspan><tspan class="cls-5" x="42.96" y="19.2">r</tspan><tspan class="cls-2" x="48.94" y="19.2">r</tspan><tspan class="cls-3" x="54.85" y="19.2">i</tspan><tspan class="cls-16" x="58.74" y="19.2">l</tspan><tspan x="62.49" y="19.2">a</tspan><tspan class="cls-10" x="72.07" y="19.2">m</tspan><tspan class="cls-9" x="86.13" y="19.2">e</tspan><tspan x="94.9" y="19.2">n</tspan><tspan class="cls-17" x="103.83" y="19.2">t</tspan><tspan x="109.38" y="19.2">o </tspan><tspan class="cls-16" x="122.18" y="19.2">d</tspan><tspan x="131.98" y="19.2">e </tspan><tspan class="cls-18" x="144.77" y="19.2">v</tspan><tspan class="cls-6" x="153.5" y="19.2">e</tspan><tspan class="cls-9" x="162.09" y="19.2">ic</tspan><tspan class="cls-12" x="173.75" y="19.2">u</tspan><tspan class="cls-16" x="182.4" y="19.2">l</tspan><tspan x="186.15" y="19.2">o </tspan><tspan class="cls-17" x="198.95" y="19.2">t</tspan><tspan class="cls-5" x="204.5" y="19.2">er</tspan><tspan class="cls-1" x="219.25" y="19.2">r</tspan><tspan class="cls-16" x="224.81" y="19.2">e</tspan><tspan x="233.64" y="19.2">st</tspan><tspan class="cls-1" x="246.32" y="19.2">r</tspan><tspan x="251.88" y="19.2">e</tspan></text>
  <polygon class="cls-14" points="338.69 262.6 330.04 262.6 330.04 253.95 324.38 253.95 324.38 262.6 315.73 262.6 315.73 268.27 324.38 268.27 324.38 276.92 330.04 276.92 330.04 268.27 338.69 268.27 338.69 262.6"/>
  <g>
    <g>
      <path class="cls-14" d="M52.56,71.47c-2.16,0-3.92,1.76-3.92,3.92s1.76,3.92,3.92,3.92,3.92-1.76,3.92-3.92-1.76-3.92-3.92-3.92ZM52.56,76.94c-.86,0-1.55-.7-1.55-1.55s.7-1.55,1.55-1.55,1.55.7,1.55,1.55-.7,1.55-1.55,1.55Z"/>
      <path class="cls-14" d="M80.19,71.47c-2.16,0-3.92,1.76-3.92,3.92s1.76,3.92,3.92,3.92,3.92-1.76,3.92-3.92c0-2.16-1.76-3.92-3.92-3.92ZM80.19,76.94c-.86,0-1.55-.7-1.55-1.55s.7-1.55,1.55-1.55,1.55.7,1.55,1.55-.7,1.55-1.55,1.55Z"/>
      <path class="cls-14" d="M85.02,51.57h-11v-2.3c0-2.09-1.7-3.79-3.79-3.79h-31.69c-2.09,0-3.79,1.7-3.79,3.79v26.14c0,.65.53,1.18,1.18,1.18h6.59s4.23,0,4.23,0c.65,0,1.18-.53,1.18-1.18,0-2.55,2.08-4.63,4.63-4.63s4.63,2.08,4.63,4.63c0,.65.53,1.18,1.18,1.18h16c.65,0,1.18-.53,1.18-1.18,0-2.55,2.08-4.63,4.63-4.63s4.63,2.08,4.63,4.63c0,.65.53,1.18,1.18,1.18h3.29s2.25,0,2.25,0c.65,0,1.18-.53,1.18-1.18v-16.14c0-4.24-3.45-7.69-7.69-7.69ZM71.66,74.23h-12.2c-.56-3.3-3.44-5.81-6.9-5.81s-6.33,2.52-6.9,5.81h-3.14s-2.22,0-2.22,0h-3.19v-20.33h26.06c.65,0,1.18-.53,1.18-1.18s-.53-1.18-1.18-1.18h-26.06v-2.26c0-.78.64-1.42,1.42-1.42h31.69c.78,0,1.42.64,1.42,1.42v24.95h0ZM90.34,74.23h-1.06s-2.2,0-2.2,0c-.56-3.3-3.44-5.82-6.9-5.82-2.66,0-4.98,1.5-6.16,3.69v-18.16h11c2.94,0,5.33,2.39,5.33,5.33v14.96h0Z"/>
      <path class="cls-14" d="M82.74,55.83h-5.29c-.65,0-1.18.53-1.18,1.18v8.24c0,.65.53,1.18,1.18,1.18h10.58c.65,0,1.18-.53,1.18-1.18v-2.96c0-3.57-2.9-6.47-6.47-6.47ZM86.85,64.07h-8.21v-5.88h4.11c2.26,0,4.1,1.84,4.1,4.1v1.78Z"/>
    </g>
    <path class="cls-14" d="M125.23,84.99H32.75c-.83,0-1.5-.67-1.5-1.5s.67-1.5,1.5-1.5h92.48c.83,0,1.5.67,1.5,1.5s-.67,1.5-1.5,1.5Z"/>
    <path class="cls-14" d="M125.23,35.17H32.75c-.83,0-1.5-.67-1.5-1.5s.67-1.5,1.5-1.5h92.48c.83,0,1.5.67,1.5,1.5s-.67,1.5-1.5,1.5Z"/>
    <path class="cls-14" d="M105.79,62.42h-12.39c-.83,0-1.5-.67-1.5-1.5s.67-1.5,1.5-1.5h10.89v-1.7h-13.14c-.83,0-1.5-.67-1.5-1.5s.67-1.5,1.5-1.5h14.64c.83,0,1.5.67,1.5,1.5v4.7c0,.83-.67,1.5-1.5,1.5Z"/>
    <path class="cls-14" d="M125.23,62.44h-9.42c-.83,0-1.5-.67-1.5-1.5v-4.72c0-.83.67-1.5,1.5-1.5h9.42c.83,0,1.5.67,1.5,1.5s-.67,1.5-1.5,1.5h-7.92v1.72h7.92c.83,0,1.5.67,1.5,1.5s-.67,1.5-1.5,1.5Z"/>
    <path class="cls-14" d="M34.75,57.72h-2c-.83,0-1.5-.67-1.5-1.5s.67-1.5,1.5-1.5h2c.83,0,1.5.67,1.5,1.5s-.67,1.5-1.5,1.5Z"/>
    <path class="cls-14" d="M34.75,62.42h-2c-.83,0-1.5-.67-1.5-1.5s.67-1.5,1.5-1.5h2c.83,0,1.5.67,1.5,1.5s-.67,1.5-1.5,1.5Z"/>
    <path class="cls-14" d="M85.04,50.38c-.25,0-.5-.06-.74-.19-.72-.41-.98-1.32-.57-2.04l3.5-6.19c.41-.72,1.32-.98,2.04-.57.72.41.98,1.32.57,2.04l-3.5,6.19c-.28.49-.78.76-1.31.76Z"/>
    <path class="cls-14" d="M90.34,52.67c-.45,0-.89-.2-1.19-.58-.51-.66-.39-1.6.27-2.1l7.35-5.69c.65-.51,1.6-.39,2.1.27.51.66.39,1.6-.27,2.1l-7.35,5.69c-.27.21-.6.31-.92.31Z"/>
    <path class="cls-14" d="M78.99,49.83c-.83,0-1.5-.67-1.5-1.5v-10.21c0-.83.67-1.5,1.5-1.5s1.5.67,1.5,1.5v10.21c0,.83-.67,1.5-1.5,1.5Z"/>
    <path class="cls-14" d="M105.79,75.74c-.13,0-.25-.02-.38-.05l-10.52-2.76c-.8-.21-1.28-1.03-1.07-1.83.21-.8,1.03-1.28,1.83-1.07l10.52,2.76c.8.21,1.28,1.03,1.07,1.83-.18.67-.78,1.12-1.45,1.12Z"/>
    <path class="cls-14" d="M97.69,80.8c-.28,0-.56-.08-.81-.24l-3.68-2.37c-.7-.45-.9-1.38-.45-2.07.45-.7,1.38-.9,2.07-.45l3.68,2.37c.7.45.9,1.38.45,2.07-.29.45-.77.69-1.26.69Z"/>
  </g>
</svg>