<?xml version="1.0" encoding="UTF-8"?>
<svg id="Layer_1" data-name="Layer 1" xmlns="http://www.w3.org/2000/svg" viewBox="0 0 366.28 305.38">
  <defs>
    <style>
      .cls-1 {
        letter-spacing: 0em;
      }

      .cls-2 {
        letter-spacing: 0em;
      }

      .cls-3 {
        letter-spacing: 0em;
      }

      .cls-4 {
        letter-spacing: -.04em;
      }

      .cls-5 {
        letter-spacing: -.01em;
      }

      .cls-6 {
        letter-spacing: 0em;
      }

      .cls-7 {
        fill: #fff;
      }

      .cls-8 {
        letter-spacing: -.01em;
      }

      .cls-9 {
        letter-spacing: 0em;
      }

      .cls-10 {
        letter-spacing: -.03em;
      }

      .cls-11 {
        letter-spacing: 0em;
      }

      .cls-12 {
        letter-spacing: -.03em;
      }

      .cls-13 {
        letter-spacing: -.01em;
      }

      .cls-14 {
        letter-spacing: 0em;
      }

      .cls-15 {
        letter-spacing: 0em;
      }

      .cls-16 {
        font-family: UrbanistRoman-Bold, Urbanist;
        font-size: 23.99px;
        font-variation-settings: 'wght' 700;
        font-weight: 700;
      }

      .cls-17 {
        letter-spacing: -.01em;
      }

      .cls-18 {
        letter-spacing: -.02em;
      }

      .cls-19 {
        letter-spacing: 0em;
      }

      .cls-20 {
        letter-spacing: -.01em;
      }

      .cls-21 {
        letter-spacing: 0em;
      }

      .cls-22 {
        letter-spacing: 0em;
      }

      .cls-23 {
        font-family: Urbanist-Regular, Urbanist;
        font-size: 18px;
        font-variation-settings: 'wght' 400;
      }

      .cls-24 {
        letter-spacing: 0em;
      }

      .cls-25 {
        fill: #130044;
      }
    </style>
  </defs>
  <rect class="cls-25" x="0" y="0" width="366.28" height="305.38" rx="29.13" ry="29.13"/>
  <g>
    <path class="cls-7" d="M74.52,52.5c-5.64,0-10.23-4.59-10.23-10.23s4.59-10.23,10.23-10.23,10.23,4.59,10.23,10.23-4.59,10.23-10.23,10.23ZM74.52,33.96c-4.58,0-8.31,3.73-8.31,8.31s3.73,8.31,8.31,8.31,8.31-3.73,8.31-8.31-3.73-8.31-8.31-8.31Z"/>
    <path class="cls-7" d="M94.24,78.23h-39.44v-.96c0-10.87,8.84-19.72,19.72-19.72,10.86,0,19.71,8.85,19.72,19.72v.96ZM56.75,76.31h35.55c-.51-9.36-8.29-16.83-17.78-16.84-9.49,0-17.27,7.47-17.77,16.84Z"/>
    <path class="cls-7" d="M102.1,52.5c-5.64,0-10.23-4.59-10.23-10.23s4.59-10.23,10.23-10.23,10.23,4.59,10.23,10.23-4.59,10.23-10.23,10.23ZM102.1,33.96c-4.58,0-8.31,3.73-8.31,8.31s3.73,8.31,8.31,8.31,8.31-3.73,8.31-8.31-3.73-8.31-8.31-8.31Z"/>
    <path class="cls-7" d="M121.82,78.23h-22.36v-1.92h20.42c-.5-9.37-8.28-16.84-17.78-16.84h-.01c-2.9,0-5.78.72-8.34,2.08l-.9-1.69c2.84-1.51,6.03-2.31,9.24-2.31h.01c10.87,0,19.72,8.84,19.72,19.72v.96Z"/>
    <path class="cls-7" d="M47.31,52.5c-5.64,0-10.23-4.59-10.23-10.23s4.59-10.23,10.23-10.23,10.23,4.59,10.23,10.23-4.59,10.23-10.23,10.23ZM47.31,33.96c-4.58,0-8.31,3.73-8.31,8.31s3.73,8.31,8.31,8.31,8.31-3.73,8.31-8.31-3.73-8.31-8.31-8.31Z"/>
    <path class="cls-7" d="M49.96,78.23h-22.36v-.96c0-10.87,8.85-19.72,19.72-19.72h.01c3.21,0,6.41.8,9.24,2.31l-.9,1.69c-2.56-1.36-5.44-2.08-8.34-2.08h-.01c-9.49,0-17.28,7.47-17.78,16.84h20.42v1.92Z"/>
  </g>
  <text class="cls-7" transform="translate(27.59 119.7)"><tspan class="cls-16"><tspan class="cls-18" x="0" y="0">S</tspan><tspan class="cls-5" x="14.61" y="0">e</tspan><tspan x="27.75" y="0">r</tspan><tspan class="cls-18" x="36.99" y="0">v</tspan><tspan class="cls-5" x="50.56" y="0">i</tspan><tspan class="cls-18" x="56.09" y="0">ç</tspan><tspan class="cls-1" x="67.96" y="0">o</tspan><tspan x="81.21" y="0">s </tspan><tspan class="cls-8" x="97.39" y="0">p</tspan><tspan class="cls-4" x="111.96" y="0">r</tspan><tspan x="120.29" y="0">o</tspan><tspan class="cls-1" x="133.73" y="0">fi</tspan><tspan x="147.91" y="0">s</tspan><tspan class="cls-8" x="158.34" y="0">sio</tspan><tspan class="cls-14" x="187.17" y="0">n</tspan><tspan x="200.31" y="0">a</tspan><tspan class="cls-1" x="214.68" y="0">i</tspan><tspan x="220.31" y="0">s</tspan></tspan><tspan class="cls-23"><tspan class="cls-15" x="0" y="43.2">A</tspan><tspan x="12" y="43.2">m</tspan><tspan class="cls-20" x="27.99" y="43.2">p</tspan><tspan x="38.63" y="43.2">a</tspan><tspan class="cls-10" x="49.09" y="43.2">r</tspan><tspan x="54.92" y="43.2">a o </tspan><tspan class="cls-6" x="84.1" y="43.2">p</tspan><tspan class="cls-12" x="94.82" y="43.2">r</tspan><tspan x="100.66" y="43.2">o</tspan><tspan class="cls-19" x="110.74" y="43.2">fi</tspan><tspan x="120.03" y="43.2">s</tspan><tspan class="cls-6" x="127.76" y="43.2">sio</tspan><tspan class="cls-15" x="148.73" y="43.2">n</tspan><tspan class="cls-11" x="158.19" y="43.2">a</tspan><tspan x="168.77" y="43.2">l </tspan><tspan class="cls-15" x="176.51" y="43.2">p</tspan><tspan class="cls-6" x="187.15" y="43.2">o</tspan><tspan x="197.14" y="43.2">r </tspan></tspan><tspan class="cls-23"><tspan class="cls-21" x="0" y="64.8">q</tspan><tspan class="cls-19" x="10.7" y="64.8">u</tspan><tspan class="cls-11" x="19.93" y="64.8">a</tspan><tspan class="cls-19" x="30.5" y="64.8">l</tspan><tspan class="cls-21" x="33.86" y="64.8">q</tspan><tspan class="cls-19" x="44.56" y="64.8">u</tspan><tspan class="cls-24" x="53.78" y="64.8">e</tspan><tspan x="63.75" y="64.8">r a</tspan><tspan class="cls-13" x="84.96" y="64.8">t</tspan><tspan x="90.93" y="64.8">o </tspan><tspan class="cls-19" x="105.33" y="64.8">d</tspan><tspan x="116.09" y="64.8">a</tspan><tspan class="cls-15" x="126.55" y="64.8">n</tspan><tspan class="cls-19" x="136.02" y="64.8">os</tspan><tspan x="153.7" y="64.8">o </tspan><tspan class="cls-12" x="168.1" y="64.8">r</tspan><tspan class="cls-2" x="173.93" y="64.8">e</tspan><tspan class="cls-3" x="183.83" y="64.8">l</tspan><tspan class="cls-20" x="187.19" y="64.8">a</tspan><tspan class="cls-22" x="197.47" y="64.8">c</tspan><tspan class="cls-6" x="206.49" y="64.8">io</tspan><tspan class="cls-15" x="219.81" y="64.8">na</tspan><tspan class="cls-19" x="239.55" y="64.8">d</tspan><tspan x="250.32" y="64.8">o a </tspan></tspan><tspan class="cls-23"><tspan x="0" y="86.4">s</tspan><tspan class="cls-19" x="7.73" y="86.4">u</tspan><tspan x="16.96" y="86.4">a </tspan><tspan class="cls-6" x="31.73" y="86.4">p</tspan><tspan class="cls-12" x="42.46" y="86.4">r</tspan><tspan x="48.29" y="86.4">o</tspan><tspan class="cls-19" x="58.37" y="86.4">fi</tspan><tspan x="67.67" y="86.4">s</tspan><tspan class="cls-19" x="75.4" y="86.4">s</tspan><tspan class="cls-15" x="83.07" y="86.4">ã</tspan><tspan x="93.35" y="86.4">o </tspan><tspan class="cls-21" x="107.75" y="86.4">c</tspan><tspan class="cls-6" x="116.8" y="86.4">o</tspan><tspan class="cls-20" x="126.79" y="86.4">m</tspan><tspan class="cls-17" x="142.6" y="86.4">e</tspan><tspan class="cls-19" x="152.42" y="86.4">t</tspan><tspan class="cls-6" x="158.56" y="86.4">i</tspan><tspan class="cls-19" x="161.89" y="86.4">d</tspan><tspan x="172.66" y="86.4">o </tspan><tspan class="cls-15" x="187.06" y="86.4">p</tspan><tspan class="cls-6" x="197.69" y="86.4">o</tspan><tspan x="207.68" y="86.4">r </tspan><tspan class="cls-22" x="218.44" y="86.4">e</tspan><tspan class="cls-19" x="228.34" y="86.4">l</tspan><tspan x="231.7" y="86.4">e(a) </tspan></tspan><tspan class="cls-23"><tspan class="cls-15" x="0" y="108">n</tspan><tspan x="9.47" y="108">a </tspan><tspan class="cls-10" x="24.25" y="108">r</tspan><tspan class="cls-20" x="30.08" y="108">e</tspan><tspan class="cls-11" x="39.95" y="108">a</tspan><tspan x="50.53" y="108">li</tspan><tspan class="cls-24" x="57.37" y="108">z</tspan><tspan class="cls-20" x="66.4" y="108">a</tspan><tspan class="cls-21" x="76.68" y="108">ç</tspan><tspan class="cls-15" x="85.73" y="108">ã</tspan><tspan x="96.01" y="108">o </tspan><tspan class="cls-19" x="110.41" y="108">d</tspan><tspan x="121.18" y="108">e </tspan><tspan class="cls-19" x="135.55" y="108">s</tspan><tspan class="cls-15" x="143.22" y="108">e</tspan><tspan x="153.09" y="108">us </tspan><tspan class="cls-19" x="174.43" y="108">s</tspan><tspan class="cls-6" x="182.1" y="108">e</tspan><tspan x="192.06" y="108">r</tspan><tspan class="cls-21" x="198.49" y="108">v</tspan><tspan class="cls-6" x="207.63" y="108">i</tspan><tspan class="cls-21" x="210.96" y="108">ç</tspan><tspan class="cls-19" x="220.01" y="108">o</tspan><tspan class="cls-9" x="230.03" y="108">s</tspan><tspan x="237.73" y="108">.</tspan></tspan></text>
</svg>