<?xml version="1.0" encoding="UTF-8"?>
<svg id="Layer_1" data-name="Layer 1" xmlns="http://www.w3.org/2000/svg" viewBox="0 0 366.28 305.38">
  <defs>
    <style>
      .cls-1 {
        letter-spacing: 0em;
      }

      .cls-2 {
        letter-spacing: -.04em;
      }

      .cls-3 {
        letter-spacing: 0em;
      }

      .cls-4 {
        fill: #fff;
      }

      .cls-5 {
        letter-spacing: 0em;
      }

      .cls-6 {
        letter-spacing: -.03em;
      }

      .cls-7 {
        letter-spacing: 0em;
      }

      .cls-8 {
        letter-spacing: 0em;
      }

      .cls-9 {
        font-family: UrbanistRoman-Bold, Urbanist;
        font-size: 23.99px;
        font-variation-settings: 'wght' 700;
        font-weight: 700;
      }

      .cls-10 {
        letter-spacing: -.03em;
      }

      .cls-11 {
        letter-spacing: -.03em;
      }

      .cls-12 {
        letter-spacing: 0em;
      }

      .cls-13 {
        letter-spacing: 0em;
      }

      .cls-14 {
        letter-spacing: 0em;
      }

      .cls-15 {
        letter-spacing: -.02em;
      }

      .cls-16 {
        letter-spacing: -.01em;
      }

      .cls-17 {
        letter-spacing: 0em;
      }

      .cls-18 {
        letter-spacing: -.01em;
      }

      .cls-19 {
        letter-spacing: 0em;
      }

      .cls-20 {
        letter-spacing: 0em;
      }

      .cls-21 {
        font-family: Urbanist-Regular, Urbanist;
        font-size: 18px;
        font-variation-settings: 'wght' 400;
      }

      .cls-22 {
        fill: #130044;
      }

      .cls-23 {
        letter-spacing: -.01em;
      }
    </style>
  </defs>
  <rect class="cls-22" x="0" y="0" width="366.28" height="305.38" rx="29.13" ry="29.13"/>
  <g>
    <path class="cls-4" d="M73.78,28c-6.24,0-11.31,5.07-11.31,11.31,0,2.45.79,4.71,2.12,6.57h-4.22v-17.88h-22.35v11.92h-8.94v32.78h-1.49v1.49h46.19v-1.49h-1.49v-22.19c.49.06.98.11,1.49.11,6.24,0,11.31-5.08,11.31-11.31s-5.07-11.31-11.31-11.31ZM49.94,72.7h-19.37v-31.29h19.37v31.29ZM52.92,72.7h-1.49v-32.78h-11.92v-10.43h19.37v16.39h-5.96v26.82ZM66.33,72.7h-7.45v-10.43h7.45v10.43ZM70.8,72.7h-2.98v-10.43h1.49v-1.49h-13.41v1.49h1.49v10.43h-2.98v-25.33h11.45c.57.56,1.21,1.06,1.89,1.49h-4.39v4.47h5.96v-3.63c.48.21.98.37,1.49.51v22.49ZM67.82,50.35v1.49h-2.98v-1.49h2.98ZM73.78,48.62c-5.13,0-9.31-4.18-9.31-9.31s4.18-9.31,9.31-9.31,9.31,4.18,9.31,9.31-4.18,9.31-9.31,9.31Z"/>
    <path class="cls-4" d="M73.78,33.16c-1.62,0-2.93,1.32-2.93,2.93,0,.55.45,1,1,1s1-.45,1-1c0-.51.42-.93.93-.93s.93.42.93.93c0,.33-.17.63-.46.81-1.22.72-1.47,1.57-1.47,2.16v1.29c0,.55.45,1,1,1s1-.45,1-1v-1.29s.11-.22.49-.44c.89-.53,1.44-1.5,1.44-2.53,0-1.62-1.32-2.93-2.93-2.93Z"/>
    <path class="cls-4" d="M73.78,42.41c-.57,0-1.03.46-1.03,1.03s.46,1.03,1.03,1.03,1.03-.46,1.03-1.03-.46-1.03-1.03-1.03Z"/>
    <path class="cls-4" d="M36.53,42.9h-4.47v4.47h4.47v-4.47ZM35.04,45.88h-1.49v-1.49h1.49v1.49Z"/>
    <path class="cls-4" d="M42.49,42.9h-4.47v4.47h4.47v-4.47ZM41,45.88h-1.49v-1.49h1.49v1.49Z"/>
    <path class="cls-4" d="M55.9,53.33h5.96v-4.47h-5.96v4.47ZM57.39,50.35h2.98v1.49h-2.98v-1.49Z"/>
    <path class="cls-4" d="M55.9,59.29h5.96v-4.47h-5.96v4.47ZM57.39,56.31h2.98v1.49h-2.98v-1.49Z"/>
    <path class="cls-4" d="M63.35,59.29h5.96v-4.47h-5.96v4.47ZM64.84,56.31h2.98v1.49h-2.98v-1.49Z"/>
    <path class="cls-4" d="M36.53,48.86h-4.47v4.47h4.47v-4.47ZM35.04,51.84h-1.49v-1.49h1.49v1.49Z"/>
    <path class="cls-4" d="M42.49,48.86h-4.47v4.47h4.47v-4.47ZM41,51.84h-1.49v-1.49h1.49v1.49Z"/>
    <path class="cls-4" d="M36.53,54.82h-4.47v4.47h4.47v-4.47ZM35.04,57.8h-1.49v-1.49h1.49v1.49Z"/>
    <path class="cls-4" d="M42.49,54.82h-4.47v4.47h4.47v-4.47ZM41,57.8h-1.49v-1.49h1.49v1.49Z"/>
    <path class="cls-4" d="M36.53,60.78h-4.47v4.47h4.47v-4.47ZM35.04,63.76h-1.49v-1.49h1.49v1.49Z"/>
    <path class="cls-4" d="M42.49,60.78h-4.47v4.47h4.47v-4.47ZM41,63.76h-1.49v-1.49h1.49v1.49Z"/>
    <path class="cls-4" d="M36.53,66.74h-4.47v4.47h4.47v-4.47ZM35.04,69.72h-1.49v-1.49h1.49v1.49Z"/>
    <path class="cls-4" d="M42.49,66.74h-4.47v4.47h4.47v-4.47ZM41,69.72h-1.49v-1.49h1.49v1.49Z"/>
    <path class="cls-4" d="M48.45,42.9h-4.47v4.47h4.47v-4.47ZM46.96,45.88h-1.49v-1.49h1.49v1.49Z"/>
    <path class="cls-4" d="M48.45,48.86h-4.47v4.47h4.47v-4.47ZM46.96,51.84h-1.49v-1.49h1.49v1.49Z"/>
    <path class="cls-4" d="M48.45,54.82h-4.47v4.47h4.47v-4.47ZM46.96,57.8h-1.49v-1.49h1.49v1.49Z"/>
    <path class="cls-4" d="M48.45,60.78h-4.47v4.47h4.47v-4.47ZM46.96,63.76h-1.49v-1.49h1.49v1.49Z"/>
    <path class="cls-4" d="M41,38.43h16.39v-7.45h-16.39v7.45ZM42.49,32.47h13.41v4.47h-13.41v-4.47Z"/>
    <path class="cls-4" d="M48.45,66.74h-4.47v4.47h4.47v-4.47ZM46.96,69.72h-1.49v-1.49h1.49v1.49Z"/>
  </g>
  <text class="cls-4" transform="translate(27.59 119.7)"><tspan class="cls-9"><tspan class="cls-2" x="0" y="0">R</tspan><tspan class="cls-15" x="13.54" y="0">o</tspan><tspan class="cls-7" x="26.42" y="0">u</tspan><tspan class="cls-12" x="39.39" y="0">b</tspan><tspan x="54.02" y="0">o e </tspan><tspan class="cls-13" x="92.38" y="0">f</tspan><tspan x="101.23" y="0">ur</tspan><tspan class="cls-23" x="123.37" y="0">t</tspan><tspan x="131.7" y="0">o</tspan></tspan><tspan class="cls-21"><tspan class="cls-14" x="0" y="43.2">P</tspan><tspan class="cls-6" x="9.24" y="43.2">r</tspan><tspan class="cls-16" x="15.08" y="43.2">ot</tspan><tspan class="cls-14" x="30.88" y="43.2">e</tspan><tspan class="cls-19" x="40.75" y="43.2">ç</tspan><tspan class="cls-18" x="49.81" y="43.2">ã</tspan><tspan x="60.08" y="43.2">o </tspan><tspan class="cls-3" x="74.48" y="43.2">e</tspan><tspan class="cls-20" x="84.45" y="43.2">m </tspan><tspan class="cls-19" x="104.76" y="43.2">c</tspan><tspan x="113.81" y="43.2">a</tspan><tspan class="cls-1" x="124.27" y="43.2">s</tspan><tspan x="131.94" y="43.2">o </tspan><tspan class="cls-17" x="146.34" y="43.2">d</tspan><tspan x="157.1" y="43.2">e s</tspan><tspan class="cls-8" x="179.21" y="43.2">u</tspan><tspan class="cls-16" x="188.61" y="43.2">b</tspan><tspan x="199.2" y="43.2">t</tspan><tspan class="cls-6" x="205.41" y="43.2">r</tspan><tspan class="cls-18" x="211.24" y="43.2">a</tspan><tspan class="cls-19" x="221.52" y="43.2">ç</tspan><tspan class="cls-14" x="230.57" y="43.2">ã</tspan><tspan x="240.85" y="43.2">o </tspan></tspan><tspan class="cls-21"><tspan class="cls-17" x="0" y="64.8">d</tspan><tspan x="10.76" y="64.8">e </tspan><tspan class="cls-14" x="25.14" y="64.8">b</tspan><tspan class="cls-3" x="35.78" y="64.8">e</tspan><tspan x="45.75" y="64.8">n</tspan><tspan class="cls-5" x="55.39" y="64.8">s</tspan><tspan x="63.1" y="64.8">, </tspan><tspan class="cls-18" x="71.04" y="64.8">m</tspan><tspan class="cls-3" x="86.85" y="64.8">e</tspan><tspan class="cls-11" x="96.81" y="64.8">r</tspan><tspan class="cls-19" x="102.64" y="64.8">c</tspan><tspan class="cls-18" x="111.7" y="64.8">a</tspan><tspan class="cls-17" x="121.98" y="64.8">d</tspan><tspan class="cls-3" x="132.74" y="64.8">o</tspan><tspan class="cls-19" x="142.73" y="64.8">r</tspan><tspan class="cls-3" x="149.05" y="64.8">i</tspan><tspan x="152.38" y="64.8">as e </tspan><tspan class="cls-10" x="189.26" y="64.8">v</tspan><tspan class="cls-8" x="198.03" y="64.8">a</tspan><tspan class="cls-17" x="208.61" y="64.8">l</tspan><tspan class="cls-3" x="211.97" y="64.8">o</tspan><tspan class="cls-11" x="221.96" y="64.8">r</tspan><tspan class="cls-17" x="227.79" y="64.8">e</tspan><tspan x="237.78" y="64.8">s </tspan><tspan class="cls-17" x="249.83" y="64.8">d</tspan><tspan x="260.59" y="64.8">a </tspan></tspan><tspan class="cls-21"><tspan class="cls-3" x="0" y="86.4">e</tspan><tspan x="9.96" y="86.4">m</tspan><tspan class="cls-3" x="25.96" y="86.4">p</tspan><tspan class="cls-6" x="36.68" y="86.4">r</tspan><tspan class="cls-1" x="42.52" y="86.4">es</tspan><tspan x="60.17" y="86.4">a.</tspan></tspan></text>
</svg>