<?xml version="1.0" encoding="UTF-8"?>
<svg id="Layer_1" data-name="Layer 1" xmlns="http://www.w3.org/2000/svg" viewBox="0 0 366.28 305.38">
  <defs>
    <style>
      .cls-1 {
        letter-spacing: 0em;
      }

      .cls-2 {
        letter-spacing: 0em;
      }

      .cls-3 {
        letter-spacing: 0em;
      }

      .cls-4 {
        letter-spacing: -.01em;
      }

      .cls-5 {
        letter-spacing: -.02em;
      }

      .cls-6 {
        letter-spacing: 0em;
      }

      .cls-7 {
        letter-spacing: -.02em;
      }

      .cls-8 {
        letter-spacing: -.04em;
      }

      .cls-9 {
        letter-spacing: 0em;
      }

      .cls-10 {
        font-family: UrbanistRoman-Bold, Urbanist;
        font-size: 23.99px;
        font-variation-settings: 'wght' 700;
        font-weight: 700;
      }

      .cls-10, .cls-11 {
        fill: #130044;
      }

      .cls-12 {
        letter-spacing: -.01em;
      }
    </style>
  </defs>
  <path class="cls-11" d="M337.15,8.99c11.1,0,20.14,9.03,20.14,20.14v247.12c0,11.1-9.03,20.14-20.14,20.14H29.13c-11.1,0-20.13-9.03-20.13-20.14V29.13c0-11.1,9.03-20.14,20.13-20.14h308.02M337.15,0H29.13C13.11,0,0,13.11,0,29.13v247.12C0,292.27,13.11,305.38,29.13,305.38h308.02c16.02,0,29.13-13.11,29.13-29.13V29.13C366.28,13.11,353.18,0,337.15,0h0Z"/>
  <text class="cls-10" transform="translate(27.59 274.19)"><tspan class="cls-5" x="0" y="0">G</tspan><tspan x="18.06" y="0">a</tspan><tspan class="cls-8" x="32.43" y="0">r</tspan><tspan class="cls-9" x="40.77" y="0">an</tspan><tspan class="cls-1" x="68.52" y="0">t</tspan><tspan class="cls-4" x="76.92" y="0">i</tspan><tspan x="82.45" y="0">a </tspan><tspan class="cls-2" x="102.58" y="0">i</tspan><tspan x="108.29" y="0">n</tspan><tspan class="cls-12" x="121.67" y="0">t</tspan><tspan class="cls-4" x="129.99" y="0">er</tspan><tspan class="cls-6" x="152.1" y="0">na</tspan><tspan class="cls-7" x="179.37" y="0">c</tspan><tspan class="cls-4" x="191.15" y="0">io</tspan><tspan class="cls-6" x="209.83" y="0">n</tspan><tspan class="cls-3" x="222.98" y="0">a</tspan><tspan x="237.41" y="0">l</tspan></text>
  <polygon class="cls-11" points="338.69 262.6 330.04 262.6 330.04 253.95 324.38 253.95 324.38 262.6 315.73 262.6 315.73 268.27 324.38 268.27 324.38 276.92 330.04 276.92 330.04 268.27 338.69 268.27 338.69 262.6"/>
  <path class="cls-11" d="M50.66,32.04c-12.75.01-23.07,10.35-23.07,23.1,0,12.76,10.34,23.1,23.1,23.1s23.1-10.34,23.1-23.1-10.34-23.1-23.1-23.1c0,0-.02,0-.02,0ZM51.84,34.66c2.43.41,4.76,2.42,6.59,5.74.59,1.07,1.12,2.28,1.57,3.58h-8.16v-9.32ZM49.53,34.75v9.23h-7.74c.46-1.3.98-2.51,1.57-3.58,1.72-3.13,3.89-5.09,6.16-5.65h0ZM44.21,35.38c-1.07,1.09-2.04,2.41-2.87,3.91-.78,1.41-1.44,2.99-1.99,4.69h-6.22c2.56-4.02,6.46-7.1,11.07-8.61ZM57.8,35.59c4.34,1.58,8,4.56,10.44,8.39h-5.79c-.55-1.71-1.21-3.29-1.99-4.69-.77-1.41-1.67-2.66-2.66-3.7h0ZM31.87,46.3h6.84c-.58,2.38-.93,4.97-1.02,7.68h-7.76c.14-2.66.8-5.27,1.93-7.68h0ZM41.09,46.3h8.44v7.68h-9.53c.1-2.74.48-5.34,1.09-7.68h0ZM51.84,46.3h8.87c.61,2.35.99,4.94,1.09,7.68h-9.96v-7.68h0ZM63.09,46.3h6.42c1.13,2.41,1.79,5.02,1.93,7.68h-7.33c-.09-2.71-.44-5.3-1.02-7.68h0ZM29.94,56.29h7.74c.06,2.7.38,5.29.92,7.68h-6.73c-1.13-2.41-1.79-5.02-1.93-7.68ZM39.99,56.29h9.55v7.68h-8.55c-.58-2.36-.93-4.95-.99-7.68ZM51.84,56.29h9.97c-.06,2.73-.42,5.33-.99,7.68h-8.98v-7.68ZM64.12,56.29h7.32c-.14,2.66-.8,5.27-1.93,7.68h-6.31c.54-2.39.86-4.98.92-7.68h0ZM33.14,66.28h6.07c.57,1.89,1.29,3.62,2.14,5.16.66,1.21,1.42,2.3,2.24,3.24-4.35-1.58-8.01-4.56-10.45-8.4h0ZM41.64,66.28h7.9v9.61c-.14,0-.28-.02-.42-.03-2.12-.69-4.12-2.6-5.74-5.53-.66-1.2-1.24-2.56-1.73-4.04h0ZM51.84,66.28h8.32c-.49,1.49-1.07,2.84-1.73,4.04-1.58,2.88-3.54,4.76-5.61,5.49-.33.03-.65.06-.98.07v-9.61ZM62.59,66.28h5.64c-2.34,3.68-5.77,6.53-9.81,8.15.74-.89,1.42-1.89,2.03-2.99.85-1.54,1.56-3.27,2.14-5.16h0Z"/>
</svg>