<?xml version="1.0" encoding="UTF-8"?>
<svg id="Layer_1" data-name="Layer 1" xmlns="http://www.w3.org/2000/svg" viewBox="0 0 366.28 305.38">
  <defs>
    <style>
      .cls-1 {
        letter-spacing: 0em;
      }

      .cls-2 {
        letter-spacing: -.04em;
      }

      .cls-3 {
        letter-spacing: -.02em;
      }

      .cls-4 {
        letter-spacing: -.02em;
      }

      .cls-5 {
        letter-spacing: 0em;
      }

      .cls-6 {
        letter-spacing: 0em;
      }

      .cls-7 {
        letter-spacing: 0em;
      }

      .cls-8 {
        fill: #fff;
      }

      .cls-9 {
        letter-spacing: -.01em;
      }

      .cls-10 {
        letter-spacing: 0em;
      }

      .cls-11 {
        letter-spacing: 0em;
      }

      .cls-12 {
        font-family: UrbanistRoman-Bold, Urbanist;
        font-size: 20px;
        font-variation-settings: 'wght' 700;
        font-weight: 700;
      }

      .cls-13 {
        letter-spacing: -.03em;
      }

      .cls-14 {
        letter-spacing: 0em;
      }

      .cls-15 {
        letter-spacing: -.02em;
      }

      .cls-16 {
        letter-spacing: -.01em;
      }

      .cls-17 {
        letter-spacing: -.01em;
      }

      .cls-18 {
        letter-spacing: 0em;
      }

      .cls-19 {
        letter-spacing: -.04em;
      }

      .cls-20 {
        letter-spacing: 0em;
      }

      .cls-21 {
        letter-spacing: -.02em;
      }

      .cls-22 {
        letter-spacing: -.04em;
      }

      .cls-23 {
        letter-spacing: -.01em;
      }

      .cls-24 {
        letter-spacing: -.01em;
      }

      .cls-25 {
        letter-spacing: -.01em;
      }

      .cls-26 {
        letter-spacing: 0em;
      }

      .cls-27 {
        letter-spacing: 0em;
      }

      .cls-28 {
        letter-spacing: -.01em;
      }

      .cls-29 {
        letter-spacing: 0em;
      }

      .cls-30 {
        letter-spacing: 0em;
      }

      .cls-31 {
        font-family: Urbanist-Regular, Urbanist;
        font-size: 18px;
        font-variation-settings: 'wght' 400;
      }

      .cls-32 {
        letter-spacing: 0em;
      }

      .cls-33 {
        fill: #130044;
      }
    </style>
  </defs>
  <rect class="cls-33" x="0" y="0" width="366.28" height="305.38" rx="29.13" ry="29.13"/>
  <g>
    <path class="cls-8" d="M73.05,42.24c.41,0,.74-.33.74-.74v-4.81c0-.41-.33-.74-.74-.74h-36.2c-.35-2.22-2.28-3.92-4.6-3.92-2.57,0-4.66,2.09-4.66,4.66v25.11c0,.41.33.74.74.74s.74-.33.74-.74v-25.11c0-1.76,1.43-3.19,3.19-3.19s3.19,1.43,3.19,3.19v33.48c-.83-.78-1.96-1.26-3.19-1.26s-2.35.48-3.19,1.26v-4.34c0-.41-.33-.74-.74-.74s-.74.33-.74.74v7.73c0,2.57,2.09,4.66,4.66,4.66h40.8c.41,0,.74-.33.74-.74v-32.17c0-.41-.33-.74-.74-.74s-.74.33-.74.74v31.43h-40.06c-1.76,0-3.19-1.43-3.19-3.19s1.43-3.19,3.19-3.19,3.19,1.43,3.19,3.19c0,.41.33.74.74.74s.74-.33.74-.74v-36.14h35.4v4.07c0,.41.33.74.74.74Z"/>
    <path class="cls-8" d="M44.8,64.89h19.61c.41,0,.74-.33.74-.74v-13.39h3.19c.32,0,.61-.21.7-.52.1-.31-.02-.64-.29-.82l-13.73-9.41c-.25-.17-.58-.17-.83,0l-13.73,9.41c-.27.18-.38.52-.29.82.1.31.38.52.7.52h3.19v13.39c0,.41.33.74.74.74ZM43.25,49.3l11.36-7.79,11.36,7.79h-1.55c-.41,0-.74.33-.74.74v13.39h-18.14v-13.39c0-.41-.33-.74-.74-.74h-1.55Z"/>
    <path class="cls-8" d="M49.9,61.75c.41,0,.74-.33.74-.74v-3.92c0-.89.73-1.62,1.62-1.62s1.62.73,1.62,1.62v3.92c0,.41.33.74.74.74s.74-.33.74-.74v-3.92c0-.89.73-1.62,1.62-1.62s1.62.73,1.62,1.62v3.92c0,.41.33.74.74.74s.74-.33.74-.74v-3.92c0-1.7-1.39-3.09-3.09-3.09-.94,0-1.79.42-2.35,1.09-.57-.67-1.41-1.09-2.35-1.09-.61,0-1.18.18-1.66.49-.1-.28-.37-.49-.69-.49-.41,0-.74.33-.74.74v6.28c0,.41.33.74.74.74Z"/>
    <path class="cls-8" d="M56.18,49.99c.41,0,.74-.33.74-.74s.29-.74.67-.82c.41-.08.82.16.95.56l-2.88,2.88c-.45.45-.12,1.26.52,1.26h3.14c.41,0,.74-.33.74-.74s-.33-.74-.74-.74h-1.36l1.88-1.88c.14-.14.22-.32.22-.52,0-1.27-1.03-2.3-2.3-2.3s-2.3,1.03-2.3,2.3c0,.41.33.74.74.74Z"/>
    <path class="cls-8" d="M63.93,72.84c-.41,0-.74.33-.74.74s.33.74.74.74h4.41c.41,0,.74-.33.74-.74v-5.49c0-.41-.33-.74-.74-.74h-27.46c-.41,0-.74.33-.74.74v5.49c0,.41.33.74.74.74h18.83c.41,0,.74-.33.74-.74s-.33-.74-.74-.74h-18.09v-4.02h2.45v1.62c0,.41.33.74.74.74s.74-.33.74-.74v-1.62h2.45v1.62c0,.41.33.74.74.74s.74-.33.74-.74v-1.62h2.45v1.62c0,.41.33.74.74.74s.74-.33.74-.74v-1.62h2.45v1.62c0,.41.33.74.74.74s.74-.33.74-.74v-1.62h2.45v1.62c0,.41.33.74.74.74s.74-.33.74-.74v-1.62h2.45v1.62c0,.41.33.74.74.74s.74-.33.74-.74v-1.62h2.45v4.02h-3.68Z"/>
  </g>
  <text class="cls-8" transform="translate(27.59 116.72)"><tspan class="cls-12"><tspan class="cls-19" x="0" y="0">P</tspan><tspan x="10.19" y="0">a</tspan><tspan class="cls-2" x="22.17" y="0">r</tspan><tspan class="cls-6" x="29.12" y="0">a </tspan><tspan class="cls-21" x="45.9" y="0">c</tspan><tspan class="cls-9" x="55.79" y="0">o</tspan><tspan x="66.76" y="0">nst</tspan><tspan class="cls-28" x="93.77" y="0">r</tspan><tspan class="cls-26" x="101.27" y="0">u</tspan><tspan class="cls-21" x="111.88" y="0">ç</tspan><tspan class="cls-28" x="121.77" y="0">ão</tspan><tspan x="144.55" y="0">, </tspan><tspan class="cls-24" x="154.41" y="0">f</tspan><tspan class="cls-17" x="161.42" y="0">or</tspan><tspan class="cls-28" x="179.86" y="0">ne</tspan><tspan class="cls-3" x="201.81" y="0">c</tspan><tspan class="cls-10" x="211.63" y="0">i</tspan><tspan class="cls-20" x="216.39" y="0">m</tspan><tspan class="cls-17" x="233.96" y="0">e</tspan><tspan x="244.92" y="0">n</tspan><tspan class="cls-25" x="256.08" y="0">t</tspan><tspan x="263.02" y="0">o </tspan></tspan><tspan class="cls-12"><tspan class="cls-15" x="0" y="24">o</tspan><tspan x="10.74" y="24">u </tspan><tspan class="cls-9" x="26.3" y="24">p</tspan><tspan class="cls-22" x="38.45" y="24">r</tspan><tspan class="cls-26" x="45.4" y="24">e</tspan><tspan x="56.44" y="24">s</tspan><tspan class="cls-25" x="65.13" y="24">t</tspan><tspan class="cls-20" x="72.07" y="24">a</tspan><tspan class="cls-4" x="83.85" y="24">ç</tspan><tspan class="cls-20" x="93.74" y="24">ã</tspan><tspan x="105.52" y="24">o </tspan><tspan class="cls-26" x="121.52" y="24">d</tspan><tspan x="133.77" y="24">e </tspan><tspan class="cls-26" x="149.76" y="24">s</tspan><tspan class="cls-9" x="158.3" y="24">e</tspan><tspan class="cls-6" x="169.26" y="24">r</tspan><tspan class="cls-21" x="176.96" y="24">v</tspan><tspan class="cls-9" x="188.28" y="24">i</tspan><tspan class="cls-4" x="192.89" y="24">ç</tspan><tspan class="cls-26" x="202.78" y="24">o</tspan><tspan x="213.83" y="24">s</tspan></tspan><tspan class="cls-31"><tspan class="cls-29" x="0" y="67.2">G</tspan><tspan x="13.71" y="67.2">a</tspan><tspan class="cls-13" x="24.17" y="67.2">r</tspan><tspan x="30" y="67.2">an</tspan><tspan class="cls-23" x="50.1" y="67.2">t</tspan><tspan x="56.07" y="67.2">e a </tspan><tspan class="cls-11" x="85.22" y="67.2">i</tspan><tspan class="cls-28" x="88.61" y="67.2">n</tspan><tspan class="cls-5" x="98.08" y="67.2">d</tspan><tspan class="cls-7" x="108.85" y="67.2">e</tspan><tspan x="118.81" y="67.2">ni</tspan><tspan class="cls-7" x="131.88" y="67.2">z</tspan><tspan class="cls-28" x="140.91" y="67.2">a</tspan><tspan class="cls-29" x="151.19" y="67.2">ç</tspan><tspan class="cls-18" x="160.24" y="67.2">ã</tspan><tspan x="170.52" y="67.2">o </tspan><tspan class="cls-28" x="184.92" y="67.2">p</tspan><tspan class="cls-30" x="195.56" y="67.2">e</tspan><tspan class="cls-27" x="205.46" y="67.2">lo</tspan><tspan x="218.83" y="67.2">s </tspan></tspan><tspan class="cls-31"><tspan class="cls-7" x="0" y="88.8">p</tspan><tspan class="cls-13" x="10.73" y="88.8">r</tspan><tspan class="cls-18" x="16.56" y="88.8">e</tspan><tspan class="cls-29" x="26.43" y="88.8">j</tspan><tspan x="30.29" y="88.8">uí</tspan><tspan class="cls-7" x="42.99" y="88.8">z</tspan><tspan class="cls-27" x="52.03" y="88.8">o</tspan><tspan x="62.05" y="88.8">s </tspan><tspan class="cls-27" x="74.1" y="88.8">d</tspan><tspan class="cls-18" x="84.86" y="88.8">e</tspan><tspan class="cls-29" x="94.73" y="88.8">c</tspan><tspan class="cls-7" x="103.79" y="88.8">or</tspan><tspan class="cls-13" x="120.12" y="88.8">r</tspan><tspan class="cls-7" x="125.96" y="88.8">e</tspan><tspan x="135.92" y="88.8">n</tspan><tspan class="cls-23" x="145.57" y="88.8">t</tspan><tspan class="cls-27" x="151.53" y="88.8">e</tspan><tspan x="161.52" y="88.8">s </tspan><tspan class="cls-27" x="173.57" y="88.8">d</tspan><tspan x="184.34" y="88.8">o </tspan></tspan><tspan class="cls-31"><tspan class="cls-11" x="0" y="110.4">i</tspan><tspan class="cls-28" x="3.39" y="110.4">na</tspan><tspan x="23.14" y="110.4">d</tspan><tspan class="cls-11" x="33.97" y="110.4">i</tspan><tspan x="37.36" y="110.4">m</tspan><tspan class="cls-30" x="53.35" y="110.4">p</tspan><tspan class="cls-27" x="64.02" y="110.4">l</tspan><tspan class="cls-7" x="67.37" y="110.4">e</tspan><tspan class="cls-28" x="77.34" y="110.4">m</tspan><tspan class="cls-7" x="93.15" y="110.4">e</tspan><tspan x="103.11" y="110.4">n</tspan><tspan class="cls-23" x="112.76" y="110.4">t</tspan><tspan x="118.73" y="110.4">o </tspan><tspan class="cls-27" x="133.13" y="110.4">d</tspan><tspan x="143.89" y="110.4">as </tspan><tspan class="cls-30" x="166.4" y="110.4">o</tspan><tspan class="cls-7" x="176.33" y="110.4">b</tspan><tspan class="cls-29" x="187.06" y="110.4">r</tspan><tspan class="cls-7" x="193.38" y="110.4">ig</tspan><tspan class="cls-18" x="207.2" y="110.4">a</tspan><tspan class="cls-29" x="217.48" y="110.4">ç</tspan><tspan class="cls-28" x="226.53" y="110.4">õ</tspan><tspan class="cls-27" x="236.43" y="110.4">e</tspan><tspan x="246.42" y="110.4">s </tspan></tspan><tspan class="cls-31"><tspan x="0" y="132">assum</tspan><tspan class="cls-7" x="51.2" y="132">i</tspan><tspan class="cls-27" x="54.53" y="132">d</tspan><tspan x="65.29" y="132">as </tspan><tspan class="cls-18" x="87.8" y="132">p</tspan><tspan class="cls-1" x="98.44" y="132">e</tspan><tspan class="cls-5" x="108.34" y="132">l</tspan><tspan x="111.7" y="132">o </tspan><tspan class="cls-16" x="126.1" y="132">t</tspan><tspan class="cls-32" x="132.06" y="132">o</tspan><tspan class="cls-28" x="142.06" y="132">ma</tspan><tspan class="cls-27" x="168.15" y="132">d</tspan><tspan class="cls-7" x="178.91" y="132">o</tspan><tspan x="188.9" y="132">r </tspan><tspan class="cls-28" x="199.66" y="132">n</tspan><tspan x="209.12" y="132">o </tspan></tspan><tspan class="cls-31"><tspan class="cls-29" x="0" y="153.6">c</tspan><tspan class="cls-7" x="9.05" y="153.6">o</tspan><tspan x="19.04" y="153.6">nt</tspan><tspan class="cls-13" x="34.9" y="153.6">r</tspan><tspan x="40.73" y="153.6">a</tspan><tspan class="cls-23" x="51.19" y="153.6">t</tspan><tspan x="57.16" y="153.6">o </tspan><tspan class="cls-7" x="71.56" y="153.6">p</tspan><tspan class="cls-29" x="82.29" y="153.6">r</tspan><tspan class="cls-11" x="88.61" y="153.6">i</tspan><tspan class="cls-28" x="92" y="153.6">n</tspan><tspan class="cls-30" x="101.47" y="153.6">c</tspan><tspan class="cls-27" x="110.48" y="153.6">i</tspan><tspan class="cls-18" x="113.84" y="153.6">p</tspan><tspan class="cls-14" x="124.48" y="153.6">a</tspan><tspan x="135.05" y="153.6">l.</tspan></tspan></text>
</svg>