<?xml version="1.0" encoding="UTF-8"?>
<svg id="Layer_1" data-name="Layer 1" xmlns="http://www.w3.org/2000/svg" viewBox="0 0 366.28 305.38">
  <defs>
    <style>
      .cls-1 {
        letter-spacing: -.02em;
      }

      .cls-2 {
        letter-spacing: -.02em;
      }

      .cls-3 {
        letter-spacing: 0em;
      }

      .cls-4 {
        letter-spacing: -.01em;
      }

      .cls-5 {
        letter-spacing: 0em;
      }

      .cls-6 {
        letter-spacing: -.02em;
      }

      .cls-7 {
        font-family: UrbanistRoman-Bold, Urbanist;
        font-size: 20px;
        font-variation-settings: 'wght' 700;
        font-weight: 700;
      }

      .cls-7, .cls-8 {
        fill: #130044;
      }

      .cls-9 {
        letter-spacing: -.01em;
      }

      .cls-10 {
        letter-spacing: -.04em;
      }

      .cls-11 {
        letter-spacing: 0em;
      }

      .cls-12 {
        letter-spacing: -.02em;
      }

      .cls-13 {
        letter-spacing: -.04em;
      }

      .cls-14 {
        letter-spacing: -.01em;
      }

      .cls-15 {
        letter-spacing: -.01em;
      }

      .cls-16 {
        letter-spacing: 0em;
      }

      .cls-17 {
        letter-spacing: 0em;
      }

      .cls-18 {
        letter-spacing: -.01em;
      }
    </style>
  </defs>
  <path class="cls-8" d="M337.15,9c11.1,0,20.14,9.03,20.14,20.14v247.12c0,11.1-9.03,20.13-20.14,20.13H29.13c-11.1,0-20.14-9.03-20.14-20.13V29.13c0-11.1,9.03-20.14,20.14-20.14h308.02M337.15,0H29.13C13.11,0,0,13.11,0,29.13v247.12C0,292.27,13.11,305.38,29.13,305.38h308.02c16.02,0,29.13-13.11,29.13-29.13V29.13C366.28,13.11,353.18,0,337.15,0h0Z"/>
  <text class="cls-7" transform="translate(27.59 247.83)"><tspan class="cls-10" x="0" y="0">P</tspan><tspan x="10.19" y="0">a</tspan><tspan class="cls-13" x="22.17" y="0">r</tspan><tspan class="cls-17" x="29.12" y="0">a </tspan><tspan class="cls-2" x="45.9" y="0">c</tspan><tspan class="cls-4" x="55.79" y="0">o</tspan><tspan x="66.76" y="0">nst</tspan><tspan class="cls-18" x="93.77" y="0">r</tspan><tspan class="cls-16" x="101.27" y="0">u</tspan><tspan class="cls-12" x="111.88" y="0">ç</tspan><tspan class="cls-18" x="121.77" y="0">ão</tspan><tspan x="144.55" y="0">, </tspan><tspan class="cls-14" x="154.41" y="0">f</tspan><tspan class="cls-9" x="161.42" y="0">or</tspan><tspan class="cls-18" x="179.86" y="0">ne</tspan><tspan class="cls-1" x="201.81" y="0">c</tspan><tspan class="cls-5" x="211.63" y="0">i</tspan><tspan class="cls-11" x="216.39" y="0">m</tspan><tspan class="cls-9" x="233.96" y="0">e</tspan><tspan x="244.92" y="0">n</tspan><tspan class="cls-15" x="256.08" y="0">t</tspan><tspan class="cls-17" x="263.02" y="0">o </tspan><tspan class="cls-6" x="0" y="24">o</tspan><tspan x="10.74" y="24">u </tspan><tspan class="cls-4" x="26.3" y="24">p</tspan><tspan class="cls-13" x="38.45" y="24">r</tspan><tspan class="cls-16" x="45.4" y="24">e</tspan><tspan x="56.44" y="24">s</tspan><tspan class="cls-15" x="65.13" y="24">t</tspan><tspan class="cls-11" x="72.07" y="24">a</tspan><tspan class="cls-2" x="83.85" y="24">ç</tspan><tspan class="cls-11" x="93.74" y="24">ã</tspan><tspan x="105.52" y="24">o </tspan><tspan class="cls-16" x="121.52" y="24">d</tspan><tspan x="133.77" y="24">e </tspan><tspan class="cls-16" x="149.76" y="24">s</tspan><tspan class="cls-4" x="158.3" y="24">e</tspan><tspan class="cls-3" x="169.26" y="24">r</tspan><tspan class="cls-12" x="176.96" y="24">v</tspan><tspan class="cls-4" x="188.28" y="24">i</tspan><tspan class="cls-2" x="192.89" y="24">ç</tspan><tspan class="cls-16" x="202.78" y="24">o</tspan><tspan x="213.83" y="24">s</tspan></text>
  <polygon class="cls-8" points="338.69 262.6 330.04 262.6 330.04 253.95 324.38 253.95 324.38 262.6 315.73 262.6 315.73 268.27 324.38 268.27 324.38 276.92 330.04 276.92 330.04 268.27 338.69 268.27 338.69 262.6"/>
  <g>
    <path class="cls-8" d="M73.05,42.24c.41,0,.74-.33.74-.74v-4.81c0-.41-.33-.74-.74-.74h-36.2c-.35-2.22-2.28-3.92-4.6-3.92-2.57,0-4.66,2.09-4.66,4.66v25.11c0,.41.33.74.74.74s.74-.33.74-.74v-25.11c0-1.76,1.43-3.19,3.19-3.19s3.19,1.43,3.19,3.19v33.48c-.83-.78-1.96-1.26-3.19-1.26s-2.35.48-3.19,1.26v-4.34c0-.41-.33-.74-.74-.74s-.74.33-.74.74v7.73c0,2.57,2.09,4.66,4.66,4.66h40.8c.41,0,.74-.33.74-.74v-32.17c0-.41-.33-.74-.74-.74s-.74.33-.74.74v31.43h-40.06c-1.76,0-3.19-1.43-3.19-3.19s1.43-3.19,3.19-3.19,3.19,1.43,3.19,3.19c0,.41.33.74.74.74s.74-.33.74-.74v-36.14h35.4v4.07c0,.41.33.74.74.74Z"/>
    <path class="cls-8" d="M44.8,64.89h19.61c.41,0,.74-.33.74-.74v-13.39h3.19c.32,0,.61-.21.7-.52.1-.31-.02-.64-.29-.82l-13.73-9.41c-.25-.17-.58-.17-.83,0l-13.73,9.41c-.27.18-.38.52-.29.82.1.31.38.52.7.52h3.19v13.39c0,.41.33.74.74.74ZM43.25,49.3l11.36-7.79,11.36,7.79h-1.55c-.41,0-.74.33-.74.74v13.39h-18.14v-13.39c0-.41-.33-.74-.74-.74h-1.55Z"/>
    <path class="cls-8" d="M49.9,61.75c.41,0,.74-.33.74-.74v-3.92c0-.89.73-1.62,1.62-1.62s1.62.73,1.62,1.62v3.92c0,.41.33.74.74.74s.74-.33.74-.74v-3.92c0-.89.73-1.62,1.62-1.62s1.62.73,1.62,1.62v3.92c0,.41.33.74.74.74s.74-.33.74-.74v-3.92c0-1.7-1.39-3.09-3.09-3.09-.94,0-1.79.42-2.35,1.09-.57-.67-1.41-1.09-2.35-1.09-.61,0-1.18.18-1.66.49-.1-.28-.37-.49-.69-.49-.41,0-.74.33-.74.74v6.28c0,.41.33.74.74.74Z"/>
    <path class="cls-8" d="M56.18,49.99c.41,0,.74-.33.74-.74s.29-.74.67-.82c.41-.08.82.16.95.56l-2.88,2.88c-.45.45-.12,1.26.52,1.26h3.14c.41,0,.74-.33.74-.74s-.33-.74-.74-.74h-1.36l1.88-1.88c.14-.14.22-.32.22-.52,0-1.27-1.03-2.3-2.3-2.3s-2.3,1.03-2.3,2.3c0,.41.33.74.74.74Z"/>
    <path class="cls-8" d="M63.93,72.84c-.41,0-.74.33-.74.74s.33.74.74.74h4.41c.41,0,.74-.33.74-.74v-5.49c0-.41-.33-.74-.74-.74h-27.46c-.41,0-.74.33-.74.74v5.49c0,.41.33.74.74.74h18.83c.41,0,.74-.33.74-.74s-.33-.74-.74-.74h-18.09v-4.02h2.45v1.62c0,.41.33.74.74.74s.74-.33.74-.74v-1.62h2.45v1.62c0,.41.33.74.74.74s.74-.33.74-.74v-1.62h2.45v1.62c0,.41.33.74.74.74s.74-.33.74-.74v-1.62h2.45v1.62c0,.41.33.74.74.74s.74-.33.74-.74v-1.62h2.45v1.62c0,.41.33.74.74.74s.74-.33.74-.74v-1.62h2.45v1.62c0,.41.33.74.74.74s.74-.33.74-.74v-1.62h2.45v4.02h-3.68Z"/>
  </g>
</svg>