<?xml version="1.0" encoding="UTF-8"?>
<svg id="Layer_1" data-name="Layer 1" xmlns="http://www.w3.org/2000/svg" viewBox="0 0 366.28 305.38">
  <defs>
    <style>
      .cls-1 {
        letter-spacing: -.01em;
      }

      .cls-2 {
        letter-spacing: 0em;
      }

      .cls-3 {
        fill: #fff;
      }

      .cls-4 {
        letter-spacing: -.01em;
      }

      .cls-5 {
        letter-spacing: -.03em;
      }

      .cls-6 {
        letter-spacing: 0em;
      }

      .cls-7 {
        letter-spacing: -.04em;
      }

      .cls-8 {
        letter-spacing: 0em;
      }

      .cls-9 {
        letter-spacing: 0em;
      }

      .cls-10 {
        font-family: UrbanistRoman-Bold, Urbanist;
        font-size: 23.99px;
        font-variation-settings: 'wght' 700;
        font-weight: 700;
      }

      .cls-11 {
        letter-spacing: 0em;
      }

      .cls-12 {
        letter-spacing: -.01em;
      }

      .cls-13 {
        letter-spacing: 0em;
      }

      .cls-14 {
        letter-spacing: -.01em;
      }

      .cls-15 {
        letter-spacing: 0em;
      }

      .cls-16 {
        letter-spacing: 0em;
      }

      .cls-17 {
        font-family: Urbanist-Regular, Urbanist;
        font-size: 18px;
        font-variation-settings: 'wght' 400;
      }

      .cls-18 {
        letter-spacing: 0em;
      }

      .cls-19 {
        fill: #130044;
      }
    </style>
  </defs>
  <rect class="cls-19" x="0" y="0" width="366.28" height="305.38" rx="29.13" ry="29.13"/>
  <g id="mail">
    <path class="cls-3" d="M37.07,41c2.22-1.6,2.72-4.69,1.12-6.91-1.6-2.22-4.69-2.72-6.91-1.12-2.22,1.6-2.72,4.69-1.12,6.91.31.43.69.81,1.12,1.12-2.25,1.1-3.69,3.39-3.69,5.9v19.79c0,.91.74,1.65,1.65,1.65v8.24c0,.91.74,1.65,1.65,1.65s1.65-.74,1.65-1.65v-8.24h3.3v8.24c0,.91.74,1.65,1.65,1.65s1.65-.74,1.65-1.65v-8.24c.91,0,1.65-.74,1.65-1.65v-19.79c-.01-2.51-1.45-4.8-3.71-5.9ZM34.19,35.36c.91,0,1.65.74,1.65,1.65s-.74,1.65-1.65,1.65-1.65-.74-1.65-1.65.74-1.65,1.65-1.65ZM34.19,43.6c1.82,0,3.3,1.48,3.3,3.3v9.89h-6.6v-9.89c0-1.82,1.48-3.3,3.3-3.3ZM37.49,65.04h-6.6v-4.95h6.6v4.95ZM70.05,41c2.22-1.6,2.72-4.69,1.12-6.91-1.6-2.22-4.69-2.72-6.91-1.12-2.22,1.6-2.72,4.69-1.12,6.91.31.43.69.81,1.12,1.12-2.25,1.1-3.69,3.39-3.69,5.9v29.68c0,.91.74,1.65,1.65,1.65h9.89c.91,0,1.65-.74,1.65-1.65v-29.68c-.01-2.51-1.45-4.8-3.71-5.9ZM67.17,35.36c.91,0,1.65.74,1.65,1.65s-.74,1.65-1.65,1.65-1.65-.74-1.65-1.65.74-1.65,1.65-1.65ZM63.87,46.9c0-1.82,1.48-3.3,3.3-3.3s3.3,1.48,3.3,3.3v11.54h-6.6v-11.54ZM70.46,74.93h-1.65v-8.24c0-.91-.74-1.65-1.65-1.65s-1.65.74-1.65,1.65v8.24h-1.65v-13.19h6.6v13.19ZM53.56,50.89c2.22-1.6,2.72-4.69,1.12-6.91-1.6-2.22-4.69-2.72-6.91-1.12-2.22,1.6-2.72,4.69-1.12,6.91.31.43.69.81,1.12,1.12-2.25,1.1-3.69,3.39-3.69,5.9v9.89c0,.91.74,1.65,1.65,1.65v8.24c0,.91.74,1.65,1.65,1.65s1.65-.74,1.65-1.65v-8.24h3.3v8.24c0,.91.74,1.65,1.65,1.65s1.65-.74,1.65-1.65v-8.24c.91,0,1.65-.74,1.65-1.65v-9.89c-.01-2.51-1.45-4.8-3.71-5.9ZM50.68,45.25c.91,0,1.65.74,1.65,1.65s-.74,1.65-1.65,1.65-1.65-.74-1.65-1.65.74-1.65,1.65-1.65ZM50.68,53.5c1.82,0,3.3,1.48,3.3,3.3v3.3h-6.6v-3.3c0-1.82,1.48-3.3,3.3-3.3ZM53.98,65.04h-6.6v-1.65h6.6v1.65Z"/>
  </g>
  <text class="cls-3" transform="translate(27.59 119.7)"><tspan class="cls-10"><tspan class="cls-7" x="0" y="0">F</tspan><tspan x="10.71" y="0">am</tspan><tspan class="cls-8" x="46.39" y="0">i</tspan><tspan x="52.22" y="0">l</tspan><tspan class="cls-4" x="58.02" y="0">i</tspan><tspan x="63.55" y="0">ar</tspan></tspan><tspan class="cls-17"><tspan class="cls-15" x="0" y="43.2">A</tspan><tspan class="cls-2" x="12.06" y="43.2">b</tspan><tspan class="cls-5" x="22.8" y="43.2">r</tspan><tspan x="28.63" y="43.2">a</tspan><tspan class="cls-9" x="39.09" y="43.2">n</tspan><tspan class="cls-2" x="48.56" y="43.2">g</tspan><tspan x="59.04" y="43.2">e </tspan><tspan class="cls-12" x="73.41" y="43.2">t</tspan><tspan class="cls-14" x="79.38" y="43.2">o</tspan><tspan class="cls-13" x="89.28" y="43.2">do</tspan><tspan x="110.06" y="43.2">s </tspan><tspan class="cls-13" x="122.11" y="43.2">o</tspan><tspan x="132.13" y="43.2">s </tspan><tspan class="cls-14" x="144.18" y="43.2">m</tspan><tspan class="cls-2" x="159.99" y="43.2">e</tspan><tspan class="cls-6" x="169.96" y="43.2">m</tspan><tspan class="cls-18" x="186.06" y="43.2">b</tspan><tspan class="cls-5" x="196.8" y="43.2">r</tspan><tspan class="cls-13" x="202.63" y="43.2">o</tspan><tspan x="212.65" y="43.2">s </tspan><tspan class="cls-13" x="224.7" y="43.2">d</tspan><tspan x="235.47" y="43.2">a </tspan></tspan><tspan class="cls-17"><tspan class="cls-1" x="0" y="64.8">f</tspan><tspan x="5.8" y="64.8">am</tspan><tspan class="cls-11" x="32.25" y="64.8">í</tspan><tspan x="35.73" y="64.8">l</tspan><tspan class="cls-2" x="39.15" y="64.8">i</tspan><tspan x="42.48" y="64.8">a </tspan><tspan class="cls-2" x="57.26" y="64.8">e</tspan><tspan x="67.22" y="64.8">m u</tspan><tspan class="cls-9" x="96.82" y="64.8">m</tspan><tspan x="112.63" y="64.8">a ún</tspan><tspan class="cls-2" x="146.35" y="64.8">i</tspan><tspan class="cls-15" x="149.68" y="64.8">c</tspan><tspan x="158.73" y="64.8">a a</tspan><tspan class="cls-14" x="183.97" y="64.8">p</tspan><tspan class="cls-16" x="194.61" y="64.8">ó</tspan><tspan x="204.53" y="64.8">l</tspan><tspan class="cls-2" x="207.95" y="64.8">i</tspan><tspan class="cls-15" x="211.28" y="64.8">c</tspan><tspan class="cls-9" x="220.34" y="64.8">e</tspan><tspan x="230.21" y="64.8">.</tspan></tspan></text>
</svg>