<?xml version="1.0" encoding="UTF-8"?>
<svg id="Layer_1" data-name="Layer 1" xmlns="http://www.w3.org/2000/svg" viewBox="0 0 366.28 305.38">
  <defs>
    <style>
      .cls-1 {
        letter-spacing: 0em;
      }

      .cls-2 {
        letter-spacing: 0em;
      }

      .cls-3 {
        letter-spacing: -.08em;
      }

      .cls-4 {
        letter-spacing: 0em;
      }

      .cls-5 {
        fill: #fff;
      }

      .cls-6 {
        letter-spacing: -.01em;
      }

      .cls-7 {
        letter-spacing: 0em;
      }

      .cls-8 {
        letter-spacing: -.03em;
      }

      .cls-9 {
        letter-spacing: 0em;
      }

      .cls-10 {
        letter-spacing: 0em;
      }

      .cls-11 {
        letter-spacing: -.01em;
      }

      .cls-12 {
        font-family: UrbanistRoman-Bold, Urbanist;
        font-size: 23.99px;
        font-variation-settings: 'wght' 700;
        font-weight: 700;
      }

      .cls-13 {
        letter-spacing: -.03em;
      }

      .cls-14 {
        letter-spacing: -.03em;
      }

      .cls-15 {
        letter-spacing: -.02em;
      }

      .cls-16 {
        letter-spacing: -.02em;
      }

      .cls-17 {
        letter-spacing: 0em;
      }

      .cls-18 {
        letter-spacing: -.01em;
      }

      .cls-19 {
        letter-spacing: 0em;
      }

      .cls-20 {
        letter-spacing: -.04em;
      }

      .cls-21 {
        letter-spacing: -.01em;
      }

      .cls-22 {
        letter-spacing: 0em;
      }

      .cls-23 {
        letter-spacing: -.01em;
      }

      .cls-24 {
        letter-spacing: 0em;
      }

      .cls-25 {
        letter-spacing: 0em;
      }

      .cls-26 {
        font-family: Urbanist-Regular, Urbanist;
        font-size: 18px;
        font-variation-settings: 'wght' 400;
      }

      .cls-27 {
        fill: #130044;
      }
    </style>
  </defs>
  <rect class="cls-27" x="0" y="0" width="366.28" height="305.38" rx="29.13" ry="29.13"/>
  <g>
    <path class="cls-5" d="M38.89,64.07h4.72c1.03,0,1.86-.83,1.86-1.86s-.83-1.86-1.86-1.86h-4.72c-1.03,0-1.86.83-1.86,1.86s.83,1.86,1.86,1.86Z"/>
    <path class="cls-5" d="M67.84,50.78l-17.51-17.51c-.79-.78-1.84-1.22-2.96-1.22h-15.55c-2.33,0-4.22,1.89-4.22,4.22v37.75c0,2.33,1.89,4.22,4.22,4.22h33.04c2.33,0,4.22-1.89,4.22-4.22v-20.28c0-1.11-.44-2.16-1.23-2.96ZM31.31,36.26c0-.28.22-.5.5-.5h15.54c.13,0,.26.05.35.14l15.02,15.02h-31.41v-14.66ZM65.35,74.01c0,.28-.22.5-.5.5H31.81c-.28,0-.5-.23-.5-.5v-19.38h34.04v19.38Z"/>
  </g>
  <text class="cls-5" transform="translate(27.59 119.7)"><tspan class="cls-12"><tspan class="cls-15" x="0" y="0">O</tspan><tspan class="cls-11" x="18.1" y="0">c</tspan><tspan class="cls-16" x="30.06" y="0">u</tspan><tspan class="cls-17" x="42.41" y="0">p</tspan><tspan x="57.02" y="0">an</tspan><tspan class="cls-18" x="84.77" y="0">t</tspan><tspan class="cls-1" x="93.09" y="0">e</tspan><tspan x="106.33" y="0">s </tspan><tspan class="cls-1" x="122.51" y="0">d</tspan><tspan x="137.2" y="0">o </tspan><tspan class="cls-20" x="156.39" y="0">v</tspan><tspan class="cls-16" x="169.49" y="0">e</tspan><tspan class="cls-11" x="182.36" y="0">íc</tspan><tspan class="cls-9" x="199.84" y="0">u</tspan><tspan class="cls-1" x="212.81" y="0">l</tspan><tspan x="218.43" y="0">o</tspan></tspan><tspan class="cls-26"><tspan class="cls-3" x="0" y="43.2">T</tspan><tspan class="cls-4" x="9.92" y="43.2">e</tspan><tspan class="cls-10" x="19.88" y="43.2">n</tspan><tspan class="cls-23" x="29.65" y="43.2">h</tspan><tspan x="39.11" y="43.2">a </tspan><tspan class="cls-4" x="53.89" y="43.2">g</tspan><tspan x="64.38" y="43.2">a</tspan><tspan class="cls-14" x="74.83" y="43.2">r</tspan><tspan x="80.67" y="43.2">an</tspan><tspan class="cls-22" x="100.77" y="43.2">t</tspan><tspan class="cls-4" x="106.92" y="43.2">i</tspan><tspan x="110.25" y="43.2">a </tspan><tspan class="cls-23" x="125.03" y="43.2">p</tspan><tspan x="135.67" y="43.2">a</tspan><tspan class="cls-14" x="146.12" y="43.2">r</tspan><tspan x="151.96" y="43.2">a t</tspan><tspan class="cls-8" x="172.94" y="43.2">r</tspan><tspan class="cls-19" x="178.78" y="43.2">o</tspan><tspan class="cls-2" x="188.68" y="43.2">c</tspan><tspan x="197.73" y="43.2">a </tspan><tspan class="cls-23" x="212.51" y="43.2">o</tspan><tspan x="222.41" y="43.2">u </tspan></tspan><tspan class="cls-26"><tspan class="cls-8" x="0" y="64.8">r</tspan><tspan class="cls-4" x="5.83" y="64.8">e</tspan><tspan class="cls-19" x="15.79" y="64.8">p</tspan><tspan x="26.43" y="64.8">a</tspan><tspan class="cls-8" x="36.89" y="64.8">r</tspan><tspan x="42.72" y="64.8">o </tspan><tspan class="cls-22" x="57.12" y="64.8">do</tspan><tspan x="77.9" y="64.8">s </tspan><tspan class="cls-24" x="89.96" y="64.8">v</tspan><tspan class="cls-4" x="99.09" y="64.8">i</tspan><tspan x="102.42" y="64.8">d</tspan><tspan class="cls-8" x="113.25" y="64.8">r</tspan><tspan class="cls-22" x="119.08" y="64.8">o</tspan><tspan class="cls-7" x="129.1" y="64.8">s</tspan><tspan x="136.8" y="64.8">, </tspan><tspan class="cls-21" x="144.74" y="64.8">tet</tspan><tspan x="166.48" y="64.8">o </tspan><tspan class="cls-22" x="180.88" y="64.8">s</tspan><tspan class="cls-25" x="188.55" y="64.8">o</tspan><tspan class="cls-22" x="198.48" y="64.8">l</tspan><tspan x="201.83" y="64.8">a</tspan><tspan class="cls-14" x="212.29" y="64.8">r</tspan><tspan x="218.12" y="64.8">, </tspan></tspan><tspan class="cls-26"><tspan class="cls-8" x="0" y="86.4">r</tspan><tspan class="cls-21" x="5.83" y="86.4">e</tspan><tspan x="15.64" y="86.4">t</tspan><tspan class="cls-8" x="21.85" y="86.4">r</tspan><tspan class="cls-13" x="27.68" y="86.4">o</tspan><tspan class="cls-24" x="37.29" y="86.4">v</tspan><tspan class="cls-22" x="46.42" y="86.4">is</tspan><tspan class="cls-4" x="57.45" y="86.4">o</tspan><tspan class="cls-14" x="67.44" y="86.4">r</tspan><tspan class="cls-22" x="73.27" y="86.4">e</tspan><tspan class="cls-7" x="83.26" y="86.4">s</tspan><tspan x="90.96" y="86.4">, </tspan><tspan class="cls-22" x="98.9" y="86.4">l</tspan><tspan x="102.26" y="86.4">an</tspan><tspan class="cls-21" x="122.36" y="86.4">t</tspan><tspan class="cls-4" x="128.33" y="86.4">er</tspan><tspan class="cls-23" x="144.64" y="86.4">n</tspan><tspan x="154.11" y="86.4">as e </tspan><tspan class="cls-6" x="190.99" y="86.4">f</tspan><tspan x="196.79" y="86.4">a</tspan><tspan class="cls-8" x="207.24" y="86.4">r</tspan><tspan class="cls-19" x="213.08" y="86.4">ó</tspan><tspan class="cls-22" x="222.98" y="86.4">i</tspan><tspan class="cls-7" x="226.33" y="86.4">s</tspan><tspan x="234.04" y="86.4">.</tspan></tspan></text>
</svg>