<?xml version="1.0" encoding="UTF-8"?>
<svg id="Layer_1" data-name="Layer 1" xmlns="http://www.w3.org/2000/svg" viewBox="0 0 366.28 305.38">
  <defs>
    <style>
      .cls-1 {
        letter-spacing: -.01em;
      }

      .cls-2 {
        letter-spacing: 0em;
      }

      .cls-3 {
        letter-spacing: -.04em;
      }

      .cls-4 {
        letter-spacing: 0em;
      }

      .cls-5 {
        letter-spacing: -.01em;
      }

      .cls-6 {
        letter-spacing: -.02em;
      }

      .cls-7 {
        letter-spacing: 0em;
      }

      .cls-8 {
        letter-spacing: -.04em;
      }

      .cls-9 {
        font-family: UrbanistRoman-Bold, Urbanist;
        font-size: 23.99px;
        font-variation-settings: 'wght' 700;
        font-weight: 700;
      }

      .cls-9, .cls-10 {
        fill: #130044;
      }
    </style>
  </defs>
  <path class="cls-10" d="M337.15,9c11.1,0,20.14,9.03,20.14,20.13v247.12c0,11.1-9.03,20.13-20.14,20.13H29.13c-11.1,0-20.14-9.03-20.14-20.13V29.13c0-11.1,9.03-20.13,20.14-20.13h308.02M337.15,0H29.13C13.11,0,0,13.11,0,29.13v247.12c0,16.02,13.11,29.13,29.13,29.13h308.02c16.02,0,29.13-13.11,29.13-29.13V29.13C366.28,13.11,353.18,0,337.15,0h0Z"/>
  <text class="cls-9" transform="translate(27.59 242.59)"><tspan class="cls-3" x="0" y="0">P</tspan><tspan class="cls-5" x="12.22" y="0">e</tspan><tspan class="cls-8" x="25.37" y="0">r</tspan><tspan class="cls-2" x="33.7" y="0">d</tspan><tspan x="48.39" y="0">a </tspan><tspan class="cls-2" x="68.52" y="0">d</tspan><tspan x="83.21" y="0">e l</tspan><tspan class="cls-2" x="108.19" y="0">u</tspan><tspan x="120.92" y="0">c</tspan><tspan class="cls-8" x="133.15" y="0">r</tspan><tspan x="141.48" y="0">o </tspan><tspan class="cls-7" x="160.67" y="0">p</tspan><tspan class="cls-5" x="175.28" y="0">o</tspan><tspan x="188.44" y="0">r </tspan><tspan class="cls-4" x="0" y="28.78">i</tspan><tspan class="cls-7" x="5.71" y="28.78">n</tspan><tspan class="cls-6" x="18.85" y="28.78">c</tspan><tspan class="cls-1" x="30.71" y="28.78">ê</tspan><tspan class="cls-7" x="43.86" y="28.78">n</tspan><tspan x="57" y="28.78">d</tspan><tspan class="cls-5" x="71.88" y="28.78">i</tspan><tspan x="77.4" y="28.78">o</tspan></text>
  <polygon class="cls-10" points="338.69 262.6 330.04 262.6 330.04 253.95 324.38 253.95 324.38 262.6 315.73 262.6 315.73 268.27 324.38 268.27 324.38 276.92 330.04 276.92 330.04 268.27 338.69 268.27 338.69 262.6"/>
  <path class="cls-10" d="M39.13,52.82c-1.27,0-2.31,1.03-2.31,2.31s1.03,2.31,2.31,2.31,2.31-1.03,2.31-2.31-1.03-2.31-2.31-2.31ZM52.66,49.25h0l-16.51-16.53c-.91-.91-2.37-.91-3.28,0s-.91,2.37,0,3.28l3,2.98h-1.36c-3.82,0-6.93,3.1-6.93,6.93v18.47c0,3.82,3.1,6.93,6.93,6.93h33.68l6.23,6.26c.9.91,2.36.91,3.26.01,0,0,0,0,.01-.01.91-.9.91-2.36.01-3.26,0,0,0,0-.01-.01l-25.05-25.02ZM50.95,54.07l3.09,3.09c-.33.18-.69.27-1.06.28-1.27,0-2.31-1.03-2.31-2.31,0-.37.1-.74.28-1.06h0ZM34.52,66.68c-1.27,0-2.31-1.03-2.31-2.31v-18.47c0-1.27,1.03-2.31,2.31-2.31h5.98l7.16,7.16c-1.02,1.23-1.59,2.78-1.59,4.39,0,3.82,3.1,6.93,6.93,6.93,1.6,0,3.15-.57,4.39-1.59l6.21,6.21h-29.06ZM71.45,38.97h-16.94c-1.27,0-2.31,1.03-2.31,2.31s1.03,2.31,2.31,2.31h16.94c1.27,0,2.31,1.03,2.31,2.31v16.94c0,1.27,1.03,2.31,2.31,2.31s2.31-1.03,2.31-2.31v-16.94c0-3.82-3.1-6.93-6.93-6.93ZM69.14,55.13c0-1.27-1.03-2.31-2.31-2.31s-2.31,1.03-2.31,2.31,1.03,2.31,2.31,2.31,2.31-1.03,2.31-2.31Z"/>
</svg>