<?xml version="1.0" encoding="UTF-8"?>
<svg id="Layer_1" data-name="Layer 1" xmlns="http://www.w3.org/2000/svg" viewBox="0 0 366.28 305.38">
  <defs>
    <style>
      .cls-1 {
        letter-spacing: 0em;
      }

      .cls-2 {
        letter-spacing: 0em;
      }

      .cls-3 {
        letter-spacing: 0em;
      }

      .cls-4 {
        letter-spacing: 0em;
      }

      .cls-5 {
        fill: #fff;
      }

      .cls-6 {
        letter-spacing: 0em;
      }

      .cls-7 {
        letter-spacing: 0em;
      }

      .cls-8 {
        letter-spacing: 0em;
      }

      .cls-9 {
        letter-spacing: -.01em;
      }

      .cls-10 {
        letter-spacing: -.03em;
      }

      .cls-11 {
        font-family: UrbanistRoman-Bold, Urbanist;
        font-size: 23.99px;
        font-variation-settings: 'wght' 700;
        font-weight: 700;
      }

      .cls-12 {
        letter-spacing: -.03em;
      }

      .cls-13 {
        letter-spacing: -.02em;
      }

      .cls-14 {
        letter-spacing: 0em;
      }

      .cls-15 {
        letter-spacing: -.05em;
      }

      .cls-16 {
        letter-spacing: -.04em;
      }

      .cls-17 {
        letter-spacing: 0em;
      }

      .cls-18 {
        letter-spacing: -.03em;
      }

      .cls-19 {
        letter-spacing: -.01em;
      }

      .cls-20 {
        letter-spacing: 0em;
      }

      .cls-21 {
        letter-spacing: -.01em;
      }

      .cls-22 {
        letter-spacing: 0em;
      }

      .cls-23 {
        letter-spacing: 0em;
      }

      .cls-24 {
        letter-spacing: 0em;
      }

      .cls-25 {
        font-family: Urbanist-Regular, Urbanist;
        font-size: 18px;
        font-variation-settings: 'wght' 400;
      }

      .cls-26 {
        fill: #130044;
      }

      .cls-27 {
        letter-spacing: -.01em;
      }
    </style>
  </defs>
  <rect class="cls-26" x="0" y="0" width="366.28" height="305.38" rx="29.13" ry="29.13"/>
  <path class="cls-5" d="M67.49,36.24h-2.49c-.89-2.51-3.25-4.19-5.91-4.2h-25.2c-3.48,0-6.3,2.82-6.3,6.3s2.82,6.3,6.3,6.3h25.2c2.66-.01,5.03-1.69,5.91-4.2h2.49c1.16,0,2.1.94,2.1,2.1v6.3c0,1.16-.94,2.1-2.1,2.1h-12.6c-3.48,0-6.3,2.82-6.3,6.3h-2.1c-1.16,0-2.1.94-2.1,2.1v16.8c0,1.16.94,2.1,2.1,2.1h8.4c1.16,0,2.1-.94,2.1-2.1v-16.8c0-1.16-.94-2.1-2.1-2.1h-2.1c0-1.16.94-2.1,2.1-2.1h12.6c3.48,0,6.3-2.82,6.3-6.3v-6.3c0-3.48-2.82-6.3-6.3-6.3ZM59.1,40.44h-25.2c-1.16,0-2.1-.94-2.1-2.1s.94-2.1,2.1-2.1h25.2c1.16,0,2.1.94,2.1,2.1s-.94,2.1-2.1,2.1ZM52.8,74.03h-4.2v-12.6h4.2v12.6ZM35.7,47.75c-.69-.99-2.05-1.24-3.04-.55-.22.15-.4.34-.55.55l-3.52,5.81c-.65,1.09-.99,2.34-.99,3.61-.18,3.32,2.35,6.17,5.67,6.38h1.26c3.32-.21,5.85-3.06,5.67-6.38,0-1.27-.33-2.52-.98-3.61l-3.52-5.81ZM34.53,59.33h-1.26c-.69,0-1.47-.89-1.47-2.18s.66-1.68,2.1-4.27c1.44,2.57,2.1,2.96,2.1,4.27s-.77,2.18-1.47,2.18Z"/>
  <text class="cls-5" transform="translate(27.59 119.7)"><tspan class="cls-11"><tspan class="cls-13" x="0" y="0">P</tspan><tspan class="cls-6" x="12.72" y="0">i</tspan><tspan x="18.43" y="0">ntu</tspan><tspan class="cls-16" x="53.31" y="0">r</tspan><tspan x="61.65" y="0">as </tspan><tspan class="cls-6" x="92.19" y="0">i</tspan><tspan x="97.9" y="0">n</tspan><tspan class="cls-27" x="111.28" y="0">t</tspan><tspan class="cls-9" x="119.61" y="0">er</tspan><tspan class="cls-3" x="141.71" y="0">n</tspan><tspan class="cls-7" x="154.86" y="0">as e </tspan></tspan><tspan class="cls-11"><tspan class="cls-15" x="0" y="28.78">e</tspan><tspan x="12.15" y="28.78">x</tspan><tspan class="cls-27" x="26.46" y="28.78">t</tspan><tspan class="cls-9" x="34.78" y="28.78">er</tspan><tspan class="cls-14" x="56.88" y="28.78">n</tspan><tspan x="70.03" y="28.78">as</tspan></tspan><tspan class="cls-25"><tspan class="cls-18" x="0" y="71.98">C</tspan><tspan class="cls-23" x="12.13" y="71.98">o</tspan><tspan class="cls-21" x="22.06" y="71.98">b</tspan><tspan class="cls-4" x="32.71" y="71.98">e</tspan><tspan class="cls-24" x="42.67" y="71.98">rtu</tspan><tspan class="cls-12" x="64.6" y="71.98">r</tspan><tspan x="70.43" y="71.98">a </tspan><tspan class="cls-21" x="85.21" y="71.98">a</tspan><tspan x="95.49" y="71.98">d</tspan><tspan class="cls-4" x="106.32" y="71.98">i</tspan><tspan class="cls-23" x="109.65" y="71.98">c</tspan><tspan class="cls-4" x="118.66" y="71.98">io</tspan><tspan class="cls-17" x="131.98" y="71.98">n</tspan><tspan class="cls-8" x="141.45" y="71.98">a</tspan><tspan x="152.03" y="71.98">l, a</tspan><tspan class="cls-19" x="173.84" y="71.98">t</tspan><tspan x="179.81" y="71.98">é 3x o </tspan><tspan class="cls-10" x="231.33" y="71.98">v</tspan><tspan class="cls-8" x="240.11" y="71.98">a</tspan><tspan class="cls-20" x="250.68" y="71.98">l</tspan><tspan class="cls-4" x="254.04" y="71.98">o</tspan><tspan x="264.03" y="71.98">r </tspan></tspan><tspan class="cls-25"><tspan class="cls-20" x="0" y="93.58">d</tspan><tspan x="10.76" y="93.58">o </tspan><tspan class="cls-8" x="25.16" y="93.58">a</tspan><tspan x="35.74" y="93.58">l</tspan><tspan class="cls-20" x="39.16" y="93.58">u</tspan><tspan class="cls-22" x="48.38" y="93.58">g</tspan><tspan class="cls-2" x="58.84" y="93.58">u</tspan><tspan class="cls-1" x="68.07" y="93.58">e</tspan><tspan x="77.97" y="93.58">l.</tspan></tspan></text>
</svg>