<?xml version="1.0" encoding="UTF-8"?>
<svg id="Layer_1" data-name="Layer 1" xmlns="http://www.w3.org/2000/svg" viewBox="0 0 366.28 305.38">
  <defs>
    <style>
      .cls-1 {
        letter-spacing: 0em;
      }

      .cls-2 {
        letter-spacing: -.02em;
      }

      .cls-3 {
        letter-spacing: -.03em;
      }

      .cls-4 {
        letter-spacing: 0em;
      }

      .cls-5 {
        letter-spacing: -.04em;
      }

      .cls-6 {
        letter-spacing: 0em;
      }

      .cls-7 {
        letter-spacing: -.01em;
      }

      .cls-8 {
        font-family: UrbanistRoman-Bold, Urbanist;
        font-size: 23.99px;
        font-variation-settings: 'wght' 700;
        font-weight: 700;
      }

      .cls-8, .cls-9 {
        fill: #130044;
      }

      .cls-10 {
        letter-spacing: -.02em;
      }

      .cls-11 {
        letter-spacing: -.02em;
      }

      .cls-12 {
        letter-spacing: -.01em;
      }
    </style>
  </defs>
  <path class="cls-9" d="M337.15,8.99c11.1,0,20.14,9.03,20.14,20.14v247.12c0,11.1-9.03,20.14-20.14,20.14H29.13c-11.1,0-20.14-9.03-20.14-20.14V29.13c0-11.1,9.03-20.14,20.14-20.14h308.02M337.15,0H29.13C13.11,0,0,13.11,0,29.13v247.12c0,16.02,13.11,29.13,29.13,29.13h308.02c16.02,0,29.13-13.11,29.13-29.13V29.13C366.28,13.11,353.18,0,337.15,0h0Z"/>
  <text class="cls-8" transform="translate(27.59 271.94)"><tspan class="cls-3" x="0" y="0">A</tspan><tspan class="cls-10" x="16.66" y="0">p</tspan><tspan x="31.05" y="0">l</tspan><tspan class="cls-7" x="36.86" y="0">i</tspan><tspan class="cls-11" x="42.38" y="0">c</tspan><tspan class="cls-12" x="54.25" y="0">a</tspan><tspan class="cls-11" x="68.38" y="0">ç</tspan><tspan class="cls-12" x="80.24" y="0">ã</tspan><tspan x="94.37" y="0">o </tspan><tspan class="cls-1" x="113.55" y="0">d</tspan><tspan x="128.25" y="0">e </tspan><tspan class="cls-5" x="147.42" y="0">v</tspan><tspan class="cls-12" x="160.52" y="0">a</tspan><tspan class="cls-2" x="174.65" y="0">c</tspan><tspan class="cls-6" x="186.43" y="0">i</tspan><tspan class="cls-4" x="192.13" y="0">n</tspan><tspan x="205.28" y="0">as</tspan></text>
  <polygon class="cls-9" points="338.69 262.6 330.04 262.6 330.04 253.95 324.38 253.95 324.38 262.6 315.73 262.6 315.73 268.27 324.38 268.27 324.38 276.92 330.04 276.92 330.04 268.27 338.69 268.27 338.69 262.6"/>
  <g id="_6" data-name="6">
    <path class="cls-9" d="M54.87,73.13c-.3,0-.59-.12-.83-.36l-18.74-18.74c-.47-.47-.47-1.19,0-1.66l12.63-12.63c.47-.47,1.19-.47,1.66,0l3.2,3.2c.24.24.36.53.36.83s-.12.59-.36.83l-3.26,3.26c-.24.24-.36.53-.36.89h0c0,.3.12.65.36.89.24.24.53.36.89.36h0c.36,0,.65-.12.89-.36l3.26-3.26c.47-.47,1.19-.47,1.66,0l4.92,4.92c.47.47.47,1.19,0,1.66l-3.26,3.26c-.24.24-.36.53-.36.89s.12.65.36.89c.47.47,1.25.47,1.78,0l3.26-3.26c.24-.24.53-.36.83-.36h0c.3,0,.59.12.83.36l3.79,3.79c.3.3.42.65.36,1.07l-1.6,8.89c-.3,1.54-1.54,2.85-3.08,3.08l-8.89,1.6c-.18-.06-.24-.06-.3-.06ZM37.79,53.21l17.49,17.49,8.3-1.48c.59-.12,1.07-.59,1.19-1.19l1.48-8.3-2.55-2.55-2.43,2.43c-1.42,1.42-3.68,1.42-5.1,0-.71-.71-1.07-1.6-1.07-2.55s.36-1.84,1.07-2.55l2.43-2.43-3.2-3.2-2.43,2.43c-.65.71-1.6,1.07-2.55,1.07h0c-.95,0-1.9-.36-2.55-1.07-.71-.71-1.07-1.6-1.07-2.55s.36-1.9,1.07-2.55l2.43-2.43-1.48-1.48-11.03,10.91ZM40.28,50.24h0c-.3,0-.59-.12-.83-.36l-3.85-3.85c-.47-.47-.47-1.19,0-1.66l4.33-4.33c.47-.47,1.19-.47,1.66,0l3.79,3.79c.47.47.47,1.19,0,1.66l-4.33,4.33c-.18.3-.47.42-.77.42ZM38.15,45.2l2.13,2.13,2.61-2.61-2.13-2.13-2.61,2.61ZM70.11,78.23c-.95,0-1.9-.36-2.61-1.07l-5.69-5.69c-.3-.3-.42-.77-.3-1.19s.47-.71.95-.83l1.07-.18c.59-.12,1.07-.59,1.19-1.19l.24-1.3c.06-.42.42-.77.83-.95.42-.12.89,0,1.19.3l5.81,5.81c1.42,1.42,1.42,3.79,0,5.22-.77.71-1.72,1.07-2.67,1.07ZM64.95,71.23l4.27,4.27c.53.53,1.36.53,1.84,0,.53-.53.53-1.36,0-1.84l-4.27-4.27c-.42.77-1.07,1.42-1.84,1.84ZM31.98,50.9h0c-.3,0-.59-.12-.83-.36l-3.2-3.2c-.47-.47-.47-1.19,0-1.66l13.28-13.28c.47-.47,1.19-.47,1.66,0l3.2,3.2c.47.47.47,1.19,0,1.66l-13.28,13.28c-.24.24-.53.36-.83.36ZM30.5,46.51l1.48,1.48,11.56-11.56-1.48-1.48-11.56,11.56ZM50.36,52.38c-.95,0-1.9-.36-2.55-1.07-.71-.71-1.07-1.6-1.07-2.55s.36-1.84,1.07-2.55l3.26-3.26c.24-.24.53-.36.83-.36h0c.3,0,.59.12.83.36l3.44,3.44c.47.47.47,1.19,0,1.66l-3.26,3.26c-.65.65-1.54,1.07-2.55,1.07h0ZM51.96,45.44l-2.43,2.43c-.24.24-.36.53-.36.89s.12.65.36.89c.24.24.53.36.89.36h0c.36,0,.65-.12.89-.36l2.43-2.43-1.78-1.78ZM58.72,60.68c-.95,0-1.84-.36-2.55-1.07s-1.07-1.6-1.07-2.55.36-1.84,1.07-2.55l3.26-3.26c.47-.47,1.19-.47,1.66,0l3.44,3.44c.24.24.36.53.36.83s-.12.59-.36.83l-3.26,3.26c-.71.71-1.66,1.07-2.55,1.07ZM60.26,53.74l-2.43,2.43c-.24.24-.36.53-.36.89s.12.65.36.89c.47.47,1.25.47,1.78,0l2.43-2.43-1.78-1.78Z"/>
  </g>
</svg>