<?xml version="1.0" encoding="UTF-8"?>
<svg id="Layer_1" data-name="Layer 1" xmlns="http://www.w3.org/2000/svg" viewBox="0 0 366.28 305.38">
  <defs>
    <style>
      .cls-1 {
        letter-spacing: -.02em;
      }

      .cls-2 {
        letter-spacing: 0em;
      }

      .cls-3 {
        letter-spacing: 0em;
      }

      .cls-4 {
        fill: #fff;
      }

      .cls-5 {
        letter-spacing: -.02em;
      }

      .cls-6 {
        letter-spacing: 0em;
      }

      .cls-7 {
        letter-spacing: -.03em;
      }

      .cls-8 {
        letter-spacing: 0em;
      }

      .cls-9 {
        letter-spacing: 0em;
      }

      .cls-10 {
        letter-spacing: -.01em;
      }

      .cls-11 {
        letter-spacing: -.03em;
      }

      .cls-12 {
        letter-spacing: -.04em;
      }

      .cls-13 {
        letter-spacing: -.02em;
      }

      .cls-14 {
        font-family: UrbanistRoman-Bold, Urbanist;
        font-size: 19px;
        font-variation-settings: 'wght' 700;
        font-weight: 700;
      }

      .cls-15 {
        letter-spacing: 0em;
      }

      .cls-16 {
        letter-spacing: 0em;
      }

      .cls-17 {
        letter-spacing: -.01em;
      }

      .cls-18 {
        letter-spacing: -.02em;
      }

      .cls-19 {
        letter-spacing: -.01em;
      }

      .cls-20 {
        letter-spacing: 0em;
      }

      .cls-21 {
        letter-spacing: -.01em;
      }

      .cls-22 {
        letter-spacing: 0em;
      }

      .cls-23 {
        letter-spacing: 0em;
      }

      .cls-24 {
        font-family: Urbanist-Regular, Urbanist;
        font-size: 18px;
        font-variation-settings: 'wght' 400;
      }

      .cls-25 {
        letter-spacing: -.01em;
      }

      .cls-26 {
        fill: #130044;
      }
    </style>
  </defs>
  <rect class="cls-26" x="0" y="0" width="366.28" height="305.38" rx="29.13" ry="29.13"/>
  <path class="cls-4" d="M36.86,75.17l-8.29-8.29c-1.3-1.3-1.3-3.42,0-4.72l8.53-8.53-8.53-8.53c-1.3-1.3-1.3-3.42,0-4.72l8.29-8.29c1.3-1.3,3.42-1.3,4.72,0l8.53,8.53,8.53-8.53c1.3-1.3,3.42-1.3,4.72,0l8.29,8.29c1.3,1.3,1.3,3.42,0,4.72l-8.53,8.53,8.53,8.53c1.3,1.3,1.3,3.42,0,4.72l-8.29,8.29c-1.3,1.3-3.42,1.3-4.72,0l-8.53-8.53-8.53,8.53c-1.3,1.3-3.42,1.3-4.72,0ZM39.46,34.22c-.13-.13-.34-.13-.48,0l-8.29,8.29c-.13.13-.13.34,0,.48l9.59,9.59c.59.59.59,1.54,0,2.12l-9.59,9.59c-.13.13-.13.34,0,.48l8.29,8.29c.13.13.34.13.48,0l9.59-9.59c.59-.59,1.54-.59,2.12,0l9.59,9.59c.13.13.34.13.48,0l8.29-8.29c.13-.13.13-.34,0-.48l-9.59-9.59c-.59-.59-.59-1.54,0-2.12l9.59-9.59c.13-.13.13-.34,0-.48l-8.29-8.29c-.13-.13-.34-.13-.48,0l-9.59,9.59c-.59.59-1.54.59-2.12,0l-9.59-9.59Z"/>
  <text class="cls-4" transform="translate(27.59 115.96)"><tspan class="cls-14"><tspan class="cls-12" x="0" y="0">C</tspan><tspan x="12.68" y="0">a</tspan><tspan class="cls-9" x="24.06" y="0">n</tspan><tspan class="cls-18" x="34.48" y="0">c</tspan><tspan class="cls-13" x="43.87" y="0">e</tspan><tspan class="cls-16" x="54.14" y="0">l</tspan><tspan x="58.6" y="0">a</tspan><tspan class="cls-9" x="69.98" y="0">m</tspan><tspan class="cls-25" x="86.67" y="0">e</tspan><tspan x="97.08" y="0">n</tspan><tspan class="cls-17" x="107.68" y="0">t</tspan><tspan x="114.28" y="0">o </tspan><tspan class="cls-16" x="129.48" y="0">d</tspan><tspan x="141.11" y="0">e </tspan><tspan class="cls-1" x="156.3" y="0">v</tspan><tspan class="cls-25" x="167.06" y="0">i</tspan><tspan class="cls-9" x="171.44" y="0">a</tspan><tspan class="cls-10" x="182.63" y="0">ge</tspan><tspan x="204.47" y="0">m</tspan></tspan><tspan class="cls-24"><tspan class="cls-5" x="0" y="43.2">R</tspan><tspan class="cls-15" x="9.7" y="43.2">e</tspan><tspan class="cls-3" x="19.58" y="43.2">e</tspan><tspan class="cls-8" x="29.54" y="43.2">m</tspan><tspan class="cls-21" x="45.65" y="43.2">b</tspan><tspan class="cls-23" x="56.29" y="43.2">o</tspan><tspan x="66.22" y="43.2">l</tspan><tspan class="cls-20" x="69.64" y="43.2">s</tspan><tspan x="77.31" y="43.2">o </tspan><tspan class="cls-2" x="91.71" y="43.2">d</tspan><tspan x="102.47" y="43.2">e </tspan><tspan class="cls-20" x="116.85" y="43.2">de</tspan><tspan x="137.6" y="43.2">s</tspan><tspan class="cls-21" x="145.33" y="43.2">p</tspan><tspan class="cls-2" x="155.97" y="43.2">es</tspan><tspan x="173.63" y="43.2">as </tspan><tspan class="cls-22" x="196.13" y="43.2">c</tspan><tspan class="cls-3" x="205.19" y="43.2">o</tspan><tspan x="215.18" y="43.2">m </tspan></tspan><tspan class="cls-24"><tspan class="cls-15" x="0" y="64.8">pa</tspan><tspan class="cls-22" x="20.92" y="64.8">c</tspan><tspan class="cls-19" x="29.97" y="64.8">ot</tspan><tspan class="cls-20" x="45.77" y="64.8">e</tspan><tspan x="55.76" y="64.8">s tu</tspan><tspan class="cls-22" x="83.31" y="64.8">r</tspan><tspan class="cls-20" x="89.63" y="64.8">í</tspan><tspan x="92.99" y="64.8">s</tspan><tspan class="cls-20" x="100.72" y="64.8">t</tspan><tspan class="cls-3" x="106.87" y="64.8">i</tspan><tspan class="cls-22" x="110.2" y="64.8">c</tspan><tspan class="cls-20" x="119.25" y="64.8">o</tspan><tspan x="129.27" y="64.8">s e/</tspan><tspan class="cls-15" x="157.72" y="64.8">o</tspan><tspan x="167.62" y="64.8">u </tspan><tspan class="cls-20" x="181.22" y="64.8">s</tspan><tspan class="cls-3" x="188.89" y="64.8">e</tspan><tspan x="198.85" y="64.8">r</tspan><tspan class="cls-22" x="205.29" y="64.8">v</tspan><tspan class="cls-3" x="214.43" y="64.8">i</tspan><tspan class="cls-22" x="217.76" y="64.8">ç</tspan><tspan class="cls-20" x="226.81" y="64.8">o</tspan><tspan x="236.83" y="64.8">s </tspan></tspan><tspan class="cls-24"><tspan class="cls-22" x="0" y="86.4">c</tspan><tspan class="cls-3" x="9.05" y="86.4">o</tspan><tspan x="19.04" y="86.4">nt</tspan><tspan class="cls-7" x="34.9" y="86.4">r</tspan><tspan x="40.73" y="86.4">a</tspan><tspan class="cls-19" x="51.19" y="86.4">t</tspan><tspan class="cls-15" x="57.16" y="86.4">a</tspan><tspan class="cls-20" x="67.44" y="86.4">do</tspan><tspan x="88.22" y="86.4">s </tspan><tspan class="cls-3" x="100.27" y="86.4">e</tspan><tspan x="110.23" y="86.4">m </tspan><tspan class="cls-22" x="130.54" y="86.4">c</tspan><tspan x="139.6" y="86.4">a</tspan><tspan class="cls-20" x="150.06" y="86.4">s</tspan><tspan x="157.73" y="86.4">o </tspan><tspan class="cls-20" x="172.12" y="86.4">d</tspan><tspan x="182.89" y="86.4">e </tspan></tspan><tspan class="cls-24"><tspan class="cls-6" x="0" y="108">i</tspan><tspan x="3.39" y="108">m</tspan><tspan class="cls-3" x="19.39" y="108">p</tspan><tspan class="cls-7" x="30.11" y="108">r</tspan><tspan class="cls-11" x="35.95" y="108">e</tspan><tspan class="cls-22" x="45.52" y="108">v</tspan><tspan class="cls-20" x="54.66" y="108">i</tspan><tspan x="58.01" y="108">s</tspan><tspan class="cls-19" x="65.75" y="108">t</tspan><tspan class="cls-20" x="71.71" y="108">o</tspan><tspan x="81.73" y="108">s </tspan><tspan class="cls-22" x="93.78" y="108">q</tspan><tspan class="cls-20" x="104.48" y="108">u</tspan><tspan x="113.71" y="108">e </tspan><tspan class="cls-6" x="128.08" y="108">i</tspan><tspan x="131.47" y="108">m</tspan><tspan class="cls-21" x="147.46" y="108">pe</tspan><tspan class="cls-22" x="167.98" y="108">ç</tspan><tspan x="177.03" y="108">am a </tspan></tspan><tspan class="cls-24"><tspan class="cls-22" x="0" y="129.6">v</tspan><tspan class="cls-3" x="9.14" y="129.6">i</tspan><tspan class="cls-15" x="12.47" y="129.6">a</tspan><tspan class="cls-3" x="22.74" y="129.6">ge</tspan><tspan x="43.19" y="129.6">m.</tspan></tspan></text>
</svg>