<?xml version="1.0" encoding="UTF-8"?>
<svg id="Layer_1" data-name="Layer 1" xmlns="http://www.w3.org/2000/svg" viewBox="0 0 366.28 305.38">
  <defs>
    <style>
      .cls-1 {
        letter-spacing: -.05em;
      }

      .cls-2 {
        letter-spacing: -.01em;
      }

      .cls-3 {
        letter-spacing: 0em;
      }

      .cls-4 {
        font-family: UrbanistRoman-Bold, Urbanist;
        font-size: 19px;
        font-variation-settings: 'wght' 700;
        font-weight: 700;
      }

      .cls-4, .cls-5 {
        fill: #130044;
      }

      .cls-6 {
        letter-spacing: 0em;
      }

      .cls-7 {
        letter-spacing: -.04em;
      }

      .cls-8 {
        letter-spacing: -.02em;
      }

      .cls-9 {
        letter-spacing: -.02em;
      }

      .cls-10 {
        letter-spacing: 0em;
      }

      .cls-11 {
        letter-spacing: 0em;
      }

      .cls-12 {
        letter-spacing: -.01em;
      }
    </style>
  </defs>
  <path class="cls-5" d="M337.15,9c11.1,0,20.14,9.03,20.14,20.14v247.12c0,11.1-9.03,20.13-20.14,20.13H29.13c-11.1,0-20.14-9.03-20.14-20.13V29.13c0-11.1,9.03-20.14,20.14-20.14h308.02M337.15,0H29.13C13.11,0,0,13.11,0,29.13v247.12c0,16.02,13.11,29.13,29.13,29.13h308.02c16.02,0,29.13-13.11,29.13-29.13V29.13c0-16.02-13.11-29.13-29.13-29.13h0Z"/>
  <text class="cls-4" transform="translate(27.59 273.98)"><tspan class="cls-1" x="0" y="0">M</tspan><tspan class="cls-12" x="16.76" y="0">o</tspan><tspan x="27.18" y="0">r</tspan><tspan class="cls-2" x="34.5" y="0">t</tspan><tspan x="41.09" y="0">e (</tspan><tspan class="cls-3" x="63.48" y="0">n</tspan><tspan x="73.89" y="0">atu</tspan><tspan class="cls-7" x="102.3" y="0">r</tspan><tspan class="cls-11" x="108.9" y="0">a</tspan><tspan x="120.33" y="0">l </tspan><tspan class="cls-9" x="129.48" y="0">o</tspan><tspan x="139.69" y="0">u </tspan><tspan class="cls-3" x="154.47" y="0">a</tspan><tspan class="cls-8" x="165.66" y="0">c</tspan><tspan class="cls-12" x="174.99" y="0">i</tspan><tspan class="cls-6" x="179.37" y="0">d</tspan><tspan class="cls-12" x="191.01" y="0">e</tspan><tspan x="201.42" y="0">n</tspan><tspan class="cls-2" x="212.02" y="0">t</tspan><tspan class="cls-10" x="218.61" y="0">a</tspan><tspan x="230.04" y="0">l)</tspan></text>
  <polygon class="cls-5" points="338.69 262.6 330.04 262.6 330.04 253.95 324.38 253.95 324.38 262.6 315.73 262.6 315.73 268.27 324.38 268.27 324.38 276.92 330.04 276.92 330.04 268.27 338.69 268.27 338.69 262.6"/>
  <path class="cls-5" d="M44.42,48.25c2.36-1.59,3.91-4.29,3.91-7.35,0-4.89-3.97-8.86-8.86-8.86s-8.86,3.97-8.86,8.86c0,3.06,1.55,5.76,3.91,7.35-4.09,1.88-6.93,6.01-6.93,10.8v13.36h0v2.99c3.57,1.8,7.6,2.83,11.88,2.83s8.31-1.02,11.88-2.83v-16.36c0-4.79-2.84-8.92-6.93-10.8ZM33.25,40.9c0-3.44,2.79-6.22,6.22-6.22s6.22,2.79,6.22,6.22-2.79,6.22-6.22,6.22-6.22-2.79-6.22-6.22ZM48.71,73.73c-2.84,1.2-5.96,1.86-9.24,1.86s-6.4-.66-9.24-1.86v-14.68c0-5.1,4.14-9.24,9.24-9.24s9.24,4.14,9.24,9.24v14.68Z"/>
</svg>