<?xml version="1.0" encoding="UTF-8"?>
<svg id="Layer_1" data-name="Layer 1" xmlns="http://www.w3.org/2000/svg" viewBox="0 0 366.28 305.38">
  <defs>
    <style>
      .cls-1 {
        letter-spacing: -.01em;
      }

      .cls-2 {
        letter-spacing: 0em;
      }

      .cls-3 {
        letter-spacing: 0em;
      }

      .cls-4 {
        letter-spacing: -.05em;
      }

      .cls-5 {
        letter-spacing: 0em;
      }

      .cls-6 {
        fill: #fff;
      }

      .cls-7 {
        letter-spacing: -.04em;
      }

      .cls-8 {
        letter-spacing: 0em;
      }

      .cls-9 {
        letter-spacing: -.03em;
      }

      .cls-10 {
        letter-spacing: -.01em;
      }

      .cls-11 {
        font-family: UrbanistRoman-Bold, Urbanist;
        font-size: 23.99px;
        font-variation-settings: 'wght' 700;
        font-weight: 700;
      }

      .cls-12 {
        letter-spacing: -.02em;
      }

      .cls-13 {
        letter-spacing: 0em;
      }

      .cls-14 {
        letter-spacing: -.02em;
      }

      .cls-15 {
        letter-spacing: -.04em;
      }

      .cls-16 {
        letter-spacing: 0em;
      }

      .cls-17 {
        letter-spacing: 0em;
      }

      .cls-18 {
        letter-spacing: -.01em;
      }

      .cls-19 {
        letter-spacing: 0em;
      }

      .cls-20 {
        letter-spacing: -.01em;
      }

      .cls-21 {
        letter-spacing: 0em;
      }

      .cls-22 {
        font-family: Urbanist-Regular, Urbanist;
        font-size: 18px;
        font-variation-settings: 'wght' 400;
      }

      .cls-23 {
        fill: #130044;
      }
    </style>
  </defs>
  <rect class="cls-23" x="0" y="0" width="366.28" height="305.38" rx="29.13" ry="29.13"/>
  <g>
    <path class="cls-6" d="M56.81,32.04h-1.81l-16.97,7.72v4.62l1.49-.68v9.21h-5.96v13.41h25.33v-2.98h13.41v-19.64l1.49.68v-4.62l-16.97-7.72ZM38.02,54.39h1.49v2.98h-1.49v-2.98ZM42.49,64.82h-7.45v-10.43h1.49v4.47h4.47v-4.47h1.49v10.43ZM57.39,64.82h-13.41v-10.43h13.41v10.43ZM60.37,61.84h-1.49v-8.94h-7.45v-4.47h8.94v13.41ZM70.8,61.84h-8.94v-14.9h-11.92v5.96h-8.94v-9.88l14.32-6.51h1.17l14.32,6.51v18.82ZM72.29,42.06l-15.48-7.04h-1.81l-15.48,7.04v-1.34l15.81-7.18h1.17l15.81,7.19v1.34Z"/>
    <path class="cls-6" d="M55.93,70.15c-.56-.19-1.18-.13-1.7.15l-1.64.9.23-.67c.21-.63.11-1.33-.28-1.87-.39-.54-1.02-.86-1.68-.86-.85,0-1.61.51-1.92,1.3l-.97,2.42h-2.29l-.04-.02,1.61-.86c.97-.51,1.44-1.65,1.12-2.7-.18-.61-.6-1.1-1.16-1.39-.56-.29-1.21-.33-1.8-.12l-6.11,2.14-2.21,1.45h-4.99v-1.49h-4.49v1.49h3v6.71h-3v1.49h4.49v-1.33l2.83.57h9.91s7.52-1.49,7.52-1.49l3.86-1.88c1.04-.51,1.48-1.74,1-2.8-.25-.54-.71-.96-1.27-1.15ZM50.31,69.66c.16-.4.76-.47,1.01-.12.11.15.14.34.08.52l-.49,1.47h-1.34l.75-1.87ZM55.54,72.77l-3.59,1.77-7.28,1.46h-9.54l-3.05-.61v-3.86h5.44l2.34-1.56,6.02-2.11c.21-.07.44-.06.64.04.2.1.34.27.41.49.11.37-.05.77-.4.95l-4.16,2.21,2.94,1.47h7.07l2.56-1.4c.16-.09.34-.11.52-.05.17.06.31.18.39.35.15.32.01.69-.3.85Z"/>
    <rect class="cls-6" x="54.41" y="61.84" width="1.49" height="1.49"/>
    <rect class="cls-6" x="49.94" y="61.84" width="2.98" height="1.49"/>
    <rect class="cls-6" x="48.45" y="58.86" width="7.45" height="1.49"/>
  </g>
  <text class="cls-6" transform="translate(27.59 119.7)"><tspan class="cls-11"><tspan x="0" y="0">Ent</tspan><tspan class="cls-15" x="35.14" y="0">r</tspan><tspan class="cls-13" x="43.48" y="0">e</tspan><tspan class="cls-10" x="56.66" y="0">g</tspan><tspan x="71.08" y="0">a </tspan><tspan class="cls-10" x="91.21" y="0">e</tspan><tspan x="104.35" y="0">m </tspan><tspan class="cls-12" x="131.42" y="0">c</tspan><tspan x="143.28" y="0">a</tspan><tspan class="cls-2" x="157.65" y="0">s</tspan><tspan x="167.89" y="0">a </tspan><tspan class="cls-1" x="188.02" y="0">e</tspan><tspan x="201.16" y="0">m </tspan></tspan><tspan class="cls-11"><tspan class="cls-7" x="0" y="28.78">v</tspan><tspan class="cls-16" x="13.1" y="28.78">á</tspan><tspan class="cls-12" x="27.46" y="28.78">r</tspan><tspan class="cls-1" x="36.33" y="28.78">i</tspan><tspan x="41.86" y="28.78">as </tspan><tspan class="cls-14" x="72.4" y="28.78">c</tspan><tspan class="cls-10" x="84.18" y="28.78">i</tspan><tspan class="cls-2" x="89.71" y="28.78">d</tspan><tspan class="cls-13" x="104.4" y="28.78">a</tspan><tspan class="cls-2" x="118.53" y="28.78">de</tspan><tspan x="146.46" y="28.78">s </tspan><tspan class="cls-2" x="162.64" y="28.78">d</tspan><tspan x="177.33" y="28.78">o </tspan><tspan class="cls-13" x="196.52" y="28.78">p</tspan><tspan x="211.13" y="28.78">a</tspan><tspan class="cls-2" x="225.5" y="28.78">í</tspan><tspan x="231.12" y="28.78">s</tspan></tspan><tspan class="cls-22"><tspan class="cls-4" x="0" y="71.98">V</tspan><tspan class="cls-5" x="10.65" y="71.98">e</tspan><tspan class="cls-21" x="20.61" y="71.98">r</tspan><tspan x="26.93" y="71.98">i</tspan><tspan class="cls-3" x="30.35" y="71.98">f</tspan><tspan class="cls-5" x="36.29" y="71.98">i</tspan><tspan class="cls-21" x="39.62" y="71.98">q</tspan><tspan class="cls-19" x="50.32" y="71.98">u</tspan><tspan x="59.54" y="71.98">e a </tspan><tspan class="cls-21" x="88.69" y="71.98">c</tspan><tspan class="cls-5" x="97.75" y="71.98">o</tspan><tspan class="cls-20" x="107.74" y="71.98">n</tspan><tspan x="117.21" y="71.98">d</tspan><tspan class="cls-5" x="128.03" y="71.98">i</tspan><tspan class="cls-21" x="131.36" y="71.98">ç</tspan><tspan class="cls-17" x="140.42" y="71.98">ão</tspan><tspan x="160.6" y="71.98">, </tspan><tspan class="cls-3" x="168.53" y="71.98">d</tspan><tspan class="cls-5" x="179.3" y="71.98">e</tspan><tspan class="cls-20" x="189.26" y="71.98">p</tspan><tspan class="cls-5" x="199.9" y="71.98">e</tspan><tspan class="cls-17" x="209.86" y="71.98">n</tspan><tspan class="cls-19" x="219.33" y="71.98">d</tspan><tspan class="cls-5" x="230.09" y="71.98">e</tspan><tspan class="cls-17" x="240.06" y="71.98">n</tspan><tspan class="cls-19" x="249.52" y="71.98">d</tspan><tspan x="260.29" y="71.98">o </tspan></tspan><tspan class="cls-22"><tspan class="cls-19" x="0" y="93.58">d</tspan><tspan x="10.76" y="93.58">e </tspan><tspan class="cls-5" x="25.14" y="93.58">o</tspan><tspan class="cls-17" x="35.13" y="93.58">n</tspan><tspan class="cls-19" x="44.59" y="93.58">d</tspan><tspan class="cls-5" x="55.36" y="93.58">e</tspan><tspan x="65.32" y="93.58">m </tspan><tspan class="cls-17" x="85.63" y="93.58">m</tspan><tspan class="cls-5" x="101.45" y="93.58">o</tspan><tspan class="cls-9" x="111.44" y="93.58">r</tspan><tspan x="117.27" y="93.58">a, </tspan><tspan class="cls-5" x="135.66" y="93.58">e</tspan><tspan x="145.63" y="93.58">nt</tspan><tspan class="cls-9" x="161.49" y="93.58">r</tspan><tspan class="cls-17" x="167.32" y="93.58">e</tspan><tspan class="cls-5" x="177.19" y="93.58">g</tspan><tspan x="187.68" y="93.58">a</tspan><tspan class="cls-17" x="198.13" y="93.58">m</tspan><tspan class="cls-19" x="213.95" y="93.58">o</tspan><tspan x="223.96" y="93.58">s </tspan></tspan><tspan class="cls-22"><tspan x="0" y="115.18">d</tspan><tspan class="cls-8" x="10.83" y="115.18">i</tspan><tspan class="cls-9" x="14.22" y="115.18">r</tspan><tspan class="cls-18" x="20.05" y="115.18">et</tspan><tspan x="35.83" y="115.18">a</tspan><tspan class="cls-20" x="46.29" y="115.18">m</tspan><tspan class="cls-5" x="62.1" y="115.18">e</tspan><tspan x="72.06" y="115.18">n</tspan><tspan class="cls-18" x="81.71" y="115.18">t</tspan><tspan x="87.68" y="115.18">e </tspan><tspan class="cls-17" x="102.05" y="115.18">n</tspan><tspan x="111.52" y="115.18">a s</tspan><tspan class="cls-19" x="134.03" y="115.18">u</tspan><tspan x="143.25" y="115.18">a </tspan><tspan class="cls-21" x="158.03" y="115.18">c</tspan><tspan x="167.08" y="115.18">a</tspan><tspan class="cls-19" x="177.54" y="115.18">s</tspan><tspan x="185.21" y="115.18">a.</tspan></tspan></text>
</svg>