<?xml version="1.0" encoding="UTF-8"?>
<svg id="Layer_1" data-name="Layer 1" xmlns="http://www.w3.org/2000/svg" viewBox="0 0 366.28 305.38">
  <defs>
    <style>
      .cls-1 {
        letter-spacing: -.01em;
      }

      .cls-2 {
        letter-spacing: 0em;
      }

      .cls-3 {
        letter-spacing: 0em;
      }

      .cls-4 {
        letter-spacing: 0em;
      }

      .cls-5 {
        letter-spacing: 0em;
      }

      .cls-6 {
        fill: #fff;
      }

      .cls-7 {
        letter-spacing: 0em;
      }

      .cls-8 {
        letter-spacing: -.03em;
      }

      .cls-9 {
        letter-spacing: 0em;
      }

      .cls-10 {
        letter-spacing: -.01em;
      }

      .cls-11 {
        letter-spacing: -.03em;
      }

      .cls-12 {
        font-family: UrbanistRoman-Bold, Urbanist;
        font-size: 23.99px;
        font-variation-settings: 'wght' 700;
        font-weight: 700;
      }

      .cls-13 {
        letter-spacing: -.03em;
      }

      .cls-14 {
        letter-spacing: -.03em;
      }

      .cls-15 {
        letter-spacing: -.02em;
      }

      .cls-16 {
        letter-spacing: 0em;
      }

      .cls-17 {
        letter-spacing: -.02em;
      }

      .cls-18 {
        letter-spacing: 0em;
      }

      .cls-19 {
        letter-spacing: -.03em;
      }

      .cls-20 {
        letter-spacing: -.01em;
      }

      .cls-21 {
        letter-spacing: 0em;
      }

      .cls-22 {
        letter-spacing: .01em;
      }

      .cls-23 {
        letter-spacing: -.01em;
      }

      .cls-24 {
        letter-spacing: -.03em;
      }

      .cls-25 {
        letter-spacing: 0em;
      }

      .cls-26 {
        letter-spacing: 0em;
      }

      .cls-27 {
        font-family: Urbanist-Regular, Urbanist;
        font-size: 18px;
        font-variation-settings: 'wght' 400;
      }

      .cls-28 {
        letter-spacing: 0em;
      }

      .cls-29 {
        fill: #130044;
      }
    </style>
  </defs>
  <rect class="cls-29" x="0" y="0" width="366.28" height="305.38" rx="29.13" ry="29.13"/>
  <g>
    <path class="cls-6" d="M73.78,53.64h-2.43c-.74-10.24-8.92-18.43-19.16-19.16v-2.43h-3v2.43c-10.24.74-18.43,8.93-19.16,19.16h-2.43v3h2.43c.74,10.24,8.93,18.43,19.16,19.16v2.43h3v-2.43c10.24-.74,18.43-8.93,19.16-19.16h2.43v-3ZM52.19,72.8v-4.19h-3v4.19c-8.59-.72-15.44-7.58-16.16-16.16h4.19v-3h-4.19c.72-8.59,7.58-15.44,16.16-16.16v4.19h3v-4.19c8.59.72,15.44,7.58,16.16,16.16h-4.19v3h4.19c-.72,8.58-7.58,15.44-16.16,16.16Z"/>
    <path class="cls-6" d="M52.19,45.52h-3v2.38c-2.19.24-3.92,2.09-3.94,4.34,0,2.42,1.97,4.39,4.39,4.39h2.01c.77,0,1.39.62,1.39,1.38,0,.76-.63,1.38-1.39,1.38h-6.75v3h4.28v2.36h3v-2.41c2.15-.27,3.84-2.09,3.86-4.32,0-2.42-1.97-4.39-4.39-4.39h-2.01c-.77,0-1.39-.62-1.39-1.38,0-.77.63-1.4,1.39-1.4h6.73v-3h-4.18v-2.34Z"/>
  </g>
  <text class="cls-6" transform="translate(27.59 119.7)"><tspan class="cls-12"><tspan class="cls-24" x="0" y="0">B</tspan><tspan class="cls-1" x="13.44" y="0">e</tspan><tspan class="cls-16" x="26.59" y="0">n</tspan><tspan x="39.73" y="0">e</tspan><tspan class="cls-2" x="53.15" y="0">f</tspan><tspan class="cls-10" x="61.72" y="0">í</tspan><tspan class="cls-17" x="67.25" y="0">c</tspan><tspan class="cls-1" x="79.02" y="0">i</tspan><tspan class="cls-2" x="84.55" y="0">o</tspan><tspan x="97.8" y="0">s </tspan><tspan class="cls-2" x="113.98" y="0">fis</tspan><tspan class="cls-15" x="138.41" y="0">c</tspan><tspan x="150.27" y="0">a</tspan><tspan class="cls-2" x="164.64" y="0">i</tspan><tspan x="170.27" y="0">s</tspan></tspan><tspan class="cls-27"><tspan class="cls-19" x="0" y="43.2">C</tspan><tspan class="cls-5" x="12.13" y="43.2">o</tspan><tspan x="22.12" y="43.2">m a </tspan><tspan class="cls-5" x="57.21" y="43.2">p</tspan><tspan class="cls-14" x="67.94" y="43.2">r</tspan><tspan class="cls-11" x="73.77" y="43.2">e</tspan><tspan class="cls-25" x="83.35" y="43.2">v</tspan><tspan class="cls-5" x="92.48" y="43.2">i</tspan><tspan class="cls-21" x="95.81" y="43.2">d</tspan><tspan class="cls-5" x="106.58" y="43.2">ê</tspan><tspan class="cls-18" x="116.54" y="43.2">n</tspan><tspan class="cls-26" x="126.01" y="43.2">c</tspan><tspan class="cls-5" x="135.03" y="43.2">i</tspan><tspan x="138.36" y="43.2">a, é </tspan><tspan class="cls-23" x="171.13" y="43.2">p</tspan><tspan class="cls-21" x="181.76" y="43.2">o</tspan><tspan x="191.78" y="43.2">s</tspan><tspan class="cls-5" x="199.51" y="43.2">s</tspan><tspan class="cls-25" x="207.15" y="43.2">í</tspan><tspan class="cls-13" x="210.46" y="43.2">v</tspan><tspan class="cls-26" x="219.23" y="43.2">e</tspan><tspan x="229.13" y="43.2">l </tspan></tspan><tspan class="cls-27"><tspan x="0" y="64.8">a</tspan><tspan class="cls-21" x="10.46" y="64.8">t</tspan><tspan class="cls-7" x="16.6" y="64.8">i</tspan><tspan class="cls-18" x="20" y="64.8">n</tspan><tspan class="cls-5" x="29.47" y="64.8">g</tspan><tspan class="cls-7" x="39.95" y="64.8">i</tspan><tspan x="43.34" y="64.8">r u</tspan><tspan class="cls-23" x="63.39" y="64.8">m</tspan><tspan x="79.2" y="64.8">a </tspan><tspan class="cls-9" x="93.98" y="64.8">a</tspan><tspan x="104.55" y="64.8">l</tspan><tspan class="cls-5" x="107.97" y="64.8">í</tspan><tspan class="cls-25" x="111.3" y="64.8">q</tspan><tspan class="cls-21" x="122" y="64.8">u</tspan><tspan class="cls-20" x="131.23" y="64.8">ot</tspan><tspan x="147.03" y="64.8">a </tspan><tspan class="cls-21" x="161.81" y="64.8">d</tspan><tspan x="172.57" y="64.8">e IR </tspan><tspan class="cls-21" x="205.26" y="64.8">d</tspan><tspan x="216.02" y="64.8">e </tspan></tspan><tspan class="cls-27"><tspan x="0" y="86.4">a</tspan><tspan class="cls-18" x="10.46" y="86.4">p</tspan><tspan class="cls-5" x="21.1" y="86.4">e</tspan><tspan class="cls-23" x="31.06" y="86.4">n</tspan><tspan x="40.53" y="86.4">as 10%, </tspan><tspan class="cls-5" x="98" y="86.4">e</tspan><tspan class="cls-18" x="107.96" y="86.4">n</tspan><tspan class="cls-25" x="117.43" y="86.4">q</tspan><tspan class="cls-21" x="128.13" y="86.4">u</tspan><tspan x="137.36" y="86.4">an</tspan><tspan class="cls-20" x="157.46" y="86.4">t</tspan><tspan x="163.43" y="86.4">o </tspan><tspan class="cls-5" x="177.83" y="86.4">e</tspan><tspan x="187.79" y="86.4">m </tspan><tspan class="cls-22" x="208.11" y="86.4">f</tspan><tspan x="214.35" y="86.4">u</tspan><tspan class="cls-18" x="223.64" y="86.4">n</tspan><tspan class="cls-21" x="233.11" y="86.4">do</tspan><tspan x="253.89" y="86.4">s </tspan></tspan><tspan class="cls-27"><tspan class="cls-18" x="0" y="108">nã</tspan><tspan x="19.75" y="108">o </tspan><tspan class="cls-5" x="34.15" y="108">p</tspan><tspan class="cls-8" x="44.87" y="108">r</tspan><tspan class="cls-13" x="50.71" y="108">e</tspan><tspan class="cls-25" x="60.28" y="108">v</tspan><tspan class="cls-5" x="69.42" y="108">i</tspan><tspan class="cls-21" x="72.75" y="108">d</tspan><tspan class="cls-5" x="83.51" y="108">e</tspan><tspan class="cls-18" x="93.47" y="108">n</tspan><tspan class="cls-3" x="102.94" y="108">c</tspan><tspan class="cls-28" x="111.96" y="108">i</tspan><tspan x="115.29" y="108">á</tspan><tspan class="cls-4" x="125.75" y="108">r</tspan><tspan class="cls-28" x="132.07" y="108">i</tspan><tspan class="cls-21" x="135.4" y="108">o</tspan><tspan x="145.41" y="108">s e </tspan><tspan class="cls-23" x="171.84" y="108">o</tspan><tspan x="181.74" y="108">ut</tspan><tspan class="cls-14" x="197.24" y="108">r</tspan><tspan class="cls-21" x="203.07" y="108">o</tspan><tspan x="213.08" y="108">s </tspan></tspan><tspan class="cls-27"><tspan class="cls-7" x="0" y="129.6">i</tspan><tspan class="cls-23" x="3.39" y="129.6">n</tspan><tspan class="cls-13" x="12.86" y="129.6">v</tspan><tspan class="cls-21" x="21.64" y="129.6">e</tspan><tspan x="31.63" y="129.6">s</tspan><tspan class="cls-21" x="39.36" y="129.6">t</tspan><tspan class="cls-7" x="45.5" y="129.6">i</tspan><tspan class="cls-18" x="48.9" y="129.6">m</tspan><tspan class="cls-5" x="64.71" y="129.6">e</tspan><tspan x="74.67" y="129.6">n</tspan><tspan class="cls-20" x="84.32" y="129.6">t</tspan><tspan class="cls-21" x="90.29" y="129.6">o</tspan><tspan x="100.31" y="129.6">s a </tspan><tspan class="cls-23" x="127.13" y="129.6">m</tspan><tspan class="cls-5" x="142.95" y="129.6">e</tspan><tspan class="cls-18" x="152.91" y="129.6">n</tspan><tspan class="cls-5" x="162.38" y="129.6">o</tspan><tspan x="172.37" y="129.6">r </tspan><tspan class="cls-9" x="183.12" y="129.6">a</tspan><tspan x="193.7" y="129.6">l</tspan><tspan class="cls-5" x="197.12" y="129.6">í</tspan><tspan class="cls-25" x="200.45" y="129.6">q</tspan><tspan class="cls-21" x="211.15" y="129.6">u</tspan><tspan class="cls-20" x="220.37" y="129.6">ot</tspan><tspan x="236.18" y="129.6">a </tspan></tspan><tspan class="cls-27"><tspan class="cls-18" x="0" y="151.2">p</tspan><tspan class="cls-21" x="10.64" y="151.2">o</tspan><tspan x="20.66" y="151.2">s</tspan><tspan class="cls-5" x="28.39" y="151.2">s</tspan><tspan class="cls-25" x="36.03" y="151.2">í</tspan><tspan class="cls-11" x="39.33" y="151.2">v</tspan><tspan class="cls-26" x="48.11" y="151.2">e</tspan><tspan x="58.01" y="151.2">l é 15%.</tspan></tspan></text>
</svg>