<?xml version="1.0" encoding="UTF-8"?>
<svg id="Layer_1" data-name="Layer 1" xmlns="http://www.w3.org/2000/svg" viewBox="0 0 366.28 305.38">
  <defs>
    <style>
      .cls-1 {
        letter-spacing: -.04em;
      }

      .cls-2 {
        letter-spacing: 0em;
      }

      .cls-3 {
        letter-spacing: 0em;
      }

      .cls-4 {
        letter-spacing: 0em;
      }

      .cls-5 {
        letter-spacing: -.02em;
      }

      .cls-6 {
        font-family: UrbanistRoman-Bold, Urbanist;
        font-size: 23.99px;
        font-variation-settings: 'wght' 700;
        font-weight: 700;
      }

      .cls-6, .cls-7 {
        fill: #130044;
      }

      .cls-8 {
        letter-spacing: -.01em;
      }
    </style>
  </defs>
  <path class="cls-7" d="M337.15,8.99c11.1,0,20.14,9.03,20.14,20.14v247.12c0,11.1-9.03,20.14-20.14,20.14H29.13c-11.1,0-20.14-9.03-20.14-20.14V29.13c0-11.1,9.03-20.14,20.14-20.14h308.02M337.15,0H29.13C13.11,0,0,13.11,0,29.13v247.12c0,16.02,13.11,29.13,29.13,29.13h308.02c16.02,0,29.13-13.11,29.13-29.13V29.13c0-16.02-13.11-29.13-29.13-29.13h0Z"/>
  <text class="cls-6" transform="translate(27.59 274.19)"><tspan class="cls-1" x="0" y="0">R</tspan><tspan class="cls-5" x="13.54" y="0">o</tspan><tspan class="cls-2" x="26.42" y="0">u</tspan><tspan class="cls-3" x="39.39" y="0">b</tspan><tspan x="54.02" y="0">o e </tspan><tspan class="cls-4" x="92.38" y="0">f</tspan><tspan x="101.23" y="0">ur</tspan><tspan class="cls-8" x="123.37" y="0">t</tspan><tspan x="131.7" y="0">o</tspan></text>
  <polygon class="cls-7" points="338.69 262.6 330.04 262.6 330.04 253.95 324.38 253.95 324.38 262.6 315.73 262.6 315.73 268.27 324.38 268.27 324.38 276.92 330.04 276.92 330.04 268.27 338.69 268.27 338.69 262.6"/>
  <g>
    <path class="cls-7" d="M94.95,32.93l2.23-2.23h0s.95-.96.95-.96c.52-.52.52-1.38,0-1.9-.52-.52-1.38-.52-1.9,0l-.95.95h0s-2.23,2.22-2.23,2.22c-.53.53-.53,1.38,0,1.91.53.53,1.38.53,1.91,0Z"/>
    <path class="cls-7" d="M88.99,31.15c.75,0,1.35-.6,1.35-1.35v-3.15h0v-1.34c0-.74-.6-1.34-1.34-1.34s-1.34.6-1.34,1.34v1.34h0v3.15c0,.75.6,1.35,1.35,1.35Z"/>
    <path class="cls-7" d="M96.18,35.63c-.75,0-1.35.6-1.35,1.35s.6,1.35,1.35,1.35h3.15s1.34,0,1.34,0c.74,0,1.34-.6,1.34-1.34s-.6-1.34-1.34-1.34h-1.34s-3.15,0-3.15,0Z"/>
    <g>
      <path class="cls-7" d="M29.13,62.14c.11.03.21.04.32.04.6,0,1.14-.41,1.29-1.02.26-1.06.63-2.08,1.1-3.05-.14-.4-.4-.76-.8-1-.51-.3-1.1-.33-1.62-.13-.55,1.12-.98,2.31-1.28,3.54-.17.71.26,1.43.98,1.61Z"/>
      <path class="cls-7" d="M36.15,70.38l-1.31-2.66h-4.58v-1.76h4.4v-2.66c.33-2.48,1.52-4.7,3.24-6.36,0-.35-.12-.71-.34-1.02-.39-.54-1.01-.81-1.63-.77-2.16,2.13-3.62,4.97-3.95,8.15h-3.05c-.74,0-1.33.6-1.33,1.33v4.43c0,.74.6,1.33,1.33,1.33h4.21c.86,1.87,2.14,3.48,3.69,4.76.58-.07,1.11-.41,1.41-.96.2-.38.25-.8.18-1.2-.88-.74-1.66-1.61-2.27-2.6Z"/>
      <path class="cls-7" d="M54.99,41.98c.07-.55-.12-1.08-.47-1.46l-12.41-1.4c-1.03-.12-2.07.21-2.84.9-.77.69-1.22,1.68-1.22,2.72v5.85c-.25.11-.51.23-.75.35-.62.32-1.22.69-1.79,1.08-.03.46.1.92.42,1.3.37.45.9.67,1.44.66.37-.24.75-.47,1.15-.68.69-.36,1.43-.63,2.2-.81h0v-7.76c0-.38.21-.62.33-.73.12-.11.39-.29.77-.24l12.52,1.42c.35-.29.6-.71.66-1.2Z"/>
      <path class="cls-7" d="M56.27,67.71l-1.61,2.66c-1.79,2.91-4.9,4.83-8.34,5.13-.47.27-.82.74-.91,1.32-.08.51.07,1.01.36,1.39,5.12-.14,9.76-3.22,11.9-7.84h1.62c.42-.34.69-.85.69-1.43,0-.47-.18-.9-.48-1.23h-3.24Z"/>
      <path class="cls-7" d="M75.85,61.19c-.41-.28-.9-.37-1.36-.29-1.27,1.27-2.92,2.1-4.73,2.33,0,0,0,0,0,0-.02,1.44-.23,2.72-.23,2.72-.45,1.04-1.49,1.76-2.69,1.76h0c-.31.33-.51.78-.51,1.27,0,.55.25,1.04.63,1.38,2.85-.06,5.19-2.25,5.46-5.05,1.61-.58,3.05-1.54,4.22-2.8-.06-.52-.32-1.01-.79-1.33Z"/>
      <path class="cls-7" d="M83.03,56.37c-.46-.32-1.02-.39-1.53-.26-.51.91-.94,1.87-1.29,2.88-.24.7.13,1.45.83,1.69.14.05.29.07.43.07.55,0,1.07-.35,1.26-.9.28-.83.63-1.61,1.04-2.36-.1-.44-.35-.85-.75-1.12Z"/>
      <path class="cls-7" d="M104.38,51.56c.64.36,1.45.13,1.81-.51.36-.64.13-1.45-.51-1.81-1.83-1.03-3.84-1.71-5.91-2.04-.51.23-.88.71-.94,1.31-.05.51.14.98.47,1.31,1.78.27,3.51.86,5.08,1.74Z"/>
      <path class="cls-7" d="M103.57,52.93c-.48.08-.92.38-1.16.85-.27.54-.19,1.16.14,1.62,3.18,1.89,5.32,5.36,5.32,9.32,0,5.65-4.35,10.31-9.88,10.79-.4.23-.7.64-.76,1.14-.08.63.24,1.22.76,1.52,7-.49,12.55-6.33,12.55-13.46,0-5.07-2.81-9.48-6.96-11.79Z"/>
      <path class="cls-7" d="M68.99,55.4v-4.14l-.12-3.71c-.02-.1-.04-.2-.06-.3.04-1.42.73-2.76,1.86-3.64l-.06.03c.06-.03.12-.08.17-.12.02-.02.05-.04.07-.05.48-.41.62-1.11.3-1.69-.31-.57-.96-.82-1.56-.67-1.09.69-1.96,1.63-2.56,2.72-1.19-1.32-2.85-2.22-4.74-2.43h0c-.34.27-.59.67-.67,1.13-.1.57.09,1.12.44,1.53,1.97.25,3.55,1.65,4.07,3.49l.15,2.66h.03v3.86h-12.66c-1.93-1.51-4.29-2.49-6.84-2.77-.4.36-.64.88-.61,1.46.02.48.23.9.55,1.22,2.26.29,4.31,1.29,5.92,2.75h9s3.11,0,3.11,0h2.86c.74,0,1.33-.6,1.33-1.33Z"/>
      <path class="cls-7" d="M95.06,58.23l-1.27-2.38-.66-1.24-1.26-2.36-.75-1.4c.47-.2.95-.37,1.43-.52.34-.38.48-.91.33-1.43-.17-.59-.67-.99-1.24-1.07-.61.19-1.2.41-1.78.67l-1.32-2.47c.12,0,.25.01.37.01h3.08c.74,0,1.33-.6,1.33-1.33v-3.19c-.33-.31-.77-.5-1.26-.5-.57,0-1.07.26-1.41.66v1.7h-1.75c-1.55,0-2.81-1.26-2.81-2.81v-.32c0-1.08.61-2,1.5-2.47.15-.46.12-.98-.12-1.45-.25-.46-.66-.77-1.13-.9-.96.51-1.76,1.29-2.27,2.25l-2.35-4.41c-.23-.43-.68-.71-1.17-.71h-6.27c-.74,0-1.33.6-1.33,1.33s.6,1.33,1.33,1.33h5.47l2.26,4.25c-.29-.21-.6-.41-.93-.58-1.23-.64-2.61-.91-3.97-.81-.61.26-.97.93-.82,1.6.12.53.53.92,1.03,1.05.86-.06,1.74.11,2.52.52,2.08,1.09,3.03,3.58,2.2,5.77l-.2.54-1.29,2.66-1.23,2.31c.12.49.43.93.91,1.19.4.22.84.26,1.26.17l3.05-5.95c.36-.95.5-1.93.46-2.89l2.5,4.69c-.46.29-.9.61-1.33.94-.18.48-.11,1.04.25,1.47.43.52,1.14.66,1.73.41.2-.15.4-.32.61-.46l.75,1.4c-3.62,2.43-6.01,6.55-6.01,11.23,0,3.71,1.5,7.07,3.93,9.52.6.2,1.28.02,1.69-.51.3-.39.37-.87.26-1.3-1.99-1.97-3.23-4.69-3.23-7.71,0-3.66,1.82-6.9,4.61-8.86l.66,1.24,1.27,2.38,1.47,2.76c.24.45.7.71,1.18.71.21,0,.43-.05.63-.16.65-.35.89-1.15.55-1.8l-1.47-2.76Z"/>
    </g>
  </g>
</svg>