<?xml version="1.0" encoding="UTF-8"?>
<svg id="Layer_1" data-name="Layer 1" xmlns="http://www.w3.org/2000/svg" viewBox="0 0 366.28 305.38">
  <defs>
    <style>
      .cls-1 {
        letter-spacing: -.01em;
      }

      .cls-2 {
        font-family: UrbanistRoman-Bold, Urbanist;
        font-size: 23.99px;
        font-variation-settings: 'wght' 700;
        font-weight: 700;
      }

      .cls-2, .cls-3 {
        fill: #130044;
      }

      .cls-4 {
        letter-spacing: -.04em;
      }

      .cls-5 {
        letter-spacing: 0em;
      }
    </style>
  </defs>
  <path class="cls-3" d="M337.15,8.99c11.1,0,20.14,9.03,20.14,20.14v247.12c0,11.1-9.03,20.14-20.14,20.14H29.13c-11.1,0-20.14-9.03-20.14-20.14V29.13c0-11.1,9.03-20.14,20.14-20.14h308.02M337.15,0H29.13C13.11,0,0,13.11,0,29.13v247.12C0,292.27,13.11,305.38,29.13,305.38h308.02c16.02,0,29.13-13.11,29.13-29.13V29.13c0-16.02-13.11-29.13-29.13-29.13h0Z"/>
  <text class="cls-2" transform="translate(27.6 274.19)"><tspan class="cls-4" x="0" y="0">F</tspan><tspan x="10.71" y="0">am</tspan><tspan class="cls-5" x="46.39" y="0">i</tspan><tspan x="52.22" y="0">l</tspan><tspan class="cls-1" x="58.02" y="0">i</tspan><tspan x="63.55" y="0">ar</tspan></text>
  <polygon class="cls-3" points="338.69 262.6 330.04 262.6 330.04 253.95 324.38 253.95 324.38 262.6 315.73 262.6 315.73 268.27 324.38 268.27 324.38 276.92 330.04 276.92 330.04 268.27 338.69 268.27 338.69 262.6"/>
  <g id="mail">
    <path class="cls-3" d="M37.07,41c2.22-1.6,2.72-4.69,1.12-6.91-1.6-2.22-4.69-2.72-6.91-1.12-2.22,1.6-2.72,4.69-1.12,6.91.31.43.69.81,1.12,1.12-2.25,1.1-3.69,3.39-3.69,5.9v19.79c0,.91.74,1.65,1.65,1.65v8.24c0,.91.74,1.65,1.65,1.65s1.65-.74,1.65-1.65v-8.24h3.3v8.24c0,.91.74,1.65,1.65,1.65s1.65-.74,1.65-1.65v-8.24c.91,0,1.65-.74,1.65-1.65v-19.79c-.01-2.51-1.45-4.8-3.71-5.9ZM34.19,35.36c.91,0,1.65.74,1.65,1.65s-.74,1.65-1.65,1.65-1.65-.74-1.65-1.65.74-1.65,1.65-1.65ZM34.19,43.6c1.82,0,3.3,1.48,3.3,3.3v9.89h-6.6v-9.89c0-1.82,1.48-3.3,3.3-3.3ZM37.49,65.04h-6.6v-4.95h6.6v4.95ZM70.05,41c2.22-1.6,2.72-4.69,1.12-6.91-1.6-2.22-4.69-2.72-6.91-1.12-2.22,1.6-2.72,4.69-1.12,6.91.31.43.69.81,1.12,1.12-2.25,1.1-3.69,3.39-3.69,5.9v29.68c0,.91.74,1.65,1.65,1.65h9.89c.91,0,1.65-.74,1.65-1.65v-29.68c-.01-2.51-1.45-4.8-3.71-5.9ZM67.17,35.36c.91,0,1.65.74,1.65,1.65s-.74,1.65-1.65,1.65-1.65-.74-1.65-1.65.74-1.65,1.65-1.65ZM63.87,46.9c0-1.82,1.48-3.3,3.3-3.3s3.3,1.48,3.3,3.3v11.54h-6.6v-11.54ZM70.46,74.93h-1.65v-8.24c0-.91-.74-1.65-1.65-1.65s-1.65.74-1.65,1.65v8.24h-1.65v-13.19h6.6v13.19ZM53.56,50.89c2.22-1.6,2.72-4.69,1.12-6.91-1.6-2.22-4.69-2.72-6.91-1.12-2.22,1.6-2.72,4.69-1.12,6.91.31.43.69.81,1.12,1.12-2.25,1.1-3.69,3.39-3.69,5.9v9.89c0,.91.74,1.65,1.65,1.65v8.24c0,.91.74,1.65,1.65,1.65s1.65-.74,1.65-1.65v-8.24h3.3v8.24c0,.91.74,1.65,1.65,1.65s1.65-.74,1.65-1.65v-8.24c.91,0,1.65-.74,1.65-1.65v-9.89c-.01-2.51-1.45-4.8-3.71-5.9ZM50.68,45.25c.91,0,1.65.74,1.65,1.65s-.74,1.65-1.65,1.65-1.65-.74-1.65-1.65.74-1.65,1.65-1.65ZM50.68,53.5c1.82,0,3.3,1.48,3.3,3.3v3.3h-6.6v-3.3c0-1.82,1.48-3.3,3.3-3.3ZM53.98,65.04h-6.6v-1.65h6.6v1.65Z"/>
  </g>
</svg>