<?xml version="1.0" encoding="UTF-8"?>
<svg id="Layer_1" data-name="Layer 1" xmlns="http://www.w3.org/2000/svg" viewBox="0 0 366.28 305.38">
  <defs>
    <style>
      .cls-1 {
        letter-spacing: -.04em;
      }

      .cls-2 {
        letter-spacing: 0em;
      }

      .cls-3 {
        letter-spacing: 0em;
      }

      .cls-4 {
        letter-spacing: 0em;
      }

      .cls-5 {
        letter-spacing: .01em;
      }

      .cls-6 {
        fill: #5b1112;
      }

      .cls-7 {
        letter-spacing: -.04em;
      }

      .cls-8 {
        letter-spacing: 0em;
      }

      .cls-9, .cls-10 {
        fill: #fff;
      }

      .cls-11 {
        letter-spacing: -.02em;
      }

      .cls-12 {
        letter-spacing: 0em;
      }

      .cls-13 {
        letter-spacing: -.01em;
      }

      .cls-14 {
        letter-spacing: 0em;
      }

      .cls-15 {
        font-family: UrbanistRoman-Bold, Urbanist;
        font-variation-settings: 'wght' 700;
        font-weight: 700;
      }

      .cls-16 {
        letter-spacing: 0em;
      }

      .cls-17 {
        letter-spacing: -.02em;
      }

      .cls-18 {
        letter-spacing: -.01em;
      }

      .cls-19 {
        letter-spacing: 0em;
      }

      .cls-20 {
        letter-spacing: -.03em;
      }

      .cls-21 {
        letter-spacing: 0em;
      }

      .cls-22 {
        letter-spacing: 0em;
      }

      .cls-23 {
        letter-spacing: -.03em;
      }

      .cls-24 {
        letter-spacing: 0em;
      }

      .cls-10 {
        font-size: 16px;
      }

      .cls-25 {
        letter-spacing: -.02em;
      }

      .cls-26 {
        letter-spacing: -.03em;
      }

      .cls-27 {
        letter-spacing: -.01em;
      }

      .cls-28 {
        letter-spacing: -.03em;
      }

      .cls-29 {
        letter-spacing: -.05em;
      }

      .cls-30 {
        letter-spacing: 0em;
      }

      .cls-31 {
        letter-spacing: -.01em;
      }

      .cls-32 {
        letter-spacing: 0em;
      }

      .cls-33 {
        font-family: Urbanist-Regular, Urbanist;
        font-variation-settings: 'wght' 400;
      }

      .cls-34 {
        letter-spacing: 0em;
      }

      .cls-35 {
        fill: #130044;
      }
    </style>
  </defs>
  <rect class="cls-35" x="0" y="0" width="366.28" height="305.38" rx="29.13" ry="29.13"/>
  <path class="cls-6" d="M104.67,87.04s-.03,0-.04,0c0,0-.01,0-.02,0h.06Z"/>
  <path class="cls-6" d="M105.83,70.23s.01-.04.02-.06c0,0,0,0,0,0l-.02.07Z"/>
  <polygon class="cls-6" points="107.53 71.69 107.53 71.69 107.52 71.7 107.53 71.69"/>
  <path class="cls-6" d="M107.63,62.24s.02.04.03.07c0,0,0,0,0,0l-.03-.07Z"/>
  <g>
    <path class="cls-9" d="M51.92,67.53c-2.95,0-5.35,2.4-5.35,5.35s2.4,5.35,5.35,5.35,5.35-2.4,5.35-5.35-2.4-5.35-5.35-5.35ZM51.92,75c-1.17,0-2.12-.95-2.12-2.12s.95-2.12,2.12-2.12,2.12.95,2.12,2.12-.95,2.12-2.12,2.12Z"/>
    <path class="cls-9" d="M89.64,67.53c-2.95,0-5.35,2.4-5.35,5.35s2.4,5.35,5.35,5.35,5.35-2.4,5.35-5.35c0-2.95-2.4-5.35-5.35-5.35ZM89.64,75c-1.17,0-2.12-.95-2.12-2.12s.95-2.12,2.12-2.12,2.12.95,2.12,2.12-.95,2.12-2.12,2.12Z"/>
    <path class="cls-9" d="M96.24,40.36h-15.02v-3.14c0-2.85-2.32-5.17-5.17-5.17h-43.29c-2.85,0-5.17,2.32-5.17,5.17v35.7c0,.89.72,1.62,1.62,1.62h9s5.77,0,5.77,0c.89,0,1.61-.72,1.61-1.62,0-3.49,2.84-6.32,6.32-6.32s6.32,2.84,6.32,6.32c0,.89.72,1.62,1.62,1.62h21.85c.89,0,1.62-.72,1.62-1.62,0-3.49,2.84-6.32,6.32-6.32s6.32,2.84,6.32,6.32c0,.89.72,1.61,1.61,1.62h4.49s3.07,0,3.07,0c.89,0,1.61-.73,1.61-1.62v-22.05c0-5.79-4.71-10.51-10.51-10.51ZM77.99,71.29h-16.66c-.77-4.5-4.7-7.94-9.42-7.94s-8.65,3.44-9.42,7.94h-4.28s-3.03,0-3.03,0h-4.36v-27.77h35.6c.89,0,1.62-.72,1.62-1.62s-.72-1.62-1.62-1.62H30.82v-3.09c0-1.07.87-1.94,1.94-1.94h43.29c1.07,0,1.94.87,1.94,1.94v34.08h0ZM103.52,71.3h-1.45s-3.01,0-3.01,0c-.77-4.5-4.7-7.94-9.42-7.94-3.64,0-6.8,2.04-8.42,5.04v-24.81h15.02c4.01,0,7.28,3.26,7.28,7.28v20.44h0Z"/>
    <path class="cls-9" d="M93.14,46.16h-7.23c-.89,0-1.62.72-1.62,1.62v11.26c0,.89.72,1.62,1.62,1.62h14.45c.89,0,1.62-.72,1.62-1.62v-4.04c0-4.87-3.96-8.84-8.84-8.84ZM98.74,57.42h-11.22v-8.03h5.61c3.09,0,5.61,2.51,5.61,5.61v2.42Z"/>
  </g>
  <path class="cls-6" d="M109.28,46.18s-.03,0-.04,0c0,0-.01,0-.02,0h.06Z"/>
  <polygon class="cls-6" points="116.43 24.95 116.43 24.95 116.43 24.95 116.43 24.95"/>
  <path class="cls-6" d="M110.43,29.37s.01-.04.02-.06c0,0,0,0,0,0l-.02.07Z"/>
  <polygon class="cls-6" points="112.14 30.83 112.13 30.84 112.13 30.84 112.14 30.83"/>
  <path class="cls-9" d="M126.38,24.95h0c-.23-.23-.54-.37-.89-.37-.52,0-.97.31-1.16.76h0c-.26.61-.6,1.13-1.01,1.59,0-.12,0-.27,0-.41,0-1.81-.4-3.53-1.11-5.08-1.29-2.68-3.44-4.77-6.08-5.95l-.08-.03c-.15-.07-.32-.1-.5-.1-.7,0-1.26.57-1.26,1.26,0,.08,0,.15.02.22h0s0,.09,0,.14c0,2.02-.9,3.84-2.32,5.06h0c-.53.54-1.08,1.04-1.64,1.54-1.32,1.1-2.47,2.33-3.45,3.7l-.04.06c-1.11,1.79-1.76,3.97-1.76,6.3,0,1.15.16,2.25.46,3.3l-.02-.09c.77,3.17,2.72,5.79,5.34,7.43l.05.03c1.91,1.22,4.23,1.95,6.73,1.96h.01c.52,0,1.03-.04,1.53-.1,4.75-.7,8.61-3.94,10.18-8.28l.03-.09c.4-1.18.63-2.54.63-3.95,0-3.47-1.39-6.62-3.64-8.91ZM127,37.01h0c-1.27,3.54-4.36,6.13-8.1,6.67h-.06c-.36.05-.77.08-1.19.08-2,0-3.86-.58-5.42-1.58-2.11-1.33-3.65-3.4-4.25-5.85v-.07c-.24-.78-.37-1.68-.37-2.61,0-1.8.5-3.49,1.36-4.93.89-1.23,1.9-2.3,3.03-3.22l.03-.02c.6-.54,1.19-1.07,1.75-1.64,1.42-1.34,2.47-3.07,2.96-5.02l.02-.07c2.47,1.73,4.07,4.57,4.07,7.78,0,.97-.15,1.9-.42,2.78-.03.11-.05.24-.05.37,0,.7.56,1.26,1.26,1.26.17,0,.33-.03.48-.09,1.47-.61,2.68-1.57,3.58-2.78l.02-.02c1.14,1.62,1.82,3.64,1.82,5.82,0,1.1-.18,2.16-.5,3.16Z"/>
  <path class="cls-6" d="M112.24,21.39s.02.04.03.07c0,0,0,0,0,0l-.03-.07Z"/>
  <text class="cls-10" transform="translate(27.59 113.71)"><tspan class="cls-15"><tspan x="0" y="0">I</tspan><tspan class="cls-31" x="4.35" y="0">n</tspan><tspan class="cls-17" x="13.12" y="0">c</tspan><tspan class="cls-18" x="21.03" y="0">ê</tspan><tspan class="cls-24" x="29.8" y="0">n</tspan><tspan x="38.57" y="0">d</tspan><tspan class="cls-18" x="48.49" y="0">i</tspan><tspan class="cls-24" x="52.18" y="0">o</tspan><tspan x="60.98" y="0">, </tspan><tspan class="cls-1" x="68.86" y="0">r</tspan><tspan x="74.42" y="0">a</tspan><tspan class="cls-13" x="84.01" y="0">i</tspan><tspan x="87.7" y="0">o </tspan><tspan class="cls-11" x="100.5" y="0">o</tspan><tspan class="cls-14" x="109.09" y="0">u </tspan><tspan class="cls-29" x="121.54" y="0">e</tspan><tspan class="cls-11" x="129.64" y="0">x</tspan><tspan class="cls-25" x="138.82" y="0">p</tspan><tspan class="cls-16" x="148.42" y="0">los</tspan><tspan class="cls-31" x="167.84" y="0">ã</tspan><tspan x="177.26" y="0">o</tspan></tspan><tspan class="cls-33"><tspan class="cls-26" x="0" y="38.4">C</tspan><tspan class="cls-3" x="10.78" y="38.4">o</tspan><tspan class="cls-32" x="19.61" y="38.4">b</tspan><tspan class="cls-28" x="29.15" y="38.4">r</tspan><tspan x="34.34" y="38.4">e </tspan><tspan class="cls-8" x="47.11" y="38.4">o</tspan><tspan x="56.02" y="38.4">s </tspan><tspan class="cls-2" x="66.73" y="38.4">p</tspan><tspan class="cls-28" x="76.26" y="38.4">r</tspan><tspan class="cls-24" x="81.45" y="38.4">e</tspan><tspan class="cls-4" x="90.22" y="38.4">j</tspan><tspan x="93.65" y="38.4">uí</tspan><tspan class="cls-32" x="104.94" y="38.4">z</tspan><tspan class="cls-8" x="112.97" y="38.4">o</tspan><tspan class="cls-19" x="121.88" y="38.4">s </tspan><tspan class="cls-4" x="132.59" y="38.4">q</tspan><tspan class="cls-8" x="142.1" y="38.4">u</tspan><tspan x="150.3" y="38.4">e </tspan><tspan class="cls-20" x="163.08" y="38.4">v</tspan><tspan class="cls-2" x="170.88" y="38.4">e</tspan><tspan class="cls-34" x="179.73" y="38.4">n</tspan><tspan class="cls-24" x="188.41" y="38.4">h</tspan><tspan x="196.83" y="38.4">a a </tspan><tspan class="cls-12" x="223.1" y="38.4">s</tspan><tspan x="229.92" y="38.4">o</tspan><tspan class="cls-5" x="238.88" y="38.4">f</tspan><tspan class="cls-23" x="244.43" y="38.4">r</tspan><tspan class="cls-32" x="249.61" y="38.4">e</tspan><tspan x="258.47" y="38.4">r </tspan></tspan><tspan class="cls-33"><tspan class="cls-2" x="0" y="57.6">e</tspan><tspan x="8.86" y="57.6">m </tspan><tspan class="cls-4" x="26.91" y="57.6">c</tspan><tspan class="cls-32" x="34.96" y="57.6">o</tspan><tspan class="cls-19" x="43.84" y="57.6">n</tspan><tspan class="cls-8" x="52.42" y="57.6">s</tspan><tspan class="cls-31" x="59.23" y="57.6">e</tspan><tspan class="cls-4" x="68.01" y="57.6">q</tspan><tspan class="cls-8" x="77.52" y="57.6">u</tspan><tspan class="cls-2" x="85.72" y="57.6">ê</tspan><tspan class="cls-31" x="94.58" y="57.6">n</tspan><tspan class="cls-22" x="102.99" y="57.6">c</tspan><tspan class="cls-2" x="111.01" y="57.6">i</tspan><tspan x="113.97" y="57.6">a </tspan><tspan class="cls-8" x="127.1" y="57.6">d</tspan><tspan x="136.67" y="57.6">e </tspan><tspan class="cls-31" x="149.45" y="57.6">p</tspan><tspan class="cls-32" x="158.9" y="57.6">e</tspan><tspan class="cls-23" x="167.76" y="57.6">r</tspan><tspan class="cls-12" x="172.94" y="57.6">d</tspan><tspan x="182.51" y="57.6">as e </tspan><tspan class="cls-12" x="215.29" y="57.6">d</tspan><tspan x="224.86" y="57.6">a</tspan><tspan class="cls-24" x="234.16" y="57.6">n</tspan><tspan class="cls-12" x="242.57" y="57.6">o</tspan><tspan x="251.48" y="57.6">s </tspan></tspan><tspan class="cls-33"><tspan class="cls-31" x="0" y="76.8">m</tspan><tspan x="14.06" y="76.8">a</tspan><tspan class="cls-27" x="23.35" y="76.8">t</tspan><tspan class="cls-32" x="28.66" y="76.8">e</tspan><tspan class="cls-30" x="37.51" y="76.8">r</tspan><tspan class="cls-32" x="43.13" y="76.8">i</tspan><tspan x="46.09" y="76.8">a</tspan><tspan class="cls-12" x="55.38" y="76.8">i</tspan><tspan x="58.37" y="76.8">s </tspan><tspan class="cls-4" x="69.08" y="76.8">c</tspan><tspan x="77.13" y="76.8">au</tspan><tspan class="cls-8" x="94.68" y="76.8">s</tspan><tspan class="cls-31" x="101.5" y="76.8">a</tspan><tspan class="cls-8" x="110.63" y="76.8">do</tspan><tspan x="129.1" y="76.8">s </tspan><tspan class="cls-24" x="139.81" y="76.8">a</tspan><tspan x="148.95" y="76.8">o </tspan><tspan class="cls-3" x="161.75" y="76.8">o</tspan><tspan class="cls-24" x="170.57" y="76.8">b</tspan><tspan class="cls-2" x="180.04" y="76.8">j</tspan><tspan class="cls-27" x="183.49" y="76.8">et</tspan><tspan x="197.51" y="76.8">o </tspan></tspan><tspan class="cls-33"><tspan class="cls-8" x="0" y="96">s</tspan><tspan class="cls-31" x="6.82" y="96">e</tspan><tspan class="cls-30" x="15.59" y="96">g</tspan><tspan x="24.89" y="96">u</tspan><tspan class="cls-23" x="33.14" y="96">r</tspan><tspan class="cls-31" x="38.33" y="96">a</tspan><tspan class="cls-8" x="47.46" y="96">d</tspan><tspan x="57.03" y="96">o </tspan><tspan class="cls-31" x="69.83" y="96">p</tspan><tspan class="cls-32" x="79.29" y="96">o</tspan><tspan x="88.17" y="96">r </tspan><tspan class="cls-21" x="97.73" y="96">i</tspan><tspan class="cls-31" x="100.74" y="96">n</tspan><tspan class="cls-4" x="109.16" y="96">c</tspan><tspan class="cls-2" x="117.21" y="96">ê</tspan><tspan class="cls-24" x="126.06" y="96">n</tspan><tspan x="134.48" y="96">d</tspan><tspan class="cls-32" x="144.1" y="96">i</tspan><tspan class="cls-31" x="147.07" y="96">o</tspan><tspan x="155.87" y="96">, </tspan><tspan class="cls-28" x="162.92" y="96">r</tspan><tspan x="168.1" y="96">a</tspan><tspan class="cls-32" x="177.4" y="96">i</tspan><tspan x="180.36" y="96">o </tspan><tspan class="cls-24" x="193.16" y="96">o</tspan><tspan x="201.96" y="96">u </tspan></tspan><tspan class="cls-33"><tspan class="cls-7" x="0" y="115.2">e</tspan><tspan class="cls-31" x="8.3" y="115.2">x</tspan><tspan class="cls-22" x="16.66" y="115.2">p</tspan><tspan class="cls-12" x="26.14" y="115.2">los</tspan><tspan class="cls-31" x="44.84" y="115.2">ã</tspan><tspan x="53.98" y="115.2">o</tspan></tspan></text>
</svg>