<?xml version="1.0" encoding="UTF-8"?>
<svg id="Layer_1" data-name="Layer 1" xmlns="http://www.w3.org/2000/svg" viewBox="0 0 366.28 305.38">
  <defs>
    <style>
      .cls-1 {
        letter-spacing: 0em;
      }

      .cls-2 {
        letter-spacing: -.01em;
      }

      .cls-3 {
        letter-spacing: -.02em;
      }

      .cls-4 {
        letter-spacing: 0em;
      }

      .cls-5 {
        letter-spacing: 0em;
      }

      .cls-6 {
        letter-spacing: 0em;
      }

      .cls-7 {
        fill: #fff;
      }

      .cls-8 {
        letter-spacing: -.01em;
      }

      .cls-9 {
        letter-spacing: 0em;
      }

      .cls-10 {
        font-family: UrbanistRoman-Bold, Urbanist;
        font-size: 20px;
        font-variation-settings: 'wght' 700;
        font-weight: 700;
      }

      .cls-11 {
        letter-spacing: -.03em;
      }

      .cls-12 {
        letter-spacing: 0em;
      }

      .cls-13 {
        letter-spacing: -.01em;
      }

      .cls-14 {
        letter-spacing: -.01em;
      }

      .cls-15 {
        letter-spacing: 0em;
      }

      .cls-16 {
        letter-spacing: -.01em;
      }

      .cls-17 {
        letter-spacing: -.01em;
      }

      .cls-18 {
        letter-spacing: 0em;
      }

      .cls-19 {
        letter-spacing: 0em;
      }

      .cls-20 {
        letter-spacing: -.01em;
      }

      .cls-21 {
        letter-spacing: 0em;
      }

      .cls-22 {
        letter-spacing: 0em;
      }

      .cls-23 {
        font-family: Urbanist-Regular, Urbanist;
        font-size: 18px;
        font-variation-settings: 'wght' 400;
      }

      .cls-24 {
        letter-spacing: 0em;
      }

      .cls-25 {
        letter-spacing: -.05em;
      }

      .cls-26 {
        fill: #130044;
      }
    </style>
  </defs>
  <rect class="cls-26" x="0" y="0" width="366.28" height="305.38" rx="29.13" ry="29.13"/>
  <g>
    <path class="cls-7" d="M58,60.45h-6.22c.03-.31,0-.63-.08-.92.58-.36,1-.91,1.22-1.55,1,.38,2,.15,2.85-.69.77-.77,1-1.85.69-2.85,1.23-.31,2.08-1.46,2.08-2.77s-.85-2.46-2.08-2.77c.38-1,.15-2.08-.69-2.93s-1.77-.92-2.31-.85c-.23,0-.38.08-.62.15-.18-.59-.54-1.09-1.01-1.47-.02-.15-.08-.34-.15-.54,1.23-.31,2.08-1.46,2.08-2.77s-.85-2.46-2.08-2.77c.38-1,.15-2.08-.69-2.93-.85-.85-1.77-.92-2.31-.85-.23,0-.38.08-.62.15-.31-1.15-1.46-2.08-2.77-2.08s-2.46.92-2.77,2.16c-.15-.08-.38-.15-.62-.15-.62-.08-1.46,0-2.31.85-.92.92-1.08,2-.69,2.93-1.15.31-2.08,1.46-2.08,2.77,0,.13.01.25.03.37-.91.29-1.64,1-1.87,1.94-.92-.31-2-.23-2.93.69s-1.08,2-.69,2.93c-1.15.31-2.08,1.46-2.08,2.77s.85,2.46,2.08,2.77c-.38,1-.15,2,.69,2.85.92.85,2,1,2.93.69.25,1,1.01,1.74,2.02,1.99.35,1.36.51,2.23.15,2.86h-7.56c-1.08,0-2,.92-2,2v.69c0,1.08.92,2,2,2h.49l4.11,11.55h-5.07c-.46,0-.77.31-.77.77s.31.77.77.77h28.48c.46,0,.77-.31.77-.77s-.31-.77-.77-.77h-4.31l4.07-11.55h.54c1.08,0,2-.92,2.08-2v-.69c0-1.08-.92-2-2-2ZM50.24,60.45h-4.69c.17-.6.37-1.47.47-2.4.19.02.39.03.59.01.23,0,.46-.08.69-.15.31,1.23,1.39,2.08,2.77,2.08.06,0,.11,0,.17,0,.03.17.03.34,0,.47ZM52.61,47.13c.31-.31.69-.46,1-.54.38-.08.69.08,1,.38.92.92.23,1.77-.08,2.08-.23.23-.31.62-.15.92.08.23.38.46.92.38.08,0,.31-.08.38-.08.77,0,1.31.54,1.31,1.31,0,.69-.62,1.31-1.31,1.31-.15,0-.31-.08-.38-.08-.54-.08-.85.23-.92.38-.15.31-.08.69.15.92.23.23.92,1.15.08,2-.85.92-1.77.15-2-.08s-.62-.31-.92-.15c-.15.08-.46.38-.38.92,0,.08.08.23.08.38,0,.77-.54,1.31-1.31,1.31-.69,0-1.31-.62-1.31-1.31,0-.15.08-.31.08-.38.08-.54-.23-.85-.38-.92s-.23-.08-.38-.08c-.23,0-1.23.62-1.62.62-.31.08-.69-.08-1-.38-.77-.77-.31-1.54.15-2,.23-.23.31-.62.15-.92-.08-.23-.38-.46-.92-.38-.08,0-.31.08-.38.08-.15,0-.29-.03-.43-.07-.07-.1-.16-.18-.26-.24-.11-.06-.35-.28-.47-.4-.09-.18-.14-.38-.14-.6,0-.69.54-1.31,1.31-1.31.15,0,.31.08.38.08.54.08.85-.23.92-.38.15-.31.08-.69-.15-.92.13-.02.26-.04.38-.08,1.02-.23,1.79-.95,2.13-1.99.99.36,1.97.13,2.8-.71.14-.09.22-.21.29-.32.06-.07.11-.14.15-.2,0,0,0-.01.01-.02v.31c0,.15-.08.31-.08.38-.08.54.23.85.38.92.31.15.69.08.92-.15ZM39.76,39.2c.08,0,.31.08.38.08.54.15.85-.15.92-.38.15-.31.08-.69-.15-.92-.38-.46-1-1.23-.15-2.08.31-.31.62-.46,1-.38.31,0,.69.23,1,.54.23.23.62.31.92.15.23-.15.46-.38.38-.92-.08-.08-.08-.31-.08-.38,0-.69.54-1.31,1.31-1.31s1.31.62,1.23,1.39c0,.15-.08.31-.08.38-.08.54.15.77.38.92.31.15.69.08.92-.15.31-.31.69-.46,1-.54.38-.08.69.08,1,.38.92.92.23,1.77-.08,2.08-.23.23-.31.62-.15.92.08.15.38.46.92.38.08,0,.23-.08.38-.08.77,0,1.31.62,1.31,1.31s-.62,1.31-1.31,1.31c-.15,0-.31-.08-.38-.08-.54-.08-.85.23-.92.38-.15.31-.08.69.15.92.31.31.54.69.54,1,0,0,0,.01,0,.02,0,.02,0,.04,0,.06.01.05.02.1.02.14,0,.28-.15.52-.39.76,0,0-.01.01-.02.02h0c-.31.31-.62.38-1,.38-.31-.08-.69-.23-1-.54-.23-.23-.62-.31-.92-.15-.21.07-.41.32-.4.76,0,.07,0,.15.01.24.06.06.07.22.08.32,0,.76-.62,1.29-1.31,1.29-.21,0-.41-.06-.59-.16-.03-.03-.06-.05-.1-.07-.02,0-.03-.01-.05-.02-.34-.24-.56-.64-.56-1.06,0-.15.08-.31.08-.38.08-.54-.23-.85-.38-.92-.14-.07-.22-.08-.36-.08-.18-.01-.36.03-.51.13-.02,0-.03.02-.05.03-.31.31-.62.54-1,.54-.38.08-.69-.08-1-.38s-.46-.62-.38-1c0-.31.23-.69.54-1,.23-.23.31-.62.15-.92-.08-.23-.38-.46-.92-.38-.08,0-.31.08-.38.08-.69,0-1.31-.62-1.31-1.31s.54-1.31,1.31-1.31ZM36.45,54.9c0-.15.08-.31.08-.38.08-.54-.23-.85-.38-.92s-.23-.08-.38-.08c-.23,0-.38.08-.54.15-.54.46-1.39.77-2.08.08-.77-.77-.31-1.54.15-2,.23-.23.31-.62.15-.92-.08-.15-.38-.46-.92-.38-.08,0-.31.08-.38.08-.69,0-1.31-.62-1.31-1.31s.54-1.31,1.31-1.31c.15,0,.31.08.38.08.54.08.85-.23.92-.38.15-.31.08-.69-.15-.92-.31-.31-1-1.15-.23-2,.92-.85,1.77-.15,2.08.15.23.23.62.31.92.15.15-.08.46-.38.38-.92,0-.08-.08-.31-.08-.38,0-.62.46-1.15,1-1.31.08.08.23.23.31.31l.08.08s.06.04.09.07c.15.12.3.23.48.32.09.05.18.09.27.13.07.03.15.05.22.08-.36.99-.12,2.04.71,2.88.56.56,1.24.86,1.99.86.11,0,.21,0,.32-.01.21,0,.42-.06.63-.13.06.06.06.07.06.13.08.15.15.38.23.54.08,0,.08.08.08.08.15.31.38.54.69.77,0,.15,0,.23.08.38-.07.02-.13.05-.2.09-1.02.4-1.8,1.48-1.8,2.68,0,.53.14,1.03.39,1.46,0,0,0,0,0,0,0,0,0,0,0,0,.1.17.21.33.34.48.04.05.08.09.12.13-.08,0-.08.08-.15.15-.85.92-1.77.15-2-.08s-.62-.31-.92-.15c-.15.08-.46.38-.38.92.08.08.08.31.08.38,0,.77-.62,1.31-1.31,1.31s-1.31-.62-1.31-1.31ZM38.56,57.56c.95-.28,1.72-1.04,1.96-2.19,1,.38,2,.15,2.85-.69.1-.1.19-.21.27-.32.01,0,.02,0,.04.01-.38,1-.15,2,.69,2.85.05.05.1.09.15.14-.05,1.25-.38,2.49-.56,3.09h-5.19c.24-.88.08-1.85-.21-2.89ZM35.83,76.69l-2.31-6.85.62.54c.31.23,1.23.92,2.77.92.77,0,1.39-.38,1.92-.77.23-.23.46-.38.69-.46,1.23-.46,1.54-.38,2.16.23l3,3.16c.54.62,1.46,1,2.54.92.92,0,1.85-.38,2.69-1.08l1.15-1c.31-.23.69-.31,1.08-.08l.92.54-1.39,3.93h-15.86ZM53.57,71.36l-.8-.45c-.85-.54-2-.46-2.85.23l-1.15,1c-.38.31-1,.77-1.77.77-.54,0-1.08-.15-1.31-.46l-3-3.23c-1.31-1.23-2.39-1.15-3.85-.54-.38.15-.69.38-1,.62-.38.31-.77.54-1.08.54-1,0-1.54-.46-1.77-.62l-2.6-2.28-.64-1.8h24.02l-2.2,6.22ZM58.46,63.14c0,.23-.23.46-.46.46h-28.41c-.23,0-.46-.23-.46-.38v-.69c0-.23.23-.46.46-.46l28.41-.08c.23,0,.46.23.46.46v.69Z"/>
    <path class="cls-7" d="M45.3,43.59c1.69,0,3.08-1.39,3.08-3.08s-1.39-3.08-3.08-3.08-3.08,1.39-3.08,3.08c0,1.69,1.39,3.08,3.08,3.08ZM45.3,38.97c.85,0,1.54.69,1.54,1.54s-.69,1.54-1.54,1.54-1.54-.69-1.54-1.54c0-.85.69-1.54,1.54-1.54Z"/>
    <path class="cls-7" d="M40.83,49.21c0-1.69-1.39-3.08-3.08-3.08s-3.08,1.39-3.08,3.08,1.39,3.08,3.08,3.08,3.08-1.39,3.08-3.08ZM36.21,49.21c0-.85.69-1.54,1.54-1.54s1.54.69,1.54,1.54-.69,1.54-1.54,1.54-1.54-.69-1.54-1.54Z"/>
    <path class="cls-7" d="M46.99,51.52c0,1.69,1.39,3.08,3.08,3.08s3.08-1.39,3.08-3.08-1.39-3.08-3.08-3.08c-1.69,0-3.08,1.39-3.08,3.08ZM51.61,51.52c0,.85-.69,1.54-1.54,1.54s-1.54-.69-1.54-1.54.69-1.54,1.54-1.54,1.54.69,1.54,1.54Z"/>
  </g>
  <text class="cls-7" transform="translate(27.59 116.71)"><tspan class="cls-10"><tspan class="cls-25" x="0" y="0">M</tspan><tspan class="cls-8" x="17.64" y="0">o</tspan><tspan x="28.61" y="0">r</tspan><tspan class="cls-17" x="36.31" y="0">t</tspan><tspan x="43.25" y="0">e </tspan><tspan class="cls-20" x="59.24" y="0">a</tspan><tspan class="cls-3" x="71.02" y="0">c</tspan><tspan class="cls-8" x="80.84" y="0">i</tspan><tspan class="cls-18" x="85.45" y="0">d</tspan><tspan class="cls-14" x="97.7" y="0">e</tspan><tspan x="108.66" y="0">n</tspan><tspan class="cls-17" x="119.82" y="0">t</tspan><tspan class="cls-12" x="126.76" y="0">a</tspan><tspan x="138.79" y="0">l</tspan></tspan><tspan class="cls-23"><tspan class="cls-21" x="0" y="43.2">G</tspan><tspan x="13.71" y="43.2">a</tspan><tspan class="cls-11" x="24.17" y="43.2">r</tspan><tspan x="30" y="43.2">an</tspan><tspan class="cls-16" x="50.1" y="43.2">t</tspan><tspan x="56.07" y="43.2">e o </tspan><tspan class="cls-15" x="84.84" y="43.2">pa</tspan><tspan class="cls-5" x="105.76" y="43.2">g</tspan><tspan x="116.24" y="43.2">a</tspan><tspan class="cls-15" x="126.7" y="43.2">m</tspan><tspan class="cls-5" x="142.51" y="43.2">e</tspan><tspan x="152.48" y="43.2">n</tspan><tspan class="cls-16" x="162.13" y="43.2">t</tspan><tspan x="168.09" y="43.2">o </tspan><tspan class="cls-19" x="182.49" y="43.2">d</tspan><tspan x="193.26" y="43.2">a </tspan></tspan><tspan class="cls-23"><tspan class="cls-9" x="0" y="64.8">i</tspan><tspan class="cls-20" x="3.39" y="64.8">n</tspan><tspan class="cls-4" x="12.86" y="64.8">d</tspan><tspan class="cls-5" x="23.62" y="64.8">e</tspan><tspan x="33.59" y="64.8">ni</tspan><tspan class="cls-5" x="46.66" y="64.8">z</tspan><tspan class="cls-20" x="55.69" y="64.8">a</tspan><tspan class="cls-21" x="65.97" y="64.8">ç</tspan><tspan class="cls-15" x="75.02" y="64.8">ã</tspan><tspan x="85.3" y="64.8">o </tspan><tspan class="cls-5" x="99.7" y="64.8">e</tspan><tspan x="109.67" y="64.8">m </tspan><tspan class="cls-21" x="129.98" y="64.8">c</tspan><tspan x="139.03" y="64.8">a</tspan><tspan class="cls-19" x="149.49" y="64.8">s</tspan><tspan x="157.16" y="64.8">o </tspan><tspan class="cls-19" x="171.56" y="64.8">d</tspan><tspan x="182.32" y="64.8">e </tspan></tspan><tspan class="cls-23"><tspan class="cls-2" x="0" y="86.4">f</tspan><tspan class="cls-6" x="5.8" y="86.4">a</tspan><tspan class="cls-19" x="16.37" y="86.4">l</tspan><tspan class="cls-20" x="19.73" y="86.4">e</tspan><tspan class="cls-22" x="29.6" y="86.4">c</tspan><tspan class="cls-9" x="38.62" y="86.4">i</tspan><tspan class="cls-20" x="42.01" y="86.4">m</tspan><tspan class="cls-5" x="57.82" y="86.4">e</tspan><tspan x="67.79" y="86.4">n</tspan><tspan class="cls-16" x="77.44" y="86.4">t</tspan><tspan x="83.4" y="86.4">o </tspan><tspan class="cls-19" x="97.8" y="86.4">d</tspan><tspan x="108.57" y="86.4">o </tspan><tspan class="cls-4" x="122.97" y="86.4">s</tspan><tspan class="cls-20" x="130.63" y="86.4">e</tspan><tspan class="cls-21" x="140.51" y="86.4">g</tspan><tspan x="150.96" y="86.4">u</tspan><tspan class="cls-11" x="160.25" y="86.4">r</tspan><tspan class="cls-15" x="166.08" y="86.4">a</tspan><tspan class="cls-19" x="176.36" y="86.4">d</tspan><tspan x="187.13" y="86.4">o </tspan><tspan class="cls-15" x="201.53" y="86.4">p</tspan><tspan class="cls-5" x="212.16" y="86.4">o</tspan><tspan x="222.15" y="86.4">r </tspan></tspan><tspan class="cls-23"><tspan class="cls-15" x="0" y="108">a</tspan><tspan class="cls-1" x="10.28" y="108">c</tspan><tspan class="cls-5" x="19.3" y="108">i</tspan><tspan class="cls-19" x="22.63" y="108">d</tspan><tspan class="cls-24" x="33.39" y="108">e</tspan><tspan x="43.35" y="108">n</tspan><tspan class="cls-13" x="53" y="108">t</tspan><tspan class="cls-15" x="58.97" y="108">e</tspan><tspan x="68.84" y="108">.</tspan></tspan></text>
</svg>