<?xml version="1.0" encoding="UTF-8"?>
<svg id="Layer_1" data-name="Layer 1" xmlns="http://www.w3.org/2000/svg" viewBox="0 0 366.28 305.38">
  <defs>
    <style>
      .cls-1 {
        letter-spacing: -.04em;
      }

      .cls-2 {
        letter-spacing: 0em;
      }

      .cls-3 {
        letter-spacing: 0em;
      }

      .cls-4 {
        letter-spacing: -.02em;
      }

      .cls-5 {
        font-family: UrbanistRoman-Bold, Urbanist;
        font-size: 23.99px;
        font-variation-settings: 'wght' 700;
        font-weight: 700;
      }

      .cls-5, .cls-6 {
        fill: #130044;
      }

      .cls-7 {
        letter-spacing: -.01em;
      }

      .cls-8 {
        letter-spacing: 0em;
      }
    </style>
  </defs>
  <path class="cls-6" d="M337.15,8.99c11.1,0,20.14,9.03,20.14,20.14v247.12c0,11.1-9.03,20.14-20.14,20.14H29.13c-11.1,0-20.14-9.03-20.14-20.14V29.13c0-11.1,9.03-20.14,20.14-20.14h308.02M337.15,0H29.13C13.11,0,0,13.11,0,29.13v247.12C0,292.27,13.11,305.38,29.13,305.38h308.02c16.02,0,29.13-13.11,29.13-29.13V29.13C366.28,13.11,353.18,0,337.15,0h0Z"/>
  <text class="cls-5" transform="translate(27.59 274.19)"><tspan class="cls-1" x="0" y="0">R</tspan><tspan class="cls-4" x="13.54" y="0">o</tspan><tspan class="cls-2" x="26.42" y="0">u</tspan><tspan class="cls-8" x="39.39" y="0">b</tspan><tspan x="54.02" y="0">o e </tspan><tspan class="cls-3" x="92.38" y="0">f</tspan><tspan x="101.23" y="0">ur</tspan><tspan class="cls-7" x="123.37" y="0">t</tspan><tspan x="131.7" y="0">o</tspan></text>
  <polygon class="cls-6" points="338.69 262.6 330.04 262.6 330.04 253.95 324.38 253.95 324.38 262.6 315.73 262.6 315.73 268.27 324.38 268.27 324.38 276.92 330.04 276.92 330.04 268.27 338.69 268.27 338.69 262.6"/>
  <g>
    <path class="cls-6" d="M46.07,72.46c0-.64-.52-1.15-1.15-1.15h-2.31c-.64,0-1.15.52-1.15,1.15s.52,1.15,1.15,1.15h2.31c.64,0,1.15-.52,1.15-1.15Z"/>
    <path class="cls-6" d="M33.86,75.92h-.49c-1.91,0-3.46-1.55-3.46-3.46v-9.22c0-.64-.52-1.15-1.15-1.15s-1.15.52-1.15,1.15v9.22c0,3.19,2.59,5.77,5.77,5.77h.49c.64,0,1.15-.52,1.15-1.15s-.52-1.15-1.15-1.15Z"/>
    <path class="cls-6" d="M58.77,69.49c-.64,0-1.15.52-1.15,1.15v1.81c0,1.91-1.55,3.46-3.46,3.46h-9.03c-.64,0-1.15.52-1.15,1.15s.52,1.15,1.15,1.15h9.03c3.19,0,5.77-2.59,5.77-5.77v-1.81c0-.64-.52-1.15-1.15-1.15Z"/>
    <path class="cls-6" d="M58.77,49.45c-.64,0-1.15.52-1.15,1.15v11.1c0,.64.52,1.15,1.15,1.15s1.15-.52,1.15-1.15v-11.1c0-.64-.52-1.15-1.15-1.15Z"/>
    <path class="cls-6" d="M28.75,53.16c.64,0,1.15-.52,1.15-1.15v-14.19c0-1.91,1.55-3.46,3.46-3.46h.08c.64,0,1.15-.52,1.15-1.15s-.52-1.15-1.15-1.15h-.08c-3.19,0-5.77,2.59-5.77,5.77v14.19c0,.64.52,1.15,1.15,1.15Z"/>
    <path class="cls-6" d="M54.15,32.04h-9.17c-.64,0-1.15.52-1.15,1.15s.52,1.15,1.15,1.15h2.68l-1.15,2.31h-5.5l-.09-.19c-.32-.51-.96-.71-1.51-.44-.56.28-.78.94-.55,1.5l.4.8c.2.39.6.64,1.03.64h6.93c.44,0,.84-.25,1.03-.64l1.99-3.98h3.91c1.91,0,3.46,1.55,3.46,3.46v2.28c0,.64.52,1.15,1.15,1.15s1.15-.52,1.15-1.15v-2.28c0-3.19-2.59-5.77-5.77-5.77Z"/>
  </g>
</svg>