<?xml version="1.0" encoding="UTF-8"?>
<svg id="Layer_1" data-name="Layer 1" xmlns="http://www.w3.org/2000/svg" viewBox="0 0 366.28 305.38">
  <defs>
    <style>
      .cls-1 {
        letter-spacing: 0em;
      }

      .cls-2 {
        letter-spacing: 0em;
      }

      .cls-3 {
        letter-spacing: -.05em;
      }

      .cls-4 {
        letter-spacing: 0em;
      }

      .cls-5 {
        letter-spacing: -.01em;
      }

      .cls-6 {
        font-family: UrbanistRoman-Bold, Urbanist;
        font-size: 23.99px;
        font-variation-settings: 'wght' 700;
        font-weight: 700;
      }

      .cls-6, .cls-7 {
        fill: #130044;
      }

      .cls-8 {
        letter-spacing: -.02em;
      }

      .cls-9 {
        letter-spacing: -.01em;
      }

      .cls-10 {
        letter-spacing: 0em;
      }
    </style>
  </defs>
  <path d="M337.15,8.99c11.1,0,20.14,9.03,20.14,20.14v247.12c0,11.1-9.03,20.14-20.14,20.14H29.13c-11.1,0-20.14-9.03-20.14-20.14V29.13c0-11.1,9.03-20.14,20.14-20.14h308.02M337.15,0H29.13C13.11,0,0,13.11,0,29.13v247.12C0,292.27,13.11,305.38,29.13,305.38h308.02c16.02,0,29.13-13.11,29.13-29.13V29.13C366.28,13.11,353.18,0,337.15,0h0Z"/>
  <text class="cls-6" transform="translate(27.59 244.18)"><tspan class="cls-3" x="0" y="0">Á</tspan><tspan class="cls-8" x="16.29" y="0">g</tspan><tspan class="cls-1" x="30.62" y="0">u</tspan><tspan x="43.34" y="0">a, luz e </tspan><tspan class="cls-5" x="125.34" y="0">g</tspan><tspan x="139.77" y="0">ás </tspan><tspan class="cls-8" x="0" y="28.78">c</tspan><tspan x="11.86" y="28.78">a</tspan><tspan class="cls-9" x="26.23" y="28.78">n</tspan><tspan class="cls-4" x="39.38" y="28.78">a</tspan><tspan x="53.8" y="28.78">li</tspan><tspan class="cls-5" x="65.41" y="28.78">z</tspan><tspan class="cls-2" x="77.3" y="28.78">a</tspan><tspan class="cls-10" x="91.43" y="28.78">d</tspan><tspan x="106.12" y="28.78">o</tspan></text>
  <polygon class="cls-7" points="338.69 262.6 330.04 262.6 330.04 253.95 324.38 253.95 324.38 262.6 315.73 262.6 315.73 268.27 324.38 268.27 324.38 276.92 330.04 276.92 330.04 268.27 338.69 268.27 338.69 262.6"/>
  <path class="cls-7" d="M56.91,69.63h-12.51c-.65,0-1.17.53-1.17,1.17h0v3.13h0c0,.32.13.62.34.83h0l3.13,3.13c.21.21.5.34.83.34h6.26c.32,0,.62-.13.83-.34l3.13-3.13c.21-.21.34-.51.34-.83h0v-3.13c0-.65-.53-1.17-1.17-1.17h0ZM55.74,73.44l-2.44,2.44h-5.28l-2.44-2.44v-1.47h10.17v1.47ZM64.66,40.5c-2.86-4.87-7.95-8.15-13.83-8.46h-.04s-.1,0-.1,0c-5.88.26-10.96,3.44-13.85,8.13l-.04.07c-1.75,2.52-2.8,5.64-2.8,9.01v.03h0c.27,3.45,1.39,6.59,3.15,9.28l-.05-.08c.5.86,1.03,1.7,1.56,2.55,1.07,1.58,2.1,3.4,2.97,5.3l.1.24c.18.43.6.72,1.08.72h0c.16,0,.31-.03.45-.09h0c.43-.18.72-.59.72-1.08,0-.16-.03-.32-.09-.46h0c-1.03-2.27-2.11-4.2-3.34-6.02l.09.15c-.52-.82-1.03-1.65-1.52-2.49-1.54-2.29-2.54-5.05-2.78-8.04v-.06c.02-2.88.92-5.54,2.45-7.74l-.03.05c2.51-4.11,6.87-6.88,11.89-7.13h.04s.09,0,.09,0c5.09.3,9.45,3.15,11.86,7.28l.04.07c1.42,2.14,2.27,4.78,2.27,7.61,0,.09,0,.19,0,.28h0c-.35,2.99-1.38,5.71-2.94,8.04l.04-.07c-.45.77-.93,1.52-1.4,2.28-1.1,1.64-2.18,3.53-3.11,5.5l-.11.27c-.06.14-.1.3-.1.46,0,.65.53,1.17,1.17,1.17.48,0,.89-.28,1.07-.69h0c.99-2.13,2.01-3.91,3.15-5.61l-.09.15c.48-.77.97-1.55,1.43-2.33,1.7-2.57,2.85-5.65,3.21-8.97v-.09c.01-.14.02-.31.02-.47,0-3.26-.98-6.3-2.66-8.82l.04.06h0ZM48.6,39.36c-.19-.41-.6-.69-1.07-.69-.17,0-.34.04-.49.1h0c-3.62,2.1-6.19,5.66-6.92,9.86v.08c-.02.06-.03.12-.03.19,0,.58.42,1.06.97,1.16h0c.06.01.12.02.19.02h0c.58,0,1.06-.42,1.15-.97h0c.62-3.5,2.68-6.41,5.53-8.17l.05-.03c.41-.19.69-.6.69-1.07,0-.18-.04-.34-.11-.49h0s0,0,0,0ZM28.24,34.32l6.26,3.13c.15.08.33.12.52.12.65,0,1.17-.53,1.17-1.17,0-.46-.26-.85-.64-1.05h0s-6.26-3.13-6.26-3.13c-.15-.08-.33-.12-.52-.12-.65,0-1.17.53-1.17,1.17,0,.46.26.85.64,1.05h0s0,0,0,0ZM66.3,37.57h0c.19,0,.37-.05.53-.13h0s6.26-3.12,6.26-3.12c.39-.2.65-.59.65-1.05,0-.65-.53-1.17-1.17-1.17-.19,0-.37.05-.53.13h0s-6.26,3.12-6.26,3.12c-.39.2-.65.59-.65,1.05,0,.65.52,1.17,1.17,1.17h0ZM73.08,63.5l-6.26-3.13c-.15-.08-.33-.12-.52-.12-.65,0-1.17.53-1.17,1.17,0,.45.26.85.63,1.04h0s6.26,3.13,6.26,3.13c.15.08.33.13.52.13h0c.65,0,1.17-.53,1.17-1.17,0-.46-.26-.85-.64-1.04h0s0,0,0,0ZM34.66,60.36l-6.12,2.86c-.4.19-.68.6-.68,1.06,0,.65.53,1.17,1.17,1.17h0c.18,0,.35-.04.5-.11h0s6.12-2.86,6.12-2.86c.41-.19.68-.6.68-1.06,0-.65-.53-1.17-1.17-1.17-.18,0-.35.04-.51.12h0ZM28.77,50.08h1.56c.65,0,1.17-.53,1.17-1.17s-.53-1.17-1.17-1.17h-1.56c-.65,0-1.17.53-1.17,1.17s.53,1.17,1.17,1.17h0ZM72.55,47.74h-1.56c-.65,0-1.17.53-1.17,1.17s.53,1.17,1.17,1.17h1.56c.65,0,1.17-.53,1.17-1.17s-.53-1.17-1.17-1.17h0Z"/>
</svg>