<?xml version="1.0" encoding="UTF-8"?>
<svg id="Layer_1" data-name="Layer 1" xmlns="http://www.w3.org/2000/svg" viewBox="0 0 366.28 305.38">
  <defs>
    <style>
      .cls-1 {
        letter-spacing: -.01em;
      }

      .cls-2 {
        font-family: UrbanistRoman-Bold, Urbanist;
        font-size: 20px;
        font-variation-settings: 'wght' 700;
        font-weight: 700;
      }

      .cls-2, .cls-3 {
        fill: #130044;
      }

      .cls-4 {
        letter-spacing: -.01em;
      }

      .cls-5 {
        letter-spacing: -.05em;
      }
    </style>
  </defs>
  <path class="cls-3" d="M337.15,8.99c11.1,0,20.14,9.03,20.14,20.14v247.12c0,11.1-9.03,20.14-20.14,20.14H29.13c-11.1,0-20.13-9.03-20.13-20.14V29.13c0-11.1,9.03-20.14,20.13-20.14h308.02M337.15,0H29.13C13.11,0,0,13.11,0,29.13v247.12c0,16.02,13.11,29.13,29.13,29.13h308.02c16.02,0,29.13-13.11,29.13-29.13V29.13C366.28,13.11,353.18,0,337.15,0h0Z"/>
  <text class="cls-2" transform="translate(27.59 271.2)"><tspan class="cls-5" x="0" y="0">M</tspan><tspan class="cls-1" x="17.64" y="0">o</tspan><tspan x="28.61" y="0">r</tspan><tspan class="cls-4" x="36.31" y="0">t</tspan><tspan x="43.25" y="0">e</tspan></text>
  <polygon class="cls-3" points="338.69 262.6 330.04 262.6 330.04 253.95 324.38 253.95 324.38 262.6 315.73 262.6 315.73 268.27 324.38 268.27 324.38 276.92 330.04 276.92 330.04 268.27 338.69 268.27 338.69 262.6"/>
  <path class="cls-3" d="M76.66,36.23c-2.7-2.7-6.28-4.18-10.11-4.19-3.82,0-7.41,1.49-10.11,4.19l-2.23,2.23-2.23-2.23c-2.7-2.7-6.29-4.19-10.11-4.19-3.82,0-7.4,1.49-10.1,4.19-2.7,2.7-4.19,6.3-4.19,10.13s1.49,7.38,4.19,10.08l21.34,21.34c.29.29.69.46,1.1.46s.8-.16,1.1-.46l21.34-21.34c2.7-2.7,4.19-6.29,4.19-10.11s-1.49-7.41-4.19-10.11ZM77.73,46.33c0,2.98-1.16,5.79-3.27,7.9l-20.23,20.23-20.23-20.24c-2.11-2.11-3.27-4.9-3.27-7.87s1.16-5.81,3.27-7.92c2.11-2.11,4.91-3.27,7.89-3.27h0c2.99,0,5.79,1.16,7.9,3.27l3.33,3.33c.59.59,1.62.59,2.21,0l3.33-3.33c2.11-2.11,4.91-3.27,7.91-3.27,2.98,0,5.78,1.17,7.89,3.27,2.11,2.11,3.27,4.92,3.27,7.9Z"/>
</svg>