<?xml version="1.0" encoding="UTF-8"?>
<svg id="Layer_1" data-name="Layer 1" xmlns="http://www.w3.org/2000/svg" viewBox="0 0 366.28 305.38">
  <defs>
    <style>
      .cls-1 {
        letter-spacing: 0em;
      }

      .cls-2 {
        letter-spacing: -.04em;
      }

      .cls-3 {
        letter-spacing: 0em;
      }

      .cls-4 {
        fill: #fff;
      }

      .cls-5 {
        letter-spacing: -.01em;
      }

      .cls-6 {
        letter-spacing: 0em;
      }

      .cls-7 {
        letter-spacing: -.04em;
      }

      .cls-8 {
        letter-spacing: -.03em;
      }

      .cls-9 {
        letter-spacing: 0em;
      }

      .cls-10 {
        letter-spacing: -.03em;
      }

      .cls-11 {
        letter-spacing: -.03em;
      }

      .cls-12 {
        letter-spacing: -.03em;
      }

      .cls-13 {
        letter-spacing: 0em;
      }

      .cls-14 {
        letter-spacing: -.01em;
      }

      .cls-15 {
        letter-spacing: -.02em;
      }

      .cls-16 {
        letter-spacing: 0em;
      }

      .cls-17 {
        letter-spacing: 0em;
      }

      .cls-18 {
        letter-spacing: -.02em;
      }

      .cls-19 {
        letter-spacing: -.03em;
      }

      .cls-20 {
        letter-spacing: -.01em;
      }

      .cls-21 {
        letter-spacing: 0em;
      }

      .cls-22 {
        letter-spacing: 0em;
      }

      .cls-23 {
        letter-spacing: 0em;
      }

      .cls-24 {
        letter-spacing: -.01em;
      }

      .cls-25 {
        letter-spacing: 0em;
      }

      .cls-26 {
        letter-spacing: 0em;
      }

      .cls-27 {
        letter-spacing: 0em;
      }

      .cls-28 {
        font-family: Urbanist-Regular, Urbanist;
        font-size: 18px;
        font-variation-settings: 'wght' 400;
      }

      .cls-29 {
        letter-spacing: 0em;
      }

      .cls-30 {
        letter-spacing: 0em;
      }

      .cls-31 {
        letter-spacing: 0em;
      }

      .cls-32 {
        fill: #130044;
      }

      .cls-33 {
        font-family: UrbanistRoman-Bold, Urbanist;
        font-size: 22px;
        font-variation-settings: 'wght' 700;
        font-weight: 700;
      }
    </style>
  </defs>
  <rect class="cls-32" x="0" width="366.28" height="305.38" rx="29.13" ry="29.13"/>
  <text class="cls-4" transform="translate(27.59 118.21)"><tspan class="cls-33"><tspan class="cls-18" x="0" y="0">D</tspan><tspan x="14.44" y="0">a</tspan><tspan class="cls-30" x="27.62" y="0">n</tspan><tspan class="cls-21" x="39.68" y="0">o</tspan><tspan x="51.83" y="0">s </tspan><tspan class="cls-31" x="66.67" y="0">fí</tspan><tspan class="cls-5" x="79.68" y="0">si</tspan><tspan class="cls-18" x="94.06" y="0">c</tspan><tspan class="cls-21" x="104.94" y="0">o</tspan><tspan x="117.09" y="0">s </tspan><tspan class="cls-30" x="131.93" y="0">a</tspan><tspan x="144.89" y="0">o </tspan><tspan class="cls-23" x="162.49" y="0">i</tspan><tspan class="cls-30" x="167.73" y="0">m</tspan><tspan class="cls-7" x="187.05" y="0">óv</tspan><tspan class="cls-15" x="210.6" y="0">e</tspan><tspan class="cls-16" x="222.5" y="0">l</tspan></tspan><tspan class="cls-28"><tspan class="cls-19" x="0" y="43.2">C</tspan><tspan class="cls-26" x="12.13" y="43.2">o</tspan><tspan class="cls-24" x="22.06" y="43.2">b</tspan><tspan class="cls-3" x="32.71" y="43.2">e</tspan><tspan class="cls-27" x="42.67" y="43.2">rtu</tspan><tspan class="cls-12" x="64.6" y="43.2">r</tspan><tspan x="70.43" y="43.2">a </tspan><tspan class="cls-24" x="85.21" y="43.2">p</tspan><tspan x="95.85" y="43.2">a</tspan><tspan class="cls-12" x="106.31" y="43.2">r</tspan><tspan x="112.14" y="43.2">a </tspan><tspan class="cls-6" x="126.92" y="43.2">i</tspan><tspan class="cls-24" x="130.31" y="43.2">n</tspan><tspan class="cls-25" x="139.78" y="43.2">c</tspan><tspan class="cls-3" x="148.83" y="43.2">ê</tspan><tspan class="cls-17" x="158.8" y="43.2">n</tspan><tspan x="168.26" y="43.2">d</tspan><tspan class="cls-3" x="179.09" y="43.2">i</tspan><tspan class="cls-24" x="182.42" y="43.2">o</tspan><tspan x="192.32" y="43.2">, </tspan><tspan class="cls-25" x="200.26" y="43.2">q</tspan><tspan class="cls-22" x="210.96" y="43.2">u</tspan><tspan class="cls-17" x="220.18" y="43.2">e</tspan><tspan class="cls-22" x="230.06" y="43.2">d</tspan><tspan x="240.82" y="43.2">a </tspan></tspan><tspan class="cls-28"><tspan class="cls-22" x="0" y="64.8">d</tspan><tspan x="10.76" y="64.8">e </tspan><tspan class="cls-12" x="25.14" y="64.8">r</tspan><tspan x="30.97" y="64.8">a</tspan><tspan class="cls-3" x="41.43" y="64.8">i</tspan><tspan x="44.76" y="64.8">o (</tspan><tspan class="cls-22" x="64.94" y="64.8">d</tspan><tspan class="cls-3" x="75.71" y="64.8">e</tspan><tspan x="85.67" y="64.8">nt</tspan><tspan class="cls-8" x="101.53" y="64.8">r</tspan><tspan x="107.36" y="64.8">o </tspan><tspan class="cls-22" x="121.76" y="64.8">d</tspan><tspan x="132.52" y="64.8">o </tspan><tspan class="cls-20" x="146.92" y="64.8">t</tspan><tspan class="cls-3" x="152.89" y="64.8">er</tspan><tspan class="cls-12" x="169.2" y="64.8">r</tspan><tspan class="cls-3" x="175.03" y="64.8">e</tspan><tspan class="cls-24" x="184.99" y="64.8">n</tspan><tspan x="194.46" y="64.8">o </tspan><tspan class="cls-22" x="208.86" y="64.8">d</tspan><tspan x="219.63" y="64.8">o </tspan></tspan><tspan class="cls-28"><tspan class="cls-6" x="0" y="86.4">i</tspan><tspan class="cls-24" x="3.39" y="86.4">m</tspan><tspan class="cls-11" x="19.21" y="86.4">óv</tspan><tspan class="cls-26" x="37.58" y="86.4">e</tspan><tspan x="47.48" y="86.4">l) </tspan><tspan class="cls-22" x="61.01" y="86.4">,</tspan><tspan class="cls-2" x="64.56" y="86.4">e</tspan><tspan class="cls-17" x="73.9" y="86.4">x</tspan><tspan class="cls-1" x="83.3" y="86.4">p</tspan><tspan class="cls-22" x="93.97" y="86.4">los</tspan><tspan class="cls-24" x="115.01" y="86.4">ão</tspan><tspan x="135.19" y="86.4">, </tspan><tspan class="cls-10" x="143.13" y="86.4">v</tspan><tspan class="cls-29" x="151.9" y="86.4">e</tspan><tspan class="cls-24" x="161.86" y="86.4">n</tspan><tspan class="cls-22" x="171.33" y="86.4">d</tspan><tspan class="cls-17" x="182.1" y="86.4">a</tspan><tspan class="cls-10" x="192.37" y="86.4">v</tspan><tspan class="cls-9" x="201.15" y="86.4">a</tspan><tspan x="211.72" y="86.4">l, </tspan></tspan><tspan class="cls-28"><tspan class="cls-22" x="0" y="108">de</tspan><tspan x="20.75" y="108">s</tspan><tspan class="cls-17" x="28.48" y="108">m</tspan><tspan class="cls-3" x="44.3" y="108">o</tspan><tspan class="cls-8" x="54.29" y="108">r</tspan><tspan class="cls-3" x="60.12" y="108">o</tspan><tspan class="cls-17" x="70.11" y="108">n</tspan><tspan x="79.58" y="108">a</tspan><tspan class="cls-24" x="90.04" y="108">m</tspan><tspan class="cls-29" x="105.85" y="108">e</tspan><tspan x="115.81" y="108">n</tspan><tspan class="cls-14" x="125.46" y="108">t</tspan><tspan class="cls-17" x="131.43" y="108">o</tspan><tspan x="141.33" y="108">, </tspan><tspan class="cls-6" x="149.26" y="108">i</tspan><tspan x="152.66" y="108">nu</tspan><tspan class="cls-24" x="171.59" y="108">n</tspan><tspan class="cls-22" x="181.06" y="108">d</tspan><tspan class="cls-17" x="191.83" y="108">a</tspan><tspan class="cls-25" x="202.1" y="108">ç</tspan><tspan class="cls-17" x="211.16" y="108">ão</tspan><tspan x="231.34" y="108">, </tspan></tspan><tspan class="cls-28"><tspan class="cls-9" x="0" y="129.6">a</tspan><tspan class="cls-22" x="10.57" y="129.6">l</tspan><tspan class="cls-17" x="13.93" y="129.6">a</tspan><tspan class="cls-3" x="24.21" y="129.6">g</tspan><tspan x="34.69" y="129.6">a</tspan><tspan class="cls-24" x="45.15" y="129.6">m</tspan><tspan class="cls-29" x="60.97" y="129.6">e</tspan><tspan class="cls-13" x="70.93" y="129.6">n</tspan><tspan class="cls-20" x="80.58" y="129.6">t</tspan><tspan class="cls-17" x="86.54" y="129.6">o</tspan><tspan x="96.44" y="129.6">, </tspan><tspan class="cls-22" x="104.38" y="129.6">de</tspan><tspan x="125.13" y="129.6">s</tspan><tspan class="cls-20" x="132.87" y="129.6">t</tspan><tspan class="cls-26" x="138.83" y="129.6">e</tspan><tspan x="148.73" y="129.6">l</tspan><tspan class="cls-24" x="152.15" y="129.6">h</tspan><tspan x="161.62" y="129.6">a</tspan><tspan class="cls-17" x="172.08" y="129.6">m</tspan><tspan class="cls-3" x="187.89" y="129.6">e</tspan><tspan x="197.85" y="129.6">n</tspan><tspan class="cls-20" x="207.5" y="129.6">t</tspan><tspan x="213.47" y="129.6">o (</tspan><tspan class="cls-24" x="233.66" y="129.6">p</tspan><tspan class="cls-3" x="244.29" y="129.6">o</tspan><tspan x="254.28" y="129.6">r </tspan></tspan><tspan class="cls-28"><tspan class="cls-11" x="0" y="151.2">v</tspan><tspan class="cls-3" x="8.78" y="151.2">e</tspan><tspan x="18.74" y="151.2">n</tspan><tspan class="cls-14" x="28.39" y="151.2">t</tspan><tspan x="34.35" y="151.2">o </tspan><tspan class="cls-17" x="48.75" y="151.2">o</tspan><tspan x="58.65" y="151.2">u g</tspan><tspan class="cls-8" x="82.84" y="151.2">r</tspan><tspan x="88.67" y="151.2">ani</tspan><tspan class="cls-3" x="112.19" y="151.2">z</tspan><tspan x="121.23" y="151.2">o).</tspan></tspan></text>
  <g>
    <path class="cls-4" d="M67.69,37.3c-.13-.12-.3-.2-.49-.2-.28,0-.53.17-.64.42h0c-.14.34-.33.62-.56.87h0c0-.07,0-.15,0-.23,0-1.01-.22-1.96-.63-2.82l.02.04c-.7-1.47-1.89-2.62-3.34-3.27l-.04-.02c-.08-.04-.18-.06-.27-.06-.38,0-.69.31-.69.69,0,.04,0,.08.01.12h0s0,.05,0,.08c0,1.11-.49,2.1-1.27,2.78h0c-.29.3-.59.57-.9.85-.73.6-1.36,1.28-1.89,2.03l-.02.03c-.61.98-.97,2.18-.97,3.45,0,.63.09,1.24.25,1.81v-.05c.41,1.74,1.48,3.18,2.92,4.07l.03.02c1.05.67,2.32,1.07,3.69,1.08h0c.29,0,.58-.02.86-.06h-.03c2.61-.38,4.73-2.16,5.59-4.54l.02-.05c.22-.65.34-1.39.34-2.17,0-1.9-.76-3.63-2-4.89h0s0,0,0,0ZM68.03,43.91c-.7,1.94-2.39,3.36-4.44,3.66h-.03c-.2.03-.42.04-.65.04-1.1,0-2.13-.32-2.99-.88h.02c-1.16-.71-2.01-1.85-2.34-3.2v-.04c-.13-.43-.2-.92-.2-1.43,0-1,.28-1.93.76-2.73v.02c.48-.68,1.03-1.26,1.65-1.77h.02c.33-.31.65-.6.96-.91.78-.74,1.35-1.69,1.62-2.76v-.04c1.36.95,2.24,2.51,2.24,4.27,0,.54-.08,1.07-.24,1.56v-.04c0,.06-.02.13-.02.2,0,.38.31.69.69.69.09,0,.18-.02.26-.05h0c.81-.33,1.47-.86,1.97-1.52h0c.62.88,1,1.98,1,3.18,0,.62-.1,1.21-.29,1.77v-.04s.01,0,.01,0Z"/>
    <g>
      <path class="cls-4" d="M65.84,61.69h-8.27v9.3h8.27v-9.3ZM63.78,68.93h-4.14v-5.17h4.14v5.17Z"/>
      <path class="cls-4" d="M64.74,34.81l.17,2.07h6.11v18.61h-1.89c-.11-.02-.23-.02-.34,0h-10.64l-7.8-12.26-7.8,12.26h-10.65c-.06,0-.12-.01-.18-.01-.05,0-.1,0-.15.01h-1.9v-18.61h29.98l1.63-1.56v-.51H27.59v22.74h3.1v20.68h39.29v-20.68h3.1v-22.74h-8.35ZM53.44,76.16h-6.2v-9.3c0-1.72,1.38-3.1,3.1-3.1s3.1,1.38,3.1,3.1v9.3ZM67.91,76.16h-12.41v-9.3c0-2.84-2.33-5.17-5.17-5.17s-5.17,2.33-5.17,5.17v9.3h-12.41v-18.61h10.91l6.67-10.48,6.67,10.48h10.91v18.61Z"/>
      <path class="cls-4" d="M34.83,62.72v8.27h8.27v-9.3h-8.27v1.03ZM36.9,63.76h4.14v5.17h-4.14v-5.17Z"/>
    </g>
  </g>
</svg>