<?xml version="1.0" encoding="UTF-8"?>
<svg id="Layer_1" data-name="Layer 1" xmlns="http://www.w3.org/2000/svg" viewBox="0 0 366.28 305.38">
  <defs>
    <style>
      .cls-1 {
        letter-spacing: 0em;
      }

      .cls-2 {
        letter-spacing: -.04em;
      }

      .cls-3 {
        letter-spacing: -.02em;
      }

      .cls-4 {
        letter-spacing: 0em;
      }

      .cls-5 {
        letter-spacing: 0em;
      }

      .cls-6 {
        fill: #fff;
      }

      .cls-7 {
        letter-spacing: -.01em;
      }

      .cls-8 {
        letter-spacing: 0em;
      }

      .cls-9 {
        font-family: UrbanistRoman-Bold, Urbanist;
        font-size: 20px;
        font-variation-settings: 'wght' 700;
        font-weight: 700;
      }

      .cls-10 {
        letter-spacing: -.03em;
      }

      .cls-11 {
        letter-spacing: 0em;
      }

      .cls-12 {
        letter-spacing: 0em;
      }

      .cls-13 {
        letter-spacing: -.03em;
      }

      .cls-14 {
        letter-spacing: -.03em;
      }

      .cls-15 {
        letter-spacing: 0em;
      }

      .cls-16 {
        letter-spacing: -.03em;
      }

      .cls-17 {
        letter-spacing: -.05em;
      }

      .cls-18 {
        letter-spacing: -.01em;
      }

      .cls-19 {
        letter-spacing: -.02em;
      }

      .cls-20 {
        letter-spacing: -.05em;
      }

      .cls-21 {
        letter-spacing: 0em;
      }

      .cls-22 {
        letter-spacing: 0em;
      }

      .cls-23 {
        letter-spacing: -.02em;
      }

      .cls-24 {
        letter-spacing: -.01em;
      }

      .cls-25 {
        letter-spacing: 0em;
      }

      .cls-26 {
        letter-spacing: 0em;
      }

      .cls-27 {
        letter-spacing: -.01em;
      }

      .cls-28 {
        letter-spacing: 0em;
      }

      .cls-29 {
        letter-spacing: 0em;
      }

      .cls-30 {
        font-family: Urbanist-Regular, Urbanist;
        font-size: 18px;
        font-variation-settings: 'wght' 400;
      }

      .cls-31 {
        letter-spacing: -.05em;
      }

      .cls-32 {
        fill: #130044;
      }
    </style>
  </defs>
  <rect class="cls-32" x="0" y="0" width="366.28" height="305.38" rx="29.13" ry="29.13"/>
  <g>
    <path class="cls-6" d="M50.19,78.23c-6.04,0-11.71-2.35-15.98-6.62-4.27-4.27-6.62-9.94-6.62-15.98,0-6.04,2.35-11.71,6.62-15.98,4.27-4.27,9.94-6.62,15.98-6.62h.98v21.66h21.62v.98c.01,5.95-2.39,11.77-6.61,15.97l-.69.69-.03-.04c-4.18,3.83-9.56,5.93-15.26,5.93ZM49.21,35.02c-5.15.24-9.95,2.36-13.62,6.02-3.9,3.9-6.04,9.08-6.04,14.59,0,5.51,2.15,10.7,6.05,14.59,3.9,3.9,9.08,6.04,14.59,6.04,5.18,0,10.07-1.9,13.87-5.36l-14.85-14.83v-21.06ZM52.55,56.65l12.92,12.9c3.21-3.53,5.11-8.14,5.34-12.9h-18.25Z"/>
    <path class="cls-6" d="M64.93,48.75h-6.88v-1.96h6.88c1.08,0,1.97-.88,1.97-1.97s-.88-1.97-1.97-1.97h-2.06c-2.17-.02-3.92-1.78-3.92-3.94,0-1.05.41-2.03,1.15-2.77.74-.74,1.73-1.15,2.77-1.15h6.98v1.96h-6.9c-.61,0-1.1.2-1.47.57-.37.37-.58.87-.58,1.39,0,1.09.88,1.98,1.97,1.99h2.05c2.16,0,3.92,1.76,3.92,3.92s-1.76,3.92-3.92,3.92Z"/>
    <rect class="cls-6" x="62.96" y="32.04" width="1.96" height="3.93"/>
    <rect class="cls-6" x="62.96" y="47.77" width="1.96" height="3.93"/>
  </g>
  <text class="cls-6" transform="translate(27.59 116.71)"><tspan class="cls-9"><tspan x="0" y="0">J</tspan><tspan class="cls-25" x="8.88" y="0">u</tspan><tspan x="19.49" y="0">d</tspan><tspan class="cls-7" x="31.89" y="0">i</tspan><tspan class="cls-19" x="36.5" y="0">c</tspan><tspan class="cls-7" x="46.32" y="0">i</tspan><tspan class="cls-11" x="50.93" y="0">a</tspan><tspan x="62.96" y="0">l </tspan><tspan class="cls-27" x="72.6" y="0">p</tspan><tspan x="84.78" y="0">a</tspan><tspan class="cls-2" x="96.76" y="0">r</tspan><tspan x="103.71" y="0">a </tspan><tspan class="cls-31" x="120.49" y="0">e</tspan><tspan class="cls-20" x="130.62" y="0">x</tspan><tspan class="cls-27" x="141.51" y="0">e</tspan><tspan class="cls-7" x="152.5" y="0">c</tspan><tspan class="cls-25" x="162.47" y="0">u</tspan><tspan class="cls-3" x="173.08" y="0">ç</tspan><tspan class="cls-22" x="182.97" y="0">ã</tspan><tspan x="194.75" y="0">o </tspan><tspan class="cls-25" x="210.75" y="0">fis</tspan><tspan class="cls-23" x="231.12" y="0">c</tspan><tspan class="cls-11" x="241.01" y="0">a</tspan><tspan x="253.04" y="0">l</tspan></tspan><tspan class="cls-30"><tspan class="cls-28" x="0" y="43.2">G</tspan><tspan x="13.71" y="43.2">a</tspan><tspan class="cls-10" x="24.17" y="43.2">r</tspan><tspan x="30" y="43.2">an</tspan><tspan class="cls-24" x="50.1" y="43.2">t</tspan><tspan x="56.07" y="43.2">e o </tspan><tspan class="cls-21" x="84.84" y="43.2">pa</tspan><tspan class="cls-5" x="105.76" y="43.2">g</tspan><tspan x="116.24" y="43.2">a</tspan><tspan class="cls-21" x="126.7" y="43.2">m</tspan><tspan class="cls-5" x="142.51" y="43.2">e</tspan><tspan x="152.48" y="43.2">n</tspan><tspan class="cls-24" x="162.13" y="43.2">t</tspan><tspan x="168.09" y="43.2">o </tspan><tspan class="cls-26" x="182.49" y="43.2">d</tspan><tspan x="193.26" y="43.2">o </tspan><tspan class="cls-26" x="207.66" y="43.2">s</tspan><tspan class="cls-12" x="215.32" y="43.2">a</tspan><tspan class="cls-26" x="225.9" y="43.2">ld</tspan><tspan x="240.02" y="43.2">o </tspan></tspan><tspan class="cls-30"><tspan class="cls-26" x="0" y="64.8">d</tspan><tspan class="cls-14" x="10.76" y="64.8">ev</tspan><tspan class="cls-21" x="29.11" y="64.8">e</tspan><tspan class="cls-26" x="38.99" y="64.8">d</tspan><tspan class="cls-5" x="49.75" y="64.8">o</tspan><tspan x="59.74" y="64.8">r </tspan><tspan class="cls-10" x="70.5" y="64.8">r</tspan><tspan class="cls-5" x="76.33" y="64.8">e</tspan><tspan class="cls-21" x="86.29" y="64.8">m</tspan><tspan x="102.1" y="64.8">a</tspan><tspan class="cls-27" x="112.56" y="64.8">n</tspan><tspan class="cls-4" x="122.03" y="64.8">es</tspan><tspan class="cls-28" x="139.69" y="64.8">c</tspan><tspan class="cls-5" x="148.74" y="64.8">e</tspan><tspan x="158.71" y="64.8">n</tspan><tspan class="cls-24" x="168.35" y="64.8">t</tspan><tspan x="174.32" y="64.8">e </tspan><tspan class="cls-26" x="188.69" y="64.8">d</tspan><tspan x="199.46" y="64.8">a </tspan></tspan><tspan class="cls-30"><tspan class="cls-10" x="0" y="86.4">r</tspan><tspan class="cls-4" x="5.83" y="86.4">es</tspan><tspan class="cls-1" x="23.49" y="86.4">c</tspan><tspan class="cls-4" x="32.51" y="86.4">is</tspan><tspan class="cls-27" x="43.53" y="86.4">ã</tspan><tspan x="53.81" y="86.4">o </tspan><tspan class="cls-26" x="68.21" y="86.4">d</tspan><tspan x="78.97" y="86.4">o </tspan><tspan class="cls-27" x="93.38" y="86.4">p</tspan><tspan x="104.01" y="86.4">a</tspan><tspan class="cls-10" x="114.47" y="86.4">r</tspan><tspan class="cls-28" x="120.3" y="86.4">c</tspan><tspan class="cls-29" x="129.36" y="86.4">e</tspan><tspan class="cls-26" x="139.26" y="86.4">l</tspan><tspan x="142.61" y="86.4">a</tspan><tspan class="cls-21" x="153.07" y="86.4">m</tspan><tspan class="cls-5" x="168.88" y="86.4">e</tspan><tspan x="178.85" y="86.4">n</tspan><tspan class="cls-24" x="188.5" y="86.4">t</tspan><tspan x="194.46" y="86.4">o </tspan></tspan><tspan class="cls-30"><tspan class="cls-21" x="0" y="108">a</tspan><tspan x="10.28" y="108">dm</tspan><tspan class="cls-15" x="37.1" y="108">i</tspan><tspan x="40.49" y="108">n</tspan><tspan class="cls-4" x="50.14" y="108">i</tspan><tspan x="53.5" y="108">st</tspan><tspan class="cls-10" x="67.44" y="108">r</tspan><tspan x="73.27" y="108">a</tspan><tspan class="cls-26" x="83.73" y="108">t</tspan><tspan class="cls-28" x="89.87" y="108">i</tspan><tspan class="cls-14" x="93.18" y="108">v</tspan><tspan x="101.95" y="108">o </tspan><tspan class="cls-26" x="116.35" y="108">d</tspan><tspan x="127.12" y="108">e c</tspan><tspan class="cls-10" x="150.66" y="108">r</tspan><tspan class="cls-21" x="156.49" y="108">é</tspan><tspan x="166.36" y="108">di</tspan><tspan class="cls-18" x="180.61" y="108">t</tspan><tspan class="cls-4" x="186.58" y="108">o</tspan><tspan x="196.6" y="108">s </tspan><tspan class="cls-26" x="208.65" y="108">fis</tspan><tspan class="cls-28" x="225.61" y="108">c</tspan><tspan x="234.67" y="108">a</tspan><tspan class="cls-26" x="245.12" y="108">i</tspan><tspan class="cls-8" x="248.48" y="108">s</tspan><tspan x="256.18" y="108">, </tspan></tspan><tspan class="cls-30"><tspan x="0" y="129.6">assum</tspan><tspan class="cls-5" x="51.2" y="129.6">i</tspan><tspan class="cls-26" x="54.53" y="129.6">d</tspan><tspan x="65.29" y="129.6">o </tspan><tspan class="cls-21" x="79.69" y="129.6">p</tspan><tspan class="cls-29" x="90.33" y="129.6">e</tspan><tspan class="cls-26" x="100.23" y="129.6">l</tspan><tspan x="103.59" y="129.6">o </tspan><tspan class="cls-18" x="117.99" y="129.6">t</tspan><tspan class="cls-5" x="123.96" y="129.6">o</tspan><tspan class="cls-21" x="133.95" y="129.6">ma</tspan><tspan class="cls-26" x="160.04" y="129.6">d</tspan><tspan class="cls-5" x="170.8" y="129.6">o</tspan><tspan x="180.79" y="129.6">r </tspan><tspan class="cls-28" x="191.55" y="129.6">j</tspan><tspan x="195.4" y="129.6">un</tspan><tspan class="cls-24" x="214.33" y="129.6">t</tspan><tspan x="220.3" y="129.6">o à </tspan></tspan><tspan class="cls-30"><tspan class="cls-17" x="0" y="151.2">A</tspan><tspan x="11.28" y="151.2">dm</tspan><tspan class="cls-8" x="38.1" y="151.2">i</tspan><tspan x="41.49" y="151.2">n</tspan><tspan class="cls-26" x="51.14" y="151.2">i</tspan><tspan x="54.49" y="151.2">st</tspan><tspan class="cls-16" x="68.44" y="151.2">r</tspan><tspan class="cls-27" x="74.27" y="151.2">a</tspan><tspan class="cls-28" x="84.55" y="151.2">ç</tspan><tspan class="cls-21" x="93.6" y="151.2">ã</tspan><tspan x="103.88" y="151.2">o </tspan><tspan class="cls-13" x="118.28" y="151.2">P</tspan><tspan class="cls-12" x="127.22" y="151.2">ú</tspan><tspan class="cls-29" x="136.63" y="151.2">b</tspan><tspan x="147.3" y="151.2">l</tspan><tspan class="cls-5" x="150.72" y="151.2">i</tspan><tspan class="cls-28" x="154.05" y="151.2">c</tspan><tspan x="163.11" y="151.2">a.</tspan></tspan></text>
</svg>