<?xml version="1.0" encoding="UTF-8"?>
<svg id="Layer_1" data-name="Layer 1" xmlns="http://www.w3.org/2000/svg" viewBox="0 0 366.28 305.38">
  <defs>
    <style>
      .cls-1 {
        letter-spacing: 0em;
      }

      .cls-2 {
        letter-spacing: 0em;
      }

      .cls-3 {
        letter-spacing: 0em;
      }

      .cls-4 {
        fill: #fff;
      }

      .cls-5 {
        letter-spacing: 0em;
      }

      .cls-6 {
        letter-spacing: -.03em;
      }

      .cls-7 {
        letter-spacing: 0em;
      }

      .cls-8 {
        letter-spacing: -.03em;
      }

      .cls-9 {
        font-family: UrbanistRoman-Bold, Urbanist;
        font-size: 23.99px;
        font-variation-settings: 'wght' 700;
        font-weight: 700;
      }

      .cls-10 {
        letter-spacing: -.03em;
      }

      .cls-11 {
        letter-spacing: -.03em;
      }

      .cls-12 {
        letter-spacing: -.02em;
      }

      .cls-13 {
        letter-spacing: -.01em;
      }

      .cls-14 {
        letter-spacing: 0em;
      }

      .cls-15 {
        letter-spacing: 0em;
      }

      .cls-16 {
        letter-spacing: -.03em;
      }

      .cls-17 {
        letter-spacing: -.01em;
      }

      .cls-18 {
        letter-spacing: 0em;
      }

      .cls-19 {
        letter-spacing: -.01em;
      }

      .cls-20 {
        letter-spacing: 0em;
      }

      .cls-21 {
        letter-spacing: 0em;
      }

      .cls-22 {
        font-family: Urbanist-Regular, Urbanist;
        font-size: 18px;
        font-variation-settings: 'wght' 400;
      }

      .cls-23 {
        letter-spacing: 0em;
      }

      .cls-24 {
        fill: #130044;
      }
    </style>
  </defs>
  <rect class="cls-24" x="0" y="0" width="366.28" height="305.38" rx="29.13" ry="29.13"/>
  <path class="cls-4" d="M126.4,67.1c-.47,0-.9-.25-1.14-.66l-3.89-6.73-7.51,2.01c-.45.12-.94,0-1.27-.34-.33-.33-.46-.81-.34-1.27l2.01-7.51-6.73-3.89c-.41-.23-.66-.67-.66-1.14s.25-.9.66-1.14l6.73-3.89-2.01-7.51c-.12-.45,0-.94.34-1.27.33-.33.81-.46,1.27-.34l7.51,2.01,3.89-6.73c.23-.41.67-.66,1.14-.66s.9.25,1.14.66l3.89,6.73,7.51-2.01c.45-.12.94,0,1.27.34.33.33.46.81.34,1.27l-2.01,7.51,6.73,3.89c.41.23.66.67.66,1.14s-.25.9-.66,1.14l-6.73,3.89,2.01,7.51c.12.45,0,.94-.34,1.27s-.81.46-1.27.34l-7.51-2.01-3.89,6.73c-.23.41-.67.66-1.14.66ZM122.01,56.88c.46,0,.9.24,1.14.66l3.25,5.64,3.25-5.64c.3-.51.9-.76,1.48-.61l6.29,1.68-1.68-6.29c-.15-.57.1-1.18.61-1.48l5.64-3.25-5.64-3.25c-.51-.3-.76-.9-.61-1.48l1.68-6.29-6.29,1.69c-.57.15-1.18-.1-1.48-.61l-3.25-5.64-3.25,5.64c-.3.51-.9.76-1.48.61l-6.29-1.69,1.68,6.29c.15.57-.1,1.18-.61,1.48l-5.64,3.25,5.64,3.25c.51.3.76.9.61,1.48l-1.68,6.29,6.29-1.68c.11-.03.23-.04.34-.04Z"/>
  <path class="cls-4" d="M95.33,47.74c-1.91,0-3.73.37-5.42,1.02l-6.8-13.45h5.31v-2.76h-9.81l2.8,5.53h-23.95l-1.39-2.76h4.71v-2.76h-9.2l3.11,6.16s-.04.04-.05.06l-5.86,10.2c-1.83-.79-3.85-1.22-5.97-1.22-8.39,0-15.2,6.82-15.2,15.21s6.82,15.2,15.2,15.2c7.92,0,14.43-6.09,15.13-13.82h11.32c.49,0,.95-.26,1.2-.69l12.76-22,4.22,8.34c-4.37,2.67-7.31,7.48-7.31,12.97,0,8.39,6.82,15.21,15.2,15.21s15.2-6.82,15.2-15.21-6.82-15.21-15.2-15.21h0ZM56.16,41.64l10.06,19.93h-8.29c-.43-4.71-3-8.8-6.74-11.28l4.97-8.65h0ZM55.16,61.57h-10.45l5.1-8.88c2.91,2,4.93,5.2,5.34,8.88ZM42.8,75.39c-6.86,0-12.44-5.58-12.44-12.44s5.58-12.44,12.44-12.44c1.62,0,3.16.32,4.57.88l-6.25,10.87c-.25.43-.24.95,0,1.38s.7.69,1.2.69h12.83c-.69,6.21-5.97,11.06-12.36,11.06h0ZM68.92,60.77l-10.07-19.93h21.63l-11.57,19.93h0ZM95.33,75.39c-6.86,0-12.44-5.58-12.44-12.44,0-4.41,2.32-8.29,5.79-10.5l5.85,11.58,2.47-1.25-5.84-11.54c1.3-.47,2.7-.73,4.16-.73,6.86,0,12.44,5.58,12.44,12.44s-5.58,12.44-12.44,12.44h0Z"/>
  <text class="cls-4" transform="translate(27.59 119.7)"><tspan class="cls-9"><tspan class="cls-12" x="0" y="0">D</tspan><tspan x="15.75" y="0">a</tspan><tspan class="cls-14" x="30.11" y="0">n</tspan><tspan x="43.26" y="0">o</tspan></tspan><tspan class="cls-22"><tspan class="cls-16" x="0" y="43.2">C</tspan><tspan class="cls-21" x="12.13" y="43.2">o</tspan><tspan class="cls-3" x="22.06" y="43.2">b</tspan><tspan class="cls-6" x="32.8" y="43.2">r</tspan><tspan x="38.63" y="43.2">e </tspan><tspan class="cls-18" x="53" y="43.2">d</tspan><tspan x="63.76" y="43.2">a</tspan><tspan class="cls-15" x="74.22" y="43.2">n</tspan><tspan class="cls-18" x="83.69" y="43.2">o</tspan><tspan x="93.71" y="43.2">s </tspan><tspan class="cls-20" x="105.76" y="43.2">c</tspan><tspan x="114.81" y="43.2">au</tspan><tspan class="cls-18" x="134.56" y="43.2">s</tspan><tspan class="cls-15" x="142.23" y="43.2">a</tspan><tspan class="cls-18" x="152.51" y="43.2">do</tspan><tspan x="173.29" y="43.2">s </tspan><tspan class="cls-15" x="185.34" y="43.2">p</tspan><tspan class="cls-3" x="195.98" y="43.2">o</tspan><tspan x="205.97" y="43.2">r </tspan></tspan><tspan class="cls-22"><tspan class="cls-5" x="0" y="64.8">i</tspan><tspan class="cls-19" x="3.39" y="64.8">n</tspan><tspan class="cls-20" x="12.86" y="64.8">c</tspan><tspan class="cls-3" x="21.92" y="64.8">ê</tspan><tspan class="cls-15" x="31.88" y="64.8">n</tspan><tspan x="41.35" y="64.8">d</tspan><tspan class="cls-3" x="52.17" y="64.8">i</tspan><tspan class="cls-15" x="55.5" y="64.8">o</tspan><tspan x="65.4" y="64.8">, </tspan><tspan class="cls-20" x="73.34" y="64.8">q</tspan><tspan class="cls-18" x="84.04" y="64.8">u</tspan><tspan class="cls-19" x="93.27" y="64.8">e</tspan><tspan class="cls-18" x="103.14" y="64.8">d</tspan><tspan x="113.9" y="64.8">a, </tspan><tspan class="cls-17" x="132.3" y="64.8">t</tspan><tspan class="cls-3" x="138.27" y="64.8">e</tspan><tspan x="148.23" y="64.8">n</tspan><tspan class="cls-17" x="157.88" y="64.8">t</tspan><tspan x="163.84" y="64.8">a</tspan><tspan class="cls-18" x="174.3" y="64.8">t</tspan><tspan class="cls-20" x="180.45" y="64.8">i</tspan><tspan class="cls-10" x="183.75" y="64.8">v</tspan><tspan x="192.53" y="64.8">a </tspan><tspan class="cls-18" x="207.31" y="64.8">d</tspan><tspan x="218.07" y="64.8">e </tspan></tspan><tspan class="cls-22"><tspan class="cls-6" x="0" y="86.4">r</tspan><tspan class="cls-15" x="5.83" y="86.4">o</tspan><tspan class="cls-7" x="15.73" y="86.4">u</tspan><tspan class="cls-19" x="25.14" y="86.4">b</tspan><tspan x="35.78" y="86.4">o e </tspan><tspan class="cls-23" x="64.56" y="86.4">s</tspan><tspan x="72.2" y="86.4">it</tspan><tspan class="cls-18" x="81.83" y="86.4">u</tspan><tspan class="cls-19" x="91.05" y="86.4">a</tspan><tspan class="cls-20" x="101.33" y="86.4">ç</tspan><tspan class="cls-15" x="110.38" y="86.4">õ</tspan><tspan class="cls-18" x="120.28" y="86.4">e</tspan><tspan x="130.27" y="86.4">s </tspan><tspan class="cls-20" x="142.33" y="86.4">q</tspan><tspan class="cls-18" x="153.03" y="86.4">u</tspan><tspan x="162.25" y="86.4">e </tspan><tspan class="cls-3" x="176.62" y="86.4">e</tspan><tspan x="186.59" y="86.4">m </tspan><tspan class="cls-20" x="206.9" y="86.4">q</tspan><tspan class="cls-18" x="217.6" y="86.4">u</tspan><tspan x="226.83" y="86.4">e a </tspan></tspan><tspan class="cls-22"><tspan class="cls-15" x="0" y="108">b</tspan><tspan class="cls-3" x="10.65" y="108">i</tspan><tspan class="cls-1" x="13.98" y="108">c</tspan><tspan class="cls-3" x="22.99" y="108">i</tspan><tspan class="cls-20" x="26.32" y="108">c</tspan><tspan class="cls-2" x="35.38" y="108">l</tspan><tspan class="cls-13" x="38.74" y="108">et</tspan><tspan x="54.51" y="108">a </tspan><tspan class="cls-18" x="69.29" y="108">e</tspan><tspan x="79.28" y="108">s</tspan><tspan class="cls-17" x="87.01" y="108">t</tspan><tspan class="cls-19" x="92.98" y="108">e</tspan><tspan class="cls-23" x="102.85" y="108">j</tspan><tspan x="106.73" y="108">a </tspan><tspan class="cls-18" x="121.51" y="108">s</tspan><tspan class="cls-3" x="129.18" y="108">e</tspan><tspan class="cls-19" x="139.14" y="108">n</tspan><tspan class="cls-2" x="148.61" y="108">d</tspan><tspan x="159.37" y="108">o </tspan><tspan class="cls-18" x="173.77" y="108">l</tspan><tspan class="cls-8" x="177.13" y="108">ev</tspan><tspan class="cls-19" x="195.48" y="108">a</tspan><tspan class="cls-2" x="205.76" y="108">d</tspan><tspan x="216.52" y="108">a </tspan><tspan class="cls-15" x="231.3" y="108">p</tspan><tspan class="cls-3" x="241.94" y="108">o</tspan><tspan x="251.93" y="108">r </tspan></tspan><tspan class="cls-22"><tspan class="cls-10" x="0" y="129.6">v</tspan><tspan class="cls-19" x="8.78" y="129.6">e</tspan><tspan class="cls-3" x="18.65" y="129.6">íc</tspan><tspan class="cls-7" x="31.06" y="129.6">u</tspan><tspan class="cls-18" x="40.46" y="129.6">l</tspan><tspan x="43.82" y="129.6">o t</tspan><tspan class="cls-11" x="64.43" y="129.6">r</tspan><tspan x="70.26" y="129.6">ans</tspan><tspan class="cls-19" x="98.1" y="129.6">p</tspan><tspan class="cls-3" x="108.74" y="129.6">o</tspan><tspan x="118.73" y="129.6">r</tspan><tspan class="cls-17" x="125.16" y="129.6">t</tspan><tspan class="cls-15" x="131.13" y="129.6">a</tspan><tspan class="cls-18" x="141.41" y="129.6">d</tspan><tspan class="cls-3" x="152.17" y="129.6">o</tspan><tspan class="cls-6" x="162.16" y="129.6">r</tspan><tspan x="167.99" y="129.6">.</tspan></tspan></text>
</svg>