<?xml version="1.0" encoding="UTF-8"?>
<svg id="Layer_1" data-name="Layer 1" xmlns="http://www.w3.org/2000/svg" viewBox="0 0 366.28 305.38">
  <defs>
    <style>
      .cls-1 {
        letter-spacing: 0em;
      }

      .cls-2 {
        letter-spacing: -.01em;
      }

      .cls-3 {
        font-family: UrbanistRoman-Bold, Urbanist;
        font-size: 20px;
        font-variation-settings: 'wght' 700;
        font-weight: 700;
      }

      .cls-3, .cls-4 {
        fill: #130044;
      }

      .cls-5 {
        letter-spacing: -.04em;
      }

      .cls-6 {
        letter-spacing: -.02em;
      }

      .cls-7 {
        letter-spacing: -.01em;
      }

      .cls-8 {
        letter-spacing: 0em;
      }

      .cls-9 {
        letter-spacing: -.01em;
      }

      .cls-10 {
        letter-spacing: -.04em;
      }
    </style>
  </defs>
  <path class="cls-4" d="M337.15,9c11.1,0,20.14,9.03,20.14,20.14v247.12c0,11.1-9.03,20.13-20.14,20.13H29.13c-11.1,0-20.14-9.03-20.14-20.13V29.13c0-11.1,9.03-20.14,20.14-20.14h308.02M337.15,0H29.13C13.11,0,0,13.11,0,29.13v247.12c0,16.02,13.11,29.13,29.13,29.13h308.02c16.02,0,29.13-13.11,29.13-29.13V29.13C366.28,13.11,353.18,0,337.15,0h0Z"/>
  <text class="cls-3" transform="translate(27.59 271.2)"><tspan class="cls-10" x="0" y="0">R</tspan><tspan class="cls-7" x="11.29" y="0">et</tspan><tspan class="cls-2" x="29.2" y="0">e</tspan><tspan class="cls-9" x="40.16" y="0">n</tspan><tspan class="cls-6" x="51.12" y="0">ç</tspan><tspan class="cls-9" x="61.01" y="0">ã</tspan><tspan x="72.79" y="0">o </tspan><tspan class="cls-8" x="88.79" y="0">d</tspan><tspan x="101.04" y="0">e </tspan><tspan class="cls-5" x="117.03" y="0">P</tspan><tspan class="cls-9" x="127.22" y="0">a</tspan><tspan class="cls-2" x="139" y="0">g</tspan><tspan x="151.03" y="0">a</tspan><tspan class="cls-9" x="163.01" y="0">m</tspan><tspan class="cls-2" x="180.58" y="0">e</tspan><tspan x="191.54" y="0">n</tspan><tspan class="cls-7" x="202.7" y="0">t</tspan><tspan class="cls-1" x="209.64" y="0">o</tspan><tspan x="220.69" y="0">s</tspan></text>
  <polygon class="cls-4" points="338.69 262.6 330.04 262.6 330.04 253.95 324.38 253.95 324.38 262.6 315.73 262.6 315.73 268.27 324.38 268.27 324.38 276.92 330.04 276.92 330.04 268.27 338.69 268.27 338.69 262.6"/>
  <g>
    <path class="cls-4" d="M73.01,32.04H28.36c-.46,0-.77.31-.77.77v44.65c0,.46.31.77.77.77h24.64v-1.54h-23.87v-3.85h23.87v-1.54h-23.87v-3.85h23.87v-1.54h-23.87v-3.85h23.87v-1.54h-23.87v-3.85h43.11v4.62h1.54v-28.48c0-.46-.31-.77-.77-.77ZM29.13,55.14v-21.56h16.71c-2.16,1.54-3.62,4.08-3.62,6.93v7.7c0,2.85,1.39,5.39,3.62,6.93h-16.71ZM50.69,33.58c3.85,0,6.93,3.08,6.93,6.93v7.7c0,3.85-3.08,6.93-6.93,6.93s-6.93-3.08-6.93-6.93v-7.7c0-3.85,3.08-6.93,6.93-6.93ZM55.54,55.14c2.16-1.54,3.62-4.08,3.62-6.93v-7.7c0-2.85-1.39-5.39-3.62-6.93h16.71v21.56h-16.71Z"/>
    <path class="cls-4" d="M68.4,35.89h-4.62v1.54h3.85v3.85h1.54v-4.62c0-.46-.31-.77-.77-.77Z"/>
    <path class="cls-4" d="M32.98,37.43h3.85v-1.54h-4.62c-.46,0-.77.31-.77.77v4.62h1.54v-3.85Z"/>
    <path class="cls-4" d="M32.98,47.44h-1.54v4.62c0,.46.31.77.77.77h4.62v-1.54h-3.85v-3.85Z"/>
    <path class="cls-4" d="M67.63,51.29h-3.85v1.54h4.62c.46,0,.77-.31.77-.77v-4.62h-1.54v3.85Z"/>
    <path class="cls-4" d="M51.46,49.75h-1.54c-1.31,0-2.31-1-2.31-2.31h-1.54c0,2.16,1.69,3.85,3.85,3.85v1.54h1.54v-1.54c2.16,0,3.85-1.69,3.85-3.85s-1.69-3.85-3.85-3.85h-1.54c-1.31,0-2.31-1-2.31-2.31s1-2.31,2.31-2.31h1.54c1.31,0,2.31,1,2.31,2.31h1.54c0-2.16-1.69-3.85-3.85-3.85v-1.54h-1.54v1.54c-2.16,0-3.85,1.69-3.85,3.85s1.69,3.85,3.85,3.85h1.54c1.31,0,2.31,1,2.31,2.31s-1,2.31-2.31,2.31Z"/>
    <rect class="cls-4" x="62.24" y="43.59" width="2.31" height="1.54"/>
    <rect class="cls-4" x="36.83" y="43.59" width="2.31" height="1.54"/>
    <path class="cls-4" d="M70.7,64.37h-1.54v-3.85c0-.46-.31-.77-.77-.77h-9.24c-.46,0-.77.31-.77.77v3.85h-1.54c-.46,0-.77.31-.77.77v12.32c0,.46.31.77.77.77h13.86c.46,0,.77-.31.77-.77v-12.32c0-.46-.31-.77-.77-.77ZM59.93,61.29h7.7v3.08h-7.7v-3.08ZM69.94,76.69h-12.32v-10.78h12.32v10.78Z"/>
    <polygon class="cls-4" points="61.47 68.99 63.01 68.99 63.01 75.15 64.55 75.15 64.55 68.99 66.09 68.99 66.09 67.45 61.47 67.45 61.47 68.99"/>
  </g>
</svg>