<?xml version="1.0" encoding="UTF-8"?>
<svg id="Layer_1" data-name="Layer 1" xmlns="http://www.w3.org/2000/svg" viewBox="0 0 366.28 305.38">
  <defs>
    <style>
      .cls-1 {
        letter-spacing: 0em;
      }

      .cls-2 {
        letter-spacing: 0em;
      }

      .cls-3 {
        letter-spacing: -.02em;
      }

      .cls-4 {
        letter-spacing: 0em;
      }

      .cls-5 {
        letter-spacing: 0em;
      }

      .cls-6 {
        fill: #fff;
      }

      .cls-7 {
        letter-spacing: 0em;
      }

      .cls-8 {
        font-family: UrbanistRoman-Bold, Urbanist;
        font-size: 20px;
        font-variation-settings: 'wght' 700;
        font-weight: 700;
      }

      .cls-9 {
        letter-spacing: -.03em;
      }

      .cls-10 {
        letter-spacing: 0em;
      }

      .cls-11 {
        letter-spacing: 0em;
      }

      .cls-12 {
        letter-spacing: -.03em;
      }

      .cls-13 {
        letter-spacing: 0em;
      }

      .cls-14 {
        letter-spacing: 0em;
      }

      .cls-15 {
        letter-spacing: -.01em;
      }

      .cls-16 {
        letter-spacing: 0em;
      }

      .cls-17 {
        letter-spacing: -.02em;
      }

      .cls-18 {
        letter-spacing: -.04em;
      }

      .cls-19 {
        letter-spacing: -.01em;
      }

      .cls-20 {
        letter-spacing: -.01em;
      }

      .cls-21 {
        letter-spacing: 0em;
      }

      .cls-22 {
        letter-spacing: 0em;
      }

      .cls-23 {
        letter-spacing: 0em;
      }

      .cls-24 {
        letter-spacing: -.01em;
      }

      .cls-25 {
        letter-spacing: 0em;
      }

      .cls-26 {
        letter-spacing: 0em;
      }

      .cls-27 {
        letter-spacing: 0em;
      }

      .cls-28 {
        font-family: Urbanist-Regular, Urbanist;
        font-size: 18px;
        font-variation-settings: 'wght' 400;
      }

      .cls-29 {
        letter-spacing: 0em;
      }

      .cls-30 {
        fill: #130044;
      }
    </style>
  </defs>
  <rect class="cls-30" x="0" y="0" width="366.28" height="305.38" rx="29.13" ry="29.13"/>
  <g>
    <path class="cls-6" d="M35.29,59.99c0,.4.32.72.72.72h0c.4,0,.72-.32.72-.72,0-5.85,0-12.17,0-17.25h22.43c1.54,0,2.93-.65,3.91-1.7v3.29c0,.4.32.72.72.72s.72-.32.72-.72v-6.94c0-2.95-2.4-5.35-5.35-5.35h-26.23c-2.95,0-5.35,2.4-5.35,5.35s2.4,5.35,5.35,5.35h2.36c0,5.08,0,11.4,0,17.25ZM59.17,33.49c2.15,0,3.91,1.75,3.91,3.91s-1.75,3.91-3.91,3.91-3.91-1.75-3.91-3.91,1.75-3.91,3.91-3.91ZM32.94,41.3c-2.15,0-3.91-1.75-3.91-3.91s1.75-3.91,3.91-3.91h22.58c-1.04.98-1.7,2.37-1.7,3.91s.65,2.93,1.7,3.91h-22.58Z"/>
    <path class="cls-6" d="M59.17,40.43c1.67,0,3.04-1.36,3.04-3.04s-1.36-3.04-3.04-3.04-3.04,1.36-3.04,3.04,1.36,3.04,3.04,3.04ZM59.17,35.8c.88,0,1.59.71,1.59,1.59s-.71,1.59-1.59,1.59-1.59-.71-1.59-1.59.71-1.59,1.59-1.59Z"/>
    <path class="cls-6" d="M68.43,67.53c-1.54,0-2.93.65-3.91,1.7v-21.8c0-.4-.32-.72-.72-.72s-.72.32-.72.72v25.46c0,1.14.37,2.27,1.06,3.19.19.26.4.5.64.72h-24.13c-2.15,0-3.9-1.75-3.91-3.9,0-2.68,0-6.3,0-10.28,0-.4-.32-.72-.72-.72h0c-.4,0-.72.32-.72.72,0,3.98,0,7.6,0,10.28,0,2.95,2.4,5.35,5.35,5.35h27.79c2.95,0,5.35-2.4,5.35-5.35s-2.4-5.35-5.35-5.35ZM68.43,76.78c-2.15,0-3.91-1.75-3.91-3.91s1.75-3.91,3.91-3.91,3.91,1.75,3.91,3.91-1.75,3.91-3.91,3.91Z"/>
    <path class="cls-6" d="M68.43,69.84c-1.68,0-3.04,1.36-3.04,3.04s1.36,3.04,3.04,3.04,3.04-1.36,3.04-3.04-1.36-3.04-3.04-3.04ZM68.43,74.47c-.88,0-1.59-.71-1.59-1.59s.71-1.59,1.59-1.59,1.59.71,1.59,1.59-.71,1.59-1.59,1.59Z"/>
    <path class="cls-6" d="M50.64,52.05c0-3.38-2.75-6.12-6.12-6.12s-6.12,2.75-6.12,6.12,2.75,6.12,6.12,6.12,6.12-2.75,6.12-6.12ZM44.52,56.73c-2.58,0-4.68-2.1-4.68-4.68s2.1-4.68,4.68-4.68,4.68,2.1,4.68,4.68-2.1,4.68-4.68,4.68Z"/>
    <path class="cls-6" d="M46.32,49.99l-2.57,2.57-1.03-1.03c-.28-.28-.74-.28-1.02,0-.28.28-.28.74,0,1.02l1.54,1.54c.28.28.74.28,1.02,0l3.09-3.09c.28-.28.28-.74,0-1.02-.28-.28-.74-.28-1.02,0Z"/>
    <path class="cls-6" d="M55.32,73.6c3.38,0,6.12-2.75,6.12-6.12s-2.75-6.12-6.12-6.12-6.12,2.75-6.12,6.12,2.75,6.12,6.12,6.12ZM55.32,62.8c2.58,0,4.68,2.1,4.68,4.68s-2.1,4.68-4.68,4.68-4.68-2.1-4.68-4.68,2.1-4.68,4.68-4.68Z"/>
    <path class="cls-6" d="M52.49,70.3c.28.28.74.28,1.02,0l1.8-1.8,1.8,1.8c.29.29.79.27,1.06-.04.24-.28.23-.72-.04-.98l-1.8-1.8,1.8-1.8c.28-.28.28-.74,0-1.02-.28-.28-.74-.28-1.02,0l-1.8,1.8-1.8-1.8c-.28-.28-.74-.28-1.02,0-.28.28-.28.74,0,1.02l1.8,1.8-1.8,1.8c-.28.28-.28.74,0,1.02Z"/>
    <path class="cls-6" d="M59.17,49.69c.4,0,.72-.32.72-.72s-.32-.72-.72-.72h-6.17c-.4,0-.72.32-.72.72s.32.72.72.72h6.17Z"/>
    <path class="cls-6" d="M53,52.77h6.17c.4,0,.72-.32.72-.72s-.32-.72-.72-.72h-6.17c-.4,0-.72.32-.72.72s.32.72.72.72Z"/>
    <path class="cls-6" d="M53,55.86h6.17c.4,0,.72-.32.72-.72s-.32-.72-.72-.72h-6.17c-.4,0-.72.32-.72.72s.32.72.72.72Z"/>
    <path class="cls-6" d="M46.83,64.44h-6.17c-.4,0-.72.32-.72.72s.32.72.72.72h6.17c.4,0,.72-.32.72-.72s-.32-.72-.72-.72Z"/>
    <path class="cls-6" d="M46.83,67.53h-6.17c-.4,0-.72.32-.72.72s.32.72.72.72h6.17c.4,0,.72-.32.72-.72s-.32-.72-.72-.72Z"/>
    <path class="cls-6" d="M46.83,70.61h-6.17c-.4,0-.72.32-.72.72s.32.72.72.72h6.17c.4,0,.72-.32.72-.72s-.32-.72-.72-.72Z"/>
  </g>
  <text class="cls-6" transform="translate(27.59 116.71)"><tspan class="cls-8"><tspan class="cls-17" x="0" y="0">G</tspan><tspan x="15.06" y="0">a</tspan><tspan class="cls-18" x="27.04" y="0">r</tspan><tspan x="33.99" y="0">an</tspan><tspan class="cls-21" x="57.13" y="0">t</tspan><tspan class="cls-15" x="64.14" y="0">i</tspan><tspan class="cls-23" x="68.75" y="0">a </tspan><tspan class="cls-21" x="85.53" y="0">d</tspan><tspan x="97.78" y="0">o l</tspan><tspan class="cls-15" x="118.62" y="0">i</tspan><tspan class="cls-3" x="123.23" y="0">c</tspan><tspan x="133.05" y="0">i</tspan><tspan class="cls-20" x="137.89" y="0">t</tspan><tspan x="144.83" y="0">an</tspan><tspan class="cls-20" x="167.97" y="0">t</tspan><tspan x="174.91" y="0">e</tspan></tspan><tspan class="cls-28"><tspan class="cls-25" x="0" y="21.6">G</tspan><tspan x="13.71" y="21.6">a</tspan><tspan class="cls-9" x="24.17" y="21.6">r</tspan><tspan x="30" y="21.6">an</tspan><tspan class="cls-19" x="50.1" y="21.6">t</tspan><tspan x="56.07" y="21.6">e a </tspan><tspan class="cls-7" x="85.22" y="21.6">i</tspan><tspan class="cls-24" x="88.61" y="21.6">n</tspan><tspan class="cls-4" x="98.08" y="21.6">d</tspan><tspan class="cls-5" x="108.85" y="21.6">e</tspan><tspan x="118.81" y="21.6">ni</tspan><tspan class="cls-5" x="131.88" y="21.6">z</tspan><tspan class="cls-24" x="140.91" y="21.6">a</tspan><tspan class="cls-25" x="151.19" y="21.6">ç</tspan><tspan class="cls-16" x="160.24" y="21.6">ã</tspan><tspan x="170.52" y="21.6">o </tspan><tspan class="cls-24" x="184.92" y="21.6">p</tspan><tspan class="cls-26" x="195.56" y="21.6">e</tspan><tspan class="cls-22" x="205.46" y="21.6">lo</tspan><tspan x="218.83" y="21.6">s </tspan></tspan><tspan class="cls-28"><tspan class="cls-5" x="0" y="43.2">p</tspan><tspan class="cls-9" x="10.73" y="43.2">r</tspan><tspan class="cls-16" x="16.56" y="43.2">e</tspan><tspan class="cls-25" x="26.43" y="43.2">j</tspan><tspan x="30.29" y="43.2">uí</tspan><tspan class="cls-5" x="42.99" y="43.2">z</tspan><tspan class="cls-22" x="52.03" y="43.2">o</tspan><tspan x="62.05" y="43.2">s </tspan><tspan class="cls-22" x="74.1" y="43.2">d</tspan><tspan class="cls-16" x="84.86" y="43.2">e</tspan><tspan class="cls-25" x="94.73" y="43.2">c</tspan><tspan class="cls-5" x="103.79" y="43.2">or</tspan><tspan class="cls-9" x="120.12" y="43.2">r</tspan><tspan class="cls-5" x="125.96" y="43.2">e</tspan><tspan x="135.92" y="43.2">n</tspan><tspan class="cls-19" x="145.57" y="43.2">t</tspan><tspan class="cls-22" x="151.53" y="43.2">e</tspan><tspan x="161.52" y="43.2">s </tspan><tspan class="cls-22" x="173.57" y="43.2">d</tspan><tspan x="184.34" y="43.2">a </tspan><tspan class="cls-12" x="199.12" y="43.2">r</tspan><tspan class="cls-24" x="204.95" y="43.2">e</tspan><tspan class="cls-5" x="214.82" y="43.2">c</tspan><tspan x="223.9" y="43.2">u</tspan><tspan class="cls-4" x="233.19" y="43.2">s</tspan><tspan x="240.86" y="43.2">a </tspan></tspan><tspan class="cls-28"><tspan class="cls-22" x="0" y="64.8">d</tspan><tspan x="10.76" y="64.8">o </tspan><tspan class="cls-19" x="25.16" y="64.8">t</tspan><tspan class="cls-5" x="31.13" y="64.8">o</tspan><tspan class="cls-16" x="41.12" y="64.8">ma</tspan><tspan class="cls-22" x="67.21" y="64.8">d</tspan><tspan class="cls-5" x="77.98" y="64.8">o</tspan><tspan x="87.97" y="64.8">r </tspan><tspan class="cls-16" x="98.72" y="64.8">a</tspan><tspan class="cls-14" x="109" y="64.8">d</tspan><tspan class="cls-25" x="120.01" y="64.8">j</tspan><tspan class="cls-22" x="123.86" y="64.8">u</tspan><tspan class="cls-27" x="133.08" y="64.8">d</tspan><tspan class="cls-5" x="143.91" y="64.8">i</tspan><tspan class="cls-2" x="147.24" y="64.8">c</tspan><tspan x="156.29" y="64.8">a</tspan><tspan class="cls-19" x="166.75" y="64.8">t</tspan><tspan x="172.72" y="64.8">á</tspan><tspan class="cls-25" x="183.18" y="64.8">r</tspan><tspan class="cls-5" x="189.49" y="64.8">i</tspan><tspan x="192.82" y="64.8">o </tspan><tspan class="cls-5" x="207.22" y="64.8">e</tspan><tspan x="217.19" y="64.8">m </tspan></tspan><tspan class="cls-28"><tspan x="0" y="86.4">as</tspan><tspan class="cls-5" x="18.19" y="86.4">s</tspan><tspan class="cls-7" x="25.83" y="86.4">i</tspan><tspan class="cls-16" x="29.22" y="86.4">n</tspan><tspan x="38.69" y="86.4">ar o </tspan><tspan class="cls-25" x="74.3" y="86.4">c</tspan><tspan class="cls-29" x="83.36" y="86.4">o</tspan><tspan class="cls-13" x="93.35" y="86.4">nt</tspan><tspan class="cls-12" x="109.21" y="86.4">r</tspan><tspan x="115.04" y="86.4">a</tspan><tspan class="cls-19" x="125.5" y="86.4">t</tspan><tspan x="131.46" y="86.4">o </tspan><tspan class="cls-5" x="145.86" y="86.4">p</tspan><tspan class="cls-25" x="156.59" y="86.4">r</tspan><tspan class="cls-11" x="162.91" y="86.4">i</tspan><tspan class="cls-16" x="166.3" y="86.4">n</tspan><tspan class="cls-26" x="175.77" y="86.4">c</tspan><tspan class="cls-22" x="184.79" y="86.4">i</tspan><tspan class="cls-24" x="188.15" y="86.4">p</tspan><tspan class="cls-10" x="198.78" y="86.4">a</tspan><tspan x="209.36" y="86.4">l </tspan><tspan class="cls-24" x="217.1" y="86.4">n</tspan><tspan x="226.57" y="86.4">as </tspan></tspan><tspan class="cls-28"><tspan class="cls-25" x="0" y="108">c</tspan><tspan class="cls-5" x="9.05" y="108">o</tspan><tspan class="cls-16" x="19.04" y="108">n</tspan><tspan x="28.51" y="108">d</tspan><tspan class="cls-5" x="39.34" y="108">i</tspan><tspan class="cls-25" x="42.67" y="108">ç</tspan><tspan class="cls-24" x="51.72" y="108">õ</tspan><tspan class="cls-22" x="61.62" y="108">e</tspan><tspan x="71.61" y="108">s </tspan><tspan class="cls-5" x="83.66" y="108">p</tspan><tspan class="cls-12" x="94.39" y="108">r</tspan><tspan class="cls-5" x="100.22" y="108">o</tspan><tspan class="cls-24" x="110.21" y="108">p</tspan><tspan class="cls-4" x="120.85" y="108">o</tspan><tspan class="cls-13" x="130.87" y="108">s</tspan><tspan class="cls-19" x="138.6" y="108">t</tspan><tspan x="144.57" y="108">as </tspan><tspan class="cls-16" x="167.08" y="108">n</tspan><tspan x="176.54" y="108">o </tspan><tspan class="cls-24" x="190.94" y="108">e</tspan><tspan x="200.82" y="108">di</tspan><tspan class="cls-19" x="215.06" y="108">t</tspan><tspan class="cls-10" x="221.03" y="108">a</tspan><tspan x="231.61" y="108">l </tspan><tspan class="cls-22" x="239.35" y="108">d</tspan><tspan x="250.11" y="108">e </tspan></tspan><tspan class="cls-28"><tspan x="0" y="129.6">l</tspan><tspan class="cls-5" x="3.42" y="129.6">i</tspan><tspan class="cls-26" x="6.75" y="129.6">c</tspan><tspan x="15.77" y="129.6">i</tspan><tspan class="cls-19" x="19.19" y="129.6">t</tspan><tspan class="cls-24" x="25.16" y="129.6">a</tspan><tspan class="cls-25" x="35.43" y="129.6">ç</tspan><tspan class="cls-16" x="44.49" y="129.6">ão</tspan><tspan x="64.67" y="129.6">, </tspan><tspan class="cls-22" x="72.6" y="129.6">d</tspan><tspan class="cls-5" x="83.37" y="129.6">e</tspan><tspan x="93.33" y="129.6">nt</tspan><tspan class="cls-12" x="109.19" y="129.6">r</tspan><tspan x="115.02" y="129.6">o </tspan><tspan class="cls-22" x="129.42" y="129.6">d</tspan><tspan x="140.18" y="129.6">o </tspan><tspan class="cls-5" x="154.58" y="129.6">p</tspan><tspan class="cls-9" x="165.31" y="129.6">r</tspan><tspan x="171.14" y="129.6">a</tspan><tspan class="cls-5" x="181.6" y="129.6">z</tspan><tspan x="190.64" y="129.6">o </tspan></tspan><tspan class="cls-28"><tspan class="cls-22" x="0" y="151.2">e</tspan><tspan x="9.99" y="151.2">s</tspan><tspan class="cls-19" x="17.72" y="151.2">t</tspan><tspan class="cls-10" x="23.69" y="151.2">a</tspan><tspan class="cls-16" x="34.26" y="151.2">b</tspan><tspan class="cls-1" x="44.91" y="151.2">e</tspan><tspan class="cls-22" x="54.81" y="151.2">l</tspan><tspan class="cls-16" x="58.17" y="151.2">e</tspan><tspan class="cls-26" x="68.04" y="151.2">c</tspan><tspan class="cls-5" x="77.06" y="151.2">i</tspan><tspan class="cls-22" x="80.39" y="151.2">d</tspan><tspan class="cls-24" x="91.15" y="151.2">o</tspan><tspan class="cls-27" x="101.05" y="151.2">.</tspan></tspan></text>
</svg>