<?xml version="1.0" encoding="UTF-8"?>
<svg id="Layer_1" data-name="Layer 1" xmlns="http://www.w3.org/2000/svg" viewBox="0 0 366.28 305.38">
  <defs>
    <style>
      .cls-1 {
        letter-spacing: 0em;
      }

      .cls-2 {
        letter-spacing: 0em;
      }

      .cls-3 {
        letter-spacing: 0em;
      }

      .cls-4 {
        letter-spacing: -.01em;
      }

      .cls-5 {
        letter-spacing: 0em;
      }

      .cls-6 {
        letter-spacing: 0em;
      }

      .cls-7 {
        fill: #fff;
      }

      .cls-8 {
        letter-spacing: -.04em;
      }

      .cls-9 {
        letter-spacing: -.01em;
      }

      .cls-10 {
        letter-spacing: 0em;
      }

      .cls-11 {
        letter-spacing: -.03em;
      }

      .cls-12 {
        letter-spacing: 0em;
      }

      .cls-13 {
        letter-spacing: -.01em;
      }

      .cls-14 {
        letter-spacing: -.03em;
      }

      .cls-15 {
        font-family: UrbanistRoman-Bold, Urbanist;
        font-size: 23.99px;
        font-variation-settings: 'wght' 700;
        font-weight: 700;
      }

      .cls-16 {
        letter-spacing: -.03em;
      }

      .cls-17 {
        letter-spacing: -.04em;
      }

      .cls-18 {
        letter-spacing: -.03em;
      }

      .cls-19 {
        letter-spacing: -.02em;
      }

      .cls-20 {
        letter-spacing: -.02em;
      }

      .cls-21 {
        letter-spacing: 0em;
      }

      .cls-22 {
        letter-spacing: 0em;
      }

      .cls-23 {
        letter-spacing: 0em;
      }

      .cls-24 {
        letter-spacing: 0em;
      }

      .cls-25 {
        letter-spacing: -.02em;
      }

      .cls-26 {
        letter-spacing: .01em;
      }

      .cls-27 {
        letter-spacing: -.01em;
      }

      .cls-28 {
        letter-spacing: 0em;
      }

      .cls-29 {
        letter-spacing: 0em;
      }

      .cls-30 {
        letter-spacing: 0em;
      }

      .cls-31 {
        letter-spacing: 0em;
      }

      .cls-32 {
        font-family: Urbanist-Regular, Urbanist;
        font-size: 18px;
        font-variation-settings: 'wght' 400;
      }

      .cls-33 {
        letter-spacing: 0em;
      }

      .cls-34 {
        fill: #130044;
      }
    </style>
  </defs>
  <rect class="cls-34" x="0" y="0" width="366.28" height="305.38" rx="29.13" ry="29.13"/>
  <path class="cls-7" d="M36.82,77.6v-7.4c-2.82-2.91-4.36-6.58-4.36-10.36,0-.05,0-.09,0-.14-.61-.21-1.69-.68-2.81-1.69-1.7-1.53-2.03-3.33-2.04-3.4-.06-.35.17-.67.52-.73.35-.06.67.17.73.52,0,.01.26,1.44,1.64,2.67.77.69,1.52,1.09,2.04,1.3.87-8.3,9.08-14.83,19.05-14.83,4.33,0,8.12,1.02,11.27,3.05l3.59-1.91c.22-.12.49-.09.69.06.2.15.29.41.23.65l-.97,4.12c2.33,2.14,3.51,4.39,4.07,7.78h3.09c.1-.01.21-.02.31-.01h0s0,0,0,0c.05,0,.09,0,.14.01h.05c.1,0,.19.03.28.07.56.18,1.04.62,1.39,1.28.39.74.58,1.69.53,2.68-.11,2.2-1.32,3.87-2.76,3.79-.03,0-.06,0-.09,0-.04,0-.07,0-.11,0h-3.62c-.6,1.5-1.46,2.92-2.54,4.2v8.28c0,.35-.28.64-.64.64h-8.14c-.35,0-.64-.28-.64-.64v-2.32c-1.98.57-4.04.86-6.14.86-1.55,0-3.09-.16-4.59-.48v1.93c0,.35-.28.64-.64.64h-8.9c-.35,0-.64-.28-.64-.64ZM42.28,76.96v-3.28c0-.22.11-.42.29-.53.18-.12.41-.13.61-.05,2.57,1.16,5.47,1.77,8.4,1.77,2.26,0,4.47-.36,6.57-1.06.19-.07.41-.03.57.09.17.12.26.31.26.52v2.55s4.19,0,4.19,0v-5.39c0-.2.09-.39.25-.51,2.18-1.63,3.84-3.67,4.86-5.95h-1.7c-.18,0-1.41,0-2.5-.84l-.22.22c-.25.25-.65.25-.9,0-.25-.25-.25-.65,0-.9l.65-.65c.12-.12.29-.2.47-.19.17,0,.34.08.46.21.81.91,1.95.88,1.99.87.01,0,.02,0,.03,0h5.11c-.41-.73-.64-1.7-.58-2.77.05-.97.31-1.85.72-2.51h-1.9c-.32,0-.58-.23-.63-.55-.51-3.55-1.6-5.67-4.02-7.81l-2.84-2.38c-3-2.01-6.65-3.02-10.86-3.02-9.84,0-17.85,6.74-17.85,15.03,0,3.52,1.48,6.95,4.18,9.65.12.12.19.28.19.45v7.02s4.19,0,4.19,0h0ZM45.72,75.35c-.74-.2-1.46-.44-2.17-.72v2.33s2.17,0,2.17,0v-1.61ZM65.86,70.67c-.44.42-.91.83-1.41,1.21v5.07s1.41,0,1.41,0v-6.29ZM74.39,61.19c0-.37.23-.69.56-.81-.06-.43-.18-.83-.35-1.15-.19-.36-.43-.6-.66-.67-.01,0-.02,0-.03,0-.02,0-.04,0-.05,0h0s-.03,0-.05,0c-.02,0-.05,0-.07,0,0,0-.02,0-.02,0-.02,0-.04,0-.07.01-.23.06-.47.27-.68.59-.21.32-.37.73-.47,1.18.43.05.77.42.77.86s-.37.84-.83.87c.14.93.55,1.6.97,1.75.02,0,.03.01.05.02,0,0,.01,0,.02,0,.03,0,.06,0,.09.01.52.02,1.11-.73,1.34-1.86-.3-.14-.51-.44-.51-.79ZM72.38,61.13c0,.16,0,.32,0,.47h0c.22,0,.4-.18.4-.4s-.17-.39-.38-.4c-.01.11-.02.23-.03.34ZM74.85,61.19c0,.11.05.21.12.29,0-.07.01-.15.02-.22,0-.12,0-.25,0-.37-.08.07-.14.18-.14.3ZM63.95,47.44l1.36,1.14.5-2.12-1.85.98ZM61.44,55.28c0-1.09.89-1.99,1.99-1.99s1.99.89,1.99,1.99-.89,1.99-1.99,1.99-1.99-.89-1.99-1.99ZM62.71,55.28c0,.39.32.71.71.71s.71-.32.71-.71c0-.39-.32-.71-.71-.71s-.71.32-.71.71ZM55.2,54.03c0-.1,0-2.52.5-4.71.45-1.99.86-2.61.93-2.72.14-.19.37-.28.6-.25.08.01,1.94.28,3.27,1.59.88.87,1.38,1.94,1.4,1.99.14.32,0,.7-.32.84-.32.14-.7,0-.84-.31,0,0-.42-.91-1.13-1.61-.68-.67-1.59-1-2.12-1.14-.13.33-.34.92-.56,1.89-.46,2.05-.47,4.4-.47,4.43,0,.35-.28.64-.64.64h0c-.35,0-.64-.28-.64-.64ZM46.84,47.24c-.14-.32,0-.7.33-.84.07-.03,1.71-.73,4.01-.73s4.18.69,4.26.72c.33.12.5.49.38.82-.12.33-.49.5-.82.38-.02,0-1.77-.64-3.82-.64s-3.49.62-3.51.63h0c-.08.04-.17.05-.25.05-.25,0-.48-.14-.58-.38ZM46.8,36.57c0-2.5,2.03-4.53,4.53-4.53s4.53,2.03,4.53,4.53c0,2.5-2.03,4.53-4.53,4.53s-4.53-2.03-4.53-4.53ZM48.07,36.57c0,1.8,1.46,3.26,3.26,3.26s3.26-1.46,3.26-3.26-1.46-3.26-3.26-3.26-3.26,1.46-3.26,3.26Z"/>
  <text class="cls-7" transform="translate(27.59 119.7)"><tspan class="cls-15"><tspan class="cls-20" x="0" y="0">P</tspan><tspan class="cls-17" x="12.72" y="0">r</tspan><tspan class="cls-8" x="21.06" y="0">e</tspan><tspan class="cls-19" x="33.63" y="0">v</tspan><tspan class="cls-13" x="47.21" y="0">i</tspan><tspan class="cls-1" x="52.74" y="0">d</tspan><tspan class="cls-13" x="67.43" y="0">ê</tspan><tspan class="cls-21" x="80.57" y="0">n</tspan><tspan class="cls-25" x="93.72" y="0">c</tspan><tspan class="cls-13" x="105.49" y="0">i</tspan><tspan x="111.02" y="0">a </tspan><tspan class="cls-13" x="131.15" y="0">p</tspan><tspan class="cls-19" x="145.72" y="0">ri</tspan><tspan class="cls-8" x="160.02" y="0">v</tspan><tspan class="cls-21" x="173.11" y="0">a</tspan><tspan class="cls-1" x="187.24" y="0">d</tspan><tspan x="201.93" y="0">a</tspan></tspan><tspan class="cls-32"><tspan x="0" y="43.2">O</tspan><tspan class="cls-4" x="13.86" y="43.2">f</tspan><tspan class="cls-33" x="19.66" y="43.2">e</tspan><tspan class="cls-11" x="29.62" y="43.2">r</tspan><tspan class="cls-27" x="35.45" y="43.2">e</tspan><tspan class="cls-28" x="45.32" y="43.2">ç</tspan><tspan x="54.38" y="43.2">a a </tspan><tspan class="cls-22" x="83.93" y="43.2">p</tspan><tspan class="cls-24" x="94.57" y="43.2">o</tspan><tspan x="104.59" y="43.2">s</tspan><tspan class="cls-6" x="112.32" y="43.2">s</tspan><tspan class="cls-23" x="119.96" y="43.2">i</tspan><tspan class="cls-22" x="123.44" y="43.2">b</tspan><tspan class="cls-31" x="134.09" y="43.2">i</tspan><tspan x="137.57" y="43.2">l</tspan><tspan class="cls-6" x="140.99" y="43.2">i</tspan><tspan class="cls-5" x="144.32" y="43.2">d</tspan><tspan class="cls-27" x="155.09" y="43.2">a</tspan><tspan class="cls-24" x="165.37" y="43.2">d</tspan><tspan x="176.13" y="43.2">e </tspan><tspan class="cls-5" x="190.5" y="43.2">do</tspan><tspan x="211.28" y="43.2">s </tspan></tspan><tspan class="cls-32"><tspan class="cls-28" x="0" y="64.8">c</tspan><tspan class="cls-29" x="9.05" y="64.8">o</tspan><tspan class="cls-24" x="18.98" y="64.8">l</tspan><tspan class="cls-12" x="22.34" y="64.8">a</tspan><tspan class="cls-27" x="32.91" y="64.8">b</tspan><tspan class="cls-6" x="43.56" y="64.8">o</tspan><tspan class="cls-18" x="53.55" y="64.8">r</tspan><tspan class="cls-27" x="59.38" y="64.8">a</tspan><tspan class="cls-5" x="69.66" y="64.8">d</tspan><tspan class="cls-6" x="80.42" y="64.8">o</tspan><tspan class="cls-11" x="90.41" y="64.8">r</tspan><tspan class="cls-24" x="96.25" y="64.8">e</tspan><tspan x="106.24" y="64.8">s </tspan><tspan class="cls-10" x="118.29" y="64.8">i</tspan><tspan class="cls-22" x="121.68" y="64.8">n</tspan><tspan class="cls-14" x="131.15" y="64.8">v</tspan><tspan class="cls-24" x="139.92" y="64.8">e</tspan><tspan x="149.91" y="64.8">s</tspan><tspan class="cls-24" x="157.64" y="64.8">t</tspan><tspan class="cls-10" x="163.79" y="64.8">i</tspan><tspan class="cls-18" x="167.18" y="64.8">r</tspan><tspan class="cls-6" x="173.02" y="64.8">e</tspan><tspan x="182.98" y="64.8">m </tspan><tspan class="cls-27" x="203.29" y="64.8">n</tspan><tspan x="212.76" y="64.8">o </tspan><tspan class="cls-26" x="227.16" y="64.8">f</tspan><tspan class="cls-30" x="233.41" y="64.8">utu</tspan><tspan class="cls-11" x="258.19" y="64.8">r</tspan><tspan x="264.02" y="64.8">o </tspan></tspan><tspan class="cls-32"><tspan class="cls-24" x="0" y="86.4">d</tspan><tspan class="cls-29" x="10.76" y="86.4">e</tspan><tspan class="cls-24" x="20.66" y="86.4">le</tspan><tspan x="34.01" y="86.4">s e s</tspan><tspan class="cls-24" x="68.16" y="86.4">u</tspan><tspan x="77.39" y="86.4">as </tspan><tspan class="cls-9" x="99.9" y="86.4">f</tspan><tspan x="105.69" y="86.4">am</tspan><tspan class="cls-23" x="132.15" y="86.4">í</tspan><tspan x="135.63" y="86.4">l</tspan><tspan class="cls-6" x="139.05" y="86.4">i</tspan><tspan x="142.38" y="86.4">as </tspan><tspan class="cls-28" x="164.89" y="86.4">c</tspan><tspan class="cls-6" x="173.94" y="86.4">o</tspan><tspan x="183.93" y="86.4">m a </tspan></tspan><tspan class="cls-32"><tspan class="cls-6" x="0" y="108">p</tspan><tspan class="cls-11" x="10.73" y="108">r</tspan><tspan class="cls-16" x="16.56" y="108">e</tspan><tspan class="cls-28" x="26.14" y="108">v</tspan><tspan class="cls-6" x="35.27" y="108">i</tspan><tspan class="cls-24" x="38.6" y="108">d</tspan><tspan class="cls-6" x="49.37" y="108">ê</tspan><tspan class="cls-22" x="59.33" y="108">n</tspan><tspan class="cls-2" x="68.8" y="108">c</tspan><tspan class="cls-6" x="77.81" y="108">i</tspan><tspan x="81.14" y="108">a </tspan><tspan class="cls-33" x="95.92" y="108">p</tspan><tspan class="cls-3" x="106.65" y="108">ri</tspan><tspan class="cls-16" x="116.27" y="108">v</tspan><tspan class="cls-27" x="125.05" y="108">a</tspan><tspan class="cls-5" x="135.32" y="108">d</tspan><tspan x="146.09" y="108">a..</tspan></tspan></text>
</svg>