<?xml version="1.0" encoding="UTF-8"?>
<svg id="Layer_1" data-name="Layer 1" xmlns="http://www.w3.org/2000/svg" viewBox="0 0 366.28 305.38">
  <defs>
    <style>
      .cls-1 {
        letter-spacing: 0em;
      }

      .cls-2 {
        letter-spacing: -.02em;
      }

      .cls-3 {
        letter-spacing: -.02em;
      }

      .cls-4 {
        letter-spacing: -.04em;
      }

      .cls-5 {
        letter-spacing: 0em;
      }

      .cls-6, .cls-7 {
        fill: #fff;
      }

      .cls-7 {
        fill-rule: evenodd;
      }

      .cls-8 {
        font-family: UrbanistRoman-Bold, Urbanist;
        font-size: 20px;
        font-variation-settings: 'wght' 700;
        font-weight: 700;
      }

      .cls-9 {
        letter-spacing: -.03em;
      }

      .cls-10 {
        letter-spacing: 0em;
      }

      .cls-11 {
        letter-spacing: -.04em;
      }

      .cls-12 {
        letter-spacing: 0em;
      }

      .cls-13 {
        letter-spacing: -.03em;
      }

      .cls-14 {
        letter-spacing: -.03em;
      }

      .cls-15 {
        letter-spacing: -.02em;
      }

      .cls-16 {
        letter-spacing: 0em;
      }

      .cls-17 {
        letter-spacing: -.01em;
      }

      .cls-18 {
        letter-spacing: -.01em;
      }

      .cls-19 {
        letter-spacing: 0em;
      }

      .cls-20 {
        letter-spacing: 0em;
      }

      .cls-21 {
        letter-spacing: -.03em;
      }

      .cls-22 {
        letter-spacing: -.02em;
      }

      .cls-23 {
        letter-spacing: -.04em;
      }

      .cls-24 {
        letter-spacing: -.01em;
      }

      .cls-25 {
        letter-spacing: -.01em;
      }

      .cls-26 {
        letter-spacing: 0em;
      }

      .cls-27 {
        letter-spacing: 0em;
      }

      .cls-28 {
        letter-spacing: 0em;
      }

      .cls-29 {
        letter-spacing: -.01em;
      }

      .cls-30 {
        letter-spacing: 0em;
      }

      .cls-31 {
        letter-spacing: 0em;
      }

      .cls-32 {
        letter-spacing: 0em;
      }

      .cls-33 {
        font-family: Urbanist-Regular, Urbanist;
        font-size: 18px;
        font-variation-settings: 'wght' 400;
      }

      .cls-34 {
        letter-spacing: 0em;
      }

      .cls-35 {
        fill: #130044;
      }
    </style>
  </defs>
  <rect class="cls-35" x="0" y="0" width="366.28" height="305.38" rx="29.13" ry="29.13"/>
  <g>
    <path class="cls-7" d="M59.74,44.51v-6.49c0-1.28-.51-2.51-1.41-3.41-.9-.9-2.13-1.41-3.41-1.41h-22.51c-1.28,0-2.51.51-3.41,1.41-.91.91-1.41,2.13-1.41,3.41v35.39c0,1.28.51,2.51,1.41,3.41.9.91,2.13,1.41,3.41,1.41h22.51c.89,0,1.61-.72,1.61-1.61s-.72-1.61-1.61-1.61h-22.51c-.43,0-.83-.17-1.14-.47s-.47-.71-.47-1.14v-35.39c0-.43.17-.84.47-1.14.3-.3.71-.47,1.14-.47h22.51c.43,0,.84.17,1.14.47.3.3.47.71.47,1.14v6.49c0,.89.72,1.61,1.61,1.61s1.61-.72,1.61-1.61h0Z"/>
    <path class="cls-7" d="M42.06,42.91h-1.59c-.89,0-1.61.72-1.61,1.61s.72,1.61,1.61,1.61h1.59v1.58c0,.89.72,1.61,1.6,1.61.89,0,1.61-.72,1.61-1.61v-1.59h1.59c.89,0,1.61-.72,1.61-1.61s-.72-1.61-1.61-1.61h-1.59v-1.59c0-.89-.72-1.61-1.6-1.61-.89,0-1.61.72-1.61,1.6v1.59h0Z"/>
    <path class="cls-7" d="M62.97,65.39v-11.28c0-2.66-2.16-4.82-4.82-4.82h-6.43c-2.66,0-4.82,2.16-4.82,4.82v11.28c0,.51.24.99.65,1.29l6.47,4.82c.57.43,1.36.42,1.93,0l6.4-4.82c.4-.3.64-.78.64-1.28h0ZM59.76,54.11v10.48l-4.79,3.61-4.85-3.62v-10.48c0-.89.72-1.61,1.61-1.61h6.43c.89,0,1.61.72,1.61,1.61h0Z"/>
    <path class="cls-7" d="M35.63,57.31h6.44c.89,0,1.61-.71,1.61-1.6,0-.89-.72-1.61-1.61-1.61h-6.44c-.89,0-1.61.71-1.61,1.6,0,.89.72,1.61,1.61,1.61Z"/>
    <path class="cls-7" d="M35.64,63.74h6.44c.89,0,1.61-.71,1.61-1.6,0-.89-.72-1.61-1.61-1.61h-6.44c-.89,0-1.61.71-1.61,1.6,0,.89.72,1.61,1.61,1.61h0Z"/>
    <path class="cls-7" d="M35.63,70.17h6.44c.89,0,1.61-.71,1.61-1.6,0-.89-.72-1.61-1.61-1.61h-6.44c-.89,0-1.61.71-1.61,1.6,0,.89.72,1.61,1.61,1.61Z"/>
  </g>
  <text class="cls-6" transform="translate(27.59 116.71)"><tspan class="cls-8"><tspan class="cls-22" x="0" y="0">D</tspan><tspan class="cls-26" x="13.13" y="0">e</tspan><tspan x="24.17" y="0">s</tspan><tspan class="cls-29" x="32.86" y="0">p</tspan><tspan class="cls-26" x="45.04" y="0">es</tspan><tspan x="64.62" y="0">as </tspan><tspan class="cls-29" x="90.09" y="0">mé</tspan><tspan x="118.65" y="0">d</tspan><tspan class="cls-18" x="131.05" y="0">i</tspan><tspan class="cls-22" x="135.66" y="0">c</tspan><tspan x="145.55" y="0">o-</tspan><tspan class="cls-29" x="165.55" y="0">h</tspan><tspan class="cls-28" x="176.51" y="0">o</tspan><tspan x="187.56" y="0">s</tspan><tspan class="cls-15" x="196.25" y="0">p</tspan><tspan x="208.17" y="0">i</tspan><tspan class="cls-25" x="213.01" y="0">t</tspan><tspan class="cls-10" x="219.95" y="0">a</tspan><tspan class="cls-26" x="231.98" y="0">l</tspan><tspan x="236.67" y="0">a</tspan><tspan class="cls-23" x="248.65" y="0">r</tspan><tspan class="cls-26" x="255.6" y="0">e</tspan><tspan x="266.64" y="0">s </tspan></tspan><tspan class="cls-8"><tspan x="0" y="24">e </tspan><tspan class="cls-20" x="15.99" y="24">o</tspan><tspan class="cls-26" x="26.99" y="24">d</tspan><tspan class="cls-18" x="39.24" y="24">o</tspan><tspan x="50.21" y="24">n</tspan><tspan class="cls-25" x="61.37" y="24">t</tspan><tspan class="cls-2" x="68.31" y="24">o</tspan><tspan class="cls-26" x="79.13" y="24">l</tspan><tspan class="cls-20" x="83.82" y="24">ó</tspan><tspan class="cls-18" x="94.82" y="24">gi</tspan><tspan class="cls-3" x="111.46" y="24">c</tspan><tspan x="121.35" y="24">as</tspan></tspan><tspan class="cls-33"><tspan class="cls-21" x="0" y="67.2">C</tspan><tspan class="cls-31" x="12.13" y="67.2">o</tspan><tspan class="cls-29" x="22.06" y="67.2">b</tspan><tspan class="cls-5" x="32.71" y="67.2">e</tspan><tspan class="cls-32" x="42.67" y="67.2">rtu</tspan><tspan class="cls-14" x="64.6" y="67.2">r</tspan><tspan x="70.43" y="67.2">a </tspan><tspan class="cls-29" x="85.21" y="67.2">a</tspan><tspan x="95.49" y="67.2">d</tspan><tspan class="cls-5" x="106.32" y="67.2">i</tspan><tspan class="cls-31" x="109.65" y="67.2">c</tspan><tspan class="cls-5" x="118.66" y="67.2">io</tspan><tspan class="cls-19" x="131.98" y="67.2">n</tspan><tspan class="cls-12" x="141.45" y="67.2">a</tspan><tspan x="152.03" y="67.2">l: </tspan><tspan class="cls-9" x="163.01" y="67.2">r</tspan><tspan class="cls-19" x="168.84" y="67.2">e</tspan><tspan class="cls-5" x="178.71" y="67.2">e</tspan><tspan class="cls-12" x="188.68" y="67.2">m</tspan><tspan class="cls-29" x="204.78" y="67.2">b</tspan><tspan class="cls-31" x="215.43" y="67.2">o</tspan><tspan x="225.36" y="67.2">l</tspan><tspan class="cls-27" x="228.78" y="67.2">s</tspan><tspan x="236.45" y="67.2">o </tspan></tspan><tspan class="cls-33"><tspan class="cls-27" x="0" y="88.8">d</tspan><tspan x="10.76" y="88.8">as </tspan><tspan class="cls-27" x="33.27" y="88.8">de</tspan><tspan x="54.03" y="88.8">s</tspan><tspan class="cls-29" x="61.76" y="88.8">p</tspan><tspan class="cls-27" x="72.4" y="88.8">es</tspan><tspan x="90.05" y="88.8">as </tspan><tspan class="cls-30" x="112.56" y="88.8">c</tspan><tspan class="cls-34" x="121.62" y="88.8">o</tspan><tspan class="cls-16" x="131.61" y="88.8">m t</tspan><tspan class="cls-9" x="158.13" y="88.8">r</tspan><tspan x="163.96" y="88.8">a</tspan><tspan class="cls-24" x="174.42" y="88.8">t</tspan><tspan x="180.39" y="88.8">a</tspan><tspan class="cls-29" x="190.84" y="88.8">m</tspan><tspan class="cls-5" x="206.66" y="88.8">e</tspan><tspan x="216.62" y="88.8">n</tspan><tspan class="cls-24" x="226.27" y="88.8">t</tspan><tspan x="232.23" y="88.8">o </tspan></tspan><tspan class="cls-33"><tspan class="cls-4" x="0" y="110.4">e</tspan><tspan class="cls-11" x="9.33" y="110.4">x</tspan><tspan class="cls-30" x="18.26" y="110.4">c</tspan><tspan x="27.31" y="110.4">lu</tspan><tspan class="cls-5" x="40.02" y="110.4">s</tspan><tspan class="cls-30" x="47.66" y="110.4">i</tspan><tspan class="cls-13" x="50.97" y="110.4">v</tspan><tspan x="59.74" y="110.4">a</tspan><tspan class="cls-29" x="70.2" y="110.4">m</tspan><tspan class="cls-5" x="86.01" y="110.4">e</tspan><tspan x="95.98" y="110.4">n</tspan><tspan class="cls-24" x="105.62" y="110.4">t</tspan><tspan x="111.59" y="110.4">e </tspan><tspan class="cls-5" x="125.96" y="110.4">e</tspan><tspan x="135.93" y="110.4">m </tspan><tspan class="cls-30" x="156.24" y="110.4">c</tspan><tspan class="cls-5" x="165.29" y="110.4">o</tspan><tspan x="175.28" y="110.4">n</tspan><tspan class="cls-27" x="184.93" y="110.4">s</tspan><tspan class="cls-19" x="192.6" y="110.4">e</tspan><tspan class="cls-30" x="202.47" y="110.4">q</tspan><tspan class="cls-27" x="213.17" y="110.4">u</tspan><tspan class="cls-5" x="222.4" y="110.4">ê</tspan><tspan class="cls-19" x="232.36" y="110.4">n</tspan><tspan class="cls-1" x="241.83" y="110.4">c</tspan><tspan class="cls-5" x="250.85" y="110.4">i</tspan><tspan x="254.18" y="110.4">a </tspan></tspan><tspan class="cls-33"><tspan class="cls-27" x="0" y="132">d</tspan><tspan x="10.76" y="132">e </tspan><tspan class="cls-19" x="25.14" y="132">a</tspan><tspan class="cls-1" x="35.41" y="132">c</tspan><tspan class="cls-34" x="44.43" y="132">i</tspan><tspan class="cls-27" x="47.76" y="132">d</tspan><tspan class="cls-5" x="58.53" y="132">e</tspan><tspan x="68.49" y="132">n</tspan><tspan class="cls-24" x="78.14" y="132">t</tspan><tspan x="84.1" y="132">e </tspan><tspan class="cls-30" x="98.48" y="132">c</tspan><tspan class="cls-31" x="107.53" y="132">o</tspan><tspan class="cls-19" x="117.46" y="132">b</tspan><tspan class="cls-5" x="128.1" y="132">e</tspan><tspan x="138.07" y="132">r</tspan><tspan class="cls-17" x="144.5" y="132">t</tspan><tspan class="cls-19" x="150.47" y="132">o</tspan><tspan x="160.37" y="132">.</tspan></tspan></text>
</svg>