<?xml version="1.0" encoding="UTF-8"?>
<svg id="Layer_1" data-name="Layer 1" xmlns="http://www.w3.org/2000/svg" viewBox="0 0 366.28 305.38">
  <defs>
    <style>
      .cls-1 {
        letter-spacing: -.02em;
      }

      .cls-2 {
        letter-spacing: -.02em;
      }

      .cls-3, .cls-4 {
        fill: #5b1112;
      }

      .cls-4 {
        font-family: UrbanistRoman-Bold, Urbanist;
        font-size: 20px;
        font-variation-settings: 'wght' 700;
        font-weight: 700;
      }

      .cls-5 {
        letter-spacing: -.01em;
      }

      .cls-6 {
        letter-spacing: -.02em;
      }

      .cls-7 {
        letter-spacing: -.04em;
      }

      .cls-8 {
        letter-spacing: 0em;
      }

      .cls-9 {
        letter-spacing: -.01em;
      }

      .cls-10 {
        letter-spacing: 0em;
      }

      .cls-11 {
        letter-spacing: 0em;
      }

      .cls-12 {
        letter-spacing: -.04em;
      }

      .cls-13 {
        letter-spacing: -.01em;
      }

      .cls-14 {
        letter-spacing: 0em;
      }

      .cls-15 {
        letter-spacing: 0em;
      }

      .cls-16 {
        letter-spacing: 0em;
      }

      .cls-17 {
        letter-spacing: -.01em;
      }

      .cls-18 {
        fill: #130044;
      }
    </style>
  </defs>
  <path class="cls-18" d="M337.15,8.99c11.1,0,20.13,9.03,20.13,20.14v247.12c0,11.1-9.03,20.14-20.13,20.14H29.13c-11.1,0-20.13-9.03-20.13-20.14V29.13c0-11.1,9.03-20.14,20.13-20.14h308.02M337.15,0H29.13C13.11,0,0,13.11,0,29.13v247.12c0,16.02,13.11,29.13,29.13,29.13h308.02c16.02,0,29.13-13.11,29.13-29.13V29.13C366.28,13.11,353.18,0,337.15,0h0Z"/>
  <text class="cls-4" transform="translate(27.59 271.2)"><tspan class="cls-7" x="0" y="0">A</tspan><tspan x="13.72" y="0">s</tspan><tspan class="cls-9" x="22.41" y="0">s</tspan><tspan class="cls-14" x="30.87" y="0">i</tspan><tspan x="35.56" y="0">s</tspan><tspan class="cls-13" x="44.25" y="0">t</tspan><tspan class="cls-5" x="51.19" y="0">ê</tspan><tspan class="cls-17" x="62.15" y="0">n</tspan><tspan class="cls-1" x="73.11" y="0">c</tspan><tspan class="cls-9" x="82.93" y="0">i</tspan><tspan class="cls-15" x="87.54" y="0">a </tspan><tspan class="cls-6" x="104.32" y="0">F</tspan><tspan x="113.56" y="0">u</tspan><tspan class="cls-10" x="124.32" y="0">n</tspan><tspan class="cls-9" x="135.28" y="0">e</tspan><tspan class="cls-12" x="146.24" y="0">r</tspan><tspan class="cls-8" x="153.19" y="0">a</tspan><tspan x="165.22" y="0">l I</tspan><tspan class="cls-10" x="180.3" y="0">n</tspan><tspan x="191.26" y="0">d</tspan><tspan class="cls-2" x="203.66" y="0">iv</tspan><tspan class="cls-9" x="219.51" y="0">i</tspan><tspan x="224.12" y="0">d</tspan><tspan class="cls-16" x="236.52" y="0">u</tspan><tspan class="cls-11" x="247.13" y="0">a</tspan><tspan x="259.16" y="0">l</tspan></text>
  <polygon class="cls-3" points="338.69 262.6 330.04 262.6 330.04 253.95 324.38 253.95 324.38 262.6 315.73 262.6 315.73 268.27 324.38 268.27 324.38 276.92 330.04 276.92 330.04 268.27 338.69 268.27 338.69 262.6"/>
  <path class="cls-3" d="M59.61,32.04l-1.17,1.28c-2.61,2.88-4.77,4.16-6.56,5-1.79.84-3.3,1.09-4.78,2.22-1.58,1.21-3.87,3.53-4.84,7.67-2.07.45-3.59,1.24-4.78,2.28-1.18,1.02-2.07,2.18-3.17,3.45,0,.01,0,.04,0,.06-1.57,1.81-2.95,3.75-5.61,4.78l-1.11.44v19.01h33.91c1.95-.1,3.29-1.45,4.11-2.78s1.27-2.77,1.5-3.95c.59-3.01,1.67-11.67,1.67-11.67l.06-.17v-.17c-.06-1.2-.55-2.22-1.17-3.17l2-5.95,3.17-4.78.89-1.28-1.17-1.06-11.67-10.12-1.28-1.11ZM59.72,36.93l9.28,8.06-2.45,3.61-.17.17-.06.28-1.61,4.78c-.84-.35-1.71-.59-2.67-.56h-.11l-11.23.06h-1.78v6.89c-.25,1.94-1.33,2.69-2.67,3.22-.44.18-.5.08-.89.17v-10.34c-.29-6.59,2.06-8.49,3.89-9.89.51-.39,1.99-.84,4.11-1.83,1.77-.83,3.97-2.33,6.34-4.61ZM41.93,52.22c0,.4-.13.69-.11,1.11v14.23h1.78s1.9-.02,3.95-.83c2.04-.81,4.51-2.72,4.95-6.06v-3.78l9.56-.06h.06c1.64-.09,3,1.15,3.11,2.78,0,.03-.09.69-.11.83h-7.28v3.56h6.84c-.19,1.38-.36,2.24-.56,3.56h-6.28v3.56h5.73c-.19.79-.56,1.74-1,2.45-.49.79-.9,1.09-1.28,1.11h-30.13v-13.29c2.88-1.53,4.68-3.73,5.84-5.06,1.2-1.38,2.03-2.42,2.83-3.11.53-.45,1.35-.71,2.11-1Z"/>
</svg>