<?xml version="1.0" encoding="UTF-8"?>
<svg id="Layer_1" data-name="Layer 1" xmlns="http://www.w3.org/2000/svg" viewBox="0 0 366.28 305.38">
  <defs>
    <style>
      .cls-1 {
        letter-spacing: 0em;
      }

      .cls-2 {
        letter-spacing: 0em;
      }

      .cls-3 {
        letter-spacing: -.01em;
      }

      .cls-4 {
        letter-spacing: -.07em;
      }

      .cls-5 {
        font-family: UrbanistRoman-Bold, Urbanist;
        font-size: 23.99px;
        font-variation-settings: 'wght' 700;
        font-weight: 700;
      }

      .cls-5, .cls-6 {
        fill: #130044;
      }

      .cls-7 {
        letter-spacing: -.04em;
      }

      .cls-8 {
        letter-spacing: -.01em;
      }

      .cls-9 {
        letter-spacing: -.01em;
      }
    </style>
  </defs>
  <path class="cls-6" d="M337.15,8.99c11.1,0,20.14,9.03,20.14,20.14v247.12c0,11.1-9.03,20.14-20.14,20.14H29.13c-11.1,0-20.14-9.03-20.14-20.14V29.13c0-11.1,9.03-20.14,20.14-20.14h308.02M337.15,0H29.13C13.11,0,0,13.11,0,29.13v247.12c0,16.02,13.11,29.13,29.13,29.13h308.02c16.02,0,29.13-13.11,29.13-29.13V29.13C366.28,13.11,353.18,0,337.15,0h0Z"/>
  <text class="cls-5" transform="translate(27.59 271.94)"><tspan class="cls-4" x="0" y="0">T</tspan><tspan class="cls-7" x="13.54" y="0">r</tspan><tspan x="21.88" y="0">ans</tspan><tspan class="cls-8" x="60.05" y="0">p</tspan><tspan class="cls-3" x="74.66" y="0">o</tspan><tspan x="87.82" y="0">r</tspan><tspan class="cls-9" x="97.05" y="0">t</tspan><tspan x="105.37" y="0">e </tspan><tspan class="cls-1" x="124.55" y="0">d</tspan><tspan x="139.24" y="0">e </tspan><tspan class="cls-2" x="158.42" y="0">p</tspan><tspan class="cls-9" x="173.03" y="0">e</tspan><tspan x="186.18" y="0">t</tspan></text>
  <polygon class="cls-6" points="338.69 262.6 330.04 262.6 330.04 253.95 324.38 253.95 324.38 262.6 315.73 262.6 315.73 268.27 324.38 268.27 324.38 276.92 330.04 276.92 330.04 268.27 338.69 268.27 338.69 262.6"/>
  <path class="cls-6" d="M42.24,44.69h2.13v7.39h-2.13v-7.39ZM36.73,52.08h2.13v-7.39h-2.13v7.39ZM66.4,44.69h-2.13v7.39h2.13v-7.39ZM71.91,44.69h-2.13v7.39h2.13v-7.39ZM55.39,44.69h-2.13v5.72h2.13v-5.72ZM47.75,52.08h2.13v-7.39h-2.13v7.39ZM60.89,44.69h-2.13v7.39h2.13v-7.39ZM60.89,65.77h-2.13v7.39h2.13v-7.39ZM66.4,65.77h-2.13v7.39h2.13v-7.39ZM81.05,55.15v7.37h-1.22v2.53l-2.58,13.18H31.39l-2.58-13.18v-2.53h-1.22v-7.37h1.22v-2.63l5.11-13.09h9.47v-1.6l2.26-5.8h17.33l2.26,5.8v1.6h9.47l5.11,13.09v2.63h1.22ZM45.53,39.43h17.59v-1.2l-1.59-4.06h-14.41l-1.59,4.06v1.2ZM30.94,55.15h19.76c.93-.92,2.21-1.48,3.62-1.48s2.69.57,3.62,1.48h19.76v-2.22l-4.44-11.36h-37.88l-4.44,11.36v2.22ZM54.32,55.8c-1.67,0-3.04,1.36-3.04,3.04s1.36,3.04,3.04,3.04,3.04-1.36,3.04-3.04-1.36-3.04-3.04-3.04ZM29.73,60.39h19.66c-.15-.49-.24-1.01-.24-1.55s.08-1.06.24-1.55h-19.66v3.11ZM77.7,62.52h-19.76c-.93.92-2.21,1.48-3.62,1.48s-2.69-.57-3.62-1.48h-19.76v2.32l2.2,11.26h42.35l2.2-11.26v-2.32h0ZM78.91,57.28h-19.66c.15.49.24,1.01.24,1.55s-.08,1.06-.24,1.55h19.66v-3.11ZM36.73,73.16h2.13v-7.39h-2.13v7.39ZM71.91,65.77h-2.13v7.39h2.13v-7.39ZM42.24,73.16h2.13v-7.39h-2.13v7.39ZM47.75,73.16h2.13v-7.39h-2.13v7.39ZM53.25,73.16h2.13v-5.72h-2.13v5.72Z"/>
</svg>