<?xml version="1.0" encoding="UTF-8"?>
<svg id="Layer_1" data-name="Layer 1" xmlns="http://www.w3.org/2000/svg" viewBox="0 0 366.28 305.38">
  <defs>
    <style>
      .cls-1 {
        letter-spacing: 0em;
      }

      .cls-2 {
        letter-spacing: 0em;
      }

      .cls-3 {
        letter-spacing: 0em;
      }

      .cls-4, .cls-5 {
        fill: #fff;
      }

      .cls-5 {
        fill-rule: evenodd;
      }

      .cls-6 {
        letter-spacing: 0em;
      }

      .cls-7 {
        letter-spacing: -.03em;
      }

      .cls-8 {
        letter-spacing: -.01em;
      }

      .cls-9 {
        font-family: UrbanistRoman-Bold, Urbanist;
        font-size: 23.99px;
        font-variation-settings: 'wght' 700;
        font-weight: 700;
      }

      .cls-10 {
        letter-spacing: -.02em;
      }

      .cls-11 {
        letter-spacing: 0em;
      }

      .cls-12 {
        letter-spacing: -.02em;
      }

      .cls-13 {
        letter-spacing: 0em;
      }

      .cls-14 {
        letter-spacing: -.01em;
      }

      .cls-15 {
        letter-spacing: 0em;
      }

      .cls-16 {
        letter-spacing: -.01em;
      }

      .cls-17 {
        letter-spacing: 0em;
      }

      .cls-18 {
        letter-spacing: 0em;
      }

      .cls-19 {
        font-family: Urbanist-Regular, Urbanist;
        font-size: 18px;
        font-variation-settings: 'wght' 400;
      }

      .cls-20 {
        fill: #130044;
      }

      .cls-21 {
        letter-spacing: -.01em;
      }
    </style>
  </defs>
  <rect class="cls-20" x="0" y="0" width="366.28" height="305.38" rx="29.13" ry="29.13"/>
  <path class="cls-5" d="M44.94,28.07c.92.25,1.55,1.08,1.55,2.03v14.7h12.6c.75,0,1.45.4,1.82,1.05.37.65.37,1.45,0,2.1l-14.7,25.2c-.48.82-1.45,1.22-2.36.97-.92-.25-1.55-1.08-1.55-2.03v-14.7h-12.6c-.75,0-1.45-.4-1.82-1.05-.37-.65-.37-1.45,0-2.1l14.7-25.2c.48-.82,1.45-1.22,2.36-.97ZM33.35,53.2h11.04c1.16,0,2.1.94,2.1,2.1v9.03l8.94-15.33h-11.04c-1.16,0-2.1-.94-2.1-2.1v-9.03l-8.94,15.33Z"/>
  <text class="cls-4" transform="translate(27.59 119.7)"><tspan class="cls-9"><tspan class="cls-10" x="0" y="0">D</tspan><tspan x="15.75" y="0">a</tspan><tspan class="cls-11" x="30.11" y="0">n</tspan><tspan class="cls-1" x="43.26" y="0">o</tspan><tspan x="56.51" y="0">s </tspan><tspan class="cls-12" x="72.69" y="0">e</tspan><tspan class="cls-1" x="85.65" y="0">l</tspan><tspan class="cls-21" x="91.28" y="0">é</tspan><tspan x="104.44" y="0">t</tspan><tspan class="cls-10" x="113.02" y="0">r</tspan><tspan class="cls-8" x="121.89" y="0">i</tspan><tspan class="cls-10" x="127.42" y="0">c</tspan><tspan class="cls-1" x="139.28" y="0">o</tspan><tspan x="152.53" y="0">s</tspan></tspan><tspan class="cls-19"><tspan class="cls-17" x="0" y="43.2">G</tspan><tspan x="13.71" y="43.2">a</tspan><tspan class="cls-7" x="24.17" y="43.2">r</tspan><tspan x="30" y="43.2">an</tspan><tspan class="cls-15" x="50.1" y="43.2">t</tspan><tspan class="cls-3" x="56.25" y="43.2">i</tspan><tspan x="59.58" y="43.2">a </tspan><tspan class="cls-16" x="74.36" y="43.2">p</tspan><tspan x="85" y="43.2">a</tspan><tspan class="cls-7" x="95.45" y="43.2">r</tspan><tspan x="101.29" y="43.2">a a</tspan><tspan class="cls-13" x="126.52" y="43.2">p</tspan><tspan x="137.16" y="43.2">a</tspan><tspan class="cls-7" x="147.62" y="43.2">r</tspan><tspan class="cls-18" x="153.45" y="43.2">e</tspan><tspan x="163.35" y="43.2">l</tspan><tspan class="cls-13" x="166.77" y="43.2">h</tspan><tspan class="cls-15" x="176.24" y="43.2">o</tspan><tspan x="186.26" y="43.2">s </tspan></tspan><tspan class="cls-19"><tspan class="cls-18" x="0" y="64.8">e</tspan><tspan class="cls-15" x="9.9" y="64.8">l</tspan><tspan class="cls-14" x="13.26" y="64.8">e</tspan><tspan x="23.07" y="64.8">t</tspan><tspan class="cls-7" x="29.28" y="64.8">r</tspan><tspan class="cls-3" x="35.11" y="64.8">ô</tspan><tspan x="45.1" y="64.8">n</tspan><tspan class="cls-3" x="54.75" y="64.8">i</tspan><tspan class="cls-17" x="58.08" y="64.8">c</tspan><tspan class="cls-15" x="67.13" y="64.8">o</tspan><tspan x="77.15" y="64.8">s e </tspan><tspan class="cls-18" x="103.57" y="64.8">e</tspan><tspan class="cls-15" x="113.47" y="64.8">l</tspan><tspan class="cls-14" x="116.83" y="64.8">e</tspan><tspan x="126.64" y="64.8">t</tspan><tspan class="cls-7" x="132.85" y="64.8">r</tspan><tspan class="cls-13" x="138.68" y="64.8">o</tspan><tspan class="cls-15" x="148.58" y="64.8">d</tspan><tspan class="cls-3" x="159.34" y="64.8">o</tspan><tspan class="cls-16" x="169.33" y="64.8">m</tspan><tspan class="cls-2" x="185.15" y="64.8">é</tspan><tspan x="195.14" y="64.8">s</tspan><tspan class="cls-15" x="202.87" y="64.8">t</tspan><tspan class="cls-3" x="209.02" y="64.8">i</tspan><tspan class="cls-17" x="212.35" y="64.8">c</tspan><tspan class="cls-15" x="221.4" y="64.8">o</tspan><tspan x="231.42" y="64.8">s </tspan></tspan><tspan class="cls-19"><tspan class="cls-17" x="0" y="86.4">q</tspan><tspan class="cls-15" x="10.7" y="86.4">u</tspan><tspan class="cls-13" x="19.93" y="86.4">e</tspan><tspan class="cls-6" x="29.8" y="86.4">i</tspan><tspan class="cls-16" x="33.19" y="86.4">ma</tspan><tspan class="cls-15" x="59.28" y="86.4">do</tspan><tspan class="cls-6" x="80.06" y="86.4">s</tspan><tspan x="87.77" y="86.4">.</tspan></tspan></text>
</svg>