<?xml version="1.0" encoding="UTF-8"?>
<svg id="Layer_1" data-name="Layer 1" xmlns="http://www.w3.org/2000/svg" viewBox="0 0 366.28 305.38">
  <defs>
    <style>
      .cls-1 {
        letter-spacing: -.01em;
      }

      .cls-2 {
        letter-spacing: 0em;
      }

      .cls-3 {
        letter-spacing: -.01em;
      }

      .cls-4 {
        letter-spacing: -.02em;
      }

      .cls-5 {
        letter-spacing: 0em;
      }

      .cls-6 {
        letter-spacing: -.04em;
      }

      .cls-7 {
        letter-spacing: -.04em;
      }

      .cls-8 {
        font-family: UrbanistRoman-Bold, Urbanist;
        font-size: 23.99px;
        font-variation-settings: 'wght' 700;
        font-weight: 700;
      }

      .cls-8, .cls-9 {
        fill: #130044;
      }

      .cls-10 {
        letter-spacing: -.07em;
      }

      .cls-11 {
        letter-spacing: -.01em;
      }
    </style>
  </defs>
  <path class="cls-9" d="M337.15,8.99c11.1,0,20.13,9.03,20.13,20.14v247.12c0,11.1-9.03,20.14-20.13,20.14H29.13c-11.1,0-20.13-9.03-20.13-20.14V29.13c0-11.1,9.03-20.14,20.13-20.14h308.02M337.15,0H29.13C13.11,0,0,13.11,0,29.13v247.12c0,16.02,13.11,29.13,29.13,29.13h308.02c16.02,0,29.13-13.11,29.13-29.13V29.13C366.28,13.11,353.18,0,337.15,0h0Z"/>
  <text class="cls-8" transform="translate(27.59 274.19)"><tspan class="cls-10" x="0" y="0">T</tspan><tspan class="cls-6" x="13.54" y="0">r</tspan><tspan x="21.88" y="0">a</tspan><tspan class="cls-11" x="36.24" y="0">t</tspan><tspan x="44.57" y="0">a</tspan><tspan class="cls-5" x="58.93" y="0">m</tspan><tspan class="cls-3" x="80.01" y="0">e</tspan><tspan x="93.15" y="0">n</tspan><tspan class="cls-11" x="106.54" y="0">t</tspan><tspan x="114.86" y="0">o </tspan><tspan class="cls-2" x="134.05" y="0">d</tspan><tspan x="148.74" y="0">e </tspan><tspan class="cls-3" x="167.92" y="0">ge</tspan><tspan class="cls-5" x="195.49" y="0">n</tspan><tspan class="cls-1" x="208.63" y="0">g</tspan><tspan class="cls-4" x="223.06" y="0">i</tspan><tspan class="cls-7" x="228.49" y="0">v</tspan><tspan x="241.59" y="0">a</tspan></text>
  <polygon class="cls-9" points="338.69 262.6 330.04 262.6 330.04 253.95 324.38 253.95 324.38 262.6 315.73 262.6 315.73 268.27 324.38 268.27 324.38 276.92 330.04 276.92 330.04 268.27 338.69 268.27 338.69 262.6"/>
  <g>
    <circle class="cls-9" cx="68.39" cy="70.53" r=".77"/>
    <circle class="cls-9" cx="70.7" cy="62.83" r=".77"/>
    <circle class="cls-9" cx="54.54" cy="65.91" r=".77"/>
    <circle class="cls-9" cx="43.76" cy="60.53" r=".77"/>
    <circle class="cls-9" cx="46.84" cy="57.45" r=".77"/>
    <circle class="cls-9" cx="56.85" cy="57.45" r=".77"/>
    <circle class="cls-9" cx="56.85" cy="74.38" r=".77"/>
    <circle class="cls-9" cx="32.21" cy="72.07" r=".77"/>
    <circle class="cls-9" cx="30.67" cy="59.76" r=".77"/>
    <path class="cls-9" d="M70.69,45.96c0-1.96-.2-3.88-.69-5.71-.63-2.38-2.47-4.66-5.19-6.4-3.35-2.15-8.08-2.39-12.35-.63l-.15.06c-.07.03-.14.06-.22.09-.36.12-.63.23-.86.32q-.71.27-1.88-.07c-3.34-.98-7.59-1.96-10.84-.81-4.1,1.45-7.75,6.02-7.29,13.1-2.01.02-3.64,1.65-3.64,3.67v24.99c0,2.02,1.65,3.67,3.67,3.67h38.85c2.02,0,3.67-1.65,3.67-3.67v-24.99c0-1.83-1.34-3.33-3.09-3.61ZM39.04,34.26c.86-.3,1.84-.43,2.86-.43,2.39,0,5.02.67,7.03,1.26,1.53.45,1.77.45,2.87.03.21-.08.47-.18.81-.3.11-.04.21-.08.32-.13l.13-.05c3.81-1.58,8-1.39,10.93.5,2.39,1.54,4,3.49,4.53,5.5,1.6,6.06-.13,13.27-1.66,19.62-.28,1.17-.56,2.31-.8,3.42l-.22,1.01c-.6,2.73-1.22,5.56-2.61,8-.24.43-.49.76-.72.97.04-.12.09-.25.12-.37l.36-1.84c.09-.41.18-.83.27-1.25.16-.72.31-1.46.49-2.21l.2-.83c1.17-4.84,3.13-12.94,2.1-16.84-.64-2.42-1.65-4.05-3.09-4.97-1.36-.88-3.09-.99-4.44-.99s-2.91.08-4.37.69l-.08.03c-.16.07-.32.13-.48.19-.3.11-.54.2-.73.27-.57.22-1.21.47-2.08.47-.74,0-1.38-.17-2.27-.44-1.71-.5-4.23-1.17-6.37-1.17-.83,0-1.54.1-2.1.3-4.03,1.43-5.21,6.48-4.59,10.57.14.96.28,1.92.43,2.89.58,4,1.22,8.39,2.25,12.6-.01-.03-.02-.06-.03-.08l-.09-.22c-2.61-6.3-3.64-13.38-4.64-20.23-.14-.97-.28-1.93-.42-2.88h0c-.04-.25-.06-.5-.09-.76l-.04-.35c-.41-4.89,1.31-10.24,6.23-11.98ZM41.85,72.09c-.1.22-.21.44-.32.63-.02.03-.03.06-.05.09-.11.19-.24.37-.37.54-.02.02-.04.04-.06.06-.14.16-.3.31-.47.44,0,0,0,0,0,0-1.6-5.11-2.43-10.83-3.17-15.91-.14-.97-.28-1.94-.43-2.9-.52-3.48.37-7.75,3.58-8.89.39-.14.93-.21,1.59-.21,1.95,0,4.32.63,5.94,1.11.96.28,1.77.5,2.71.5,1.16,0,2.01-.33,2.65-.58.18-.07.39-.15.67-.25.2-.07.4-.15.59-.23l.07-.03c1.2-.5,2.52-.57,3.78-.57,1.7,0,2.81.23,3.61.74,1.1.71,1.9,2.04,2.43,4.07.93,3.52-.97,11.38-2.11,16.08l-.2.83c-.18.76-.34,1.51-.5,2.24-.09.42-.18.83-.27,1.25l-.37,1.86c-.01.06-.03.12-.04.18-.47-.72-1.15-2.21-1.62-3.5.08-.34.16-.67.25-1.01l.14-.51c1.09-4.11,2.09-8.32,1.43-10.63-.45-1.56-1.2-2.66-2.22-3.26-.97-.57-2.18-.64-3.12-.64s-2.02.05-3.09.46c-.1.04-.21.08-.31.11-.19.06-.34.11-.5.17-.39.14-.79.28-1.34.28-.48,0-.9-.1-1.49-.26-1.17-.31-2.9-.73-4.37-.73-.59,0-1.09.07-1.49.2-2.89.94-3.73,4.23-3.29,6.9.09.57.19,1.14.29,1.8.44,2.79.95,5.95,1.83,8.88-.08.21-.17.42-.25.61-.02.03-.03.06-.04.09ZM43.07,68.8s-.01.03-.02.05c-.53-2.22-.89-4.52-1.23-6.66-.09-.58-.18-1.16-.28-1.73-.33-2.04.23-4.53,2.25-5.18.17-.05.48-.12,1.01-.12,1.29,0,2.89.39,3.97.68.66.18,1.22.32,1.89.32.82,0,1.42-.21,1.89-.38.11-.04.25-.09.42-.14.14-.05.28-.1.45-.17.78-.3,1.66-.34,2.49-.34,1.11,0,1.83.13,2.34.43.68.4,1.18,1.17,1.52,2.36.54,1.87-.46,6.06-1.18,8.85-.68-2.59-1.48-5.49-4.09-7.04-2.94-1.75-6.25-.66-8.64,2.84-1.33,1.95-2.07,4.12-2.79,6.22ZM72.24,74.56c0,1.17-.96,2.13-2.13,2.13H31.26c-1.18,0-2.13-.96-2.13-2.13v-24.99c0-1.17.96-2.13,2.13-2.13h.13s.01.09.02.14h0c.14.95.28,1.91.42,2.87,1.01,6.94,2.05,14.12,4.74,20.6l.09.22c.59,1.45,1.55,3.76,3.12,4.24l.45.21.3-.11h0l.14-.06c.1-.04.19-.1.28-.15.09-.05.19-.09.28-.15.11-.07.2-.14.3-.21.08-.06.17-.12.24-.18.09-.08.16-.16.24-.24.07-.07.15-.14.21-.22.07-.08.13-.17.2-.26.06-.08.13-.16.18-.24.06-.09.11-.18.16-.27.05-.08.11-.17.15-.25.05-.1.1-.19.15-.29.04-.08.08-.16.12-.24.05-.12.1-.23.15-.34.03-.06.05-.12.08-.18.07-.17.13-.33.19-.49.33-.84.62-1.7.9-2.53.71-2.1,1.39-4.07,2.6-5.85.92-1.35,3.41-4.28,6.59-2.39,2.12,1.26,2.79,3.81,3.43,6.28.18.7.37,1.43.59,2.11.01.04.03.09.05.16.92,2.82,2.12,5.68,4,5.87,1,.1,1.94-.58,2.76-2.03,1.51-2.64,2.15-5.58,2.78-8.43l.22-1c.25-1.1.52-2.24.8-3.4,1-4.17,2.09-8.7,2.3-13.1.91.24,1.58,1.07,1.58,2.05v24.99h0Z"/>
    <path class="cls-9" d="M48.76,68.99c-1.91,0-3.46,1.55-3.46,3.46s1.55,3.46,3.46,3.46,3.46-1.55,3.46-3.46-1.55-3.46-3.46-3.46ZM48.76,74.38c-1.06,0-1.92-.86-1.92-1.92s.86-1.92,1.92-1.92,1.92.86,1.92,1.92-.86,1.92-1.92,1.92Z"/>
  </g>
</svg>