<?xml version="1.0" encoding="UTF-8"?>
<svg id="Layer_1" data-name="Layer 1" xmlns="http://www.w3.org/2000/svg" viewBox="0 0 366.28 305.38">
  <defs>
    <style>
      .cls-1 {
        letter-spacing: 0em;
      }

      .cls-2 {
        letter-spacing: -.02em;
      }

      .cls-3 {
        letter-spacing: 0em;
      }

      .cls-4 {
        letter-spacing: 0em;
      }

      .cls-5 {
        letter-spacing: -.04em;
      }

      .cls-6 {
        font-family: UrbanistRoman-Bold, Urbanist;
        font-size: 23.99px;
        font-variation-settings: 'wght' 700;
        font-weight: 700;
      }

      .cls-6, .cls-7 {
        fill: #130044;
      }

      .cls-8 {
        letter-spacing: -.02em;
      }

      .cls-9 {
        letter-spacing: -.01em;
      }
    </style>
  </defs>
  <path d="M337.15,8.99c11.1,0,20.14,9.03,20.14,20.14v247.12c0,11.1-9.03,20.14-20.14,20.14H29.13c-11.1,0-20.14-9.03-20.14-20.14V29.13c0-11.1,9.03-20.14,20.14-20.14h308.02M337.15,0H29.13C13.11,0,0,13.11,0,29.13v247.12C0,292.27,13.11,305.38,29.13,305.38h308.02c16.02,0,29.13-13.11,29.13-29.13V29.13C366.28,13.11,353.18,0,337.15,0h0Z"/>
  <text class="cls-6" transform="translate(27.59 274.19)"><tspan class="cls-8" x="0" y="0">D</tspan><tspan x="15.75" y="0">a</tspan><tspan class="cls-9" x="30.12" y="0">n</tspan><tspan class="cls-1" x="43.26" y="0">o</tspan><tspan x="56.51" y="0">s </tspan><tspan class="cls-3" x="72.69" y="0">a</tspan><tspan x="86.82" y="0">o </tspan><tspan class="cls-4" x="106.01" y="0">i</tspan><tspan class="cls-3" x="111.72" y="0">m</tspan><tspan class="cls-5" x="132.79" y="0">óv</tspan><tspan class="cls-2" x="158.47" y="0">e</tspan><tspan x="171.43" y="0">l</tspan></text>
  <polygon class="cls-7" points="338.69 262.6 330.04 262.6 330.04 253.95 324.38 253.95 324.38 262.6 315.73 262.6 315.73 268.27 324.38 268.27 324.38 276.92 330.04 276.92 330.04 268.27 338.69 268.27 338.69 262.6"/>
  <g>
    <rect class="cls-7" x="37.53" y="40.4" width="1.6" height="1.6"/>
    <rect class="cls-7" x="66.24" y="45.63" width="1.6" height="1.6"/>
    <rect class="cls-7" x="62.51" y="45.63" width="1.6" height="1.6"/>
    <path class="cls-7" d="M69.4,62.8c-3.5,0-6.34,2.84-6.34,6.33s2.84,6.33,6.34,6.33,6.34-2.84,6.34-6.33c0-3.49-2.84-6.33-6.34-6.33ZM69.4,73.87c-2.62,0-4.74-2.12-4.74-4.74s2.13-4.74,4.74-4.74,4.74,2.12,4.74,4.74-2.13,4.74-4.74,4.74Z"/>
    <path class="cls-7" d="M78.95,71.81c-2.24,2.2-5.72,4.83-9.55,4.83s-7.31-2.62-9.55-4.83l-1.12,1.14c2.45,2.41,6.29,5.28,10.67,5.28s8.22-2.87,10.67-5.28l-1.12-1.14Z"/>
    <path class="cls-7" d="M69.4,66.03c-1.71,0-3.11,1.39-3.11,3.1s1.39,3.1,3.11,3.1,3.11-1.39,3.11-3.1c0-1.71-1.39-3.1-3.11-3.1ZM69.4,70.64c-.83,0-1.51-.68-1.51-1.51s.68-1.51,1.51-1.51c.83,0,1.51.68,1.51,1.51,0,.83-.68,1.51-1.51,1.51Z"/>
    <path class="cls-7" d="M38.15,35.18v-3.14h-6.97v3.14h-3.59v17.28h1.57v23.75h30.3v-1.6h-3.14v-15.97h-13.3v15.96h-12.27v-22.15h7.15l11.32-11.32,11.32,11.32h8.05v6.03h1.6v-6.03h1.57v-17.28h-33.61ZM44.62,60.24h10.11v14.37h-10.11v-14.37h0ZM32.77,33.64h3.78v4.5l-3.78,3.43v-7.94ZM37.25,50.86h-8.06v-3.63h11.69l-3.63,3.63ZM70.17,50.86h-8.95l-3.63-3.63h2.8v-1.6h-4.4l-3.63-3.63h17.81v8.86h0ZM70.17,40.4h-19.41l-1.53-1.53-1.53,1.53h-6.45v1.6h4.85l-3.63,3.63h-13.29v-8.86h1.99v8.41l6.97-6.33v-2.07h32.01v3.63h0Z"/>
    <path class="cls-7" d="M69.4,60.03c-4.38,0-8.22,2.87-10.67,5.28l1.12,1.14c2.24-2.2,5.72-4.83,9.55-4.83s7.31,2.62,9.55,4.83l1.12-1.14c-2.45-2.41-6.29-5.28-10.67-5.28Z"/>
  </g>
</svg>