<?xml version="1.0" encoding="UTF-8"?>
<svg id="Layer_1" data-name="Layer 1" xmlns="http://www.w3.org/2000/svg" viewBox="0 0 366.28 305.38">
  <defs>
    <style>
      .cls-1 {
        letter-spacing: 0em;
      }

      .cls-2 {
        letter-spacing: -.02em;
      }

      .cls-3 {
        letter-spacing: -.01em;
      }

      .cls-4 {
        letter-spacing: -.02em;
      }

      .cls-5 {
        font-family: UrbanistRoman-Bold, Urbanist;
        font-size: 20px;
        font-variation-settings: 'wght' 700;
        font-weight: 700;
      }

      .cls-5, .cls-6 {
        fill: #130044;
      }

      .cls-7 {
        letter-spacing: -.02em;
      }

      .cls-8 {
        letter-spacing: -.01em;
      }

      .cls-9 {
        letter-spacing: -.01em;
      }
    </style>
  </defs>
  <path class="cls-6" d="M337.15,8.99c11.1,0,20.14,9.03,20.14,20.14v247.12c0,11.1-9.03,20.13-20.14,20.13H29.13c-11.1,0-20.14-9.03-20.14-20.13V29.13c0-11.1,9.03-20.14,20.14-20.14h308.02M337.15,0H29.13C13.11,0,0,13.11,0,29.13v247.12C0,292.27,13.11,305.38,29.13,305.38h308.02c16.02,0,29.13-13.11,29.13-29.13V29.13C366.28,13.11,353.18,0,337.15,0h0Z"/>
  <text class="cls-5" transform="translate(27.59 273.98)"><tspan x="0" y="0">I</tspan><tspan class="cls-8" x="5.44" y="0">m</tspan><tspan class="cls-2" x="23.01" y="0">o</tspan><tspan class="cls-4" x="33.83" y="0">b</tspan><tspan class="cls-1" x="45.77" y="0">i</tspan><tspan x="50.63" y="0">l</tspan><tspan class="cls-9" x="55.47" y="0">i</tspan><tspan x="60.08" y="0">á</tspan><tspan class="cls-7" x="72.06" y="0">r</tspan><tspan class="cls-3" x="79.45" y="0">i</tspan><tspan x="84.06" y="0">o</tspan></text>
  <polygon class="cls-6" points="338.69 262.6 330.04 262.6 330.04 253.95 324.38 253.95 324.38 262.6 315.73 262.6 315.73 268.27 324.38 268.27 324.38 276.92 330.04 276.92 330.04 268.27 338.69 268.27 338.69 262.6"/>
  <g>
    <path class="cls-6" d="M73.01,67.14l-6.54-6c-1.92-1.77-4.93-1.77-6.85,0l-2.72,2.52-2.75-2.52c-1.92-1.77-4.93-1.77-6.85,0l-2.77,2.51-2.7-2.51c-1.92-1.77-4.93-1.77-6.85,0l-6.62,6c-.46.38-.77,1-.77,1.69s.23,1.31.69,1.77c.46.46,1.08.69,1.69.69.53,0,1-.17,1.46-.46v6.62c0,.46.31.77.77.77h36.95c.46,0,.77-.31.62-.77v-6.77c.46.38,1,.62,1.62.62s1.23-.23,1.69-.69c.46-.46.69-1.08.69-1.77,0-.62-.31-1.23-.77-1.69ZM48.3,62.22c.69-.62,1.54-.92,2.39-.92.92,0,1.77.31,2.31.92l6.54,6c.23.15.31.38.31.62s-.08.46-.23.62c-.18.14-.38.22-.58.23-.2,0-.4-.08-.58-.23l-1.08-.92s-.05-.03-.08-.05l-4.54-4.11c-1.23-1.15-2.93-1.15-4.16,0l-4.58,4.08s-.08.05-.12.07l-1.08.92c-.18.15-.4.22-.61.23-.21,0-.4-.08-.55-.23-.15-.15-.23-.38-.23-.62.08-.23.15-.46.31-.62l.82-.75s.02-.01.03-.02l2.46-2.23s.09-.1.12-.15l3.11-2.86ZM29.36,69.45c-.15-.15-.23-.38-.23-.62s.08-.38.31-.62l6.54-6c.69-.62,1.54-.92,2.39-.92.92,0,1.77.31,2.31.85l2.62,2.39-1.31,1.23-1.54-1.39c-1.23-1.15-2.93-1.15-4.16,0l-5.7,5.08c-.38.31-.92.31-1.23,0ZM32.98,69.53l.66-.6,3.72-3.32c.34-.3.7-.45,1.05-.46.37,0,.72.16,1.02.46l1.46,1.31-.23.23h0c-.38.31-.65.78-.74,1.31-.02.12-.03.25-.03.38s0,.26.02.38c.01.08.03.16.04.24,0,.04.02.08.03.12.02.08.05.15.08.23.03.07.06.15.1.22.04.07.08.14.12.21.09.13.19.26.3.37.05.05.1.1.16.14,0,0,0,0,.01.01.05.04.11.08.16.12,0,0,.01,0,.02.01.06.04.11.07.17.11,0,0,.01,0,.02,0,.06.03.12.06.18.09,0,0,.01,0,.02,0,.06.02.12.05.18.07.01,0,.03,0,.04.01.04.01.09.03.13.04.04.01.08.02.12.03.02,0,.03,0,.05,0,.65.12,1.35-.01,1.89-.41,0,0,0,0,.01,0v5.85h-3.08v-3.85c0-.46-.31-.77-.77-.77h-3.08c-.46,0-.77.31-.77.77v3.85h-3.08v-7.16ZM37.6,76.69v-3.08h1.54v3.08h-1.54ZM45.3,69.53l.66-.6,3.72-3.32c.34-.3.7-.45,1.05-.46.37,0,.72.16,1.02.46l4.31,3.93v7.16h-3.08v-3.85c0-.46-.31-.77-.77-.77h-3.08c-.46,0-.77.31-.77.77v3.85h-3.08v-7.16h0ZM49.92,76.69v-3.08h1.54v3.08h-1.54ZM62.24,76.69v-3.08h1.54v3.08h-1.54ZM68.4,76.69h-3.08v-3.85c0-.46-.31-.77-.77-.77h-3.08c-.46,0-.77.31-.77.77v3.85h-3.08v-5.88c.93.71,2.28.67,3.16-.21.46-.46.69-1.15.69-1.77,0-.01,0-.02,0-.03,0-.01,0-.03,0-.04,0-.62-.31-1.23-.77-1.69l-.22-.15,1.53-1.31c.33-.3.69-.45,1.04-.46.35.01.71.16,1.04.46l4.31,3.93v7.16h0ZM71.94,69.53c-.38.31-.85.31-1.23,0l-5.62-5.08c-.44-.39-.93-.66-1.45-.78-.95-.25-1.97.01-2.78.78,0,0,0,0,0,0l-1.56,1.41-1.33-1.22,2.57-2.35c1.31-1.23,3.46-1.23,4.77,0l6.54,6c.23.15.31.38.31.62s-.08.46-.23.62Z"/>
    <path class="cls-6" d="M45.76,50.52c1.46,2.31,2.93,4.77,4.23,7.31.15.23.38.38.69.38s.54-.15.69-.46c1.31-2.54,2.77-5,4.23-7.31.77-1.23,1.54-2.39,2.39-3.54,1.31-1.85,1.92-3.7,1.92-5.62,0-5.08-4.16-9.24-9.24-9.24s-9.24,4.16-9.24,9.24c0,1.92.62,3.77,1.92,5.7.77,1.15,1.62,2.31,2.39,3.54ZM50.69,33.58c4.23,0,7.7,3.46,7.54,7.7,0,1.62-.54,3.23-1.62,4.77-.77,1.15-1.54,2.39-2.39,3.62-1.23,1.92-2.46,4-3.62,6.16-1.15-2.16-2.39-4.23-3.62-6.16-.77-1.23-1.54-2.46-2.39-3.62-1.08-1.62-1.62-3.16-1.62-4.77,0-4.23,3.46-7.7,7.7-7.7Z"/>
    <path class="cls-6" d="M49.92,42.9v3.43c-.26-.13-.52-.34-.77-.63v-1.34c0-.46-.31-.77-.77-.77s-.77.31-.77.77v1.51c0,.05,0,.1,0,.15v1.41c0,.46.31.77.77.77.41,0,.7-.25.76-.63.25.13.51.23.78.3v.33c0,.46.31.77.77.77s.77-.31.77-.77v-.31c1.59-.3,3.08-1.51,3.08-3.24s-1.49-2.93-3.08-3.24v-3.43c.26.13.52.34.77.63v1.11c0,.46.31.77.77.77s.77-.31.77-.77v-1.28c0-.05,0-.1,0-.15v-1.65c0-.46-.31-.77-.77-.77s-.77.31-.77.77v.07c-.23-.12-.49-.22-.77-.29v-.55c0-.46-.31-.77-.77-.77s-.77.31-.77.77v.53c-1.59.29-3.08,1.45-3.08,3.24,0,1.72,1.49,2.93,3.08,3.24ZM53,44.74c0,.82-.72,1.42-1.54,1.66v-3.32c.82.24,1.54.84,1.54,1.66ZM49.92,37.93v3.32c-.82-.24-1.54-.84-1.54-1.66s.72-1.42,1.54-1.66Z"/>
  </g>
</svg>