<?xml version="1.0" encoding="UTF-8"?>
<svg id="Layer_1" data-name="Layer 1" xmlns="http://www.w3.org/2000/svg" viewBox="0 0 366.28 305.38">
  <defs>
    <style>
      .cls-1 {
        letter-spacing: 0em;
      }

      .cls-2 {
        letter-spacing: 0em;
      }

      .cls-3 {
        fill: #5b1112;
      }

      .cls-4 {
        letter-spacing: -.01em;
      }

      .cls-5 {
        letter-spacing: -.04em;
      }

      .cls-6 {
        font-family: UrbanistRoman-Bold, Urbanist;
        font-size: 23.99px;
        font-variation-settings: 'wght' 700;
        font-weight: 700;
      }

      .cls-6, .cls-7 {
        fill: #130044;
      }

      .cls-8 {
        letter-spacing: -.01em;
      }

      .cls-9 {
        letter-spacing: -.01em;
      }
    </style>
  </defs>
  <path class="cls-7" d="M337.15,8.99c11.1,0,20.14,9.03,20.14,20.14v247.12c0,11.1-9.03,20.14-20.14,20.14H29.13c-11.1,0-20.14-9.03-20.14-20.14V29.13c0-11.1,9.03-20.14,20.14-20.14h308.02M337.15,0H29.13C13.11,0,0,13.11,0,29.13v247.12c0,16.02,13.11,29.13,29.13,29.13h308.02c16.02,0,29.13-13.11,29.13-29.13V29.13C366.28,13.11,353.18,0,337.15,0h0Z"/>
  <text class="cls-6" transform="translate(27.59 274.19)"><tspan x="0" y="0">B</tspan><tspan class="cls-2" x="14.08" y="0">i</tspan><tspan class="cls-5" x="19.91" y="0">k</tspan><tspan x="31.72" y="0">e </tspan><tspan class="cls-9" x="50.9" y="0">ba</tspan><tspan class="cls-8" x="79.66" y="0">g</tspan><tspan class="cls-1" x="94.08" y="0">a</tspan><tspan class="cls-4" x="108.21" y="0">ge</tspan><tspan x="135.79" y="0">m</tspan></text>
  <polygon class="cls-7" points="338.69 262.6 330.04 262.6 330.04 253.95 324.38 253.95 324.38 262.6 315.73 262.6 315.73 268.27 324.38 268.27 324.38 276.92 330.04 276.92 330.04 268.27 338.69 268.27 338.69 262.6"/>
  <polygon class="cls-3" points="116.43 24.95 116.43 24.95 116.43 24.95 116.43 24.95"/>
  <path class="cls-7" d="M110.43,29.37s.01-.04.02-.06c0,0,0,0,0,0l-.02.07Z"/>
  <polygon class="cls-7" points="112.14 30.83 112.13 30.84 112.13 30.84 112.14 30.83"/>
  <path class="cls-3" d="M112.24,21.39s.02.04.03.07c0,0,0,0,0,0l-.03-.07Z"/>
  <g>
    <path class="cls-7" d="M109.28,46.18s-.03,0-.04,0c0,0-.01,0-.02,0h.06Z"/>
    <path class="cls-7" d="M95.79,65.23s0,.02,0,0c.36.84,1.51,1.1,2.17.43.51-.5.51-1.38,0-1.88-.44-.45-1.17-.51-1.68-.17-.52.35-.72,1.03-.49,1.61,0-.02-.01-.03,0,0Z"/>
    <path class="cls-7" d="M118.87,21.21c-.82-.82-1.88-1.07-3.44-1.16v-.59c0-2.26-1.84-4.09-4.09-4.09h-3.09c-2.26,0-4.09,1.84-4.09,4.09v.59c-1.56.08-2.63.34-3.44,1.16-1.2,1.2-1.2,2.9-1.2,5.99v9.29c0,3.09,0,4.79,1.2,5.99.51.51,1.13.8,1.9.97v.78c0,.55.45,1,1,1s1-.45,1-1v-.57c.62.02,1.31.02,2.09.02h6.19c.78,0,1.48,0,2.1-.02v.57c0,.55.45,1,1,1s1-.45,1-1v-.78c.77-.17,1.38-.45,1.89-.97,1.2-1.2,1.2-2.9,1.2-5.99v-9.29c0-3.09,0-4.79-1.2-5.99ZM117.52,35.48h-15.47c-.21,0-.39.08-.55.18v-7.65c.16.11.34.18.55.18h15.47c.21,0,.39-.08.55-.19v7.66c-.16-.11-.34-.19-.55-.19ZM106.14,19.46c0-1.16.94-2.09,2.09-2.09h3.09c1.16,0,2.09.94,2.09,2.09v.55c-.18,0-.35,0-.55,0h-6.19c-.19,0-.36,0-.55,0v-.55ZM106.69,22.01h6.19c2.75,0,3.99.02,4.58.61.53.53.6,1.58.61,3.76-.16-.11-.34-.18-.55-.18h-15.47c-.21,0-.39.08-.54.18.01-2.18.08-3.23.61-3.76.59-.59,1.83-.61,4.58-.61ZM112.88,41.67h-6.19c-2.75,0-3.99-.02-4.58-.61-.53-.53-.6-1.58-.61-3.76.16.11.34.18.54.18h15.47c.21,0,.39-.08.55-.18-.01,2.18-.08,3.23-.61,3.76-.59.59-1.83.61-4.58.61Z"/>
    <path class="cls-7" d="M95.33,47.81c-1.91,0-3.73.37-5.42,1.02l-6.8-13.45h5.31v-2.76h-9.81l2.8,5.53h-23.95l-1.39-2.76h4.71v-2.76h-9.2l3.11,6.16s-.04.04-.05.06l-5.86,10.2c-1.83-.79-3.85-1.22-5.97-1.22-8.39,0-15.2,6.82-15.2,15.21s6.82,15.2,15.2,15.2c7.92,0,14.43-6.09,15.13-13.82h11.32c.49,0,.95-.26,1.2-.69l12.76-22,4.22,8.34c-4.37,2.67-7.31,7.48-7.31,12.97,0,8.39,6.82,15.21,15.2,15.21s15.2-6.82,15.2-15.21-6.82-15.21-15.2-15.21h0ZM56.16,41.71l10.06,19.93h-8.29c-.43-4.71-3-8.8-6.74-11.28l4.97-8.65h0ZM55.16,61.64h-10.45l5.1-8.88c2.91,2,4.93,5.2,5.34,8.88ZM42.8,75.46c-6.86,0-12.44-5.58-12.44-12.44s5.58-12.44,12.44-12.44c1.62,0,3.16.32,4.57.88l-6.25,10.87c-.25.43-.24.95,0,1.38s.7.69,1.2.69h12.83c-.69,6.21-5.97,11.06-12.36,11.06h0ZM68.92,60.84l-10.07-19.93h21.63l-11.57,19.93h0ZM95.33,75.46c-6.86,0-12.44-5.58-12.44-12.44,0-4.41,2.32-8.29,5.79-10.5l5.85,11.58,2.47-1.25-5.84-11.54c1.3-.47,2.7-.73,4.16-.73,6.86,0,12.44,5.58,12.44,12.44s-5.58,12.44-12.44,12.44h0Z"/>
  </g>
</svg>