<?xml version="1.0" encoding="UTF-8"?>
<svg id="Layer_1" data-name="Layer 1" xmlns="http://www.w3.org/2000/svg" viewBox="0 0 366.28 305.38">
  <defs>
    <style>
      .cls-1 {
        letter-spacing: -.02em;
      }

      .cls-2 {
        letter-spacing: 0em;
      }

      .cls-3 {
        fill: #5b1112;
      }

      .cls-4 {
        letter-spacing: -.01em;
      }

      .cls-5 {
        letter-spacing: 0em;
      }

      .cls-6 {
        letter-spacing: 0em;
      }

      .cls-7 {
        font-family: UrbanistRoman-Bold, Urbanist;
        font-size: 20px;
        font-variation-settings: 'wght' 700;
        font-weight: 700;
      }

      .cls-7, .cls-8 {
        fill: #130044;
      }

      .cls-9 {
        letter-spacing: -.04em;
      }

      .cls-10 {
        letter-spacing: -.02em;
      }

      .cls-11 {
        letter-spacing: -.04em;
      }

      .cls-12 {
        letter-spacing: -.01em;
      }

      .cls-13 {
        letter-spacing: 0em;
      }

      .cls-14 {
        letter-spacing: -.01em;
      }

      .cls-15 {
        letter-spacing: -.04em;
      }

      .cls-16 {
        letter-spacing: -.02em;
      }
    </style>
  </defs>
  <path class="cls-8" d="M337.15,9c11.1,0,20.14,9.03,20.14,20.14v247.12c0,11.1-9.03,20.13-20.14,20.13H29.13c-11.1,0-20.14-9.03-20.14-20.13V29.13c0-11.1,9.03-20.14,20.14-20.14h308.02M337.15,0H29.13C13.11,0,0,13.11,0,29.13v247.12C0,292.27,13.11,305.38,29.13,305.38h308.02c16.02,0,29.13-13.11,29.13-29.13V29.13C366.28,13.11,353.18,0,337.15,0h0Z"/>
  <text class="cls-7" transform="translate(27.59 249.48)"><tspan class="cls-9" x="0" y="0">P</tspan><tspan x="10.19" y="0">a</tspan><tspan class="cls-11" x="22.17" y="0">r</tspan><tspan class="cls-10" x="29.12" y="0">c</tspan><tspan class="cls-1" x="39.01" y="0">e</tspan><tspan class="cls-13" x="49.82" y="0">l</tspan><tspan x="54.51" y="0">a</tspan><tspan class="cls-14" x="66.49" y="0">m</tspan><tspan class="cls-4" x="84.06" y="0">e</tspan><tspan x="95.02" y="0">n</tspan><tspan class="cls-12" x="106.18" y="0">t</tspan><tspan x="113.12" y="0">o </tspan><tspan class="cls-14" x="129.12" y="0">a</tspan><tspan x="140.9" y="0">dm</tspan><tspan class="cls-5" x="171.07" y="0">i</tspan><tspan x="175.83" y="0">n</tspan><tspan class="cls-13" x="186.99" y="0">i</tspan><tspan x="191.68" y="0">st</tspan><tspan class="cls-11" x="207.53" y="0">r</tspan><tspan x="214.48" y="0">a</tspan><tspan class="cls-2" x="226.46" y="0">t</tspan><tspan class="cls-10" x="233.47" y="0">i</tspan><tspan class="cls-15" x="238" y="0">v</tspan><tspan x="248.92" y="0">o </tspan><tspan class="cls-13" x="0" y="24">fis</tspan><tspan class="cls-16" x="20.37" y="24">c</tspan><tspan class="cls-6" x="30.26" y="24">a</tspan><tspan x="42.29" y="24">l</tspan></text>
  <polygon class="cls-3" points="338.69 262.6 330.04 262.6 330.04 253.95 324.38 253.95 324.38 262.6 315.73 262.6 315.73 268.27 324.38 268.27 324.38 276.92 330.04 276.92 330.04 268.27 338.69 268.27 338.69 262.6"/>
  <g>
    <path class="cls-8" d="M50.19,78.23c-6.04,0-11.71-2.35-15.98-6.62-4.27-4.27-6.62-9.94-6.62-15.98,0-6.04,2.35-11.71,6.62-15.98,4.27-4.27,9.94-6.62,15.98-6.62h.98v21.66h21.62v.98c.01,5.95-2.39,11.77-6.61,15.97l-.69.69-.03-.04c-4.18,3.83-9.56,5.93-15.26,5.93ZM49.21,35.02c-5.15.24-9.95,2.36-13.62,6.02-3.9,3.9-6.04,9.08-6.04,14.59,0,5.51,2.15,10.7,6.05,14.59,3.9,3.9,9.08,6.04,14.59,6.04,5.18,0,10.07-1.9,13.87-5.36l-14.85-14.83v-21.06ZM52.55,56.65l12.92,12.9c3.21-3.53,5.11-8.14,5.34-12.9h-18.25Z"/>
    <path class="cls-8" d="M64.93,48.75h-6.88v-1.96h6.88c1.08,0,1.97-.88,1.97-1.97s-.88-1.97-1.97-1.97h-2.06c-2.17-.02-3.92-1.78-3.92-3.94,0-1.05.41-2.03,1.15-2.77.74-.74,1.73-1.15,2.77-1.15h6.98v1.96h-6.9c-.61,0-1.1.2-1.47.57-.37.37-.58.87-.58,1.39,0,1.09.88,1.98,1.97,1.99h2.05c2.16,0,3.92,1.76,3.92,3.92s-1.76,3.92-3.92,3.92Z"/>
    <rect class="cls-8" x="62.96" y="32.04" width="1.96" height="3.93"/>
    <rect class="cls-8" x="62.96" y="47.77" width="1.96" height="3.93"/>
  </g>
</svg>