<?xml version="1.0" encoding="UTF-8"?>
<svg id="Layer_1" data-name="Layer 1" xmlns="http://www.w3.org/2000/svg" viewBox="0 0 366.28 305.38">
  <defs>
    <style>
      .cls-1 {
        letter-spacing: 0em;
      }

      .cls-2 {
        letter-spacing: 0em;
      }

      .cls-3 {
        letter-spacing: 0em;
      }

      .cls-4 {
        letter-spacing: -.01em;
      }

      .cls-5 {
        letter-spacing: 0em;
      }

      .cls-6 {
        letter-spacing: 0em;
      }

      .cls-7 {
        fill: #fff;
      }

      .cls-8 {
        letter-spacing: 0em;
      }

      .cls-9 {
        letter-spacing: -.03em;
      }

      .cls-10 {
        letter-spacing: 0em;
      }

      .cls-11 {
        letter-spacing: -.03em;
      }

      .cls-12 {
        letter-spacing: -.01em;
      }

      .cls-13 {
        letter-spacing: -.04em;
      }

      .cls-14 {
        letter-spacing: 0em;
      }

      .cls-15 {
        letter-spacing: -.01em;
      }

      .cls-16 {
        letter-spacing: 0em;
      }

      .cls-17 {
        letter-spacing: 0em;
      }

      .cls-18 {
        font-family: UrbanistRoman-Bold, Urbanist;
        font-size: 23.99px;
        font-variation-settings: 'wght' 700;
        font-weight: 700;
      }

      .cls-19 {
        letter-spacing: -.03em;
      }

      .cls-20 {
        letter-spacing: -.01em;
      }

      .cls-21 {
        letter-spacing: -.02em;
      }

      .cls-22 {
        letter-spacing: 0em;
      }

      .cls-23 {
        letter-spacing: -.01em;
      }

      .cls-24 {
        letter-spacing: 0em;
      }

      .cls-25 {
        letter-spacing: 0em;
      }

      .cls-26 {
        font-family: Urbanist-Regular, Urbanist;
        font-size: 18px;
        font-variation-settings: 'wght' 400;
      }

      .cls-27 {
        fill: #130044;
      }
    </style>
  </defs>
  <rect class="cls-27" x="0" y="0" width="366.28" height="305.38" rx="29.13" ry="29.13"/>
  <path class="cls-7" d="M75.43,38.64h-13.2v-1.65c0-2.73-2.22-4.95-4.95-4.95h-6.6c-2.73,0-4.95,2.22-4.95,4.95v1.65h-13.2c-2.73,0-4.95,2.22-4.95,4.95v32.99c0,.91.74,1.65,1.65,1.65h49.49c.91,0,1.65-.74,1.65-1.65v-32.99c0-2.73-2.22-4.95-4.95-4.95ZM50.69,33.69h6.6c1.82,0,3.3,1.48,3.3,3.3v1.65h-1.65v-1.65c0-.91-.74-1.65-1.65-1.65h-6.6c-.91,0-1.65.74-1.65,1.65v1.65h-1.65v-1.65c0-1.82,1.48-3.3,3.3-3.3ZM57.29,36.99v1.65h-6.6v-1.65h6.6ZM78.73,76.58H29.24v-26.4h6.6v1.65c0,.91.74,1.65,1.65,1.65h1.65c.91,0,1.65-.74,1.65-1.65v-1.65h26.4v1.65c0,.91.74,1.65,1.65,1.65h1.65c.91,0,1.65-.74,1.65-1.65v-1.65h6.6v26.4ZM37.49,51.84v-4.95h1.65v4.95h-1.65ZM68.83,51.84v-4.95h1.65v4.95h-1.65ZM78.73,48.54h-6.6v-1.65c0-.91-.74-1.65-1.65-1.65h-1.65c-.91,0-1.65.74-1.65,1.65v1.65h-26.4v-1.65c0-.91-.74-1.65-1.65-1.65h-1.65c-.91,0-1.65.74-1.65,1.65v1.65h-6.6v-4.95c0-1.82,1.48-3.3,3.3-3.3h42.89c1.82,0,3.3,1.48,3.3,3.3v4.95ZM55.64,55.14h-3.3c-.91,0-1.65.74-1.65,1.65v3.3h-3.3c-.91,0-1.65.74-1.65,1.65v3.3c0,.91.74,1.65,1.65,1.65h3.3v3.3c0,.91.74,1.65,1.65,1.65h3.3c.91,0,1.65-.74,1.65-1.65v-3.3h3.3c.91,0,1.65-.74,1.65-1.65v-3.3c0-.91-.74-1.65-1.65-1.65h-3.3v-3.3c0-.91-.74-1.65-1.65-1.65ZM60.59,61.73v3.3h-4.95v4.95h-3.3v-4.95h-4.95v-3.3h4.95v-4.95h3.3v4.95h4.95Z"/>
  <text class="cls-7" transform="translate(27.59 119.7)"><tspan class="cls-18"><tspan class="cls-21" x="0" y="0">D</tspan><tspan class="cls-1" x="15.75" y="0">e</tspan><tspan x="28.99" y="0">s</tspan><tspan class="cls-16" x="39.41" y="0">p</tspan><tspan class="cls-1" x="54.02" y="0">es</tspan><tspan x="77.5" y="0">as </tspan><tspan class="cls-1" x="108.05" y="0">d</tspan><tspan x="122.74" y="0">e </tspan><tspan class="cls-1" x="141.91" y="0">s</tspan><tspan class="cls-6" x="152.16" y="0">a</tspan><tspan class="cls-4" x="166.58" y="0">l</tspan><tspan class="cls-13" x="172.11" y="0">v</tspan><tspan x="185.21" y="0">a</tspan><tspan class="cls-16" x="199.58" y="0">m</tspan><tspan class="cls-4" x="220.65" y="0">e</tspan><tspan x="233.79" y="0">n</tspan><tspan class="cls-12" x="247.18" y="0">t</tspan><tspan x="255.5" y="0">o</tspan></tspan><tspan class="cls-26"><tspan class="cls-19" x="0" y="21.6">C</tspan><tspan class="cls-25" x="12.13" y="21.6">o</tspan><tspan class="cls-5" x="22.06" y="21.6">b</tspan><tspan class="cls-9" x="32.8" y="21.6">r</tspan><tspan x="38.63" y="21.6">e </tspan><tspan class="cls-22" x="53" y="21.6">de</tspan><tspan x="73.75" y="21.6">s</tspan><tspan class="cls-23" x="81.49" y="21.6">p</tspan><tspan class="cls-22" x="92.12" y="21.6">es</tspan><tspan x="109.78" y="21.6">as </tspan><tspan class="cls-24" x="132.29" y="21.6">c</tspan><tspan class="cls-5" x="141.34" y="21.6">o</tspan><tspan x="151.33" y="21.6">m </tspan><tspan class="cls-23" x="171.65" y="21.6">me</tspan><tspan x="197.33" y="21.6">d</tspan><tspan class="cls-5" x="208.16" y="21.6">i</tspan><tspan class="cls-22" x="211.49" y="21.6">d</tspan><tspan x="222.25" y="21.6">as </tspan></tspan><tspan class="cls-26"><tspan class="cls-17" x="0" y="43.2">ne</tspan><tspan class="cls-24" x="19.34" y="43.2">c</tspan><tspan class="cls-22" x="28.4" y="43.2">e</tspan><tspan x="38.38" y="43.2">s</tspan><tspan class="cls-22" x="46.12" y="43.2">s</tspan><tspan x="53.78" y="43.2">á</tspan><tspan class="cls-24" x="64.24" y="43.2">r</tspan><tspan class="cls-5" x="70.56" y="43.2">i</tspan><tspan x="73.89" y="43.2">a</tspan><tspan class="cls-8" x="84.35" y="43.2">s</tspan><tspan x="92.05" y="43.2">, </tspan><tspan class="cls-5" x="99.99" y="43.2">e</tspan><tspan class="cls-17" x="109.95" y="43.2">m</tspan><tspan class="cls-5" x="125.77" y="43.2">e</tspan><tspan class="cls-9" x="135.73" y="43.2">r</tspan><tspan class="cls-5" x="141.56" y="43.2">ge</tspan><tspan class="cls-17" x="162.01" y="43.2">n</tspan><tspan class="cls-25" x="171.48" y="43.2">c</tspan><tspan class="cls-5" x="180.49" y="43.2">i</tspan><tspan x="183.82" y="43.2">a</tspan><tspan class="cls-22" x="194.28" y="43.2">i</tspan><tspan x="197.64" y="43.2">s e </tspan></tspan><tspan class="cls-26"><tspan class="cls-8" x="0" y="64.8">i</tspan><tspan class="cls-23" x="3.39" y="64.8">me</tspan><tspan x="29.08" y="64.8">d</tspan><tspan class="cls-5" x="39.91" y="64.8">i</tspan><tspan x="43.24" y="64.8">a</tspan><tspan class="cls-20" x="53.69" y="64.8">t</tspan><tspan x="59.66" y="64.8">as </tspan><tspan class="cls-22" x="82.17" y="64.8">d</tspan><tspan x="92.93" y="64.8">e </tspan><tspan class="cls-24" x="107.31" y="64.8">c</tspan><tspan class="cls-5" x="116.36" y="64.8">o</tspan><tspan x="126.35" y="64.8">n</tspan><tspan class="cls-20" x="136" y="64.8">t</tspan><tspan class="cls-5" x="141.97" y="64.8">e</tspan><tspan class="cls-23" x="151.93" y="64.8">n</tspan><tspan class="cls-24" x="161.4" y="64.8">ç</tspan><tspan class="cls-17" x="170.45" y="64.8">ã</tspan><tspan x="180.73" y="64.8">o </tspan><tspan class="cls-22" x="195.13" y="64.8">d</tspan><tspan x="205.89" y="64.8">e </tspan><tspan class="cls-22" x="220.26" y="64.8">d</tspan><tspan x="231.03" y="64.8">a</tspan><tspan class="cls-17" x="241.49" y="64.8">n</tspan><tspan class="cls-22" x="250.95" y="64.8">o</tspan><tspan x="260.97" y="64.8">s </tspan></tspan><tspan class="cls-26"><tspan class="cls-17" x="0" y="86.4">o</tspan><tspan x="9.9" y="86.4">u </tspan><tspan class="cls-22" x="23.51" y="86.4">d</tspan><tspan x="34.27" y="86.4">e </tspan><tspan class="cls-22" x="48.64" y="86.4">s</tspan><tspan class="cls-10" x="56.31" y="86.4">a</tspan><tspan class="cls-5" x="66.89" y="86.4">l</tspan><tspan class="cls-11" x="70.22" y="86.4">v</tspan><tspan x="78.99" y="86.4">a</tspan><tspan class="cls-23" x="89.45" y="86.4">m</tspan><tspan class="cls-5" x="105.26" y="86.4">e</tspan><tspan x="115.23" y="86.4">n</tspan><tspan class="cls-20" x="124.87" y="86.4">t</tspan><tspan x="130.84" y="86.4">o </tspan><tspan class="cls-22" x="145.24" y="86.4">do</tspan><tspan x="166.02" y="86.4">s </tspan><tspan class="cls-8" x="178.07" y="86.4">i</tspan><tspan x="181.47" y="86.4">n</tspan><tspan class="cls-20" x="191.11" y="86.4">t</tspan><tspan class="cls-5" x="197.08" y="86.4">e</tspan><tspan class="cls-9" x="207.04" y="86.4">r</tspan><tspan class="cls-3" x="212.88" y="86.4">e</tspan><tspan class="cls-14" x="222.87" y="86.4">s</tspan><tspan class="cls-3" x="230.6" y="86.4">se</tspan><tspan x="248.25" y="86.4">s </tspan></tspan><tspan class="cls-26"><tspan class="cls-22" x="0" y="108">des</tspan><tspan x="28.42" y="108">c</tspan><tspan class="cls-24" x="37.59" y="108">r</tspan><tspan x="43.91" y="108">i</tspan><tspan class="cls-15" x="47.33" y="108">t</tspan><tspan class="cls-22" x="53.3" y="108">o</tspan><tspan x="63.31" y="108">s </tspan><tspan class="cls-17" x="75.37" y="108">n</tspan><tspan x="84.83" y="108">a a</tspan><tspan class="cls-17" x="110.07" y="108">p</tspan><tspan class="cls-2" x="120.71" y="108">ó</tspan><tspan x="130.63" y="108">l</tspan><tspan class="cls-5" x="134.05" y="108">i</tspan><tspan class="cls-24" x="137.38" y="108">c</tspan><tspan class="cls-17" x="146.44" y="108">e</tspan><tspan x="156.31" y="108">.</tspan></tspan></text>
</svg>