<?xml version="1.0" encoding="UTF-8"?>
<svg id="Layer_1" data-name="Layer 1" xmlns="http://www.w3.org/2000/svg" viewBox="0 0 366.28 305.38">
  <defs>
    <style>
      .cls-1 {
        letter-spacing: 0em;
      }

      .cls-2 {
        letter-spacing: -.01em;
      }

      .cls-3 {
        letter-spacing: 0em;
      }

      .cls-4 {
        letter-spacing: 0em;
      }

      .cls-5 {
        fill: #fff;
      }

      .cls-6 {
        letter-spacing: -.02em;
      }

      .cls-7 {
        letter-spacing: 0em;
      }

      .cls-8 {
        letter-spacing: -.03em;
      }

      .cls-9 {
        letter-spacing: 0em;
      }

      .cls-10 {
        letter-spacing: -.03em;
      }

      .cls-11 {
        letter-spacing: -.03em;
      }

      .cls-12 {
        letter-spacing: -.04em;
      }

      .cls-13 {
        letter-spacing: 0em;
      }

      .cls-14 {
        letter-spacing: -.01em;
      }

      .cls-15 {
        letter-spacing: 0em;
      }

      .cls-16 {
        letter-spacing: 0em;
      }

      .cls-17 {
        font-family: UrbanistRoman-Bold, Urbanist;
        font-size: 23.99px;
        font-variation-settings: 'wght' 700;
        font-weight: 700;
      }

      .cls-18 {
        letter-spacing: 0em;
      }

      .cls-19 {
        letter-spacing: -.01em;
      }

      .cls-20 {
        letter-spacing: -.02em;
      }

      .cls-21 {
        letter-spacing: 0em;
      }

      .cls-22 {
        letter-spacing: -.01em;
      }

      .cls-23 {
        letter-spacing: 0em;
      }

      .cls-24 {
        letter-spacing: 0em;
      }

      .cls-25 {
        letter-spacing: 0em;
      }

      .cls-26 {
        font-family: Urbanist-Regular, Urbanist;
        font-size: 18px;
        font-variation-settings: 'wght' 400;
      }

      .cls-27 {
        letter-spacing: 0em;
      }

      .cls-28 {
        fill: #130044;
      }
    </style>
  </defs>
  <rect class="cls-28" x="0" y="0" width="366.28" height="305.38" rx="29.13" ry="29.13"/>
  <g>
    <path class="cls-5" d="M55.2,49.54l-9.26,9.26-4.29-4.29c-.37-.37-.98-.37-1.36,0-.37.37-.37.98,0,1.36l4.97,4.97c.19.19.43.28.68.28s.49-.09.68-.28l9.94-9.94c.37-.37.37-.98,0-1.36-.37-.37-.98-.37-1.36,0Z"/>
    <path class="cls-5" d="M68.88,41.62c-.34-.9-.9-1.71-1.62-2.34-.82-.72-1.81-1.09-3.77-1.83l-13.32-5c-.56-.21-.87-.33-1.24-.38-.33-.05-.66-.05-.99,0-.37.05-.68.17-1.24.38l-13.32,5c-1.97.74-2.95,1.11-3.77,1.83-.72.63-1.28,1.44-1.62,2.34-.39,1.02-.39,2.07-.39,4.17v9.4c0,11.4,13.15,19.48,18.8,22.43.55.29.89.46,1.38.56.2.04.43.06.66.06s.46-.02.66-.06c.49-.1.82-.27,1.38-.56,5.65-2.94,18.8-11.03,18.8-22.42v-9.4c0-2.1,0-3.16-.39-4.17ZM67.35,55.19c0,10.64-13.6,18.55-17.77,20.72-.49.25-.65.34-.86.38-.15.03-.43.03-.58,0-.21-.04-.37-.12-.86-.38-4.17-2.17-17.77-10.08-17.77-20.72v-9.4c0-1.87,0-2.8.26-3.49.23-.61.61-1.15,1.1-1.58.55-.49,1.43-.82,3.18-1.47l13.32-5c.47-.18.68-.25.84-.28.07-.01.14-.02.22-.02s.15,0,.22.02c.16.02.37.1.84.28l13.32,5c1.75.66,2.62.98,3.18,1.47.49.43.87.98,1.1,1.58.26.69.26,1.63.26,3.49v9.4Z"/>
  </g>
  <text class="cls-5" transform="translate(27.59 119.7)"><tspan class="cls-17"><tspan class="cls-20" x="0" y="0">D</tspan><tspan x="15.75" y="0">a</tspan><tspan class="cls-15" x="30.11" y="0">n</tspan><tspan x="43.26" y="0">o </tspan><tspan class="cls-15" x="62.45" y="0">m</tspan><tspan class="cls-2" x="83.52" y="0">o</tspan><tspan class="cls-12" x="96.68" y="0">r</tspan><tspan class="cls-4" x="105.01" y="0">a</tspan><tspan x="119.44" y="0">l</tspan></tspan><tspan class="cls-26"><tspan class="cls-6" x="0" y="21.6">R</tspan><tspan class="cls-16" x="9.7" y="21.6">e</tspan><tspan class="cls-23" x="19.58" y="21.6">c</tspan><tspan class="cls-21" x="28.63" y="21.6">l</tspan><tspan x="31.99" y="21.6">a</tspan><tspan class="cls-22" x="42.44" y="21.6">ma</tspan><tspan class="cls-21" x="68.54" y="21.6">do</tspan><tspan x="89.32" y="21.6">s </tspan><tspan class="cls-16" x="101.37" y="21.6">p</tspan><tspan class="cls-3" x="112" y="21.6">o</tspan><tspan x="122" y="21.6">r </tspan><tspan class="cls-19" x="132.75" y="21.6">t</tspan><tspan class="cls-3" x="138.72" y="21.6">e</tspan><tspan class="cls-8" x="148.68" y="21.6">r</tspan><tspan class="cls-23" x="154.51" y="21.6">c</tspan><tspan class="cls-16" x="163.57" y="21.6">e</tspan><tspan class="cls-7" x="173.44" y="21.6">i</tspan><tspan class="cls-8" x="176.83" y="21.6">r</tspan><tspan class="cls-21" x="182.66" y="21.6">o</tspan><tspan class="cls-7" x="192.68" y="21.6">s</tspan><tspan x="200.39" y="21.6">, </tspan><tspan class="cls-21" x="208.32" y="21.6">desd</tspan><tspan x="247.51" y="21.6">e </tspan></tspan><tspan class="cls-26"><tspan class="cls-23" x="0" y="43.2">q</tspan><tspan class="cls-21" x="10.7" y="43.2">u</tspan><tspan x="19.93" y="43.2">e </tspan><tspan class="cls-8" x="34.3" y="43.2">r</tspan><tspan class="cls-1" x="40.13" y="43.2">e</tspan><tspan x="50.12" y="43.2">s</tspan><tspan class="cls-9" x="57.85" y="43.2">u</tspan><tspan x="67.26" y="43.2">l</tspan><tspan class="cls-14" x="70.68" y="43.2">t</tspan><tspan x="76.64" y="43.2">an</tspan><tspan class="cls-19" x="96.75" y="43.2">t</tspan><tspan class="cls-21" x="102.72" y="43.2">e</tspan><tspan x="112.71" y="43.2">s </tspan><tspan class="cls-1" x="124.76" y="43.2">d</tspan><tspan x="135.52" y="43.2">e </tspan><tspan class="cls-10" x="149.89" y="43.2">ev</tspan><tspan class="cls-3" x="168.24" y="43.2">e</tspan><tspan x="178.21" y="43.2">n</tspan><tspan class="cls-14" x="187.85" y="43.2">t</tspan><tspan x="193.82" y="43.2">o </tspan><tspan class="cls-23" x="208.22" y="43.2">c</tspan><tspan class="cls-24" x="217.28" y="43.2">o</tspan><tspan class="cls-16" x="227.2" y="43.2">b</tspan><tspan class="cls-3" x="237.85" y="43.2">e</tspan><tspan x="247.81" y="43.2">r</tspan><tspan class="cls-14" x="254.25" y="43.2">t</tspan><tspan x="260.21" y="43.2">o </tspan></tspan><tspan class="cls-26"><tspan x="0" y="64.8">e </tspan><tspan class="cls-23" x="14.37" y="64.8">q</tspan><tspan class="cls-21" x="25.07" y="64.8">u</tspan><tspan class="cls-9" x="34.3" y="64.8">a</tspan><tspan x="44.87" y="64.8">li</tspan><tspan class="cls-21" x="51.71" y="64.8">f</tspan><tspan class="cls-3" x="57.65" y="64.8">i</tspan><tspan class="cls-23" x="60.98" y="64.8">c</tspan><tspan class="cls-16" x="70.04" y="64.8">a</tspan><tspan class="cls-21" x="80.32" y="64.8">d</tspan><tspan x="91.08" y="64.8">o </tspan><tspan class="cls-23" x="105.48" y="64.8">c</tspan><tspan class="cls-3" x="114.53" y="64.8">o</tspan><tspan class="cls-16" x="124.52" y="64.8">m</tspan><tspan x="140.34" y="64.8">o a</tspan><tspan class="cls-14" x="165.19" y="64.8">t</tspan><tspan x="171.16" y="64.8">o </tspan><tspan class="cls-1" x="185.56" y="64.8">d</tspan><tspan x="196.33" y="64.8">e </tspan></tspan><tspan class="cls-26"><tspan class="cls-16" x="0" y="86.4">ne</tspan><tspan x="19.34" y="86.4">gl</tspan><tspan class="cls-3" x="33.34" y="86.4">igê</tspan><tspan class="cls-16" x="57.11" y="86.4">n</tspan><tspan class="cls-24" x="66.58" y="86.4">c</tspan><tspan class="cls-3" x="75.6" y="86.4">i</tspan><tspan x="78.93" y="86.4">a, </tspan><tspan class="cls-22" x="97.33" y="86.4">a</tspan><tspan class="cls-23" x="107.6" y="86.4">ç</tspan><tspan class="cls-16" x="116.66" y="86.4">ã</tspan><tspan x="126.94" y="86.4">o </tspan><tspan class="cls-22" x="141.34" y="86.4">o</tspan><tspan x="151.24" y="86.4">u </tspan><tspan class="cls-3" x="164.84" y="86.4">e</tspan><tspan x="174.81" y="86.4">m</tspan><tspan class="cls-21" x="190.8" y="86.4">i</tspan><tspan class="cls-25" x="194.16" y="86.4">s</tspan><tspan class="cls-21" x="201.89" y="86.4">s</tspan><tspan class="cls-22" x="209.55" y="86.4">ã</tspan><tspan x="219.83" y="86.4">o </tspan></tspan><tspan class="cls-26"><tspan class="cls-7" x="0" y="108">i</tspan><tspan class="cls-22" x="3.39" y="108">n</tspan><tspan class="cls-27" x="12.86" y="108">e</tspan><tspan class="cls-8" x="22.82" y="108">r</tspan><tspan class="cls-3" x="28.66" y="108">e</tspan><tspan x="38.62" y="108">n</tspan><tspan class="cls-19" x="48.27" y="108">t</tspan><tspan x="54.23" y="108">e à </tspan><tspan class="cls-3" x="83.38" y="108">p</tspan><tspan class="cls-8" x="94.11" y="108">r</tspan><tspan x="99.94" y="108">á</tspan><tspan class="cls-21" x="110.4" y="108">t</tspan><tspan class="cls-3" x="116.55" y="108">i</tspan><tspan class="cls-23" x="119.88" y="108">c</tspan><tspan x="128.93" y="108">a </tspan><tspan class="cls-3" x="143.71" y="108">p</tspan><tspan class="cls-11" x="154.44" y="108">r</tspan><tspan x="160.27" y="108">o</tspan><tspan class="cls-21" x="170.35" y="108">fi</tspan><tspan x="179.65" y="108">s</tspan><tspan class="cls-3" x="187.38" y="108">sio</tspan><tspan class="cls-16" x="208.34" y="108">n</tspan><tspan class="cls-9" x="217.81" y="108">a</tspan><tspan x="228.38" y="108">l </tspan><tspan class="cls-21" x="236.12" y="108">d</tspan><tspan x="246.89" y="108">e </tspan></tspan><tspan class="cls-26"><tspan class="cls-8" x="0" y="129.6">r</tspan><tspan class="cls-1" x="5.83" y="129.6">e</tspan><tspan class="cls-13" x="15.82" y="129.6">s</tspan><tspan class="cls-16" x="23.55" y="129.6">p</tspan><tspan class="cls-3" x="34.19" y="129.6">o</tspan><tspan x="44.18" y="129.6">n</tspan><tspan class="cls-21" x="53.83" y="129.6">s</tspan><tspan class="cls-9" x="61.5" y="129.6">a</tspan><tspan class="cls-16" x="72.07" y="129.6">b</tspan><tspan class="cls-18" x="82.72" y="129.6">i</tspan><tspan x="86.2" y="129.6">l</tspan><tspan class="cls-3" x="89.62" y="129.6">i</tspan><tspan class="cls-21" x="92.95" y="129.6">d</tspan><tspan class="cls-16" x="103.72" y="129.6">a</tspan><tspan class="cls-21" x="113.99" y="129.6">d</tspan><tspan x="124.76" y="129.6">e </tspan><tspan class="cls-21" x="139.13" y="129.6">d</tspan><tspan x="149.89" y="129.6">a </tspan><tspan class="cls-16" x="164.67" y="129.6">p</tspan><tspan class="cls-21" x="175.31" y="129.6">e</tspan><tspan x="185.3" y="129.6">s</tspan><tspan class="cls-21" x="193.03" y="129.6">s</tspan><tspan class="cls-22" x="200.7" y="129.6">o</tspan><tspan x="210.6" y="129.6">a </tspan></tspan><tspan class="cls-26"><tspan class="cls-21" x="0" y="151.2">s</tspan><tspan class="cls-16" x="7.67" y="151.2">e</tspan><tspan class="cls-23" x="17.54" y="151.2">g</tspan><tspan x="28" y="151.2">u</tspan><tspan class="cls-8" x="37.29" y="151.2">r</tspan><tspan class="cls-16" x="43.12" y="151.2">a</tspan><tspan class="cls-21" x="53.4" y="151.2">d</tspan><tspan x="64.16" y="151.2">a.</tspan></tspan></text>
</svg>